<svg width="42" height="42" viewBox="0 0 42 42" fill="none" xmlns="http://www.w3.org/2000/svg">
<mask id="path-1-outside-1_362_1949" maskUnits="userSpaceOnUse" x="0" y="0" width="42" height="42" fill="black">
<rect fill="white" width="42" height="42"/>
<path d="M26.3174 15.7935H36.9521C37.8975 15.7935 38.7049 16.1479 39.3745 16.8569C40.0441 17.5659 40.3789 18.3931 40.3789 19.3384V22.8833C40.3789 23.868 40.0441 24.7148 39.3745 25.4238C38.7049 26.0934 37.8975 26.4282 36.9521 26.4282H26.3174V37.063C26.3174 38.0477 25.9629 38.8748 25.2539 39.5444C24.5449 40.1746 23.6981 40.4897 22.7134 40.4897H19.2275C18.2428 40.4897 17.396 40.1746 16.687 39.5444C16.0174 38.8748 15.6826 38.0477 15.6826 37.063V26.4282H5.04785C4.06315 26.4282 3.236 26.0934 2.56641 25.4238C1.9362 24.7148 1.62109 23.868 1.62109 22.8833V19.3384C1.62109 18.3931 1.9362 17.5659 2.56641 16.8569C3.236 16.1479 4.06315 15.7935 5.04785 15.7935H15.6826V5.15869C15.6826 4.17399 16.0174 3.36654 16.687 2.73633C17.396 2.06673 18.2428 1.73193 19.2275 1.73193H22.7134C23.6981 1.73193 24.5449 2.06673 25.2539 2.73633C25.9629 3.36654 26.3174 4.17399 26.3174 5.15869V15.7935Z"/>
</mask>
<path d="M26.3174 15.7935H36.9521C37.8975 15.7935 38.7049 16.1479 39.3745 16.8569C40.0441 17.5659 40.3789 18.3931 40.3789 19.3384V22.8833C40.3789 23.868 40.0441 24.7148 39.3745 25.4238C38.7049 26.0934 37.8975 26.4282 36.9521 26.4282H26.3174V37.063C26.3174 38.0477 25.9629 38.8748 25.2539 39.5444C24.5449 40.1746 23.6981 40.4897 22.7134 40.4897H19.2275C18.2428 40.4897 17.396 40.1746 16.687 39.5444C16.0174 38.8748 15.6826 38.0477 15.6826 37.063V26.4282H5.04785C4.06315 26.4282 3.236 26.0934 2.56641 25.4238C1.9362 24.7148 1.62109 23.868 1.62109 22.8833V19.3384C1.62109 18.3931 1.9362 17.5659 2.56641 16.8569C3.236 16.1479 4.06315 15.7935 5.04785 15.7935H15.6826V5.15869C15.6826 4.17399 16.0174 3.36654 16.687 2.73633C17.396 2.06673 18.2428 1.73193 19.2275 1.73193H22.7134C23.6981 1.73193 24.5449 2.06673 25.2539 2.73633C25.9629 3.36654 26.3174 4.17399 26.3174 5.15869V15.7935Z" fill="#AAC39B"/>
<path d="M26.3174 15.7935H25.3174V16.7935H26.3174V15.7935ZM39.3745 25.4238L40.0816 26.1309L40.0917 26.1208L40.1015 26.1105L39.3745 25.4238ZM26.3174 26.4282V25.4282H25.3174V26.4282H26.3174ZM25.2539 39.5444L25.9183 40.2918L25.9296 40.2818L25.9405 40.2714L25.2539 39.5444ZM16.687 39.5444L15.9799 40.2515L16.0007 40.2723L16.0226 40.2918L16.687 39.5444ZM15.6826 26.4282H16.6826V25.4282H15.6826V26.4282ZM2.56641 25.4238L1.819 26.0882L1.83852 26.1102L1.8593 26.1309L2.56641 25.4238ZM2.56641 16.8569L1.83939 16.1703L1.82903 16.1813L1.819 16.1926L2.56641 16.8569ZM15.6826 15.7935V16.7935H16.6826V15.7935H15.6826ZM16.687 2.73633L17.3724 3.46453L17.3736 3.46334L16.687 2.73633ZM25.2539 2.73633L24.5673 3.46334L24.5783 3.47371L24.5895 3.48374L25.2539 2.73633ZM26.3174 15.7935V16.7935H36.9521V15.7935V14.7935H26.3174V15.7935ZM36.9521 15.7935V16.7935C37.6127 16.7935 38.1601 17.0275 38.6475 17.5436L39.3745 16.8569L40.1015 16.1703C39.2498 15.2684 38.1823 14.7935 36.9521 14.7935V15.7935ZM39.3745 16.8569L38.6475 17.5436C39.1479 18.0734 39.3789 18.6572 39.3789 19.3384H40.3789H41.3789C41.3789 18.1289 40.9403 17.0584 40.1015 16.1703L39.3745 16.8569ZM40.3789 19.3384H39.3789V22.8833H40.3789H41.3789V19.3384H40.3789ZM40.3789 22.8833H39.3789C39.3789 23.6154 39.1399 24.2159 38.6475 24.7372L39.3745 25.4238L40.1015 26.1105C40.9483 25.2138 41.3789 24.1206 41.3789 22.8833H40.3789ZM39.3745 25.4238L38.6674 24.7167C38.185 25.1992 37.6317 25.4282 36.9521 25.4282V26.4282V27.4282C38.1632 27.4282 39.2249 26.9877 40.0816 26.1309L39.3745 25.4238ZM36.9521 26.4282V25.4282H26.3174V26.4282V27.4282H36.9521V26.4282ZM26.3174 26.4282H25.3174V37.063H26.3174H27.3174V26.4282H26.3174ZM26.3174 37.063H25.3174C25.3174 37.7756 25.074 38.3388 24.5673 38.8174L25.2539 39.5444L25.9405 40.2714C26.8517 39.4109 27.3174 38.3198 27.3174 37.063H26.3174ZM25.2539 39.5444L24.5895 38.797C24.0711 39.2579 23.4634 39.4897 22.7134 39.4897V40.4897V41.4897C23.9328 41.4897 25.0187 41.0914 25.9183 40.2918L25.2539 39.5444ZM22.7134 40.4897V39.4897H19.2275V40.4897V41.4897H22.7134V40.4897ZM19.2275 40.4897V39.4897C18.4775 39.4897 17.8698 39.2579 17.3514 38.797L16.687 39.5444L16.0226 40.2918C16.9222 41.0914 18.0081 41.4897 19.2275 41.4897V40.4897ZM16.687 39.5444L17.3941 38.8373C16.9202 38.3634 16.6826 37.7943 16.6826 37.063H15.6826H14.6826C14.6826 38.3011 15.1146 39.3862 15.9799 40.2515L16.687 39.5444ZM15.6826 37.063H16.6826V26.4282H15.6826H14.6826V37.063H15.6826ZM15.6826 26.4282V25.4282H5.04785V26.4282V27.4282H15.6826V26.4282ZM5.04785 26.4282V25.4282C4.31657 25.4282 3.74739 25.1906 3.27351 24.7167L2.56641 25.4238L1.8593 26.1309C2.72461 26.9962 3.80973 27.4282 5.04785 27.4282V26.4282ZM2.56641 25.4238L3.31382 24.7595C2.85299 24.241 2.62109 23.6333 2.62109 22.8833H1.62109H0.621094C0.621094 24.1027 1.01941 25.1887 1.819 26.0882L2.56641 25.4238ZM1.62109 22.8833H2.62109V19.3384H1.62109H0.621094V22.8833H1.62109ZM1.62109 19.3384H2.62109C2.62109 18.6389 2.8457 18.0479 3.31382 17.5213L2.56641 16.8569L1.819 16.1926C1.0267 17.0839 0.621094 18.1472 0.621094 19.3384H1.62109ZM2.56641 16.8569L3.29342 17.5436C3.77203 17.0368 4.33524 16.7935 5.04785 16.7935V15.7935V14.7935C3.79106 14.7935 2.69998 15.2591 1.83939 16.1703L2.56641 16.8569ZM5.04785 15.7935V16.7935H15.6826V15.7935V14.7935H5.04785V15.7935ZM15.6826 15.7935H16.6826V5.15869H15.6826H14.6826V15.7935H15.6826ZM15.6826 5.15869H16.6826C16.6826 4.42788 16.9189 3.89129 17.3724 3.46453L16.687 2.73633L16.0016 2.00813C15.1159 2.84178 14.6826 3.9201 14.6826 5.15869H15.6826ZM16.687 2.73633L17.3736 3.46334C17.895 2.97095 18.4954 2.73193 19.2275 2.73193V1.73193V0.731934C17.9903 0.731934 16.897 1.16251 16.0004 2.00932L16.687 2.73633ZM19.2275 1.73193V2.73193H22.7134V1.73193V0.731934H19.2275V1.73193ZM22.7134 1.73193V2.73193C23.4455 2.73193 24.0459 2.97095 24.5673 3.46334L25.2539 2.73633L25.9405 2.00932C25.0439 1.16251 23.9506 0.731934 22.7134 0.731934V1.73193ZM25.2539 2.73633L24.5895 3.48374C25.076 3.91611 25.3174 4.44725 25.3174 5.15869H26.3174H27.3174C27.3174 3.90073 26.8498 2.81696 25.9183 1.98892L25.2539 2.73633ZM26.3174 5.15869H25.3174V15.7935H26.3174H27.3174V5.15869H26.3174Z" fill="black" mask="url(#path-1-outside-1_362_1949)"/>
</svg>
