<svg width="30" height="14" viewBox="0 0 30 14" fill="none" xmlns="http://www.w3.org/2000/svg">
<mask id="path-1-outside-1_362_1950" maskUnits="userSpaceOnUse" x="0" y="0" width="30" height="14" fill="black">
<rect fill="white" width="30" height="14"/>
<path d="M25.1621 12.2271H4.77881C3.79411 12.2271 2.96696 11.8726 2.29736 11.1636C1.66715 10.4546 1.35205 9.60775 1.35205 8.62305V5.13721C1.35205 4.15251 1.66715 3.32536 2.29736 2.65576C2.96696 1.94678 3.79411 1.59229 4.77881 1.59229H25.1621C26.1468 1.59229 26.9543 1.94678 27.5845 2.65576C28.2541 3.32536 28.5889 4.15251 28.5889 5.13721V8.62305C28.5889 9.60775 28.2541 10.4546 27.5845 11.1636C26.9543 11.8726 26.1468 12.2271 25.1621 12.2271Z"/>
</mask>
<path d="M25.1621 12.2271H4.77881C3.79411 12.2271 2.96696 11.8726 2.29736 11.1636C1.66715 10.4546 1.35205 9.60775 1.35205 8.62305V5.13721C1.35205 4.15251 1.66715 3.32536 2.29736 2.65576C2.96696 1.94678 3.79411 1.59229 4.77881 1.59229H25.1621C26.1468 1.59229 26.9543 1.94678 27.5845 2.65576C28.2541 3.32536 28.5889 4.15251 28.5889 5.13721V8.62305C28.5889 9.60775 28.2541 10.4546 27.5845 11.1636C26.9543 11.8726 26.1468 12.2271 25.1621 12.2271Z" fill="#AAC39B"/>
<path d="M2.29736 11.1636L1.54995 11.8279L1.55998 11.8392L1.57035 11.8502L2.29736 11.1636ZM2.29736 2.65576L1.57035 1.96914L1.56916 1.9704L2.29736 2.65576ZM27.5845 2.65576L26.8371 3.32012L26.8566 3.34209L26.8774 3.36287L27.5845 2.65576ZM27.5845 11.1636L26.8575 10.477L26.8471 10.4879L26.8371 10.4992L27.5845 11.1636ZM25.1621 12.2271V11.2271H4.77881V12.2271V13.2271H25.1621V12.2271ZM4.77881 12.2271V11.2271C4.0662 11.2271 3.50299 10.9837 3.02438 10.477L2.29736 11.1636L1.57035 11.8502C2.43093 12.7614 3.52202 13.2271 4.77881 13.2271V12.2271ZM2.29736 11.1636L3.04477 10.4992C2.58394 9.98077 2.35205 9.37305 2.35205 8.62305H1.35205H0.352051C0.352051 9.84244 0.750367 10.9284 1.54995 11.8279L2.29736 11.1636ZM1.35205 8.62305H2.35205V5.13721H1.35205H0.352051V8.62305H1.35205ZM1.35205 5.13721H2.35205C2.35205 4.38744 2.58306 3.81129 3.02556 3.34113L2.29736 2.65576L1.56916 1.9704C0.751254 2.83942 0.352051 3.91757 0.352051 5.13721H1.35205ZM2.29736 2.65576L3.02438 3.34238C3.50299 2.83562 4.0662 2.59229 4.77881 2.59229V1.59229V0.592285C3.52202 0.592285 2.43093 1.05793 1.57035 1.96914L2.29736 2.65576ZM4.77881 1.59229V2.59229H25.1621V1.59229V0.592285H4.77881V1.59229ZM25.1621 1.59229V2.59229C25.8735 2.59229 26.4047 2.83371 26.8371 3.32012L27.5845 2.65576L28.3319 1.9914C27.5038 1.05984 26.4201 0.592285 25.1621 0.592285V1.59229ZM27.5845 2.65576L26.8774 3.36287C27.3512 3.83675 27.5889 4.40593 27.5889 5.13721H28.5889H29.5889C29.5889 3.89909 29.1569 2.81396 28.2916 1.94865L27.5845 2.65576ZM28.5889 5.13721H27.5889V8.62305H28.5889H29.5889V5.13721H28.5889ZM28.5889 8.62305H27.5889C27.5889 9.35519 27.3498 9.9556 26.8575 10.477L27.5845 11.1636L28.3115 11.8502C29.1583 10.9536 29.5889 9.86031 29.5889 8.62305H28.5889ZM27.5845 11.1636L26.8371 10.4992C26.4047 10.9856 25.8735 11.2271 25.1621 11.2271V12.2271V13.2271C26.4201 13.2271 27.5038 12.7595 28.3319 11.8279L27.5845 11.1636Z" fill="black" mask="url(#path-1-outside-1_362_1950)"/>
</svg>
