<svg width="322" height="337" viewBox="0 0 322 337" fill="none" xmlns="http://www.w3.org/2000/svg">
<g opacity="0.25">
<path d="M161.991 132.902C159.807 131.582 157.271 130.781 154.705 130.94C155.741 137.663 162.887 140.593 164.479 146.956C164.837 150.187 163.659 153.43 164.408 156.662C167.923 170.865 175.992 183.24 183.012 195.879C178.886 195.094 174.373 191.424 170.4 194.592C164.714 193.436 159.242 196.158 153.548 195.943C148.843 193.733 143.813 191.823 138.499 192.143C136.129 194.717 140.993 195.799 142.513 196.882C139.965 196.35 137.457 195.638 135.059 194.61C135.501 193.714 135.952 192.801 136.382 191.908C132.611 192.899 128.75 193.387 124.864 193.617C118.159 196.158 111.25 198.148 104.488 200.554C99.535 203.544 94.0317 205.465 88.6161 207.441C85.4808 207.922 82.2996 207.424 79.1597 207.934C89.6326 210.238 100.511 210.958 111.228 210.427C117.36 209.468 123.573 209.337 129.734 208.648C139.605 202.118 151.601 206.876 162.093 208.978C161.129 208.235 159.201 206.75 158.254 206.016C160.592 206.503 162.97 206.809 165.317 207.237C167.095 207.371 166.976 208.976 166.097 210.081C187.436 215.88 206.191 228.196 223.897 241.042C224.428 240.733 225.487 240.102 226.031 239.789C225.733 240.612 225.137 242.257 224.852 243.075C227.005 243.243 229.133 243.335 231.287 243.419C230.455 244.146 229.623 244.872 228.778 245.603C230.899 249.629 235.121 251.811 237.536 255.618C247.059 270.23 254.135 286.21 261.929 301.765C256.849 300.752 254.008 295.038 249.168 293.067C244.468 291.709 241.529 286.04 236.139 287.043C231.876 282.356 225.195 282.468 219.693 280.261C215.568 280.315 211.451 279.779 207.316 279.976C209.54 281.731 211.789 283.477 213.842 285.44C215.635 287.556 216.421 291.168 219.688 291.54C218.381 288.445 216.708 285.521 215.099 282.577C219.385 286.194 221.688 291.449 225.45 295.527C224.563 292.787 223.613 290.067 222.769 287.327C225.227 289.511 227.433 291.957 229.614 294.411C228.671 291.493 227.711 288.566 226.873 285.628C230.555 289.675 233.533 294.282 236.338 298.958C235.798 294.232 233.268 290.155 231.432 285.884C234.76 290.225 237.326 295.075 240.33 299.632C239.736 296.491 238.955 293.381 238.217 290.272C242.007 292.815 243.771 297.123 245.866 300.975L246.566 300.626C244.89 297.648 243.392 294.571 242.119 291.408C245.526 293.625 247.747 297.13 249.491 300.716C248.943 301.325 247.839 302.558 247.295 303.179C249.368 306.745 251.241 310.472 252.448 314.44C253.17 316.575 253.841 318.726 254.449 320.897C255.113 320.741 256.458 320.439 257.122 320.284C254.935 314.515 249.934 309.531 249.566 303.281C249.811 303.259 250.322 303.237 250.567 303.215C252.823 306.652 254.425 310.452 255.968 314.242L257.761 313.853C254.407 307.407 250.391 301.213 248.229 294.206C261.704 309.141 265.524 329.53 271.413 348.112C267.459 337.058 263.82 325.763 258.204 315.419L256.592 314.533C258.127 318.914 260.106 323.195 260.625 327.858C259.608 325.453 258.666 323.024 257.801 320.571C257.282 321.576 256.762 322.581 256.234 323.603C259.352 331.328 261.948 339.261 263.731 347.41C272.551 353.487 281.892 358.783 290.286 365.457C294.561 368.951 299.622 371.439 303.382 375.559C290.342 368.224 278.934 358.283 265.894 350.906C243.553 334.931 217.479 325.072 190.91 318.714C204.108 318.765 216.407 324.21 228.545 328.754C227.079 322.043 222.027 317.075 219.814 310.699C223.609 316.375 226.774 322.448 229.1 328.871C240.83 333.98 251.545 341.132 263.192 346.421C261.248 335.831 256.545 326.162 251.251 316.92C249.299 313.12 247.148 309.439 244.949 305.787C246.247 309.642 247.752 313.402 249.274 317.171C248.191 316.845 246.028 316.204 244.944 315.878C245.754 318.334 246.535 320.786 247.219 323.283C243.45 319.754 241.741 314.785 239.254 310.4C238.663 309.776 237.466 308.52 236.862 307.901C240.312 316.317 244.775 324.355 247.123 333.179C243.227 323.799 238.254 314.818 231.5 307.187C233.852 312.246 236.582 317.127 238.468 322.39C237.817 321.926 236.517 321.01 235.866 320.546C235.39 321.425 234.422 323.175 233.942 324.041C230.909 318.514 227.578 313.152 224.523 307.646C223.093 304.296 220.586 301.302 216.629 301.442C216.388 301.127 215.908 300.497 215.668 300.181C211.687 295.152 209.187 289.19 205.661 283.875C204.243 282.718 203.248 281.174 202.167 279.713C197.166 281.235 192.084 282.588 186.802 282.479C186.712 283.207 186.549 284.673 186.463 285.414C180.058 285.998 174.708 289.675 169.208 292.616C162.181 297.75 154.404 301.934 148.181 308.099C143.48 312.493 139.515 317.576 135.209 322.333C127.343 321.844 119.47 322.826 111.833 324.684C110.316 324.971 109.805 325.96 110.28 327.627C108.111 328.682 105.938 329.724 103.74 330.774C102.497 333.856 98.7891 335.177 98.1651 338.622C96.4393 340.277 94.6585 341.936 93.6086 344.131C95.6937 345.23 97.7494 346.325 99.8219 347.428C97.5369 348.645 94.2388 349.318 94.8593 352.716C93.8386 351.796 92.7924 350.884 91.7503 349.984C89.4204 356.421 83.6357 360.446 78.2344 364.181C81.3585 365.16 83.7586 361.975 86.434 360.885C92.607 357.771 97.6685 352.969 103.623 349.52C102.888 348.97 102.157 348.433 101.426 347.896C101.797 347.303 102.555 346.124 102.93 345.543C103.183 346.469 103.689 348.323 103.955 349.246C106.153 347.888 108.389 346.603 110.669 345.415C110.572 344.802 110.374 343.564 110.276 342.951L110.917 345.14C111.919 344.681 113.934 343.759 114.935 343.3C114.674 342.04 114.396 340.772 114.215 339.5C115.365 340.169 116.473 340.922 117.628 341.561C122.206 337.879 127.088 334.533 130.927 330.022C133.441 326.843 137.429 325.307 141.399 325.162C148.202 324.157 153.159 329.882 159.449 331.308C159.849 331.95 160.662 333.23 161.063 333.872C166.112 335.623 170.075 339.454 174.963 341.578C177.275 338.645 181.072 337.869 184.301 336.407C189.845 334.306 195.033 331.394 200.384 328.865L199.468 328.625C192.622 331.252 185.447 333.02 178.83 336.232C176.694 337.304 174.331 337.791 171.978 338.093C174.123 337.27 176.288 336.51 178.481 335.84C178.304 335.239 177.936 334.04 177.746 333.443C174.68 334.406 171.605 335.385 168.511 336.258C171.816 333.233 176.262 332.124 180.336 330.547L178.057 332.575C179.093 333.014 180.115 333.458 181.151 333.898C184.76 332.357 188.37 330.774 191.885 329.024C188.046 329.799 184.222 330.667 180.342 331.315C182.16 328.189 185.897 327.489 188.828 325.842C180.456 327.235 173.003 331.819 164.694 333.5C168.845 330.848 173.371 328.889 177.9 326.985C172.909 326.21 168.491 328.988 164.105 330.903C162.051 330.032 159.975 329.181 157.912 328.327C160.594 327.305 163.282 326.295 165.977 325.311C164.947 326.604 163.909 327.914 162.875 329.237C166.594 327.997 170.256 326.621 173.766 324.901C171.333 324.599 168.883 324.595 166.423 324.735C167.65 323.756 168.861 322.769 170.043 321.777C165.783 323.428 161.645 325.417 157.222 326.644C161.261 321.929 167.281 319.214 173.523 320.095C174.23 319.898 175.66 319.513 176.367 319.315C175.037 317.248 172.275 318.506 170.287 318.327C163.852 318.333 157.734 320.52 151.364 321.037C152.786 320.668 154.195 320.303 155.599 319.968C155.888 319.512 156.432 318.583 156.716 318.115C160.693 318.696 164.663 317.935 168.61 317.63C173.601 317.132 178.602 317.764 183.596 317.629C183.123 318.032 182.172 318.824 181.698 319.227C181.816 319.553 182.048 320.193 182.162 320.507C196.82 320.177 210.726 325.879 224.14 331.137C235.482 336.214 246.572 341.862 257.304 348.142C260.396 349.9 263.467 351.721 266.439 353.671C257.428 357.366 248.156 360.5 238.434 361.609C246.217 359.159 253.998 356.611 261.386 353.097C251.494 354.372 242.275 358.469 232.522 360.358L233.596 362.324C241.179 364.122 249.095 363.406 256.799 364.661L256.22 362.536C256.445 363.066 256.873 364.147 257.09 364.694C264.184 364.212 271.078 361.163 278.232 361.921C288.818 367.086 296.429 376.528 306.181 382.854C320.438 399.192 335.901 414.529 348.49 432.266C355.852 441.633 364.781 449.634 372.114 459.039L372.699 458.503C373.694 457.585 374.68 456.683 375.666 455.781C379.416 461.01 383.503 465.977 387.952 470.633C388.459 469.982 389.505 468.698 390.024 468.043C385.17 461.15 378.459 455.983 373.064 449.585C372.18 448.216 370.042 446.951 370.598 445.095C371.072 444.958 372.004 444.676 372.474 444.526C371.369 443.254 370.282 441.949 369.186 440.661C369.307 441.7 369.545 443.765 369.662 444.792C364.992 440.234 360.975 435.09 356.685 430.187C356.277 430.793 355.463 432.018 355.058 432.636C355.211 431.007 355.372 429.36 355.571 427.744C354.836 428.202 353.356 429.135 352.62 429.593C350.518 427.212 348.404 424.792 347.044 421.881C344.023 414.154 337.159 409.077 333.109 402.027C332.316 401.734 331.535 401.437 330.742 401.143C330.628 396.786 326.29 394.193 324.242 390.662C323.975 391.054 323.437 391.869 323.158 392.266C321.139 391.552 319.785 389.408 320.778 387.343C317.818 382.003 313.419 377.68 309.987 372.658C309.921 373.505 309.801 375.194 309.739 376.054C308.445 374.143 307.142 372.249 305.83 370.372C305.205 370.823 303.969 371.734 303.348 372.198C302.134 369.926 300.955 367.629 299.814 365.319C299.461 365.222 298.746 365.043 298.381 364.95C298.359 365.936 298.324 367.893 298.303 368.879C293.006 365.43 288.222 361.259 282.873 357.91C282.268 350.253 279.542 342.879 279.679 335.181C285.439 345.535 291.14 355.922 297.384 365.995C297.654 364.776 297.91 363.561 298.167 362.345C298.744 363.323 299.283 364.313 299.814 365.319C302.058 362.701 299.364 359.907 298.309 357.431C295.724 351.775 291.415 347.032 289.561 341.032C291.93 343.86 293.632 347.138 295.351 350.383C295.808 350.279 296.704 350.063 297.161 349.96C288.463 336.092 280.68 321.625 275.174 306.181L274.512 307.399C275.755 311.523 277.278 315.558 278.848 319.564L277.187 320.149C275.746 316.591 274.336 312.997 273.463 309.245C273.07 309.901 272.272 311.219 271.88 311.876C271.475 310.955 270.652 309.118 270.243 308.185C268.125 303.206 265.546 298.444 262.872 293.741C259.369 286.474 256.069 279.101 252.048 272.098C247.665 265.672 244.336 258.602 240.433 251.883C238.019 249.223 235.519 246.647 233.25 243.871C236.191 244.32 239.1 244.975 242.024 245.499L243.055 244.737C238.017 241.835 234.399 237.153 230 233.446C224.561 227.748 217.675 223.35 213.525 216.513C212.259 213.11 212.218 209.289 209.965 206.257C209.489 208.101 209.649 210.009 209.978 211.878C208.817 209.113 206.094 207.195 205.74 204.062C206.236 204.743 207.213 206.097 207.706 206.766C208.181 206.545 209.149 206.069 209.633 205.83C204.487 198.723 200.15 191.079 196.903 182.906L194.716 183.728C196.65 189.185 199.369 194.295 201.816 199.518C198.838 196.101 196.364 192.285 194.157 188.342C194.338 190.579 194.548 192.821 194.716 195.063C193.837 193.929 192.933 192.804 192.097 191.629C190.761 189.717 189.428 187.819 188.271 185.809C186.692 183.135 185.006 180.523 183.449 177.829C183.005 178.81 182.127 180.755 181.684 181.735C180.5 179.51 179.277 177.296 178.08 175.075C175.959 171.315 173.578 167.707 171.441 163.938C179.847 169.111 189.561 173.252 194.55 182.326C195.034 182.353 196.012 182.434 196.5 182.474C192.51 176.623 188.069 170.984 186.393 163.92C186.479 165.683 186.536 167.443 186.554 169.214C182.444 167.248 176.245 162.59 179.984 157.677C178.243 155.419 173.981 154.383 174.847 150.819C175.472 150.41 176.74 149.558 177.374 149.132C173.989 142.193 167.374 138.072 161.991 132.902ZM171.21 143.483C171.452 144.288 171.94 145.909 172.187 146.727C170.539 147.573 169.186 143.456 171.21 143.483ZM166.311 145.939C168.108 149.299 169.791 152.737 171.236 156.265C166.661 155.651 167.31 149.385 166.311 145.939ZM169.654 163.863C170.909 164.597 172.207 167.752 170.324 168.295C169.043 167.57 167.98 164.494 169.654 163.863ZM172.84 169.649C174.262 170.777 174.791 172.218 174.443 173.98C172.68 174.64 171.069 170.241 172.84 169.649ZM139.543 199.815C135.547 198.779 131.836 196.882 128.133 195.095C132.48 194.158 136.351 197.305 139.543 199.815ZM133.614 201.759C129.535 200.861 125.847 198.593 122.485 196.166C126.949 195.024 130.739 198.84 133.614 201.759ZM122.37 200.288C121.01 201.113 117.979 199.812 118.142 197.996C119.624 196.279 122.399 198.446 122.37 200.288ZM113.52 199.3C115.18 199.416 116.499 200.129 117.468 201.416C117.142 204.346 109.037 199.944 113.52 199.3ZM114.097 204.714C110.992 204.149 107.864 203.509 105.002 202.125C108.328 200.044 111.235 203.33 114.097 204.714ZM103.763 203.989C105.139 204.18 107.531 204.748 107.524 206.485C105.823 208.217 99.3344 204.671 103.763 203.989ZM125.605 201.483C125.163 202.421 125.163 202.421 125.605 201.483V201.483ZM124.497 206.789C123.441 207.867 120.358 209.129 119.5 207.443C120.543 206.327 123.667 205.151 124.497 206.789ZM162.645 197.44C163.116 196.898 164.058 195.814 164.529 195.272C167.283 195.571 169.999 196.147 172.606 197.08C172.652 196.436 172.741 195.134 172.801 194.485C176.142 194.345 179.34 196.083 181.504 198.57C182.441 197.866 183.378 197.162 184.299 196.449C188.174 198.643 190.656 202.834 195.184 203.869C194.381 204.251 192.777 205.013 191.975 205.395C194.352 205.477 194.692 207.468 194.367 209.433C197.677 212.577 200.167 216.443 202.289 220.469C201.704 220.348 200.523 220.108 199.926 219.99C195.332 215.408 192.642 209.072 187.507 204.985C189.557 209.313 193.087 212.709 195.375 216.906C194.576 216.769 192.964 216.498 192.165 216.361C187.827 211.613 184.542 205.607 179.268 201.787C181.537 205.486 184.59 208.614 186.919 212.28C186.698 213.078 186.267 214.671 186.046 215.469C183.663 214.884 181.141 214.26 179.724 212.053C181.691 212.91 183.63 213.859 185.759 214.217C180.704 210.076 177.932 203.262 171.95 200.382C174.6 203.651 177.422 206.755 180.136 209.962C179.221 209.946 177.417 209.905 176.502 209.888C172.412 206.447 170.235 201.193 165.893 197.972C167.586 201.31 169.673 204.437 171.319 207.803C166.966 206.614 165.4 201.698 161.436 199.882C162.05 201.239 163.291 203.951 163.918 205.304C160.846 204.183 158.744 201.579 156.334 199.505C156.517 200.65 156.887 202.911 157.07 204.057C155.396 202.799 153.765 201.499 152.151 200.166C153.17 199.016 154.185 197.853 155.174 196.698C157.673 196.854 160.174 197.107 162.645 197.44ZM150.277 199.027C150.568 199.984 151.145 201.885 151.436 202.842C150.282 202.426 149.111 202.001 147.957 201.585C146.053 202.989 143.736 202.831 141.541 202.355C144.652 201.798 147.435 200.296 150.277 199.027ZM130.143 206.503C128.744 207.956 127.55 207.986 126.545 206.585C127.943 205.132 129.137 205.102 130.143 206.503ZM189.251 190.996C191.091 192.467 192.66 194.892 192.886 197.269C190.725 197.075 187.191 192.701 189.251 190.996ZM154.754 204.738C154.273 205.689 154.273 205.689 154.754 204.738V204.738ZM198.34 206.53C200.506 208.849 203.573 211.189 202.698 214.812C203.455 214.641 204.957 214.302 205.714 214.131C205.39 215.312 205.05 216.484 204.696 217.66C205.969 219.633 207.22 221.628 208.466 223.609C207.804 223.638 206.475 223.684 205.809 223.7C203.869 218.399 199.982 214.235 196.413 209.971C196.801 208.685 197.441 207.53 198.34 206.53ZM193.031 218.73C191.9 218.166 191.9 218.166 193.031 218.73V218.73ZM198.064 221.353C196.26 221.969 193.495 220.625 193.031 218.73C194.869 217.865 197.703 219.383 198.064 221.353ZM212.638 227.262C209.307 225.063 208.593 220.141 205.97 217.044C211.034 217.698 211.303 223.42 212.638 227.262ZM211.607 229.648C207.058 227.71 202.475 225.447 198.951 221.896C203.827 222.75 208.114 226.325 211.607 229.648ZM220.847 232.652C220.225 232.851 218.993 233.243 218.383 233.437C219.981 234.677 221.494 236.001 222.934 237.403C218.866 235.438 215.074 232.714 211.767 229.625C213.07 229.937 215.934 232.734 216.134 230.109C214.807 228.447 213.202 227.013 213.369 224.637C216.073 227.106 218.388 229.937 220.847 232.652ZM235.564 241.077C234.899 241.009 233.572 240.886 232.911 240.831C228.425 235.752 222.666 231.905 218.868 226.216C225.549 229.49 230.163 236.024 235.564 241.077ZM195.521 289.428C204.701 299.448 211.942 311.023 218.563 322.852C217.377 322.6 216.581 321.901 216.171 320.745C209.132 307.076 197.415 296.562 189.253 283.629C191.944 284.83 193.55 287.369 195.521 289.428ZM199.36 288.037C208.679 299.063 217.15 310.946 223.24 324.091C214.161 310.26 204.202 297.046 194.191 283.89C196.405 284.556 197.86 286.402 199.36 288.037ZM195.691 295.894C202.054 303.439 208.655 311.16 212.431 320.382C208.154 314.51 204.448 308.232 199.634 302.782C195.377 297.324 190.06 292.58 186.795 286.413C190.636 288.632 192.906 292.597 195.691 295.894ZM196.485 302.736C199.575 307.475 203.864 311.539 205.726 316.991C205.045 315.864 204.377 314.733 203.71 313.603C199.907 309.175 196.304 304.585 192.676 300.003C189.363 295.796 184.846 292.463 182.508 287.54C188.288 291.409 192.094 297.473 196.485 302.736ZM212.109 297.312C213.603 300.377 217.262 303.298 216.411 306.955C210.671 298.904 203.54 291.758 199.275 282.761C205.667 285.343 207.805 292.498 212.109 297.312ZM201.554 316.766C196.586 310.918 192.299 304.489 186.716 299.172C184.078 296.248 180.241 294 179.412 289.856C187.873 297.796 195.579 306.789 201.554 316.766ZM188.338 309.934C182.007 304.772 176.486 298.596 170.817 292.705C177.877 297.033 183.05 303.698 188.338 309.934ZM166.053 297.692C167.576 297.333 169.938 300.093 167.928 300.901C166.522 301.055 164.303 298.613 166.053 297.692ZM220.038 282.138C219.537 283.067 219.537 283.067 220.038 282.138V282.138ZM173.341 298.212C176.527 301.493 169.211 299.611 173.341 298.212V298.212ZM159.799 305.253C161.518 305.335 163.185 307.141 162.761 308.886C161.141 309.905 156.15 305.702 159.799 305.253ZM171.79 302.876C173.814 303.519 176.288 305.445 176.312 307.719C174.323 308.59 170.401 304.578 171.79 302.876ZM171.769 313.224C168.641 311.575 166.023 309.022 164.608 305.765C167.611 307.593 170.371 309.89 171.769 313.224ZM130.022 328.323C125.497 328.966 120.97 327.274 116.481 328.423C118.296 330.126 120.953 329.462 123.176 329.72C123.216 330.197 123.284 331.155 123.311 331.636C118.866 331.344 114.196 330.214 110.001 332.376C112.42 332.809 114.876 332.964 117.33 333.023C117.178 334.61 117.038 336.194 116.89 337.794L116.849 337.752C116.59 336.939 116.064 335.287 115.801 334.461C112.325 334.575 108.841 334.578 105.397 335.186C107.678 336.46 110.311 336.601 112.828 336.947C112.523 337.66 112.235 338.381 111.918 339.098C108.288 336.84 103.148 339.988 100.172 336.751C102.504 335.463 104.651 333.898 105.918 331.507C107.769 328.441 115.507 330.552 112.862 325.364C115.291 325.304 117.697 325.433 120.093 325.706C122.895 321.763 127.92 325.676 130.022 328.323ZM166.3 311.649C165.878 312.567 165.878 312.567 166.3 311.649V311.649ZM136.752 324.543C134.981 325.834 130.699 326.274 129.666 324.043C131.473 322.949 135.668 322.677 136.752 324.543ZM192.011 308.988C194.188 309.54 195.642 312.128 196.12 314.158C193.962 315.028 190.419 310.755 192.011 308.988ZM108.121 341.105C104.795 341.688 100.402 342.835 97.7934 339.916C101.267 339.355 104.979 339.279 108.121 341.105ZM157.137 322.864C158.047 324.534 154.414 327.23 153.206 325.502C153.188 323.688 155.512 322.375 157.137 322.864ZM121.611 334.206C121.211 335.103 121.211 335.103 121.611 334.206V334.206ZM102.39 343.979C101.014 345.327 97.2057 345.364 96.7547 343.157C98.3219 342.322 101.346 342.591 102.39 343.979ZM218.448 307.552C221.631 311.044 214.483 308.94 218.448 307.552V307.552ZM192.847 315.788C192.376 316.68 192.376 316.68 192.847 315.788V315.788ZM262.954 305.861C265.785 317.959 271.108 329.403 273.461 341.667C269.289 331.466 265.621 321.047 260.855 311.091C259.098 307.242 255.718 303.967 255.563 299.525C257.392 302.412 260.417 303.828 262.954 305.861ZM266.183 310.024C270.674 315.954 270.785 323.95 275.168 329.803C274.09 333.449 275.103 337.114 275.831 340.717C273.996 335.746 273.359 330.407 271.22 325.533C269.687 320.326 266.027 315.643 266.183 310.024ZM251.304 332.113C252.906 333.366 252.997 334.485 251.584 335.453C249.977 334.187 249.887 333.068 251.304 332.113ZM253.296 338.545C252.808 339.429 252.808 339.429 253.296 338.545V338.545ZM278.131 332.386C281.389 335.63 274.158 334.015 278.131 332.386V332.386ZM268.31 355.328C267.191 356.692 265.771 357.2 264.03 356.873C263.392 355.089 267.762 353.389 268.31 355.328ZM261.12 358.191C260.552 360.583 256.454 361.16 254.185 361.197C255.047 359.159 258.827 358.068 261.12 358.191ZM271.839 358.808C267.745 360.013 263.721 361.701 259.423 362.09C263.22 360.699 267.891 356.343 271.839 358.808ZM307.057 376.068C308.481 377.378 309.615 379.619 308.99 381.568C307.035 381.799 305.69 377.049 307.057 376.068ZM337.167 413.189C335.306 414.243 333.394 411.228 333.855 409.556C335.519 408.76 337.593 411.583 337.167 413.189Z" fill="#2E421D"/>
<path d="M171.209 143.483C169.185 143.456 170.538 147.573 172.186 146.727C171.94 145.909 171.451 144.288 171.209 143.483Z" fill="#FDF1BF"/>
<path d="M220.847 232.652C218.388 229.937 216.073 227.106 213.369 224.637C213.202 227.013 214.807 228.447 216.134 230.109C215.934 232.734 213.07 229.938 211.767 229.625C215.074 232.714 218.866 235.438 222.934 237.403C221.494 236.001 219.981 234.677 218.383 233.437C218.993 233.243 220.225 232.851 220.847 232.652Z" fill="#FDF1BF"/>
<path d="M166.309 145.939C167.309 149.385 166.66 155.651 171.235 156.265C169.79 152.737 168.107 149.299 166.309 145.939Z" fill="#546F35"/>
<path d="M177.374 149.133C176.74 149.558 175.472 150.41 174.847 150.819C173.981 154.383 178.242 155.419 179.983 157.677C176.244 162.59 182.443 167.248 186.554 169.214C186.535 167.443 186.479 165.684 186.393 163.92C184.128 158.61 180.752 153.808 177.374 149.133ZM182.551 163.016C182.301 162.186 181.783 160.56 181.52 159.734C183.179 158.66 184.534 162.959 182.551 163.016Z" fill="#95B356"/>
<path d="M308.202 151.352C308.468 153.198 308.836 155.012 309.127 156.85C312.155 156.558 313.545 162.636 309.895 160.93C309.42 161.417 308.492 162.412 308.021 162.912C307.76 161.917 307.256 159.937 306.995 158.943L305.03 159.54L305.103 160.119C305.155 160.592 305.294 161.555 305.36 162.024C306.635 162.822 307.995 163.62 308.684 165.038C308.133 166.514 307.242 166.924 306.015 166.279C305.637 166.806 304.889 167.883 304.523 168.406C304.924 168.74 305.72 169.396 306.116 169.717C303.303 172.572 302.672 177.531 299.15 179.436L297.808 179.878C296.46 175.689 295.226 171.464 293.967 167.247C293.557 167.672 292.745 168.504 292.334 168.929C292.506 169.644 292.879 171.078 293.054 171.806C295.931 174.906 297.09 179.029 298.912 182.73L300.246 181.69C302.784 179.202 303.802 174.666 308.174 174.729C307.455 174.623 305.995 174.388 305.271 174.269C308.591 166.327 314.822 160.144 319.209 152.828C318.483 152.22 317.045 150.999 316.332 150.386C316.104 151.69 315.821 152.998 315.474 154.283C314.819 155.653 314.072 156.997 313.253 158.293C311.287 156.82 310.903 154.298 310.122 152.154C309.64 151.957 308.688 151.561 308.202 151.352Z" fill="#95B356"/>
<path d="M188.338 309.934C183.05 303.698 177.877 297.033 170.817 292.705C176.485 298.596 182.006 304.772 188.338 309.934Z" fill="#95B356"/>
<path d="M266.182 310.024C266.026 315.643 269.686 320.326 271.219 325.534C273.359 330.407 273.995 335.746 275.83 340.717C275.103 337.114 274.089 333.449 275.167 329.803C270.785 323.951 270.673 315.954 266.182 310.024Z" fill="#95B356"/>
<path d="M360.736 95.5118C356.58 105.399 347.121 111.112 338.644 116.876C335.349 120.416 332.65 124.55 328.706 127.457C322.636 130.412 316.977 134.173 311.654 138.331C308.497 138.916 306.732 141.549 304.475 143.513C302.105 144.464 300.062 145.912 298.671 148.091C298.056 148.006 296.814 147.842 296.187 147.762C293.682 150.309 291.414 153.074 288.805 155.514C288.209 155.27 287.022 154.795 286.431 154.563C285.466 158.872 282.176 161.767 278.994 164.516C275.638 169.446 273.314 175.112 269.082 179.44C267.529 182.915 265.541 186.207 264.475 189.891C263.824 190.35 262.517 191.298 261.865 191.758C261.731 194.851 261.854 197.96 261.492 201.042C259.765 205.594 257.432 210.395 258.638 215.37C259.649 219.862 257.506 224.337 258.989 228.776C258.636 229.336 257.933 230.469 257.567 231.034C258.628 233.97 259.825 236.849 261.136 239.692C260.735 240.366 259.924 241.729 259.527 242.416C261.416 247.467 262.646 252.869 265.883 257.323C267.212 251.652 261.585 246.77 262.466 240.878C260.914 234.6 259.211 227.935 261.263 221.503C260.73 218.16 260.21 214.814 259.732 211.467C260.732 210.827 262.727 209.534 263.726 208.894C265.335 214.385 266.307 220.162 269.387 225.087C271.21 229.012 274.936 232.583 273.967 237.229C270.232 231.562 267.716 225.157 263.678 219.684C265.825 227.522 269.968 234.557 273.166 241.962C268.355 238.457 267.727 231.87 263.485 227.82C264.953 234.936 268.987 241.012 272.042 247.484C267.063 243.318 265.326 236.721 261.999 231.371C262.93 238.645 266.46 245.161 270.227 251.322C269.482 251.839 267.997 252.844 267.252 253.361C267.566 254.17 268.206 255.786 268.533 256.591C268.342 257.268 267.966 258.633 267.788 259.305C267.954 265.759 266.679 272.126 266.391 278.557C271.182 276.555 270.238 270.867 271.197 266.713C272.114 262.783 271.91 257.573 275.991 255.405C275.011 253.031 277.697 250.874 279.671 252.68L280.88 252.169C289.449 239.002 294.535 223.907 300.288 209.369C302.755 203.406 303.589 196.843 306.765 191.172C305.801 190.738 304.82 190.337 303.838 189.978C301.665 191.327 299.384 192.515 297.035 193.529C301.252 190.381 309.214 189.637 308.588 182.881C311.727 173.36 314.31 163.456 319.894 154.975C326.784 144.931 334.923 135.818 341.989 125.886C346.893 118.349 355.516 113.658 358.582 104.831C359.345 101.734 362.497 98.7571 360.736 95.5118ZM354.478 108.027C351.021 114.879 344.349 120.027 337.172 122.536C337.388 121.81 337.83 120.34 338.046 119.613C338.528 119.809 339.489 120.189 339.967 120.373C343.474 114.862 349.479 111.97 354.478 108.027ZM341.866 122.427C340.99 124.287 339.79 125.97 338.508 127.568C337.94 127.497 336.808 127.326 336.235 127.242C336.192 128.907 336.509 130.737 335.335 132.147C334.793 131.06 333.709 128.886 333.167 127.8C332.397 128.898 331.632 130.01 330.866 131.121C331.613 131.709 333.111 132.897 333.858 133.485C332.751 134.887 331.64 136.276 330.5 137.661C330.465 135.531 330.447 133.409 330.4 131.283C326.586 131.127 327.529 136.592 330.273 137.565C328.28 140.886 325.865 143.936 323.038 146.614C322.621 143.416 322.566 139.991 320.57 137.282C320.302 140.572 320.169 143.931 320.854 147.183L322.67 147.347C321.829 148.706 320.989 150.065 320.148 151.424C317.675 148.097 318.573 143.711 317.241 139.966C315.43 143.201 317.109 146.934 316.333 150.386C317.046 150.998 318.484 152.22 319.21 152.828C314.823 160.144 308.592 166.327 305.272 174.268C305.996 174.388 307.456 174.622 308.175 174.729C303.803 174.666 302.785 179.202 300.247 181.69C297.405 187.618 295.054 193.768 291.931 199.562C292.893 199.508 294.822 199.411 295.788 199.37C298.015 197.751 300.358 196.319 302.783 195.057C302.651 195.743 302.38 197.089 302.232 197.765C299.214 198.922 296.261 200.24 293.452 201.877C292.548 201.717 291.643 201.557 290.726 201.401C288.4 209.74 283.825 217.214 282.079 225.747C279.315 232.49 277.746 239.692 274.555 246.236C274.217 241.222 276.569 236.611 278.116 231.976C282.149 218.63 287.656 205.822 293.38 193.126C292.762 192.987 291.509 192.7 290.891 192.561C289.234 183.798 285.334 175.594 282.916 166.989C281.498 168.91 283.09 171.229 283.346 173.261C284.966 178.832 285.57 184.684 287.842 190.062C288.646 192.674 290.519 195.436 289.083 198.175C285.537 190.292 284 181.686 280.365 173.832C280.142 184.16 285.12 193.42 287.255 203.29C282.282 196.814 281.416 187.589 276.624 180.803C278.183 190.311 282.586 199.04 284.521 208.457C280.143 202.225 277.977 194.631 273.365 188.585C275.223 194.682 278.148 200.397 280.099 206.479C280.809 209.149 283.521 212.26 281.423 214.943C277.023 205.961 272.294 197.042 269.654 187.346C268.946 185.165 269.267 182.306 271.405 180.981C271.819 182.193 272.639 184.591 273.048 185.789C273.273 185.746 273.725 185.63 273.945 185.574C271.442 181.711 272.201 176.404 276.277 173.958C277.229 171.235 278.39 168.598 279.82 166.1C280.629 165.828 282.26 165.281 283.069 165.009C285.335 159.25 291.488 156.689 295.015 151.858C296.413 161.039 296.996 170.383 299.151 179.436C302.673 177.531 303.304 172.572 306.117 169.717C305.721 169.396 304.925 168.74 304.524 168.405C303.165 161.016 300.291 153.312 302.467 145.818C302.951 146.811 303.894 148.806 304.382 149.812C303.921 153.065 304.687 156.306 305.031 159.54L306.996 158.943C306.182 155.815 305.652 152.612 305.231 149.402C303.912 144.952 308.394 141.23 312.352 140.389C315.906 136.389 321.457 135.321 324.819 131.158C326.152 130.817 327.763 131.046 328.798 129.988C332.621 126.658 337.449 124.813 341.866 122.427ZM299.753 150.348C299.464 155.24 300.187 160.103 301.532 164.811C302.072 168.263 303.73 172.283 300.942 175.172C297.795 168.016 298.522 160.102 296.83 152.637C297.814 151.861 298.79 151.103 299.753 150.348ZM268.272 186.037C270.132 193.547 271.778 201.223 275.362 208.169C277.132 212.279 280.366 216.371 279.608 221.062C274.892 212.979 271.238 204.361 267.609 195.777C267.67 197.507 267.211 199.361 267.91 201.027C270.263 206.659 271.89 212.647 275.245 217.82C276.576 220.376 278.834 223.379 277.138 226.313C273.796 218.897 269.861 211.768 266.741 204.254L266.032 205.501C268.041 214.754 274.364 222.438 276.623 231.64C276.166 231.436 275.257 230.997 274.809 230.776C270.83 223.466 266.946 215.971 264.392 207.996C263.688 208.291 262.293 208.875 261.585 209.156C261.646 206.842 260.727 203.692 264.055 203.598C263.725 202.738 263.078 201.013 262.748 200.152C263.578 200.518 265.267 201.253 266.101 201.631C265.024 199.875 263.939 198.136 262.887 196.372C263.594 196.482 265.004 196.691 265.711 196.802C266.779 193.257 265.304 188.801 268.272 186.037ZM307.183 178.557C306.791 179.48 306.791 179.48 307.183 178.557V178.557ZM306.294 183.85C305.969 186.08 303.129 187.139 301.125 186.909C300.582 184.983 304.873 181.63 306.294 183.85ZM300.505 202.625C299.32 206.725 293.754 206.384 291.08 209.237C291.08 208.929 291.067 208.317 291.058 208.026C294.063 205.992 297.212 204.15 300.505 202.625ZM298.173 208.881C297.771 210.297 297.355 211.716 296.923 213.127C293.402 213.143 290.411 215.131 287.121 216.137C290.316 213.034 294.283 210.945 298.173 208.881ZM295.385 216.164C295.148 217.177 294.644 219.198 294.394 220.215C291.286 221.177 288.17 222.156 284.997 222.914C288.129 220.182 291.799 218.215 295.385 216.164ZM292.673 223.422C291.914 228.772 286.798 230.723 282.344 232.379C282.465 231.837 282.707 230.752 282.816 230.214C286.011 227.811 289.408 225.693 292.673 223.422ZM288.843 232.926C288.015 234.631 287.14 236.323 286.249 238.006C284.244 238.169 280.426 242.043 279.406 239.192C282.281 236.709 285.583 234.818 288.843 232.926ZM284.491 241.406C283.746 244.778 280.559 246.548 278.086 248.581C277.847 244.711 281.794 243.133 284.491 241.406Z" fill="#5F773A"/>
<path d="M182.552 163.016C184.534 162.958 183.18 158.66 181.521 159.734C181.784 160.56 182.302 162.186 182.552 163.016Z" fill="#C1D687"/>
<path d="M169.653 163.863C167.979 164.494 169.042 167.57 170.323 168.296C172.207 167.752 170.908 164.597 169.653 163.863Z" fill="#546A38"/>
<path d="M194.549 182.326C189.561 173.252 179.846 169.111 171.44 163.938C173.578 167.707 175.958 171.315 178.079 175.075C178.011 173.235 178.07 171.398 178.128 169.56C180.109 172.176 181.889 174.953 183.448 177.829C185.006 180.523 186.691 183.135 188.27 185.809C188.198 183.957 188.185 182.114 188.223 180.255C189.246 181.272 190.257 182.293 191.191 183.381C192.215 185.014 193.179 186.68 194.156 188.342C196.364 192.285 198.838 196.101 201.815 199.518C199.368 194.294 196.65 189.185 194.716 183.728L196.903 182.906C196.799 182.799 196.604 182.581 196.5 182.474C196.011 182.434 195.034 182.353 194.549 182.326Z" fill="#D7E58C"/>
<path d="M341.866 122.427C337.449 124.813 332.621 126.658 328.798 129.989C327.763 131.046 326.151 130.818 324.819 131.158C321.457 135.321 315.906 136.389 312.352 140.389C308.394 141.23 303.912 144.952 305.231 149.402C305.652 152.612 306.182 155.816 306.996 158.943C307.257 159.937 307.761 161.918 308.022 162.912C308.493 162.412 309.421 161.417 309.896 160.93C309.694 159.903 309.313 157.869 309.128 156.85C308.837 155.012 308.469 153.198 308.203 151.352C308.486 150.968 309.04 150.204 309.324 149.82C309.523 150.4 309.924 151.573 310.123 152.154C310.904 154.298 311.288 156.821 313.254 158.293C312.58 153.233 312.058 148.123 312.515 143.01C312.837 146.924 313.646 150.78 315.475 154.284C315.821 152.998 316.105 151.69 316.333 150.386C317.109 146.935 315.43 143.201 317.241 139.966C318.573 143.712 317.675 148.098 320.148 151.424C320.988 150.065 321.829 148.706 322.669 147.347L320.854 147.183C320.169 143.931 320.302 140.572 320.57 137.283C322.566 139.991 322.621 143.416 323.038 146.614C325.865 143.936 328.28 140.886 330.273 137.565C327.528 136.592 326.586 131.127 330.4 131.284C330.447 133.41 330.465 135.531 330.5 137.661C331.64 136.276 332.751 134.887 333.857 133.485C333.111 132.897 331.613 131.709 330.866 131.121C331.631 130.01 332.397 128.899 333.166 127.8C333.708 128.887 334.792 131.06 335.334 132.147C336.509 130.738 336.192 128.907 336.235 127.242C336.808 127.326 337.94 127.497 338.508 127.568C339.79 125.97 340.989 124.287 341.866 122.427ZM325.348 133.83C325.182 136.122 327.826 140.471 324.99 141.626C323.669 139.192 324.514 136.265 325.348 133.83ZM309.56 145.77C310.571 147.408 310.121 148.279 308.213 148.396C307.215 146.755 307.665 145.884 309.56 145.77Z" fill="#D7E8A4"/>
<path d="M295.014 151.858C291.487 156.689 285.334 159.25 283.068 165.009C282.259 165.281 280.628 165.828 279.819 166.1C278.39 168.598 277.228 171.235 276.277 173.959C272.2 176.404 271.441 181.711 273.944 185.574C273.724 185.63 273.272 185.746 273.048 185.79C272.638 184.591 271.818 182.193 271.404 180.981C269.266 182.306 268.945 185.165 269.653 187.346C272.293 197.042 277.023 205.961 281.422 214.943C283.52 212.26 280.808 209.149 280.098 206.479C278.147 200.398 275.222 194.682 273.364 188.585C277.976 194.631 280.143 202.225 284.52 208.457C282.585 199.04 278.182 190.312 276.623 180.803C281.415 187.589 282.282 196.814 287.255 203.29C285.119 193.42 280.141 184.16 280.364 173.832C283.999 181.686 285.536 190.292 289.082 198.175C290.519 195.436 288.646 192.674 287.842 190.062C285.569 184.685 284.965 178.832 283.345 173.261C283.09 171.229 281.497 168.91 282.915 166.989C285.333 175.594 289.233 183.798 290.89 192.561C291.508 192.7 292.761 192.987 293.379 193.126C287.655 205.822 282.148 218.63 278.115 231.976C276.568 236.611 274.216 241.222 274.554 246.236C277.745 239.692 279.314 232.49 282.078 225.747C283.825 217.214 288.399 209.741 290.725 201.402C291.642 201.557 292.547 201.717 293.451 201.877C296.26 200.241 299.213 198.923 302.231 197.766C302.379 197.089 302.65 195.743 302.782 195.057C300.357 196.319 298.014 197.751 295.787 199.37C294.821 199.412 292.893 199.508 291.93 199.562C295.053 193.768 297.404 187.618 300.246 181.69L298.912 182.73C296.813 185.148 295.525 188.133 294.712 191.204C293.931 190.684 293.145 190.15 292.372 189.613C290.935 180.443 288.623 171.426 286.4 162.423C289.424 170.513 291.821 178.831 294.392 187.08C297.678 182.284 293.641 176.811 293.054 171.806C292.879 171.078 292.506 169.644 292.334 168.929C291.543 165.081 291.006 161.068 292.032 157.215C292.624 160.567 293.097 163.942 293.968 167.247C295.226 171.464 296.46 175.689 297.808 179.878L299.15 179.436C296.995 170.383 296.412 161.039 295.014 151.858Z" fill="#D7E8A4"/>
<path d="M150.276 199.028C147.434 200.297 144.652 201.798 141.541 202.355C143.736 202.832 146.053 202.989 147.956 201.585C149.111 202.002 150.281 202.426 151.435 202.842C151.145 201.886 150.567 199.984 150.276 199.028Z" fill="#D7E8A4"/>
<path d="M198.339 206.53C197.441 207.53 196.801 208.686 196.413 209.971C199.982 214.235 203.868 218.399 205.808 223.7C206.475 223.684 207.804 223.639 208.466 223.609C207.219 221.628 205.968 219.633 204.696 217.66C205.049 216.484 205.39 215.312 205.714 214.131C204.956 214.302 203.455 214.641 202.698 214.812C203.573 211.189 200.505 208.849 198.339 206.53Z" fill="#D7E8A4"/>
<path d="M300.504 202.625C297.211 204.15 294.062 205.992 291.057 208.027C291.066 208.318 291.079 208.929 291.079 209.237C293.753 206.385 299.319 206.725 300.504 202.625Z" fill="#D7E8A4"/>
<path d="M298.173 208.881C294.283 210.946 290.316 213.034 287.12 216.137C290.41 215.131 293.401 213.143 296.922 213.127C297.355 211.716 297.77 210.297 298.173 208.881Z" fill="#D7E8A4"/>
<path d="M292.673 223.422C289.408 225.693 286.01 227.811 282.815 230.214C282.707 230.752 282.465 231.837 282.344 232.379C286.798 230.723 291.914 228.772 292.673 223.422Z" fill="#D7E8A4"/>
<path d="M288.842 232.926C285.582 234.818 282.28 236.709 279.405 239.192C280.425 242.044 284.243 238.169 286.248 238.006C287.139 236.323 288.013 234.631 288.842 232.926Z" fill="#D7E8A4"/>
<path d="M284.49 241.406C281.794 243.133 277.847 244.712 278.085 248.582C280.558 246.549 283.745 244.778 284.49 241.406Z" fill="#D7E8A4"/>
<path d="M130.022 328.323C127.919 325.676 122.895 321.763 120.093 325.706C117.697 325.433 115.291 325.304 112.861 325.364C115.507 330.552 107.768 328.441 105.918 331.507C104.65 333.898 102.504 335.463 100.172 336.751C103.147 339.988 108.288 336.839 111.917 339.098C112.235 338.381 112.523 337.66 112.828 336.947C110.311 336.601 107.677 336.46 105.396 335.186C108.841 334.578 112.324 334.575 115.8 334.461C116.063 335.287 116.589 336.938 116.848 337.752L116.89 337.794C117.038 336.194 117.177 334.61 117.329 333.023C114.876 332.964 112.42 332.809 110.001 332.376C114.196 330.214 118.866 331.344 123.31 331.636C123.283 331.155 123.216 330.196 123.176 329.719C120.953 329.462 118.296 330.126 116.48 328.423C120.97 327.274 125.497 328.966 130.022 328.323Z" fill="#D7E8A4"/>
<path d="M136.751 324.543C135.667 322.677 131.472 322.95 129.665 324.043C130.698 326.275 134.98 325.835 136.751 324.543Z" fill="#D7E8A4"/>
<path d="M310.994 288.029C310.725 288.283 310.2 288.786 309.931 289.039C312.747 294.411 317.652 298.125 321.593 302.593C328.23 309.813 335.989 315.808 343.401 322.165C333.618 309.944 322.036 299.15 310.994 288.029Z" fill="#D7E8A4"/>
<path d="M326.385 297.736C322.58 294.05 319.553 289.291 314.866 286.698C316.624 291.385 320.698 294.468 323.824 298.174C329.228 305.171 336.787 310.012 342.815 316.418C338.335 309.379 332.017 303.821 326.385 297.736Z" fill="#D7E8A4"/>
<path d="M319.839 302.312C315.073 298.904 311.369 293.423 305.593 291.806C312.107 298.114 318.694 304.384 324.46 311.419C327.193 315.167 331.337 317.457 334.582 320.706C337.411 323.219 339.835 326.435 343.472 327.838C336.142 318.838 327.369 311.151 319.839 302.312Z" fill="#D7E8A4"/>
<path d="M303.948 308.352C301.397 306.45 299.082 303.003 295.52 303.549C298.393 308.484 303.887 311.016 306.816 315.863C302.101 313.712 298.549 309.764 294.118 307.144C297.345 314.947 306.382 318.058 311.435 324.523C320.188 331.446 329.504 337.673 338.047 344.902C332.716 336.203 323.193 331.301 315.726 324.639C312.783 321.812 309.364 319.515 306.656 316.459C310.068 317.066 312.298 319.938 315.03 321.796C322.93 327.313 330.452 333.355 337.798 339.594C328.916 326.862 313.962 320.066 303.948 308.352Z" fill="#D7E8A4"/>
<path d="M172.84 169.649C171.069 170.241 172.68 174.64 174.443 173.98C174.792 172.218 174.263 170.777 172.84 169.649Z" fill="#729048"/>
<path d="M178.128 169.56C178.07 171.398 178.011 173.236 178.079 175.075C179.276 177.297 180.499 179.51 181.683 181.735C182.127 180.755 183.005 178.81 183.448 177.829C181.889 174.953 180.109 172.176 178.128 169.56Z" fill="#6E8F38"/>
<path d="M268.703 296.585C268.016 298.693 267.991 300.898 269.566 302.635C269.03 299.196 273.039 301.767 270.537 303.445C270.423 305.021 270.326 306.605 270.242 308.185C270.651 309.118 271.474 310.955 271.879 311.876C272.271 311.219 273.069 309.902 273.462 309.245C273.721 308.784 274.252 307.86 274.511 307.399L275.173 306.181C274.779 304.725 274.364 303.29 273.962 301.851C273.426 301.266 272.337 300.088 271.784 299.494C271.018 298.759 269.477 297.304 268.703 296.585Z" fill="#6E8F38"/>
<path d="M315.474 154.283C313.645 150.78 312.836 146.924 312.514 143.01C312.057 148.123 312.579 153.233 313.253 158.293C314.071 156.997 314.819 155.654 315.474 154.283Z" fill="#41522A"/>
<path d="M292.032 157.215C291.006 161.068 291.543 165.081 292.334 168.929C292.745 168.504 293.557 167.672 293.968 167.247C293.097 163.942 292.624 160.567 292.032 157.215Z" fill="#41522A"/>
<path d="M139.542 199.815C136.35 197.305 132.479 194.158 128.132 195.095C131.836 196.882 135.546 198.779 139.542 199.815Z" fill="#A2C35D"/>
<path d="M114.096 204.714C111.235 203.33 108.327 200.044 105.002 202.125C107.863 203.509 110.992 204.149 114.096 204.714Z" fill="#A2C35D"/>
<path d="M235.564 241.077C230.162 236.025 225.549 229.49 218.867 226.216C222.666 231.905 228.425 235.752 232.91 240.831C233.572 240.886 234.898 241.009 235.564 241.077Z" fill="#A2C35D"/>
<path d="M242.024 245.499C239.1 244.975 236.191 244.32 233.249 243.871C235.519 246.647 238.018 249.223 240.432 251.883C240.324 250.224 240.228 248.561 240.179 246.912C241.187 248.102 242.204 249.317 243.191 250.528C242.797 248.849 242.376 247.178 242.024 245.499Z" fill="#A2C35D"/>
<path d="M133.613 201.759C130.738 198.841 126.948 195.024 122.484 196.166C125.846 198.593 129.534 200.861 133.613 201.759Z" fill="#7F9C4A"/>
<path d="M122.37 200.288C122.399 198.446 119.624 196.279 118.142 197.996C117.979 199.812 121.01 201.113 122.37 200.288Z" fill="#94B458"/>
<path d="M113.52 199.3C109.037 199.944 117.141 204.346 117.468 201.416C116.498 200.129 115.179 199.416 113.52 199.3Z" fill="#86A451"/>
<path d="M103.762 203.989C99.3339 204.672 105.822 208.217 107.524 206.485C107.53 204.748 105.139 204.18 103.762 203.989Z" fill="#6F8944"/>
<path d="M286.4 162.423C288.624 171.426 290.935 180.443 292.372 189.613C293.145 190.15 293.931 190.684 294.712 191.204C295.525 188.133 296.814 185.148 298.912 182.73C297.09 179.029 295.931 174.906 293.055 171.806C293.641 176.811 297.679 182.284 294.392 187.08C291.822 178.831 289.424 170.513 286.4 162.423Z" fill="#32431D"/>
<path d="M335.571 348.419C327.442 340.82 317.533 335.454 308.967 328.373C316.232 337.17 326.35 342.973 334.886 350.442L335.571 348.419Z" fill="#32431D"/>
<path d="M191.191 183.381C190.257 182.293 189.246 181.272 188.222 180.255C188.185 182.114 188.198 183.957 188.27 185.809C189.428 187.819 190.76 189.717 192.096 191.629C191.526 188.914 191.327 186.137 191.191 183.381Z" fill="#90AB53"/>
<path d="M125.605 201.483C125.163 202.421 125.163 202.421 125.605 201.483V201.483Z" fill="#93B05C"/>
<path d="M302.466 145.818C300.291 153.312 303.164 161.016 304.524 168.405C304.889 167.883 305.638 166.805 306.016 166.279C305.845 165.214 305.519 163.093 305.36 162.024C305.295 161.555 305.156 160.592 305.103 160.119L305.031 159.54C304.687 156.306 303.921 153.065 304.382 149.812C303.894 148.806 302.951 146.811 302.466 145.818Z" fill="#C6D89A"/>
<path d="M309.56 145.77C307.665 145.884 307.215 146.755 308.213 148.396C310.121 148.278 310.571 147.407 309.56 145.77Z" fill="#A8B976"/>
<path d="M299.753 150.348C298.79 151.103 297.814 151.861 296.829 152.637C298.521 160.102 297.795 168.016 300.941 175.172C303.729 172.283 302.072 168.263 301.532 164.81C300.187 160.103 299.464 155.24 299.753 150.348Z" fill="#CCDC9D"/>
<path d="M191.191 183.381C191.327 186.136 191.526 188.914 192.097 191.629C192.933 192.804 193.837 193.929 194.716 195.062C194.548 192.821 194.337 190.579 194.157 188.342C193.18 186.68 192.215 185.014 191.191 183.381Z" fill="#637C36"/>
<path d="M124.496 206.789C123.666 205.151 120.543 206.327 119.499 207.443C120.358 209.129 123.44 207.867 124.496 206.789Z" fill="#94B35A"/>
<path d="M162.645 197.439C160.174 197.107 157.673 196.854 155.175 196.698C154.185 197.853 153.17 199.016 152.151 200.166C153.765 201.499 155.396 202.798 157.07 204.056C156.887 202.911 156.517 200.65 156.334 199.505C158.744 201.578 160.847 204.183 163.918 205.304C163.291 203.95 162.05 201.239 161.436 199.882C165.401 201.697 166.966 206.614 171.319 207.803C169.673 204.437 167.586 201.309 165.893 197.972C170.235 201.193 172.412 206.447 176.503 209.888C177.418 209.905 179.222 209.946 180.137 209.962C177.422 206.755 174.6 203.651 171.95 200.381C177.933 203.262 180.704 210.075 185.759 214.217C183.63 213.859 181.691 212.91 179.725 212.053C181.141 214.26 183.663 214.884 186.046 215.469C186.268 214.671 186.698 213.078 186.92 212.28C184.591 208.614 181.538 205.486 179.268 201.787C184.543 205.607 187.827 211.613 192.165 216.361C192.965 216.498 194.576 216.768 195.375 216.906C193.087 212.709 189.557 209.313 187.507 204.985C192.643 209.072 195.332 215.408 199.926 219.99C200.523 220.108 201.705 220.347 202.289 220.469C200.168 216.443 197.677 212.577 194.367 209.433C194.693 207.468 194.353 205.477 191.975 205.395C192.777 205.013 194.382 204.25 195.184 203.869C190.656 202.834 188.174 198.643 184.299 196.449C183.379 197.162 182.441 197.866 181.504 198.57C179.341 196.083 176.143 194.345 172.801 194.485C172.742 195.134 172.652 196.436 172.606 197.08C170 196.147 167.284 195.571 164.53 195.272C164.059 195.814 163.116 196.898 162.645 197.439Z" fill="#D8E7A3"/>
<path d="M130.142 206.503C129.136 205.102 127.943 205.132 126.544 206.585C127.55 207.986 128.744 207.956 130.142 206.503Z" fill="#96B660"/>
<path d="M309.323 149.819C309.04 150.204 308.485 150.968 308.202 151.352C308.688 151.561 309.64 151.957 310.123 152.154C309.924 151.573 309.522 150.4 309.323 149.819Z" fill="#5E693A"/>
<path d="M189.25 190.996C187.191 192.701 190.725 197.075 192.885 197.269C192.66 194.892 191.09 192.467 189.25 190.996Z" fill="#577038"/>
<path d="M154.754 204.738C154.273 205.689 154.273 205.689 154.754 204.738V204.738Z" fill="#A0BB72"/>
<path d="M309.895 160.93C313.545 162.636 312.155 156.558 309.128 156.85C309.312 157.869 309.694 159.902 309.895 160.93Z" fill="#475A27"/>
<path d="M308.684 165.038C307.995 163.62 306.635 162.822 305.36 162.024C305.518 163.093 305.844 165.214 306.015 166.279C307.242 166.924 308.133 166.515 308.684 165.038Z" fill="#3B4F1D"/>
<path d="M163.02 207.843C162.378 208.859 162.378 208.859 163.02 207.843V207.843Z" fill="#415425"/>
<path d="M268.271 186.037C265.303 188.802 266.778 193.257 265.71 196.802C265.003 196.691 263.593 196.483 262.887 196.372C263.938 198.136 265.024 199.875 266.101 201.631C265.267 201.253 263.577 200.518 262.747 200.152C263.077 201.013 263.724 202.738 264.054 203.598C260.726 203.693 261.645 206.842 261.585 209.156C262.292 208.875 263.688 208.291 264.392 207.997C266.945 215.971 270.829 223.466 274.808 230.776C275.257 230.998 276.166 231.436 276.623 231.64C274.364 222.438 268.041 214.755 266.032 205.501L266.74 204.254C269.861 211.768 273.796 218.897 277.137 226.313C278.834 223.38 276.576 220.376 275.244 217.82C271.89 212.647 270.262 206.659 267.909 201.027C267.211 199.361 267.67 197.507 267.609 195.778C271.238 204.361 274.892 212.979 279.607 221.062C280.366 216.371 277.132 212.279 275.361 208.169C271.778 201.223 270.131 193.547 268.271 186.037Z" fill="#D2E2A2"/>
<path d="M307.183 178.557C306.791 179.48 306.791 179.48 307.183 178.557V178.557Z" fill="#9FB182"/>
<path d="M193.03 218.73C191.899 218.166 191.899 218.166 193.03 218.73V218.73Z" fill="#9FBB69"/>
<path d="M306.294 183.85C304.873 181.63 300.582 184.983 301.125 186.909C303.129 187.139 305.968 186.081 306.294 183.85Z" fill="#7A8C5C"/>
<path d="M198.065 221.353C197.704 219.383 194.869 217.865 193.032 218.73C193.495 220.625 196.26 221.969 198.065 221.353Z" fill="#849D59"/>
<path d="M212.638 227.263C211.302 223.42 211.033 217.698 205.969 217.044C208.593 220.141 209.306 225.063 212.638 227.263Z" fill="#B1C38A"/>
<path d="M211.606 229.648C208.113 226.325 203.826 222.75 198.95 221.896C202.474 225.448 207.057 227.71 211.606 229.648Z" fill="#BFD972"/>
<path d="M199.36 288.037C197.86 286.402 196.405 284.557 194.191 283.89C204.202 297.046 214.161 310.26 223.239 324.091C217.15 310.946 208.678 299.063 199.36 288.037Z" fill="#BFD972"/>
<path d="M271.413 348.112C265.524 329.53 261.703 309.141 248.229 294.206C250.391 301.213 254.406 307.407 257.761 313.853L255.968 314.242C254.425 310.452 252.823 306.652 250.567 303.215C250.322 303.237 249.811 303.259 249.566 303.281C249.933 309.531 254.935 314.515 257.122 320.284C256.458 320.439 255.113 320.741 254.449 320.897C253.841 318.726 253.17 316.574 252.448 314.44L251.251 316.92C256.545 326.162 261.247 335.831 263.192 346.421C251.545 341.132 240.83 333.98 229.1 328.871C226.774 322.448 223.609 316.375 219.814 310.699C222.027 317.075 227.079 322.043 228.545 328.754C216.407 324.21 204.108 318.765 190.91 318.714C217.479 325.072 243.553 334.931 265.894 350.906C278.934 358.283 290.342 368.224 303.382 375.559C299.622 371.439 294.561 368.951 290.286 365.457C281.892 358.783 272.551 353.487 263.731 347.41C261.948 339.261 259.351 331.328 256.234 323.603C256.762 322.581 257.281 321.576 257.801 320.571C258.666 323.024 259.608 325.453 260.625 327.858C260.106 323.195 258.127 318.914 256.592 314.533L258.203 315.419C263.82 325.763 267.459 337.058 271.413 348.112Z" fill="#BFD972"/>
<path d="M263.726 208.894C262.727 209.534 260.732 210.827 259.732 211.468C260.21 214.814 260.73 218.16 261.263 221.503C259.211 227.935 260.914 234.6 262.465 240.878C261.585 246.77 267.212 251.653 265.883 257.323C266.524 257.973 267.156 258.639 267.788 259.305C267.966 258.633 268.342 257.268 268.533 256.591C268.206 255.786 267.566 254.171 267.252 253.361C267.997 252.844 269.482 251.839 270.227 251.322C266.46 245.161 262.93 238.645 261.999 231.372C265.325 236.721 267.063 243.318 272.041 247.484C268.987 241.012 264.953 234.937 263.484 227.82C267.727 231.87 268.355 238.457 273.166 241.962C269.968 234.557 265.824 227.523 263.678 219.684C267.716 225.157 270.231 231.562 273.967 237.229C274.936 232.583 271.21 229.012 269.387 225.087C266.307 220.162 265.335 214.385 263.726 208.894ZM267.912 252.269C266.258 252.04 265.561 250.905 265.845 248.855C267.508 249.067 268.193 250.207 267.912 252.269Z" fill="#D7E6A7"/>
<path d="M295.385 216.164C291.798 218.216 288.128 220.182 284.997 222.915C288.169 222.156 291.286 221.177 294.394 220.216C294.644 219.199 295.148 217.177 295.385 216.164Z" fill="#C6D598"/>
<path d="M243.054 244.737L242.023 245.499C242.376 247.178 242.796 248.849 243.191 250.528C242.204 249.318 241.187 248.102 240.178 246.912C240.228 248.561 240.323 250.224 240.432 251.883C244.335 258.602 247.664 265.672 252.047 272.098C252.093 271.496 252.168 270.282 252.21 269.667C252.343 268.24 252.443 266.795 252.521 265.37C249.142 258.582 245.109 252.114 243.054 244.737Z" fill="#4B612B"/>
<path d="M267.912 252.269C268.192 250.207 267.508 249.067 265.845 248.855C265.56 250.905 266.258 252.04 267.912 252.269Z" fill="#495A2A"/>
<path d="M439.677 244.755C428.406 243.153 416.679 244.732 406.366 249.653C399.346 253.4 392.773 257.984 386.418 262.765C379.115 269.316 373.892 277.962 370.115 286.931C362.787 285.319 355.738 282.694 348.49 280.804C344.343 282.153 340.588 277.919 336.2 279.387C339.408 287.657 345.823 294.093 350.624 301.436C344.548 295.759 340.034 288.702 335.212 281.996C335.46 281.148 335.695 280.303 335.942 279.455C334.222 279.415 330.778 279.322 329.054 279.269C329.309 279.804 329.826 280.857 330.093 281.387C337.724 289.312 344.007 298.408 350.895 306.989C345.175 302.164 340.241 296.514 335.102 291.099C332.428 288.326 330.183 285.053 329.535 281.173C327.498 280.227 325.275 278.122 322.987 279.858C319.155 282.324 314.062 282.239 310.894 285.738C307.652 288.562 303.907 290.734 300.993 293.929C302.584 294.794 304.192 295.625 305.791 296.473C312.344 300.221 317.599 305.824 322.336 311.606C329.146 318.841 336.659 325.516 342.581 333.523C332.856 324.25 322.111 316.169 311.64 307.764C310.842 303.106 307.209 299.869 304.06 296.66C302.22 293.608 298.55 295.882 296.954 297.944C295.469 300.795 293.847 303.565 292.09 306.265C290.771 308.714 292.43 312.608 289.36 313.907C289.278 315.892 289.226 317.882 289.217 319.872C292.248 327.764 293.728 336.543 299.041 343.428C304.371 354.059 313.36 362.027 321.649 370.218C324.791 372.702 327.354 375.915 330.989 377.752C335.642 380.412 341.508 383.54 342.048 389.497C343.856 399.262 348.234 408.265 351.042 417.74C344.386 411.603 339.604 403.793 333.212 397.432C332.876 399.54 334.547 401.051 335.656 402.601C339.365 407.129 342.797 411.885 346.813 416.148C350.458 419.423 352.297 424.141 355.946 427.428C358.191 425.734 360.082 423.103 363.153 423.034C369.176 438.565 380.362 451.193 391.249 463.497C395.254 467.944 398.55 473.024 402.85 477.21L404.994 477.66C393.207 462.705 379.274 449.315 369.54 432.81C366.75 428.619 366.693 422.201 361.391 420.139C358.148 411.362 353.244 403.213 351.214 393.981C349.512 386.308 345.847 378.184 348.673 370.358C353.613 354.763 358.605 339.153 361.756 323.078C363.134 316.245 364.5 309.415 366.42 302.703C362.916 303.916 363.522 308.103 362.716 310.977C361.115 311.486 359.51 312.026 357.929 312.599C359.075 312.416 361.386 312.03 362.532 311.847C361.879 314.938 361.66 318.295 359.832 320.991C356.762 323.214 353.41 325.037 350.096 326.89C351.584 325.058 353.164 323.296 354.848 321.64C353.818 321.968 351.752 322.598 350.719 322.913C352.236 320.205 354.212 317.799 356.612 315.845C356.084 315.02 355.546 314.211 355.009 313.403C357.592 311.055 360.245 308.797 362.84 306.487C361.816 306.744 359.759 307.273 358.735 307.529C360.785 305.309 362.873 303.077 364.079 300.272C365.059 300.407 366.048 300.568 367.033 300.716C367.992 297.752 369.177 294.576 371.809 292.689C376.393 290.739 380.901 293.249 385.213 294.619C389.501 296.22 394.19 296.532 398.242 298.754C398.162 297.492 398.015 296.237 397.787 294.995L397.509 294.299C396.53 293.772 394.579 292.742 393.599 292.214C393.27 292.501 392.605 293.048 392.273 293.322C389.536 291.759 387.001 289.334 383.593 289.664C383.749 289.054 384.052 287.852 384.208 287.243C388.437 285.98 392.831 285.364 396.975 283.835C404.412 283.985 411.841 283.411 419.267 284.012C419.768 282.817 420.252 281.613 420.757 280.431C420.437 281.359 419.8 283.227 419.48 284.154C422.413 284.62 425.338 285.059 428.275 285.495C428.578 284.293 428.894 283.087 429.197 281.886C429.172 283.391 429.135 284.9 429.098 286.409C431.033 285.457 432.965 284.492 434.913 283.577C434.045 284.148 432.3 285.305 431.424 285.892C434.497 286.578 437.518 287.673 440.687 287.826C448.788 282.769 457.22 278.223 464.908 272.528C468.539 269.651 473.051 268.354 477.448 267.177C466.528 275.86 452.33 279.388 441.712 288.451C451.779 291.15 461.894 294.044 471.177 298.896C482.274 304.038 492.067 311.456 501.605 318.997L503.055 319.683C502.356 317.401 502.44 313.974 499.393 313.502C500.237 312.548 501.072 311.611 501.919 310.669C499.71 310.673 497.517 310.686 495.303 310.719C496.905 309.775 498.503 308.818 500.093 307.878C498.095 307.535 496.096 307.234 494.101 306.946C496.275 305.862 498.432 304.727 500.503 303.452C497.281 304.058 494.091 304.85 490.921 305.706L490.654 304.909C492.893 303.679 495.211 302.478 496.845 300.447C492.74 301.265 488.722 302.446 484.62 303.318C487.528 300.279 491.508 298.802 495.213 297.035C496.501 297.786 497.785 298.566 499.057 299.351C497.853 296.977 497.308 294.212 495.599 292.14C493.561 297.253 487.257 297.273 482.827 299.006C486.209 296.445 489.869 294.272 493.623 292.307C491.812 289.344 488.882 292.446 486.735 293.088C484.276 294.374 481.736 295.449 479.094 296.291C481.726 291.814 489.797 292.463 490.331 286.891C483.695 290.571 476.406 292.641 469.337 295.27C476.57 291.441 483.905 287.804 491.105 283.916C490.852 285.186 490.615 286.465 490.362 287.735C491.813 289.26 493.307 290.743 494.856 292.181C494.502 290.32 494.126 288.481 493.721 286.637C494.543 288.208 495.042 290.26 497.163 290.285C496.343 287.621 495.773 284.822 496.964 282.19L497.085 281.648C495.955 282.315 493.689 283.681 492.562 284.361C492.884 281.11 489.751 279.533 488.142 277.247C487.684 276.512 486.746 275.019 486.284 274.271C475.858 279.452 465.546 284.947 454.604 288.991C461.717 285.928 468.308 281.842 474.683 277.475C477.948 275.162 482.029 274.618 485.808 273.653L485.091 272.37C483.535 270.78 481.832 269.21 481.724 266.851C479.527 265.354 477.208 264.049 474.816 262.908C474.285 261.328 473.598 259.084 471.522 259.157C471.738 259.396 472.153 259.908 472.36 260.164C464.988 261.882 459.535 267.215 452.946 270.558C447.616 273.375 443.083 277.421 438.005 280.634C442.632 275.83 447.896 271.705 452.839 267.234C457.488 262.367 464.264 261.105 470.397 259.096C470.309 258.774 470.149 258.14 470.06 257.818C465.328 255.351 460.629 252.677 456.41 249.403C451.048 247.067 445.129 246.671 439.677 244.755ZM415.282 248.913C413.275 253.638 409.232 257.025 406.672 261.422C405.546 263.292 404.566 265.311 402.96 266.858C404.026 263.44 406.87 260.464 406.457 256.705L408.003 257.122C410.226 254.217 412.371 251.197 415.282 248.913ZM429.956 245.821C421.545 254.125 414.385 263.584 407.676 273.319C409.069 268.467 412.562 264.626 415.161 260.398C419.355 254.892 423.07 248.28 429.956 245.821ZM422.252 247.995C419.871 251.943 416.368 255.004 413.503 258.575C410.977 261.716 409.261 265.467 406.426 268.385C409.252 262.056 413.313 256.397 417.694 251.083C418.787 249.504 420.634 248.846 422.252 247.995ZM406.457 256.705C403.93 258.699 402.273 261.494 400.087 263.813C401.087 259.66 404.475 256.721 406.71 253.238C406.657 254.389 406.696 255.566 406.457 256.705ZM435.968 246.51C428.467 253.67 422.032 261.848 415.202 269.621C421.502 261.457 424.975 249.604 435.968 246.51ZM400.53 257.165C399.721 260.291 397.429 262.673 395.377 265.061C396.434 262.052 397.978 259.167 400.53 257.165ZM319.424 283.302C327.65 293.667 337.319 302.762 345.879 312.812C337.755 306.416 330.369 299.127 323.037 291.834C321.387 289.379 317.622 286.562 319.424 283.302ZM393.833 261.355C394.73 262.986 394.233 263.886 392.337 264.084C391.436 262.44 391.933 261.54 393.833 261.355ZM324.647 283.094C333.167 292.359 340.901 302.321 349.451 311.549C341.974 304.373 334.473 297.162 327.658 289.341C326.55 287.399 323.711 285.603 324.647 283.094ZM310.994 288.029C322.036 299.15 333.618 309.944 343.4 322.165C335.989 315.808 328.23 309.813 321.593 302.593C317.652 298.125 312.747 294.412 309.931 289.039C310.2 288.786 310.725 288.283 310.994 288.029ZM440.437 247.843C437.629 251.55 434.292 254.781 430.981 258.005C426.887 262.065 423.78 266.987 419.707 271.068C419.793 270.635 419.96 269.798 420.046 269.365C425.14 263.083 429.901 256.502 435.524 250.653C436.809 249.194 438.731 248.638 440.437 247.843ZM389.129 264.294C390 268.565 384.697 263.383 389.129 264.294V264.294ZM326.386 297.737C332.017 303.821 338.335 309.379 342.816 316.418C336.788 310.012 329.229 305.171 323.824 298.174C320.699 294.468 316.625 291.385 314.866 286.698C319.554 289.291 322.581 294.05 326.386 297.737ZM351.942 296.874C347.375 292.2 342.328 287.468 340.633 280.914C345.084 285.709 348.143 291.578 351.942 296.874ZM319.839 302.312C327.369 311.151 336.142 318.838 343.472 327.838C339.835 326.435 337.411 323.219 334.582 320.706C331.336 317.457 327.193 315.167 324.46 311.419C318.693 304.384 312.107 298.114 305.592 291.806C311.369 293.423 315.073 298.904 319.839 302.312ZM446.448 248.881C441.996 254.189 436.839 259.218 431.089 263.134C435.363 257.659 439.511 251.175 446.448 248.881ZM399.212 265.547C398.753 266.435 398.753 266.435 399.212 265.547V265.547ZM394.559 266.315C393.161 269.923 391.105 273.222 389.64 276.795C390.45 273.053 391.116 268.643 394.559 266.315ZM453.596 249.53C453.506 249.95 453.326 250.791 453.232 251.199C444.531 256.349 437.543 263.625 430.34 270.579C430.957 269.487 431.725 268.515 432.63 267.666C439.607 261.541 444.211 252.49 453.596 249.53ZM352.218 289.832C349.865 287.979 348.14 285.505 346.627 282.951C349.769 283.853 350.739 287.295 352.218 289.832ZM304.605 300.965C303.131 301.742 300.784 300.04 301.194 298.384C302.661 297.19 304.833 299.395 304.605 300.965ZM306.368 305.972C312.315 311.775 319.206 316.451 325.608 321.702C329.931 326.665 335.334 330.583 339.239 335.902C331.93 329.12 324.055 323.023 316.326 316.724C309.459 311.901 304.162 305.331 297.574 300.153C301.336 300.41 303.635 303.806 306.368 305.972ZM305.644 300.844C305.915 301.345 306.454 302.335 306.726 302.836L305.691 302.969C305.419 302.468 304.876 301.466 304.605 300.965L305.644 300.844ZM303.949 308.352C313.962 320.066 328.916 326.862 337.798 339.594C330.452 333.355 322.931 327.313 315.031 321.796C312.298 319.938 310.068 317.066 306.657 316.459C309.365 319.515 312.783 321.812 315.726 324.639C323.193 331.301 332.716 336.203 338.047 344.902C329.504 337.673 320.189 331.446 311.435 324.523C306.382 318.058 297.345 314.947 294.119 307.144C298.549 309.764 302.101 313.712 306.816 315.863C303.888 311.016 298.394 308.484 295.521 303.549C299.083 303.003 301.398 306.45 303.949 308.352ZM459.017 253.415C454.996 257.354 450.48 260.793 445.642 263.663C440.515 266.807 436.602 271.481 431.93 275.222C434.258 271.724 438.02 269.476 440.604 266.163C445.756 260.856 450.728 253.269 459.017 253.415ZM306.726 302.836C307.851 303.513 307.851 303.513 306.726 302.836V302.836ZM429.859 265.205C430.663 266.894 428.119 269.187 426.447 268.768C425.56 266.994 428.095 264.717 429.859 265.205ZM464.115 257.122C454.552 263.078 445.268 269.519 436.632 276.761C439.584 272.057 444.017 268.49 447.766 264.442C452.631 261.088 457.827 256.62 464.115 257.122ZM410.961 275.771C410.477 276.666 410.477 276.666 410.961 275.771V275.771ZM405.662 276.969C406.87 281.202 401.225 276.394 405.662 276.969V276.969ZM317.528 331.174C324.507 337.404 332.756 342.305 338.273 350.049C337.596 349.635 336.249 348.833 335.571 348.419C334.343 351.594 338.075 353.163 338.793 355.901C334.947 352.48 331.155 348.482 326.134 346.862C328.348 350.607 332.496 352.561 335.055 356.027C330.255 354.31 326.979 350.176 322.709 347.575C312.047 340.812 301.432 333.403 293.388 323.567C300.044 326.191 304.772 332.074 311.235 335.011C304.754 329.029 297.017 324.329 291.447 317.385C298.2 319.082 302.52 325.529 308.946 328.044C303.923 322.815 297.707 318.763 293.218 312.972C302.746 316.879 309.54 324.986 317.528 331.174ZM428.163 272.839C429.121 277.124 423.758 272.101 428.163 272.839V272.839ZM380.442 289.436C381.591 293.702 375.991 288.684 380.442 289.436V289.436ZM365.67 293.888C362.33 300.843 356.445 306.313 353.154 313.336C350.317 320.508 347.929 327.86 345.981 335.323C344.808 339.768 345.809 344.711 343.686 348.899C343.226 336.998 346.912 325.371 351.334 314.475C354.885 306.95 358.409 298.551 365.67 293.888ZM415.343 281.092C416.403 285.344 410.912 280.404 415.343 281.092V281.092ZM472.536 264.67C465.225 270.538 456.204 273.495 448.431 278.615C454.044 272.909 460.565 267.81 468.121 264.956C469.575 264.115 471.039 264.013 472.536 264.67ZM435.246 277.636C436.383 281.822 430.75 277.095 435.246 277.636V277.636ZM304.027 336.369C311.465 343.6 321.006 348.118 328.74 354.96L329.779 356.728C324.547 354.49 320.195 350.713 315.485 347.609C309.167 342.666 302.222 338.567 296.398 333.02C294.771 331.69 293.903 329.756 293.407 327.759C297.253 330.256 300.344 333.68 304.027 336.369ZM481.098 270.157C481.16 272.11 479.02 272.33 477.777 273.174C472.432 275.855 467.382 279.157 461.771 281.265C467.858 277.046 473.675 271.807 481.098 270.157ZM486.606 278.534C479.136 282.802 471.429 286.767 463.103 289.097C470.099 284.085 478.191 280.318 486.606 278.534ZM490.381 281.642C482.203 286.457 473.377 289.939 464.336 292.79C472.072 289.095 479.39 284.568 487.164 280.945C488.422 280.194 489.49 280.428 490.381 281.642ZM360.29 322.034C359.15 327.197 358.417 332.454 356.839 337.518C353.152 339.868 349.932 342.852 346.27 345.236C347.665 340.258 352.651 337.592 355.918 333.921C351.927 334.045 350.753 338.925 346.991 339.549C348.51 333.817 354.992 331.893 357.794 327.069C354.771 328.605 352.297 330.988 349.274 332.567C351.101 327.717 356.174 324.884 360.29 322.034ZM312.766 350.672C313.971 353.576 317.164 354.771 319.273 356.911C324.17 361.789 330.873 364.468 335.312 369.883C332.833 369.833 330.897 368.015 328.807 366.903C321.867 362.466 314.765 358.179 308.684 352.573C306.226 350.348 302.805 348.876 301.602 345.537C306.061 345.656 308.274 351.682 312.766 350.672ZM356.065 338.954C356.433 341.999 354.782 344.68 353.633 347.355C350.608 348.094 348.166 350.005 345.846 351.99C346.414 346.127 352.086 342.586 356.065 338.954ZM344.419 355.243C344.131 370.642 346.944 385.979 351.453 400.663C353.16 406.682 357.468 411.817 357.896 418.216C356.628 415.023 355.529 411.749 354.298 408.544C351.616 412.337 354.323 417.366 355.12 421.45L354.358 421.651C352.764 416.687 353.389 411.269 351.24 406.454C344.236 388.548 340.764 368.944 343.535 349.787C344.186 351.524 344.524 353.376 344.419 355.243ZM354.076 347.647C353.455 350.882 350.73 353.443 350.878 356.852C351.085 359.654 348.666 361.46 346.83 363.165C344.726 359.678 348.569 357.377 350.51 355.08C349.324 355.443 346.957 356.183 345.759 356.551C346.605 352.308 350.761 349.892 354.076 347.647ZM329.67 355.462C332.774 358.265 337.537 359.953 338.658 364.353C335.882 361.697 331.837 359.851 329.779 356.728L329.67 355.462ZM328.74 368.799C331.045 370.458 333.969 371.556 335.384 374.198C333.331 374.208 331.713 372.82 330.014 371.878C330.56 372.977 331.669 375.185 332.215 376.284C329.974 376.103 322.789 372.346 328.319 370.641C326.144 368.646 321.748 371.054 320.905 367.264C320.221 363.536 311.943 363.598 314.753 359.064C320.053 361.295 323.892 365.837 328.74 368.799ZM336.024 355.775C336.212 356.275 336.573 357.279 336.761 357.779L335.717 357.972C335.546 357.48 335.222 356.506 335.055 356.027L336.024 355.775ZM336.761 357.779C337.797 358.485 337.797 358.485 336.761 357.779V357.779ZM348.205 364.364C347.683 365.272 347.683 365.272 348.205 364.364V364.364ZM339.694 372.923C338.149 374.045 334.496 371.934 335.312 369.883C337.052 368.405 339.366 371.278 339.694 372.923ZM339.879 376.754C341.407 380.718 334.266 376.177 335.384 374.198C337.073 372.82 339.105 375.378 339.879 376.754Z" fill="#2B3D1B"/>
<path d="M279.671 252.68C277.697 250.874 275.011 253.031 275.991 255.405C277.4 254.733 278.635 253.822 279.671 252.68Z" fill="#ADBF8C"/>
<path d="M280.88 252.169L279.671 252.68C278.635 253.822 277.4 254.733 275.991 255.405C271.91 257.573 272.114 262.783 271.197 266.713C270.238 270.867 271.182 276.555 266.39 278.557C266.049 282.626 266.171 286.743 265.513 290.786C261.132 282.345 256.75 273.903 252.522 265.37C252.444 266.794 252.344 268.239 252.211 269.667C253.956 276.29 257.914 282.04 260.843 288.16C262.771 293.689 270.523 293.599 271.784 299.494C272.337 300.088 273.426 301.266 273.962 301.851C273.386 298.942 272.602 296.085 271.653 293.281C272.741 283.209 271.507 272.786 274.587 262.947C275.442 258.645 280.234 256.601 280.88 252.169Z" fill="#5E7C35"/>
<path d="M195.521 289.427C193.55 287.369 191.943 284.829 189.252 283.629C197.415 296.562 209.131 307.076 216.171 320.745C216.581 321.901 217.377 322.599 218.563 322.852C211.941 311.023 204.701 299.448 195.521 289.427Z" fill="#C0DA77"/>
<path d="M207.315 279.976C206.476 279.936 204.804 279.824 203.965 279.784C204.75 282.864 208.097 284.233 208.504 287.532L209.699 287.109C210.704 289.168 212.109 290.987 213.271 292.968L215.647 292.254C215.036 289.985 214.413 287.721 213.841 285.44C211.788 283.477 209.539 281.731 207.315 279.976Z" fill="#4F6B2A"/>
<path d="M195.691 295.894C192.906 292.597 190.636 288.632 186.795 286.413C190.06 292.58 195.377 297.324 199.634 302.782C204.448 308.232 208.154 314.51 212.431 320.382C208.655 311.16 202.054 303.439 195.691 295.894Z" fill="#B4CE71"/>
<path d="M196.485 302.736C192.094 297.474 188.288 291.409 182.508 287.541C184.846 292.464 189.363 295.796 192.676 300.003C196.304 304.585 199.907 309.175 203.71 313.603C204.377 314.733 205.045 315.864 205.726 316.991C203.864 311.539 199.575 307.475 196.485 302.736Z" fill="#B4CE71"/>
<path d="M201.555 316.766C195.579 306.789 187.873 297.796 179.412 289.856C180.242 293.999 184.078 296.248 186.716 299.172C192.3 304.488 196.586 310.918 201.555 316.766Z" fill="#B4CE71"/>
<path d="M189.903 321.791C189.467 321.958 188.581 322.297 188.148 322.476C184.992 324.517 181.608 326.238 177.9 326.985C173.371 328.889 168.845 330.848 164.694 333.5C173.003 331.819 180.456 327.235 188.828 325.842C185.897 327.489 182.16 328.19 180.342 331.315C184.222 330.667 188.046 329.799 191.885 329.025C188.37 330.774 184.76 332.357 181.151 333.898C180.115 333.458 179.092 333.014 178.057 332.575L180.336 330.547C176.262 332.125 171.816 333.233 168.511 336.258C171.605 335.385 174.68 334.406 177.746 333.443C177.936 334.04 178.303 335.239 178.481 335.84C176.288 336.51 174.123 337.27 171.978 338.093C174.331 337.791 176.694 337.304 178.83 336.233C185.447 333.02 192.622 331.252 199.468 328.625C197.285 327.879 195.146 327.006 192.999 326.151C192.827 325.744 192.492 324.955 192.308 324.552C191.093 324.561 189.862 324.561 188.622 324.578C188.943 323.874 189.578 322.483 189.903 321.791Z" fill="#B4CE71"/>
<path d="M215.763 336.953C210.37 334.738 206.117 330.258 200.384 328.865C195.033 331.395 189.845 334.306 184.301 336.407C181.072 337.869 177.275 338.645 174.963 341.578L174.685 341.848C175.207 341.906 176.239 342.025 176.761 342.083C183.526 336.038 193.09 335.092 201.548 332.916C195.64 335.455 189.463 337.632 184.274 341.551C191.512 338.925 198.559 335.701 206.12 334.091C199.525 338.164 192.412 341.269 185.116 343.844C193.132 341.949 200.826 338.953 208.648 336.448C210.886 337.764 213.395 338.435 215.763 336.953Z" fill="#B4CE71"/>
<path d="M212.109 297.312C207.806 292.498 205.667 285.343 199.275 282.761C203.54 291.757 210.671 298.904 216.411 306.955C217.262 303.298 213.603 300.377 212.109 297.312Z" fill="#C1DA78"/>
<path d="M252.211 269.667C252.169 270.282 252.093 271.496 252.047 272.098C256.069 279.101 259.368 286.474 262.872 293.741C265.545 298.445 268.125 303.206 270.242 308.185C270.327 306.605 270.424 305.021 270.538 303.445L269.566 302.635C267.991 300.898 268.017 298.693 268.703 296.585C269.478 297.304 271.018 298.759 271.784 299.494C270.523 293.599 262.771 293.689 260.843 288.16C257.914 282.04 253.956 276.29 252.211 269.667Z" fill="#C1DA78"/>
<path d="M166.052 297.692C164.303 298.613 166.521 301.055 167.928 300.901C169.937 300.093 167.575 297.333 166.052 297.692Z" fill="#597137"/>
<path d="M220.037 282.138C219.535 283.067 219.535 283.067 220.037 282.138V282.138Z" fill="#A1C064"/>
<path d="M225.449 295.527C221.688 291.449 219.384 286.194 215.098 282.577C216.707 285.521 218.38 288.445 219.688 291.541C216.42 291.168 215.634 287.556 213.841 285.44C214.413 287.721 215.036 289.985 215.647 292.254L213.272 292.968C212.659 295.57 214.609 297.958 215.667 300.181C215.907 300.497 216.388 301.127 216.628 301.442C220.585 301.302 223.092 304.296 224.523 307.646C224.258 305.408 224.106 303.175 223.993 300.93C228.626 306.997 233.535 313.186 235.865 320.546C236.517 321.01 237.816 321.926 238.467 322.39C236.582 317.127 233.851 312.246 231.499 307.188C238.253 314.818 243.226 323.799 247.123 333.179C244.774 324.355 240.312 316.317 236.862 307.901C237.465 308.52 238.662 309.776 239.253 310.4C240.206 308.781 239.632 306.976 239.444 305.287C240.792 306.971 242.486 308.293 244.521 309.058C244.264 308.076 243.751 306.113 243.481 305.135C242.988 304.201 241.975 302.34 241.469 301.41C241.189 300.967 240.614 300.087 240.329 299.632C237.325 295.075 234.759 290.225 231.431 285.884C233.267 290.155 235.797 294.232 236.337 298.958C233.532 294.282 230.554 289.675 226.872 285.628C227.71 288.566 228.67 291.493 229.613 294.411C227.432 291.957 225.226 289.511 222.768 287.327C223.612 290.067 224.562 292.787 225.449 295.527ZM220.084 291.554C221.711 292.841 221.768 293.9 220.286 294.736C218.638 293.428 218.576 292.356 220.084 291.554Z" fill="#D8E58F"/>
<path d="M173.34 298.212C176.526 301.493 169.21 299.611 173.34 298.212V298.212Z" fill="#5C743D"/>
<path d="M159.798 305.253C156.149 305.702 161.139 309.906 162.76 308.886C163.184 307.142 161.517 305.335 159.798 305.253Z" fill="#60783D"/>
<path d="M171.79 302.876C170.401 304.578 174.323 308.59 176.312 307.718C176.288 305.445 173.814 303.519 171.79 302.876Z" fill="#596E35"/>
<path d="M171.768 313.224C170.371 309.89 167.61 307.593 164.607 305.765C166.022 309.022 168.64 311.575 171.768 313.224Z" fill="#587036"/>
<path d="M220.084 291.554C218.576 292.356 218.638 293.428 220.286 294.736C221.769 293.9 221.711 292.841 220.084 291.554Z" fill="#789142"/>
<path d="M166.3 311.649C165.878 312.567 165.878 312.567 166.3 311.649V311.649Z" fill="#6F8650"/>
<path d="M245.865 300.976C243.77 297.123 242.007 292.815 238.216 290.272C238.955 293.381 239.735 296.491 240.33 299.632C240.614 300.087 241.189 300.968 241.469 301.41C243.693 300.968 244.578 303.526 243.481 305.135C243.751 306.113 244.264 308.076 244.521 309.058C242.486 308.293 240.792 306.971 239.444 305.287C239.632 306.977 240.207 308.781 239.253 310.4C241.741 314.785 243.449 319.754 247.218 323.284C246.535 320.787 245.754 318.335 244.943 315.878C246.027 316.205 248.19 316.845 249.273 317.172C247.751 313.403 246.246 309.642 244.948 305.787C247.147 309.439 249.298 313.12 251.25 316.92L252.447 314.44C251.24 310.472 249.367 306.745 247.294 303.179C247.838 302.558 248.943 301.325 249.491 300.717C247.747 297.13 245.525 293.626 242.118 291.408C243.392 294.571 244.889 297.648 246.565 300.627L245.865 300.976Z" fill="#81984C"/>
<path d="M156.716 318.115C156.432 318.583 155.888 319.512 155.599 319.968C154.195 320.303 152.786 320.668 151.364 321.037C157.734 320.52 163.852 318.333 170.287 318.327C172.275 318.506 175.037 317.248 176.367 319.315C175.66 319.512 174.23 319.898 173.523 320.095C174.008 320.696 174.979 321.898 175.464 322.5C179.255 322.804 183.156 323.408 186.825 322.1L188.148 322.476C188.581 322.296 189.467 321.958 189.903 321.791C189.578 322.483 188.943 323.874 188.622 324.578C189.862 324.561 191.093 324.561 192.308 324.552C192.492 324.955 192.827 325.744 192.999 326.151C195.146 327.006 197.285 327.878 199.468 328.625L200.384 328.865C206.117 330.257 210.37 334.738 215.763 336.953C216.454 336.705 217.835 336.209 218.526 335.961C219.122 335.505 220.332 334.602 220.933 334.159C222.286 336.037 223.297 338.29 225.184 339.732C227 340.119 228.868 340.14 230.696 340.299C230.148 340.95 229.063 342.246 228.515 342.897C231.441 343.868 234.492 344.31 237.541 344.57L239.26 344.737C240.2 345.053 241.132 345.386 242.046 345.752C242.586 346.042 243.679 346.618 244.223 346.92C244.546 346.44 245.178 345.482 245.501 345.002C245.869 345.892 246.616 347.669 246.984 348.56C248.542 346.818 251.402 347.712 251.45 350.104L252.678 350.972L253.437 351.248C254.733 350.22 256.029 349.192 257.304 348.142C246.572 341.862 235.482 336.214 224.14 331.137C210.726 325.879 196.82 320.177 182.162 320.507C182.048 320.193 181.816 319.553 181.698 319.227C182.172 318.824 183.123 318.032 183.596 317.629C178.602 317.764 173.601 317.132 168.61 317.63C164.663 317.935 160.693 318.696 156.716 318.115ZM179.588 318.444C181.3 321.271 175.971 319.959 178.518 318.071L179.588 318.444Z" fill="#D7E58F"/>
<path d="M192.011 308.988C190.419 310.755 193.962 315.027 196.12 314.158C195.642 312.128 194.188 309.54 192.011 308.988Z" fill="#556D36"/>
<path d="M223.993 300.93C224.106 303.175 224.258 305.408 224.523 307.646C227.578 313.152 230.908 318.515 233.942 324.041C234.421 323.175 235.39 321.425 235.865 320.546C233.535 313.186 228.626 306.997 223.993 300.93Z" fill="#718A3F"/>
<path d="M157.137 322.864C155.511 322.375 153.187 323.688 153.205 325.502C154.413 327.23 158.046 324.534 157.137 322.864Z" fill="#5B7339"/>
<path d="M121.61 334.206C121.21 335.103 121.21 335.103 121.61 334.206V334.206Z" fill="#5E7048"/>
<path d="M173.522 320.095C167.281 319.214 161.261 321.929 157.221 326.644C161.644 325.417 165.782 323.428 170.042 321.777C168.861 322.769 167.65 323.757 166.422 324.735C168.883 324.595 171.332 324.599 173.766 324.901C170.255 326.621 166.593 327.997 162.874 329.237C163.908 327.914 164.947 326.604 165.976 325.311C163.281 326.295 160.594 327.305 157.911 328.327C159.974 329.181 162.05 330.032 164.104 330.903C168.49 328.988 172.909 326.21 177.9 326.985C181.608 326.238 184.992 324.517 188.148 322.476L186.825 322.1C183.155 323.408 179.255 322.804 175.464 322.5C174.978 321.899 174.008 320.696 173.522 320.095Z" fill="#799248"/>
<path d="M179.588 318.444L178.517 318.071C175.97 319.96 181.3 321.271 179.588 318.444Z" fill="#43561F"/>
<path d="M218.448 307.552C221.631 311.044 214.482 308.94 218.448 307.552V307.552Z" fill="#9DBD60"/>
<path d="M192.848 315.788C192.376 316.68 192.376 316.68 192.848 315.788V315.788Z" fill="#768D54"/>
<path d="M243.482 305.135C244.579 303.526 243.694 300.967 241.47 301.41C241.976 302.34 242.988 304.201 243.482 305.135Z" fill="#6F7F3D"/>
<path d="M262.954 305.861C260.417 303.828 257.392 302.412 255.563 299.525C255.718 303.967 259.098 307.242 260.855 311.091C265.621 321.047 269.289 331.466 273.461 341.667C271.109 329.403 265.785 317.959 262.954 305.861Z" fill="#A5C65D"/>
<path d="M319.424 283.302C317.622 286.562 321.388 289.379 323.037 291.834C330.369 299.127 337.755 306.416 345.879 312.812C337.32 302.762 327.651 293.667 319.424 283.302Z" fill="#CEE39D"/>
<path d="M306.368 305.972C303.635 303.806 301.337 300.41 297.574 300.153C304.163 305.331 309.459 311.9 316.327 316.724C324.056 323.022 331.931 329.12 339.24 335.902C335.335 330.583 329.931 326.665 325.609 321.702C319.206 316.451 312.316 311.774 306.368 305.972Z" fill="#CEE39D"/>
<path d="M304.027 336.369C300.344 333.68 297.252 330.256 293.407 327.759C293.903 329.756 294.771 331.69 296.397 333.019C302.222 338.567 309.166 342.666 315.484 347.609C320.195 350.713 324.546 354.49 329.779 356.728L328.74 354.96C321.006 348.118 311.465 343.6 304.027 336.369Z" fill="#CEE39D"/>
<path d="M270.538 303.445C273.04 301.767 269.031 299.196 269.566 302.635L270.538 303.445Z" fill="#3B4C15"/>
<path d="M305.791 296.473L304.059 296.66C307.208 299.869 310.842 303.106 311.639 307.764C322.11 316.169 332.855 324.25 342.581 333.523C336.659 325.515 329.146 318.84 322.336 311.606C317.598 305.824 312.344 300.221 305.791 296.473Z" fill="#CEE29C"/>
<path d="M304.604 300.965C304.832 299.395 302.661 297.19 301.194 298.384C300.784 300.04 303.131 301.742 304.604 300.965Z" fill="#788857"/>
<path d="M274.511 307.399C274.252 307.86 273.721 308.784 273.462 309.245C274.335 312.997 275.746 316.591 277.186 320.149L278.847 319.564C277.277 315.558 275.755 311.523 274.511 307.399Z" fill="#B3C97A"/>
<path d="M201.547 332.916C193.089 335.092 183.525 336.038 176.76 342.083C178.83 342.431 180.866 342.804 182.911 343.161C183.948 344.748 185.104 346.268 186.769 347.235C193.907 343.857 201.104 340.487 208.564 337.902C209.33 338.064 210.877 338.397 211.642 338.559C204.22 341.398 196.432 343.305 189.304 346.89L190.692 347.735C194.141 349.995 197.833 351.66 201.906 352.364C204.474 355.114 208.141 355.556 211.632 356.235C217.602 358.812 223.925 360.87 230.403 361.704L231.437 360.997C235.062 358.275 239.698 357.54 243.664 355.494C237.85 353.231 231.95 358.343 225.958 358.6C227.287 356.973 229.458 356.758 231.349 356.281C236.498 355.313 241.067 352.613 245.932 350.84C245.864 350.539 245.725 349.968 245.648 349.685C237.557 351.827 229.366 353.568 221.415 356.24C219.204 357.602 217.39 355.773 215.578 354.741C223.707 351.97 231.052 347.35 239.259 344.737L237.541 344.57C228.866 347.165 220.383 350.496 211.454 352.248C216.914 349.488 222.909 348.012 228.369 345.252C220.178 344.446 213.212 349.729 205.485 351.434C212.164 347.096 220.144 345.395 227.152 341.652C223.185 342.201 219.317 343.237 215.505 344.493C209.691 346.274 204.116 349.155 197.967 349.575C202.949 346.896 208.433 345.444 213.799 343.749L213.341 342.356C211.189 342.761 209.042 343.179 206.889 343.627C203.326 345.181 199.636 346.468 195.862 347.404C202.914 342.612 211.954 341.384 218.525 335.961C217.834 336.209 216.453 336.705 215.762 336.953C213.394 338.435 210.885 337.764 208.647 336.448C200.825 338.953 193.131 341.949 185.115 343.844C192.411 341.269 199.524 338.164 206.119 334.091C198.558 335.701 191.511 338.925 184.273 341.551C189.462 337.632 195.639 335.455 201.547 332.916Z" fill="#374C20"/>
<path d="M305.643 300.843L304.604 300.964C304.876 301.466 305.419 302.468 305.691 302.969L306.726 302.836C306.454 302.334 305.915 301.345 305.643 300.843Z" fill="#95A674"/>
<path d="M306.726 302.836C307.852 303.513 307.852 303.513 306.726 302.836V302.836Z" fill="#A4B580"/>
<path d="M220.932 334.159C220.331 334.602 219.121 335.505 218.525 335.961C211.954 341.384 202.913 342.612 195.862 347.404C199.636 346.468 203.326 345.181 206.889 343.627L208.073 343.04C211.942 341.038 216.336 339.723 220.689 340.561C218.989 341.9 217.288 343.239 215.505 344.493C219.317 343.237 223.185 342.201 227.152 341.652C220.144 345.395 212.164 347.096 205.485 351.434C213.212 349.729 220.177 344.446 228.368 345.252C222.908 348.013 216.913 349.488 211.454 352.248C220.383 350.496 228.865 347.165 237.54 344.57C234.491 344.31 231.44 343.868 228.514 342.897C229.062 342.247 230.147 340.95 230.695 340.299C228.867 340.14 226.999 340.119 225.183 339.732C223.296 338.29 222.285 336.037 220.932 334.159Z" fill="#BAD66F"/>
<path d="M317.527 331.174C309.54 324.986 302.746 316.879 293.218 312.973C297.707 318.764 303.923 322.815 308.946 328.044C302.52 325.529 298.2 319.082 291.447 317.385C297.016 324.329 304.754 329.029 311.235 335.011C304.772 332.074 300.044 326.191 293.387 323.567C301.431 333.404 312.047 340.812 322.708 347.576C326.979 350.176 330.254 354.31 335.055 356.028C332.496 352.561 328.347 350.607 326.133 346.863C323.671 347.787 321.678 345.525 321.011 343.387C323.295 343.135 325.744 344.454 326.133 346.863C331.155 348.482 334.947 352.48 338.793 355.901C338.075 353.163 334.343 351.595 335.571 348.419L334.886 350.442C326.35 342.973 316.232 337.17 308.967 328.373C317.533 335.454 327.442 340.821 335.571 348.419C336.248 348.833 337.595 349.635 338.273 350.049C332.756 342.305 324.507 337.404 317.527 331.174Z" fill="#D1E5A0"/>
<path d="M251.303 332.114C249.886 333.069 249.976 334.187 251.582 335.453C252.995 334.485 252.905 333.367 251.303 332.114Z" fill="#61793E"/>
<path d="M278.131 332.386C281.389 335.63 274.158 334.015 278.131 332.386V332.386Z" fill="#919F8D"/>
<path d="M279.678 335.181C279.541 342.879 282.267 350.253 282.873 357.91C288.221 361.259 293.006 365.43 298.302 368.879C298.323 367.893 298.358 365.937 298.38 364.95C298.746 365.044 299.46 365.222 299.813 365.319C299.282 364.313 298.743 363.323 298.166 362.346C297.91 363.561 297.653 364.776 297.383 365.995C291.139 355.922 285.438 345.535 279.678 335.181Z" fill="#FEFEFE"/>
<path d="M295.35 350.383C293.631 347.138 291.929 343.86 289.56 341.032C291.414 347.032 295.723 351.775 298.308 357.431C299.363 359.908 302.058 362.702 299.813 365.32C300.954 367.629 302.133 369.926 303.347 372.198C303.969 371.734 305.204 370.823 305.83 370.372C307.141 372.249 308.444 374.143 309.738 376.054C309.8 375.195 309.92 373.505 309.986 372.659C313.418 377.681 317.817 382.003 320.777 387.343C322.372 387.955 323.521 389.058 324.241 390.662C326.289 394.194 330.627 396.786 330.742 401.144C331.535 401.437 332.315 401.734 333.108 402.027C337.158 409.077 344.022 414.154 347.043 421.882C346.828 419.977 346.816 418.05 346.812 416.148C342.796 411.886 339.364 407.129 335.656 402.601C334.546 401.051 332.876 399.54 333.212 397.432L333.205 397.323C330.341 397.031 329.097 393.957 327.279 392.115C324.492 388.021 320.224 384.595 319.17 379.571L319.006 379.539C318.632 379.42 317.889 379.195 317.528 379.072C311.384 370.94 304.409 363.45 298.751 354.953C297.686 353.501 297.479 351.664 297.304 349.928L297.16 349.96C296.704 350.064 295.807 350.279 295.35 350.383ZM303.955 369.276C302.2 369.345 301.509 368.404 301.889 366.478C303.657 366.404 304.348 367.346 303.955 369.276Z" fill="#B0D25F"/>
</g>
</svg>
