<svg width="562" height="26" viewBox="0 0 562 26" fill="none" xmlns="http://www.w3.org/2000/svg">
<path d="M8.50195 25.6641C5.65755 25.6641 3.59896 24.5794 2.32617 22.4102C1.2526 20.584 0.71582 18.1214 0.71582 15.0225C0.71582 13.6943 0.809896 12.3551 0.998047 11.0049C1.1862 9.64355 1.48503 8.35417 1.89453 7.13672C2.30404 5.91927 2.82975 4.83464 3.47168 3.88281C4.12467 2.93099 4.91048 2.17839 5.8291 1.625C6.75879 1.06055 7.82682 0.77832 9.0332 0.77832C10.0514 0.77832 10.959 1.01074 11.7559 1.47559C12.5527 1.92936 13.25 2.57682 13.8477 3.41797C14.4564 4.25911 14.9876 5.25521 15.4414 6.40625C15.5189 6.58333 15.5576 6.74935 15.5576 6.9043C15.5576 7.23633 15.3529 7.45768 14.9434 7.56836C13.25 8.02214 12.3369 8.24902 12.2041 8.24902C12.0713 8.24902 11.9495 8.22689 11.8389 8.18262C11.6286 8.08301 11.4626 7.82292 11.3408 7.40234C10.6436 4.88997 9.87435 3.63379 9.0332 3.63379C8.18099 3.63379 7.45052 4.92871 6.8418 7.51855C6.32161 9.75423 6.06152 12.1615 6.06152 14.7402C6.06152 16.0573 6.16667 17.2747 6.37695 18.3926C6.83073 20.7832 7.66634 21.9785 8.88379 21.9785C9.50358 21.9785 10.057 21.6686 10.5439 21.0488C11.0309 20.418 11.4017 19.6211 11.6562 18.6582C11.7669 18.2266 11.9053 17.972 12.0713 17.8945C12.2373 17.8171 12.3867 17.7783 12.5195 17.7783C12.7298 17.7783 12.9899 17.8281 13.2998 17.9277C13.7757 18.0827 14.2461 18.2376 14.7109 18.3926C15.1868 18.5475 15.4801 18.708 15.5908 18.874C15.7015 19.029 15.7568 19.1839 15.7568 19.3389C15.7568 19.4606 15.7402 19.5934 15.707 19.7373C15.3861 20.9105 14.9046 21.9398 14.2627 22.8252C13.6208 23.7106 12.8184 24.4079 11.8555 24.917C10.8926 25.415 9.77474 25.6641 8.50195 25.6641ZM34.1016 25.1328H27.0459C26.7692 25.1328 26.5645 25.0387 26.4316 24.8506C26.2988 24.6514 26.2324 24.4079 26.2324 24.1201V22.4434C26.2324 21.7904 26.5036 21.4639 27.0459 21.4639C27.2008 21.4639 27.2783 21.3698 27.2783 21.1816L26.415 14.7236H23.0117C22.7461 16.5498 22.5192 18.0384 22.3311 19.1895C22.154 20.3405 22.0654 20.9824 22.0654 21.1152C22.0654 21.3477 22.1595 21.4639 22.3477 21.4639C22.6133 21.4639 22.807 21.5635 22.9287 21.7627C23.0615 21.9508 23.1279 22.1888 23.1279 22.4766V24.1201C23.1279 24.7952 22.8678 25.1328 22.3477 25.1328H17.3174C17.0075 25.1328 16.7419 25.0443 16.5205 24.8672C16.2992 24.6901 16.1885 24.4411 16.1885 24.1201V22.4766C16.1885 22.1888 16.2936 21.9508 16.5039 21.7627C16.7253 21.5635 16.9964 21.4639 17.3174 21.4639C17.4613 21.4639 17.5609 21.3421 17.6162 21.0986C20.04 9.99772 21.252 4.38086 21.252 4.24805C21.2409 4.0931 21.1523 4.01562 20.9863 4.01562C20.6986 4.01562 20.444 3.92708 20.2227 3.75C20.0124 3.56185 19.9072 3.30176 19.9072 2.96973V2.28906C19.9072 1.6582 20.2669 1.34277 20.9863 1.34277H29.7686C30.2445 1.34277 30.4824 1.6748 30.4824 2.33887V3.01953C30.4824 3.68359 30.2445 4.01562 29.7686 4.01562C29.5915 4.01562 29.4974 4.06543 29.4863 4.16504C29.4863 4.25358 29.4863 4.31445 29.4863 4.34766C29.4863 4.49154 30.8643 10.0475 33.6201 21.0156C33.6976 21.3145 33.8581 21.4639 34.1016 21.4639C34.5996 21.4639 34.8486 21.8014 34.8486 22.4766V24.1201C34.8486 24.7952 34.5996 25.1328 34.1016 25.1328ZM26.0166 11.7354C25.3636 6.86556 25.015 4.38086 24.9707 4.28125C24.9375 4.17057 24.8711 4.11523 24.7715 4.11523C24.6829 4.11523 24.6165 4.21484 24.5723 4.41406C24.5391 4.54688 24.1683 6.9873 23.46 11.7354H26.0166ZM53.5918 25.1328H46.7354C46.4587 25.1328 46.2262 25.0332 46.0381 24.834C45.861 24.6348 45.7725 24.3968 45.7725 24.1201V22.4766C45.7725 22.1999 45.861 21.9619 46.0381 21.7627C46.2262 21.5635 46.4587 21.4639 46.7354 21.4639C46.7796 21.4639 46.8184 21.4417 46.8516 21.3975L43.2656 7.41895L44.0957 21.0156C44.1178 21.3145 44.1842 21.4639 44.2949 21.4639C44.5716 21.4639 44.7985 21.5635 44.9756 21.7627C45.1637 21.9619 45.2578 22.1999 45.2578 22.4766V24.1201C45.2578 24.3968 45.1637 24.6348 44.9756 24.834C44.7985 25.0332 44.5716 25.1328 44.2949 25.1328H37.4385C37.1618 25.1328 36.9294 25.0332 36.7412 24.834C36.5641 24.6348 36.4756 24.3968 36.4756 24.1201V22.4766C36.4756 22.1999 36.5641 21.9619 36.7412 21.7627C36.9294 21.5635 37.1618 21.4639 37.4385 21.4639C37.5602 21.4639 37.6322 21.3145 37.6543 21.0156C38.3073 10.3464 38.6338 4.88997 38.6338 4.64648C38.6338 4.22591 38.4954 4.01562 38.2188 4.01562C37.9421 4.01562 37.7152 3.92155 37.5381 3.7334C37.361 3.53418 37.2725 3.29622 37.2725 3.01953V2.33887C37.2725 2.06217 37.3721 1.82975 37.5713 1.6416C37.7705 1.44238 38.0085 1.34277 38.2852 1.34277H43.8301C44.3613 1.34277 44.6934 1.5918 44.8262 2.08984L47.4658 12.416C47.7757 7.38021 47.9307 4.7959 47.9307 4.66309C47.9307 4.23145 47.7923 4.01562 47.5156 4.01562C47.2389 4.01562 47.012 3.92155 46.835 3.7334C46.6579 3.53418 46.5693 3.29622 46.5693 3.01953V2.33887C46.5693 2.06217 46.6689 1.82975 46.8682 1.6416C47.0674 1.44238 47.2998 1.34277 47.5654 1.34277H52.7451C53.0218 1.34277 53.2598 1.44238 53.459 1.6416C53.6582 1.82975 53.7578 2.06217 53.7578 2.33887V3.01953C53.7578 3.29622 53.6693 3.53418 53.4922 3.7334C53.3151 3.92155 53.0882 4.01562 52.8115 4.01562C52.5348 4.01562 52.3965 4.23145 52.3965 4.66309C52.3965 4.85124 52.723 10.3021 53.376 21.0156C53.3981 21.3145 53.4701 21.4639 53.5918 21.4639C53.8685 21.4639 54.0954 21.5635 54.2725 21.7627C54.4606 21.9619 54.5547 22.1999 54.5547 22.4766V24.1201C54.5547 24.3968 54.4606 24.6348 54.2725 24.834C54.0954 25.0332 53.8685 25.1328 53.5918 25.1328ZM65.6943 25.1328H58.8379C58.5723 25.1328 58.3454 25.0332 58.1572 24.834C57.9691 24.6348 57.875 24.3968 57.875 24.1201V22.4766C57.875 22.1999 57.9691 21.9619 58.1572 21.7627C58.3454 21.5635 58.5723 21.4639 58.8379 21.4639C58.9596 21.4639 59.0316 21.3145 59.0537 21.0156C59.6956 10.2246 60.0166 4.71842 60.0166 4.49707C60.0166 4.35319 59.9391 4.28125 59.7842 4.28125C59.5296 4.28125 58.9486 4.48047 58.041 4.87891C56.901 5.37695 56.1208 5.62598 55.7002 5.62598C55.4346 5.62598 55.2354 5.53743 55.1025 5.36035C54.9808 5.18327 54.9199 4.98405 54.9199 4.7627V2.33887C54.9199 2.06217 55.0085 1.82975 55.1855 1.6416C55.3737 1.44238 55.6061 1.34277 55.8828 1.34277H68.6494C68.9261 1.34277 69.1585 1.44238 69.3467 1.6416C69.5348 1.82975 69.6289 2.06217 69.6289 2.33887V4.7627C69.6289 4.98405 69.5625 5.18327 69.4297 5.36035C69.3079 5.53743 69.1087 5.62598 68.832 5.62598C68.4225 5.62598 67.6589 5.37142 66.541 4.8623C65.6999 4.486 65.1133 4.29785 64.7812 4.29785C64.6042 4.29785 64.5156 4.39193 64.5156 4.58008C64.5156 4.74609 64.8421 10.2246 65.4951 21.0156C65.5173 21.3145 65.5837 21.4639 65.6943 21.4639C65.971 21.4639 66.1979 21.5635 66.375 21.7627C66.5632 21.9619 66.6572 22.1999 66.6572 22.4766V24.1201C66.6572 24.3968 66.5632 24.6348 66.375 24.834C66.1979 25.0332 65.971 25.1328 65.6943 25.1328ZM85.7656 25.6641C82.9212 25.6641 80.8626 24.5794 79.5898 22.4102C78.5163 20.584 77.9795 18.1214 77.9795 15.0225C77.9795 13.6943 78.0736 12.3551 78.2617 11.0049C78.4499 9.64355 78.7487 8.35417 79.1582 7.13672C79.5677 5.91927 80.0934 4.83464 80.7354 3.88281C81.3883 2.93099 82.1742 2.17839 83.0928 1.625C84.0225 1.06055 85.0905 0.77832 86.2969 0.77832C87.3151 0.77832 88.2227 1.01074 89.0195 1.47559C89.8164 1.92936 90.5137 2.57682 91.1113 3.41797C91.7201 4.25911 92.2513 5.25521 92.7051 6.40625C92.7826 6.58333 92.8213 6.74935 92.8213 6.9043C92.8213 7.23633 92.6165 7.45768 92.207 7.56836C90.5137 8.02214 89.6006 8.24902 89.4678 8.24902C89.335 8.24902 89.2132 8.22689 89.1025 8.18262C88.8923 8.08301 88.7262 7.82292 88.6045 7.40234C87.9072 4.88997 87.138 3.63379 86.2969 3.63379C85.4447 3.63379 84.7142 4.92871 84.1055 7.51855C83.5853 9.75423 83.3252 12.1615 83.3252 14.7402C83.3252 16.0573 83.4303 17.2747 83.6406 18.3926C84.0944 20.7832 84.93 21.9785 86.1475 21.9785C86.7673 21.9785 87.3206 21.6686 87.8076 21.0488C88.2946 20.418 88.6654 19.6211 88.9199 18.6582C89.0306 18.2266 89.1689 17.972 89.335 17.8945C89.501 17.8171 89.6504 17.7783 89.7832 17.7783C89.9935 17.7783 90.2536 17.8281 90.5635 17.9277C91.0394 18.0827 91.5098 18.2376 91.9746 18.3926C92.4505 18.5475 92.7438 18.708 92.8545 18.874C92.9652 19.029 93.0205 19.1839 93.0205 19.3389C93.0205 19.4606 93.0039 19.5934 92.9707 19.7373C92.6497 20.9105 92.1683 21.9398 91.5264 22.8252C90.8844 23.7106 90.082 24.4079 89.1191 24.917C88.1562 25.415 87.0384 25.6641 85.7656 25.6641ZM111 25.1328H104.144C103.867 25.1328 103.634 25.0332 103.446 24.834C103.269 24.6348 103.181 24.3968 103.181 24.1201V22.4766C103.181 22.1999 103.269 21.9619 103.446 21.7627C103.634 21.5635 103.867 21.4639 104.144 21.4639C104.254 21.4639 104.321 21.3145 104.343 21.0156L104.741 14.7236H101.105L101.487 21.0156C101.509 21.3145 101.581 21.4639 101.703 21.4639C101.98 21.4639 102.207 21.5635 102.384 21.7627C102.572 21.9619 102.666 22.1999 102.666 22.4766V24.1201C102.666 24.3968 102.572 24.6348 102.384 24.834C102.207 25.0332 101.98 25.1328 101.703 25.1328H94.8467C94.57 25.1328 94.3376 25.0332 94.1494 24.834C93.9723 24.6348 93.8838 24.3968 93.8838 24.1201V22.4766C93.8838 22.1999 93.9723 21.9619 94.1494 21.7627C94.3376 21.5635 94.57 21.4639 94.8467 21.4639C94.9574 21.4639 95.0238 21.3145 95.0459 21.0156C95.71 10.3132 96.042 4.8623 96.042 4.66309C96.042 4.23145 95.9036 4.01562 95.627 4.01562C95.3503 4.01562 95.1234 3.92155 94.9463 3.7334C94.7692 3.53418 94.6807 3.29622 94.6807 3.01953V2.33887C94.6807 2.06217 94.7803 1.82975 94.9795 1.6416C95.1787 1.44238 95.4111 1.34277 95.6768 1.34277H100.856C101.133 1.34277 101.371 1.44238 101.57 1.6416C101.77 1.82975 101.869 2.06217 101.869 2.33887V3.01953C101.869 3.29622 101.781 3.53418 101.604 3.7334C101.426 3.92155 101.2 4.01562 100.923 4.01562C100.646 4.01562 100.508 4.22591 100.508 4.64648C100.508 4.86784 100.646 7.23079 100.923 11.7354H104.924C105.201 7.25293 105.339 4.89551 105.339 4.66309C105.339 4.23145 105.195 4.01562 104.907 4.01562C104.631 4.01562 104.404 3.92155 104.227 3.7334C104.061 3.53418 103.978 3.29622 103.978 3.01953V2.33887C103.978 2.06217 104.072 1.82975 104.26 1.6416C104.459 1.44238 104.697 1.34277 104.974 1.34277H110.153C110.43 1.34277 110.668 1.44238 110.867 1.6416C111.066 1.82975 111.166 2.06217 111.166 2.33887V3.01953C111.166 3.29622 111.077 3.53418 110.9 3.7334C110.723 3.92155 110.496 4.01562 110.22 4.01562C109.943 4.01562 109.805 4.22591 109.805 4.64648C109.805 4.87891 110.131 10.3353 110.784 21.0156C110.806 21.3145 110.878 21.4639 111 21.4639C111.277 21.4639 111.504 21.5635 111.681 21.7627C111.869 21.9619 111.963 22.1999 111.963 22.4766V24.1201C111.963 24.3968 111.869 24.6348 111.681 24.834C111.504 25.0332 111.277 25.1328 111 25.1328ZM121.227 25.6641C118.626 25.6641 116.645 24.6292 115.283 22.5596C114.055 20.6891 113.44 18.2985 113.44 15.3877C113.44 13.3955 113.629 11.5195 114.005 9.75977C114.392 7.98893 114.929 6.43945 115.615 5.11133C116.312 3.77214 117.137 2.7207 118.089 1.95703C119.041 1.19336 120.087 0.811523 121.227 0.811523C122.367 0.811523 123.407 1.19336 124.348 1.95703C125.299 2.7207 126.118 3.77214 126.805 5.11133C127.502 6.43945 128.039 7.98893 128.415 9.75977C128.802 11.5195 128.996 13.3955 128.996 15.3877C128.996 18.2985 128.382 20.6891 127.153 22.5596C125.792 24.6292 123.816 25.6641 121.227 25.6641ZM121.227 21.9951C121.835 21.9951 122.339 21.6631 122.737 20.999C123.523 19.6598 123.916 17.3965 123.916 14.209C123.916 11.7077 123.684 9.42773 123.219 7.36914C122.665 4.97852 122.001 3.7832 121.227 3.7832C120.441 3.7832 119.777 4.97852 119.234 7.36914C118.758 9.49414 118.521 11.7741 118.521 14.209C118.521 15.7585 118.631 17.1475 118.853 18.376C119.273 20.7887 120.064 21.9951 121.227 21.9951ZM139.023 25.6641C136.423 25.6641 134.441 24.6292 133.08 22.5596C131.852 20.6891 131.237 18.2985 131.237 15.3877C131.237 13.3955 131.425 11.5195 131.802 9.75977C132.189 7.98893 132.726 6.43945 133.412 5.11133C134.109 3.77214 134.934 2.7207 135.886 1.95703C136.838 1.19336 137.883 0.811523 139.023 0.811523C140.163 0.811523 141.204 1.19336 142.145 1.95703C143.096 2.7207 143.915 3.77214 144.602 5.11133C145.299 6.43945 145.836 7.98893 146.212 9.75977C146.599 11.5195 146.793 13.3955 146.793 15.3877C146.793 18.2985 146.179 20.6891 144.95 22.5596C143.589 24.6292 141.613 25.6641 139.023 25.6641ZM139.023 21.9951C139.632 21.9951 140.136 21.6631 140.534 20.999C141.32 19.6598 141.713 17.3965 141.713 14.209C141.713 11.7077 141.48 9.42773 141.016 7.36914C140.462 4.97852 139.798 3.7832 139.023 3.7832C138.238 3.7832 137.574 4.97852 137.031 7.36914C136.555 9.49414 136.317 11.7741 136.317 14.209C136.317 15.7585 136.428 17.1475 136.649 18.376C137.07 20.7887 137.861 21.9951 139.023 21.9951ZM155.691 25.6807C153.755 25.6807 152.155 25.1494 150.894 24.0869C149.632 23.0244 148.757 21.5745 148.271 19.7373C148.226 19.5934 148.204 19.4606 148.204 19.3389C148.204 19.1839 148.259 19.029 148.37 18.874C148.481 18.708 148.774 18.5475 149.25 18.3926C149.726 18.2376 150.196 18.0827 150.661 17.9277C150.971 17.8281 151.231 17.7783 151.441 17.7783C151.574 17.7783 151.724 17.8171 151.89 17.8945C152.056 17.972 152.194 18.2266 152.305 18.6582C152.559 19.6211 152.947 20.418 153.467 21.0488C153.998 21.6686 154.568 21.9785 155.177 21.9785C155.996 21.9785 156.599 21.6797 156.986 21.082C157.385 20.4733 157.584 19.7041 157.584 18.7744C157.584 17.8447 157.213 17.0091 156.472 16.2676C155.763 15.5814 154.917 14.8952 153.932 14.209C152.294 13.0801 151.093 12.0674 150.329 11.1709C149.178 9.82064 148.603 8.25456 148.603 6.47266C148.603 5.27734 148.918 4.25358 149.549 3.40137C150.18 2.54915 151.004 1.89616 152.022 1.44238C153.041 0.988607 154.131 0.761719 155.293 0.761719C157.208 0.761719 158.718 1.2321 159.825 2.17285C160.943 3.11361 161.806 4.52474 162.415 6.40625C162.47 6.5944 162.498 6.76595 162.498 6.9209C162.498 6.9873 162.481 7.09245 162.448 7.23633C162.426 7.36914 162.243 7.47982 161.9 7.56836C160.218 8.02214 159.311 8.24902 159.178 8.24902C159.034 8.24902 158.879 8.21582 158.713 8.14941C158.558 8.07194 158.425 7.82292 158.314 7.40234C158.005 6.20703 157.623 5.28841 157.169 4.64648C156.715 3.99349 156.14 3.66699 155.442 3.66699C154.734 3.66699 154.175 3.90495 153.766 4.38086C153.356 4.8457 153.151 5.42676 153.151 6.12402C153.151 6.58887 153.306 7.02604 153.616 7.43555C153.926 7.84505 154.336 8.24902 154.845 8.64746C155.365 9.0459 155.94 9.4554 156.571 9.87598C157.545 10.5179 158.519 11.2484 159.493 12.0674C160.467 12.8864 161.281 13.8714 161.934 15.0225C162.587 16.1735 162.913 17.557 162.913 19.1729C162.913 20.4235 162.636 21.5358 162.083 22.5098C161.541 23.4837 160.738 24.2585 159.676 24.834C158.613 25.3984 157.285 25.6807 155.691 25.6807ZM177.639 25.1328H165.204C164.927 25.1328 164.695 25.0332 164.507 24.834C164.33 24.6348 164.241 24.3968 164.241 24.1201V22.4766C164.241 22.1999 164.33 21.9619 164.507 21.7627C164.695 21.5635 164.927 21.4639 165.204 21.4639C165.315 21.4639 165.381 21.3145 165.403 21.0156C166.067 10.457 166.399 5.00618 166.399 4.66309C166.399 4.23145 166.261 4.01562 165.984 4.01562C165.708 4.01562 165.481 3.92155 165.304 3.7334C165.127 3.53418 165.038 3.29622 165.038 3.01953V2.33887C165.038 2.06217 165.138 1.82975 165.337 1.6416C165.536 1.44238 165.769 1.34277 166.034 1.34277H177.024C177.301 1.34277 177.528 1.44238 177.705 1.6416C177.893 1.82975 177.987 2.06217 177.987 2.33887V4.7627C177.987 4.98405 177.926 5.18327 177.805 5.36035C177.683 5.53743 177.484 5.62598 177.207 5.62598C176.853 5.62598 176.128 5.44889 175.032 5.09473C173.483 4.58561 172.387 4.33105 171.745 4.33105C171.17 4.33105 170.882 4.53027 170.882 4.92871C170.882 5.2054 171.015 7.47428 171.28 11.7354H175.248C175.525 11.7354 175.752 11.835 175.929 12.0342C176.117 12.2334 176.211 12.4658 176.211 12.7314V13.7275C176.211 14.0042 176.117 14.2422 175.929 14.4414C175.752 14.6296 175.525 14.7236 175.248 14.7236H171.463L171.845 20.9492C171.856 21.1374 171.955 21.2314 172.144 21.2314C172.885 21.2314 173.56 21.1429 174.169 20.9658C174.789 20.7777 175.359 20.5785 175.879 20.3682C176.742 20.0029 177.39 19.8203 177.821 19.8203C178.098 19.8203 178.297 19.9089 178.419 20.0859C178.541 20.263 178.602 20.4678 178.602 20.7002V24.1201C178.602 24.3968 178.507 24.6348 178.319 24.834C178.142 25.0332 177.915 25.1328 177.639 25.1328ZM189.376 19.5381H184.196C183.92 19.5381 183.682 19.444 183.482 19.2559C183.294 19.0566 183.2 18.8187 183.2 18.542V17.8613C183.2 17.5846 183.283 17.3467 183.449 17.1475C183.626 16.9482 183.848 16.8486 184.113 16.8486C184.39 16.8486 184.528 16.6605 184.528 16.2842C184.528 16.1071 184.517 15.8802 184.495 15.6035C184.484 15.3268 184.479 15.0059 184.479 14.6406C184.479 13.7773 184.728 12.9805 185.226 12.25C185.801 11.4199 186.46 10.6341 187.201 9.89258C187.633 9.47201 188.031 9.05143 188.396 8.63086C188.762 8.19922 189.061 7.76204 189.293 7.31934C189.525 6.87663 189.642 6.42285 189.642 5.95801C189.642 5.26074 189.448 4.70736 189.061 4.29785C188.673 3.87728 188.131 3.66699 187.434 3.66699C186.128 3.66699 185.143 4.91211 184.479 7.40234C184.368 7.82292 184.235 8.07194 184.08 8.14941C183.925 8.21582 183.781 8.24902 183.648 8.24902C183.527 8.24902 182.608 8.02214 180.893 7.56836C180.494 7.45768 180.295 7.24186 180.295 6.9209C180.295 6.74382 180.323 6.57227 180.378 6.40625C180.998 4.51367 181.905 3.09701 183.101 2.15625C184.307 1.21549 185.868 0.745117 187.782 0.745117C188.867 0.745117 189.896 0.955404 190.87 1.37598C191.855 1.79655 192.652 2.41081 193.261 3.21875C193.881 4.01562 194.19 4.99512 194.19 6.15723C194.19 7.57389 193.692 8.85221 192.696 9.99219C192.254 10.4902 191.8 10.9606 191.335 11.4033C190.771 11.9235 190.278 12.4548 189.857 12.9971C189.448 13.5283 189.21 14.126 189.144 14.79C189.077 15.5316 189.044 16.0352 189.044 16.3008C189.044 16.666 189.177 16.8486 189.442 16.8486C189.719 16.8486 189.94 16.9482 190.106 17.1475C190.284 17.3467 190.372 17.5846 190.372 17.8613V18.542C190.372 18.8187 190.272 19.0566 190.073 19.2559C189.885 19.444 189.653 19.5381 189.376 19.5381ZM186.786 25.1162C186.133 25.1162 185.58 24.8893 185.126 24.4355C184.672 23.9818 184.445 23.4284 184.445 22.7754C184.445 22.1335 184.672 21.5856 185.126 21.1318C185.58 20.6781 186.133 20.4512 186.786 20.4512C187.428 20.4512 187.976 20.6781 188.43 21.1318C188.895 21.5856 189.127 22.1335 189.127 22.7754C189.127 23.4284 188.895 23.9818 188.43 24.4355C187.976 24.8893 187.428 25.1162 186.786 25.1162ZM211.954 25.6641C207.549 25.6641 205.042 23.4062 204.434 18.8906C204.257 17.64 204.168 16.3617 204.168 15.0557C204.168 13.8493 204.257 12.5876 204.434 11.2705C204.611 9.95345 204.893 8.67513 205.28 7.43555C205.679 6.19596 206.193 5.07812 206.824 4.08203C207.455 3.08594 208.224 2.2946 209.132 1.70801C210.039 1.11035 211.102 0.811523 212.319 0.811523C213.338 0.811523 214.223 1.04948 214.976 1.52539C215.739 1.99023 216.403 2.64876 216.968 3.50098C217.543 4.34212 218.058 5.33822 218.512 6.48926C218.589 6.66634 218.628 6.83789 218.628 7.00391C218.628 7.32487 218.423 7.54069 218.014 7.65137C216.431 8.07194 215.579 8.28223 215.457 8.28223C215.059 8.28223 214.782 8 214.627 7.43555C213.941 4.91211 213.172 3.65039 212.319 3.65039C211.456 3.65039 210.748 4.94531 210.194 7.53516C209.707 9.75977 209.464 12.1615 209.464 14.7402C209.464 16.1348 209.569 17.3854 209.779 18.4922C210.222 20.8275 211.069 21.9951 212.319 21.9951C213.083 21.9951 213.714 21.5524 214.212 20.667C214.721 19.7816 214.976 18.459 214.976 16.6992C214.976 16.2676 214.965 15.8193 214.942 15.3545C214.931 15.111 214.87 14.945 214.76 14.8564C214.649 14.7679 214.466 14.7236 214.212 14.7236H212.734C212.458 14.7236 212.225 14.6296 212.037 14.4414C211.86 14.2422 211.771 14.0042 211.771 13.7275V12.7314C211.771 12.4658 211.86 12.2334 212.037 12.0342C212.225 11.835 212.458 11.7354 212.734 11.7354H217.798C218.13 11.7354 218.407 11.8626 218.628 12.1172C218.849 12.3607 219.015 12.8643 219.126 13.6279C219.237 14.3805 219.292 15.5205 219.292 17.0479C219.292 18.8408 219.026 20.3792 218.495 21.6631C217.964 22.9469 217.156 23.9375 216.071 24.6348C214.987 25.321 213.614 25.6641 211.954 25.6641ZM233.984 25.1328H221.55C221.273 25.1328 221.041 25.0332 220.853 24.834C220.675 24.6348 220.587 24.3968 220.587 24.1201V22.4766C220.587 22.1999 220.675 21.9619 220.853 21.7627C221.041 21.5635 221.273 21.4639 221.55 21.4639C221.66 21.4639 221.727 21.3145 221.749 21.0156C222.413 10.457 222.745 5.00618 222.745 4.66309C222.745 4.23145 222.607 4.01562 222.33 4.01562C222.053 4.01562 221.826 3.92155 221.649 3.7334C221.472 3.53418 221.384 3.29622 221.384 3.01953V2.33887C221.384 2.06217 221.483 1.82975 221.683 1.6416C221.882 1.44238 222.114 1.34277 222.38 1.34277H233.37C233.647 1.34277 233.874 1.44238 234.051 1.6416C234.239 1.82975 234.333 2.06217 234.333 2.33887V4.7627C234.333 4.98405 234.272 5.18327 234.15 5.36035C234.029 5.53743 233.829 5.62598 233.553 5.62598C233.199 5.62598 232.474 5.44889 231.378 5.09473C229.828 4.58561 228.733 4.33105 228.091 4.33105C227.515 4.33105 227.228 4.53027 227.228 4.92871C227.228 5.2054 227.36 7.47428 227.626 11.7354H231.594C231.87 11.7354 232.097 11.835 232.274 12.0342C232.463 12.2334 232.557 12.4658 232.557 12.7314V13.7275C232.557 14.0042 232.463 14.2422 232.274 14.4414C232.097 14.6296 231.87 14.7236 231.594 14.7236H227.809L228.19 20.9492C228.201 21.1374 228.301 21.2314 228.489 21.2314C229.231 21.2314 229.906 21.1429 230.515 20.9658C231.134 20.7777 231.704 20.5785 232.225 20.3682C233.088 20.0029 233.735 19.8203 234.167 19.8203C234.444 19.8203 234.643 19.9089 234.765 20.0859C234.886 20.263 234.947 20.4678 234.947 20.7002V24.1201C234.947 24.3968 234.853 24.6348 234.665 24.834C234.488 25.0332 234.261 25.1328 233.984 25.1328ZM246.817 25.1328H239.961C239.695 25.1328 239.468 25.0332 239.28 24.834C239.092 24.6348 238.998 24.3968 238.998 24.1201V22.4766C238.998 22.1999 239.092 21.9619 239.28 21.7627C239.468 21.5635 239.695 21.4639 239.961 21.4639C240.083 21.4639 240.155 21.3145 240.177 21.0156C240.819 10.2246 241.14 4.71842 241.14 4.49707C241.14 4.35319 241.062 4.28125 240.907 4.28125C240.653 4.28125 240.072 4.48047 239.164 4.87891C238.024 5.37695 237.244 5.62598 236.823 5.62598C236.558 5.62598 236.358 5.53743 236.226 5.36035C236.104 5.18327 236.043 4.98405 236.043 4.7627V2.33887C236.043 2.06217 236.132 1.82975 236.309 1.6416C236.497 1.44238 236.729 1.34277 237.006 1.34277H249.772C250.049 1.34277 250.282 1.44238 250.47 1.6416C250.658 1.82975 250.752 2.06217 250.752 2.33887V4.7627C250.752 4.98405 250.686 5.18327 250.553 5.36035C250.431 5.53743 250.232 5.62598 249.955 5.62598C249.546 5.62598 248.782 5.37142 247.664 4.8623C246.823 4.486 246.236 4.29785 245.904 4.29785C245.727 4.29785 245.639 4.39193 245.639 4.58008C245.639 4.74609 245.965 10.2246 246.618 21.0156C246.64 21.3145 246.707 21.4639 246.817 21.4639C247.094 21.4639 247.321 21.5635 247.498 21.7627C247.686 21.9619 247.78 22.1999 247.78 22.4766V24.1201C247.78 24.3968 247.686 24.6348 247.498 24.834C247.321 25.0332 247.094 25.1328 246.817 25.1328ZM266.391 12.2666C266.811 12.167 267.188 12.0065 267.52 11.7852C268.15 11.3867 268.637 10.8721 268.98 10.2412C269.324 9.59928 269.506 9.06803 269.528 8.64746C269.562 8.22689 269.578 7.95573 269.578 7.83398C269.578 7.25846 269.473 6.71061 269.263 6.19043C269.008 5.5485 268.604 5.02832 268.051 4.62988C267.497 4.22038 266.795 4.01562 265.942 4.01562L266.391 12.2666ZM275.704 25.1328H269.811C269.534 25.1328 269.301 25.0332 269.113 24.834C268.936 24.6348 268.848 24.3968 268.848 24.1201V22.4766C268.848 22.1999 268.936 21.9619 269.113 21.7627C269.301 21.5635 269.534 21.4639 269.811 21.4639C269.954 21.4639 270.026 21.3145 270.026 21.0156C270.026 20.2188 269.86 19.4993 269.528 18.8574C268.986 17.806 268.034 17.1475 266.673 16.8818L266.938 20.999C266.961 21.2979 267.033 21.4473 267.154 21.4473C267.42 21.4473 267.647 21.5469 267.835 21.7461C268.023 21.9453 268.117 22.1833 268.117 22.46V24.1201C268.117 24.3968 268.023 24.6348 267.835 24.834C267.647 25.0332 267.42 25.1328 267.154 25.1328H260.298C260.021 25.1328 259.789 25.0332 259.601 24.834C259.424 24.6348 259.335 24.3968 259.335 24.1201V22.46C259.335 22.1833 259.424 21.9453 259.601 21.7461C259.789 21.5469 260.021 21.4473 260.298 21.4473C260.409 21.4473 260.475 21.2979 260.497 20.999C261.161 10.3519 261.493 4.90658 261.493 4.66309C261.493 4.23145 261.349 4.01562 261.062 4.01562C260.785 4.01562 260.558 3.92155 260.381 3.7334C260.215 3.53418 260.132 3.29622 260.132 3.01953V2.33887C260.132 2.06217 260.226 1.82975 260.414 1.6416C260.613 1.44238 260.851 1.34277 261.128 1.34277H265.942C267.558 1.34277 268.936 1.5918 270.076 2.08984C271.216 2.58789 272.113 3.24642 272.766 4.06543C273.43 4.87337 273.828 5.62044 273.961 6.30664C274.094 6.99284 274.16 7.54069 274.16 7.9502C274.16 9.58822 273.568 11.0547 272.384 12.3496C271.941 12.8366 271.415 13.2682 270.807 13.6445C271.736 14.0762 272.533 14.6406 273.197 15.3379C274.647 16.8542 275.422 18.7467 275.521 21.0156C275.533 21.3145 275.593 21.4639 275.704 21.4639C275.981 21.4639 276.208 21.5635 276.385 21.7627C276.573 21.9619 276.667 22.1999 276.667 22.4766V24.1201C276.667 24.3968 276.573 24.6348 276.385 24.834C276.208 25.0332 275.981 25.1328 275.704 25.1328ZM291.426 25.1328H278.991C278.715 25.1328 278.482 25.0332 278.294 24.834C278.117 24.6348 278.028 24.3968 278.028 24.1201V22.4766C278.028 22.1999 278.117 21.9619 278.294 21.7627C278.482 21.5635 278.715 21.4639 278.991 21.4639C279.102 21.4639 279.168 21.3145 279.19 21.0156C279.854 10.457 280.187 5.00618 280.187 4.66309C280.187 4.23145 280.048 4.01562 279.771 4.01562C279.495 4.01562 279.268 3.92155 279.091 3.7334C278.914 3.53418 278.825 3.29622 278.825 3.01953V2.33887C278.825 2.06217 278.925 1.82975 279.124 1.6416C279.323 1.44238 279.556 1.34277 279.821 1.34277H290.812C291.088 1.34277 291.315 1.44238 291.492 1.6416C291.68 1.82975 291.774 2.06217 291.774 2.33887V4.7627C291.774 4.98405 291.714 5.18327 291.592 5.36035C291.47 5.53743 291.271 5.62598 290.994 5.62598C290.64 5.62598 289.915 5.44889 288.819 5.09473C287.27 4.58561 286.174 4.33105 285.532 4.33105C284.957 4.33105 284.669 4.53027 284.669 4.92871C284.669 5.2054 284.802 7.47428 285.067 11.7354H289.035C289.312 11.7354 289.539 11.835 289.716 12.0342C289.904 12.2334 289.998 12.4658 289.998 12.7314V13.7275C289.998 14.0042 289.904 14.2422 289.716 14.4414C289.539 14.6296 289.312 14.7236 289.035 14.7236H285.25L285.632 20.9492C285.643 21.1374 285.743 21.2314 285.931 21.2314C286.672 21.2314 287.347 21.1429 287.956 20.9658C288.576 20.7777 289.146 20.5785 289.666 20.3682C290.529 20.0029 291.177 19.8203 291.608 19.8203C291.885 19.8203 292.084 19.9089 292.206 20.0859C292.328 20.263 292.389 20.4678 292.389 20.7002V24.1201C292.389 24.3968 292.295 24.6348 292.106 24.834C291.929 25.0332 291.702 25.1328 291.426 25.1328ZM301.188 25.6641C298.343 25.6641 296.285 24.5794 295.012 22.4102C293.938 20.584 293.401 18.1214 293.401 15.0225C293.401 13.6943 293.495 12.3551 293.684 11.0049C293.872 9.64355 294.171 8.35417 294.58 7.13672C294.99 5.91927 295.515 4.83464 296.157 3.88281C296.81 2.93099 297.596 2.17839 298.515 1.625C299.444 1.06055 300.512 0.77832 301.719 0.77832C302.737 0.77832 303.645 1.01074 304.441 1.47559C305.238 1.92936 305.936 2.57682 306.533 3.41797C307.142 4.25911 307.673 5.25521 308.127 6.40625C308.204 6.58333 308.243 6.74935 308.243 6.9043C308.243 7.23633 308.038 7.45768 307.629 7.56836C305.936 8.02214 305.022 8.24902 304.89 8.24902C304.757 8.24902 304.635 8.22689 304.524 8.18262C304.314 8.08301 304.148 7.82292 304.026 7.40234C303.329 4.88997 302.56 3.63379 301.719 3.63379C300.867 3.63379 300.136 4.92871 299.527 7.51855C299.007 9.75423 298.747 12.1615 298.747 14.7402C298.747 16.0573 298.852 17.2747 299.062 18.3926C299.516 20.7832 300.352 21.9785 301.569 21.9785C302.189 21.9785 302.743 21.6686 303.229 21.0488C303.716 20.418 304.087 19.6211 304.342 18.6582C304.452 18.2266 304.591 17.972 304.757 17.8945C304.923 17.8171 305.072 17.7783 305.205 17.7783C305.415 17.7783 305.675 17.8281 305.985 17.9277C306.461 18.0827 306.932 18.2376 307.396 18.3926C307.872 18.5475 308.166 18.708 308.276 18.874C308.387 19.029 308.442 19.1839 308.442 19.3389C308.442 19.4606 308.426 19.5934 308.393 19.7373C308.072 20.9105 307.59 21.9398 306.948 22.8252C306.306 23.7106 305.504 24.4079 304.541 24.917C303.578 25.415 302.46 25.6641 301.188 25.6641ZM317.225 25.6641C314.624 25.6641 312.643 24.6292 311.281 22.5596C310.053 20.6891 309.438 18.2985 309.438 15.3877C309.438 13.3955 309.627 11.5195 310.003 9.75977C310.39 7.98893 310.927 6.43945 311.613 5.11133C312.311 3.77214 313.135 2.7207 314.087 1.95703C315.039 1.19336 316.085 0.811523 317.225 0.811523C318.365 0.811523 319.405 1.19336 320.346 1.95703C321.298 2.7207 322.117 3.77214 322.803 5.11133C323.5 6.43945 324.037 7.98893 324.413 9.75977C324.8 11.5195 324.994 13.3955 324.994 15.3877C324.994 18.2985 324.38 20.6891 323.151 22.5596C321.79 24.6292 319.814 25.6641 317.225 25.6641ZM317.225 21.9951C317.833 21.9951 318.337 21.6631 318.735 20.999C319.521 19.6598 319.914 17.3965 319.914 14.209C319.914 11.7077 319.682 9.42773 319.217 7.36914C318.663 4.97852 317.999 3.7832 317.225 3.7832C316.439 3.7832 315.775 4.97852 315.232 7.36914C314.757 9.49414 314.519 11.7741 314.519 14.209C314.519 15.7585 314.629 17.1475 314.851 18.376C315.271 20.7887 316.062 21.9951 317.225 21.9951ZM347.987 25.1328H341.131C340.854 25.1328 340.611 25.0332 340.4 24.834C340.19 24.6348 340.085 24.3968 340.085 24.1201V22.4766C340.085 22.1999 340.19 21.9619 340.4 21.7627C340.611 21.5635 340.854 21.4639 341.131 21.4639C341.23 21.4639 341.33 21.4251 341.43 21.3477C341.529 21.2702 341.579 21.1595 341.579 21.0156C341.579 20.8607 341.286 17.0866 340.699 9.69336L338.973 15.5371C338.862 15.9245 338.674 16.1735 338.408 16.2842C338.143 16.3838 337.722 16.4336 337.146 16.4336C336.56 16.4336 336.134 16.3838 335.868 16.2842C335.603 16.1735 335.414 15.9245 335.304 15.5371L333.577 9.69336C332.991 17.0645 332.697 20.8385 332.697 21.0156C332.697 21.1595 332.747 21.2702 332.847 21.3477C332.946 21.4251 333.046 21.4639 333.146 21.4639C333.422 21.4639 333.666 21.5635 333.876 21.7627C334.097 21.9619 334.208 22.1999 334.208 22.4766V24.1201C334.208 24.3968 334.097 24.6348 333.876 24.834C333.666 25.0332 333.422 25.1328 333.146 25.1328H326.306C326.029 25.1328 325.813 25.0332 325.658 24.834C325.503 24.6348 325.426 24.3968 325.426 24.1201V22.4766C325.426 22.1999 325.503 21.9619 325.658 21.7627C325.813 21.5635 326.029 21.4639 326.306 21.4639C326.582 21.4639 326.743 21.3145 326.787 21.0156C328.447 10.0807 329.277 4.58008 329.277 4.51367C329.277 4.18164 329.145 4.01562 328.879 4.01562C328.613 4.01562 328.409 3.92155 328.265 3.7334C328.121 3.53418 328.049 3.29622 328.049 3.01953V2.33887C328.049 2.06217 328.126 1.82975 328.281 1.6416C328.436 1.44238 328.646 1.34277 328.912 1.34277H330.971C331.502 1.34277 331.917 1.37598 332.216 1.44238C332.526 1.49772 332.797 1.66374 333.029 1.94043C333.262 2.21712 333.516 2.6543 333.793 3.25195L337.146 10.5234L340.5 3.25195C340.777 2.6543 341.026 2.21712 341.247 1.94043C341.479 1.66374 341.745 1.49772 342.044 1.44238C342.354 1.37598 342.774 1.34277 343.306 1.34277H345.364C345.641 1.34277 345.851 1.44238 345.995 1.6416C346.15 1.82975 346.228 2.06217 346.228 2.33887V3.01953C346.228 3.29622 346.156 3.53418 346.012 3.7334C345.868 3.92155 345.663 4.01562 345.397 4.01562C345.132 4.01562 344.999 4.18164 344.999 4.51367C344.999 4.58008 345.835 10.0752 347.506 20.999C347.55 21.3089 347.711 21.4639 347.987 21.4639C348.264 21.4639 348.48 21.5635 348.635 21.7627C348.79 21.9619 348.867 22.1999 348.867 22.4766V24.1201C348.867 24.3968 348.79 24.6348 348.635 24.834C348.48 25.0332 348.264 25.1328 347.987 25.1328ZM372.923 25.1328H366.066C365.79 25.1328 365.546 25.0332 365.336 24.834C365.126 24.6348 365.021 24.3968 365.021 24.1201V22.4766C365.021 22.1999 365.126 21.9619 365.336 21.7627C365.546 21.5635 365.79 21.4639 366.066 21.4639C366.166 21.4639 366.266 21.4251 366.365 21.3477C366.465 21.2702 366.515 21.1595 366.515 21.0156C366.515 20.8607 366.221 17.0866 365.635 9.69336L363.908 15.5371C363.798 15.9245 363.609 16.1735 363.344 16.2842C363.078 16.3838 362.658 16.4336 362.082 16.4336C361.495 16.4336 361.069 16.3838 360.804 16.2842C360.538 16.1735 360.35 15.9245 360.239 15.5371L358.513 9.69336C357.926 17.0645 357.633 20.8385 357.633 21.0156C357.633 21.1595 357.683 21.2702 357.782 21.3477C357.882 21.4251 357.981 21.4639 358.081 21.4639C358.358 21.4639 358.601 21.5635 358.812 21.7627C359.033 21.9619 359.144 22.1999 359.144 22.4766V24.1201C359.144 24.3968 359.033 24.6348 358.812 24.834C358.601 25.0332 358.358 25.1328 358.081 25.1328H351.241C350.965 25.1328 350.749 25.0332 350.594 24.834C350.439 24.6348 350.361 24.3968 350.361 24.1201V22.4766C350.361 22.1999 350.439 21.9619 350.594 21.7627C350.749 21.5635 350.965 21.4639 351.241 21.4639C351.518 21.4639 351.678 21.3145 351.723 21.0156C353.383 10.0807 354.213 4.58008 354.213 4.51367C354.213 4.18164 354.08 4.01562 353.814 4.01562C353.549 4.01562 353.344 3.92155 353.2 3.7334C353.056 3.53418 352.984 3.29622 352.984 3.01953V2.33887C352.984 2.06217 353.062 1.82975 353.217 1.6416C353.372 1.44238 353.582 1.34277 353.848 1.34277H355.906C356.438 1.34277 356.853 1.37598 357.151 1.44238C357.461 1.49772 357.732 1.66374 357.965 1.94043C358.197 2.21712 358.452 2.6543 358.729 3.25195L362.082 10.5234L365.436 3.25195C365.712 2.6543 365.961 2.21712 366.183 1.94043C366.415 1.66374 366.681 1.49772 366.979 1.44238C367.289 1.37598 367.71 1.34277 368.241 1.34277H370.3C370.576 1.34277 370.787 1.44238 370.931 1.6416C371.086 1.82975 371.163 2.06217 371.163 2.33887V3.01953C371.163 3.29622 371.091 3.53418 370.947 3.7334C370.803 3.92155 370.599 4.01562 370.333 4.01562C370.067 4.01562 369.935 4.18164 369.935 4.51367C369.935 4.58008 370.77 10.0752 372.441 20.999C372.486 21.3089 372.646 21.4639 372.923 21.4639C373.2 21.4639 373.415 21.5635 373.57 21.7627C373.725 21.9619 373.803 22.1999 373.803 22.4766V24.1201C373.803 24.3968 373.725 24.6348 373.57 24.834C373.415 25.0332 373.2 25.1328 372.923 25.1328ZM388.578 25.1328H376.144C375.867 25.1328 375.634 25.0332 375.446 24.834C375.269 24.6348 375.181 24.3968 375.181 24.1201V22.4766C375.181 22.1999 375.269 21.9619 375.446 21.7627C375.634 21.5635 375.867 21.4639 376.144 21.4639C376.254 21.4639 376.321 21.3145 376.343 21.0156C377.007 10.457 377.339 5.00618 377.339 4.66309C377.339 4.23145 377.201 4.01562 376.924 4.01562C376.647 4.01562 376.42 3.92155 376.243 3.7334C376.066 3.53418 375.978 3.29622 375.978 3.01953V2.33887C375.978 2.06217 376.077 1.82975 376.276 1.6416C376.476 1.44238 376.708 1.34277 376.974 1.34277H387.964C388.241 1.34277 388.467 1.44238 388.645 1.6416C388.833 1.82975 388.927 2.06217 388.927 2.33887V4.7627C388.927 4.98405 388.866 5.18327 388.744 5.36035C388.622 5.53743 388.423 5.62598 388.146 5.62598C387.792 5.62598 387.067 5.44889 385.972 5.09473C384.422 4.58561 383.326 4.33105 382.685 4.33105C382.109 4.33105 381.821 4.53027 381.821 4.92871C381.821 5.2054 381.954 7.47428 382.22 11.7354H386.188C386.464 11.7354 386.691 11.835 386.868 12.0342C387.056 12.2334 387.15 12.4658 387.15 12.7314V13.7275C387.15 14.0042 387.056 14.2422 386.868 14.4414C386.691 14.6296 386.464 14.7236 386.188 14.7236H382.402L382.784 20.9492C382.795 21.1374 382.895 21.2314 383.083 21.2314C383.825 21.2314 384.5 21.1429 385.108 20.9658C385.728 20.7777 386.298 20.5785 386.818 20.3682C387.682 20.0029 388.329 19.8203 388.761 19.8203C389.037 19.8203 389.237 19.9089 389.358 20.0859C389.48 20.263 389.541 20.4678 389.541 20.7002V24.1201C389.541 24.3968 389.447 24.6348 389.259 24.834C389.082 25.0332 388.855 25.1328 388.578 25.1328ZM408.334 25.1328H401.478C401.201 25.1328 400.968 25.0332 400.78 24.834C400.603 24.6348 400.515 24.3968 400.515 24.1201V22.4766C400.515 22.1999 400.603 21.9619 400.78 21.7627C400.968 21.5635 401.201 21.4639 401.478 21.4639C401.522 21.4639 401.561 21.4417 401.594 21.3975L398.008 7.41895L398.838 21.0156C398.86 21.3145 398.926 21.4639 399.037 21.4639C399.314 21.4639 399.541 21.5635 399.718 21.7627C399.906 21.9619 400 22.1999 400 22.4766V24.1201C400 24.3968 399.906 24.6348 399.718 24.834C399.541 25.0332 399.314 25.1328 399.037 25.1328H392.181C391.904 25.1328 391.672 25.0332 391.483 24.834C391.306 24.6348 391.218 24.3968 391.218 24.1201V22.4766C391.218 22.1999 391.306 21.9619 391.483 21.7627C391.672 21.5635 391.904 21.4639 392.181 21.4639C392.302 21.4639 392.374 21.3145 392.396 21.0156C393.049 10.3464 393.376 4.88997 393.376 4.64648C393.376 4.22591 393.238 4.01562 392.961 4.01562C392.684 4.01562 392.457 3.92155 392.28 3.7334C392.103 3.53418 392.015 3.29622 392.015 3.01953V2.33887C392.015 2.06217 392.114 1.82975 392.313 1.6416C392.513 1.44238 392.751 1.34277 393.027 1.34277H398.572C399.104 1.34277 399.436 1.5918 399.568 2.08984L402.208 12.416C402.518 7.38021 402.673 4.7959 402.673 4.66309C402.673 4.23145 402.535 4.01562 402.258 4.01562C401.981 4.01562 401.754 3.92155 401.577 3.7334C401.4 3.53418 401.312 3.29622 401.312 3.01953V2.33887C401.312 2.06217 401.411 1.82975 401.61 1.6416C401.81 1.44238 402.042 1.34277 402.308 1.34277H407.487C407.764 1.34277 408.002 1.44238 408.201 1.6416C408.4 1.82975 408.5 2.06217 408.5 2.33887V3.01953C408.5 3.29622 408.411 3.53418 408.234 3.7334C408.057 3.92155 407.83 4.01562 407.554 4.01562C407.277 4.01562 407.139 4.23145 407.139 4.66309C407.139 4.85124 407.465 10.3021 408.118 21.0156C408.14 21.3145 408.212 21.4639 408.334 21.4639C408.611 21.4639 408.838 21.5635 409.015 21.7627C409.203 21.9619 409.297 22.1999 409.297 22.4766V24.1201C409.297 24.3968 409.203 24.6348 409.015 24.834C408.838 25.0332 408.611 25.1328 408.334 25.1328ZM418.793 25.1328H411.937C411.66 25.1328 411.427 25.0332 411.239 24.834C411.062 24.6348 410.974 24.3968 410.974 24.1201V22.46C410.974 22.1833 411.062 21.9453 411.239 21.7461C411.427 21.5469 411.66 21.4473 411.937 21.4473C412.047 21.4473 412.114 21.2979 412.136 20.999C412.8 10.3408 413.132 4.89551 413.132 4.66309C413.132 4.23145 412.988 4.01562 412.7 4.01562C412.424 4.01562 412.197 3.92155 412.02 3.7334C411.854 3.53418 411.771 3.29622 411.771 3.01953V2.33887C411.771 2.06217 411.865 1.82975 412.053 1.6416C412.252 1.44238 412.49 1.34277 412.767 1.34277H417.598C418.937 1.34277 420.132 1.60286 421.184 2.12305C422.235 2.63216 423.148 3.33496 423.923 4.23145C424.698 5.12793 425.334 6.15723 425.832 7.31934C426.33 8.47038 426.701 9.69889 426.944 11.0049C427.188 12.2998 427.31 13.6003 427.31 14.9062C427.31 16.9648 427.033 18.7633 426.479 20.3018C425.926 21.8291 425.024 23.0189 423.773 23.8711C422.534 24.7122 420.874 25.1328 418.793 25.1328ZM418.793 21.4473C419.811 21.4473 420.636 20.8219 421.267 19.5713C421.909 18.3206 422.229 16.4225 422.229 13.877C422.229 11.265 421.814 8.99609 420.984 7.07031C420.099 5.03385 418.97 4.01562 417.598 4.01562C417.598 4.4362 417.924 10.0973 418.577 20.999C418.599 21.2979 418.671 21.4473 418.793 21.4473ZM445.156 25.1328H438.3C438.023 25.1328 437.791 25.0332 437.603 24.834C437.425 24.6348 437.337 24.3968 437.337 24.1201V22.46C437.337 22.1833 437.425 21.9453 437.603 21.7461C437.791 21.5469 438.023 21.4473 438.3 21.4473C438.41 21.4473 438.477 21.2979 438.499 20.999C439.163 10.3851 439.495 4.93978 439.495 4.66309C439.495 4.23145 439.351 4.01562 439.063 4.01562C438.787 4.01562 438.56 3.92155 438.383 3.7334C438.217 3.53418 438.134 3.29622 438.134 3.01953V2.33887C438.134 2.06217 438.228 1.82975 438.416 1.6416C438.615 1.44238 438.853 1.34277 439.13 1.34277H450.12C450.397 1.34277 450.624 1.44238 450.801 1.6416C450.989 1.82975 451.083 2.06217 451.083 2.33887V4.7627C451.083 4.98405 451.017 5.18327 450.884 5.36035C450.762 5.53743 450.568 5.62598 450.303 5.62598C449.949 5.62598 449.224 5.44889 448.128 5.09473C446.545 4.58561 445.45 4.33105 444.841 4.33105C444.265 4.33105 443.978 4.53027 443.978 4.92871C443.978 5.26074 444.11 7.52962 444.376 11.7354H448.344C448.62 11.7354 448.847 11.835 449.024 12.0342C449.213 12.2334 449.307 12.4658 449.307 12.7314V13.7275C449.307 14.0042 449.213 14.2422 449.024 14.4414C448.847 14.6296 448.62 14.7236 448.344 14.7236H444.559L444.94 20.999C444.963 21.2979 445.035 21.4473 445.156 21.4473C445.433 21.4473 445.66 21.5469 445.837 21.7461C446.025 21.9453 446.119 22.1833 446.119 22.46V24.1201C446.119 24.3968 446.025 24.6348 445.837 24.834C445.66 25.0332 445.433 25.1328 445.156 25.1328ZM458.902 12.2666C459.323 12.167 459.699 12.0065 460.031 11.7852C460.662 11.3867 461.149 10.8721 461.492 10.2412C461.835 9.59928 462.018 9.06803 462.04 8.64746C462.073 8.22689 462.09 7.95573 462.09 7.83398C462.09 7.25846 461.985 6.71061 461.774 6.19043C461.52 5.5485 461.116 5.02832 460.562 4.62988C460.009 4.22038 459.306 4.01562 458.454 4.01562L458.902 12.2666ZM468.216 25.1328H462.322C462.046 25.1328 461.813 25.0332 461.625 24.834C461.448 24.6348 461.359 24.3968 461.359 24.1201V22.4766C461.359 22.1999 461.448 21.9619 461.625 21.7627C461.813 21.5635 462.046 21.4639 462.322 21.4639C462.466 21.4639 462.538 21.3145 462.538 21.0156C462.538 20.2188 462.372 19.4993 462.04 18.8574C461.498 17.806 460.546 17.1475 459.185 16.8818L459.45 20.999C459.472 21.2979 459.544 21.4473 459.666 21.4473C459.932 21.4473 460.159 21.5469 460.347 21.7461C460.535 21.9453 460.629 22.1833 460.629 22.46V24.1201C460.629 24.3968 460.535 24.6348 460.347 24.834C460.159 25.0332 459.932 25.1328 459.666 25.1328H452.81C452.533 25.1328 452.3 25.0332 452.112 24.834C451.935 24.6348 451.847 24.3968 451.847 24.1201V22.46C451.847 22.1833 451.935 21.9453 452.112 21.7461C452.3 21.5469 452.533 21.4473 452.81 21.4473C452.92 21.4473 452.987 21.2979 453.009 20.999C453.673 10.3519 454.005 4.90658 454.005 4.66309C454.005 4.23145 453.861 4.01562 453.573 4.01562C453.297 4.01562 453.07 3.92155 452.893 3.7334C452.727 3.53418 452.644 3.29622 452.644 3.01953V2.33887C452.644 2.06217 452.738 1.82975 452.926 1.6416C453.125 1.44238 453.363 1.34277 453.64 1.34277H458.454C460.07 1.34277 461.448 1.5918 462.588 2.08984C463.728 2.58789 464.624 3.24642 465.277 4.06543C465.941 4.87337 466.34 5.62044 466.473 6.30664C466.605 6.99284 466.672 7.54069 466.672 7.9502C466.672 9.58822 466.08 11.0547 464.896 12.3496C464.453 12.8366 463.927 13.2682 463.318 13.6445C464.248 14.0762 465.045 14.6406 465.709 15.3379C467.159 16.8542 467.934 18.7467 468.033 21.0156C468.044 21.3145 468.105 21.4639 468.216 21.4639C468.493 21.4639 468.719 21.5635 468.896 21.7627C469.085 21.9619 469.179 22.1999 469.179 22.4766V24.1201C469.179 24.3968 469.085 24.6348 468.896 24.834C468.719 25.0332 468.493 25.1328 468.216 25.1328ZM477.463 25.6641C474.862 25.6641 472.881 24.6292 471.52 22.5596C470.291 20.6891 469.677 18.2985 469.677 15.3877C469.677 13.3955 469.865 11.5195 470.241 9.75977C470.629 7.98893 471.165 6.43945 471.852 5.11133C472.549 3.77214 473.373 2.7207 474.325 1.95703C475.277 1.19336 476.323 0.811523 477.463 0.811523C478.603 0.811523 479.643 1.19336 480.584 1.95703C481.536 2.7207 482.355 3.77214 483.041 5.11133C483.738 6.43945 484.275 7.98893 484.651 9.75977C485.039 11.5195 485.232 13.3955 485.232 15.3877C485.232 18.2985 484.618 20.6891 483.39 22.5596C482.028 24.6292 480.053 25.6641 477.463 25.6641ZM477.463 21.9951C478.072 21.9951 478.575 21.6631 478.974 20.999C479.759 19.6598 480.152 17.3965 480.152 14.209C480.152 11.7077 479.92 9.42773 479.455 7.36914C478.902 4.97852 478.238 3.7832 477.463 3.7832C476.677 3.7832 476.013 4.97852 475.471 7.36914C474.995 9.49414 474.757 11.7741 474.757 14.209C474.757 15.7585 474.868 17.1475 475.089 18.376C475.509 20.7887 476.301 21.9951 477.463 21.9951ZM508.226 25.1328H501.369C501.092 25.1328 500.849 25.0332 500.639 24.834C500.428 24.6348 500.323 24.3968 500.323 24.1201V22.4766C500.323 22.1999 500.428 21.9619 500.639 21.7627C500.849 21.5635 501.092 21.4639 501.369 21.4639C501.469 21.4639 501.568 21.4251 501.668 21.3477C501.768 21.2702 501.817 21.1595 501.817 21.0156C501.817 20.8607 501.524 17.0866 500.938 9.69336L499.211 15.5371C499.1 15.9245 498.912 16.1735 498.646 16.2842C498.381 16.3838 497.96 16.4336 497.385 16.4336C496.798 16.4336 496.372 16.3838 496.106 16.2842C495.841 16.1735 495.653 15.9245 495.542 15.5371L493.815 9.69336C493.229 17.0645 492.936 20.8385 492.936 21.0156C492.936 21.1595 492.985 21.2702 493.085 21.3477C493.185 21.4251 493.284 21.4639 493.384 21.4639C493.66 21.4639 493.904 21.5635 494.114 21.7627C494.336 21.9619 494.446 22.1999 494.446 22.4766V24.1201C494.446 24.3968 494.336 24.6348 494.114 24.834C493.904 25.0332 493.66 25.1328 493.384 25.1328H486.544C486.267 25.1328 486.051 25.0332 485.896 24.834C485.742 24.6348 485.664 24.3968 485.664 24.1201V22.4766C485.664 22.1999 485.742 21.9619 485.896 21.7627C486.051 21.5635 486.267 21.4639 486.544 21.4639C486.821 21.4639 486.981 21.3145 487.025 21.0156C488.686 10.0807 489.516 4.58008 489.516 4.51367C489.516 4.18164 489.383 4.01562 489.117 4.01562C488.852 4.01562 488.647 3.92155 488.503 3.7334C488.359 3.53418 488.287 3.29622 488.287 3.01953V2.33887C488.287 2.06217 488.365 1.82975 488.52 1.6416C488.674 1.44238 488.885 1.34277 489.15 1.34277H491.209C491.74 1.34277 492.155 1.37598 492.454 1.44238C492.764 1.49772 493.035 1.66374 493.268 1.94043C493.5 2.21712 493.755 2.6543 494.031 3.25195L497.385 10.5234L500.738 3.25195C501.015 2.6543 501.264 2.21712 501.485 1.94043C501.718 1.66374 501.983 1.49772 502.282 1.44238C502.592 1.37598 503.013 1.34277 503.544 1.34277H505.603C505.879 1.34277 506.09 1.44238 506.233 1.6416C506.388 1.82975 506.466 2.06217 506.466 2.33887V3.01953C506.466 3.29622 506.394 3.53418 506.25 3.7334C506.106 3.92155 505.901 4.01562 505.636 4.01562C505.37 4.01562 505.237 4.18164 505.237 4.51367C505.237 4.58008 506.073 10.0752 507.744 20.999C507.788 21.3089 507.949 21.4639 508.226 21.4639C508.502 21.4639 508.718 21.5635 508.873 21.7627C509.028 21.9619 509.105 22.1999 509.105 22.4766V24.1201C509.105 24.3968 509.028 24.6348 508.873 24.834C508.718 25.0332 508.502 25.1328 508.226 25.1328ZM526.703 25.6641C523.925 25.6641 521.927 24.7565 520.71 22.9414C519.67 21.4141 519.149 19.2282 519.149 16.3838C519.149 13.6833 519.653 10.0697 520.66 5.54297C520.771 5.05599 520.826 4.73503 520.826 4.58008C520.826 4.20378 520.677 4.01562 520.378 4.01562C520.09 4.01562 519.858 3.92155 519.681 3.7334C519.515 3.53418 519.432 3.29622 519.432 3.01953V2.33887C519.432 2.06217 519.526 1.82975 519.714 1.6416C519.913 1.44238 520.151 1.34277 520.428 1.34277H524.927C525.192 1.34277 525.425 1.44238 525.624 1.6416C525.823 1.82975 525.923 2.06217 525.923 2.33887V3.01953C525.923 3.29622 525.834 3.53418 525.657 3.7334C525.48 3.92155 525.253 4.01562 524.977 4.01562C524.822 4.01562 524.722 4.0765 524.678 4.19824C524.645 4.31999 524.611 4.54134 524.578 4.8623C524.257 7.47428 524.097 10.4847 524.097 13.8936C524.097 16.2399 524.279 18.1159 524.645 19.5215C525.076 21.1706 525.762 21.9951 526.703 21.9951C527.633 21.9951 528.313 21.1706 528.745 19.5215C529.11 18.1159 529.293 16.2399 529.293 13.8936C529.293 12.0674 529.238 10.3187 529.127 8.64746C529.016 6.96517 528.911 5.70345 528.812 4.8623C528.778 4.54134 528.74 4.31999 528.695 4.19824C528.662 4.0765 528.568 4.01562 528.413 4.01562C528.136 4.01562 527.91 3.92155 527.732 3.7334C527.555 3.53418 527.467 3.29622 527.467 3.01953V2.33887C527.467 2.06217 527.566 1.82975 527.766 1.6416C527.965 1.44238 528.197 1.34277 528.463 1.34277H532.962C533.239 1.34277 533.471 1.44238 533.659 1.6416C533.858 1.82975 533.958 2.06217 533.958 2.33887V3.01953C533.958 3.29622 533.869 3.53418 533.692 3.7334C533.526 3.92155 533.294 4.01562 532.995 4.01562C532.707 4.01562 532.563 4.20378 532.563 4.58008C532.563 4.73503 532.619 5.05599 532.729 5.54297C533.737 10.0697 534.24 13.6833 534.24 16.3838C534.24 19.2282 533.726 21.4141 532.696 22.9414C531.468 24.7565 529.47 25.6641 526.703 25.6641ZM543.404 25.6807C541.467 25.6807 539.868 25.1494 538.606 24.0869C537.345 23.0244 536.47 21.5745 535.983 19.7373C535.939 19.5934 535.917 19.4606 535.917 19.3389C535.917 19.1839 535.972 19.029 536.083 18.874C536.194 18.708 536.487 18.5475 536.963 18.3926C537.439 18.2376 537.909 18.0827 538.374 17.9277C538.684 17.8281 538.944 17.7783 539.154 17.7783C539.287 17.7783 539.437 17.8171 539.603 17.8945C539.769 17.972 539.907 18.2266 540.018 18.6582C540.272 19.6211 540.66 20.418 541.18 21.0488C541.711 21.6686 542.281 21.9785 542.89 21.9785C543.709 21.9785 544.312 21.6797 544.699 21.082C545.098 20.4733 545.297 19.7041 545.297 18.7744C545.297 17.8447 544.926 17.0091 544.185 16.2676C543.476 15.5814 542.63 14.8952 541.645 14.209C540.007 13.0801 538.806 12.0674 538.042 11.1709C536.891 9.82064 536.315 8.25456 536.315 6.47266C536.315 5.27734 536.631 4.25358 537.262 3.40137C537.893 2.54915 538.717 1.89616 539.735 1.44238C540.754 0.988607 541.844 0.761719 543.006 0.761719C544.921 0.761719 546.431 1.2321 547.538 2.17285C548.656 3.11361 549.519 4.52474 550.128 6.40625C550.183 6.5944 550.211 6.76595 550.211 6.9209C550.211 6.9873 550.194 7.09245 550.161 7.23633C550.139 7.36914 549.956 7.47982 549.613 7.56836C547.931 8.02214 547.023 8.24902 546.891 8.24902C546.747 8.24902 546.592 8.21582 546.426 8.14941C546.271 8.07194 546.138 7.82292 546.027 7.40234C545.717 6.20703 545.336 5.28841 544.882 4.64648C544.428 3.99349 543.853 3.66699 543.155 3.66699C542.447 3.66699 541.888 3.90495 541.479 4.38086C541.069 4.8457 540.864 5.42676 540.864 6.12402C540.864 6.58887 541.019 7.02604 541.329 7.43555C541.639 7.84505 542.049 8.24902 542.558 8.64746C543.078 9.0459 543.653 9.4554 544.284 9.87598C545.258 10.5179 546.232 11.2484 547.206 12.0674C548.18 12.8864 548.993 13.8714 549.646 15.0225C550.299 16.1735 550.626 17.557 550.626 19.1729C550.626 20.4235 550.349 21.5358 549.796 22.5098C549.254 23.4837 548.451 24.2585 547.389 24.834C546.326 25.3984 544.998 25.6807 543.404 25.6807ZM556.619 25.1162C555.977 25.1162 555.424 24.8893 554.959 24.4355C554.505 23.9818 554.278 23.4284 554.278 22.7754C554.278 22.1335 554.505 21.5856 554.959 21.1318C555.424 20.6781 555.977 20.4512 556.619 20.4512C557.261 20.4512 557.809 20.6781 558.263 21.1318C558.728 21.5856 558.96 22.1335 558.96 22.7754C558.96 23.4284 558.728 23.9818 558.263 24.4355C557.809 24.8893 557.261 25.1162 556.619 25.1162ZM559.209 19.5381H554.029C553.753 19.5381 553.515 19.444 553.315 19.2559C553.127 19.0566 553.033 18.8187 553.033 18.542V17.8613C553.033 17.5846 553.116 17.3467 553.282 17.1475C553.459 16.9482 553.686 16.8486 553.963 16.8486C554.251 16.8486 554.395 16.6383 554.395 16.2178C554.395 16.0186 554.068 12.2334 553.415 4.8623C553.382 4.55241 553.31 4.39746 553.199 4.39746C552.923 4.39746 552.69 4.30339 552.502 4.11523C552.325 3.91602 552.236 3.67806 552.236 3.40137V1.74121C552.236 1.47559 552.325 1.24316 552.502 1.04395C552.69 0.844727 552.923 0.745117 553.199 0.745117H560.039C560.316 0.745117 560.548 0.844727 560.736 1.04395C560.924 1.24316 561.019 1.47559 561.019 1.74121V3.40137C561.019 3.67806 560.924 3.91602 560.736 4.11523C560.548 4.30339 560.316 4.39746 560.039 4.39746C559.928 4.39746 559.862 4.55241 559.84 4.8623C559.176 12.2555 558.844 16.0296 558.844 16.1846C558.844 16.6273 558.982 16.8486 559.259 16.8486C559.547 16.8486 559.773 16.9482 559.939 17.1475C560.117 17.3467 560.205 17.5846 560.205 17.8613V18.542C560.205 18.8187 560.105 19.0566 559.906 19.2559C559.718 19.444 559.486 19.5381 559.209 19.5381Z" fill="#043904"/>
</svg>
