<svg width="758" height="81" viewBox="0 0 758 81" fill="none" xmlns="http://www.w3.org/2000/svg">
<path d="M25.3677 80.1289C16.2489 80.1289 9.64925 76.6517 5.56885 69.6973C2.12712 63.8428 0.40625 55.9481 0.40625 46.0132C0.40625 41.7554 0.707845 37.4621 1.31104 33.1333C1.91423 28.769 2.87223 24.6354 4.18506 20.7324C5.49788 16.8294 7.18327 13.3522 9.24121 10.3008C11.3346 7.24935 13.8538 4.83659 16.7988 3.0625C19.7793 1.25293 23.2033 0.348145 27.0708 0.348145C30.3351 0.348145 33.2446 1.09326 35.7993 2.5835C38.354 4.03825 40.5894 6.11393 42.5054 8.81055C44.4569 11.5072 46.16 14.7005 47.6147 18.3906C47.8631 18.9583 47.9873 19.4906 47.9873 19.9873C47.9873 21.0518 47.3309 21.7614 46.0181 22.1162C40.5894 23.571 37.6621 24.2983 37.2363 24.2983C36.8105 24.2983 36.4202 24.2274 36.0654 24.0854C35.3913 23.7661 34.859 22.9323 34.4688 21.584C32.2334 13.5296 29.7674 9.50244 27.0708 9.50244C24.3387 9.50244 21.9969 13.6538 20.0454 21.9565C18.3778 29.1239 17.5439 36.8411 17.5439 45.1084C17.5439 49.3307 17.881 53.2337 18.5552 56.8174C20.0099 64.4814 22.6888 68.3135 26.5918 68.3135C28.5788 68.3135 30.3529 67.32 31.9141 65.333C33.4753 63.3105 34.6639 60.7559 35.48 57.6689C35.8348 56.2852 36.2783 55.4691 36.8105 55.2207C37.3428 54.9723 37.8218 54.8481 38.2476 54.8481C38.9217 54.8481 39.7555 55.0078 40.749 55.3271C42.2747 55.8239 43.7827 56.3206 45.2729 56.8174C46.7987 57.3141 47.7389 57.8286 48.0938 58.3608C48.4486 58.8576 48.626 59.3543 48.626 59.8511C48.626 60.2414 48.5728 60.6672 48.4663 61.1284C47.4373 64.8895 45.8939 68.1893 43.8359 71.0278C41.778 73.8664 39.2056 76.1017 36.1187 77.7339C33.0317 79.3306 29.4481 80.1289 25.3677 80.1289ZM106.266 78.4258H84.2852C83.3981 78.4258 82.653 78.1064 82.0498 77.4678C81.4821 76.8291 81.1982 76.0662 81.1982 75.1792V69.9102C81.1982 69.0231 81.4821 68.2603 82.0498 67.6216C82.653 66.9829 83.3981 66.6636 84.2852 66.6636C84.64 66.6636 84.8529 66.1846 84.9238 65.2266L86.2012 45.0552H74.5454L75.7695 65.2266C75.8405 66.1846 76.0711 66.6636 76.4614 66.6636C77.3485 66.6636 78.0758 66.9829 78.6436 67.6216C79.2467 68.2603 79.5483 69.0231 79.5483 69.9102V75.1792C79.5483 76.0662 79.2467 76.8291 78.6436 77.4678C78.0758 78.1064 77.3485 78.4258 76.4614 78.4258H54.4805C53.5934 78.4258 52.8483 78.1064 52.2451 77.4678C51.6774 76.8291 51.3936 76.0662 51.3936 75.1792V69.9102C51.3936 69.0231 51.6774 68.2603 52.2451 67.6216C52.8483 66.9829 53.5934 66.6636 54.4805 66.6636C54.8353 66.6636 55.0482 66.1846 55.1191 65.2266C57.248 30.9157 58.3125 13.4409 58.3125 12.8022C58.3125 11.4185 57.869 10.7266 56.9819 10.7266C56.0949 10.7266 55.3675 10.425 54.7998 9.82178C54.2321 9.18311 53.9482 8.42025 53.9482 7.5332V5.35107C53.9482 4.46403 54.2676 3.71891 54.9062 3.11572C55.5449 2.47705 56.29 2.15771 57.1416 2.15771H73.7471C74.6341 2.15771 75.397 2.47705 76.0356 3.11572C76.6743 3.71891 76.9937 4.46403 76.9937 5.35107V7.5332C76.9937 8.42025 76.7098 9.18311 76.1421 9.82178C75.5744 10.425 74.847 10.7266 73.96 10.7266C73.0729 10.7266 72.6294 11.4007 72.6294 12.749C72.6294 13.4587 73.0729 21.034 73.96 35.4751H86.7866C87.6737 21.105 88.1172 13.5474 88.1172 12.8022C88.1172 11.4185 87.6559 10.7266 86.7334 10.7266C85.8464 10.7266 85.119 10.425 84.5513 9.82178C84.019 9.18311 83.7529 8.42025 83.7529 7.5332V5.35107C83.7529 4.46403 84.0545 3.71891 84.6577 3.11572C85.2964 2.47705 86.0592 2.15771 86.9463 2.15771H103.552C104.439 2.15771 105.202 2.47705 105.84 3.11572C106.479 3.71891 106.798 4.46403 106.798 5.35107V7.5332C106.798 8.42025 106.514 9.18311 105.947 9.82178C105.379 10.425 104.652 10.7266 103.765 10.7266C102.878 10.7266 102.434 11.4007 102.434 12.749C102.434 13.4941 103.481 30.9867 105.574 65.2266C105.645 66.1846 105.876 66.6636 106.266 66.6636C107.153 66.6636 107.881 66.9829 108.448 67.6216C109.051 68.2603 109.353 69.0231 109.353 69.9102V75.1792C109.353 76.0662 109.051 76.8291 108.448 77.4678C107.881 78.1064 107.153 78.4258 106.266 78.4258ZM139.051 80.1289C130.713 80.1289 124.362 76.8114 119.998 70.1763C116.059 64.1799 114.09 56.5158 114.09 47.1841C114.09 40.7974 114.693 34.7832 115.899 29.1416C117.141 23.4645 118.862 18.4971 121.062 14.2393C123.297 9.94596 125.941 6.5752 128.992 4.12695C132.044 1.67871 135.397 0.45459 139.051 0.45459C142.706 0.45459 146.041 1.67871 149.057 4.12695C152.109 6.5752 154.734 9.94596 156.934 14.2393C159.169 18.4971 160.89 23.4645 162.097 29.1416C163.339 34.7832 163.959 40.7974 163.959 47.1841C163.959 56.5158 161.99 64.1799 158.052 70.1763C153.688 76.8114 147.354 80.1289 139.051 80.1289ZM139.051 68.3667C141.003 68.3667 142.617 67.3022 143.895 65.1733C146.414 60.88 147.673 53.624 147.673 43.4053C147.673 35.3864 146.928 28.0771 145.438 21.4775C143.664 13.8135 141.535 9.98145 139.051 9.98145C136.532 9.98145 134.403 13.8135 132.665 21.4775C131.139 28.29 130.376 35.5993 130.376 43.4053C130.376 48.3727 130.731 52.8257 131.44 56.7642C132.789 64.4992 135.326 68.3667 139.051 68.3667ZM196.106 80.1289C187.768 80.1289 181.417 76.8114 177.052 70.1763C173.114 64.1799 171.145 56.5158 171.145 47.1841C171.145 40.7974 171.748 34.7832 172.954 29.1416C174.196 23.4645 175.917 18.4971 178.117 14.2393C180.352 9.94596 182.995 6.5752 186.047 4.12695C189.098 1.67871 192.451 0.45459 196.106 0.45459C199.761 0.45459 203.096 1.67871 206.112 4.12695C209.163 6.5752 211.789 9.94596 213.989 14.2393C216.224 18.4971 217.945 23.4645 219.151 29.1416C220.393 34.7832 221.014 40.7974 221.014 47.1841C221.014 56.5158 219.045 64.1799 215.106 70.1763C210.742 76.8114 204.409 80.1289 196.106 80.1289ZM196.106 68.3667C198.057 68.3667 199.672 67.3022 200.949 65.1733C203.468 60.88 204.728 53.624 204.728 43.4053C204.728 35.3864 203.983 28.0771 202.493 21.4775C200.719 13.8135 198.59 9.98145 196.106 9.98145C193.587 9.98145 191.458 13.8135 189.719 21.4775C188.194 28.29 187.431 35.5993 187.431 43.4053C187.431 48.3727 187.785 52.8257 188.495 56.7642C189.843 64.4992 192.38 68.3667 196.106 68.3667ZM249.542 80.1821C243.332 80.1821 238.205 78.479 234.16 75.0728C230.115 71.6665 227.312 67.0184 225.751 61.1284C225.609 60.6672 225.538 60.2414 225.538 59.8511C225.538 59.3543 225.715 58.8576 226.07 58.3608C226.425 57.8286 227.365 57.3141 228.891 56.8174C230.417 56.3206 231.925 55.8239 233.415 55.3271C234.409 55.0078 235.242 54.8481 235.917 54.8481C236.342 54.8481 236.821 54.9723 237.354 55.2207C237.886 55.4691 238.329 56.2852 238.684 57.6689C239.5 60.7559 240.742 63.3105 242.41 65.333C244.113 67.32 245.94 68.3135 247.892 68.3135C250.517 68.3135 252.451 67.3555 253.693 65.4395C254.97 63.488 255.609 61.022 255.609 58.0415C255.609 55.061 254.42 52.3822 252.043 50.0049C249.772 47.805 247.058 45.6051 243.9 43.4053C238.649 39.7861 234.799 36.5396 232.351 33.6655C228.66 29.3368 226.815 24.3161 226.815 18.6035C226.815 14.7715 227.827 11.4894 229.849 8.75732C231.872 6.02523 234.515 3.9318 237.779 2.47705C241.044 1.0223 244.539 0.294922 248.264 0.294922C254.403 0.294922 259.246 1.8029 262.794 4.81885C266.378 7.8348 269.145 12.3587 271.097 18.3906C271.274 18.9938 271.363 19.5438 271.363 20.0405C271.363 20.2534 271.31 20.5905 271.203 21.0518C271.132 21.4775 270.547 21.8324 269.447 22.1162C264.054 23.571 261.144 24.2983 260.718 24.2983C260.257 24.2983 259.76 24.1919 259.228 23.979C258.731 23.7306 258.306 22.9323 257.951 21.584C256.957 17.752 255.733 14.807 254.278 12.749C252.824 10.6556 250.979 9.60889 248.743 9.60889C246.472 9.60889 244.681 10.3717 243.368 11.8975C242.055 13.3877 241.398 15.2505 241.398 17.4858C241.398 18.9761 241.895 20.3776 242.889 21.6904C243.882 23.0033 245.195 24.2983 246.827 25.5757C248.495 26.853 250.34 28.1659 252.362 29.5142C255.485 31.5721 258.607 33.9139 261.729 36.5396C264.852 39.1652 267.46 42.3231 269.553 46.0132C271.647 49.7033 272.693 54.1385 272.693 59.3188C272.693 63.3283 271.806 66.8942 270.032 70.0166C268.294 73.139 265.721 75.6227 262.315 77.4678C258.909 79.2773 254.651 80.1821 249.542 80.1821ZM319.902 78.4258H280.038C279.151 78.4258 278.406 78.1064 277.803 77.4678C277.235 76.8291 276.951 76.0662 276.951 75.1792V69.9102C276.951 69.0231 277.235 68.2603 277.803 67.6216C278.406 66.9829 279.151 66.6636 280.038 66.6636C280.393 66.6636 280.606 66.1846 280.677 65.2266C282.806 31.377 283.87 13.9022 283.87 12.8022C283.87 11.4185 283.427 10.7266 282.54 10.7266C281.653 10.7266 280.925 10.425 280.357 9.82178C279.79 9.18311 279.506 8.42025 279.506 7.5332V5.35107C279.506 4.46403 279.825 3.71891 280.464 3.11572C281.103 2.47705 281.848 2.15771 282.699 2.15771H317.933C318.82 2.15771 319.547 2.47705 320.115 3.11572C320.718 3.71891 321.02 4.46403 321.02 5.35107V13.1216C321.02 13.8312 320.824 14.4699 320.434 15.0376C320.044 15.6053 319.405 15.8892 318.518 15.8892C317.383 15.8892 315.059 15.3215 311.546 14.186C306.578 12.5539 303.066 11.7378 301.008 11.7378C299.163 11.7378 298.24 12.3765 298.24 13.6538C298.24 14.5409 298.666 21.8146 299.518 35.4751H312.238C313.125 35.4751 313.852 35.7944 314.42 36.4331C315.023 37.0718 315.325 37.8169 315.325 38.6685V41.8618C315.325 42.7489 315.023 43.5117 314.42 44.1504C313.852 44.7536 313.125 45.0552 312.238 45.0552H300.103L301.327 65.0137C301.363 65.6169 301.682 65.9185 302.285 65.9185C304.662 65.9185 306.827 65.6346 308.778 65.0669C310.765 64.4637 312.593 63.825 314.26 63.1509C317.028 61.98 319.104 61.3945 320.487 61.3945C321.374 61.3945 322.013 61.6784 322.403 62.2461C322.794 62.8138 322.989 63.4702 322.989 64.2153V75.1792C322.989 76.0662 322.687 76.8291 322.084 77.4678C321.516 78.1064 320.789 78.4258 319.902 78.4258ZM389.198 78.4258H367.27C366.383 78.4258 365.638 78.1064 365.035 77.4678C364.431 76.8291 364.13 76.0662 364.13 75.1792V69.9102C364.13 69.0231 364.431 68.2603 365.035 67.6216C365.638 66.9829 366.383 66.6636 367.27 66.6636C367.66 66.6636 367.891 66.1846 367.962 65.2266L369.505 39.2539L355.667 11.7378C355.313 11.0636 354.798 10.7266 354.124 10.7266C353.201 10.7266 352.474 10.425 351.942 9.82178C351.374 9.18311 351.09 8.42025 351.09 7.5332V5.35107C351.09 4.46403 351.41 3.71891 352.048 3.11572C352.687 2.47705 353.432 2.15771 354.284 2.15771H367.483C368.37 2.15771 369.115 2.47705 369.718 3.11572C370.357 3.71891 370.676 4.46403 370.676 5.35107V7.5332C370.676 8.42025 370.392 9.18311 369.825 9.82178C369.292 10.425 368.565 10.7266 367.643 10.7266C367.146 10.7266 366.897 10.9395 366.897 11.3652C366.897 11.862 367.252 12.6781 367.962 13.8135L376.903 28.29L385.366 13.8135C386.075 12.6781 386.43 11.862 386.43 11.3652C386.43 10.9395 386.182 10.7266 385.685 10.7266C384.727 10.7266 384 10.5492 383.503 10.1943C383.006 9.83952 382.758 8.95247 382.758 7.5332V5.35107C382.758 4.46403 383.077 3.71891 383.716 3.11572C384.354 2.47705 385.117 2.15771 386.004 2.15771H401.439C402.326 2.15771 403.089 2.47705 403.728 3.11572C404.366 3.71891 404.686 4.46403 404.686 5.35107V7.5332C404.686 8.42025 404.402 9.18311 403.834 9.82178C403.266 10.425 402.521 10.7266 401.599 10.7266C400.676 10.7266 399.736 11.7555 398.778 13.8135L386.962 39.2539L388.506 65.2266C388.541 66.1846 388.772 66.6636 389.198 66.6636C390.085 66.6636 390.812 66.9829 391.38 67.6216C391.983 68.2603 392.285 69.0231 392.285 69.9102V75.1792C392.285 76.0662 391.983 76.8291 391.38 77.4678C390.812 78.1064 390.085 78.4258 389.198 78.4258ZM426.773 80.1289C418.435 80.1289 412.083 76.8114 407.719 70.1763C403.781 64.1799 401.812 56.5158 401.812 47.1841C401.812 40.7974 402.415 34.7832 403.621 29.1416C404.863 23.4645 406.584 18.4971 408.784 14.2393C411.019 9.94596 413.662 6.5752 416.714 4.12695C419.765 1.67871 423.118 0.45459 426.773 0.45459C430.428 0.45459 433.763 1.67871 436.779 4.12695C439.83 6.5752 442.456 9.94596 444.656 14.2393C446.891 18.4971 448.612 23.4645 449.818 29.1416C451.06 34.7832 451.681 40.7974 451.681 47.1841C451.681 56.5158 449.712 64.1799 445.773 70.1763C441.409 76.8114 435.076 80.1289 426.773 80.1289ZM426.773 68.3667C428.724 68.3667 430.339 67.3022 431.616 65.1733C434.135 60.88 435.395 53.624 435.395 43.4053C435.395 35.3864 434.65 28.0771 433.16 21.4775C431.386 13.8135 429.257 9.98145 426.773 9.98145C424.254 9.98145 422.125 13.8135 420.386 21.4775C418.861 28.29 418.098 35.5993 418.098 43.4053C418.098 48.3727 418.452 52.8257 419.162 56.7642C420.51 64.4992 423.047 68.3667 426.773 68.3667ZM483.402 80.1289C474.496 80.1289 468.091 77.2194 464.188 71.4004C460.853 66.5039 459.186 59.4963 459.186 50.3774C459.186 41.7199 460.8 30.1351 464.029 15.623C464.384 14.0618 464.561 13.0329 464.561 12.5361C464.561 11.3298 464.082 10.7266 463.124 10.7266C462.201 10.7266 461.456 10.425 460.889 9.82178C460.356 9.18311 460.09 8.42025 460.09 7.5332V5.35107C460.09 4.46403 460.392 3.71891 460.995 3.11572C461.634 2.47705 462.397 2.15771 463.284 2.15771H477.707C478.559 2.15771 479.304 2.47705 479.942 3.11572C480.581 3.71891 480.9 4.46403 480.9 5.35107V7.5332C480.9 8.42025 480.617 9.18311 480.049 9.82178C479.481 10.425 478.754 10.7266 477.867 10.7266C477.37 10.7266 477.051 10.9217 476.909 11.312C476.802 11.7023 476.696 12.4119 476.589 13.4409C475.56 21.8146 475.046 31.4657 475.046 42.394C475.046 49.9162 475.631 55.9303 476.802 60.4365C478.186 65.7233 480.386 68.3667 483.402 68.3667C486.382 68.3667 488.564 65.7233 489.948 60.4365C491.119 55.9303 491.705 49.9162 491.705 42.394C491.705 36.5396 491.527 30.9334 491.172 25.5757C490.818 20.1825 490.48 16.1375 490.161 13.4409C490.055 12.4119 489.931 11.7023 489.789 11.312C489.682 10.9217 489.381 10.7266 488.884 10.7266C487.997 10.7266 487.269 10.425 486.702 9.82178C486.134 9.18311 485.85 8.42025 485.85 7.5332V5.35107C485.85 4.46403 486.169 3.71891 486.808 3.11572C487.447 2.47705 488.192 2.15771 489.043 2.15771H503.467C504.354 2.15771 505.099 2.47705 505.702 3.11572C506.341 3.71891 506.66 4.46403 506.66 5.35107V7.5332C506.66 8.42025 506.376 9.18311 505.809 9.82178C505.276 10.425 504.531 10.7266 503.573 10.7266C502.651 10.7266 502.189 11.3298 502.189 12.5361C502.189 13.0329 502.367 14.0618 502.722 15.623C505.951 30.1351 507.565 41.7199 507.565 50.3774C507.565 59.4963 505.915 66.5039 502.615 71.4004C498.677 77.2194 492.272 80.1289 483.402 80.1289ZM535.454 37.1782C536.802 36.8589 538.008 36.3444 539.073 35.6348C541.095 34.3574 542.656 32.7075 543.756 30.6851C544.856 28.6271 545.442 26.924 545.513 25.5757C545.619 24.2274 545.672 23.3581 545.672 22.9678C545.672 21.1227 545.335 19.3664 544.661 17.6987C543.845 15.6408 542.55 13.9731 540.776 12.6958C539.002 11.383 536.749 10.7266 534.017 10.7266L535.454 37.1782ZM565.312 78.4258H546.417C545.53 78.4258 544.785 78.1064 544.182 77.4678C543.614 76.8291 543.331 76.0662 543.331 75.1792V69.9102C543.331 69.0231 543.614 68.2603 544.182 67.6216C544.785 66.9829 545.53 66.6636 546.417 66.6636C546.879 66.6636 547.109 66.1846 547.109 65.2266C547.109 62.6719 546.577 60.3656 545.513 58.3076C543.774 54.9368 540.723 52.8257 536.358 51.9741L537.21 65.1733C537.281 66.1313 537.512 66.6104 537.902 66.6104C538.753 66.6104 539.481 66.9297 540.084 67.5684C540.687 68.207 540.989 68.9699 540.989 69.8569V75.1792C540.989 76.0662 540.687 76.8291 540.084 77.4678C539.481 78.1064 538.753 78.4258 537.902 78.4258H515.921C515.034 78.4258 514.289 78.1064 513.686 77.4678C513.118 76.8291 512.834 76.0662 512.834 75.1792V69.8569C512.834 68.9699 513.118 68.207 513.686 67.5684C514.289 66.9297 515.034 66.6104 515.921 66.6104C516.276 66.6104 516.489 66.1313 516.56 65.1733C518.688 31.0399 519.753 13.5828 519.753 12.8022C519.753 11.4185 519.292 10.7266 518.369 10.7266C517.482 10.7266 516.755 10.425 516.187 9.82178C515.655 9.18311 515.389 8.42025 515.389 7.5332V5.35107C515.389 4.46403 515.69 3.71891 516.293 3.11572C516.932 2.47705 517.695 2.15771 518.582 2.15771H534.017C539.197 2.15771 543.614 2.95605 547.269 4.55273C550.924 6.14941 553.798 8.26058 555.891 10.8862C558.02 13.4764 559.297 15.8714 559.723 18.0713C560.149 20.2712 560.362 22.0275 560.362 23.3403C560.362 28.5916 558.464 33.293 554.667 37.4443C553.248 39.0055 551.562 40.3893 549.611 41.5957C552.591 42.9795 555.146 44.7891 557.275 47.0244C561.923 51.8854 564.407 57.9528 564.726 65.2266C564.762 66.1846 564.957 66.6636 565.312 66.6636C566.199 66.6636 566.926 66.9829 567.494 67.6216C568.097 68.2603 568.398 69.0231 568.398 69.9102V75.1792C568.398 76.0662 568.097 76.8291 567.494 77.4678C566.926 78.1064 566.199 78.4258 565.312 78.4258ZM631.627 78.4258H609.646C608.794 78.4258 608.067 78.1064 607.464 77.4678C606.861 76.8291 606.559 76.0662 606.559 75.1792V69.9102C606.559 69.0231 606.861 68.2603 607.464 67.6216C608.067 66.9829 608.794 66.6636 609.646 66.6636C610.036 66.6636 610.267 66.1846 610.338 65.2266C612.396 30.6318 613.425 12.9797 613.425 12.27C613.425 11.8088 613.176 11.5781 612.68 11.5781C611.864 11.5781 610.001 12.2168 607.091 13.4941C603.437 15.0908 600.935 15.8892 599.587 15.8892C598.735 15.8892 598.097 15.6053 597.671 15.0376C597.281 14.4699 597.085 13.8312 597.085 13.1216V5.35107C597.085 4.46403 597.369 3.71891 597.937 3.11572C598.54 2.47705 599.285 2.15771 600.172 2.15771H641.101C641.988 2.15771 642.733 2.47705 643.336 3.11572C643.939 3.71891 644.241 4.46403 644.241 5.35107V13.1216C644.241 13.8312 644.028 14.4699 643.602 15.0376C643.212 15.6053 642.573 15.8892 641.686 15.8892C640.373 15.8892 637.925 15.0731 634.341 13.4409C631.645 12.2345 629.764 11.6313 628.7 11.6313C628.132 11.6313 627.848 11.9329 627.848 12.5361C627.848 13.0684 628.895 30.6318 630.988 65.2266C631.059 66.1846 631.272 66.6636 631.627 66.6636C632.514 66.6636 633.241 66.9829 633.809 67.6216C634.412 68.2603 634.714 69.0231 634.714 69.9102V75.1792C634.714 76.0662 634.412 76.8291 633.809 77.4678C633.241 78.1064 632.514 78.4258 631.627 78.4258ZM688.841 78.4258H648.978C648.09 78.4258 647.345 78.1064 646.742 77.4678C646.174 76.8291 645.891 76.0662 645.891 75.1792V69.9102C645.891 69.0231 646.174 68.2603 646.742 67.6216C647.345 66.9829 648.09 66.6636 648.978 66.6636C649.332 66.6636 649.545 66.1846 649.616 65.2266C651.745 31.377 652.81 13.9022 652.81 12.8022C652.81 11.4185 652.366 10.7266 651.479 10.7266C650.592 10.7266 649.865 10.425 649.297 9.82178C648.729 9.18311 648.445 8.42025 648.445 7.5332V5.35107C648.445 4.46403 648.765 3.71891 649.403 3.11572C650.042 2.47705 650.787 2.15771 651.639 2.15771H686.872C687.759 2.15771 688.486 2.47705 689.054 3.11572C689.657 3.71891 689.959 4.46403 689.959 5.35107V13.1216C689.959 13.8312 689.764 14.4699 689.374 15.0376C688.983 15.6053 688.345 15.8892 687.458 15.8892C686.322 15.8892 683.998 15.3215 680.485 14.186C675.518 12.5539 672.005 11.7378 669.947 11.7378C668.102 11.7378 667.18 12.3765 667.18 13.6538C667.18 14.5409 667.605 21.8146 668.457 35.4751H681.177C682.064 35.4751 682.792 35.7944 683.359 36.4331C683.963 37.0718 684.264 37.8169 684.264 38.6685V41.8618C684.264 42.7489 683.963 43.5117 683.359 44.1504C682.792 44.7536 682.064 45.0552 681.177 45.0552H669.042L670.267 65.0137C670.302 65.6169 670.621 65.9185 671.225 65.9185C673.602 65.9185 675.766 65.6346 677.718 65.0669C679.705 64.4637 681.532 63.825 683.2 63.1509C685.967 61.98 688.043 61.3945 689.427 61.3945C690.314 61.3945 690.952 61.6784 691.343 62.2461C691.733 62.8138 691.928 63.4702 691.928 64.2153V75.1792C691.928 76.0662 691.627 76.8291 691.023 77.4678C690.456 78.1064 689.728 78.4258 688.841 78.4258ZM754.625 78.4258H732.005C731.118 78.4258 730.461 78.1242 730.036 77.521C729.61 76.8823 729.397 76.1017 729.397 75.1792V69.8037C729.397 67.7103 730.266 66.6636 732.005 66.6636C732.502 66.6636 732.75 66.362 732.75 65.7588L729.982 45.0552H719.072C718.22 50.9097 717.493 55.682 716.89 59.3721C716.322 63.0622 716.038 65.1201 716.038 65.5459C716.038 66.291 716.34 66.6636 716.943 66.6636C717.794 66.6636 718.415 66.9829 718.806 67.6216C719.231 68.2248 719.444 68.9876 719.444 69.9102V75.1792C719.444 77.3436 718.611 78.4258 716.943 78.4258H700.816C699.823 78.4258 698.971 78.1419 698.262 77.5742C697.552 77.0065 697.197 76.2082 697.197 75.1792V69.9102C697.197 68.9876 697.534 68.2248 698.208 67.6216C698.918 66.9829 699.787 66.6636 700.816 66.6636C701.278 66.6636 701.597 66.2733 701.774 65.4927C709.545 29.9045 713.43 11.8975 713.43 11.4717C713.395 10.9749 713.111 10.7266 712.579 10.7266C711.656 10.7266 710.84 10.4427 710.13 9.875C709.456 9.27181 709.119 8.43799 709.119 7.37354V5.19141C709.119 3.16895 710.272 2.15771 712.579 2.15771H740.733C742.259 2.15771 743.022 3.22217 743.022 5.35107V7.5332C743.022 9.66211 742.259 10.7266 740.733 10.7266C740.166 10.7266 739.864 10.8862 739.829 11.2056C739.829 11.4894 739.829 11.6846 739.829 11.791C739.829 12.2523 744.246 30.0641 753.081 65.2266C753.329 66.1846 753.844 66.6636 754.625 66.6636C756.221 66.6636 757.02 67.7458 757.02 69.9102V75.1792C757.02 77.3436 756.221 78.4258 754.625 78.4258ZM728.705 35.4751C726.612 19.8631 725.494 11.8975 725.352 11.5781C725.246 11.2233 725.033 11.0459 724.713 11.0459C724.43 11.0459 724.217 11.3652 724.075 12.0039C723.968 12.4297 722.78 20.2534 720.509 35.4751H728.705Z" fill="#689703"/>
</svg>
