<svg width="287" height="270" viewBox="0 0 287 270" fill="none" xmlns="http://www.w3.org/2000/svg">
<path d="M62.7236 138.663C64.3435 139.014 65.9762 139.377 67.6088 139.752C66.0527 140.365 64.5093 140.989 62.9787 141.647C62.915 140.898 62.7874 139.411 62.7236 138.663Z" fill="#DEDEDE"/>
<path d="M116.334 118.567C118.107 117.807 119.102 118.351 119.319 120.201C118.464 121.619 117.546 121.642 116.551 120.269C116.5 119.849 116.385 118.998 116.334 118.567Z" fill="#D7D1CA"/>
<path d="M122.456 93.3202C121.958 90.2905 124.446 88.1573 126.474 86.1035C126.895 96.3725 126.129 106.653 125.147 116.888C124.229 116.82 122.392 116.706 121.474 116.638C121.601 108.854 122.622 101.104 122.456 93.3202Z" fill="#FBF1E8"/>
<path d="M118.094 56.9422C113.451 40.3416 107.431 24.0247 99.8672 8.29785C103.196 11.7814 107.456 14.6408 112.469 15.8663C120.76 17.818 129.395 17.5229 137.877 17.7272C158.298 17.886 178.719 18.5782 199.14 18.6803C209.319 18.8051 219.472 17.2619 229.102 14.3798C231.806 13.6876 233.949 12.0651 236.041 10.4765C229.663 33.5789 216.717 55.5125 216.334 79.7155C216.232 86.501 216.985 93.2751 216.831 100.072C217.571 106.937 218.758 113.768 219.229 120.667C217.967 121.745 216.704 122.822 215.416 123.889C209.076 99.2209 210.224 73.1683 217.979 48.8632C218.86 45.5272 220.99 42.2139 220.441 38.7417C218.273 34.7135 212.686 33.9079 208.171 33.6469C191.168 33.0682 174.14 32.7165 157.125 33.0455C143.923 33.6696 130.581 33.4427 117.546 35.6667C115.773 35.7574 115.199 37.3574 114.293 38.4467C120.632 45.4818 123.783 54.2529 125.428 63.0355C125.594 66.9388 126.092 70.8308 126.053 74.7569C125.39 74.8703 124.064 75.0973 123.4 75.2108C123.579 68.7884 121.245 62.627 118.094 56.9422Z" fill="#FAEEE4"/>
<path d="M129.994 36.1204C155.492 34.6453 181.091 34.3276 206.614 35.7006C209.127 36.302 214.688 36.8125 212.086 40.1259C205.135 47.7737 193.119 46.6164 183.26 47.127C179.356 47.2518 175.453 47.2745 171.55 47.2064C161.754 46.6277 151.831 48.1822 142.15 46.3894C136.869 45.4703 132.902 42.0662 129.356 38.7075C129.522 38.0607 129.828 36.7672 129.994 36.1204Z" fill="#7E698E"/>
<path d="M122.673 1.0583C143.91 0.298055 165.198 -0.541582 186.448 0.456948C200.491 0.956214 214.624 1.64836 228.387 4.40566C231.678 5.15456 235.173 5.97156 237.724 8.11613C238.336 10.8961 237.468 13.7215 236.754 16.4335C233.986 25.7266 230.045 34.6906 226.729 43.8249C235.708 43.0987 244.726 43.8703 253.693 43.6434C254.076 43.9611 254.841 44.5965 255.224 44.9142C254.917 45.1298 254.318 45.5497 254.025 45.7539C244.713 46.083 235.364 45.3681 226.04 46.0262C224.79 49.3055 223.693 52.6415 222.698 56.0002C231.869 56.352 241.053 56.6129 250.236 56.7945C252.928 56.8852 255.696 56.9533 258.272 57.7816C260.849 61.0836 260.938 65.3727 261.946 69.208C263.272 76.4474 263.68 85.1391 257.724 90.9147C251.435 95.3287 242.851 95.4989 235.224 96.3386C234.382 96.0663 232.673 95.5216 231.831 95.2493C235.453 94.5684 239.114 93.9897 242.775 93.4564C248.285 92.56 255.326 91.8792 258.055 86.8071C262.532 78.1154 259.356 68.3683 257.048 59.5631C245.351 58.8369 233.629 58.4965 221.907 58.2355C218.285 70.1839 218.157 82.6201 219.165 94.8862C220.224 94.8181 222.328 94.6819 223.374 94.6252C224.305 95.34 225.236 96.0549 226.18 96.7924C223.999 96.8492 221.831 96.9513 219.662 97.0648C219.777 100.094 219.93 103.135 220.147 106.176C229.28 106.789 238.463 106.766 247.609 106.347C249.726 106.437 252.239 105.757 254.088 106.971L254.522 107.572L254.254 107.935C243.017 109.081 231.614 109.263 220.351 108.31C220.798 113.121 221.116 117.954 221.563 122.777C221.971 129.188 223.157 135.701 222.009 142.101C220.326 144.813 216.065 144.382 213.106 145.085C191.946 147.048 170.606 146.231 149.382 145.664C138.068 144.79 126.448 144.847 115.555 141.681C115.415 140.285 115.287 138.912 115.16 137.551C112.277 137.687 109.407 137.812 106.537 137.925C107.851 143.496 105.415 149.533 99.1266 151.666C95.6955 152.177 91.767 151.564 89.5858 148.943C87.5067 146.867 87.6343 143.984 87.3664 141.397C86.6649 141.341 85.2746 141.227 84.5858 141.17C88.4506 147.003 85.1215 155.343 77.3537 156.636C74.0629 156.228 70.6062 155.082 68.8715 152.37C66.3715 149.261 67.6343 145.312 68.2083 141.885C65.7593 142.838 63.1573 143.576 60.9251 144.915C60.4532 146.333 60.2363 147.82 59.943 149.306C63.0297 150.917 66.7797 152.461 67.8384 155.808C70.3894 161.606 64.9175 169.277 57.596 168.414C51.1547 167.699 47.7874 160.778 49.994 155.694C51.3205 151.496 57.9659 150.985 58.4761 146.39C51.4481 148.239 47.8894 154.231 45.5552 159.915C44.2797 163.433 40.5552 165.555 36.6649 166.383C33.272 166.44 29.6113 165.419 27.8511 162.639C25.0067 158.52 27.0476 153.164 30.8996 150.18C34.2159 149.022 38.1445 147.956 41.5246 149.567C43.3231 150.6 44.7516 152.063 46.295 153.391C47.4812 151.621 48.6675 149.885 49.8664 148.137C47.0986 146.492 43.3358 145.221 42.4812 142.033C42.0348 139.105 42.6088 136.155 42.7363 133.228C47.2516 131.605 52.0476 130.527 56.9583 131.128C57.2899 129.517 57.6343 127.928 58.0042 126.34C51.4353 125.977 44.8537 125.614 38.3486 124.649C37.8639 128.45 37.0858 132.932 32.9532 134.998C29.1649 137.494 24.3052 136.223 20.1088 135.474C19.7899 133.795 19.4072 132.15 18.9863 130.504C16.4736 125.069 21.92 121.098 24.8027 116.99C20.517 117.262 19.7899 122.391 15.4914 122.856C8.6547 125.409 -1.14122 120.837 0.108775 113.643C1.11643 105.427 14.7772 103.51 19.9175 109.705C22.0731 112.531 23.9991 115.81 27.443 117.569C31.1675 118.159 34.5858 119.566 37.5195 121.699C37.7746 117.296 32.4812 117.852 29.3562 116.252C24.2159 113.62 23.7057 106.63 27.443 102.84C29.6368 100.344 33.0424 99.232 36.2312 98.0974C40.2108 100.605 46.1802 102.863 46.0016 107.981C46.3205 112.474 42.6598 116.003 38.4889 118.011C39.0246 119.498 39.6113 120.984 40.2491 122.459C43.221 123.378 46.4481 123.333 49.5348 123.764C47.2772 120.428 45.9889 116.15 48.5271 112.633C50.2108 109.274 54.3307 108.31 57.8766 107.277C61.2057 103.011 64.7516 98.7215 70.1726 96.418C64.9557 94.4664 59.0756 93.5359 54.522 90.4268C51.818 87.8397 56.6649 86.2058 58.6547 84.9917C54.2159 82.4613 49.4073 79.738 46.9838 75.4148C45.7721 73.3951 47.1368 71.432 48.3868 69.7867C46.4481 64.7941 43.4506 59.9376 38.6675 56.681C36.4353 55.0698 33.6164 54.1734 31.5629 52.3692C41.0654 45.0277 55.6445 47.3312 64.9302 53.7876C64.943 52.0515 64.9812 50.3154 65.0195 48.5906C71.971 48.9538 75.4659 55.4669 78.7823 60.0965C79.4965 58.8483 80.1981 57.6115 80.9124 56.386C87.3919 59.6312 92.3409 64.8735 96.4226 70.3201C96.0527 66.5529 96.2695 62.763 96.971 59.0412C98.795 59.9263 100.581 60.8681 102.366 61.8212C102.162 54.945 97.9277 48.5112 99.2925 41.5782C106.295 46.5822 109.688 54.2868 114.05 61.0269C116.231 62.1276 115.81 58.1448 115.453 57.1009C111.078 40.8634 105.147 24.9777 98.0297 9.5345C96.2822 6.77719 99.3435 4.22413 102.175 3.57736C108.782 1.7505 115.81 1.56891 122.673 1.0583ZM101.104 6.16442C103.425 8.42246 105.581 11.0436 108.859 12.2918C117.915 16.093 128.221 15.2647 137.953 15.5937C158.77 15.6958 179.586 16.4788 200.415 16.5128C210.402 16.6149 220.351 14.9357 229.803 12.0989C232.06 11.6337 232.838 9.6139 233.616 7.9459C226.958 6.07366 220.058 5.07517 213.145 4.30358C185.211 1.25125 156.984 2.39727 128.923 2.86249C119.586 3.27098 110.045 3.50924 101.104 6.16442ZM118.093 56.942C121.244 62.6268 123.578 68.7882 123.4 75.2106C124.063 75.0971 125.389 74.8702 126.053 74.7567C126.474 71.1938 125.696 67.5287 126.665 64.0452C126.958 64.0338 127.545 63.9998 127.838 63.9771C129.28 82.779 129.356 101.785 126.818 120.519C126.27 125.614 124.382 130.538 124.28 135.69C152.494 139.026 181.167 140.977 209.522 137.721C210.377 137.675 212.086 137.573 212.94 137.528C213.667 133.772 214.139 129.937 213.387 126.17C210.632 111.18 207.94 95.9301 209.675 80.7138C210.122 69.9569 212.481 59.3362 215.645 48.9651C210.3 50.531 204.879 52.3011 199.165 52.0288C191.767 52.199 184.79 49.5325 177.456 49.2601C170.951 48.9992 164.828 51.3934 158.387 51.7338C154.114 51.9494 149.815 51.8926 145.542 51.9947C137.685 51.5862 130.02 49.8274 122.864 46.934C124.522 51.3933 126.614 55.83 126.958 60.5844C126.576 61.1971 125.81 62.4225 125.428 63.0353C123.782 54.2528 120.632 45.4816 114.292 38.4465C115.198 37.3572 115.772 35.7572 117.545 35.6665C130.581 33.4425 143.923 33.6694 157.124 33.0453C174.139 32.7163 191.167 33.0681 208.17 33.6467C212.685 33.9077 218.272 34.7133 220.44 38.7415C220.989 42.2137 218.859 45.527 217.979 48.863C210.224 73.1681 209.076 99.2207 215.415 123.889C215.823 128.042 216.41 132.297 215.351 136.416C214.599 138.753 211.805 139.752 209.292 139.831C181.257 142.146 152.877 141.409 125.083 137.392C122.762 137.415 120.823 135.315 121.703 133.307C122.991 128.507 124.241 123.696 124.956 118.794C123.527 118.601 122.099 118.431 120.683 118.261C120.44 120.213 120.16 122.164 120.045 124.15C118.974 123.56 117.902 122.981 116.831 122.414C116.754 121.881 116.614 120.814 116.55 120.269C117.545 121.642 118.463 121.62 119.318 120.201C119.101 118.352 118.106 117.807 116.333 118.567C116.155 117.659 115.9 116.774 115.581 115.923C116.321 115.98 117.813 116.105 118.553 116.162C119.739 108.491 119.93 100.707 119.892 92.9799C115.849 96.1343 111.601 99.1072 107.022 101.649C109.433 104.463 111.805 107.356 113.323 110.658C116.333 111.317 113.323 114.584 112.264 112.996C110.109 110.227 108.923 106.869 106.218 104.429C107.953 108.968 112.953 112.463 113.055 117.387C112.685 118.068 111.946 119.407 111.576 120.076C111.41 119.691 111.078 118.919 110.912 118.533C110.16 118.567 108.655 118.624 107.889 118.658C106.448 122.97 102.877 126.158 98.9608 128.814C99.7006 130.754 99.5986 133.296 101.78 134.51C105.963 137.222 111.423 135.236 116.155 135.361C116.206 134.623 116.308 133.137 116.359 132.399C117.009 134.249 117.762 136.064 118.489 137.925C118.196 138.413 117.596 139.389 117.29 139.865C122.966 142.101 129.292 142.18 135.351 142.759C153.578 144.302 171.895 144.245 190.185 144.2C200.096 144.03 210.173 144.143 219.841 141.874C220.466 134.805 219.688 127.713 219.229 120.666C218.757 113.767 217.571 106.937 216.831 100.072C216.984 93.2749 216.231 86.5008 216.333 79.7153C216.716 55.5123 229.662 33.5787 236.04 10.4763C233.948 12.0649 231.805 13.6874 229.101 14.3796C219.471 17.2617 209.318 18.8049 199.139 18.6801C178.718 18.578 158.298 17.8858 137.877 17.727C129.395 17.5227 120.759 17.8178 112.468 15.8661C107.456 14.6406 103.196 11.7812 99.8664 8.29765C107.43 24.0245 113.451 40.3414 118.093 56.942ZM129.994 36.1204C125.747 36.5742 121.499 37.0622 117.277 37.6976C120.185 45.2547 129.764 47.7396 137.609 49.419C148.91 50.3154 160.836 51.3366 171.55 47.2064C175.453 47.2744 179.356 47.2517 183.259 47.1269C193.004 50.9054 204.93 51.3025 214.497 46.8659C217.775 45.6291 218.272 41.8733 217.864 39.116C215.377 35.9275 210.619 35.553 206.614 35.7005C181.091 34.3276 155.491 34.6453 129.994 36.1204ZM102.277 47.5354C102.634 53.867 106.142 60.1759 103.323 66.4507C101.792 65.1912 100.262 63.909 98.7695 62.6609C98.3103 67.3585 98.9098 72.0675 99.6496 76.731C99.2287 76.8672 98.3868 77.1395 97.9659 77.287C94.1777 70.3541 89.1266 63.9204 82.2261 59.166C81.0271 60.6525 79.8154 62.1616 78.6037 63.6707C77.3282 61.7985 76.1164 59.8809 74.6496 58.1335C72.5705 55.3988 70.1215 52.9138 67.494 50.5877C67.9021 53.4925 68.3996 56.3974 68.8715 59.3135C64.8537 56.5222 61.1675 53.1295 56.3078 51.5295C50.7976 49.6459 44.5093 48.931 38.8588 50.7125C37.8894 51.2231 35.4659 51.2232 36.295 52.7323C38.8588 54.7407 41.869 56.3293 44.1266 58.6554C47.8511 62.536 49.994 67.3699 51.5756 72.2263C50.8103 72.1242 49.2542 71.9086 48.4761 71.7952C49.5221 78.5693 57.4812 81.4854 63.1955 84.8101C61.0271 86.149 58.7568 87.3518 56.5501 88.6567C56.6266 88.8382 56.7542 89.19 56.818 89.3716C63.0552 92.8437 70.4659 93.9217 77.4047 95.8166C70.6955 98.7214 64.0884 102.126 60.0705 107.958C62.647 108.196 65.2236 108.423 67.8256 108.593C67.8129 109.161 67.8001 110.307 67.7874 110.885C66.818 114.584 68.6037 118.681 66.6904 122.425C68.5527 122.448 70.4149 122.482 72.2771 122.55C70.6572 119.52 69.3945 115.81 71.7287 112.803C73.6164 109.24 78.4634 108.832 82.0603 107.356C78.8588 106.278 75.4914 105.62 72.1496 105.03L71.4226 105.949C70.9634 105.246 70.0578 103.828 69.6113 103.113C74.1394 103.487 78.5654 104.497 83.068 105.019C86.3843 103.907 89.2032 101.933 92.1241 100.185C88.4634 99.4477 84.7389 99.0391 81.0399 98.4945C86.4736 95.3173 93.0042 99.2207 98.7057 100.038C95.147 95.0337 90.5042 90.7559 85.9124 86.5121C80.7465 87.8964 73.4889 89.5985 69.4455 85.4342C74.4455 85.6271 79.7899 87.1589 84.42 84.708C81.7414 82.0188 79.3307 79.0799 76.1674 76.8218C70.0067 75.9141 62.9532 76.8786 57.7108 73.1795L60.0705 73.0319C64.3945 73.7468 68.7057 74.5638 73.119 74.5638C65.9889 67.6762 55.3129 65.3274 46.818 60.1645C57.8639 61.424 66.8435 68.1528 76.2822 72.8958C75.4914 67.8918 72.8894 63.4097 69.9175 59.2C70.4532 59.0752 71.5501 58.8143 72.0986 58.6895C74.6751 63.1715 77.8129 67.6535 78.0425 72.8504C78.1317 77.1282 82.5067 79.8061 85.8613 82.2797C88.1573 77.2303 85.5297 71.9313 84.471 66.916C90.6445 71.4434 88.3103 79.0912 88.0297 85.1959C91.4098 89.2921 95.6572 92.7416 99.2669 96.679C100.619 89.5304 105.874 82.847 103.731 75.3694C103.093 73.622 102.571 71.8405 102.124 70.0704C105.593 72.2604 106.18 76.1524 106.946 79.5905C108.872 75.5623 109.79 71.2732 109.726 66.9046L111.18 65.6791C112.838 72.4192 109.956 78.8529 106.729 84.8101C111.155 84.0158 115.351 82.5294 119.446 80.8614C119.139 74.6432 118.183 68.4478 116.333 62.4339C115.211 63.0013 114.101 63.5686 112.991 64.1587C109.968 58.3491 107.009 52.4259 102.277 47.5354ZM121.843 77.9679C121.933 80.8727 122.009 83.8002 122.162 86.7163C126.014 84.6852 126.397 80.4642 126.78 76.9126C125.122 77.253 123.476 77.6048 121.843 77.9679ZM107.15 86.6483C103.387 86.8979 103.157 90.7899 102.239 93.3203C101.372 95.6124 101.397 99.8902 104.739 100.321C110.415 97.6662 115.224 93.7515 119.879 89.8935C119.841 87.6128 119.815 85.3321 119.79 83.074C115.67 84.5037 111.435 85.6497 107.15 86.6483ZM122.456 93.3203C122.622 101.104 121.601 108.854 121.474 116.638C122.392 116.706 124.229 116.82 125.147 116.888C126.129 106.653 126.895 96.3726 126.474 86.1036C124.446 88.1574 121.958 90.2906 122.456 93.3203ZM37.3664 101.649C34.8919 101.683 32.2516 101.865 30.0705 102.999C26.7924 105.416 26.1802 110.182 28.6292 113.245C32.2516 117.523 41.2057 116.638 43.2593 111.453C45.3129 107.549 42.2261 102.137 37.3664 101.649ZM84.318 108.219C88.8715 110.386 91.7414 114.176 92.7491 118.647C96.5756 113.438 100.147 107.924 101.69 101.796C95.1471 101.104 88.2083 103.396 84.318 108.219ZM96.0399 118.284C100.696 117.659 105.338 117.058 109.994 116.525C108.349 112.758 106.372 109.093 103.948 105.677C100.491 109.24 99.0501 114.289 96.0399 118.284ZM5.44041 109.24C2.50674 110.511 2.12408 113.756 2.07306 116.332C4.26694 117.251 6.35878 114.607 8.45061 114.176C7.92765 116.355 6.85623 118.374 5.46592 120.235C9.35623 122.051 13.6674 121.211 17.5322 119.815C18.2975 117.138 19.6496 114.312 18.5271 111.566C15.8231 107.572 9.72612 107.549 5.44041 109.24ZM51.0016 111.986C50.3511 114.028 49.2669 116.037 49.2669 118.215C50.0833 123.004 57.0858 126.056 61.7032 123.174C65.9506 121.086 65.0578 116.321 64.42 112.792C62.2134 107.776 54.8154 109.603 51.0016 111.986ZM75.721 111.793C71.7797 113.847 71.7797 120.269 75.8868 122.176C79.0374 122.856 82.3282 123.095 85.568 123.004C88.846 121.665 90.1726 118.113 89.0246 115.186C87.3282 110.466 80.045 109.773 75.721 111.793ZM91.7542 123.117C93.9098 124.161 96.0016 125.398 98.3486 126.124C101.627 124.944 103.336 121.971 105.173 119.486C100.517 119.838 95.096 119.702 91.7542 123.117ZM23.3486 121.846C19.6496 124.558 20.3766 129.699 22.9914 132.83L23.6164 132.399C27.7873 136.972 34.7771 132.944 35.7338 128.155C35.1088 125.818 34.5093 123.48 33.897 121.166C30.4787 120.144 26.3205 119.566 23.3486 121.846ZM60.8358 126.953C57.3154 130.13 60.6062 135.474 64.5731 137.165L64.4838 137.517C66.8435 137.256 69.2159 137.017 71.5756 136.745C70.7976 134.93 70.0195 133.125 69.2542 131.333C68.1445 131.605 67.0348 131.9 65.9251 132.195C65.9634 131.298 66.0144 129.528 66.0527 128.632C67.9277 127.679 69.8154 126.726 71.6649 125.738C68.17 123.31 63.9098 124.661 60.8358 126.953ZM77.0093 125.375C72.0093 126.419 70.0578 132.49 74.1649 135.429C78.7312 139.548 87.4047 136.416 87.596 130.708C87.7108 125.965 81.397 123.685 77.0093 125.375ZM88.0424 126.374C89.7516 129.687 93.4506 130.958 97.3919 130.493C95.7465 127.043 92.1113 125.602 88.0424 126.374ZM88.068 137.097C90.9889 136.325 94.9047 135.758 96.1802 132.944C94.4328 132.002 92.3027 131.911 90.3766 131.491C89.5986 133.341 88.8078 135.202 88.068 137.097ZM48.0935 134.033C46.1675 135.894 43.2593 138.129 44.6113 140.966C46.0272 146.356 55.1981 147.298 58.6292 143.009C60.5425 141.125 59.6751 138.424 59.8664 136.155C57.8001 134.317 55.2108 133.125 52.494 132.297C51.0271 132.887 49.5603 133.454 48.0935 134.033ZM93.7057 136.938C89.0118 139.355 88.3613 146.492 93.3741 148.932C98.795 151.836 105.989 146.174 104.28 140.921C103.923 136.461 97.6088 134.067 93.7057 136.938ZM62.7236 138.663C62.7874 139.412 62.9149 140.898 62.9787 141.647C64.5093 140.989 66.0527 140.365 67.6088 139.752C65.9761 139.378 64.3435 139.014 62.7236 138.663ZM69.4838 146.651C68.9481 151.088 73.8333 154.469 78.5527 154.117C80.0195 152.824 81.5246 151.575 83.0552 150.361C81.2312 150.486 79.3435 150.963 77.5705 150.361C77.4557 149.374 77.443 148.41 77.5195 147.445C79.3052 147.207 81.1037 147.037 82.9149 146.946C82.5705 144.597 82.4047 141.636 79.6113 140.535C75.0578 138.742 69.4838 142.294 69.4838 146.651ZM32.7618 151.802C30.2746 152.801 29.4838 155.343 28.1828 157.283C29.9557 157.442 31.7414 157.612 33.5399 157.794C33.1317 159.359 32.7363 160.937 32.3282 162.514C31.5756 162.026 30.045 161.028 29.2924 160.54C31.0399 164.091 35.6317 165.498 39.471 163.501C44.5603 161.391 43.846 155.433 41.6139 151.723C38.693 151.405 35.5424 150.384 32.7618 151.802ZM55.4914 152.926C49.2542 155.706 50.9251 165.385 57.6598 166.565C63.8715 167.189 67.8766 160.358 65.3256 155.706C64.0629 152.063 58.9353 150.781 55.4914 152.926Z" fill="#281B17"/>
<path d="M101.104 6.16456C110.045 3.50937 119.586 3.27112 128.922 2.86263C156.984 2.3974 185.211 1.25138 213.144 4.30371C220.058 5.0753 226.958 6.07379 233.616 7.94603C232.838 9.61403 232.06 11.6338 229.803 12.0991C220.351 14.9358 210.402 16.6151 200.415 16.513C179.586 16.4789 158.769 15.696 137.953 15.5939C128.221 15.2648 117.915 16.0932 108.859 12.2919C105.581 11.0438 103.425 8.4226 101.104 6.16456Z" fill="#FBEEE3"/>
<path d="M206.614 35.7005C210.619 35.553 215.377 35.9275 217.864 39.116C218.273 41.8733 217.775 45.6291 214.497 46.8659C204.931 51.3025 193.005 50.9054 183.26 47.1269C193.119 46.6163 205.135 47.7736 212.086 40.1258C214.688 36.8125 209.127 36.3019 206.614 35.7005Z" fill="#754C62"/>
<path d="M117.277 37.6976C121.499 37.0622 125.747 36.5742 129.994 36.1204C129.828 36.7671 129.522 38.0607 129.356 38.7074C132.902 42.0661 136.869 45.4702 142.15 46.3893C151.831 48.1821 161.754 46.6276 171.55 47.2063C160.836 51.3366 148.91 50.3153 137.609 49.4189C129.765 47.7396 120.186 45.2547 117.277 37.6976Z" fill="#764C61"/>
<path d="M255.223 44.9142C256.716 43.1214 258.948 44.5398 260.606 45.3454L257.468 44.7894C257.277 45.4135 257.111 46.0489 256.971 46.7183C262.086 48.1821 270.058 48.3637 271.346 54.1733C273.106 62.5927 275.695 71.0008 275.759 79.6018C274.943 86.6823 273.629 94.0351 269.56 100.276C267.009 104.338 261.422 104.86 256.881 105.972C256.843 106.176 256.767 106.585 256.728 106.8C258.438 107.198 260.198 107.322 262.009 107.186C259.828 108.083 256.333 109.569 254.522 107.572L254.088 106.971C252.239 105.757 249.726 106.437 247.609 106.347C238.463 106.766 229.279 106.789 220.147 106.176C219.93 103.135 219.777 100.094 219.662 97.0648C221.83 96.9513 223.999 96.8491 226.18 96.7924C229.19 96.7016 232.213 96.5655 235.223 96.3386C242.851 95.4989 251.435 95.3287 257.723 90.9147C263.68 85.1391 263.272 76.4473 261.945 69.208C260.938 65.3727 260.848 61.0836 258.272 57.7816C255.695 56.9533 252.927 56.8852 250.236 56.7944C241.052 56.6129 231.869 56.352 222.698 56.0002C223.693 52.6415 224.79 49.3055 226.04 46.0262C235.364 45.3681 244.713 46.0829 254.024 45.7539C254.318 45.5496 254.917 45.1298 255.223 44.9142Z" fill="#FCEFE4"/>
<path d="M256.971 46.7185C257.111 46.049 257.277 45.4136 257.468 44.7896L260.606 45.3455C264.063 46.276 267.609 47.2178 270.606 49.0787C273.297 50.9169 273.502 54.2188 274.254 56.9307C276.167 66.2692 279.229 75.7553 277.226 85.2981C275.976 90.9375 274.968 96.9287 271.231 101.762C269.114 104.633 265.402 105.904 262.009 107.186C260.198 107.323 258.438 107.198 256.729 106.801C256.767 106.585 256.843 106.176 256.882 105.972C261.422 104.86 267.009 104.338 269.56 100.276C273.629 94.0352 274.943 86.6824 275.759 79.602C275.695 71.001 273.106 62.5928 271.346 54.1734C270.058 48.3638 262.086 48.1822 256.971 46.7185Z" fill="#110903"/>
<path d="M122.864 46.9341C130.02 49.8276 137.686 51.5864 145.543 51.9948C143.872 55.3876 141.665 58.7803 141.589 62.5816C141.627 66.4395 142.622 70.2294 143.145 74.0533C145.619 88.5206 137.928 102.534 139.599 117.013C140.454 121.949 144.102 126.59 149.395 128.507C156.971 131.594 165.543 129.494 173.489 131.083C185.517 133.216 197.239 136.756 209.522 137.721C181.168 140.978 152.494 139.026 124.28 135.69C124.382 130.538 126.27 125.614 126.818 120.519C129.357 101.785 129.28 82.7791 127.839 63.9772C127.545 63.9999 126.959 64.0339 126.665 64.0453C125.696 67.5288 126.474 71.1939 126.053 74.7568C126.091 70.8308 125.594 66.9387 125.428 63.0354C125.811 62.4227 126.576 61.1972 126.959 60.5845C126.614 55.8301 124.522 51.3934 122.864 46.9341Z" fill="#784B63"/>
<path d="M102.277 47.5354C107.01 52.4259 109.969 58.3491 112.992 64.1587C112.533 64.5331 111.64 65.2934 111.18 65.6791L109.726 66.9046C109.79 71.2732 108.872 75.5623 106.946 79.5905C106.18 76.1524 105.594 72.2604 102.124 70.0704C102.571 71.8405 103.094 73.622 103.731 75.3694C102.367 75.8119 101.002 76.2658 99.6499 76.7311C98.9101 72.0675 98.3106 67.3585 98.7698 62.6609C100.262 63.9091 101.793 65.1912 103.323 66.4507C106.142 60.1759 102.635 53.867 102.277 47.5354Z" fill="#89A367"/>
<path d="M158.388 51.7337C164.829 51.3933 170.951 48.9991 177.456 49.2601C184.791 49.5324 191.768 52.199 199.166 52.0288C204.88 52.3011 210.301 50.531 215.645 48.9651C212.482 59.3362 210.122 69.9569 209.676 80.7138C207.941 95.93 210.632 111.18 213.388 126.17C214.14 129.937 213.668 133.772 212.941 137.528C212.087 137.573 210.377 137.675 209.523 137.721C197.24 136.756 185.518 133.216 173.49 131.083C165.543 129.494 156.972 131.593 149.395 128.507C144.102 126.589 140.454 121.949 139.599 117.013C137.928 102.534 145.62 88.5205 143.145 74.0532C142.622 70.2292 141.627 66.4394 141.589 62.5814C141.666 58.7802 143.872 55.3874 145.543 51.9947C149.816 51.8926 154.115 51.9493 158.388 51.7337Z" fill="#7F6E92"/>
<path d="M38.8587 50.7125C44.5092 48.931 50.7975 49.6459 56.3077 51.5295C61.1674 53.1294 64.8536 56.5221 68.8714 59.3135C68.3995 56.3973 67.902 53.4925 67.4939 50.5877C70.1214 52.9138 72.5704 55.3988 74.6495 58.1334C74.0117 58.2696 72.7362 58.5532 72.0985 58.6894C71.55 58.8142 70.4531 59.0751 69.9174 59.2C72.8893 63.4097 75.4913 67.8917 76.2821 72.8957C66.8434 68.1527 57.8638 61.424 46.8179 60.1645C55.3128 65.3273 65.9888 67.6762 73.1189 74.5638C68.7056 74.5638 64.3944 73.7467 60.0704 73.0319L57.7107 73.1794C55.6571 72.9184 53.6163 72.5554 51.5755 72.2263C49.9939 67.3698 47.851 62.536 44.1265 58.6553C41.8689 56.3292 38.8587 54.7407 36.2949 52.7323C35.4658 51.2231 37.8893 51.2231 38.8587 50.7125Z" fill="#8BA36B"/>
<path d="M72.0986 58.6893C72.7364 58.5531 74.0119 58.2695 74.6497 58.1333C76.1165 59.8807 77.3282 61.7983 78.6037 63.6705C79.8155 62.1614 81.0272 60.6523 82.2262 59.1658C89.1267 63.9202 94.1777 70.3539 97.966 77.2869C98.3869 77.1394 99.2287 76.867 99.6497 76.7309C101.002 76.2657 102.366 75.8118 103.731 75.3692C105.874 82.8469 100.619 89.5303 99.267 96.6788C95.6573 92.7414 91.4099 89.292 88.0298 85.1957C88.3104 79.0911 90.6446 71.4432 84.4711 66.9158C85.5298 71.9312 88.1573 77.2302 85.8614 82.2796C82.5068 79.8059 78.1318 77.128 78.0425 72.8502C77.8129 67.6533 74.6752 63.1713 72.0986 58.6893Z" fill="#839346"/>
<path d="M112.991 64.1588C114.101 63.5688 115.211 63.0014 116.333 62.4341C118.183 68.448 119.139 74.6434 119.445 80.8615C115.351 82.5295 111.155 84.0159 106.729 84.8102C109.956 78.8531 112.838 72.4194 111.18 65.6793C111.639 65.2935 112.532 64.5333 112.991 64.1588Z" fill="#849149"/>
<path d="M48.4766 71.7952C49.2546 71.9086 50.8107 72.1242 51.576 72.2264C53.6169 72.5554 55.6577 72.9185 57.7112 73.1795C62.9536 76.8786 70.0072 75.9141 76.1679 76.8219C79.3311 79.0799 81.7419 82.0188 84.4204 84.708C79.7903 87.1589 74.446 85.6271 69.446 85.4342C73.4893 89.5985 80.747 87.8964 85.9128 86.5121C90.5046 90.7559 95.1475 95.0337 98.7061 100.038C93.0046 99.2207 86.474 95.3173 81.0403 98.4945C84.7393 99.0391 88.4638 99.4477 92.1245 100.185C89.2036 101.933 86.3847 103.907 83.0684 105.019C78.5658 104.497 74.1398 103.487 69.6118 103.113C70.0582 103.828 70.9638 105.246 71.423 105.949C70.1602 107.561 68.9102 109.172 67.7878 110.885C67.8005 110.307 67.8133 109.161 67.826 108.593C65.224 108.423 62.6475 108.196 60.0709 107.958C64.0888 102.126 70.6959 98.7214 77.4051 95.8166C70.4663 93.9217 63.0556 92.8437 56.8184 89.3716C56.7546 89.19 56.6271 88.8383 56.5505 88.6567C58.7572 87.3518 61.0276 86.149 63.1959 84.8101C57.4817 81.4854 49.5225 78.5693 48.4766 71.7952Z" fill="#849447"/>
<path d="M121.844 77.9679C123.476 77.6048 125.122 77.253 126.78 76.9126C126.397 80.4642 126.015 84.6852 122.163 86.7163C122.01 83.8001 121.933 80.8727 121.844 77.9679Z" fill="#858C47"/>
<path d="M107.15 86.6485C111.436 85.6499 115.671 84.5039 119.791 83.0742C119.816 85.3323 119.842 87.613 119.88 89.8937C115.224 93.7517 110.416 97.6664 104.74 100.322C101.398 99.8904 101.372 95.6126 102.24 93.3205C103.158 90.7901 103.388 86.8981 107.15 86.6485Z" fill="#869446"/>
<path d="M107.022 101.649C111.601 99.1073 115.849 96.1344 119.892 92.98C119.93 100.707 119.739 108.491 118.553 116.162C117.813 116.105 116.321 115.98 115.581 115.924L114.739 113.677C114.152 114.902 113.617 116.139 113.055 117.387C112.953 112.463 107.953 108.968 106.219 104.429C108.923 106.869 110.109 110.227 112.265 112.996C113.323 114.585 116.334 111.317 113.323 110.659C111.805 107.357 109.433 104.463 107.022 101.649Z" fill="#F8F0E5"/>
<path d="M223.375 94.6253C229.842 94.2168 236.347 94.3303 242.776 93.4565C239.115 93.9898 235.454 94.5686 231.832 95.2494C232.673 95.5217 234.383 96.0664 235.225 96.3387C232.214 96.5656 229.191 96.7018 226.181 96.7925C225.237 96.055 224.306 95.3402 223.375 94.6253Z" fill="#44372E"/>
<path d="M37.3668 101.649C42.2265 102.137 45.3132 107.549 43.2596 111.453C41.206 116.638 32.252 117.523 28.6295 113.245C26.1805 110.182 26.7928 105.416 30.0708 102.999C32.252 101.865 34.8923 101.683 37.3668 101.649Z" fill="#7A698C"/>
<path d="M84.3184 108.219C88.2087 103.396 95.1475 101.104 101.691 101.796C100.147 107.924 96.576 113.438 92.7495 118.647C91.7418 114.176 88.8719 110.386 84.3184 108.219Z" fill="#8AA46A"/>
<path d="M71.4226 105.949L72.1496 105.03C75.4914 105.62 78.8588 106.278 82.0603 107.356C78.4634 108.831 73.6164 109.24 71.7287 112.803C69.3945 115.81 70.6573 119.52 72.2772 122.55C70.4149 122.482 68.5527 122.448 66.6904 122.425C68.6037 118.681 66.818 114.584 67.7874 110.885C68.9098 109.172 70.1598 107.561 71.4226 105.949Z" fill="#87A260"/>
<path d="M96.04 118.284C99.0502 114.29 100.492 109.24 103.948 105.677C106.372 109.093 108.349 112.758 109.994 116.525C105.339 117.058 100.696 117.66 96.04 118.284Z" fill="#FCF5EC"/>
<path d="M5.44059 109.24C9.7263 107.549 15.8232 107.572 18.5273 111.566C19.6498 114.312 18.2977 117.138 17.5324 119.815C13.6676 121.211 9.35641 122.051 5.4661 120.235C6.85641 118.374 7.92783 116.355 8.45079 114.176C6.35896 114.607 4.26712 117.251 2.07324 116.332C2.12426 113.756 2.50692 110.511 5.44059 109.24Z" fill="#7B6882"/>
<path d="M51.002 111.986C54.8157 109.603 62.2137 107.776 64.4203 112.792C62.6346 113.643 60.8234 114.482 58.8718 115.038C57.4305 114.187 56.1295 113.177 54.803 112.213C53.8463 112.156 51.9458 112.043 51.002 111.986Z" fill="#4A3338"/>
<path d="M75.7208 111.793C80.0447 109.773 87.3279 110.466 89.0243 115.186C90.1723 118.113 88.8458 121.665 85.5677 123.004C82.3279 123.095 79.0371 122.856 75.8866 122.176C71.7794 120.269 71.7794 113.847 75.7208 111.793ZM77.634 116.23C78.5651 117.081 79.5345 117.909 80.5422 118.703C82.9912 117.977 84.0371 115.549 83.1059 113.495C81.1927 114.244 79.3942 115.22 77.634 116.23Z" fill="#75495B"/>
<path d="M51.0023 111.986C51.9462 112.043 53.8467 112.156 54.8033 112.213C56.1298 113.177 57.4308 114.187 58.8722 115.038C60.8237 114.482 62.6349 113.643 64.4206 112.791C65.0584 116.32 65.9513 121.086 61.7038 123.174C57.0865 126.056 50.0839 123.004 49.2676 118.215C49.2676 116.037 50.3518 114.028 51.0023 111.986Z" fill="#7B688C"/>
<path d="M77.6348 116.23C79.395 115.22 81.1934 114.244 83.1067 113.495C84.0378 115.549 82.9919 117.977 80.5429 118.703C79.5353 117.909 78.5659 117.081 77.6348 116.23Z" fill="#441F39"/>
<path d="M113.056 117.387C113.617 116.139 114.153 114.902 114.739 113.677L115.581 115.923C115.9 116.775 116.155 117.66 116.334 118.567C116.385 118.998 116.5 119.849 116.551 120.269C116.614 120.814 116.755 121.881 116.831 122.414C117.903 122.981 118.974 123.56 120.046 124.15C120.16 126.465 120.645 128.768 121.206 131.06C120.313 131.707 119.433 132.365 118.566 133.035C118.936 134.124 119.306 135.225 119.688 136.337C119.382 136.734 118.783 137.528 118.489 137.925C117.762 136.064 117.01 134.249 116.359 132.399C115.007 128.212 113.247 124.161 111.576 120.076C111.946 119.407 112.686 118.068 113.056 117.387Z" fill="#302E2A"/>
<path d="M107.89 118.658C108.655 118.624 110.16 118.567 110.912 118.533C111.078 118.919 111.41 119.691 111.576 120.076C113.247 124.161 115.007 128.212 116.359 132.399C116.308 133.137 116.206 134.623 116.155 135.361C111.423 135.236 105.963 137.222 101.78 134.51C99.5987 133.296 99.7007 130.754 98.9609 128.814C102.877 126.158 106.448 122.97 107.89 118.658Z" fill="#DAD5CE"/>
<path d="M120.683 118.261C122.099 118.431 123.527 118.601 124.956 118.794C124.242 123.696 122.992 128.507 121.703 133.307C120.823 135.315 122.762 137.414 125.083 137.392C152.877 141.408 181.257 142.146 209.293 139.831C211.805 139.752 214.599 138.753 215.351 136.416C216.41 132.297 215.823 128.042 215.415 123.889C216.703 122.822 217.966 121.744 219.229 120.666C219.688 127.713 220.466 134.805 219.841 141.874C210.173 144.143 200.096 144.03 190.185 144.2C171.895 144.245 153.578 144.302 135.351 142.759C129.293 142.18 122.966 142.101 117.29 139.865C117.596 139.389 118.196 138.413 118.489 137.925C118.782 137.528 119.382 136.734 119.688 136.336C119.305 135.224 118.935 134.124 118.566 133.034C119.433 132.365 120.313 131.707 121.206 131.06C120.645 128.768 120.16 126.465 120.045 124.15C120.16 122.164 120.441 120.212 120.683 118.261Z" fill="#D1CDC1"/>
<path d="M91.7539 123.117C95.0957 119.702 100.517 119.838 105.172 119.486C103.336 121.971 101.626 124.944 98.3483 126.124C96.0014 125.398 93.9095 124.161 91.7539 123.117Z" fill="#DAD2C6"/>
<path d="M23.349 121.847C26.321 119.566 30.4791 120.144 33.8975 121.166C34.5098 123.48 35.1093 125.818 35.7343 128.155C31.1807 128.178 26.8567 129.506 23.6169 132.399L22.9919 132.83C20.3771 129.699 19.6501 124.558 23.349 121.847Z" fill="#744763"/>
<path d="M60.8359 126.953C63.9099 124.661 68.1701 123.31 71.665 125.738C69.8155 126.726 67.9278 127.679 66.0528 128.632C66.0145 129.528 65.9635 131.298 65.9252 132.195C67.0349 131.9 68.1446 131.605 69.2543 131.333C70.0196 133.125 70.7977 134.93 71.5757 136.745C69.216 137.017 66.8436 137.256 64.4839 137.517L64.5732 137.165C65.7594 134.044 65.3257 130.765 64.739 127.599C63.7696 127.441 61.8181 127.111 60.8359 126.953Z" fill="#704566"/>
<path d="M77.0091 125.375C81.3968 123.685 87.7106 125.965 87.5958 130.708C87.4045 136.416 78.731 139.548 74.1647 135.429C70.0576 132.49 72.0091 126.419 77.0091 125.375Z" fill="#7C4660"/>
<path d="M88.043 126.374C92.1118 125.602 95.7471 127.043 97.3925 130.493C93.4511 130.958 89.7522 129.687 88.043 126.374Z" fill="#635550"/>
<path d="M64.5731 137.165C60.6062 135.474 57.3154 130.13 60.8358 126.953C61.818 127.111 63.7695 127.441 64.7389 127.599C65.3256 130.765 65.7593 134.044 64.5731 137.165Z" fill="#806A87"/>
<path d="M23.6172 132.399C26.857 129.506 31.181 128.178 35.7345 128.155C34.7779 132.944 27.7881 136.972 23.6172 132.399Z" fill="#826780"/>
<path d="M88.0684 137.097C88.8082 135.202 89.599 133.341 90.377 131.491C92.3031 131.911 94.4332 132.002 96.1806 132.944C94.9051 135.758 90.9893 136.325 88.0684 137.097Z" fill="#5A4944"/>
<path d="M48.0938 134.033C49.5606 133.454 51.0274 132.887 52.4943 132.297C55.2111 133.125 57.8004 134.317 59.8667 136.155C56.5631 137.982 52.7494 138.322 49.0376 137.414C48.808 136.563 48.3361 134.873 48.0938 134.033Z" fill="#83627C"/>
<path d="M44.6122 140.966C43.2602 138.13 46.1684 135.894 48.0944 134.033C48.3367 134.873 48.8087 136.564 49.0383 137.415C52.75 138.322 56.5638 137.982 59.8673 136.155C59.676 138.424 60.5434 141.125 58.6301 143.009C55.199 147.298 46.0281 146.356 44.6122 140.966Z" fill="#734862"/>
<path d="M93.7057 136.938C97.6088 134.067 103.923 136.461 104.28 140.921C105.989 146.174 98.795 151.837 93.3741 148.932C88.3613 146.492 89.0118 139.355 93.7057 136.938ZM97.1113 140.785C95.3766 143.86 100.632 147.865 102.851 144.45C103.451 141.579 99.8792 139.752 97.1113 140.785Z" fill="#80748E"/>
<path d="M69.4838 146.651C69.4838 142.293 75.0577 138.742 79.6113 140.535C82.4047 141.635 82.5705 144.597 82.9149 146.946C81.1037 147.036 79.3052 147.207 77.5195 147.445C77.4429 148.409 77.4557 149.374 77.5705 150.361C79.3435 150.963 81.2312 150.486 83.0552 150.361C81.5246 151.575 80.0195 152.823 78.5526 154.117C73.8333 154.469 68.9481 151.087 69.4838 146.651Z" fill="#867596"/>
<path d="M97.1108 140.785C99.8787 139.752 103.45 141.579 102.851 144.45C100.631 147.865 95.3761 143.86 97.1108 140.785Z" fill="#3F3348"/>
<path d="M32.7627 151.803C35.5433 150.384 38.6938 151.405 41.6147 151.723C43.8469 155.434 44.5612 161.391 39.4719 163.501C35.6326 165.498 31.0407 164.091 29.2933 160.54C30.0458 161.028 31.5765 162.026 32.329 162.514C32.7372 160.937 33.1326 159.36 33.5407 157.794C31.7423 157.612 29.9566 157.442 28.1836 157.283C29.4846 155.343 30.2754 152.801 32.7627 151.803Z" fill="#7F6789"/>
<path d="M55.4912 152.926C58.935 150.781 64.0626 152.063 65.3253 155.706C67.8764 160.358 63.8713 167.189 57.6595 166.565C50.9248 165.385 49.2539 155.706 55.4912 152.926ZM56.6009 160.086C56.4733 161.084 56.2437 163.081 56.1162 164.08C58.0804 164.023 60.032 163.966 61.9963 163.921C61.9452 161.039 59.2412 160.347 56.6009 160.086Z" fill="#7C6B8A"/>
<path d="M56.6019 160.085C59.2422 160.346 61.9463 161.039 61.9973 163.921C60.033 163.966 58.0815 164.023 56.1172 164.08C56.2447 163.081 56.4743 161.084 56.6019 160.085Z" fill="#3F323F"/>
<path d="M93.1167 198.661C91.2368 198.661 89.6846 198.145 88.46 197.114C87.2354 196.083 86.3867 194.675 85.9141 192.892C85.8711 192.752 85.8496 192.624 85.8496 192.505C85.8496 192.355 85.9033 192.205 86.0107 192.054C86.1182 191.893 86.4028 191.737 86.8647 191.587C87.3267 191.437 87.7832 191.286 88.2344 191.136C88.5352 191.039 88.7876 190.991 88.9917 190.991C89.1206 190.991 89.2656 191.028 89.4268 191.104C89.5879 191.179 89.7222 191.426 89.8296 191.845C90.0767 192.779 90.4526 193.553 90.9575 194.165C91.4731 194.767 92.0264 195.067 92.6172 195.067C93.4121 195.067 93.9976 194.777 94.3735 194.197C94.7603 193.606 94.9536 192.86 94.9536 191.958C94.9536 191.055 94.5938 190.244 93.874 189.524C93.1865 188.858 92.3647 188.192 91.4087 187.526C89.8188 186.431 88.6533 185.448 87.9121 184.578C86.7949 183.267 86.2363 181.747 86.2363 180.018C86.2363 178.857 86.5425 177.864 87.1548 177.037C87.7671 176.209 88.5674 175.576 89.5557 175.135C90.5439 174.695 91.6021 174.475 92.73 174.475C94.5884 174.475 96.0547 174.931 97.1289 175.844C98.2139 176.757 99.0518 178.127 99.6426 179.953C99.6963 180.136 99.7231 180.302 99.7231 180.453C99.7231 180.517 99.707 180.619 99.6748 180.759C99.6533 180.888 99.4761 180.995 99.1431 181.081C97.5103 181.521 96.6294 181.742 96.5005 181.742C96.3608 181.742 96.2104 181.709 96.0493 181.645C95.8989 181.57 95.77 181.328 95.6626 180.92C95.3618 179.76 94.9912 178.868 94.5508 178.245C94.1104 177.611 93.5518 177.294 92.875 177.294C92.1875 177.294 91.645 177.525 91.2476 177.987C90.8501 178.438 90.6514 179.002 90.6514 179.679C90.6514 180.13 90.8018 180.555 91.1025 180.952C91.4033 181.35 91.8008 181.742 92.2949 182.128C92.7998 182.515 93.3584 182.913 93.9707 183.321C94.916 183.944 95.8613 184.653 96.8066 185.448C97.752 186.243 98.5415 187.199 99.1753 188.316C99.8091 189.433 100.126 190.776 100.126 192.344C100.126 193.558 99.8574 194.638 99.3203 195.583C98.7939 196.528 98.0151 197.28 96.9839 197.839C95.9526 198.387 94.6636 198.661 93.1167 198.661ZM109.214 198.645C106.711 198.645 104.842 197.839 103.606 196.228C102.521 194.82 101.979 192.967 101.979 190.668C101.979 189.122 102.146 187.666 102.479 186.302C102.822 184.938 103.306 183.74 103.929 182.708C104.562 181.667 105.325 180.85 106.217 180.259C107.108 179.658 108.107 179.357 109.214 179.357C110.32 179.357 111.319 179.658 112.211 180.259C113.103 180.85 113.86 181.667 114.483 182.708C115.117 183.74 115.6 184.938 115.933 186.302C116.277 187.666 116.449 189.122 116.449 190.668C116.449 192.967 115.906 194.82 114.821 196.228C113.586 197.839 111.717 198.645 109.214 198.645ZM109.214 194.681C110.75 194.681 111.518 192.983 111.518 189.589C111.518 188.472 111.448 187.403 111.309 186.382C111.147 185.168 110.89 184.169 110.535 183.385C110.181 182.59 109.74 182.193 109.214 182.193C108.688 182.193 108.247 182.59 107.893 183.385C107.538 184.169 107.286 185.12 107.135 186.237C106.985 187.354 106.91 188.472 106.91 189.589C106.91 192.983 107.678 194.681 109.214 194.681ZM123.812 183.176C123.866 183.767 124.188 187.419 124.779 194.133C124.801 194.423 124.865 194.568 124.973 194.568C125.241 194.568 125.461 194.665 125.633 194.858C125.816 195.051 125.907 195.282 125.907 195.551V197.146C125.907 197.415 125.816 197.646 125.633 197.839C125.461 198.032 125.241 198.129 124.973 198.129H118.334C118.065 198.129 117.84 198.032 117.657 197.839C117.475 197.646 117.383 197.415 117.383 197.146V195.551C117.383 195.282 117.475 195.051 117.657 194.858C117.84 194.665 118.065 194.568 118.334 194.568C118.441 194.568 118.506 194.423 118.527 194.133C119.172 187.043 119.494 183.375 119.494 183.127C119.494 182.698 119.354 182.483 119.075 182.483C118.807 182.483 118.586 182.392 118.415 182.209C118.253 182.016 118.173 181.785 118.173 181.516V180.855C118.173 180.587 118.264 180.361 118.447 180.179C118.64 179.985 118.871 179.889 119.14 179.889H123.78C124.575 179.534 125.365 179.357 126.149 179.357C127.9 179.357 129.259 179.899 130.226 180.984C130.548 180.694 130.897 180.437 131.273 180.211C132.218 179.642 133.196 179.357 134.206 179.357C136.311 179.357 137.842 180.141 138.798 181.709C139.765 183.267 140.35 185.861 140.554 189.492L140.828 194.133C140.85 194.423 140.914 194.568 141.021 194.568C141.29 194.568 141.51 194.665 141.682 194.858C141.865 195.051 141.956 195.282 141.956 195.551V197.146C141.956 197.415 141.865 197.646 141.682 197.839C141.51 198.032 141.29 198.129 141.021 198.129H135.414C135.146 198.129 134.92 198.032 134.737 197.839C134.565 197.646 134.479 197.415 134.479 197.146V195.551C134.479 195.282 134.565 195.051 134.737 194.858C134.92 194.665 135.146 194.568 135.414 194.568C135.521 194.568 135.586 194.423 135.607 194.133C135.844 190.523 135.962 188.445 135.962 187.897C135.962 186.393 135.817 185.152 135.527 184.175C135.151 182.864 134.528 182.209 133.658 182.209C132.927 182.209 132.229 182.649 131.563 183.53C132.046 185.045 132.358 187.032 132.498 189.492L132.771 194.133C132.793 194.423 132.863 194.568 132.981 194.568C133.25 194.568 133.47 194.665 133.642 194.858C133.824 195.051 133.916 195.282 133.916 195.551V197.146C133.916 197.415 133.824 197.646 133.642 197.839C133.47 198.032 133.25 198.129 132.981 198.129H127.357C127.089 198.129 126.863 198.032 126.681 197.839C126.509 197.646 126.423 197.415 126.423 197.146V195.551C126.423 195.282 126.509 195.051 126.681 194.858C126.863 194.665 127.089 194.568 127.357 194.568C127.476 194.568 127.545 194.423 127.567 194.133C127.792 190.48 127.905 188.391 127.905 187.865C127.905 186.372 127.766 185.142 127.486 184.175C127.1 182.864 126.477 182.209 125.617 182.209C124.994 182.209 124.393 182.531 123.812 183.176ZM150.399 198.645C147.982 198.645 146.146 197.764 144.889 196.002C143.761 194.412 143.197 192.382 143.197 189.911C143.197 187.773 143.481 185.915 144.051 184.336C144.62 182.757 145.447 181.538 146.532 180.678C147.617 179.808 148.928 179.373 150.464 179.373C151.57 179.373 152.537 179.685 153.364 180.308C154.202 180.92 154.852 181.715 155.314 182.692C155.787 183.67 156.023 184.69 156.023 185.754C156.023 187.086 155.744 188.262 155.185 189.283C154.626 190.292 153.772 191.082 152.623 191.651C151.484 192.221 150.04 192.505 148.289 192.505C148.557 194.192 149.288 195.035 150.48 195.035C150.985 195.035 151.388 194.847 151.688 194.471C152 194.095 152.22 193.649 152.349 193.134C152.446 192.726 152.575 192.484 152.736 192.409C152.908 192.333 153.058 192.296 153.187 192.296C153.391 192.296 153.644 192.344 153.944 192.441C154.396 192.591 154.847 192.742 155.298 192.892C155.76 193.042 156.044 193.198 156.152 193.359C156.27 193.51 156.329 193.666 156.329 193.827C156.329 193.934 156.308 194.058 156.265 194.197C155.867 195.637 155.169 196.738 154.17 197.5C153.171 198.263 151.914 198.645 150.399 198.645ZM147.999 188.88C148.987 188.88 149.776 188.708 150.367 188.364C150.969 188.01 151.404 187.564 151.672 187.027C151.941 186.49 152.075 185.931 152.075 185.351C152.075 184.492 151.898 183.74 151.543 183.095C151.2 182.451 150.84 182.128 150.464 182.128C149.948 182.128 149.508 182.467 149.143 183.144C148.777 183.81 148.493 184.658 148.289 185.689C148.095 186.721 147.999 187.784 147.999 188.88ZM175.762 198.129H169.107C168.849 198.129 168.629 198.032 168.446 197.839C168.264 197.646 168.172 197.415 168.172 197.146V195.551C168.172 195.282 168.264 195.051 168.446 194.858C168.629 194.665 168.849 194.568 169.107 194.568C169.225 194.568 169.295 194.423 169.316 194.133C169.939 183.659 170.251 178.315 170.251 178.1C170.251 177.96 170.176 177.891 170.025 177.891C169.778 177.891 169.214 178.084 168.333 178.471C167.227 178.954 166.47 179.196 166.062 179.196C165.804 179.196 165.61 179.11 165.481 178.938C165.363 178.766 165.304 178.573 165.304 178.358V176.005C165.304 175.737 165.39 175.511 165.562 175.329C165.745 175.135 165.97 175.039 166.239 175.039H178.63C178.898 175.039 179.124 175.135 179.307 175.329C179.489 175.511 179.581 175.737 179.581 176.005V178.358C179.581 178.573 179.516 178.766 179.387 178.938C179.269 179.11 179.076 179.196 178.807 179.196C178.41 179.196 177.668 178.949 176.583 178.455C175.767 178.089 175.198 177.907 174.875 177.907C174.704 177.907 174.618 177.998 174.618 178.181C174.618 178.342 174.935 183.659 175.568 194.133C175.59 194.423 175.654 194.568 175.762 194.568C176.03 194.568 176.25 194.665 176.422 194.858C176.605 195.051 176.696 195.282 176.696 195.551V197.146C176.696 197.415 176.605 197.646 176.422 197.839C176.25 198.032 176.03 198.129 175.762 198.129ZM185.107 198.645C182.69 198.645 180.854 197.764 179.597 196.002C178.469 194.412 177.905 192.382 177.905 189.911C177.905 187.773 178.189 185.915 178.759 184.336C179.328 182.757 180.155 181.538 181.24 180.678C182.325 179.808 183.636 179.373 185.172 179.373C186.278 179.373 187.245 179.685 188.072 180.308C188.91 180.92 189.56 181.715 190.022 182.692C190.495 183.67 190.731 184.69 190.731 185.754C190.731 187.086 190.452 188.262 189.893 189.283C189.334 190.292 188.48 191.082 187.331 191.651C186.192 192.221 184.748 192.505 182.997 192.505C183.265 194.192 183.996 195.035 185.188 195.035C185.693 195.035 186.096 194.847 186.396 194.471C186.708 194.095 186.928 193.649 187.057 193.134C187.154 192.726 187.283 192.484 187.444 192.409C187.616 192.333 187.766 192.296 187.895 192.296C188.099 192.296 188.352 192.344 188.652 192.441C189.104 192.591 189.555 192.742 190.006 192.892C190.468 193.042 190.752 193.198 190.86 193.359C190.978 193.51 191.037 193.666 191.037 193.827C191.037 193.934 191.016 194.058 190.973 194.197C190.575 195.637 189.877 196.738 188.878 197.5C187.879 198.263 186.622 198.645 185.107 198.645ZM182.707 188.88C183.695 188.88 184.484 188.708 185.075 188.364C185.677 188.01 186.112 187.564 186.38 187.027C186.649 186.49 186.783 185.931 186.783 185.351C186.783 184.492 186.606 183.74 186.251 183.095C185.908 182.451 185.548 182.128 185.172 182.128C184.656 182.128 184.216 182.467 183.851 183.144C183.485 183.81 183.201 184.658 182.997 185.689C182.803 186.721 182.707 187.784 182.707 188.88ZM197.756 198.645C196.564 198.645 195.581 198.397 194.808 197.903C194.034 197.398 193.459 196.749 193.083 195.954C192.708 195.159 192.52 194.315 192.52 193.424C192.52 192.403 192.756 191.41 193.229 190.443C193.701 189.476 194.394 188.681 195.307 188.058C196.22 187.435 197.332 187.124 198.643 187.124C199.395 187.124 200.125 187.269 200.834 187.559C200.909 186.022 200.947 185.088 200.947 184.755C200.947 183.992 200.802 183.385 200.512 182.934C200.222 182.483 199.851 182.257 199.4 182.257C199.002 182.257 198.605 182.467 198.208 182.886C197.81 183.294 197.488 183.928 197.241 184.787C197.133 185.195 196.978 185.448 196.773 185.544C196.677 185.587 196.559 185.609 196.419 185.609C196.279 185.609 195.554 185.437 194.244 185.093C193.857 184.986 193.664 184.771 193.664 184.449C193.664 184.298 193.696 184.132 193.76 183.949C194.297 182.359 195.087 181.199 196.129 180.469C197.171 179.738 198.353 179.373 199.674 179.373C201.285 179.373 202.612 179.867 203.654 180.855C204.696 181.833 205.276 183.213 205.394 184.997L205.877 194.133C205.91 194.423 205.985 194.568 206.103 194.568C206.361 194.568 206.581 194.665 206.764 194.858C206.946 195.051 207.038 195.282 207.038 195.551V197.146C207.038 197.415 206.946 197.646 206.764 197.839C206.581 198.032 206.361 198.129 206.103 198.129H200.318C199.491 198.473 198.637 198.645 197.756 198.645ZM198.079 195.051C198.508 195.051 198.954 194.847 199.416 194.439C199.878 194.02 200.265 193.445 200.576 192.715L200.689 190.588C200.173 190.18 199.647 189.976 199.11 189.976C198.562 189.976 198.127 190.137 197.805 190.459C197.482 190.771 197.251 191.168 197.112 191.651C196.972 192.124 196.902 192.602 196.902 193.085C196.902 194.396 197.294 195.051 198.079 195.051Z" fill="black"/>
<path d="M44.4712 243.092H35.1108C34.8911 243.092 34.7065 243.018 34.5571 242.868C34.4077 242.71 34.333 242.521 34.333 242.301V240.983C34.333 240.561 34.5747 239.985 35.0581 239.256C35.5503 238.526 36.1392 237.713 36.8247 236.817C37.5103 235.912 38.187 234.971 38.855 233.996C39.5229 233.02 40.0854 232.044 40.5425 231.069C40.9995 230.093 41.228 229.175 41.228 228.313C41.228 226.802 40.7798 226.046 39.8833 226.046C39.5669 226.046 39.3032 226.129 39.0923 226.296C38.8813 226.455 38.71 226.657 38.5781 226.903C38.4463 227.149 38.3452 227.404 38.2749 227.667C38.187 228.001 38.0596 228.208 37.8926 228.287C37.8135 228.322 37.7168 228.34 37.6025 228.34C37.4883 228.34 36.7632 228.164 35.4272 227.812C35.1108 227.733 34.9526 227.562 34.9526 227.298C34.9526 227.167 34.979 227.026 35.0317 226.876C35.2778 226.156 35.6558 225.567 36.1655 225.11C36.6841 224.644 37.2817 224.301 37.9585 224.082C38.644 223.853 39.3472 223.739 40.0679 223.739C41.1841 223.739 42.0938 223.95 42.7969 224.372C43.5088 224.793 44.0317 225.365 44.3657 226.085C44.6997 226.797 44.8667 227.606 44.8667 228.511C44.8667 231.763 43.1616 235.657 39.7515 240.192C40.3667 240.192 41.2148 240.095 42.2959 239.902C43.333 239.708 44.0801 239.612 44.5371 239.612C44.7393 239.612 44.9062 239.695 45.0381 239.862C45.1699 240.021 45.2358 240.201 45.2358 240.403V242.301C45.2358 242.521 45.1611 242.71 45.0117 242.868C44.8711 243.018 44.6909 243.092 44.4712 243.092ZM52.5264 243.514C50.3818 243.514 48.8042 242.486 47.7935 240.429C47.0376 238.9 46.6597 237.054 46.6597 234.892C46.6597 233.257 46.875 231.636 47.3057 230.027C47.9648 227.54 48.9668 225.738 50.3115 224.622C50.9883 224.068 51.7266 223.792 52.5264 223.792C53.335 223.792 54.0732 224.073 54.7412 224.635C55.418 225.189 56.0112 225.936 56.521 226.876C57.0308 227.808 57.4395 228.858 57.7471 230.027C58.0635 231.196 58.248 232.198 58.3008 233.033C58.3623 233.859 58.3931 234.479 58.3931 234.892C58.3931 237.072 58.0239 238.917 57.2856 240.429C56.2661 242.486 54.6797 243.514 52.5264 243.514ZM52.5264 240.614C53.291 240.614 53.8184 239.656 54.1084 237.74C54.2578 236.764 54.3325 235.723 54.3325 234.615C54.3325 232.559 54.1787 230.691 53.8711 229.012C53.5195 227.105 53.0713 226.151 52.5264 226.151C51.999 226.151 51.5552 227.105 51.1948 229.012C50.8872 230.629 50.7334 232.409 50.7334 234.352C50.7334 235.617 50.8081 236.747 50.9575 237.74C51.2388 239.656 51.7617 240.614 52.5264 240.614ZM67.292 243.092H66.6328C66.4131 243.092 66.2812 243.057 66.2373 242.987C66.2021 242.908 66.1846 242.833 66.1846 242.763C66.1846 242.692 67.9775 236.716 71.5635 224.833C71.625 224.613 71.7129 224.455 71.8271 224.358C71.9502 224.253 72.1216 224.2 72.3413 224.2H73.0005C73.2202 224.2 73.3477 224.24 73.3828 224.319C73.4268 224.389 73.4487 224.459 73.4487 224.53C73.4487 224.609 71.6558 230.59 68.0698 242.473C67.9468 242.886 67.6875 243.092 67.292 243.092ZM80.0933 236.58H75.5449C75.3252 236.58 75.1406 236.5 74.9912 236.342C74.8506 236.184 74.7803 235.995 74.7803 235.775V234.998C74.7803 234.778 74.8506 234.593 74.9912 234.444C75.1406 234.286 75.3252 234.207 75.5449 234.207H80.0933C80.313 234.207 80.4932 234.286 80.6338 234.444C80.7832 234.593 80.8579 234.778 80.8579 234.998V235.775C80.8579 235.995 80.7832 236.184 80.6338 236.342C80.4932 236.5 80.313 236.58 80.0933 236.58ZM95.3994 245.109H94.9512C94.7402 245.109 94.5557 245.035 94.3975 244.885C94.2393 244.745 94.1602 244.564 94.1602 244.345V222.948C94.1602 222.728 94.2129 222.548 94.3184 222.407C94.4238 222.258 94.5864 222.183 94.8062 222.183H95.584C95.9971 222.183 96.2036 222.438 96.2036 222.948V244.345C96.2036 244.564 96.1245 244.745 95.9663 244.885C95.8081 245.035 95.6191 245.109 95.3994 245.109ZM115.953 243.092H110.508C110.288 243.092 110.104 243.018 109.954 242.868C109.813 242.71 109.743 242.521 109.743 242.301V240.983C109.743 240.772 109.813 240.587 109.954 240.429C110.104 240.271 110.288 240.192 110.508 240.192C110.596 240.192 110.648 240.073 110.666 239.836L111.352 228.617C111.229 228.731 111.097 228.85 110.956 228.973C110.815 229.087 110.653 229.144 110.468 229.144C110.451 229.144 110.385 229.14 110.271 229.131C110.156 229.122 110.024 229.039 109.875 228.88L109.348 228.287C109.207 228.129 109.137 227.953 109.137 227.76C109.137 227.742 109.137 227.681 109.137 227.575C109.146 227.47 109.229 227.342 109.387 227.193L112.512 224.398C112.644 224.275 112.793 224.213 112.96 224.213H114.041C114.261 224.213 114.441 224.288 114.582 224.438C114.731 224.587 114.814 224.776 114.832 225.004L115.781 239.836C115.799 240.073 115.856 240.192 115.953 240.192C116.172 240.192 116.353 240.271 116.493 240.429C116.643 240.587 116.717 240.772 116.717 240.983V242.301C116.717 242.521 116.643 242.71 116.493 242.868C116.353 243.018 116.172 243.092 115.953 243.092ZM123.283 240.587C123.933 240.587 124.412 240.354 124.72 239.889C125.036 239.414 125.194 238.821 125.194 238.109C125.194 237.599 125.076 237.151 124.838 236.764C124.583 236.342 124.232 235.942 123.784 235.564C123.388 235.248 122.848 234.848 122.162 234.365C121.151 235.666 120.646 236.949 120.646 238.214C120.646 238.917 120.879 239.489 121.345 239.928C121.819 240.368 122.465 240.587 123.283 240.587ZM125.313 231.623C125.893 230.638 126.183 229.654 126.183 228.669C126.183 226.947 125.401 226.085 123.836 226.085C123.467 226.085 123.116 226.16 122.782 226.31C122.457 226.45 122.188 226.666 121.978 226.956C121.775 227.246 121.674 227.597 121.674 228.01C121.674 228.836 122.584 229.83 124.403 230.99C124.711 231.192 125.014 231.403 125.313 231.623ZM123.691 243.541C122.566 243.541 121.564 243.352 120.686 242.974C119.815 242.587 119.13 242.046 118.629 241.352C118.137 240.649 117.891 239.818 117.891 238.86C117.891 237.103 118.818 235.217 120.672 233.205C120.567 233.125 120.466 233.038 120.369 232.941C118.831 231.623 118.062 230.071 118.062 228.287C118.062 227.329 118.312 226.512 118.813 225.835C119.314 225.158 119.969 224.64 120.778 224.279C121.586 223.919 122.452 223.739 123.375 223.739C126.829 223.739 128.556 225.264 128.556 228.313C128.556 229.315 128.284 230.331 127.739 231.359C127.475 231.86 127.159 232.334 126.79 232.783C127.422 233.336 127.976 233.974 128.451 234.694C129.101 235.679 129.426 236.905 129.426 238.373C129.426 239.357 129.207 240.24 128.767 241.022C128.336 241.796 127.699 242.411 126.855 242.868C126.012 243.316 124.957 243.541 123.691 243.541ZM136.743 243.514C134.599 243.514 133.021 242.486 132.01 240.429C131.254 238.9 130.876 237.054 130.876 234.892C130.876 233.257 131.092 231.636 131.522 230.027C132.182 227.54 133.184 225.738 134.528 224.622C135.205 224.068 135.943 223.792 136.743 223.792C137.552 223.792 138.29 224.073 138.958 224.635C139.635 225.189 140.228 225.936 140.738 226.876C141.248 227.808 141.656 228.858 141.964 230.027C142.28 231.196 142.465 232.198 142.518 233.033C142.579 233.859 142.61 234.479 142.61 234.892C142.61 237.072 142.241 238.917 141.502 240.429C140.483 242.486 138.896 243.514 136.743 243.514ZM136.743 240.614C137.508 240.614 138.035 239.656 138.325 237.74C138.475 236.764 138.549 235.723 138.549 234.615C138.549 232.559 138.396 230.691 138.088 229.012C137.736 227.105 137.288 226.151 136.743 226.151C136.216 226.151 135.772 227.105 135.412 229.012C135.104 230.629 134.95 232.409 134.95 234.352C134.95 235.617 135.025 236.747 135.174 237.74C135.456 239.656 135.979 240.614 136.743 240.614ZM155.714 230.871C155.758 231.354 156.022 234.343 156.505 239.836C156.523 240.073 156.576 240.192 156.664 240.192C156.883 240.192 157.063 240.271 157.204 240.429C157.354 240.587 157.428 240.776 157.428 240.996V242.301C157.428 242.521 157.354 242.71 157.204 242.868C157.063 243.026 156.883 243.105 156.664 243.105H151.232C151.012 243.105 150.828 243.026 150.678 242.868C150.529 242.71 150.454 242.521 150.454 242.301V240.996C150.454 240.776 150.529 240.587 150.678 240.429C150.828 240.271 151.012 240.192 151.232 240.192C151.32 240.192 151.373 240.073 151.39 239.836C151.917 234.035 152.181 231.034 152.181 230.832C152.181 230.48 152.067 230.304 151.838 230.304C151.619 230.304 151.438 230.229 151.298 230.08C151.166 229.922 151.1 229.733 151.1 229.513V228.973C151.1 228.753 151.175 228.568 151.324 228.419C151.482 228.261 151.671 228.182 151.891 228.182H155.688C156.338 227.892 156.984 227.747 157.626 227.747C159.059 227.747 160.17 228.19 160.961 229.078C161.225 228.841 161.511 228.63 161.818 228.445C162.592 227.979 163.392 227.747 164.218 227.747C165.94 227.747 167.193 228.388 167.975 229.671C168.766 230.946 169.245 233.068 169.412 236.039L169.636 239.836C169.654 240.073 169.707 240.192 169.794 240.192C170.014 240.192 170.194 240.271 170.335 240.429C170.484 240.587 170.559 240.776 170.559 240.996V242.301C170.559 242.521 170.484 242.71 170.335 242.868C170.194 243.026 170.014 243.105 169.794 243.105H165.207C164.987 243.105 164.802 243.026 164.653 242.868C164.512 242.71 164.442 242.521 164.442 242.301V240.996C164.442 240.776 164.512 240.587 164.653 240.429C164.802 240.271 164.987 240.192 165.207 240.192C165.294 240.192 165.347 240.073 165.365 239.836C165.558 236.883 165.655 235.182 165.655 234.734C165.655 233.503 165.536 232.488 165.299 231.688C164.991 230.616 164.481 230.08 163.77 230.08C163.172 230.08 162.601 230.44 162.056 231.161C162.451 232.4 162.706 234.026 162.82 236.039L163.044 239.836C163.062 240.073 163.119 240.192 163.216 240.192C163.436 240.192 163.616 240.271 163.756 240.429C163.906 240.587 163.98 240.776 163.98 240.996V242.301C163.98 242.521 163.906 242.71 163.756 242.868C163.616 243.026 163.436 243.105 163.216 243.105H158.615C158.395 243.105 158.21 243.026 158.061 242.868C157.92 242.71 157.85 242.521 157.85 242.301V240.996C157.85 240.776 157.92 240.587 158.061 240.429C158.21 240.271 158.395 240.192 158.615 240.192C158.711 240.192 158.769 240.073 158.786 239.836C158.971 236.848 159.063 235.138 159.063 234.708C159.063 233.486 158.949 232.479 158.72 231.688C158.404 230.616 157.894 230.08 157.191 230.08C156.681 230.08 156.189 230.344 155.714 230.871ZM177.995 243.105H172.55C172.33 243.105 172.146 243.026 171.996 242.868C171.855 242.71 171.785 242.521 171.785 242.301V240.996C171.785 240.776 171.855 240.587 171.996 240.429C172.146 240.271 172.33 240.192 172.55 240.192C172.646 240.192 172.704 240.073 172.721 239.836C173.24 231.363 173.499 227.03 173.499 226.837C173.499 226.503 173.389 226.336 173.169 226.336C172.95 226.336 172.77 226.261 172.629 226.112C172.488 225.954 172.418 225.765 172.418 225.545V225.004C172.418 224.785 172.497 224.6 172.655 224.451C172.813 224.292 173.002 224.213 173.222 224.213H176.096C176.307 224.213 176.487 224.292 176.637 224.451C176.786 224.6 176.87 224.785 176.887 225.004L177.836 239.836C177.854 240.073 177.907 240.192 177.995 240.192C178.214 240.192 178.395 240.271 178.535 240.429C178.685 240.587 178.759 240.776 178.759 240.996V242.301C178.759 242.521 178.685 242.71 178.535 242.868C178.395 243.026 178.214 243.105 177.995 243.105ZM193.301 245.109H192.853C192.642 245.109 192.457 245.035 192.299 244.885C192.141 244.745 192.062 244.564 192.062 244.345V222.948C192.062 222.728 192.114 222.548 192.22 222.407C192.325 222.258 192.488 222.183 192.708 222.183H193.485C193.898 222.183 194.105 222.438 194.105 222.948V244.345C194.105 244.564 194.026 244.745 193.868 244.885C193.709 245.035 193.521 245.109 193.301 245.109ZM213.854 243.092H208.409C208.189 243.092 208.005 243.018 207.855 242.868C207.715 242.71 207.645 242.521 207.645 242.301V240.983C207.645 240.772 207.715 240.587 207.855 240.429C208.005 240.271 208.189 240.192 208.409 240.192C208.497 240.192 208.55 240.073 208.567 239.836L209.253 228.617C209.13 228.731 208.998 228.85 208.857 228.973C208.717 229.087 208.554 229.144 208.37 229.144C208.352 229.144 208.286 229.14 208.172 229.131C208.058 229.122 207.926 229.039 207.776 228.88L207.249 228.287C207.108 228.129 207.038 227.953 207.038 227.76C207.038 227.742 207.038 227.681 207.038 227.575C207.047 227.47 207.13 227.342 207.289 227.193L210.413 224.398C210.545 224.275 210.694 224.213 210.861 224.213H211.942C212.162 224.213 212.342 224.288 212.483 224.438C212.632 224.587 212.716 224.776 212.733 225.004L213.683 239.836C213.7 240.073 213.757 240.192 213.854 240.192C214.074 240.192 214.254 240.271 214.395 240.429C214.544 240.587 214.619 240.772 214.619 240.983V242.301C214.619 242.521 214.544 242.71 214.395 242.868C214.254 243.018 214.074 243.092 213.854 243.092ZM227.829 243.541C225.948 243.541 224.502 242.789 223.491 241.286C222.595 239.977 222.146 238.342 222.146 236.382C222.146 234.729 222.388 233.253 222.872 231.952C223.364 230.651 224.062 229.627 224.968 228.88C225.882 228.133 226.967 227.76 228.224 227.76C229.296 227.76 230.21 228.05 230.966 228.63C231.731 229.21 232.289 229.948 232.641 230.845C232.702 230.994 232.733 231.135 232.733 231.267C232.733 231.513 232.57 231.68 232.245 231.768C230.883 232.128 230.153 232.308 230.057 232.308C229.951 232.308 229.859 232.291 229.78 232.255C229.613 232.176 229.485 231.97 229.397 231.636C229.266 231.1 229.116 230.695 228.949 230.423C228.782 230.15 228.541 230.014 228.224 230.014C227.793 230.014 227.416 230.322 227.09 230.937C226.765 231.552 226.515 232.312 226.339 233.218C226.163 234.123 226.075 235.046 226.075 235.986C226.075 236.865 226.146 237.643 226.286 238.32C226.603 239.84 227.209 240.601 228.105 240.601C228.87 240.601 229.38 240.082 229.635 239.045C229.723 238.711 229.833 238.513 229.964 238.452C230.105 238.39 230.228 238.359 230.333 238.359C230.5 238.359 230.703 238.399 230.94 238.478C231.309 238.601 231.683 238.724 232.061 238.847C232.438 238.961 232.671 239.084 232.759 239.216C232.847 239.348 232.891 239.48 232.891 239.612C232.891 239.7 232.874 239.801 232.838 239.915C232.17 242.332 230.5 243.541 227.829 243.541ZM238.389 243.554C237.334 243.554 236.473 243.29 235.805 242.763C235.146 242.227 234.658 241.523 234.341 240.653C234.034 239.783 233.88 238.847 233.88 237.845C233.88 236.852 233.977 235.736 234.17 234.497C234.372 233.257 234.618 232.11 234.908 231.056C234.943 230.941 234.961 230.84 234.961 230.752C234.961 230.656 234.943 230.572 234.908 230.502C234.838 230.37 234.737 230.304 234.605 230.304C234.376 230.304 234.192 230.229 234.051 230.08C233.919 229.922 233.854 229.733 233.854 229.513V228.973C233.854 228.753 233.928 228.568 234.078 228.419C234.236 228.261 234.425 228.182 234.645 228.182H238.586C238.806 228.182 238.995 228.261 239.153 228.419C239.312 228.568 239.391 228.753 239.391 228.973V229.513C239.391 229.733 239.32 229.922 239.18 230.08C239.039 230.229 238.854 230.304 238.626 230.304C238.521 230.304 238.455 230.344 238.428 230.423C238.384 230.546 238.283 231.144 238.125 232.216C237.976 233.279 237.901 234.8 237.901 236.777C237.901 237.683 237.962 238.403 238.085 238.939C238.208 239.476 238.362 239.862 238.547 240.1C238.74 240.337 238.938 240.456 239.14 240.456C239.483 240.456 239.76 240.284 239.971 239.941C240.182 239.599 240.313 239.172 240.366 238.663C240.946 233.547 241.236 230.928 241.236 230.805C241.236 230.471 241.122 230.304 240.894 230.304C240.674 230.304 240.494 230.229 240.353 230.08C240.221 229.922 240.155 229.733 240.155 229.513V228.973C240.155 228.753 240.23 228.568 240.379 228.419C240.538 228.261 240.727 228.182 240.946 228.182H244.756C244.976 228.182 245.161 228.261 245.31 228.419C245.468 228.568 245.547 228.753 245.547 228.973V229.513C245.547 229.733 245.477 229.922 245.336 230.08C245.205 230.229 245.024 230.304 244.796 230.304C244.576 230.304 244.466 230.471 244.466 230.805C244.466 230.972 244.73 233.982 245.257 239.836C245.275 240.073 245.328 240.192 245.416 240.192C245.635 240.192 245.815 240.271 245.956 240.429C246.105 240.587 246.18 240.776 246.18 240.996V242.301C246.18 242.521 246.105 242.71 245.956 242.868C245.815 243.026 245.635 243.105 245.416 243.105H240.458C239.729 243.404 239.039 243.554 238.389 243.554ZM252.363 243.119L252.469 244.912C252.486 245.158 252.543 245.281 252.64 245.281C252.86 245.281 253.04 245.355 253.181 245.505C253.33 245.663 253.405 245.852 253.405 246.072V247.39C253.405 247.601 253.33 247.786 253.181 247.944C253.04 248.102 252.86 248.181 252.64 248.181H247.617C247.397 248.181 247.213 248.102 247.063 247.944C246.923 247.786 246.853 247.601 246.853 247.39V246.072C246.853 245.852 246.923 245.663 247.063 245.505C247.213 245.355 247.397 245.281 247.617 245.281C247.731 245.281 247.793 245.158 247.802 244.912C248.312 235.789 248.566 231.082 248.566 230.792C248.566 230.467 248.457 230.304 248.237 230.304C248.017 230.304 247.837 230.229 247.696 230.08C247.556 229.922 247.485 229.733 247.485 229.513V228.973C247.485 228.753 247.564 228.568 247.723 228.419C247.881 228.261 248.07 228.182 248.29 228.182H250.742C250.961 228.182 251.146 228.256 251.295 228.406C251.357 228.476 251.41 228.551 251.454 228.63L251.744 228.445C252.491 227.979 253.291 227.747 254.143 227.747C254.952 227.747 255.672 228.006 256.305 228.524C256.938 229.034 257.474 229.72 257.914 230.581C258.362 231.442 258.7 232.418 258.929 233.508C259.166 234.589 259.285 235.701 259.285 236.843C259.285 238.733 258.894 240.293 258.111 241.523C257.25 242.877 256.028 243.554 254.446 243.554C253.849 243.554 253.207 243.426 252.521 243.171L252.363 243.119ZM251.691 231.609L252.1 238.663C252.302 239.172 252.574 239.599 252.917 239.941C253.26 240.284 253.603 240.456 253.945 240.456C254.675 240.456 255.136 239.757 255.33 238.359C255.417 237.656 255.461 236.848 255.461 235.934C255.461 235.072 255.4 234.198 255.277 233.31C255.163 232.422 254.969 231.662 254.697 231.029C254.433 230.396 254.104 230.08 253.708 230.08C252.996 230.08 252.324 230.59 251.691 231.609Z" fill="black"/>
</svg>
