<svg width="282" height="272" viewBox="0 0 282 272" fill="none" xmlns="http://www.w3.org/2000/svg">
<path d="M216.706 11.5806C217.177 11.1645 217.675 10.7607 218.186 10.3691C221.211 12.8655 225.541 15.6188 224.546 19.9385C223.981 24.0135 218.831 24.7599 215.268 25.5064C204.16 27.3175 192.784 27.6356 181.529 27.3664C161.561 26.5098 141.552 26.3997 121.637 24.9802C116.904 24.2827 111.323 24.1113 107.895 20.6482C105.945 18.7025 107.101 16.0227 107.679 13.8322C109.508 12.8166 111.364 11.8376 113.287 10.9442C111.875 13.1347 110.194 15.1905 108.957 17.4789C109.32 20.8563 113.919 21.3825 116.837 22.08C128.428 23.7565 140.234 23.6219 151.933 24.197C173.381 24.5152 195.097 26.8402 216.37 23.1079C218.831 22.5083 222.556 21.7863 222.193 18.7637C221.695 15.7167 218.737 13.7833 216.706 11.5806Z" fill="#1C180D"/>
<path d="M83.987 72.1662C86.0712 71.5054 88.1958 70.9424 90.3608 70.4774C88.5051 71.8602 84.6593 71.8235 84.9014 74.6013C87.4428 75.2499 90.7239 75.1153 92.1492 77.6361C87.8328 77.3302 84.0005 75.4947 79.9261 74.4056C78.4201 74.8216 76.914 75.2376 75.4214 75.6414C75.1659 74.5279 74.9238 73.4266 74.9238 72.3007C76.6854 71.1505 78.7562 72.0927 80.6657 72.3007L79.1462 73.8549C80.4102 74.0017 82.9247 74.3076 84.1887 74.4545C83.9467 73.3164 83.4626 71.0526 83.2205 69.9268L83.987 72.1662Z" fill="#FDEEE0"/>
<path d="M111.593 72.0559C114.659 75.1886 115.129 79.5939 117.092 83.2895C118.424 85.7247 117.644 88.4781 117.415 91.0601C117.805 90.2402 118.558 88.6126 118.948 87.805C122.041 91.8187 119.284 96.6524 117.348 100.544C118.034 95.135 115.855 90.1178 114.094 85.1006L117.066 85.223C115.143 80.8666 112.44 76.7427 111.593 72.0559Z" fill="#BCDA96"/>
<path d="M90.0902 128.64C94.4335 124.553 100.364 121.922 106.63 121.641C100.996 124.945 94.6486 127.062 88.7858 129.986C81.2556 133.596 72.4749 136.717 63.8823 134.6C68.9249 133.792 74.3574 134.355 79.0369 132.128C82.533 130.512 86.2579 129.374 90.0902 128.64Z" fill="#BCDA96"/>
<path d="M234.981 45.2693C239.714 43.9232 244.865 44.9511 249.45 46.3462C258.93 50.054 264.793 59.5622 264.618 68.8012C264.605 79.1293 259.212 89.8244 249.329 95.3066C241.933 99.8099 231.794 100.165 224.049 96.2C220.001 94.5235 223.255 90.1059 223.578 87.2547C228.769 89.7388 234.847 91.4764 240.669 89.7877C247.836 88.099 252.18 81.491 252.637 75.0666C253.43 68.1771 252.57 59.8069 245.644 55.6219C241.113 52.5871 235.331 53.9454 230.45 55.3404C231.552 51.9997 230.302 46.5664 234.981 45.2693Z" fill="#FDF4E6"/>
<path d="M122.417 4.61769C140.53 1.37487 159.14 1.93775 177.482 2.75763C191.574 3.9691 206.298 4.00583 219.449 9.35342L218.185 10.3691C217.674 10.7607 217.177 11.1645 216.706 11.5806C218.736 13.7832 221.695 15.7167 222.192 18.7637C222.555 21.7863 218.831 22.5082 216.37 23.1079C195.097 26.8402 173.38 24.5151 151.933 24.197C140.234 23.6218 128.427 23.7565 116.836 22.08C113.918 21.3825 109.32 20.8563 108.956 17.4788C110.194 15.1905 111.874 13.1347 113.286 10.9442C111.363 11.8375 109.508 12.8165 107.679 13.8322C105.729 14.8479 103.739 15.7901 101.803 16.8058C104.936 9.1699 114.389 6.19627 122.417 4.61769Z" fill="#F9EDE2"/>
<path d="M54.4014 77.3304C56.4049 73.7939 60.8155 72.5824 64.9033 72.5212C62.2947 75.4459 58.4892 77.0367 54.4014 77.3304Z" fill="#FEFCF7"/>
<path d="M28.3296 129.999C28.5582 127.05 28.8674 121.102 33.7755 122.461C32.5922 125.3 31.019 128.077 28.3296 129.999Z" fill="#FEFCF7"/>
<path d="M74.0069 85.407C73.59 82.2498 73.8321 78.4318 77.5568 77.0613C77.651 80.2062 76.8576 83.3756 74.0069 85.407Z" fill="#F7EFE6"/>
<path d="M22.8691 122.497C24.8189 124.357 27.6427 126.682 26.2711 129.558C23.138 129.154 23.3263 124.7 22.8691 122.497Z" fill="#F7EFE6"/>
<path d="M32.0396 134.233C35.8853 134.575 40.4036 134.367 43.1198 137.39C39.395 137.451 33.8011 138.136 32.0396 134.233Z" fill="#F7EFE6"/>
<path d="M196.28 66.3538C203.729 66.2681 211.125 64.5671 217.848 61.6792C215.388 77.5874 208.462 93.3242 195.54 104.607C185.71 106.687 175.787 109.648 165.567 108.731C154.312 107.556 143.635 101.853 137.288 93.263C133.953 88.821 132.905 83.4122 132.044 78.1992C134.155 74.3445 136.697 70.7101 139.292 67.1125C151.421 69.5232 164.115 69.2784 176.109 66.3293C182.739 64.6161 189.57 66.109 196.28 66.3538Z" fill="#DDD38C"/>
<path d="M109.898 6.1228C120.857 1.31364 133.282 0.909837 145.209 0.175614C163.349 -0.387291 181.543 0.408135 199.548 2.48843C208.988 3.55306 218.656 5.57213 226.59 10.626C230.328 13.0367 233.622 16.7691 233.447 21.1744C233.353 28.688 232.708 36.1892 231.968 43.6661C242.484 40.3621 255.137 43.9965 261.457 52.4033C272.551 66.8675 266.177 89.0534 249.584 97.7294C240.588 102.539 228.902 102.098 220.202 96.9218C216.787 101.866 214.071 107.299 209.606 111.582C198.472 122.265 183.035 129.521 166.751 130.292C156.989 130.929 147.226 128.383 138.768 124.064C137.612 126.278 134.627 125.446 132.636 126.119C133.457 124.161 134.895 121.237 138.271 123.953C131.977 120.001 126.545 115.118 121.718 109.758C121.274 109.599 120.359 109.293 119.902 109.134C118.921 111.961 121.812 113.613 123.385 115.62C126.263 118.704 127.19 124.161 133.228 122.889C127.634 125.838 121.287 122.204 115.371 122.106C113.905 125.801 112.264 129.448 110.14 132.874C109.548 132.324 108.338 131.198 107.733 130.635C102.327 132.997 97.4595 136.423 91.4756 137.537C84.7388 138.87 78.1768 142.236 71.1037 140.951C65.2006 139.898 59.7277 136.888 55.8953 132.678C62.3498 131.748 68.9791 132.568 75.3663 131.259C75.8101 130.598 76.6841 129.289 77.1144 128.64C80.8661 128.151 85.0615 128.236 88.2215 126.034C91.6774 123.721 95.4962 121.959 99.3017 120.209C88.988 118.985 78.5129 118.985 68.1454 119.034C68.0647 121.445 69.8128 123.488 70.7002 125.691C69.1808 125.189 67.6747 124.712 66.1821 124.235C66.9217 125.887 67.6747 127.514 68.4546 129.191C65.335 129.876 62.1884 130.476 59.0419 130.941C60.3731 129.252 61.9195 127.722 63.1566 125.997C62.4708 125.581 61.0993 124.773 60.4135 124.369C61.8792 122.999 63.3852 121.653 64.7702 120.209C60.7093 121.653 57.1458 123.953 53.5555 126.156C49.7904 128.469 45.4605 130.072 42.2871 133.119C43.7931 134.771 45.2051 136.521 46.1732 138.515C43.4032 139.152 40.4987 140.241 37.6614 139.36C34.098 138.613 30.6556 136.325 26.8636 138.197C27.8721 136.9 28.9075 135.628 29.9698 134.379C28.9747 133.192 28.3965 131.589 26.8636 130.904C25.1558 131.675 23.6901 132.825 22.574 134.22C23.5557 134.771 25.5458 135.872 26.5274 136.411C26.003 136.717 24.9407 137.316 24.4028 137.622L23.596 138.075C20.2343 135.995 21.0276 132.935 22.3992 130.06C21.7807 127.612 20.7452 125.287 20.1939 122.84C18.1097 121.543 16.0927 120.221 14.116 118.838C13.2957 122.032 11.709 124.994 9.39615 127.514C5.95375 122.779 5.45617 117.015 5.64442 111.508C3.1971 109.648 -0.473851 107.727 0.0505757 104.337C1.28769 100.238 6.11511 97.7661 10.566 99.3202C13.726 94.7069 19.2527 90.7176 25.5054 91.256C29.6067 92.6143 25.8416 96.7871 24.618 98.9776C26.8502 100.25 30.1178 101.327 29.9295 104.264C30.4539 106.87 28.4234 108.951 27.0384 111.007C32.5785 112.94 38.4682 113.919 44.3041 114.849C40.6466 112.867 37.3252 110.444 34.7031 107.384C36.115 107.495 38.9389 107.715 40.3508 107.825C38.8447 106.589 37.3655 105.341 35.8998 104.08C37.0159 102.539 38.132 100.984 39.2347 99.4426C39.8801 100.936 40.4449 102.477 40.929 104.056C41.2652 102.318 42.2199 100.825 43.1611 99.3325C44.5731 104.582 47.1549 109.55 47.0473 115.02C63.8827 117.443 81.0544 116.146 97.9839 117.786C107.087 118.606 116.124 119.952 125.12 121.42C119.58 112.867 109.279 108.535 99.2345 105.794C94.7163 104.325 90.0772 102.832 85.196 103.15C84.3623 105.402 83.2865 107.641 80.8258 108.779C81.1754 106.834 81.5922 104.913 81.9284 102.967C78.6743 104.68 77.3699 108.253 74.0217 109.783C74.3847 108.094 74.7747 106.405 75.1781 104.717C72.1391 106.161 69.8128 108.657 66.5048 109.624C66.1956 108.951 65.5905 107.605 65.2812 106.932C63.8424 107.849 62.417 108.755 60.9647 109.648C60.8841 108.877 60.7496 107.311 60.669 106.528C59.7815 106.65 58.0065 106.895 57.119 107.017C58.4502 104.974 59.378 102.771 59.1898 100.348C61.6774 102.453 64.4475 104.423 68.0109 104.704C67.1503 103.15 66.3301 101.609 65.5502 100.054C68.495 101.376 71.3457 102.881 74.3713 104.08C73.8738 103.102 72.8653 101.119 72.3677 100.14C74.5596 100.054 79.4138 102.526 77.6926 98.6716C71.9374 95.5757 65.9535 92.7734 60.9513 88.6617C60.3327 91.3049 60.0504 94.9638 56.5408 95.7225C54.3489 96.8239 52.3992 94.9516 50.5973 94.1195C49.3198 95.7348 47.9885 97.3134 46.5766 98.8552C40.8752 94.8415 43.5915 87.4748 45.7026 82.3597C43.7932 79.1903 43.4705 74.7482 46.4826 72.0561C48.9433 70.4163 51.9285 72.0071 54.1203 73.2798C57.2669 71.8235 60.4404 70.1471 64.0441 69.8901C65.4157 70.1594 66.7872 70.453 68.1722 70.7712C66.6393 73.0595 64.9585 75.2744 63.1566 77.4036C65.9535 78.8843 69.1808 81.2461 67.2848 84.5746C64.1517 87.9887 59.5529 85.2843 55.8684 84.4277C54.591 83.2652 53.3135 82.1394 52.0092 81.0381C52.3588 85.1497 50.0728 91.8189 55.0885 94.0216C59.2167 93.0059 58.1813 89.1268 57.4686 86.2388C62.3498 86.5325 66.1687 89.5184 70.122 91.8312C80.0055 97.7417 91.2202 101.449 102.502 104.509C98.5083 97.0441 94.0709 89.7876 90.0503 82.3597C86.5675 84.4155 82.8428 86.6793 78.5802 84.9661C76.5766 85.9573 74.5595 86.8996 72.5156 87.7807C70.902 82.4086 72.4081 76.9142 73.0266 71.5299C74.6537 67.614 79.4407 70.0981 82.6814 70.453C79.9517 66.8798 76.711 63.6736 73.3896 60.5654C72.9728 65.4847 69.3152 70.7222 63.1297 69.6943C61.6236 68.287 60.3328 66.7329 58.8805 65.3134C56.3256 65.962 53.9993 67.9566 51.2292 67.4672C48.0289 61.728 53.5017 55.5605 58.0871 51.8894C57.0248 48.1571 58.6519 44.2902 62.2826 42.2834C66.0746 41.0719 69.2346 44.0699 71.413 46.4317C70.3641 46.1869 68.2664 45.6852 67.2176 45.4405C64.0172 43.5927 61.5429 45.4895 59.768 47.9369L60.2924 49.5277C61.5967 51.3143 63.5735 52.5869 65.1871 54.1655C63.7483 57.3226 61.5564 60.4676 61.5833 63.9919C61.664 66.8921 65.967 68.7888 68.2933 66.525C71.897 63.2944 69.8665 58.5709 67.8495 55.1323C66.5317 54.2267 65.2543 53.3089 64.0172 52.3911C65.2543 52.0852 67.742 51.4978 68.9926 51.1919C69.638 49.6378 69.1405 46.811 71.6012 46.603C77.4775 46.3705 83.6765 46.3705 88.8669 49.2952C86.6079 51.9261 83.2596 53.2599 79.8038 54.0921C81.5384 55.9888 84.3084 57.6775 84.1471 60.4676C83.0848 61.7525 81.7536 62.8293 80.503 63.9429C82.036 65.7295 83.542 67.5528 85.1018 69.3395C87.8853 68.801 90.7361 68.3482 93.6137 68.4828C94.8374 70.3918 92.148 71.9214 91.5563 73.6591C92.6993 74.5524 93.8692 75.4213 95.0928 76.2778C93.9499 77.6239 92.7935 78.9578 91.6101 80.2794C93.6003 83.718 95.4156 87.2545 97.7015 90.5585C100.001 87.7929 98.0511 84.4522 97.4191 81.5153L99.2076 81.6744C99.9068 82.225 101.292 83.3387 101.991 83.8893C100.942 81.1482 99.611 78.5172 98.5756 75.8006C99.3555 76.0576 100.915 76.5838 101.695 76.853C102.448 75.923 103.215 75.0174 103.995 74.1241C99.6782 56.723 97.7419 38.7958 98.6159 20.9786C98.6562 14.4685 103.564 8.76601 109.898 6.1228ZM122.417 4.61767C114.389 6.19625 104.936 9.16988 101.803 16.8058C99.342 36.6298 102.126 56.8699 107.155 76.2412C106.55 76.7674 105.326 77.8442 104.707 78.3827C105.353 77.8687 106.644 76.853 107.289 76.3513C108.311 80.0836 109.763 83.7057 111.108 87.3646C111 86.1531 110.906 84.9417 110.812 83.7547C111.175 83.2652 111.874 82.2985 112.238 81.809C111.108 78.1869 109.279 74.7727 107.948 71.2117C109.669 70.5509 112.507 69.9146 111.579 67.5651C110.906 60.8102 108.257 54.4591 106.2 48.0225C106.724 46.2236 107.491 44.4615 108.567 42.8952C114.066 38.4164 122.134 38.1717 128.965 39.8604C139.131 42.2833 149.27 45.5261 159.92 45.4405C172.937 45.5751 184.514 38.3674 197.585 38.7713C204.201 39.0527 211.341 39.3954 217.096 42.7239C220.74 44.9632 221.063 49.2707 220.901 52.9051C220.538 73.8794 211.529 95.331 193.739 109.122C184.622 115.791 173.273 120.784 161.359 120.466C147.926 119.756 136.939 111.374 128.71 102.331C127.19 104.435 125.442 106.393 123.493 108.18C129.584 114.947 136.59 121.31 145.626 124.724C160.713 131.296 178.786 128.518 192.824 121.029C200.166 116.807 206.971 111.667 211.959 105.145C219.503 95.0373 222.623 82.8492 225.272 71.0404C228.781 55.0221 230.247 38.6734 230.933 22.3736C231.511 16.0349 224.962 11.8375 219.449 9.3534C206.298 4.00581 191.574 3.96908 177.482 2.75761C159.14 1.93773 140.53 1.37485 122.417 4.61767ZM110.395 43.8497C110.61 47.7655 111.431 52.1464 115.263 54.5571C131.964 65.9865 154.501 69.4251 174.617 64.6037C182.578 62.2664 190.807 64.3712 198.902 64.2121C205.263 63.4045 212.511 62.9762 217.446 58.7911C218.952 55.0588 218.831 50.6657 217.661 46.86C216.303 43.3847 211.838 43.0053 208.504 42.2344C203.582 41.4512 198.593 40.7537 193.604 41.182C184.299 41.6837 175.881 45.9055 166.697 47.0068C156.141 48.3774 145.451 46.5051 135.353 43.7151C127.285 41.2432 118.141 39.5789 110.395 43.8497ZM234.98 45.2691C230.301 46.5662 231.551 51.9996 230.449 55.3403C235.33 53.9452 241.112 52.5869 245.644 55.6217C252.569 59.8068 253.429 68.1769 252.636 75.0664C252.179 81.4908 247.835 88.0988 240.668 89.7875C234.846 91.4762 228.768 89.7386 223.577 87.2545C223.255 90.1058 220.001 94.5233 224.048 96.1998C231.793 100.165 241.932 99.8097 249.328 95.3064C259.212 89.8242 264.604 79.1291 264.617 68.801C264.792 59.562 258.929 50.0538 249.449 46.346C244.864 44.951 239.714 43.923 234.98 45.2691ZM71.8567 49.1361C71.1978 50.6535 70.5658 52.1831 69.9204 53.7127C72.6904 56.258 75.0571 59.1704 78.1364 61.4343C79.508 61.0917 80.8526 60.6634 82.1704 60.1372C79.6693 56.1724 74.9495 54.3246 71.1575 51.608C75.837 51.4611 81.1216 52.6359 85.1153 49.699C80.8123 48.4631 76.2539 48.512 71.8567 49.1361ZM52.3588 65.754C57.993 63.9919 60.9244 58.8768 62.3229 53.9575L60.6017 53.4435C55.223 55.4504 52.695 60.7491 52.3588 65.754ZM111.928 55.2057C113.219 62.9028 114.752 70.6121 117.563 77.9911L117.805 77.1222C119.593 85.3455 124.447 93.1405 129.96 99.9076C137.8 108.853 148.154 117.688 161.413 118.324C174.322 118.691 186.383 112.451 195.541 104.607C208.463 93.3241 215.388 77.5872 217.849 61.6791C211.126 64.567 203.73 66.268 196.28 66.3536C189.57 66.1089 182.739 64.6159 176.11 66.3291C164.115 69.2782 151.422 69.523 139.293 67.1123C129.45 64.6649 120.225 60.6022 111.928 55.2057ZM230.435 58.1425C228.768 67.1001 226.737 75.9964 224.667 84.8805C230.489 88.6495 239.364 89.6407 245.039 85.1008C250.014 81.0993 250.485 74.5035 250.229 68.8622C250.095 63.8695 247.486 58.2771 241.946 56.5517C238.019 55.1445 234.053 56.8454 230.435 58.1425ZM83.9857 72.1662L83.2193 69.9268C83.4613 71.0526 83.9454 73.3165 84.1875 74.4545C82.9235 74.3077 80.4089 74.0018 79.1449 73.8549L80.6644 72.3008C78.755 72.0928 76.6841 71.1505 74.9226 72.3008C74.9226 73.4266 75.1646 74.5279 75.4201 75.6415C76.9127 75.2377 78.4188 74.8217 79.9248 74.4056C83.9992 75.4947 87.8315 77.3302 92.148 77.6361C90.7226 75.1153 87.4416 75.2499 84.9001 74.6014C84.6581 71.8236 88.5039 71.8603 90.3595 70.4775C88.1946 70.9425 86.07 71.5054 83.9857 72.1662ZM54.4027 77.3302C58.4905 77.0365 62.296 75.4457 64.9047 72.5211C60.8168 72.5823 56.4063 73.7937 54.4027 77.3302ZM111.592 72.0561C112.439 76.7428 115.142 80.8667 117.065 85.2231L114.093 85.1008C115.855 90.118 118.033 95.1352 117.347 100.544C119.284 96.6526 122.04 91.8189 118.948 87.8051C118.558 88.6128 117.805 90.2403 117.415 91.0602C117.643 88.4782 118.423 85.7248 117.092 83.2897C115.129 79.5941 114.658 75.1887 111.592 72.0561ZM47.612 73.7203C47.2086 75.9352 45.3396 78.7864 47.9886 80.4752C51.0545 81.6132 53.9052 78.3336 52.9101 75.7883C51.9823 73.8794 49.4677 74.0874 47.612 73.7203ZM79.75 76.1433C79.8979 78.505 79.0642 81.295 80.9199 83.3019C82.6411 84.6847 84.3488 82.4086 85.9893 81.9559C84.8463 79.2759 82.4394 77.4649 79.75 76.1433ZM74.0082 85.4067C76.8589 83.3754 77.6523 80.206 77.5582 77.061C73.8334 78.4316 73.5913 82.2496 74.0082 85.4067ZM54.322 78.8354C56.6886 80.9769 59.4318 82.8981 62.5649 84.0362C64.1516 84.5746 65.7653 83.0694 65.3215 81.6009C62.6321 78.7252 58.0871 78.8232 54.322 78.8354ZM87.5492 78.9088C86.8096 80.5608 87.4147 81.2094 89.351 80.879C90.0637 79.2148 89.4721 78.554 87.5492 78.9088ZM103.013 84.6602C104.29 85.3822 105.622 86.1776 106.886 86.9975C103.739 88.1233 100.942 89.8487 98.3604 91.8067C100.673 96.3099 103.201 100.728 105.407 105.292C108.876 106.638 112.305 108.106 115.828 109.404C114.739 104.778 112.359 100.556 109.71 96.5424C110.18 96.0529 111.108 95.074 111.579 94.5845C110.436 91.8679 109.347 89.1268 108.499 86.3367L107.343 86.9608C107.155 84.9661 107.773 82.6289 105.985 81.1237C104.896 82.2251 103.941 83.4365 103.013 84.6602ZM46.1598 96.2487C49.8576 92.235 50.019 86.8996 49.387 81.9559C45.4606 85.835 45.2588 91.305 46.1598 96.2487ZM12.1931 103.15C17.5718 101.437 23.1791 98.6961 25.3306 93.5566C19.2795 93.2384 12.4352 97.2767 12.1931 103.15ZM122.793 94.1562C121.449 97.4112 120.319 100.74 119.432 104.129C120.185 104.668 121.704 105.732 122.457 106.259C123.708 104.79 125.2 103.444 126.115 101.755C127.89 98.8063 124.286 96.469 122.793 94.1562ZM79.6021 100.715C80.1399 102.184 82.6545 102.428 83.932 101.572C84.7522 99.6016 80.0055 98.6962 79.6021 100.715ZM5.88654 101.364C4.21913 102.257 2.25587 103.469 2.7534 105.537C2.49791 109.134 10.4047 111.521 10.7678 106.956C12.1393 104.264 9.50374 99.3936 5.88654 101.364ZM13.6453 105.096C13.6453 105.72 13.6588 106.968 13.6588 107.592C17.0877 108.547 20.557 109.722 24.2146 109.697C27.3746 108.62 29.2302 104.643 26.487 102.306C21.942 100.556 17.6794 103.579 13.6453 105.096ZM8.13214 112.132C7.80942 116.171 7.59425 120.515 10.1357 124.088C11.8435 120.062 12.0586 115.718 10.5526 111.618C14.6538 114.176 16.254 119.34 21.31 120.698C23.5556 114.91 16.5767 112.414 12.4082 109.832C10.9829 110.591 9.5575 111.361 8.13214 112.132ZM20.2881 111.484C21.4445 112.818 22.7085 114.09 23.7304 115.547C24.2683 118.373 24.228 121.457 26.7425 123.586C28.3696 122.093 29.6336 119.548 32.4171 119.903C33.7349 120.625 34.9452 121.494 36.0613 122.497C35.8192 123.329 35.3351 124.969 35.093 125.789C38.5758 125.483 41.803 126.572 44.4386 128.64C50.2342 125.605 55.8415 122.289 61.3951 118.912C52.1033 117.749 42.6098 117.627 33.5601 115.192C29.0823 114.103 24.8331 112.353 20.2881 111.484ZM28.3293 129.999C31.0187 128.077 32.5919 125.299 33.7753 122.46C28.8672 121.102 28.5579 127.049 28.3293 129.999ZM90.0906 128.64C86.2583 129.374 82.5335 130.512 79.0373 132.128C74.3578 134.355 68.9253 133.792 63.8828 134.6C72.4753 136.717 81.256 133.596 88.7863 129.986C94.6491 127.062 100.996 124.945 106.63 121.641C100.364 121.922 94.434 124.553 90.0906 128.64ZM22.8699 122.497C23.3271 124.7 23.1388 129.154 26.2719 129.558C27.6435 126.682 24.8197 124.357 22.8699 122.497ZM67.1369 138.173C76.0387 140.865 84.9943 137.28 93.1296 134.184C98.8983 133.547 103.39 129.68 108.997 128.432C112.103 127.796 111.565 124.051 112.681 121.971C97.4192 127.221 83.9992 137.243 67.1369 138.173ZM30.4001 132.005C34.2056 132.287 38.4413 133.168 41.9241 131.247C41.3189 125.312 32.4306 128.249 30.4001 132.005ZM32.0406 134.233C33.8021 138.136 39.3961 137.451 43.1208 137.39C40.4046 134.367 35.8864 134.575 32.0406 134.233Z" fill="#1B150F"/>
<path d="M219.449 9.35352C224.962 11.8376 231.511 16.035 230.933 22.3738C230.247 38.6735 228.781 55.0222 225.272 71.0405C222.623 82.8493 219.503 95.0374 211.959 105.145C206.971 111.668 200.166 116.807 192.824 121.029C191.386 119.193 189.974 117.382 188.548 115.559C190.512 114.201 192.475 112.842 194.465 111.496C194.277 110.909 193.914 109.722 193.739 109.122C211.529 95.3311 220.538 73.8795 220.901 52.9052C221.063 49.2708 220.74 44.9634 217.096 42.724C211.341 39.3955 204.201 39.0528 197.585 38.7714C184.514 38.3675 172.937 45.5752 159.92 45.4406C149.27 45.5262 139.131 42.2834 128.965 39.8605C122.134 38.1718 114.066 38.4166 108.567 42.8953C107.491 44.4617 106.724 46.2237 106.2 48.0226C108.257 54.4593 110.906 60.8103 111.579 67.5652C112.507 69.9147 109.669 70.551 107.948 71.2118C109.279 74.7728 111.108 78.187 112.238 81.8091C111.874 82.2986 111.175 83.2653 110.812 83.7548C110.906 84.9418 111 86.1533 111.108 87.3647C109.763 83.7058 108.311 80.0837 107.289 76.3514C106.644 76.8531 105.353 77.8688 104.707 78.3828C105.326 77.8443 106.55 76.7675 107.155 76.2413C102.126 56.87 99.342 36.6299 101.803 16.8059C103.739 15.7902 105.729 14.848 107.679 13.8323C107.101 16.0228 105.944 18.7026 107.894 20.6483C111.323 24.1114 116.904 24.2827 121.637 24.9803C141.552 26.3998 161.561 26.5099 181.529 27.3665C192.784 27.6357 204.16 27.3175 215.267 25.5064C218.831 24.76 223.981 24.0135 224.546 19.9386C225.541 15.6189 221.211 12.8656 218.185 10.3692L219.449 9.35352Z" fill="#FBEEE4"/>
<path d="M110.396 43.8498C118.142 39.5791 127.286 41.2434 135.354 43.7153C134.897 47.6801 132.705 52.7339 136.591 55.8421C143.933 60.8593 153.628 62.9396 162.691 61.667C169.119 60.9817 175.143 58.62 181.544 57.8613C188.429 57.2372 194.95 60.064 201.781 60.1619C206.73 60.5779 211.678 56.3561 211.073 51.7794C210.764 48.4877 209.513 45.3672 208.505 42.2345C211.839 43.0055 216.304 43.3849 217.662 46.8602C218.832 50.6659 218.953 55.059 217.447 58.7913C212.512 62.9764 205.264 63.4047 198.904 64.2123C190.809 64.3714 182.579 62.2666 174.619 64.6039C154.502 69.4253 131.965 65.9867 115.264 54.5573C111.432 52.1466 110.612 47.7657 110.396 43.8498Z" fill="#D2BC5D"/>
<path d="M166.698 47.0066C175.882 45.9053 184.299 41.6835 193.605 41.1818C198.593 40.7535 203.582 41.451 208.504 42.2342C209.512 45.3668 210.763 48.4873 211.072 51.779C211.677 56.3557 206.729 60.5775 201.78 60.1615C194.949 60.0636 188.428 57.2368 181.543 57.8609C175.142 58.6196 169.118 60.9813 162.69 61.6666C153.627 62.9393 143.932 60.8589 136.59 55.8418C132.704 52.7335 134.896 47.6797 135.353 43.7149C145.452 46.5049 156.142 48.3772 166.698 47.0066Z" fill="#DCD28A"/>
<path d="M59.7681 47.9369C61.543 45.4895 64.0173 43.5927 67.2177 45.4405C67.8228 45.7464 69.0599 46.3583 69.665 46.6642C69.0061 48.1938 68.1993 49.6623 67.2446 51.0696C64.8242 51.0574 62.565 50.1396 60.2925 49.5277L59.7681 47.9369Z" fill="#FBDA69"/>
<path d="M71.8563 49.1359C76.2534 48.5118 80.8118 48.4629 85.1148 49.6988C81.1211 52.6357 75.8365 51.461 71.157 51.6078C74.949 54.3244 79.6689 56.1722 82.17 60.137C80.8522 60.6632 79.5075 61.0915 78.1359 61.4341C75.0566 59.1703 72.69 56.2579 69.9199 53.7126C70.5654 52.1829 71.1974 50.6533 71.8563 49.1359Z" fill="#FEFCF2"/>
<path d="M52.3594 65.7543C52.6955 60.7494 55.2236 55.4507 60.6023 53.4438L62.3234 53.9578C60.925 58.8771 57.9936 63.9922 52.3594 65.7543Z" fill="#FAF4EA"/>
<path d="M111.927 55.2058C120.223 60.6024 129.448 64.665 139.291 67.1124C136.696 70.7101 134.154 74.3445 132.043 78.1992C131.64 78.9334 130.806 80.3774 130.389 81.1116C125.79 79.2761 121.81 76.4248 119.228 72.4723C118.731 74.0141 118.233 75.556 117.803 77.1223L117.561 77.9912C114.751 70.6123 113.218 62.9029 111.927 55.2058Z" fill="#D0BB5E"/>
<path d="M119.23 72.4724C121.812 76.425 125.792 79.2762 130.391 81.1118C130.808 80.3775 131.641 78.9336 132.045 78.1993C132.905 83.4123 133.954 88.8211 137.289 93.2632C143.636 101.854 154.313 107.556 165.568 108.731C175.787 109.649 185.711 106.687 195.541 104.607C186.384 112.451 174.322 118.692 161.413 118.325C148.154 117.688 137.8 108.853 129.961 99.9079C124.447 93.1408 119.593 85.3458 117.805 77.1225C118.235 75.5561 118.733 74.0143 119.23 72.4724Z" fill="#D8C45D"/>
<path d="M47.6103 73.7205C49.466 74.0876 51.9806 73.8795 52.9084 75.7885C53.9035 78.3338 51.0528 81.6134 47.9869 80.4753C45.3379 78.7866 47.2069 75.9354 47.6103 73.7205Z" fill="#FCE2AE"/>
<path d="M79.7497 76.1433C82.4391 77.4649 84.846 79.276 85.989 81.9559C84.3485 82.4087 82.6408 84.6847 80.9196 83.302C79.0639 81.2951 79.8976 78.5051 79.7497 76.1433Z" fill="#F6EFE5"/>
<path d="M54.3218 78.8355C58.0869 78.8232 62.6319 78.7253 65.3213 81.601C65.765 83.0694 64.1514 84.5746 62.5647 84.0362C59.4316 82.8982 56.6884 80.9769 54.3218 78.8355Z" fill="#F9F2E8"/>
<path d="M87.5485 78.9087C89.4714 78.5539 90.063 79.2146 89.3504 80.8789C87.414 81.2093 86.809 80.5607 87.5485 78.9087Z" fill="#5F5C55"/>
<path d="M46.1596 96.2487C45.2587 91.3049 45.4604 85.835 49.3869 81.9558C50.0189 86.8996 49.8575 92.2349 46.1596 96.2487Z" fill="#F7F0E5"/>
<path d="M12.1924 103.15C12.4344 97.2767 19.2788 93.2385 25.3299 93.5566C23.1784 98.6962 17.5711 101.437 12.1924 103.15Z" fill="#FBF7EC"/>
<path d="M122.792 94.1562C124.285 96.4691 127.889 98.8064 126.114 101.755C125.199 103.444 123.707 104.79 122.456 106.259C121.703 105.733 120.184 104.668 119.431 104.129C120.318 100.74 121.448 97.4113 122.792 94.1562Z" fill="#91A560"/>
<path d="M79.6025 100.715C80.0059 98.6961 84.7527 99.6016 83.9325 101.572C82.655 102.428 80.1404 102.184 79.6025 100.715Z" fill="#403D37"/>
<path d="M5.88602 101.364C9.50322 99.3936 12.1388 104.264 10.7672 106.956C10.4042 111.521 2.49739 109.134 2.75288 105.537C2.25535 103.469 4.21861 102.257 5.88602 101.364Z" fill="#FBDD78"/>
<path d="M13.6455 105.096C17.6796 103.579 21.9422 100.556 26.4872 102.306C29.2304 104.643 27.3748 108.62 24.2148 109.697C20.5572 109.722 17.0879 108.547 13.659 107.593C13.659 106.968 13.6455 105.72 13.6455 105.096Z" fill="#FEF9F2"/>
<path d="M128.71 102.331C136.939 111.374 147.925 119.756 161.359 120.466C173.272 120.784 184.622 115.792 193.738 109.122C193.913 109.722 194.276 110.909 194.465 111.496C192.475 112.843 190.511 114.201 188.548 115.559C189.973 117.382 191.385 119.194 192.824 121.029C178.786 128.518 160.713 131.296 145.626 124.725C136.589 121.311 129.584 114.947 123.492 108.18C125.442 106.394 127.19 104.436 128.71 102.331Z" fill="#F2EDE2"/>
<path d="M8.13259 112.132C9.55796 111.361 10.9833 110.59 12.4087 109.832C16.5772 112.414 23.5561 114.91 21.3105 120.698C16.2545 119.34 14.6543 114.176 10.553 111.618C12.0591 115.718 11.8439 120.062 10.1362 124.088C7.5947 120.515 7.80987 116.171 8.13259 112.132Z" fill="#FBF6F0"/>
<path d="M20.2871 111.484C24.8321 112.353 29.0813 114.103 33.5591 115.192C42.6089 117.627 52.1023 117.75 61.3941 118.912C55.8406 122.289 50.2333 125.606 44.4377 128.64C41.8021 126.572 38.5748 125.483 35.0921 125.789C35.3341 124.969 35.8183 123.33 36.0603 122.497C34.9442 121.494 33.734 120.625 32.4162 119.903C29.6327 119.548 28.3686 122.094 26.7416 123.587C24.227 121.457 24.2674 118.374 23.7295 115.547C22.7075 114.091 21.4435 112.818 20.2871 111.484Z" fill="#F8F3EC"/>
<path d="M67.1357 138.173C83.9981 137.243 97.418 127.221 112.68 121.971C111.564 124.051 112.102 127.796 108.996 128.432C103.388 129.68 98.8972 133.547 93.1285 134.184C84.9932 137.28 76.0375 140.865 67.1357 138.173Z" fill="#AEBC82"/>
<path d="M30.3994 132.006C32.4299 128.249 41.3183 125.312 41.9234 131.247C38.4406 133.168 34.2049 132.287 30.3994 132.006Z" fill="#F8F5EF"/>
<path d="M22.5742 134.22C23.6903 132.825 25.156 131.675 26.8638 130.904C28.3967 131.589 28.9749 133.192 29.97 134.379C28.9077 135.628 27.8723 136.9 26.8638 138.197L29.0556 138.772C27.2268 138.54 25.4115 138.295 23.6097 138.063L24.403 137.622C24.9408 137.316 26.0032 136.717 26.5276 136.411C25.546 135.872 23.5558 134.771 22.5742 134.22Z" fill="#F5E8BB"/>
<path d="M84.1167 197.661C82.2368 197.661 80.6846 197.145 79.46 196.114C78.2354 195.083 77.3867 193.675 76.9141 191.892C76.8711 191.752 76.8496 191.624 76.8496 191.505C76.8496 191.355 76.9033 191.205 77.0107 191.054C77.1182 190.893 77.4028 190.737 77.8647 190.587C78.3267 190.437 78.7832 190.286 79.2344 190.136C79.5352 190.039 79.7876 189.991 79.9917 189.991C80.1206 189.991 80.2656 190.028 80.4268 190.104C80.5879 190.179 80.7222 190.426 80.8296 190.845C81.0767 191.779 81.4526 192.553 81.9575 193.165C82.4731 193.767 83.0264 194.067 83.6172 194.067C84.4121 194.067 84.9976 193.777 85.3735 193.197C85.7603 192.606 85.9536 191.86 85.9536 190.958C85.9536 190.055 85.5938 189.244 84.874 188.524C84.1865 187.858 83.3647 187.192 82.4087 186.526C80.8188 185.431 79.6533 184.448 78.9121 183.578C77.7949 182.267 77.2363 180.747 77.2363 179.018C77.2363 177.857 77.5425 176.864 78.1548 176.037C78.7671 175.209 79.5674 174.576 80.5557 174.135C81.5439 173.695 82.6021 173.475 83.73 173.475C85.5884 173.475 87.0547 173.931 88.1289 174.844C89.2139 175.757 90.0518 177.127 90.6426 178.953C90.6963 179.136 90.7231 179.302 90.7231 179.453C90.7231 179.517 90.707 179.619 90.6748 179.759C90.6533 179.888 90.4761 179.995 90.1431 180.081C88.5103 180.521 87.6294 180.742 87.5005 180.742C87.3608 180.742 87.2104 180.709 87.0493 180.645C86.8989 180.57 86.77 180.328 86.6626 179.92C86.3618 178.76 85.9912 177.868 85.5508 177.245C85.1104 176.611 84.5518 176.294 83.875 176.294C83.1875 176.294 82.645 176.525 82.2476 176.987C81.8501 177.438 81.6514 178.002 81.6514 178.679C81.6514 179.13 81.8018 179.555 82.1025 179.952C82.4033 180.35 82.8008 180.742 83.2949 181.128C83.7998 181.515 84.3584 181.913 84.9707 182.321C85.916 182.944 86.8613 183.653 87.8066 184.448C88.752 185.243 89.5415 186.199 90.1753 187.316C90.8091 188.433 91.126 189.776 91.126 191.344C91.126 192.558 90.8574 193.638 90.3203 194.583C89.7939 195.528 89.0151 196.28 87.9839 196.839C86.9526 197.387 85.6636 197.661 84.1167 197.661ZM100.214 197.645C97.7109 197.645 95.8418 196.839 94.6064 195.228C93.5215 193.82 92.979 191.967 92.979 189.668C92.979 188.122 93.1455 186.666 93.4785 185.302C93.8223 183.938 94.3057 182.74 94.9287 181.708C95.5625 180.667 96.3252 179.85 97.2168 179.259C98.1084 178.658 99.1074 178.357 100.214 178.357C101.32 178.357 102.319 178.658 103.211 179.259C104.103 179.85 104.86 180.667 105.483 181.708C106.117 182.74 106.6 183.938 106.933 185.302C107.277 186.666 107.449 188.122 107.449 189.668C107.449 191.967 106.906 193.82 105.821 195.228C104.586 196.839 102.717 197.645 100.214 197.645ZM100.214 193.681C101.75 193.681 102.518 191.983 102.518 188.589C102.518 187.472 102.448 186.403 102.309 185.382C102.147 184.168 101.89 183.169 101.535 182.385C101.181 181.59 100.74 181.193 100.214 181.193C99.6875 181.193 99.2471 181.59 98.8926 182.385C98.5381 183.169 98.2856 184.12 98.1353 185.237C97.9849 186.354 97.9097 187.472 97.9097 188.589C97.9097 191.983 98.6777 193.681 100.214 193.681ZM114.812 182.176C114.866 182.767 115.188 186.419 115.779 193.133C115.801 193.423 115.865 193.568 115.973 193.568C116.241 193.568 116.461 193.665 116.633 193.858C116.816 194.051 116.907 194.282 116.907 194.551V196.146C116.907 196.415 116.816 196.646 116.633 196.839C116.461 197.032 116.241 197.129 115.973 197.129H109.334C109.065 197.129 108.84 197.032 108.657 196.839C108.475 196.646 108.383 196.415 108.383 196.146V194.551C108.383 194.282 108.475 194.051 108.657 193.858C108.84 193.665 109.065 193.568 109.334 193.568C109.441 193.568 109.506 193.423 109.527 193.133C110.172 186.043 110.494 182.375 110.494 182.127C110.494 181.698 110.354 181.483 110.075 181.483C109.807 181.483 109.586 181.392 109.415 181.209C109.253 181.016 109.173 180.785 109.173 180.516V179.855C109.173 179.587 109.264 179.361 109.447 179.179C109.64 178.985 109.871 178.889 110.14 178.889H114.78C115.575 178.534 116.365 178.357 117.149 178.357C118.9 178.357 120.259 178.899 121.226 179.984C121.548 179.694 121.897 179.437 122.273 179.211C123.218 178.642 124.196 178.357 125.206 178.357C127.311 178.357 128.842 179.141 129.798 180.709C130.765 182.267 131.35 184.861 131.554 188.492L131.828 193.133C131.85 193.423 131.914 193.568 132.021 193.568C132.29 193.568 132.51 193.665 132.682 193.858C132.865 194.051 132.956 194.282 132.956 194.551V196.146C132.956 196.415 132.865 196.646 132.682 196.839C132.51 197.032 132.29 197.129 132.021 197.129H126.414C126.146 197.129 125.92 197.032 125.737 196.839C125.565 196.646 125.479 196.415 125.479 196.146V194.551C125.479 194.282 125.565 194.051 125.737 193.858C125.92 193.665 126.146 193.568 126.414 193.568C126.521 193.568 126.586 193.423 126.607 193.133C126.844 189.523 126.962 187.445 126.962 186.897C126.962 185.393 126.817 184.152 126.527 183.175C126.151 181.864 125.528 181.209 124.658 181.209C123.927 181.209 123.229 181.649 122.563 182.53C123.046 184.045 123.358 186.032 123.498 188.492L123.771 193.133C123.793 193.423 123.863 193.568 123.981 193.568C124.25 193.568 124.47 193.665 124.642 193.858C124.824 194.051 124.916 194.282 124.916 194.551V196.146C124.916 196.415 124.824 196.646 124.642 196.839C124.47 197.032 124.25 197.129 123.981 197.129H118.357C118.089 197.129 117.863 197.032 117.681 196.839C117.509 196.646 117.423 196.415 117.423 196.146V194.551C117.423 194.282 117.509 194.051 117.681 193.858C117.863 193.665 118.089 193.568 118.357 193.568C118.476 193.568 118.545 193.423 118.567 193.133C118.792 189.48 118.905 187.391 118.905 186.865C118.905 185.372 118.766 184.142 118.486 183.175C118.1 181.864 117.477 181.209 116.617 181.209C115.994 181.209 115.393 181.531 114.812 182.176ZM141.399 197.645C138.982 197.645 137.146 196.764 135.889 195.002C134.761 193.412 134.197 191.382 134.197 188.911C134.197 186.773 134.481 184.915 135.051 183.336C135.62 181.757 136.447 180.538 137.532 179.678C138.617 178.808 139.928 178.373 141.464 178.373C142.57 178.373 143.537 178.685 144.364 179.308C145.202 179.92 145.852 180.715 146.314 181.692C146.787 182.67 147.023 183.69 147.023 184.754C147.023 186.086 146.744 187.262 146.185 188.283C145.626 189.292 144.772 190.082 143.623 190.651C142.484 191.221 141.04 191.505 139.289 191.505C139.557 193.192 140.288 194.035 141.48 194.035C141.985 194.035 142.388 193.847 142.688 193.471C143 193.095 143.22 192.649 143.349 192.134C143.446 191.726 143.575 191.484 143.736 191.409C143.908 191.333 144.058 191.296 144.187 191.296C144.391 191.296 144.644 191.344 144.944 191.441C145.396 191.591 145.847 191.742 146.298 191.892C146.76 192.042 147.044 192.198 147.152 192.359C147.27 192.51 147.329 192.666 147.329 192.827C147.329 192.934 147.308 193.058 147.265 193.197C146.867 194.637 146.169 195.738 145.17 196.5C144.171 197.263 142.914 197.645 141.399 197.645ZM138.999 187.88C139.987 187.88 140.776 187.708 141.367 187.364C141.969 187.01 142.404 186.564 142.672 186.027C142.941 185.49 143.075 184.931 143.075 184.351C143.075 183.492 142.898 182.74 142.543 182.095C142.2 181.451 141.84 181.128 141.464 181.128C140.948 181.128 140.508 181.467 140.143 182.144C139.777 182.81 139.493 183.658 139.289 184.689C139.095 185.721 138.999 186.784 138.999 187.88ZM166.762 197.129H160.107C159.849 197.129 159.629 197.032 159.446 196.839C159.264 196.646 159.172 196.415 159.172 196.146V194.551C159.172 194.282 159.264 194.051 159.446 193.858C159.629 193.665 159.849 193.568 160.107 193.568C160.225 193.568 160.295 193.423 160.316 193.133C160.939 182.659 161.251 177.315 161.251 177.1C161.251 176.96 161.176 176.891 161.025 176.891C160.778 176.891 160.214 177.084 159.333 177.471C158.227 177.954 157.47 178.196 157.062 178.196C156.804 178.196 156.61 178.11 156.481 177.938C156.363 177.766 156.304 177.573 156.304 177.358V175.005C156.304 174.737 156.39 174.511 156.562 174.329C156.745 174.135 156.97 174.039 157.239 174.039H169.63C169.898 174.039 170.124 174.135 170.307 174.329C170.489 174.511 170.581 174.737 170.581 175.005V177.358C170.581 177.573 170.516 177.766 170.387 177.938C170.269 178.11 170.076 178.196 169.807 178.196C169.41 178.196 168.668 177.949 167.583 177.455C166.767 177.089 166.198 176.907 165.875 176.907C165.704 176.907 165.618 176.998 165.618 177.181C165.618 177.342 165.935 182.659 166.568 193.133C166.59 193.423 166.654 193.568 166.762 193.568C167.03 193.568 167.25 193.665 167.422 193.858C167.605 194.051 167.696 194.282 167.696 194.551V196.146C167.696 196.415 167.605 196.646 167.422 196.839C167.25 197.032 167.03 197.129 166.762 197.129ZM176.107 197.645C173.69 197.645 171.854 196.764 170.597 195.002C169.469 193.412 168.905 191.382 168.905 188.911C168.905 186.773 169.189 184.915 169.759 183.336C170.328 181.757 171.155 180.538 172.24 179.678C173.325 178.808 174.636 178.373 176.172 178.373C177.278 178.373 178.245 178.685 179.072 179.308C179.91 179.92 180.56 180.715 181.022 181.692C181.495 182.67 181.731 183.69 181.731 184.754C181.731 186.086 181.452 187.262 180.893 188.283C180.334 189.292 179.48 190.082 178.331 190.651C177.192 191.221 175.748 191.505 173.997 191.505C174.265 193.192 174.996 194.035 176.188 194.035C176.693 194.035 177.096 193.847 177.396 193.471C177.708 193.095 177.928 192.649 178.057 192.134C178.154 191.726 178.283 191.484 178.444 191.409C178.616 191.333 178.766 191.296 178.895 191.296C179.099 191.296 179.352 191.344 179.652 191.441C180.104 191.591 180.555 191.742 181.006 191.892C181.468 192.042 181.752 192.198 181.86 192.359C181.978 192.51 182.037 192.666 182.037 192.827C182.037 192.934 182.016 193.058 181.973 193.197C181.575 194.637 180.877 195.738 179.878 196.5C178.879 197.263 177.622 197.645 176.107 197.645ZM173.707 187.88C174.695 187.88 175.484 187.708 176.075 187.364C176.677 187.01 177.112 186.564 177.38 186.027C177.649 185.49 177.783 184.931 177.783 184.351C177.783 183.492 177.606 182.74 177.251 182.095C176.908 181.451 176.548 181.128 176.172 181.128C175.656 181.128 175.216 181.467 174.851 182.144C174.485 182.81 174.201 183.658 173.997 184.689C173.803 185.721 173.707 186.784 173.707 187.88ZM188.756 197.645C187.564 197.645 186.581 197.397 185.808 196.903C185.034 196.398 184.459 195.749 184.083 194.954C183.708 194.159 183.52 193.315 183.52 192.424C183.52 191.403 183.756 190.41 184.229 189.443C184.701 188.476 185.394 187.681 186.307 187.058C187.22 186.435 188.332 186.124 189.643 186.124C190.395 186.124 191.125 186.269 191.834 186.559C191.909 185.022 191.947 184.088 191.947 183.755C191.947 182.992 191.802 182.385 191.512 181.934C191.222 181.483 190.851 181.257 190.4 181.257C190.002 181.257 189.605 181.467 189.208 181.886C188.81 182.294 188.488 182.928 188.241 183.787C188.133 184.195 187.978 184.448 187.773 184.544C187.677 184.587 187.559 184.609 187.419 184.609C187.279 184.609 186.554 184.437 185.244 184.093C184.857 183.986 184.664 183.771 184.664 183.449C184.664 183.298 184.696 183.132 184.76 182.949C185.297 181.359 186.087 180.199 187.129 179.469C188.171 178.738 189.353 178.373 190.674 178.373C192.285 178.373 193.612 178.867 194.654 179.855C195.696 180.833 196.276 182.213 196.394 183.997L196.877 193.133C196.91 193.423 196.985 193.568 197.103 193.568C197.361 193.568 197.581 193.665 197.764 193.858C197.946 194.051 198.038 194.282 198.038 194.551V196.146C198.038 196.415 197.946 196.646 197.764 196.839C197.581 197.032 197.361 197.129 197.103 197.129H191.318C190.491 197.473 189.637 197.645 188.756 197.645ZM189.079 194.051C189.508 194.051 189.954 193.847 190.416 193.439C190.878 193.02 191.265 192.445 191.576 191.715L191.689 189.588C191.173 189.18 190.647 188.976 190.11 188.976C189.562 188.976 189.127 189.137 188.805 189.459C188.482 189.771 188.251 190.168 188.112 190.651C187.972 191.124 187.902 191.602 187.902 192.085C187.902 193.396 188.294 194.051 189.079 194.051Z" fill="black"/>
<path d="M39.4712 245.092H30.1108C29.8911 245.092 29.7065 245.018 29.5571 244.868C29.4077 244.71 29.333 244.521 29.333 244.301V242.983C29.333 242.561 29.5747 241.985 30.0581 241.256C30.5503 240.526 31.1392 239.713 31.8247 238.817C32.5103 237.912 33.187 236.971 33.855 235.996C34.5229 235.02 35.0854 234.044 35.5425 233.069C35.9995 232.093 36.228 231.175 36.228 230.313C36.228 228.802 35.7798 228.046 34.8833 228.046C34.5669 228.046 34.3032 228.129 34.0923 228.296C33.8813 228.455 33.71 228.657 33.5781 228.903C33.4463 229.149 33.3452 229.404 33.2749 229.667C33.187 230.001 33.0596 230.208 32.8926 230.287C32.8135 230.322 32.7168 230.34 32.6025 230.34C32.4883 230.34 31.7632 230.164 30.4272 229.812C30.1108 229.733 29.9526 229.562 29.9526 229.298C29.9526 229.167 29.979 229.026 30.0317 228.876C30.2778 228.156 30.6558 227.567 31.1655 227.11C31.6841 226.644 32.2817 226.301 32.9585 226.082C33.644 225.853 34.3472 225.739 35.0679 225.739C36.1841 225.739 37.0938 225.95 37.7969 226.372C38.5088 226.793 39.0317 227.365 39.3657 228.085C39.6997 228.797 39.8667 229.606 39.8667 230.511C39.8667 233.763 38.1616 237.657 34.7515 242.192C35.3667 242.192 36.2148 242.095 37.2959 241.902C38.333 241.708 39.0801 241.612 39.5371 241.612C39.7393 241.612 39.9062 241.695 40.0381 241.862C40.1699 242.021 40.2358 242.201 40.2358 242.403V244.301C40.2358 244.521 40.1611 244.71 40.0117 244.868C39.8711 245.018 39.6909 245.092 39.4712 245.092ZM47.5264 245.514C45.3818 245.514 43.8042 244.486 42.7935 242.429C42.0376 240.9 41.6597 239.054 41.6597 236.892C41.6597 235.257 41.875 233.636 42.3057 232.027C42.9648 229.54 43.9668 227.738 45.3115 226.622C45.9883 226.068 46.7266 225.792 47.5264 225.792C48.335 225.792 49.0732 226.073 49.7412 226.635C50.418 227.189 51.0112 227.936 51.521 228.876C52.0308 229.808 52.4395 230.858 52.7471 232.027C53.0635 233.196 53.248 234.198 53.3008 235.033C53.3623 235.859 53.3931 236.479 53.3931 236.892C53.3931 239.072 53.0239 240.917 52.2856 242.429C51.2661 244.486 49.6797 245.514 47.5264 245.514ZM47.5264 242.614C48.291 242.614 48.8184 241.656 49.1084 239.74C49.2578 238.764 49.3325 237.723 49.3325 236.615C49.3325 234.559 49.1787 232.691 48.8711 231.012C48.5195 229.105 48.0713 228.151 47.5264 228.151C46.999 228.151 46.5552 229.105 46.1948 231.012C45.8872 232.629 45.7334 234.409 45.7334 236.352C45.7334 237.617 45.8081 238.747 45.9575 239.74C46.2388 241.656 46.7617 242.614 47.5264 242.614ZM62.292 245.092H61.6328C61.4131 245.092 61.2812 245.057 61.2373 244.987C61.2021 244.908 61.1846 244.833 61.1846 244.763C61.1846 244.692 62.9775 238.716 66.5635 226.833C66.625 226.613 66.7129 226.455 66.8271 226.358C66.9502 226.253 67.1216 226.2 67.3413 226.2H68.0005C68.2202 226.2 68.3477 226.24 68.3828 226.319C68.4268 226.389 68.4487 226.459 68.4487 226.53C68.4487 226.609 66.6558 232.59 63.0698 244.473C62.9468 244.886 62.6875 245.092 62.292 245.092ZM75.0933 238.58H70.5449C70.3252 238.58 70.1406 238.5 69.9912 238.342C69.8506 238.184 69.7803 237.995 69.7803 237.775V236.998C69.7803 236.778 69.8506 236.593 69.9912 236.444C70.1406 236.286 70.3252 236.207 70.5449 236.207H75.0933C75.313 236.207 75.4932 236.286 75.6338 236.444C75.7832 236.593 75.8579 236.778 75.8579 236.998V237.775C75.8579 237.995 75.7832 238.184 75.6338 238.342C75.4932 238.5 75.313 238.58 75.0933 238.58ZM90.3994 247.109H89.9512C89.7402 247.109 89.5557 247.035 89.3975 246.885C89.2393 246.745 89.1602 246.564 89.1602 246.345V224.948C89.1602 224.728 89.2129 224.548 89.3184 224.407C89.4238 224.258 89.5864 224.183 89.8062 224.183H90.584C90.9971 224.183 91.2036 224.438 91.2036 224.948V246.345C91.2036 246.564 91.1245 246.745 90.9663 246.885C90.8081 247.035 90.6191 247.109 90.3994 247.109ZM110.953 245.092H105.508C105.288 245.092 105.104 245.018 104.954 244.868C104.813 244.71 104.743 244.521 104.743 244.301V242.983C104.743 242.772 104.813 242.587 104.954 242.429C105.104 242.271 105.288 242.192 105.508 242.192C105.596 242.192 105.648 242.073 105.666 241.836L106.352 230.617C106.229 230.731 106.097 230.85 105.956 230.973C105.815 231.087 105.653 231.144 105.468 231.144C105.451 231.144 105.385 231.14 105.271 231.131C105.156 231.122 105.024 231.039 104.875 230.88L104.348 230.287C104.207 230.129 104.137 229.953 104.137 229.76C104.137 229.742 104.137 229.681 104.137 229.575C104.146 229.47 104.229 229.342 104.387 229.193L107.512 226.398C107.644 226.275 107.793 226.213 107.96 226.213H109.041C109.261 226.213 109.441 226.288 109.582 226.438C109.731 226.587 109.814 226.776 109.832 227.004L110.781 241.836C110.799 242.073 110.856 242.192 110.953 242.192C111.172 242.192 111.353 242.271 111.493 242.429C111.643 242.587 111.717 242.772 111.717 242.983V244.301C111.717 244.521 111.643 244.71 111.493 244.868C111.353 245.018 111.172 245.092 110.953 245.092ZM118.283 242.587C118.933 242.587 119.412 242.354 119.72 241.889C120.036 241.414 120.194 240.821 120.194 240.109C120.194 239.599 120.076 239.151 119.838 238.764C119.583 238.342 119.232 237.942 118.784 237.564C118.388 237.248 117.848 236.848 117.162 236.365C116.151 237.666 115.646 238.949 115.646 240.214C115.646 240.917 115.879 241.489 116.345 241.928C116.819 242.368 117.465 242.587 118.283 242.587ZM120.313 233.623C120.893 232.638 121.183 231.654 121.183 230.669C121.183 228.947 120.401 228.085 118.836 228.085C118.467 228.085 118.116 228.16 117.782 228.31C117.457 228.45 117.188 228.666 116.978 228.956C116.775 229.246 116.674 229.597 116.674 230.01C116.674 230.836 117.584 231.83 119.403 232.99C119.711 233.192 120.014 233.403 120.313 233.623ZM118.691 245.541C117.566 245.541 116.564 245.352 115.686 244.974C114.815 244.587 114.13 244.046 113.629 243.352C113.137 242.649 112.891 241.818 112.891 240.86C112.891 239.103 113.818 237.217 115.672 235.205C115.567 235.125 115.466 235.038 115.369 234.941C113.831 233.623 113.062 232.071 113.062 230.287C113.062 229.329 113.312 228.512 113.813 227.835C114.314 227.158 114.969 226.64 115.778 226.279C116.586 225.919 117.452 225.739 118.375 225.739C121.829 225.739 123.556 227.264 123.556 230.313C123.556 231.315 123.284 232.331 122.739 233.359C122.475 233.86 122.159 234.334 121.79 234.783C122.422 235.336 122.976 235.974 123.451 236.694C124.101 237.679 124.426 238.905 124.426 240.373C124.426 241.357 124.207 242.24 123.767 243.022C123.336 243.796 122.699 244.411 121.855 244.868C121.012 245.316 119.957 245.541 118.691 245.541ZM131.743 245.514C129.599 245.514 128.021 244.486 127.01 242.429C126.254 240.9 125.876 239.054 125.876 236.892C125.876 235.257 126.092 233.636 126.522 232.027C127.182 229.54 128.184 227.738 129.528 226.622C130.205 226.068 130.943 225.792 131.743 225.792C132.552 225.792 133.29 226.073 133.958 226.635C134.635 227.189 135.228 227.936 135.738 228.876C136.248 229.808 136.656 230.858 136.964 232.027C137.28 233.196 137.465 234.198 137.518 235.033C137.579 235.859 137.61 236.479 137.61 236.892C137.61 239.072 137.241 240.917 136.502 242.429C135.483 244.486 133.896 245.514 131.743 245.514ZM131.743 242.614C132.508 242.614 133.035 241.656 133.325 239.74C133.475 238.764 133.549 237.723 133.549 236.615C133.549 234.559 133.396 232.691 133.088 231.012C132.736 229.105 132.288 228.151 131.743 228.151C131.216 228.151 130.772 229.105 130.412 231.012C130.104 232.629 129.95 234.409 129.95 236.352C129.95 237.617 130.025 238.747 130.174 239.74C130.456 241.656 130.979 242.614 131.743 242.614ZM150.714 232.871C150.758 233.354 151.022 236.343 151.505 241.836C151.523 242.073 151.576 242.192 151.664 242.192C151.883 242.192 152.063 242.271 152.204 242.429C152.354 242.587 152.428 242.776 152.428 242.996V244.301C152.428 244.521 152.354 244.71 152.204 244.868C152.063 245.026 151.883 245.105 151.664 245.105H146.232C146.012 245.105 145.828 245.026 145.678 244.868C145.529 244.71 145.454 244.521 145.454 244.301V242.996C145.454 242.776 145.529 242.587 145.678 242.429C145.828 242.271 146.012 242.192 146.232 242.192C146.32 242.192 146.373 242.073 146.39 241.836C146.917 236.035 147.181 233.034 147.181 232.832C147.181 232.48 147.067 232.304 146.838 232.304C146.619 232.304 146.438 232.229 146.298 232.08C146.166 231.922 146.1 231.733 146.1 231.513V230.973C146.1 230.753 146.175 230.568 146.324 230.419C146.482 230.261 146.671 230.182 146.891 230.182H150.688C151.338 229.892 151.984 229.747 152.626 229.747C154.059 229.747 155.17 230.19 155.961 231.078C156.225 230.841 156.511 230.63 156.818 230.445C157.592 229.979 158.392 229.747 159.218 229.747C160.94 229.747 162.193 230.388 162.975 231.671C163.766 232.946 164.245 235.068 164.412 238.039L164.636 241.836C164.654 242.073 164.707 242.192 164.794 242.192C165.014 242.192 165.194 242.271 165.335 242.429C165.484 242.587 165.559 242.776 165.559 242.996V244.301C165.559 244.521 165.484 244.71 165.335 244.868C165.194 245.026 165.014 245.105 164.794 245.105H160.207C159.987 245.105 159.802 245.026 159.653 244.868C159.512 244.71 159.442 244.521 159.442 244.301V242.996C159.442 242.776 159.512 242.587 159.653 242.429C159.802 242.271 159.987 242.192 160.207 242.192C160.294 242.192 160.347 242.073 160.365 241.836C160.558 238.883 160.655 237.182 160.655 236.734C160.655 235.503 160.536 234.488 160.299 233.688C159.991 232.616 159.481 232.08 158.77 232.08C158.172 232.08 157.601 232.44 157.056 233.161C157.451 234.4 157.706 236.026 157.82 238.039L158.044 241.836C158.062 242.073 158.119 242.192 158.216 242.192C158.436 242.192 158.616 242.271 158.756 242.429C158.906 242.587 158.98 242.776 158.98 242.996V244.301C158.98 244.521 158.906 244.71 158.756 244.868C158.616 245.026 158.436 245.105 158.216 245.105H153.615C153.395 245.105 153.21 245.026 153.061 244.868C152.92 244.71 152.85 244.521 152.85 244.301V242.996C152.85 242.776 152.92 242.587 153.061 242.429C153.21 242.271 153.395 242.192 153.615 242.192C153.711 242.192 153.769 242.073 153.786 241.836C153.971 238.848 154.063 237.138 154.063 236.708C154.063 235.486 153.949 234.479 153.72 233.688C153.404 232.616 152.894 232.08 152.191 232.08C151.681 232.08 151.189 232.344 150.714 232.871ZM172.995 245.105H167.55C167.33 245.105 167.146 245.026 166.996 244.868C166.855 244.71 166.785 244.521 166.785 244.301V242.996C166.785 242.776 166.855 242.587 166.996 242.429C167.146 242.271 167.33 242.192 167.55 242.192C167.646 242.192 167.704 242.073 167.721 241.836C168.24 233.363 168.499 229.03 168.499 228.837C168.499 228.503 168.389 228.336 168.169 228.336C167.95 228.336 167.77 228.261 167.629 228.112C167.488 227.954 167.418 227.765 167.418 227.545V227.004C167.418 226.785 167.497 226.6 167.655 226.451C167.813 226.292 168.002 226.213 168.222 226.213H171.096C171.307 226.213 171.487 226.292 171.637 226.451C171.786 226.6 171.87 226.785 171.887 227.004L172.836 241.836C172.854 242.073 172.907 242.192 172.995 242.192C173.214 242.192 173.395 242.271 173.535 242.429C173.685 242.587 173.759 242.776 173.759 242.996V244.301C173.759 244.521 173.685 244.71 173.535 244.868C173.395 245.026 173.214 245.105 172.995 245.105ZM188.301 247.109H187.853C187.642 247.109 187.457 247.035 187.299 246.885C187.141 246.745 187.062 246.564 187.062 246.345V224.948C187.062 224.728 187.114 224.548 187.22 224.407C187.325 224.258 187.488 224.183 187.708 224.183H188.485C188.898 224.183 189.105 224.438 189.105 224.948V246.345C189.105 246.564 189.026 246.745 188.868 246.885C188.709 247.035 188.521 247.109 188.301 247.109ZM208.854 245.092H203.409C203.189 245.092 203.005 245.018 202.855 244.868C202.715 244.71 202.645 244.521 202.645 244.301V242.983C202.645 242.772 202.715 242.587 202.855 242.429C203.005 242.271 203.189 242.192 203.409 242.192C203.497 242.192 203.55 242.073 203.567 241.836L204.253 230.617C204.13 230.731 203.998 230.85 203.857 230.973C203.717 231.087 203.554 231.144 203.37 231.144C203.352 231.144 203.286 231.14 203.172 231.131C203.058 231.122 202.926 231.039 202.776 230.88L202.249 230.287C202.108 230.129 202.038 229.953 202.038 229.76C202.038 229.742 202.038 229.681 202.038 229.575C202.047 229.47 202.13 229.342 202.289 229.193L205.413 226.398C205.545 226.275 205.694 226.213 205.861 226.213H206.942C207.162 226.213 207.342 226.288 207.483 226.438C207.632 226.587 207.716 226.776 207.733 227.004L208.683 241.836C208.7 242.073 208.757 242.192 208.854 242.192C209.074 242.192 209.254 242.271 209.395 242.429C209.544 242.587 209.619 242.772 209.619 242.983V244.301C209.619 244.521 209.544 244.71 209.395 244.868C209.254 245.018 209.074 245.092 208.854 245.092ZM222.829 245.541C220.948 245.541 219.502 244.789 218.491 243.286C217.595 241.977 217.146 240.342 217.146 238.382C217.146 236.729 217.388 235.253 217.872 233.952C218.364 232.651 219.062 231.627 219.968 230.88C220.882 230.133 221.967 229.76 223.224 229.76C224.296 229.76 225.21 230.05 225.966 230.63C226.731 231.21 227.289 231.948 227.641 232.845C227.702 232.994 227.733 233.135 227.733 233.267C227.733 233.513 227.57 233.68 227.245 233.768C225.883 234.128 225.153 234.308 225.057 234.308C224.951 234.308 224.859 234.291 224.78 234.255C224.613 234.176 224.485 233.97 224.397 233.636C224.266 233.1 224.116 232.695 223.949 232.423C223.782 232.15 223.541 232.014 223.224 232.014C222.793 232.014 222.416 232.322 222.09 232.937C221.765 233.552 221.515 234.312 221.339 235.218C221.163 236.123 221.075 237.046 221.075 237.986C221.075 238.865 221.146 239.643 221.286 240.32C221.603 241.84 222.209 242.601 223.105 242.601C223.87 242.601 224.38 242.082 224.635 241.045C224.723 240.711 224.833 240.513 224.964 240.452C225.105 240.39 225.228 240.359 225.333 240.359C225.5 240.359 225.703 240.399 225.94 240.478C226.309 240.601 226.683 240.724 227.061 240.847C227.438 240.961 227.671 241.084 227.759 241.216C227.847 241.348 227.891 241.48 227.891 241.612C227.891 241.7 227.874 241.801 227.838 241.915C227.17 244.332 225.5 245.541 222.829 245.541ZM233.389 245.554C232.334 245.554 231.473 245.29 230.805 244.763C230.146 244.227 229.658 243.523 229.341 242.653C229.034 241.783 228.88 240.847 228.88 239.845C228.88 238.852 228.977 237.736 229.17 236.497C229.372 235.257 229.618 234.11 229.908 233.056C229.943 232.941 229.961 232.84 229.961 232.752C229.961 232.656 229.943 232.572 229.908 232.502C229.838 232.37 229.737 232.304 229.605 232.304C229.376 232.304 229.192 232.229 229.051 232.08C228.919 231.922 228.854 231.733 228.854 231.513V230.973C228.854 230.753 228.928 230.568 229.078 230.419C229.236 230.261 229.425 230.182 229.645 230.182H233.586C233.806 230.182 233.995 230.261 234.153 230.419C234.312 230.568 234.391 230.753 234.391 230.973V231.513C234.391 231.733 234.32 231.922 234.18 232.08C234.039 232.229 233.854 232.304 233.626 232.304C233.521 232.304 233.455 232.344 233.428 232.423C233.384 232.546 233.283 233.144 233.125 234.216C232.976 235.279 232.901 236.8 232.901 238.777C232.901 239.683 232.962 240.403 233.085 240.939C233.208 241.476 233.362 241.862 233.547 242.1C233.74 242.337 233.938 242.456 234.14 242.456C234.483 242.456 234.76 242.284 234.971 241.941C235.182 241.599 235.313 241.172 235.366 240.663C235.946 235.547 236.236 232.928 236.236 232.805C236.236 232.471 236.122 232.304 235.894 232.304C235.674 232.304 235.494 232.229 235.353 232.08C235.221 231.922 235.155 231.733 235.155 231.513V230.973C235.155 230.753 235.23 230.568 235.379 230.419C235.538 230.261 235.727 230.182 235.946 230.182H239.756C239.976 230.182 240.161 230.261 240.31 230.419C240.468 230.568 240.547 230.753 240.547 230.973V231.513C240.547 231.733 240.477 231.922 240.336 232.08C240.205 232.229 240.024 232.304 239.796 232.304C239.576 232.304 239.466 232.471 239.466 232.805C239.466 232.972 239.73 235.982 240.257 241.836C240.275 242.073 240.328 242.192 240.416 242.192C240.635 242.192 240.815 242.271 240.956 242.429C241.105 242.587 241.18 242.776 241.18 242.996V244.301C241.18 244.521 241.105 244.71 240.956 244.868C240.815 245.026 240.635 245.105 240.416 245.105H235.458C234.729 245.404 234.039 245.554 233.389 245.554ZM247.363 245.119L247.469 246.912C247.486 247.158 247.543 247.281 247.64 247.281C247.86 247.281 248.04 247.355 248.181 247.505C248.33 247.663 248.405 247.852 248.405 248.072V249.39C248.405 249.601 248.33 249.786 248.181 249.944C248.04 250.102 247.86 250.181 247.64 250.181H242.617C242.397 250.181 242.213 250.102 242.063 249.944C241.923 249.786 241.853 249.601 241.853 249.39V248.072C241.853 247.852 241.923 247.663 242.063 247.505C242.213 247.355 242.397 247.281 242.617 247.281C242.731 247.281 242.793 247.158 242.802 246.912C243.312 237.789 243.566 233.082 243.566 232.792C243.566 232.467 243.457 232.304 243.237 232.304C243.017 232.304 242.837 232.229 242.696 232.08C242.556 231.922 242.485 231.733 242.485 231.513V230.973C242.485 230.753 242.564 230.568 242.723 230.419C242.881 230.261 243.07 230.182 243.29 230.182H245.742C245.961 230.182 246.146 230.256 246.295 230.406C246.357 230.476 246.41 230.551 246.454 230.63L246.744 230.445C247.491 229.979 248.291 229.747 249.143 229.747C249.952 229.747 250.672 230.006 251.305 230.524C251.938 231.034 252.474 231.72 252.914 232.581C253.362 233.442 253.7 234.418 253.929 235.508C254.166 236.589 254.285 237.701 254.285 238.843C254.285 240.733 253.894 242.293 253.111 243.523C252.25 244.877 251.028 245.554 249.446 245.554C248.849 245.554 248.207 245.426 247.521 245.171L247.363 245.119ZM246.691 233.609L247.1 240.663C247.302 241.172 247.574 241.599 247.917 241.941C248.26 242.284 248.603 242.456 248.945 242.456C249.675 242.456 250.136 241.757 250.33 240.359C250.417 239.656 250.461 238.848 250.461 237.934C250.461 237.072 250.4 236.198 250.277 235.31C250.163 234.422 249.969 233.662 249.697 233.029C249.433 232.396 249.104 232.08 248.708 232.08C247.996 232.08 247.324 232.59 246.691 233.609Z" fill="black"/>
</svg>
