<svg width="280" height="278" viewBox="0 0 280 278" fill="none" xmlns="http://www.w3.org/2000/svg">
<path d="M86.1167 206.661C84.2368 206.661 82.6846 206.145 81.46 205.114C80.2354 204.083 79.3867 202.675 78.9141 200.892C78.8711 200.752 78.8496 200.624 78.8496 200.505C78.8496 200.355 78.9033 200.205 79.0107 200.054C79.1182 199.893 79.4028 199.737 79.8647 199.587C80.3267 199.437 80.7832 199.286 81.2344 199.136C81.5352 199.039 81.7876 198.991 81.9917 198.991C82.1206 198.991 82.2656 199.028 82.4268 199.104C82.5879 199.179 82.7222 199.426 82.8296 199.845C83.0767 200.779 83.4526 201.553 83.9575 202.165C84.4731 202.767 85.0264 203.067 85.6172 203.067C86.4121 203.067 86.9976 202.777 87.3735 202.197C87.7603 201.606 87.9536 200.86 87.9536 199.958C87.9536 199.055 87.5938 198.244 86.874 197.524C86.1865 196.858 85.3647 196.192 84.4087 195.526C82.8188 194.431 81.6533 193.448 80.9121 192.578C79.7949 191.267 79.2363 189.747 79.2363 188.018C79.2363 186.857 79.5425 185.864 80.1548 185.037C80.7671 184.209 81.5674 183.576 82.5557 183.135C83.5439 182.695 84.6021 182.475 85.73 182.475C87.5884 182.475 89.0547 182.931 90.1289 183.844C91.2139 184.757 92.0518 186.127 92.6426 187.953C92.6963 188.136 92.7231 188.302 92.7231 188.453C92.7231 188.517 92.707 188.619 92.6748 188.759C92.6533 188.888 92.4761 188.995 92.1431 189.081C90.5103 189.521 89.6294 189.742 89.5005 189.742C89.3608 189.742 89.2104 189.709 89.0493 189.645C88.8989 189.57 88.77 189.328 88.6626 188.92C88.3618 187.76 87.9912 186.868 87.5508 186.245C87.1104 185.611 86.5518 185.294 85.875 185.294C85.1875 185.294 84.645 185.525 84.2476 185.987C83.8501 186.438 83.6514 187.002 83.6514 187.679C83.6514 188.13 83.8018 188.555 84.1025 188.952C84.4033 189.35 84.8008 189.742 85.2949 190.128C85.7998 190.515 86.3584 190.913 86.9707 191.321C87.916 191.944 88.8613 192.653 89.8066 193.448C90.752 194.243 91.5415 195.199 92.1753 196.316C92.8091 197.433 93.126 198.776 93.126 200.344C93.126 201.558 92.8574 202.638 92.3203 203.583C91.7939 204.528 91.0151 205.28 89.9839 205.839C88.9526 206.387 87.6636 206.661 86.1167 206.661ZM102.214 206.645C99.7109 206.645 97.8418 205.839 96.6064 204.228C95.5215 202.82 94.979 200.967 94.979 198.668C94.979 197.122 95.1455 195.666 95.4785 194.302C95.8223 192.938 96.3057 191.74 96.9287 190.708C97.5625 189.667 98.3252 188.85 99.2168 188.259C100.108 187.658 101.107 187.357 102.214 187.357C103.32 187.357 104.319 187.658 105.211 188.259C106.103 188.85 106.86 189.667 107.483 190.708C108.117 191.74 108.6 192.938 108.933 194.302C109.277 195.666 109.449 197.122 109.449 198.668C109.449 200.967 108.906 202.82 107.821 204.228C106.586 205.839 104.717 206.645 102.214 206.645ZM102.214 202.681C103.75 202.681 104.518 200.983 104.518 197.589C104.518 196.472 104.448 195.403 104.309 194.382C104.147 193.168 103.89 192.169 103.535 191.385C103.181 190.59 102.74 190.193 102.214 190.193C101.688 190.193 101.247 190.59 100.893 191.385C100.538 192.169 100.286 193.12 100.135 194.237C99.9849 195.354 99.9097 196.472 99.9097 197.589C99.9097 200.983 100.678 202.681 102.214 202.681ZM116.812 191.176C116.866 191.767 117.188 195.419 117.779 202.133C117.801 202.423 117.865 202.568 117.973 202.568C118.241 202.568 118.461 202.665 118.633 202.858C118.816 203.051 118.907 203.282 118.907 203.551V205.146C118.907 205.415 118.816 205.646 118.633 205.839C118.461 206.032 118.241 206.129 117.973 206.129H111.334C111.065 206.129 110.84 206.032 110.657 205.839C110.475 205.646 110.383 205.415 110.383 205.146V203.551C110.383 203.282 110.475 203.051 110.657 202.858C110.84 202.665 111.065 202.568 111.334 202.568C111.441 202.568 111.506 202.423 111.527 202.133C112.172 195.043 112.494 191.375 112.494 191.127C112.494 190.698 112.354 190.483 112.075 190.483C111.807 190.483 111.586 190.392 111.415 190.209C111.253 190.016 111.173 189.785 111.173 189.516V188.855C111.173 188.587 111.264 188.361 111.447 188.179C111.64 187.985 111.871 187.889 112.14 187.889H116.78C117.575 187.534 118.365 187.357 119.149 187.357C120.9 187.357 122.259 187.899 123.226 188.984C123.548 188.694 123.897 188.437 124.273 188.211C125.218 187.642 126.196 187.357 127.206 187.357C129.311 187.357 130.842 188.141 131.798 189.709C132.765 191.267 133.35 193.861 133.554 197.492L133.828 202.133C133.85 202.423 133.914 202.568 134.021 202.568C134.29 202.568 134.51 202.665 134.682 202.858C134.865 203.051 134.956 203.282 134.956 203.551V205.146C134.956 205.415 134.865 205.646 134.682 205.839C134.51 206.032 134.29 206.129 134.021 206.129H128.414C128.146 206.129 127.92 206.032 127.737 205.839C127.565 205.646 127.479 205.415 127.479 205.146V203.551C127.479 203.282 127.565 203.051 127.737 202.858C127.92 202.665 128.146 202.568 128.414 202.568C128.521 202.568 128.586 202.423 128.607 202.133C128.844 198.523 128.962 196.445 128.962 195.897C128.962 194.393 128.817 193.152 128.527 192.175C128.151 190.864 127.528 190.209 126.658 190.209C125.927 190.209 125.229 190.649 124.563 191.53C125.046 193.045 125.358 195.032 125.498 197.492L125.771 202.133C125.793 202.423 125.863 202.568 125.981 202.568C126.25 202.568 126.47 202.665 126.642 202.858C126.824 203.051 126.916 203.282 126.916 203.551V205.146C126.916 205.415 126.824 205.646 126.642 205.839C126.47 206.032 126.25 206.129 125.981 206.129H120.357C120.089 206.129 119.863 206.032 119.681 205.839C119.509 205.646 119.423 205.415 119.423 205.146V203.551C119.423 203.282 119.509 203.051 119.681 202.858C119.863 202.665 120.089 202.568 120.357 202.568C120.476 202.568 120.545 202.423 120.567 202.133C120.792 198.48 120.905 196.391 120.905 195.865C120.905 194.372 120.766 193.142 120.486 192.175C120.1 190.864 119.477 190.209 118.617 190.209C117.994 190.209 117.393 190.531 116.812 191.176ZM143.399 206.645C140.982 206.645 139.146 205.764 137.889 204.002C136.761 202.412 136.197 200.382 136.197 197.911C136.197 195.773 136.481 193.915 137.051 192.336C137.62 190.757 138.447 189.538 139.532 188.678C140.617 187.808 141.928 187.373 143.464 187.373C144.57 187.373 145.537 187.685 146.364 188.308C147.202 188.92 147.852 189.715 148.314 190.692C148.787 191.67 149.023 192.69 149.023 193.754C149.023 195.086 148.744 196.262 148.185 197.283C147.626 198.292 146.772 199.082 145.623 199.651C144.484 200.221 143.04 200.505 141.289 200.505C141.557 202.192 142.288 203.035 143.48 203.035C143.985 203.035 144.388 202.847 144.688 202.471C145 202.095 145.22 201.649 145.349 201.134C145.446 200.726 145.575 200.484 145.736 200.409C145.908 200.333 146.058 200.296 146.187 200.296C146.391 200.296 146.644 200.344 146.944 200.441C147.396 200.591 147.847 200.742 148.298 200.892C148.76 201.042 149.044 201.198 149.152 201.359C149.27 201.51 149.329 201.666 149.329 201.827C149.329 201.934 149.308 202.058 149.265 202.197C148.867 203.637 148.169 204.738 147.17 205.5C146.171 206.263 144.914 206.645 143.399 206.645ZM140.999 196.88C141.987 196.88 142.776 196.708 143.367 196.364C143.969 196.01 144.404 195.564 144.672 195.027C144.941 194.49 145.075 193.931 145.075 193.351C145.075 192.492 144.898 191.74 144.543 191.095C144.2 190.451 143.84 190.128 143.464 190.128C142.948 190.128 142.508 190.467 142.143 191.144C141.777 191.81 141.493 192.658 141.289 193.689C141.095 194.721 140.999 195.784 140.999 196.88ZM168.762 206.129H162.107C161.849 206.129 161.629 206.032 161.446 205.839C161.264 205.646 161.172 205.415 161.172 205.146V203.551C161.172 203.282 161.264 203.051 161.446 202.858C161.629 202.665 161.849 202.568 162.107 202.568C162.225 202.568 162.295 202.423 162.316 202.133C162.939 191.659 163.251 186.315 163.251 186.1C163.251 185.96 163.176 185.891 163.025 185.891C162.778 185.891 162.214 186.084 161.333 186.471C160.227 186.954 159.47 187.196 159.062 187.196C158.804 187.196 158.61 187.11 158.481 186.938C158.363 186.766 158.304 186.573 158.304 186.358V184.005C158.304 183.737 158.39 183.511 158.562 183.329C158.745 183.135 158.97 183.039 159.239 183.039H171.63C171.898 183.039 172.124 183.135 172.307 183.329C172.489 183.511 172.581 183.737 172.581 184.005V186.358C172.581 186.573 172.516 186.766 172.387 186.938C172.269 187.11 172.076 187.196 171.807 187.196C171.41 187.196 170.668 186.949 169.583 186.455C168.767 186.089 168.198 185.907 167.875 185.907C167.704 185.907 167.618 185.998 167.618 186.181C167.618 186.342 167.935 191.659 168.568 202.133C168.59 202.423 168.654 202.568 168.762 202.568C169.03 202.568 169.25 202.665 169.422 202.858C169.605 203.051 169.696 203.282 169.696 203.551V205.146C169.696 205.415 169.605 205.646 169.422 205.839C169.25 206.032 169.03 206.129 168.762 206.129ZM178.107 206.645C175.69 206.645 173.854 205.764 172.597 204.002C171.469 202.412 170.905 200.382 170.905 197.911C170.905 195.773 171.189 193.915 171.759 192.336C172.328 190.757 173.155 189.538 174.24 188.678C175.325 187.808 176.636 187.373 178.172 187.373C179.278 187.373 180.245 187.685 181.072 188.308C181.91 188.92 182.56 189.715 183.022 190.692C183.495 191.67 183.731 192.69 183.731 193.754C183.731 195.086 183.452 196.262 182.893 197.283C182.334 198.292 181.48 199.082 180.331 199.651C179.192 200.221 177.748 200.505 175.997 200.505C176.265 202.192 176.996 203.035 178.188 203.035C178.693 203.035 179.096 202.847 179.396 202.471C179.708 202.095 179.928 201.649 180.057 201.134C180.154 200.726 180.283 200.484 180.444 200.409C180.616 200.333 180.766 200.296 180.895 200.296C181.099 200.296 181.352 200.344 181.652 200.441C182.104 200.591 182.555 200.742 183.006 200.892C183.468 201.042 183.752 201.198 183.86 201.359C183.978 201.51 184.037 201.666 184.037 201.827C184.037 201.934 184.016 202.058 183.973 202.197C183.575 203.637 182.877 204.738 181.878 205.5C180.879 206.263 179.622 206.645 178.107 206.645ZM175.707 196.88C176.695 196.88 177.484 196.708 178.075 196.364C178.677 196.01 179.112 195.564 179.38 195.027C179.649 194.49 179.783 193.931 179.783 193.351C179.783 192.492 179.606 191.74 179.251 191.095C178.908 190.451 178.548 190.128 178.172 190.128C177.656 190.128 177.216 190.467 176.851 191.144C176.485 191.81 176.201 192.658 175.997 193.689C175.803 194.721 175.707 195.784 175.707 196.88ZM190.756 206.645C189.564 206.645 188.581 206.397 187.808 205.903C187.034 205.398 186.459 204.749 186.083 203.954C185.708 203.159 185.52 202.315 185.52 201.424C185.52 200.403 185.756 199.41 186.229 198.443C186.701 197.476 187.394 196.681 188.307 196.058C189.22 195.435 190.332 195.124 191.643 195.124C192.395 195.124 193.125 195.269 193.834 195.559C193.909 194.022 193.947 193.088 193.947 192.755C193.947 191.992 193.802 191.385 193.512 190.934C193.222 190.483 192.851 190.257 192.4 190.257C192.002 190.257 191.605 190.467 191.208 190.886C190.81 191.294 190.488 191.928 190.241 192.787C190.133 193.195 189.978 193.448 189.773 193.544C189.677 193.587 189.559 193.609 189.419 193.609C189.279 193.609 188.554 193.437 187.244 193.093C186.857 192.986 186.664 192.771 186.664 192.449C186.664 192.298 186.696 192.132 186.76 191.949C187.297 190.359 188.087 189.199 189.129 188.469C190.171 187.738 191.353 187.373 192.674 187.373C194.285 187.373 195.612 187.867 196.654 188.855C197.696 189.833 198.276 191.213 198.394 192.997L198.877 202.133C198.91 202.423 198.985 202.568 199.103 202.568C199.361 202.568 199.581 202.665 199.764 202.858C199.946 203.051 200.038 203.282 200.038 203.551V205.146C200.038 205.415 199.946 205.646 199.764 205.839C199.581 206.032 199.361 206.129 199.103 206.129H193.318C192.491 206.473 191.637 206.645 190.756 206.645ZM191.079 203.051C191.508 203.051 191.954 202.847 192.416 202.439C192.878 202.02 193.265 201.445 193.576 200.715L193.689 198.588C193.173 198.18 192.647 197.976 192.11 197.976C191.562 197.976 191.127 198.137 190.805 198.459C190.482 198.771 190.251 199.168 190.112 199.651C189.972 200.124 189.902 200.602 189.902 201.085C189.902 202.396 190.294 203.051 191.079 203.051Z" fill="black"/>
<path d="M37.4712 251.092H28.1108C27.8911 251.092 27.7065 251.018 27.5571 250.868C27.4077 250.71 27.333 250.521 27.333 250.301V248.983C27.333 248.561 27.5747 247.985 28.0581 247.256C28.5503 246.526 29.1392 245.713 29.8247 244.817C30.5103 243.912 31.187 242.971 31.855 241.996C32.5229 241.02 33.0854 240.044 33.5425 239.069C33.9995 238.093 34.228 237.175 34.228 236.313C34.228 234.802 33.7798 234.046 32.8833 234.046C32.5669 234.046 32.3032 234.129 32.0923 234.296C31.8813 234.455 31.71 234.657 31.5781 234.903C31.4463 235.149 31.3452 235.404 31.2749 235.667C31.187 236.001 31.0596 236.208 30.8926 236.287C30.8135 236.322 30.7168 236.34 30.6025 236.34C30.4883 236.34 29.7632 236.164 28.4272 235.812C28.1108 235.733 27.9526 235.562 27.9526 235.298C27.9526 235.167 27.979 235.026 28.0317 234.876C28.2778 234.156 28.6558 233.567 29.1655 233.11C29.6841 232.644 30.2817 232.301 30.9585 232.082C31.644 231.853 32.3472 231.739 33.0679 231.739C34.1841 231.739 35.0938 231.95 35.7969 232.372C36.5088 232.793 37.0317 233.365 37.3657 234.085C37.6997 234.797 37.8667 235.606 37.8667 236.511C37.8667 239.763 36.1616 243.657 32.7515 248.192C33.3667 248.192 34.2148 248.095 35.2959 247.902C36.333 247.708 37.0801 247.612 37.5371 247.612C37.7393 247.612 37.9062 247.695 38.0381 247.862C38.1699 248.021 38.2358 248.201 38.2358 248.403V250.301C38.2358 250.521 38.1611 250.71 38.0117 250.868C37.8711 251.018 37.6909 251.092 37.4712 251.092ZM45.5264 251.514C43.3818 251.514 41.8042 250.486 40.7935 248.429C40.0376 246.9 39.6597 245.054 39.6597 242.892C39.6597 241.257 39.875 239.636 40.3057 238.027C40.9648 235.54 41.9668 233.738 43.3115 232.622C43.9883 232.068 44.7266 231.792 45.5264 231.792C46.335 231.792 47.0732 232.073 47.7412 232.635C48.418 233.189 49.0112 233.936 49.521 234.876C50.0308 235.808 50.4395 236.858 50.7471 238.027C51.0635 239.196 51.248 240.198 51.3008 241.033C51.3623 241.859 51.3931 242.479 51.3931 242.892C51.3931 245.072 51.0239 246.917 50.2856 248.429C49.2661 250.486 47.6797 251.514 45.5264 251.514ZM45.5264 248.614C46.291 248.614 46.8184 247.656 47.1084 245.74C47.2578 244.764 47.3325 243.723 47.3325 242.615C47.3325 240.559 47.1787 238.691 46.8711 237.012C46.5195 235.105 46.0713 234.151 45.5264 234.151C44.999 234.151 44.5552 235.105 44.1948 237.012C43.8872 238.629 43.7334 240.409 43.7334 242.352C43.7334 243.617 43.8081 244.747 43.9575 245.74C44.2388 247.656 44.7617 248.614 45.5264 248.614ZM60.292 251.092H59.6328C59.4131 251.092 59.2812 251.057 59.2373 250.987C59.2021 250.908 59.1846 250.833 59.1846 250.763C59.1846 250.692 60.9775 244.716 64.5635 232.833C64.625 232.613 64.7129 232.455 64.8271 232.358C64.9502 232.253 65.1216 232.2 65.3413 232.2H66.0005C66.2202 232.2 66.3477 232.24 66.3828 232.319C66.4268 232.389 66.4487 232.459 66.4487 232.53C66.4487 232.609 64.6558 238.59 61.0698 250.473C60.9468 250.886 60.6875 251.092 60.292 251.092ZM73.0933 244.58H68.5449C68.3252 244.58 68.1406 244.5 67.9912 244.342C67.8506 244.184 67.7803 243.995 67.7803 243.775V242.998C67.7803 242.778 67.8506 242.593 67.9912 242.444C68.1406 242.286 68.3252 242.207 68.5449 242.207H73.0933C73.313 242.207 73.4932 242.286 73.6338 242.444C73.7832 242.593 73.8579 242.778 73.8579 242.998V243.775C73.8579 243.995 73.7832 244.184 73.6338 244.342C73.4932 244.5 73.313 244.58 73.0933 244.58ZM88.3994 253.109H87.9512C87.7402 253.109 87.5557 253.035 87.3975 252.885C87.2393 252.745 87.1602 252.564 87.1602 252.345V230.948C87.1602 230.728 87.2129 230.548 87.3184 230.407C87.4238 230.258 87.5864 230.183 87.8062 230.183H88.584C88.9971 230.183 89.2036 230.438 89.2036 230.948V252.345C89.2036 252.564 89.1245 252.745 88.9663 252.885C88.8081 253.035 88.6191 253.109 88.3994 253.109ZM108.953 251.092H103.508C103.288 251.092 103.104 251.018 102.954 250.868C102.813 250.71 102.743 250.521 102.743 250.301V248.983C102.743 248.772 102.813 248.587 102.954 248.429C103.104 248.271 103.288 248.192 103.508 248.192C103.596 248.192 103.648 248.073 103.666 247.836L104.352 236.617C104.229 236.731 104.097 236.85 103.956 236.973C103.815 237.087 103.653 237.144 103.468 237.144C103.451 237.144 103.385 237.14 103.271 237.131C103.156 237.122 103.024 237.039 102.875 236.88L102.348 236.287C102.207 236.129 102.137 235.953 102.137 235.76C102.137 235.742 102.137 235.681 102.137 235.575C102.146 235.47 102.229 235.342 102.387 235.193L105.512 232.398C105.644 232.275 105.793 232.213 105.96 232.213H107.041C107.261 232.213 107.441 232.288 107.582 232.438C107.731 232.587 107.814 232.776 107.832 233.004L108.781 247.836C108.799 248.073 108.856 248.192 108.953 248.192C109.172 248.192 109.353 248.271 109.493 248.429C109.643 248.587 109.717 248.772 109.717 248.983V250.301C109.717 250.521 109.643 250.71 109.493 250.868C109.353 251.018 109.172 251.092 108.953 251.092ZM116.283 248.587C116.933 248.587 117.412 248.354 117.72 247.889C118.036 247.414 118.194 246.821 118.194 246.109C118.194 245.599 118.076 245.151 117.838 244.764C117.583 244.342 117.232 243.942 116.784 243.564C116.388 243.248 115.848 242.848 115.162 242.365C114.151 243.666 113.646 244.949 113.646 246.214C113.646 246.917 113.879 247.489 114.345 247.928C114.819 248.368 115.465 248.587 116.283 248.587ZM118.313 239.623C118.893 238.638 119.183 237.654 119.183 236.669C119.183 234.947 118.401 234.085 116.836 234.085C116.467 234.085 116.116 234.16 115.782 234.31C115.457 234.45 115.188 234.666 114.978 234.956C114.775 235.246 114.674 235.597 114.674 236.01C114.674 236.836 115.584 237.83 117.403 238.99C117.711 239.192 118.014 239.403 118.313 239.623ZM116.691 251.541C115.566 251.541 114.564 251.352 113.686 250.974C112.815 250.587 112.13 250.046 111.629 249.352C111.137 248.649 110.891 247.818 110.891 246.86C110.891 245.103 111.818 243.217 113.672 241.205C113.567 241.125 113.466 241.038 113.369 240.941C111.831 239.623 111.062 238.071 111.062 236.287C111.062 235.329 111.312 234.512 111.813 233.835C112.314 233.158 112.969 232.64 113.778 232.279C114.586 231.919 115.452 231.739 116.375 231.739C119.829 231.739 121.556 233.264 121.556 236.313C121.556 237.315 121.284 238.331 120.739 239.359C120.475 239.86 120.159 240.334 119.79 240.783C120.422 241.336 120.976 241.974 121.451 242.694C122.101 243.679 122.426 244.905 122.426 246.373C122.426 247.357 122.207 248.24 121.767 249.022C121.336 249.796 120.699 250.411 119.855 250.868C119.012 251.316 117.957 251.541 116.691 251.541ZM129.743 251.514C127.599 251.514 126.021 250.486 125.01 248.429C124.254 246.9 123.876 245.054 123.876 242.892C123.876 241.257 124.092 239.636 124.522 238.027C125.182 235.54 126.184 233.738 127.528 232.622C128.205 232.068 128.943 231.792 129.743 231.792C130.552 231.792 131.29 232.073 131.958 232.635C132.635 233.189 133.228 233.936 133.738 234.876C134.248 235.808 134.656 236.858 134.964 238.027C135.28 239.196 135.465 240.198 135.518 241.033C135.579 241.859 135.61 242.479 135.61 242.892C135.61 245.072 135.241 246.917 134.502 248.429C133.483 250.486 131.896 251.514 129.743 251.514ZM129.743 248.614C130.508 248.614 131.035 247.656 131.325 245.74C131.475 244.764 131.549 243.723 131.549 242.615C131.549 240.559 131.396 238.691 131.088 237.012C130.736 235.105 130.288 234.151 129.743 234.151C129.216 234.151 128.772 235.105 128.412 237.012C128.104 238.629 127.95 240.409 127.95 242.352C127.95 243.617 128.025 244.747 128.174 245.74C128.456 247.656 128.979 248.614 129.743 248.614ZM148.714 238.871C148.758 239.354 149.022 242.343 149.505 247.836C149.523 248.073 149.576 248.192 149.664 248.192C149.883 248.192 150.063 248.271 150.204 248.429C150.354 248.587 150.428 248.776 150.428 248.996V250.301C150.428 250.521 150.354 250.71 150.204 250.868C150.063 251.026 149.883 251.105 149.664 251.105H144.232C144.012 251.105 143.828 251.026 143.678 250.868C143.529 250.71 143.454 250.521 143.454 250.301V248.996C143.454 248.776 143.529 248.587 143.678 248.429C143.828 248.271 144.012 248.192 144.232 248.192C144.32 248.192 144.373 248.073 144.39 247.836C144.917 242.035 145.181 239.034 145.181 238.832C145.181 238.48 145.067 238.304 144.838 238.304C144.619 238.304 144.438 238.229 144.298 238.08C144.166 237.922 144.1 237.733 144.1 237.513V236.973C144.1 236.753 144.175 236.568 144.324 236.419C144.482 236.261 144.671 236.182 144.891 236.182H148.688C149.338 235.892 149.984 235.747 150.626 235.747C152.059 235.747 153.17 236.19 153.961 237.078C154.225 236.841 154.511 236.63 154.818 236.445C155.592 235.979 156.392 235.747 157.218 235.747C158.94 235.747 160.193 236.388 160.975 237.671C161.766 238.946 162.245 241.068 162.412 244.039L162.636 247.836C162.654 248.073 162.707 248.192 162.794 248.192C163.014 248.192 163.194 248.271 163.335 248.429C163.484 248.587 163.559 248.776 163.559 248.996V250.301C163.559 250.521 163.484 250.71 163.335 250.868C163.194 251.026 163.014 251.105 162.794 251.105H158.207C157.987 251.105 157.802 251.026 157.653 250.868C157.512 250.71 157.442 250.521 157.442 250.301V248.996C157.442 248.776 157.512 248.587 157.653 248.429C157.802 248.271 157.987 248.192 158.207 248.192C158.294 248.192 158.347 248.073 158.365 247.836C158.558 244.883 158.655 243.182 158.655 242.734C158.655 241.503 158.536 240.488 158.299 239.688C157.991 238.616 157.481 238.08 156.77 238.08C156.172 238.08 155.601 238.44 155.056 239.161C155.451 240.4 155.706 242.026 155.82 244.039L156.044 247.836C156.062 248.073 156.119 248.192 156.216 248.192C156.436 248.192 156.616 248.271 156.756 248.429C156.906 248.587 156.98 248.776 156.98 248.996V250.301C156.98 250.521 156.906 250.71 156.756 250.868C156.616 251.026 156.436 251.105 156.216 251.105H151.615C151.395 251.105 151.21 251.026 151.061 250.868C150.92 250.71 150.85 250.521 150.85 250.301V248.996C150.85 248.776 150.92 248.587 151.061 248.429C151.21 248.271 151.395 248.192 151.615 248.192C151.711 248.192 151.769 248.073 151.786 247.836C151.971 244.848 152.063 243.138 152.063 242.708C152.063 241.486 151.949 240.479 151.72 239.688C151.404 238.616 150.894 238.08 150.191 238.08C149.681 238.08 149.189 238.344 148.714 238.871ZM170.995 251.105H165.55C165.33 251.105 165.146 251.026 164.996 250.868C164.855 250.71 164.785 250.521 164.785 250.301V248.996C164.785 248.776 164.855 248.587 164.996 248.429C165.146 248.271 165.33 248.192 165.55 248.192C165.646 248.192 165.704 248.073 165.721 247.836C166.24 239.363 166.499 235.03 166.499 234.837C166.499 234.503 166.389 234.336 166.169 234.336C165.95 234.336 165.77 234.261 165.629 234.112C165.488 233.954 165.418 233.765 165.418 233.545V233.004C165.418 232.785 165.497 232.6 165.655 232.451C165.813 232.292 166.002 232.213 166.222 232.213H169.096C169.307 232.213 169.487 232.292 169.637 232.451C169.786 232.6 169.87 232.785 169.887 233.004L170.836 247.836C170.854 248.073 170.907 248.192 170.995 248.192C171.214 248.192 171.395 248.271 171.535 248.429C171.685 248.587 171.759 248.776 171.759 248.996V250.301C171.759 250.521 171.685 250.71 171.535 250.868C171.395 251.026 171.214 251.105 170.995 251.105ZM186.301 253.109H185.853C185.642 253.109 185.457 253.035 185.299 252.885C185.141 252.745 185.062 252.564 185.062 252.345V230.948C185.062 230.728 185.114 230.548 185.22 230.407C185.325 230.258 185.488 230.183 185.708 230.183H186.485C186.898 230.183 187.105 230.438 187.105 230.948V252.345C187.105 252.564 187.026 252.745 186.868 252.885C186.709 253.035 186.521 253.109 186.301 253.109ZM206.854 251.092H201.409C201.189 251.092 201.005 251.018 200.855 250.868C200.715 250.71 200.645 250.521 200.645 250.301V248.983C200.645 248.772 200.715 248.587 200.855 248.429C201.005 248.271 201.189 248.192 201.409 248.192C201.497 248.192 201.55 248.073 201.567 247.836L202.253 236.617C202.13 236.731 201.998 236.85 201.857 236.973C201.717 237.087 201.554 237.144 201.37 237.144C201.352 237.144 201.286 237.14 201.172 237.131C201.058 237.122 200.926 237.039 200.776 236.88L200.249 236.287C200.108 236.129 200.038 235.953 200.038 235.76C200.038 235.742 200.038 235.681 200.038 235.575C200.047 235.47 200.13 235.342 200.289 235.193L203.413 232.398C203.545 232.275 203.694 232.213 203.861 232.213H204.942C205.162 232.213 205.342 232.288 205.483 232.438C205.632 232.587 205.716 232.776 205.733 233.004L206.683 247.836C206.7 248.073 206.757 248.192 206.854 248.192C207.074 248.192 207.254 248.271 207.395 248.429C207.544 248.587 207.619 248.772 207.619 248.983V250.301C207.619 250.521 207.544 250.71 207.395 250.868C207.254 251.018 207.074 251.092 206.854 251.092ZM220.829 251.541C218.948 251.541 217.502 250.789 216.491 249.286C215.595 247.977 215.146 246.342 215.146 244.382C215.146 242.729 215.388 241.253 215.872 239.952C216.364 238.651 217.062 237.627 217.968 236.88C218.882 236.133 219.967 235.76 221.224 235.76C222.296 235.76 223.21 236.05 223.966 236.63C224.731 237.21 225.289 237.948 225.641 238.845C225.702 238.994 225.733 239.135 225.733 239.267C225.733 239.513 225.57 239.68 225.245 239.768C223.883 240.128 223.153 240.308 223.057 240.308C222.951 240.308 222.859 240.291 222.78 240.255C222.613 240.176 222.485 239.97 222.397 239.636C222.266 239.1 222.116 238.695 221.949 238.423C221.782 238.15 221.541 238.014 221.224 238.014C220.793 238.014 220.416 238.322 220.09 238.937C219.765 239.552 219.515 240.312 219.339 241.218C219.163 242.123 219.075 243.046 219.075 243.986C219.075 244.865 219.146 245.643 219.286 246.32C219.603 247.84 220.209 248.601 221.105 248.601C221.87 248.601 222.38 248.082 222.635 247.045C222.723 246.711 222.833 246.513 222.964 246.452C223.105 246.39 223.228 246.359 223.333 246.359C223.5 246.359 223.703 246.399 223.94 246.478C224.309 246.601 224.683 246.724 225.061 246.847C225.438 246.961 225.671 247.084 225.759 247.216C225.847 247.348 225.891 247.48 225.891 247.612C225.891 247.7 225.874 247.801 225.838 247.915C225.17 250.332 223.5 251.541 220.829 251.541ZM231.389 251.554C230.334 251.554 229.473 251.29 228.805 250.763C228.146 250.227 227.658 249.523 227.341 248.653C227.034 247.783 226.88 246.847 226.88 245.845C226.88 244.852 226.977 243.736 227.17 242.497C227.372 241.257 227.618 240.11 227.908 239.056C227.943 238.941 227.961 238.84 227.961 238.752C227.961 238.656 227.943 238.572 227.908 238.502C227.838 238.37 227.737 238.304 227.605 238.304C227.376 238.304 227.192 238.229 227.051 238.08C226.919 237.922 226.854 237.733 226.854 237.513V236.973C226.854 236.753 226.928 236.568 227.078 236.419C227.236 236.261 227.425 236.182 227.645 236.182H231.586C231.806 236.182 231.995 236.261 232.153 236.419C232.312 236.568 232.391 236.753 232.391 236.973V237.513C232.391 237.733 232.32 237.922 232.18 238.08C232.039 238.229 231.854 238.304 231.626 238.304C231.521 238.304 231.455 238.344 231.428 238.423C231.384 238.546 231.283 239.144 231.125 240.216C230.976 241.279 230.901 242.8 230.901 244.777C230.901 245.683 230.962 246.403 231.085 246.939C231.208 247.476 231.362 247.862 231.547 248.1C231.74 248.337 231.938 248.456 232.14 248.456C232.483 248.456 232.76 248.284 232.971 247.941C233.182 247.599 233.313 247.172 233.366 246.663C233.946 241.547 234.236 238.928 234.236 238.805C234.236 238.471 234.122 238.304 233.894 238.304C233.674 238.304 233.494 238.229 233.353 238.08C233.221 237.922 233.155 237.733 233.155 237.513V236.973C233.155 236.753 233.23 236.568 233.379 236.419C233.538 236.261 233.727 236.182 233.946 236.182H237.756C237.976 236.182 238.161 236.261 238.31 236.419C238.468 236.568 238.547 236.753 238.547 236.973V237.513C238.547 237.733 238.477 237.922 238.336 238.08C238.205 238.229 238.024 238.304 237.796 238.304C237.576 238.304 237.466 238.471 237.466 238.805C237.466 238.972 237.73 241.982 238.257 247.836C238.275 248.073 238.328 248.192 238.416 248.192C238.635 248.192 238.815 248.271 238.956 248.429C239.105 248.587 239.18 248.776 239.18 248.996V250.301C239.18 250.521 239.105 250.71 238.956 250.868C238.815 251.026 238.635 251.105 238.416 251.105H233.458C232.729 251.404 232.039 251.554 231.389 251.554ZM245.363 251.119L245.469 252.912C245.486 253.158 245.543 253.281 245.64 253.281C245.86 253.281 246.04 253.355 246.181 253.505C246.33 253.663 246.405 253.852 246.405 254.072V255.39C246.405 255.601 246.33 255.786 246.181 255.944C246.04 256.102 245.86 256.181 245.64 256.181H240.617C240.397 256.181 240.213 256.102 240.063 255.944C239.923 255.786 239.853 255.601 239.853 255.39V254.072C239.853 253.852 239.923 253.663 240.063 253.505C240.213 253.355 240.397 253.281 240.617 253.281C240.731 253.281 240.793 253.158 240.802 252.912C241.312 243.789 241.566 239.082 241.566 238.792C241.566 238.467 241.457 238.304 241.237 238.304C241.017 238.304 240.837 238.229 240.696 238.08C240.556 237.922 240.485 237.733 240.485 237.513V236.973C240.485 236.753 240.564 236.568 240.723 236.419C240.881 236.261 241.07 236.182 241.29 236.182H243.742C243.961 236.182 244.146 236.256 244.295 236.406C244.357 236.476 244.41 236.551 244.454 236.63L244.744 236.445C245.491 235.979 246.291 235.747 247.143 235.747C247.952 235.747 248.672 236.006 249.305 236.524C249.938 237.034 250.474 237.72 250.914 238.581C251.362 239.442 251.7 240.418 251.929 241.508C252.166 242.589 252.285 243.701 252.285 244.843C252.285 246.733 251.894 248.293 251.111 249.523C250.25 250.877 249.028 251.554 247.446 251.554C246.849 251.554 246.207 251.426 245.521 251.171L245.363 251.119ZM244.691 239.609L245.1 246.663C245.302 247.172 245.574 247.599 245.917 247.941C246.26 248.284 246.603 248.456 246.945 248.456C247.675 248.456 248.136 247.757 248.33 246.359C248.417 245.656 248.461 244.848 248.461 243.934C248.461 243.072 248.4 242.198 248.277 241.31C248.163 240.422 247.969 239.662 247.697 239.029C247.433 238.396 247.104 238.08 246.708 238.08C245.996 238.08 245.324 238.59 244.691 239.609Z" fill="black"/>
<path d="M114.401 31.2148C123.492 28.2407 133.102 26.6872 142.682 25.5952C143.6 26.2522 144.518 26.918 145.446 27.5927C146.714 26.9979 147.991 26.3942 149.239 25.7461C156.154 26.3498 163.02 27.4684 169.756 29.0042C175.025 30.3803 180.674 31.8983 184.366 35.7601C179.336 38.7252 173.129 38.814 167.341 39.4266C150.586 40.6251 133.661 40.5807 116.975 38.6365C113.792 37.9973 110.219 37.802 107.645 35.84C108.523 33.2211 111.866 32.2712 114.401 31.2148Z" fill="white"/>
<path d="M113.612 39.7996C135.228 42.4895 157.372 42.5783 178.947 39.6042C179.177 44.3272 178.578 49.0856 179.107 53.7996C181.652 55.9302 184.815 57.3951 187.44 59.4724C196.062 65.9797 203.716 73.7477 208.626 82.865C208.237 84.5429 207.888 86.2296 207.558 87.9164C206.62 87.7921 205.702 87.6856 204.784 87.5791C203.457 85.5816 201.501 83.735 198.786 83.4332C189.037 81.7287 178.987 82.0838 169.178 83.1047C158.15 84.2056 147.602 88.0318 136.415 87.9164C119.85 88.4313 103.643 84.6228 87.1572 84.1967C82.4269 92.6571 83.1055 102.378 85.5604 111.309C85.7899 112.57 85.9696 113.839 86.1392 115.118C87.3168 116.955 88.2848 118.891 89.3626 120.781C89.1031 120.631 88.5842 120.329 88.3247 120.178C87.6361 119.255 87.0274 118.305 86.3089 117.435C84.6822 117.106 83.3051 118.402 81.8581 118.784C80.8502 115.872 80.7603 112.836 80.3213 109.853C80.6805 109.409 81.389 108.53 81.7483 108.086C80.4111 106.533 78.8443 105.13 77.7965 103.408C77.4871 97.2557 78.1557 90.9614 81.0897 85.3153C87.7958 72.2207 100.06 61.9848 113.612 54.4565C113.602 49.5738 113.553 44.6823 113.612 39.7996Z" fill="white"/>
<path d="M144.987 22.4971C143.959 17.3392 144.009 11.3823 147.792 7.07666C151.324 11.7552 150.187 19.1236 144.987 22.4971ZM146.045 19.8605C147.612 16.6645 147.991 13.149 147.911 9.70446C146.295 12.8827 146.015 16.416 146.045 19.8605Z" fill="#1C180D"/>
<path d="M58.4463 89.2659C60.0929 87.7479 60.7914 84.9425 63.6555 85.0135C65.1524 86.6914 67.0286 88.4137 67.3778 90.6331C66.5096 92.2399 65.4019 93.7403 64.4838 95.3382C61.1706 94.7079 60.0829 91.5031 58.4463 89.2659ZM61.8093 87.2862C61.959 88.2983 62.3482 89.2748 62.7474 90.2425L61.8692 90.3756C62.2384 91.3522 62.6277 92.3287 63.0069 93.323C63.1266 92.6039 63.3661 91.1657 63.4859 90.4466C64.0447 90.6508 65.1524 91.0681 65.7112 91.2811C65.3919 90.8284 64.7533 89.9317 64.4339 89.479C64.4239 88.1207 63.1166 87.4549 61.8093 87.2862Z" fill="#1C180D"/>
<path d="M92.336 112.197C92.2961 111.709 92.2162 110.723 92.1763 110.235C92.4956 111.522 92.7651 112.827 93.0645 114.132C91.5676 114.141 90.0707 114.185 88.5938 114.23C89.7314 113.404 90.7792 112.383 92.336 112.197Z" fill="#DEDEDE"/>
<path d="M95.4199 115.1C98.0844 114.514 100.749 113.901 103.383 113.182C102.924 114.257 102.475 115.331 102.046 116.414C101.537 115.588 101.048 114.763 100.559 113.946C99.3418 114.7 98.1543 115.482 96.9767 116.263C96.5875 115.97 95.8091 115.393 95.4199 115.1Z" fill="#BDBB78"/>
<path d="M41.8301 79.9353C43.2072 78.8345 43.4068 75.9492 45.752 76.3487L44.0056 77.3697C44.6942 78.0177 45.3927 78.6569 46.1013 79.305C45.4426 80.4413 44.8139 81.5865 44.1753 82.7406C44.1852 81.986 44.2052 80.4768 44.2152 79.7222C43.6164 79.7755 42.4189 79.882 41.8301 79.9353Z" fill="#FDEEE0"/>
<path d="M34.7952 104.003C34.0667 103.15 35.2044 101.375 36.4318 101.837C37.2601 102.68 36.0127 104.482 34.7952 104.003Z" fill="#D8D1CB"/>
<path d="M91.6172 121.838C92.8247 120.329 93.9823 118.802 95.1898 117.284C95.1599 118.66 95.1698 120.054 95.1 121.438C94.8605 121.723 94.3615 122.3 94.112 122.584C93.2538 122.326 92.4355 122.113 91.6172 121.838Z" fill="#D8D1CB"/>
<path d="M105.898 110.616C105.928 109.409 105.728 108.069 107.005 107.287C106.816 107.998 106.457 109.409 106.267 110.119C107.574 109.711 108.892 109.267 110.179 108.788C109.46 109.809 108.762 110.838 108.103 111.895C106.916 111.691 105.728 111.486 104.561 111.3C104.89 111.131 105.558 110.785 105.898 110.616Z" fill="#D7D1CA"/>
<path d="M70.87 113.306C71.8081 112.25 74.0135 113.59 73.1653 114.753C72.1873 115.872 69.9719 114.478 70.87 113.306Z" fill="#D7D1CA"/>
<path d="M74.9922 113.191C77.1078 113.892 79.0438 114.949 79.423 117.106C78.485 116.929 77.5668 116.742 76.6587 116.556C76.0899 115.428 75.5411 114.31 74.9922 113.191Z" fill="#E9E2DB"/>
<path d="M63.4961 126.712C64.514 126.01 65.5518 125.336 66.5897 124.661C67.5976 126.445 68.6554 128.212 69.6633 130.014C67.5776 128.949 65.5319 127.83 63.4961 126.712Z" fill="#E9E2DB"/>
<path d="M193.357 95.0983C197.728 94.7787 201.76 92.9143 204.245 89.6562C208.316 101.464 206.151 114.46 199.495 125.185C194.116 127.111 189.455 130.351 183.987 132.091C174.496 135.216 164.108 135.651 154.149 134.515C143.411 132.766 132.583 128.505 125.677 120.746C122.694 117.31 120.478 112.889 121.546 108.477C122.324 105.503 124.879 103.283 126.895 100.931C140.427 101.597 153.849 105.707 167.461 103.594C176.732 102.351 183.967 95.986 193.357 95.0983Z" fill="#BCDA96"/>
<path d="M140.965 6.8102C141.884 4.45762 143.011 1.88311 145.336 0.356158C147.282 -0.789058 149.039 1.08413 150.077 2.35363C155.036 8.85207 154.418 17.632 150.156 24.2814C159.587 25.4089 169.107 26.7938 177.999 29.9365C180.913 31.1172 184.356 32.4844 185.523 35.3607C185.932 37.6867 182.47 38.2104 180.763 39.0893C180.713 43.8033 180.663 48.5085 180.603 53.2225C188.128 57.2619 194.395 62.7838 200.403 68.4211C203.446 66.8675 206.929 66.7432 210.222 67.7375C214.493 62.5352 220.88 58.3716 228.255 57.7235C234.881 57.0311 241.298 59.1439 247.375 61.2213C253.433 63.2721 259.061 67.0717 261.606 72.5225C264.57 78.8168 264.76 85.8035 264.64 92.5328C264.31 102.032 261.786 112.09 254.251 119.21C242.525 130.094 223.275 135.501 207.238 129.331C205.253 131.763 203.247 134.187 201.041 136.459C196.501 141.067 191.351 145.204 185.503 148.471C185.723 150.708 185.913 152.963 185.873 155.227C165.854 156.7 145.726 155.671 125.667 155.804C125.897 155.2 126.366 154.002 126.605 153.407C129.329 154.65 132.463 154.268 135.427 154.374C151.803 154.366 168.209 154.872 184.575 153.984C184.276 152.457 183.996 150.948 183.727 149.438C167.461 154.934 149.637 153.735 132.653 152.466C133.241 152.173 134.409 151.605 134.998 151.321C145.736 151.729 156.513 152.279 167.241 151.4C173.977 150.823 180.833 149.439 186.481 145.976C198.247 138.865 207.767 128.452 212.009 116.28C215.94 105.308 214.264 93.1276 208.626 82.865C203.716 73.7477 196.062 65.9797 187.439 59.4724C184.815 57.395 181.651 55.9302 179.107 53.7996C178.578 49.0856 179.176 44.3271 178.947 39.6042C157.372 42.5782 135.227 42.4895 113.612 39.7995C113.552 44.6823 113.602 49.5738 113.612 54.4565C100.06 61.9848 87.7953 72.2207 81.0892 85.3152C78.1553 90.9614 77.4867 97.2557 77.796 103.408C77.2771 103.204 76.2292 102.813 75.7103 102.609C75.5007 96.0572 76.9178 89.541 79.8917 83.5486C75.8999 86.1764 69.5032 88.5822 65.5813 84.5606C58.0169 76.482 53.3765 66.5745 46.1215 58.2828C44.9539 56.9157 43.1277 55.2822 41.0619 56.3564C36.0922 58.194 31.0227 60.7153 28.1187 64.9055C31.3021 64.6392 34.3558 63.423 37.5791 63.4762C40.4731 64.4971 42 67.1782 43.7364 69.3266C47.0695 73.6766 48.8758 78.728 51.5103 83.3977C52.9873 83.1136 54.4941 82.5099 56.0409 82.8473C56.3204 83.5841 56.8792 85.04 57.1487 85.7769C55.4522 85.1288 53.4663 83.9303 52.2887 86.0166C51.8496 85.8834 50.9615 85.626 50.5224 85.4928C50.3328 85.0933 49.9535 84.3032 49.7639 83.9037L49.2251 83.522L48.4965 84.3653L48.8458 85.2886C49.3249 86.4338 49.8537 87.5524 50.3128 88.7243C49.6841 88.7509 48.4267 88.813 47.798 88.8397C47.5585 88.4846 47.0795 87.7743 46.84 87.4192C46.2612 84.9779 47.7381 82.7762 48.5664 80.5479C47.1693 81.7375 45.9518 83.0781 44.5248 84.2322C42.5488 84.5695 42.0998 82.501 41.2715 81.4002C38.9463 78.6126 42.4989 75.9405 44.5647 74.0673C42.5788 70.9157 40.8125 67.4268 37.5592 65.1364C33.9267 64.5238 30.1145 67.5955 26.6816 65.1275C27.939 60.733 32.779 58.4603 36.8406 56.3475C39.575 55.1756 43.4869 53.1959 45.9918 55.8059C52.1989 62.0647 56.2805 69.6906 61.3899 76.6418C63.8149 79.8555 65.9305 84.0191 70.4212 85.2442C75.5007 85.1732 79.6621 81.9062 82.8356 78.6925C90.2802 68.4832 100.509 60.0228 111.945 53.4179C111.806 48.7393 111.925 44.0608 111.836 39.3823C109.89 38.4146 106.457 38.1749 106.247 35.7425C106.487 32.5643 110.239 31.1793 113.053 30.0341C122.114 26.9358 131.754 25.4177 141.325 24.1127C137.632 18.8483 139.059 12.3765 140.965 6.8102ZM140.776 17.0639C140.856 20.3486 142.353 24.9117 146.324 25.7018C153.36 19.3543 153.739 7.60918 146.524 1.22615C142.083 5.42528 140.935 11.4976 140.776 17.0639ZM114.4 31.2148C111.866 32.2713 108.522 33.2212 107.644 35.8401C110.219 37.8021 113.792 37.9974 116.975 38.6366C133.661 40.5808 150.586 40.6252 167.341 39.4267C173.129 38.8141 179.336 38.7253 184.366 35.7602C180.673 31.8984 175.025 30.3804 169.756 29.0043C163.02 27.4685 156.154 26.3499 149.238 25.7462C147.991 26.3943 146.714 26.998 145.446 27.5928C144.518 26.9181 143.6 26.2523 142.682 25.5953C133.102 26.6873 123.492 28.2408 114.4 31.2148ZM210.562 69.6284C207.648 68.4033 204.334 68.2346 201.44 69.5663C204.544 73.3393 207.428 77.2455 210.053 81.3026C212.498 78.9944 211.589 75.1326 214.683 73.3215C220.511 68.6253 228.275 65.4382 236.258 65.8998C243.513 66.3437 250.359 70.2499 253.742 75.9848C257.365 82.137 257.764 89.3457 257.035 96.1282C255.868 106.968 247.355 116.369 236.678 121.252C228.944 124.776 219.423 125.167 211.48 121.971C210.372 124.022 209.224 126.064 208.117 128.114C215.461 130.458 223.575 131.372 231.169 129.402C241.098 126.96 250.818 122.069 256.507 114.212C262.833 105.166 263.492 94.0597 262.784 83.7084C262.165 76.4287 259.211 68.3589 251.507 64.7013C244.641 61.5942 237.127 58.7356 229.273 59.0818C221.449 59.5168 215.022 64.222 210.562 69.6284ZM214.903 75.2746C213.575 77.7337 213.156 80.7433 210.462 82.4478C216.978 94.3349 217.617 108.388 212.258 120.719C221.21 123.853 231.828 122.93 239.641 117.843C248.264 112.756 254.77 104.447 255.549 95.1073C256.576 85.9544 254.461 74.8218 244.791 69.7705C234.961 64.7635 222.327 68.3412 214.903 75.2746ZM41.8303 79.9354C42.4191 79.8821 43.6166 79.7756 44.2154 79.7223C44.2054 80.4769 44.1855 81.9861 44.1755 82.7407C44.8142 81.5866 45.4429 80.4414 46.1015 79.3051C45.393 78.657 44.6944 78.0178 44.0058 77.3698L45.7522 76.3488C43.4071 75.9493 43.2075 78.8346 41.8303 79.9354Z" fill="#110B0C"/>
<path d="M140.776 17.0638C140.936 11.4975 142.084 5.4252 146.524 1.22607C153.74 7.6091 153.36 19.3542 146.325 25.7018C142.353 24.9116 140.856 20.3485 140.776 17.0638ZM144.988 22.4969C150.187 19.1234 151.325 11.755 147.792 7.07644C144.01 11.3821 143.96 17.339 144.988 22.4969Z" fill="#FDF9F1"/>
<path d="M146.045 19.8604C146.015 16.4158 146.295 12.8825 147.911 9.70435C147.991 13.1489 147.612 16.6644 146.045 19.8604Z" fill="#FEFCF7"/>
<path d="M210.562 69.6284C215.022 64.2219 221.449 59.5168 229.273 59.0818C237.127 58.7355 244.641 61.5941 251.507 64.7013C259.211 68.3589 262.165 76.4287 262.784 83.7083C263.492 94.0597 262.834 105.166 256.507 114.212C250.818 122.069 241.098 126.96 231.169 129.402C223.575 131.372 215.461 130.458 208.117 128.114C209.224 126.064 210.372 124.022 211.48 121.971C219.423 125.167 228.944 124.776 236.678 121.252C247.356 116.369 255.868 106.968 257.036 96.1282C257.764 89.3456 257.365 82.137 253.742 75.9848C250.359 70.2498 243.513 66.3437 236.258 65.8998C228.275 65.4381 220.511 68.6252 214.683 73.3215C211.589 75.1325 212.498 78.9943 210.053 81.3025C207.428 77.2454 204.544 73.3393 201.44 69.5663C204.334 68.2346 207.648 68.4033 210.562 69.6284Z" fill="#FEFCF7"/>
<path d="M41.0624 56.3563C43.1281 55.2821 44.9544 56.9156 46.122 58.2827C53.377 66.5745 58.0174 76.4819 65.5817 84.5606C69.5036 88.5821 75.9004 86.1763 79.8921 83.5485C76.9183 89.5409 75.5012 96.0571 75.7108 102.609C74.4134 103.062 73.0862 103.434 71.7789 103.825C71.6292 104.58 71.3198 106.098 71.1602 106.861C70.771 106 70.3818 105.139 70.0125 104.287C70.7211 102.804 71.1203 101.233 71.1702 99.6259C70.5914 99.4306 69.4437 99.04 68.8649 98.8447C67.9768 97.6906 67.0686 96.572 66.1106 95.4801C64.5039 96.3057 63.4861 98.9601 61.4004 98.4985C60.8216 95.7375 60.3425 92.8168 57.1691 91.4851C57.4086 90.0825 58.9953 88.5022 57.668 87.2239C56.1911 86.9842 54.7141 86.8155 53.2372 86.7001C53.826 87.5701 55.0036 89.319 55.5824 90.189C54.9836 89.9227 53.7961 89.3989 53.1973 89.1326C52.9179 89.5765 52.3491 90.482 52.0696 90.9258L52.2792 89.1858C50.922 89.2924 49.5848 89.3811 48.2475 89.4522L47.7985 88.8396C48.4272 88.813 49.6846 88.7508 50.3133 88.7242C49.8542 87.5523 49.3253 86.4338 48.8463 85.2885C49.0758 84.9423 49.5349 84.2499 49.7644 83.9036C49.954 84.3031 50.3332 85.0932 50.5228 85.4927C50.9619 85.6259 51.8501 85.8833 52.2892 86.0165C53.4668 83.9303 55.4527 85.1288 57.1492 85.7768C56.8797 85.04 56.3208 83.584 56.0414 82.8472C54.4946 82.5098 52.9877 83.1135 51.5108 83.3976C48.8762 78.728 47.07 73.6766 43.7369 69.3265C42.0005 67.1781 40.4736 64.4971 37.5796 63.4762C34.3562 63.4229 31.3026 64.6391 28.1191 64.9055C31.0231 60.7152 36.0927 58.194 41.0624 56.3563ZM58.4465 89.2657C60.0831 91.5029 61.1708 94.7077 64.484 95.338C65.4021 93.7401 66.5098 92.2397 67.378 90.6329C67.0287 88.4135 65.1526 86.6912 63.6557 85.0133C60.7916 84.9423 60.0931 87.7477 58.4465 89.2657Z" fill="#FCFBFA"/>
<path d="M61.8096 87.2861C63.1169 87.4548 64.4242 88.1206 64.4341 89.4789C64.7535 89.9317 65.3921 90.8283 65.7115 91.2811C65.1526 91.068 64.0449 90.6508 63.4861 90.4466C63.3663 91.1657 63.1269 92.6039 63.0071 93.3229C62.6279 92.3287 62.2387 91.3521 61.8694 90.3756L62.7476 90.2424C62.3485 89.2747 61.9593 88.2982 61.8096 87.2861Z" fill="#FBEAE0"/>
<path d="M52.2888 106.053C52.189 104.722 52.139 103.399 52.139 102.076C52.3885 102.609 52.8675 103.674 53.117 104.207L53.6659 105.521C54.4543 105.521 56.021 105.512 56.7994 105.512C54.0151 106.488 51.2908 107.589 48.5664 108.663C48.6363 108.317 48.766 107.616 48.8359 107.27C50.0334 107.021 51.221 106.622 52.2888 106.053Z" fill="#FBEAE0"/>
<path d="M136.414 87.9163C147.601 88.0317 158.15 84.2055 169.177 83.1047C178.986 82.0837 189.036 81.7286 198.785 83.4331C201.5 83.735 203.456 85.5815 204.783 87.579C211.35 101.233 207.058 117.106 198.815 129.419C194.015 136.22 185.962 140.481 178.028 143.899C171.322 146.82 163.738 147.13 156.423 147.343C156.144 146.979 155.585 146.242 155.305 145.87C162.85 145.426 170.763 145.621 177.699 142.514C186.441 138.599 195.412 133.468 199.494 125.185C206.15 114.46 208.316 101.464 204.244 89.6564C201.759 92.9145 197.728 94.7788 193.357 95.0984C183.966 95.9861 176.731 102.351 167.46 103.594C153.848 105.707 140.426 101.597 126.894 100.931C116.645 100.159 105.858 101.774 96.1077 98.1523C91.9064 96.7141 88.9325 93.598 86.2381 90.5352C84.7312 96.9183 85.4997 103.47 87.0065 109.791C86.6473 110.173 85.9188 110.927 85.5595 111.309C83.1046 102.378 82.426 92.657 87.1563 84.1966C103.642 84.6227 119.849 88.4312 136.414 87.9163ZM171.342 84.4185C161.542 85.253 152.152 88.1915 142.352 88.9994C131.046 90.1979 119.679 88.7775 108.452 87.579C101.636 86.8333 94.8304 85.9721 87.9845 85.5815C88.3038 88.0318 88.1143 90.8815 90.1401 92.8345C93.2736 96.0571 97.904 97.7705 102.534 98.534C110.418 99.7414 118.462 99.1022 126.405 99.6259C140.336 100.354 154.168 104.544 168.179 102.174C174.785 101.144 180.164 97.3089 186.401 95.3647C191.461 93.5714 197.877 94.255 201.709 90.2423L202.508 90.2245C202.997 87.8187 201.799 85.3773 198.875 85.0133C189.794 83.6639 180.483 83.6639 171.342 84.4185Z" fill="#121106"/>
<path d="M49.2256 83.522L49.7645 83.9037C49.5349 84.2499 49.0759 84.9424 48.8464 85.2886L48.4971 84.3653L49.2256 83.522Z" fill="#E84B4B"/>
<path d="M171.342 84.4187C180.483 83.6641 189.794 83.6641 198.875 85.0135C201.799 85.3775 202.997 87.8189 202.508 90.2247L201.709 90.2425C194.654 90.42 187.289 90.2957 180.763 93.0478C174.885 95.4536 168.977 98.2057 162.401 98.6052C145.017 99.4042 127.593 97.9039 110.468 95.285C107.364 94.9831 104.51 92.7903 105.049 89.8074C104.63 87.7922 106.865 87.8189 108.452 87.5792C119.679 88.7777 131.046 90.1981 142.352 88.9996C152.152 88.1917 161.542 85.2532 171.342 84.4187Z" fill="#BAD793"/>
<path d="M208.626 82.865C214.264 93.1276 215.941 105.308 212.009 116.28C207.767 128.452 198.247 138.865 186.481 145.976C180.833 149.438 173.977 150.823 167.241 151.4C156.513 152.279 145.736 151.729 134.998 151.321C133.251 151.125 131.525 150.903 129.809 150.664C131.765 149.279 133.541 146.962 136.385 147.459C143.061 147.778 149.747 147.734 156.424 147.343C163.738 147.13 171.323 146.82 178.029 143.899C185.963 140.481 194.016 136.22 198.816 129.419C207.059 117.106 211.35 101.233 204.784 87.579C205.702 87.6856 206.62 87.7921 207.558 87.9164C207.887 86.2296 208.236 84.5429 208.626 82.865Z" fill="#FDFCFA"/>
<path d="M39.7742 85.3684C42.0595 84.8446 43.6363 86.1674 44.7939 87.7388C45.3028 87.6589 46.3207 87.4991 46.8397 87.4192C47.0792 87.7743 47.5582 88.4845 47.7977 88.8396L48.2467 89.4521C49.584 89.3811 50.9212 89.2924 52.2784 89.1858L52.0688 90.9258C52.3483 90.482 52.9171 89.5764 53.1965 89.1326C53.7953 89.3989 54.9828 89.9226 55.5816 90.189C55.0028 89.319 53.8252 87.5701 53.2364 86.7001C54.7134 86.8155 56.1903 86.9841 57.6672 87.2238C58.9945 88.5022 57.4078 90.0825 57.1683 91.4851C60.3417 92.8168 60.8208 95.7375 61.3996 98.4985C63.4853 98.9601 64.5031 96.3057 66.1098 95.4801C67.0678 96.572 67.976 97.6906 68.8641 98.8447C69.4429 99.04 70.5906 99.4306 71.1694 99.6259C71.1195 101.233 70.7203 102.804 70.0117 104.287C70.381 105.139 70.7702 106 71.1594 106.861C71.319 106.098 71.6284 104.58 71.7781 103.825C73.0854 103.434 74.4126 103.062 75.71 102.609C76.2289 102.813 77.2768 103.204 77.7957 103.408C78.8435 105.13 80.4102 106.533 81.7475 108.086C81.3882 108.53 80.6797 109.409 80.3204 109.853C80.7595 112.836 80.8494 115.872 81.8573 118.784C83.3043 118.402 84.6814 117.106 86.3081 117.434C87.0266 118.304 87.6353 119.254 88.3239 120.178C88.5834 120.329 89.1023 120.63 89.3617 120.781C89.9306 121.048 91.0582 121.58 91.6171 121.838C92.4354 122.113 93.2537 122.326 94.1119 122.584C94.5011 122.868 95.2895 123.436 95.6787 123.72C95.8982 124.146 96.3274 124.989 96.5469 125.416C98.0039 126.135 99.4808 126.854 100.968 127.555L101.517 129.428C99.7503 128.984 97.9939 128.611 96.2276 128.256C98.1137 130.582 100.139 132.837 102.465 134.844C102.125 135.163 101.427 135.811 101.078 136.14C98.6425 134.071 96.5968 131.701 94.4911 129.402C92.4254 129.783 90.3697 130.138 88.3039 130.467C89.6811 132.225 91.0682 133.991 92.5751 135.678C92.3356 136.113 91.8666 136.983 91.6271 137.418C90.19 135.669 88.6831 133.974 87.2261 132.251C84.4519 136.202 81.0589 139.735 77.4564 143.109C75.6202 144.627 76.3686 147.059 76.0992 149.039C75.6301 148.835 74.6721 148.435 74.1931 148.231C74.1831 147.92 74.1532 147.299 74.1432 146.988C74.2031 142.505 73.5545 138.013 72.1873 133.689C68.5648 131.292 64.5431 129.419 60.8806 127.085C60.4515 126.694 59.5833 125.904 59.1442 125.513C62.168 125.131 65.4212 124.279 65.7805 121.119C65.9402 120.826 66.2695 120.249 66.4292 119.956C66.8184 120.32 67.5967 121.048 67.9859 121.412C69.1336 121.429 70.2912 121.438 71.4587 121.465C70.9897 120.542 70.5307 119.627 70.0916 118.713C71.6883 117.852 73.2949 116.999 74.8817 116.103C73.3548 116.343 71.838 116.6 70.3411 116.866C69.7024 115.251 69.0837 113.635 68.435 112.046C67.2575 114.336 66.0899 116.671 65.5809 119.175C65.0121 118.704 64.4532 118.242 63.9044 117.798C63.8545 115.295 63.6849 112.791 63.3256 110.315C62.7069 111.06 62.1081 111.815 61.5193 112.57C60.8008 112.312 59.3837 111.779 58.6652 111.522C58.745 112.285 58.9047 113.821 58.9845 114.594C58.5953 114.984 57.8169 115.765 57.4278 116.156C57.1184 116.449 56.5197 117.053 56.2103 117.355C55.9708 117.559 55.5017 117.976 55.2622 118.18C54.1745 117.71 53.1067 117.248 52.0389 116.795C51.0609 115.97 50.1029 115.162 49.1449 114.354C48.9952 114.62 48.7058 115.162 48.5661 115.437C47.4284 117.044 46.0313 118.615 45.8018 120.568C43.3768 119.37 44.5643 117.301 46.0014 115.97C43.3967 115.455 40.7223 114.594 39.6745 112.206C37.5089 112.428 35.3933 112.09 33.4074 111.318C33.6269 110.59 34.0561 109.134 34.2657 108.406C32.9783 107.616 31.4415 107.003 30.6631 105.743C31.0423 104.739 31.5613 103.798 32.0802 102.849C30.244 103.266 28.3678 103.381 26.5117 103.15C26.5915 101.606 26.841 100.079 27.2701 98.5873C26.9009 98.1789 26.1624 97.3621 25.7832 96.9538C26.6314 95.4179 28.0685 94.3881 29.8947 93.891C30.5234 93.1186 31.202 92.3818 31.9305 91.6716C34.0162 92.0799 35.1139 93.7844 36.0919 95.3203C36.5709 94.7077 37.0599 94.1129 37.5489 93.5092C37.1397 92.0533 35.9122 90.5618 36.491 89.0349C37.3692 88.5289 38.2873 88.0672 39.2354 87.65C39.3751 87.0729 39.6345 85.9366 39.7742 85.3684ZM41.0715 86.9575C41.0516 87.8187 41.0017 89.532 40.9818 90.3932C40.2233 90.3133 38.6965 90.1623 37.9381 90.0824C38.7664 90.9258 39.6246 91.7603 40.373 92.6925C39.9838 93.5092 39.5647 94.3171 39.1056 95.1072C41.8999 94.4059 44.5544 93.1186 45.6321 90.5796C43.1073 90.6417 42.2691 88.4756 41.0715 86.9575ZM36.7904 100.247C37.489 100.123 38.8861 99.8834 39.5846 99.768C40.0237 100.185 40.9019 101.037 41.341 101.455C42.1194 99.6082 42.2192 97.1491 44.5544 96.2524C45.6521 97.1136 46.66 98.0546 47.5781 99.0933C47.9873 96.5454 48.2867 93.9886 48.3565 91.423C45.3028 95.3203 39.415 96.0482 36.7904 100.247ZM54.7633 91.8491C53.4859 92.4972 53.4959 93.1186 54.7833 93.7134C56.0506 93.0565 56.0406 92.435 54.7633 91.8491ZM49.4842 98.1434L50.8314 98.1256C50.9811 96.1814 51.1507 94.2461 51.1906 92.3019C48.7756 93.4293 49.8734 96.208 49.4842 98.1434ZM32.1101 96.2613C30.5234 96.2436 28.9466 96.2169 27.3799 96.1725C28.4976 96.8561 29.6253 97.5397 30.7629 98.2055C29.8149 99.4484 28.8568 100.682 27.9786 101.97C29.7649 101.428 31.3916 100.567 32.9883 99.6614C33.2877 100.141 33.9064 101.109 34.2058 101.588C34.3754 100.212 34.5551 98.7737 36.2615 98.2765C34.8844 96.6963 33.6768 95.0096 32.7887 93.1808C32.5492 94.2106 32.4095 95.2404 32.1101 96.2613ZM56.35 97.6285C55.1026 96.5543 53.8352 95.5067 52.5578 94.4858C52.448 96.3412 54.893 99.546 51.4102 99.9189C52.6077 100.496 53.8153 101.064 55.0327 101.65C56.6793 101.339 58.3159 100.958 59.9725 100.611C59.4835 100.265 58.4956 99.5727 58.0066 99.2264C58.3958 97.5841 58.785 95.9328 58.8848 94.255C57.1483 94.4858 57.1783 96.5454 56.35 97.6285ZM64.3934 101.384C63.4454 101.224 62.5073 101.082 61.5692 100.94C62.9264 103.346 65.4911 104.775 68.0857 106C67.0179 104.384 66.5389 102.138 69.1535 101.508C69.1336 101.313 69.0837 100.922 69.0637 100.736C68.2754 101.18 67.4969 101.632 66.7285 102.094C66.3693 100.611 66.0101 99.1465 65.6408 97.6817C65.2217 98.9157 64.7826 100.132 64.3934 101.384ZM44.1652 99.5638C43.786 101.188 43.3868 102.813 42.9677 104.438C43.297 105.237 43.6463 106.036 43.9956 106.852C45.3528 106.4 46.7199 105.956 48.0871 105.503C48.2567 103.852 48.4364 102.192 48.6759 100.558C47.7478 100.895 46.8197 101.215 45.8816 101.499C45.2828 100.86 44.7141 100.212 44.1652 99.5638ZM34.7945 104.003C36.012 104.482 37.2595 102.68 36.4312 101.836C35.2037 101.375 34.066 103.15 34.7945 104.003ZM36.7006 105.831C35.2436 105.574 33.7866 105.325 32.3396 105.112C33.8864 106.204 35.513 107.199 37.1497 108.202C36.7106 108.779 35.8524 109.924 35.4133 110.501C36.8902 110.492 38.3672 110.483 39.8541 110.483C40.4529 109.24 41.6803 108.122 41.6404 106.719C40.9618 104.766 39.8641 102.964 38.9959 101.082C38.2075 102.653 37.4591 104.242 36.7006 105.831ZM52.2884 106.053C51.2206 106.622 50.0331 107.021 48.8355 107.27C48.7657 107.616 48.6359 108.317 48.5661 108.663C50.3624 110.466 52.7574 111.886 55.5217 112.09C57.6773 110.226 58.3858 107.438 57.8569 104.855C56.6294 103.63 54.6635 104.349 53.1167 104.207C52.8672 103.674 52.3882 102.609 52.1387 102.076C52.1387 103.399 52.1886 104.722 52.2884 106.053ZM60.0124 103.958C61.1201 105.876 63.096 107.19 64.9023 108.566C65.2017 109.649 65.4811 110.732 65.7805 111.833C67.2375 111.238 68.7443 110.687 70.3909 110.901C69.5028 110.004 68.6645 109.072 67.8662 108.14C65.1817 106.843 62.627 105.352 60.0124 103.958ZM73.9935 104.961C73.6642 106.657 72.5765 108.015 70.9399 108.912C72.5266 109.684 73.3549 110.883 73.0555 112.552C73.3549 111.975 73.9536 110.83 74.253 110.252C75.7898 111.3 77.2268 112.88 79.3924 112.703C78.4244 111.54 77.4564 110.395 76.4784 109.258C77.1969 108.947 78.624 108.326 79.3425 108.006C79.1429 107.669 78.7337 106.994 78.5341 106.657C77.4963 107.039 76.4784 107.421 75.4605 107.802C75.3707 107.101 75.1911 105.689 75.1012 104.988C74.8218 104.979 74.273 104.961 73.9935 104.961ZM59.6432 107.039C58.0964 109.675 62.9663 107.154 59.6432 107.039V107.039ZM46.0014 110.972C44.5743 110.83 43.1672 110.705 41.7601 110.59C42.0096 111.593 42.289 112.605 42.5685 113.617C43.8757 113.821 45.203 114.034 46.5403 114.23C47.2887 112.889 48.8355 112.738 50.3524 112.632C51.4002 114.052 53.0568 114.7 54.7833 113.839C51.5599 113.013 48.7657 111.398 46.3507 109.365C46.2609 109.764 46.0812 110.563 46.0014 110.972ZM70.87 113.306C69.9719 114.478 72.1873 115.872 73.1652 114.753C74.0135 113.59 71.8081 112.25 70.87 113.306ZM74.9915 113.191C75.5403 114.31 76.0892 115.428 76.658 116.556C77.5661 116.742 78.4843 116.928 79.4223 117.106C79.0431 114.949 77.1071 113.892 74.9915 113.191ZM76.0093 118.074C75.9794 120.657 74.9715 123.072 73.9037 125.433C73.9636 128.975 73.295 132.686 74.9116 136.051C75.3707 138.031 75.7299 140.037 76.0692 142.052C78.5541 139.584 80.9691 137.054 83.1945 134.4C84.0328 132.784 86.5675 131.124 85.2103 129.233C83.444 126.241 81.8772 123.169 80.4502 120.045C79.9712 118.242 77.5162 118.597 76.0093 118.074ZM83.0448 120.293C81.6477 121.429 83.8232 123.489 85.1605 122.228C86.7073 121.065 84.3821 118.979 83.0448 120.293ZM67.9361 123.383C69.1436 125.877 70.5506 128.292 72.2072 130.582C72.0375 128.034 71.8579 125.478 72.2372 122.948C70.7902 123.09 69.3631 123.232 67.9361 123.383ZM84.6115 124.625C85.4299 126.046 86.2782 127.448 87.1563 128.851C87.2861 127.662 87.4158 126.472 87.5555 125.291C88.743 124.474 91.168 124.341 90.659 122.459C90.21 122.965 89.3019 123.977 88.8528 124.492C88.0943 123.853 87.3459 123.223 86.6174 122.601C85.9488 123.267 85.2702 123.942 84.6115 124.625ZM63.4952 126.712C65.531 127.83 67.5768 128.949 69.6625 130.014C68.6546 128.212 67.5967 126.445 66.5888 124.661C65.551 125.336 64.5131 126.01 63.4952 126.712ZM88.6732 128.762C90.2299 128.54 91.7967 128.31 93.3435 128.043C92.8745 127.084 92.3955 126.135 91.9165 125.194C90.6191 126.214 89.5713 127.448 88.6732 128.762Z" fill="#2D2021"/>
<path d="M87.9854 85.5815C94.8312 85.9722 101.637 86.8333 108.453 87.579C106.866 87.8187 104.631 87.7921 105.05 89.8073C104.511 92.7902 107.365 94.983 110.469 95.2848C127.594 97.9037 145.017 99.404 162.402 98.605C168.978 98.2055 174.886 95.4535 180.764 93.0476C187.29 90.2956 194.655 90.4199 201.71 90.2423C197.878 94.255 191.461 93.5714 186.402 95.3647C180.165 97.3089 174.786 101.144 168.18 102.174C154.169 104.544 140.337 100.354 126.406 99.626C118.462 99.1022 110.419 99.7414 102.535 98.534C97.9049 97.7706 93.2745 96.0572 90.1409 92.8346C88.1151 90.8815 88.3047 88.0318 87.9854 85.5815Z" fill="#93A353"/>
<path d="M41.072 86.9575C42.2695 88.4756 43.1078 90.6417 45.6325 90.5796C44.5548 93.1186 41.9003 94.4059 39.106 95.1072C39.5651 94.3171 39.9842 93.5092 40.3734 92.6925C39.625 91.7603 38.7668 90.9258 37.9385 90.0824C38.6969 90.1623 40.2237 90.3133 40.9822 90.3932C41.0021 89.532 41.052 87.8187 41.072 86.9575Z" fill="#914D7E"/>
<path d="M88.6738 128.762C89.572 127.449 90.6198 126.215 91.9171 125.194C92.3961 126.135 92.8751 127.085 93.3442 128.043C91.7974 128.31 90.2306 128.54 88.6738 128.762Z" fill="#FCFBF7"/>
<path d="M86.2384 90.5354C88.9328 93.5982 91.9067 96.7142 96.108 98.1524C105.858 101.774 116.646 100.159 126.894 100.931C124.879 103.284 122.324 105.503 121.545 108.477C120.478 112.889 122.693 117.31 125.677 120.746C132.583 128.505 143.41 132.766 154.148 134.515C164.107 135.652 174.496 135.217 183.986 132.092C189.455 130.352 194.115 127.111 199.494 125.185C195.413 133.468 186.441 138.599 177.699 142.514C170.764 145.621 162.85 145.426 155.306 145.87C148.769 146.252 142.233 145.896 135.706 145.55C136.225 143.526 136.754 141.502 137.253 139.469C127.852 140.25 118.801 136.886 109.401 137.72C106.536 138.226 104.381 136.406 102.465 134.844C100.14 132.837 98.1138 130.582 96.2277 128.257C97.9941 128.612 99.7505 128.984 101.517 129.428C102.026 129.624 103.044 130.023 103.563 130.218C106.407 129.206 109.171 127.99 111.746 126.499C111.237 124.705 110.748 122.912 110.309 121.119C111.147 119.805 112.784 118.5 111.895 116.875C110.848 113.91 112.065 110.847 111.786 107.829C109.949 107.066 108.153 106.249 106.267 105.636C104.94 106.595 104.022 107.9 103.024 109.116C102.175 108.033 101.327 106.968 100.479 105.903C98.7725 106.737 97.056 107.554 95.3496 108.379C95.4194 109.596 95.4992 110.821 95.5891 112.046C94.6011 111.025 93.6431 109.969 92.5354 109.072C90.6592 109.178 88.833 109.516 87.0068 109.791C85.4999 103.47 84.7315 96.9184 86.2384 90.5354Z" fill="#96A34F"/>
<path d="M36.791 100.247C39.4156 96.0484 45.3034 95.3204 48.3571 91.4231C48.2873 93.9887 47.9879 96.5455 47.5787 99.0934C46.6606 98.0547 45.6527 97.1137 44.555 96.2525C42.2198 97.1492 42.12 99.6083 41.3416 101.455C40.9025 101.038 40.0243 100.185 39.5852 99.7681C38.8867 99.8835 37.4896 100.123 36.791 100.247Z" fill="#F3E7ED"/>
<path d="M54.7633 91.8491C56.0407 92.435 56.0507 93.0565 54.7833 93.7134C53.496 93.1186 53.486 92.4972 54.7633 91.8491Z" fill="#8C7B7A"/>
<path d="M49.4844 98.1435C49.8736 96.2082 48.7758 93.4295 51.1908 92.302C51.1509 94.2462 50.9813 96.1815 50.8316 98.1257L49.4844 98.1435Z" fill="#735F61"/>
<path d="M32.1101 96.2615C32.4095 95.2405 32.5492 94.2107 32.7887 93.1809C33.6768 95.0097 34.8844 96.6964 36.2615 98.2767C34.5551 98.7738 34.3754 100.212 34.2058 101.588C33.9064 101.109 33.2877 100.141 32.9883 99.6616C31.3916 100.567 29.7649 101.428 27.9786 101.97C28.8568 100.683 29.8149 99.4485 30.7629 98.2057C29.6253 97.5398 28.4976 96.8563 27.3799 96.1727C28.9466 96.2171 30.5234 96.2437 32.1101 96.2615Z" fill="#CF8DB2"/>
<path d="M56.3509 97.6286C57.1792 96.5455 57.1493 94.4859 58.8857 94.2551C58.7859 95.933 58.3967 97.5843 58.0075 99.2266C58.4965 99.5728 59.4844 100.265 59.9734 100.612C58.3168 100.958 56.6802 101.339 55.0336 101.65C53.8162 101.064 52.6087 100.496 51.4111 99.9191C54.8939 99.5462 52.449 96.3414 52.5587 94.486C53.8361 95.5069 55.1035 96.5544 56.3509 97.6286Z" fill="#AF5A93"/>
<path d="M64.3935 101.384C64.7827 100.132 65.2218 98.9159 65.6409 97.6819C66.0102 99.1467 66.3694 100.612 66.7287 102.094C67.4971 101.632 68.2755 101.18 69.0639 100.736C69.0838 100.922 69.1337 101.313 69.1536 101.508C66.539 102.138 67.018 104.385 68.0858 106C65.4912 104.775 62.9265 103.346 61.5693 100.94C62.5074 101.082 63.4455 101.224 64.3935 101.384Z" fill="#AA7098"/>
<path d="M44.1653 99.564C44.7142 100.212 45.283 100.86 45.8817 101.499C46.8198 101.215 47.7479 100.896 48.676 100.558C48.4365 102.192 48.2568 103.852 48.0872 105.503C46.72 105.956 45.3529 106.4 43.9957 106.853C43.6464 106.036 43.2971 105.237 42.9678 104.438C43.3869 102.813 43.7861 101.189 44.1653 99.564Z" fill="#A14E8F"/>
<path d="M36.7009 105.832C37.4593 104.242 38.2078 102.653 38.9961 101.082C39.8643 102.964 40.962 104.766 41.6406 106.719C41.6805 108.122 40.4531 109.241 39.8543 110.483C38.3674 110.483 36.8905 110.492 35.4135 110.501C35.8526 109.924 36.7108 108.779 37.1499 108.202C35.5133 107.199 33.8866 106.204 32.3398 105.112C33.7869 105.326 35.2439 105.574 36.7009 105.832Z" fill="#B989AE"/>
<path d="M53.117 104.207C54.6638 104.349 56.6297 103.63 57.8572 104.855C58.3861 107.438 57.6776 110.226 55.5221 112.09C52.7578 111.886 50.3627 110.466 48.5664 108.663C51.2908 107.589 54.0151 106.488 56.7994 105.512C56.021 105.512 54.4543 105.521 53.6659 105.521L53.117 104.207Z" fill="#A15592"/>
<path d="M60.0127 103.958C62.6273 105.352 65.182 106.843 67.8665 108.14C68.6648 109.072 69.503 110.004 70.3912 110.901C68.7446 110.688 67.2377 111.238 65.7807 111.833C65.4814 110.732 65.2019 109.649 64.9026 108.566C63.0963 107.19 61.1204 105.876 60.0127 103.958Z" fill="#FAF0F5"/>
<path d="M73.9941 104.961C74.2735 104.961 74.8224 104.979 75.1018 104.988C75.1916 105.689 75.3712 107.101 75.4611 107.802C76.4789 107.421 77.4969 107.039 78.5347 106.657C78.7343 106.994 79.1435 107.669 79.343 108.006C78.6245 108.326 77.1975 108.947 76.479 109.258C77.4569 110.395 78.4249 111.54 79.3929 112.703C77.2274 112.88 75.7904 111.3 74.2535 110.252C73.9541 110.83 73.3554 111.975 73.0561 112.552C73.3554 110.883 72.5271 109.684 70.9404 108.912C72.577 108.015 73.6648 106.657 73.9941 104.961Z" fill="#C29EB4"/>
<path d="M95.3493 108.379C97.0558 107.554 98.7723 106.737 100.479 105.903C101.327 106.968 102.175 108.033 103.023 109.116C104.021 107.9 104.94 106.595 106.267 105.636C108.153 106.249 109.949 107.066 111.785 107.829C112.065 110.847 110.847 113.91 111.895 116.875C112.783 118.5 111.147 119.805 110.308 121.119C110.747 122.912 111.236 124.705 111.745 126.499C109.171 127.99 106.407 129.206 103.562 130.218C103.043 130.023 102.026 129.624 101.517 129.428L100.968 127.555L102.056 127.955C100.878 126.552 99.7802 125.061 99.8002 123.241C99.1715 123.942 98.5428 124.652 97.934 125.362C97.1756 124.812 96.4171 124.262 95.6787 123.72C95.2895 123.436 94.5011 122.868 94.1119 122.584C94.3614 122.3 94.8603 121.723 95.0998 121.438C95.1697 120.054 95.1597 118.66 95.1897 117.284C93.9822 118.802 92.8246 120.329 91.6171 121.838C91.0582 121.58 89.9305 121.048 89.3617 120.781C88.2839 118.891 87.316 116.955 86.1384 115.118C85.9687 113.839 85.7891 112.57 85.5596 111.309C85.9188 110.927 86.6473 110.173 87.0066 109.791C88.8328 109.516 90.659 109.178 92.5351 109.072C93.6429 109.969 94.6009 111.025 95.5888 112.046C95.499 110.821 95.4192 109.596 95.3493 108.379ZM105.898 110.617C105.558 110.785 104.89 111.131 104.56 111.3C105.728 111.487 106.915 111.691 108.103 111.895C108.762 110.839 109.46 109.809 110.179 108.788C108.891 109.267 107.574 109.711 106.267 110.119C106.456 109.409 106.816 107.998 107.005 107.287C105.728 108.069 105.927 109.409 105.898 110.617ZM99.5008 112.108C100.998 111.859 101.317 109.853 100.299 109.01C98.3931 108.282 97.3452 111.984 99.5008 112.108ZM92.3356 112.197C90.7788 112.383 89.731 113.404 88.5933 114.23C90.0703 114.185 91.5672 114.141 93.0641 114.132C92.7647 112.827 92.4952 111.522 92.1759 110.235C92.2158 110.723 92.2957 111.709 92.3356 112.197ZM95.4192 115.1C95.8084 115.393 96.5868 115.97 96.976 116.263C98.1535 115.482 99.3411 114.7 100.559 113.946C101.048 114.762 101.537 115.588 102.046 116.414C102.475 115.331 102.924 114.256 103.383 113.182C100.748 113.901 98.0837 114.514 95.4192 115.1ZM104.68 118.917C106.935 118.908 109.48 119.255 111.147 117.55C110.269 117.506 108.512 117.408 107.634 117.364C108.063 116.289 108.502 115.215 108.951 114.15C108.462 114.372 107.494 114.825 107.005 115.047C103.672 113.235 104.49 117.159 104.68 118.917ZM97.7644 120.542C99.2713 121.252 100.878 121.767 102.465 122.353C102.155 121.989 101.557 121.261 101.247 120.897C101.237 120.24 101.207 118.926 101.197 118.26C99.9199 118.793 97.5448 118.802 97.7644 120.542ZM105.019 123.809C103.752 124.821 105.718 126.747 106.955 125.655C108.452 124.572 106.327 122.619 105.019 123.809Z" fill="#382223"/>
<path d="M59.6437 107.039C58.0969 109.675 62.9669 107.154 59.6437 107.039V107.039Z" fill="#5B4753"/>
<path d="M99.5012 112.108C97.3457 111.984 98.3935 108.282 100.3 109.01C101.317 109.853 100.998 111.859 99.5012 112.108Z" fill="#6B5A68"/>
<path d="M46.002 110.972C46.0818 110.563 46.2615 109.764 46.3513 109.365C48.7663 111.398 51.5605 113.013 54.7839 113.839C53.0574 114.7 51.4009 114.052 50.353 112.632C48.8362 112.738 47.2894 112.889 46.5409 114.23C45.2037 114.034 43.8764 113.821 42.5691 113.617C42.2896 112.605 42.0102 111.593 41.7607 110.59C43.1678 110.705 44.5749 110.83 46.002 110.972Z" fill="#C289B2"/>
<path d="M61.52 112.57C62.1088 111.815 62.7075 111.06 63.3262 110.315C63.6855 112.792 63.8551 115.295 63.905 117.799C61.47 116.778 58.7557 116.467 56.2109 117.355C56.5203 117.053 57.119 116.449 57.4284 116.156C57.8176 115.766 58.596 114.984 58.9852 114.594C58.9053 113.821 58.7457 112.286 58.6658 111.522C59.3843 111.78 60.8015 112.312 61.52 112.57Z" fill="#A65396"/>
<path d="M65.5811 119.175C66.09 116.671 67.2576 114.336 68.4351 112.046C69.0838 113.635 69.7025 115.251 70.3412 116.866C71.8381 116.6 73.3549 116.343 74.8818 116.103C73.2951 117 71.6884 117.852 70.0917 118.713C70.5308 119.627 70.9898 120.542 71.4589 121.465C70.2913 121.438 69.1337 121.43 67.9861 121.412C67.5969 121.048 66.8185 120.32 66.4293 119.956C66.2197 119.761 65.7906 119.37 65.5811 119.175Z" fill="#BF8BB2"/>
<path d="M84.6123 124.625C85.2709 123.942 85.9496 123.267 86.6182 122.601C87.3467 123.223 88.0951 123.853 88.8535 124.492C89.3026 123.977 90.2107 122.965 90.6598 122.459C91.1687 124.341 88.7438 124.474 87.5562 125.291C87.4165 126.472 87.2868 127.662 87.1571 128.851C86.2789 127.448 85.4306 126.046 84.6123 124.625Z" fill="#F7EFE6"/>
<path d="M49.1451 114.354C50.1031 115.162 51.0612 115.97 52.0392 116.795C53.107 117.248 54.1747 117.71 55.2625 118.18C53.2466 119.858 51.0013 121.296 48.7859 122.743C49.0354 121.829 49.2948 120.923 49.5742 120.027C49.0952 119.716 48.1372 119.112 47.6582 118.802C48.4166 118.331 49.185 117.87 49.9634 117.408C49.6142 116.911 48.9156 115.925 48.5663 115.437C48.706 115.162 48.9954 114.62 49.1451 114.354Z" fill="#7B476F"/>
<path d="M104.681 118.917C104.491 117.159 103.673 113.235 107.006 115.047C107.495 114.825 108.463 114.372 108.952 114.15C108.503 115.215 108.064 116.289 107.635 117.364C108.513 117.408 110.269 117.506 111.147 117.55C109.481 119.255 106.936 118.908 104.681 118.917Z" fill="#AA909E"/>
<path d="M45.8027 120.569C46.0323 118.615 47.4293 117.044 48.567 115.437C48.9163 115.926 49.6148 116.911 49.9641 117.408C49.1857 117.87 48.4173 118.331 47.6589 118.802C48.1379 119.113 49.0959 119.716 49.5749 120.027C49.2955 120.924 49.036 121.829 48.7866 122.744C51.002 121.297 53.2473 119.858 55.2632 118.18C55.5027 117.976 55.9717 117.559 56.2112 117.355C58.756 116.467 61.4703 116.778 63.9053 117.799C64.4541 118.243 65.013 118.704 65.5819 119.175C65.7914 119.37 66.2205 119.761 66.4301 119.956C66.2704 120.249 65.9411 120.826 65.7814 121.119C64.1947 121.385 62.6179 121.625 61.0512 121.874C60.9614 121.163 60.8017 119.761 60.7218 119.05C60.3526 118.917 59.6341 118.651 59.2649 118.518C59.0054 119.858 58.7459 121.199 58.4965 122.548C56.8898 122.078 55.3031 121.598 53.7164 121.119C54.7642 121.856 55.8021 122.61 56.8499 123.365C55.2732 123.915 53.7064 124.484 52.1496 125.061C54.4748 125.238 56.8 125.425 59.1451 125.513C59.5842 125.904 60.4524 126.694 60.8815 127.085C57.3389 126.845 51.461 128.336 50.1038 124.413C47.8086 124.022 46.5312 122.424 45.8027 120.569Z" fill="#371D2A"/>
<path d="M59.2647 118.518C59.6339 118.651 60.3524 118.917 60.7217 119.05C60.8015 119.76 60.9612 121.163 61.051 121.873C62.6178 121.625 64.1945 121.385 65.7812 121.119C65.422 124.279 62.1687 125.131 59.145 125.513C56.7998 125.424 54.4746 125.238 52.1494 125.06C53.7062 124.483 55.273 123.915 56.8497 123.365C55.8019 122.61 54.764 121.856 53.7162 121.119C55.3029 121.598 56.8896 122.078 58.4963 122.548C58.7458 121.199 59.0052 119.858 59.2647 118.518Z" fill="#B88EAC"/>
<path d="M76.0094 118.074C77.5163 118.598 79.9712 118.242 80.4502 120.045C81.8773 123.17 83.4441 126.241 85.2104 129.233C86.5676 131.124 84.0328 132.784 83.1945 134.4C80.3205 134.417 77.5263 135.03 74.9117 136.051C73.295 132.686 73.9636 128.975 73.9038 125.433C74.9715 123.072 75.9795 120.657 76.0094 118.074Z" fill="#FAF1E7"/>
<path d="M97.7652 120.542C97.5457 118.802 99.9207 118.793 101.198 118.26C101.208 118.926 101.238 120.24 101.248 120.897C101.557 121.261 102.156 121.989 102.465 122.353C100.879 121.767 99.2721 121.252 97.7652 120.542Z" fill="#7E698E"/>
<path d="M83.0455 120.293C84.3827 118.979 86.7079 121.065 85.1611 122.228C83.8239 123.489 81.6484 121.429 83.0455 120.293Z" fill="#4E493B"/>
<path d="M67.9365 123.383C69.3636 123.232 70.7906 123.09 72.2376 122.948C71.8584 125.478 72.038 128.034 72.2077 130.582C70.5511 128.292 69.144 125.877 67.9365 123.383Z" fill="#F5F1EB"/>
<path d="M95.6787 123.72C96.4172 124.261 97.1756 124.812 97.9341 125.362C98.5428 124.652 99.1715 123.942 99.8002 123.24C99.7802 125.06 100.878 126.552 102.056 127.955L100.968 127.555C99.4808 126.854 98.0039 126.135 96.5469 125.416C96.3274 124.989 95.8983 124.146 95.6787 123.72Z" fill="#D9D3CE"/>
<path d="M105.02 123.809C106.327 122.619 108.453 124.572 106.956 125.655C105.719 126.747 103.753 124.821 105.02 123.809Z" fill="#6C4F59"/>
<path d="M13 128.762C24.616 129.854 35.9725 125.833 47.5685 127.191C59.4639 128.967 70.1618 136.841 74.1436 146.988C74.1535 147.299 74.1835 147.92 74.1934 148.231C74.6725 148.435 75.6305 148.835 76.0995 149.039C80.6202 144.511 86.039 140.765 92.2561 138.27C92.0965 138.057 91.7871 137.631 91.6274 137.418C91.8669 136.983 92.336 136.113 92.5755 135.678C93.8429 136.992 95.1102 138.35 96.7069 139.389C99.072 139.638 101.367 138.714 103.683 138.332C102.804 137.596 101.926 136.868 101.078 136.14C101.427 135.811 102.126 135.163 102.465 134.844C104.381 136.406 106.537 138.226 109.401 137.72C118.801 136.885 127.853 140.25 137.253 139.469C136.754 141.502 136.225 143.526 135.706 145.55C142.233 145.896 148.769 146.251 155.306 145.87C155.585 146.242 156.144 146.979 156.423 147.343C149.747 147.734 143.061 147.778 136.385 147.459C133.541 146.962 131.764 149.279 129.809 150.664C131.525 150.903 133.251 151.125 134.998 151.32C134.409 151.605 133.241 152.173 132.653 152.466C130.776 152.404 128.9 152.306 127.034 152.324C126.924 152.59 126.705 153.132 126.605 153.407C126.366 154.002 125.897 155.2 125.667 155.804C117.264 161.29 106.467 161.858 96.4275 162.089C93.1343 161.681 92.805 166.262 89.4719 165.862C84.9612 165.631 81.2389 163.066 77.7362 160.784C77.1674 163.35 76.9977 166.217 74.912 168.25C71.9581 171.277 68.6849 174.038 65.7011 177.039C63.1763 179.338 60.901 182.028 57.5978 183.475C55.8913 183.404 54.2447 182.969 52.5981 182.667C49.8837 183.884 47.1793 185.153 44.3352 186.103C38.4873 187.985 32.1604 187.692 26.0929 187.035C28.8872 179.56 33.9267 172.707 34.9845 164.779C39.9742 159.506 47.3689 156.381 54.6339 154.303C43.5568 153.442 31.9807 150.903 23.648 143.961C18.5984 139.922 14.5767 134.693 13 128.762ZM29.8551 129.455C30.8331 131.932 32.0606 134.595 34.725 136.015C38.3875 137.063 42.2994 136.965 46.0716 137.569C45.0637 135.252 44.7843 132.757 43.956 130.405C40.084 127.182 34.4855 129.242 29.8551 129.455ZM45.6425 128.807C46.1814 131.204 46.7203 133.592 47.2691 135.989C50.1132 139.06 54.6838 139.833 58.8552 140.534C59.7134 139.566 59.6535 138.261 60.0028 137.125C59.1346 134.968 57.9471 132.819 55.8215 131.443C52.8476 129.606 49.1452 129.18 45.6425 128.807ZM18.8279 130.813C22.5602 132.784 26.532 134.4 30.7333 135.403C29.915 133.636 29.1865 131.816 28.0688 130.192C25.0551 129.481 21.8517 130.405 18.8279 130.813ZM16.0137 131.719C17.6304 134.222 18.8379 137.081 21.3427 139.034C24.2966 139.948 27.2106 138.208 29.945 137.391C25.6139 134.923 20.6442 133.627 16.0137 131.719ZM61.4897 134.453C61.4398 135.856 61.38 137.258 61.3101 138.67C60.5816 142.292 65.3018 142.851 67.9663 144.209C67.9065 142.283 67.8167 140.303 66.699 138.608C65.1721 137.027 63.296 135.758 61.4897 134.453ZM23.9473 140.845C24.596 143.597 28.4281 144.991 31.0826 146.18C37.0702 146.535 42.4491 143.393 46.6105 139.842C42.3094 139.025 37.9983 138.004 33.5775 137.96C30.1845 138.279 27.001 139.558 23.9473 140.845ZM107.714 140.774C104.78 143.455 100.769 144.76 97.2458 146.695C99.9902 146.873 102.944 147.148 105.379 145.736C109.7 143.482 114.57 142.248 118.861 139.948C115.249 139.744 110.578 138.057 107.714 140.774ZM41.2216 145.39C38.9563 146.349 36.5812 147.068 34.2959 147.983C39.0761 149.936 44.2454 151.64 49.5843 151.454C52.8676 148.879 54.8635 145.275 57.4082 142.159C54.9633 141.129 52.3087 140.383 49.5843 140.41C46.4508 141.564 44.2653 144.085 41.2216 145.39ZM88.2844 142.052C84.0831 144.467 79.5225 147.006 77.3669 151.214C79.9616 150.45 82.0473 148.888 83.7837 147.041C86.5579 144.094 91.1784 143.322 93.9327 140.357C91.9268 140.543 89.9609 141.04 88.2844 142.052ZM84.4024 148.169C92.3659 148.329 99.102 144.121 105.628 140.623C97.635 140.037 90.4399 143.979 84.4024 148.169ZM110.199 145.657C117.584 145.985 124.589 143.455 131.525 141.546C128.561 141.005 125.597 139.975 122.554 140.126C118.492 142.07 114.321 143.819 110.199 145.657ZM124.639 145.275C126.905 145.887 129.17 146.58 131.545 146.873C133.471 145.71 134.159 143.526 135.387 141.839C131.984 143.393 128.282 144.289 124.639 145.275ZM59.1945 143.677C55.9412 145.87 54.105 149.252 51.7299 152.119C53.9454 152.111 56.9591 153.176 58.4061 151.072C60.3521 148.737 62.6373 146.651 65.4715 145.168C63.5954 144.272 61.38 142.549 59.1945 143.677ZM59.4739 152.501C64.3039 152.679 69.1938 152.563 73.8242 151.232C71.9481 149.332 69.9323 146.482 66.649 146.962C63.3159 147.512 61.2003 150.131 59.4739 152.501ZM111.147 147.84C114.56 150.113 117.604 152.83 121.206 154.863C122.284 155.591 123.641 155.147 124.859 155.085C124.559 154.321 123.951 152.785 123.641 152.022C125.607 150.894 127.533 149.705 129.399 148.453C123.751 145.497 117.165 146.58 111.147 147.84ZM97.4354 148.622C101.637 151.374 104.631 155.173 108.063 158.582C112.095 160.651 116.765 157.837 120.757 156.825C117.704 154.516 114.68 152.173 111.397 150.157C107.295 147.636 102.076 148.755 97.4354 148.622ZM81.199 151.285C84.073 152.27 87.1367 152.936 89.7713 154.428C92.346 155.884 93.9327 158.254 95.5992 160.456C99.2616 160.491 102.924 160.314 106.587 160.029C103.483 156.31 100.579 152.093 95.8687 149.829C91.0187 148.426 85.7596 149.572 81.199 151.285ZM77.7461 152.865C77.8559 154.792 77.327 156.887 78.0954 158.724C80.8198 161.414 84.6119 163.243 88.4939 164.264C91.6873 165.232 92.2362 161.707 93.4037 159.958C90.0008 155.244 83.8535 153.025 77.7461 152.865ZM43.5568 160.482C49.1253 160.624 54.7437 160.331 60.2623 161.175C64.264 158.662 68.635 156.683 72.6068 154.126C62.4777 153.265 52.189 155.786 43.5568 160.482ZM67.8965 159.275C66.2399 163.678 67.9464 168.348 67.7667 172.867C69.9722 170.62 72.6267 168.694 74.4729 166.182C75.9798 162.631 75.5806 158.716 75.7902 154.996C73.2055 156.461 70.0321 157.295 67.8965 159.275ZM59.2643 165.072C55.7716 170.052 57.7075 176.142 57.9271 181.62C61.1005 179.063 65.2919 176.533 65.7609 172.423C65.9505 168.33 65.1821 164.246 65.3717 160.154C62.9966 161.397 60.5417 162.799 59.2643 165.072ZM39.9043 162.959C36.4315 164.069 36.1821 167.478 35.8727 170.248C39.9143 169.715 44.0757 169.893 48.0874 169.182C51.3407 166.998 54.3245 164.513 57.5379 162.276C51.69 162.364 45.5427 161.29 39.9043 162.959ZM48.287 173.302C46.9997 177.154 45.7822 181.052 43.8762 184.718C47.7881 183.502 51.6101 179.622 55.9312 181.895C55.7616 176.364 54.3844 170.683 56.51 165.294C53.4464 167.638 49.3249 169.537 48.287 173.302ZM35.264 171.943C32.7891 176.648 31.0926 181.709 27.6397 185.979C34.9546 182.978 40.1539 177.083 45.0437 171.588C41.7705 171.357 38.4973 171.517 35.264 171.943ZM32.5097 185.819C35.0444 185.659 37.6889 185.855 40.1538 185.198C44.3152 182.463 44.9539 177.527 46.371 173.426C41.9402 177.723 37.5393 182.055 32.5097 185.819Z" fill="#262615"/>
<path d="M29.8555 129.455C34.4859 129.242 40.0843 127.182 43.9563 130.405C44.7846 132.757 45.064 135.252 46.0719 137.569C42.2997 136.965 38.3878 137.063 34.7254 136.015C32.0609 134.595 30.8334 131.932 29.8555 129.455Z" fill="#8DAC6E"/>
<path d="M45.6426 128.807C49.1453 129.18 52.8477 129.606 55.8215 131.444C57.9472 132.82 59.1347 134.968 60.0029 137.125C55.8415 136.193 51.5603 135.687 47.2692 135.989C46.7204 133.592 46.1815 131.204 45.6426 128.807Z" fill="#8AAA67"/>
<path d="M18.8281 130.813C21.8519 130.405 25.0553 129.482 28.069 130.192C29.1867 131.816 29.9152 133.636 30.7335 135.403C26.5322 134.4 22.5604 132.784 18.8281 130.813Z" fill="#859D66"/>
<path d="M88.3047 130.467C90.3704 130.138 92.4262 129.783 94.4919 129.402C96.5976 131.701 98.6433 134.071 101.078 136.14C101.927 136.868 102.805 137.596 103.683 138.333C101.368 138.714 99.0724 139.638 96.7073 139.389C95.1106 138.35 93.8433 136.992 92.5759 135.678C91.069 133.991 89.6818 132.225 88.3047 130.467Z" fill="#FBFBFA"/>
<path d="M16.0137 131.719C20.6441 133.627 25.6138 134.924 29.9449 137.392C27.2105 138.208 24.2966 139.948 21.3427 139.034C18.8379 137.081 17.6303 134.222 16.0137 131.719Z" fill="#566E38"/>
<path d="M77.4568 143.109C81.0593 139.735 84.4523 136.202 87.2266 132.251C88.6836 133.973 90.1905 135.669 91.6275 137.418C91.7872 137.631 92.0965 138.057 92.2562 138.27C86.0391 140.765 80.6203 144.511 76.0996 149.039C76.3691 147.059 75.6206 144.627 77.4568 143.109Z" fill="#DCD7CF"/>
<path d="M74.9121 136.051C77.5267 135.03 80.3209 134.418 83.195 134.4C80.9696 137.054 78.5546 139.584 76.0697 142.052C75.7304 140.037 75.3712 138.031 74.9121 136.051Z" fill="#DED8CF"/>
<path d="M61.4902 134.453C63.2964 135.758 65.1726 137.028 66.6994 138.608C66.7294 139.043 66.7792 139.922 66.7992 140.357C64.963 139.789 63.1368 139.22 61.3105 138.67C61.3804 137.258 61.4403 135.856 61.4902 134.453Z" fill="#7A8B5C"/>
<path d="M47.2695 135.989C51.5607 135.687 55.8418 136.193 60.0032 137.125C59.6539 138.262 59.7138 139.567 58.8556 140.534C54.6842 139.833 50.1137 139.061 47.2695 135.989Z" fill="#5A703B"/>
<path d="M185.504 148.471C191.352 145.204 196.501 141.067 201.042 136.459C201.002 137.942 200.233 139.238 199.096 140.277C196.162 143.1 193.797 146.615 189.645 148.169C190.813 148.293 192 148.435 193.188 148.586C193.328 149.43 193.477 150.273 193.647 151.125C194.695 151.64 195.892 151.995 196.661 152.874C196.441 154.596 195.543 156.168 194.785 157.748C195.643 158.112 196.511 158.494 197.389 158.867C196.621 159.071 195.094 159.461 194.335 159.666C195.244 161.219 196.172 162.782 197.1 164.335C191.691 164.939 186.372 166.599 180.863 166.137C182.21 165.658 183.538 165.143 184.885 164.637C185.554 161.539 185.913 158.387 185.873 155.227C185.913 152.963 185.723 150.708 185.504 148.471Z" fill="#E8E0DA"/>
<path d="M23.9473 140.845C27.001 139.558 30.1844 138.279 33.5774 137.96C37.9982 138.004 42.3093 139.025 46.6104 139.842C42.449 143.393 37.0702 146.536 31.0825 146.18C28.428 144.991 24.5959 143.597 23.9473 140.845Z" fill="#577838"/>
<path d="M61.3098 138.67C63.1361 139.22 64.9623 139.789 66.7985 140.357C66.7785 139.922 66.7287 139.043 66.6987 138.608C67.8164 140.304 67.9062 142.283 67.9661 144.21C65.3016 142.851 60.5813 142.292 61.3098 138.67Z" fill="#58693D"/>
<path d="M107.714 140.774C110.579 138.057 115.249 139.744 118.861 139.948C114.57 142.248 109.7 143.482 105.379 145.736C102.944 147.148 99.9904 146.873 97.2461 146.695C100.769 144.76 104.781 143.455 107.714 140.774Z" fill="#5C6B3A"/>
<path d="M41.2216 145.39C44.2653 144.085 46.4508 141.564 49.5843 140.41C52.3087 140.383 54.9632 141.129 57.4082 142.159C54.8634 145.275 52.8675 148.879 49.5843 151.454C44.2453 151.64 39.076 149.936 34.2959 147.983C36.5812 147.068 38.9563 146.349 41.2216 145.39Z" fill="#537534"/>
<path d="M88.2846 142.052C89.9612 141.04 91.9271 140.543 93.9329 140.357C91.1786 143.322 86.5582 144.094 83.7839 147.042C82.0475 148.888 79.9618 150.451 77.3672 151.214C79.5227 147.006 84.0833 144.467 88.2846 142.052Z" fill="#4A5230"/>
<path d="M84.4023 148.169C90.4399 143.979 97.6349 140.037 105.628 140.623C99.1019 144.121 92.3659 148.329 84.4023 148.169Z" fill="#5B6940"/>
<path d="M110.199 145.657C114.321 143.819 118.492 142.07 122.554 140.126C125.597 139.975 128.561 141.005 131.525 141.546C124.589 143.455 117.584 145.985 110.199 145.657Z" fill="#808F5A"/>
<path d="M124.64 145.275C128.282 144.29 131.984 143.393 135.387 141.839C134.16 143.526 133.471 145.71 131.545 146.873C129.17 146.58 126.905 145.888 124.64 145.275Z" fill="#929A69"/>
<path d="M59.194 143.677C61.3795 142.549 63.5949 144.272 65.471 145.168C62.6369 146.651 60.3517 148.737 58.4057 151.072C56.9587 153.176 53.9449 152.111 51.7295 152.12C54.1046 149.252 55.9408 145.87 59.194 143.677Z" fill="#516E35"/>
<path d="M59.4736 152.501C61.2001 150.131 63.3157 147.512 66.6488 146.962C69.932 146.482 71.9479 149.332 73.824 151.232C69.1935 152.563 64.3036 152.679 59.4736 152.501Z" fill="#546F34"/>
<path d="M111.147 147.84C117.165 146.58 123.751 145.497 129.4 148.453C127.534 149.705 125.608 150.894 123.642 152.022C123.951 152.785 124.56 154.321 124.859 155.085C123.642 155.147 122.284 155.591 121.207 154.863C117.604 152.83 114.56 150.113 111.147 147.84Z" fill="#8EA56D"/>
<path d="M97.4355 148.622C102.076 148.755 107.295 147.636 111.397 150.158C114.68 152.173 117.704 154.516 120.757 156.825C116.766 157.837 112.095 160.651 108.064 158.582C104.631 155.173 101.637 151.374 97.4355 148.622Z" fill="#8FAB71"/>
<path d="M81.1992 151.285C85.7598 149.572 91.0189 148.426 95.8689 149.829C100.579 152.093 103.483 156.31 106.587 160.03C102.924 160.314 99.2619 160.491 95.5994 160.456C93.9329 158.254 92.3462 155.884 89.7715 154.428C87.137 152.936 84.0733 152.271 81.1992 151.285Z" fill="#8BA670"/>
<path d="M132.653 152.466C149.638 153.735 167.461 154.934 183.727 149.438C183.997 150.948 184.276 152.457 184.576 153.984C168.209 154.872 151.803 154.366 135.427 154.374C132.463 154.268 129.33 154.65 126.605 153.407C126.705 153.132 126.925 152.59 127.035 152.324C128.901 152.306 130.777 152.404 132.653 152.466Z" fill="#F7F8F1"/>
<path d="M77.7464 152.865C83.8537 153.025 90.001 155.244 93.404 159.958C92.2364 161.707 91.6876 165.232 88.4942 164.264C84.6122 163.243 80.82 161.414 78.0957 158.724C77.3273 156.887 77.8561 154.792 77.7464 152.865Z" fill="#8CA86F"/>
<path d="M43.5566 160.482C52.1888 155.786 62.4775 153.265 72.6066 154.126C68.6348 156.683 64.2638 158.662 60.2621 161.175C54.7435 160.331 49.1251 160.624 43.5566 160.482Z" fill="#8EA371"/>
<path d="M67.897 159.275C70.0326 157.295 73.206 156.461 75.7907 154.996C75.5811 158.716 75.9803 162.631 74.4734 166.182C72.6272 168.694 69.9727 170.621 67.7672 172.867C67.9469 168.348 66.2404 163.678 67.897 159.275Z" fill="#C8E0A4"/>
<path d="M59.2647 165.072C60.5421 162.799 62.997 161.397 65.3721 160.154C65.1825 164.246 65.9509 168.33 65.7613 172.423C65.2922 176.533 61.1009 179.063 57.9274 181.62C57.7079 176.142 55.7719 170.052 59.2647 165.072Z" fill="#C7E1A4"/>
</svg>
