<svg width="280" height="257" viewBox="0 0 280 257" fill="none" xmlns="http://www.w3.org/2000/svg">
<path d="M86.1167 185.661C84.2368 185.661 82.6846 185.145 81.46 184.114C80.2354 183.083 79.3867 181.675 78.9141 179.892C78.8711 179.752 78.8496 179.624 78.8496 179.505C78.8496 179.355 78.9033 179.205 79.0107 179.054C79.1182 178.893 79.4028 178.737 79.8647 178.587C80.3267 178.437 80.7832 178.286 81.2344 178.136C81.5352 178.039 81.7876 177.991 81.9917 177.991C82.1206 177.991 82.2656 178.028 82.4268 178.104C82.5879 178.179 82.7222 178.426 82.8296 178.845C83.0767 179.779 83.4526 180.553 83.9575 181.165C84.4731 181.767 85.0264 182.067 85.6172 182.067C86.4121 182.067 86.9976 181.777 87.3735 181.197C87.7603 180.606 87.9536 179.86 87.9536 178.958C87.9536 178.055 87.5938 177.244 86.874 176.524C86.1865 175.858 85.3647 175.192 84.4087 174.526C82.8188 173.431 81.6533 172.448 80.9121 171.578C79.7949 170.267 79.2363 168.747 79.2363 167.018C79.2363 165.857 79.5425 164.864 80.1548 164.037C80.7671 163.209 81.5674 162.576 82.5557 162.135C83.5439 161.695 84.6021 161.475 85.73 161.475C87.5884 161.475 89.0547 161.931 90.1289 162.844C91.2139 163.757 92.0518 165.127 92.6426 166.953C92.6963 167.136 92.7231 167.302 92.7231 167.453C92.7231 167.517 92.707 167.619 92.6748 167.759C92.6533 167.888 92.4761 167.995 92.1431 168.081C90.5103 168.521 89.6294 168.742 89.5005 168.742C89.3608 168.742 89.2104 168.709 89.0493 168.645C88.8989 168.57 88.77 168.328 88.6626 167.92C88.3618 166.76 87.9912 165.868 87.5508 165.245C87.1104 164.611 86.5518 164.294 85.875 164.294C85.1875 164.294 84.645 164.525 84.2476 164.987C83.8501 165.438 83.6514 166.002 83.6514 166.679C83.6514 167.13 83.8018 167.555 84.1025 167.952C84.4033 168.35 84.8008 168.742 85.2949 169.128C85.7998 169.515 86.3584 169.913 86.9707 170.321C87.916 170.944 88.8613 171.653 89.8066 172.448C90.752 173.243 91.5415 174.199 92.1753 175.316C92.8091 176.433 93.126 177.776 93.126 179.344C93.126 180.558 92.8574 181.638 92.3203 182.583C91.7939 183.528 91.0151 184.28 89.9839 184.839C88.9526 185.387 87.6636 185.661 86.1167 185.661ZM102.214 185.645C99.7109 185.645 97.8418 184.839 96.6064 183.228C95.5215 181.82 94.979 179.967 94.979 177.668C94.979 176.122 95.1455 174.666 95.4785 173.302C95.8223 171.938 96.3057 170.74 96.9287 169.708C97.5625 168.667 98.3252 167.85 99.2168 167.259C100.108 166.658 101.107 166.357 102.214 166.357C103.32 166.357 104.319 166.658 105.211 167.259C106.103 167.85 106.86 168.667 107.483 169.708C108.117 170.74 108.6 171.938 108.933 173.302C109.277 174.666 109.449 176.122 109.449 177.668C109.449 179.967 108.906 181.82 107.821 183.228C106.586 184.839 104.717 185.645 102.214 185.645ZM102.214 181.681C103.75 181.681 104.518 179.983 104.518 176.589C104.518 175.472 104.448 174.403 104.309 173.382C104.147 172.168 103.89 171.169 103.535 170.385C103.181 169.59 102.74 169.193 102.214 169.193C101.688 169.193 101.247 169.59 100.893 170.385C100.538 171.169 100.286 172.12 100.135 173.237C99.9849 174.354 99.9097 175.472 99.9097 176.589C99.9097 179.983 100.678 181.681 102.214 181.681ZM116.812 170.176C116.866 170.767 117.188 174.419 117.779 181.133C117.801 181.423 117.865 181.568 117.973 181.568C118.241 181.568 118.461 181.665 118.633 181.858C118.816 182.051 118.907 182.282 118.907 182.551V184.146C118.907 184.415 118.816 184.646 118.633 184.839C118.461 185.032 118.241 185.129 117.973 185.129H111.334C111.065 185.129 110.84 185.032 110.657 184.839C110.475 184.646 110.383 184.415 110.383 184.146V182.551C110.383 182.282 110.475 182.051 110.657 181.858C110.84 181.665 111.065 181.568 111.334 181.568C111.441 181.568 111.506 181.423 111.527 181.133C112.172 174.043 112.494 170.375 112.494 170.127C112.494 169.698 112.354 169.483 112.075 169.483C111.807 169.483 111.586 169.392 111.415 169.209C111.253 169.016 111.173 168.785 111.173 168.516V167.855C111.173 167.587 111.264 167.361 111.447 167.179C111.64 166.985 111.871 166.889 112.14 166.889H116.78C117.575 166.534 118.365 166.357 119.149 166.357C120.9 166.357 122.259 166.899 123.226 167.984C123.548 167.694 123.897 167.437 124.273 167.211C125.218 166.642 126.196 166.357 127.206 166.357C129.311 166.357 130.842 167.141 131.798 168.709C132.765 170.267 133.35 172.861 133.554 176.492L133.828 181.133C133.85 181.423 133.914 181.568 134.021 181.568C134.29 181.568 134.51 181.665 134.682 181.858C134.865 182.051 134.956 182.282 134.956 182.551V184.146C134.956 184.415 134.865 184.646 134.682 184.839C134.51 185.032 134.29 185.129 134.021 185.129H128.414C128.146 185.129 127.92 185.032 127.737 184.839C127.565 184.646 127.479 184.415 127.479 184.146V182.551C127.479 182.282 127.565 182.051 127.737 181.858C127.92 181.665 128.146 181.568 128.414 181.568C128.521 181.568 128.586 181.423 128.607 181.133C128.844 177.523 128.962 175.445 128.962 174.897C128.962 173.393 128.817 172.152 128.527 171.175C128.151 169.864 127.528 169.209 126.658 169.209C125.927 169.209 125.229 169.649 124.563 170.53C125.046 172.045 125.358 174.032 125.498 176.492L125.771 181.133C125.793 181.423 125.863 181.568 125.981 181.568C126.25 181.568 126.47 181.665 126.642 181.858C126.824 182.051 126.916 182.282 126.916 182.551V184.146C126.916 184.415 126.824 184.646 126.642 184.839C126.47 185.032 126.25 185.129 125.981 185.129H120.357C120.089 185.129 119.863 185.032 119.681 184.839C119.509 184.646 119.423 184.415 119.423 184.146V182.551C119.423 182.282 119.509 182.051 119.681 181.858C119.863 181.665 120.089 181.568 120.357 181.568C120.476 181.568 120.545 181.423 120.567 181.133C120.792 177.48 120.905 175.391 120.905 174.865C120.905 173.372 120.766 172.142 120.486 171.175C120.1 169.864 119.477 169.209 118.617 169.209C117.994 169.209 117.393 169.531 116.812 170.176ZM143.399 185.645C140.982 185.645 139.146 184.764 137.889 183.002C136.761 181.412 136.197 179.382 136.197 176.911C136.197 174.773 136.481 172.915 137.051 171.336C137.62 169.757 138.447 168.538 139.532 167.678C140.617 166.808 141.928 166.373 143.464 166.373C144.57 166.373 145.537 166.685 146.364 167.308C147.202 167.92 147.852 168.715 148.314 169.692C148.787 170.67 149.023 171.69 149.023 172.754C149.023 174.086 148.744 175.262 148.185 176.283C147.626 177.292 146.772 178.082 145.623 178.651C144.484 179.221 143.04 179.505 141.289 179.505C141.557 181.192 142.288 182.035 143.48 182.035C143.985 182.035 144.388 181.847 144.688 181.471C145 181.095 145.22 180.649 145.349 180.134C145.446 179.726 145.575 179.484 145.736 179.409C145.908 179.333 146.058 179.296 146.187 179.296C146.391 179.296 146.644 179.344 146.944 179.441C147.396 179.591 147.847 179.742 148.298 179.892C148.76 180.042 149.044 180.198 149.152 180.359C149.27 180.51 149.329 180.666 149.329 180.827C149.329 180.934 149.308 181.058 149.265 181.197C148.867 182.637 148.169 183.738 147.17 184.5C146.171 185.263 144.914 185.645 143.399 185.645ZM140.999 175.88C141.987 175.88 142.776 175.708 143.367 175.364C143.969 175.01 144.404 174.564 144.672 174.027C144.941 173.49 145.075 172.931 145.075 172.351C145.075 171.492 144.898 170.74 144.543 170.095C144.2 169.451 143.84 169.128 143.464 169.128C142.948 169.128 142.508 169.467 142.143 170.144C141.777 170.81 141.493 171.658 141.289 172.689C141.095 173.721 140.999 174.784 140.999 175.88ZM168.762 185.129H162.107C161.849 185.129 161.629 185.032 161.446 184.839C161.264 184.646 161.172 184.415 161.172 184.146V182.551C161.172 182.282 161.264 182.051 161.446 181.858C161.629 181.665 161.849 181.568 162.107 181.568C162.225 181.568 162.295 181.423 162.316 181.133C162.939 170.659 163.251 165.315 163.251 165.1C163.251 164.96 163.176 164.891 163.025 164.891C162.778 164.891 162.214 165.084 161.333 165.471C160.227 165.954 159.47 166.196 159.062 166.196C158.804 166.196 158.61 166.11 158.481 165.938C158.363 165.766 158.304 165.573 158.304 165.358V163.005C158.304 162.737 158.39 162.511 158.562 162.329C158.745 162.135 158.97 162.039 159.239 162.039H171.63C171.898 162.039 172.124 162.135 172.307 162.329C172.489 162.511 172.581 162.737 172.581 163.005V165.358C172.581 165.573 172.516 165.766 172.387 165.938C172.269 166.11 172.076 166.196 171.807 166.196C171.41 166.196 170.668 165.949 169.583 165.455C168.767 165.089 168.198 164.907 167.875 164.907C167.704 164.907 167.618 164.998 167.618 165.181C167.618 165.342 167.935 170.659 168.568 181.133C168.59 181.423 168.654 181.568 168.762 181.568C169.03 181.568 169.25 181.665 169.422 181.858C169.605 182.051 169.696 182.282 169.696 182.551V184.146C169.696 184.415 169.605 184.646 169.422 184.839C169.25 185.032 169.03 185.129 168.762 185.129ZM178.107 185.645C175.69 185.645 173.854 184.764 172.597 183.002C171.469 181.412 170.905 179.382 170.905 176.911C170.905 174.773 171.189 172.915 171.759 171.336C172.328 169.757 173.155 168.538 174.24 167.678C175.325 166.808 176.636 166.373 178.172 166.373C179.278 166.373 180.245 166.685 181.072 167.308C181.91 167.92 182.56 168.715 183.022 169.692C183.495 170.67 183.731 171.69 183.731 172.754C183.731 174.086 183.452 175.262 182.893 176.283C182.334 177.292 181.48 178.082 180.331 178.651C179.192 179.221 177.748 179.505 175.997 179.505C176.265 181.192 176.996 182.035 178.188 182.035C178.693 182.035 179.096 181.847 179.396 181.471C179.708 181.095 179.928 180.649 180.057 180.134C180.154 179.726 180.283 179.484 180.444 179.409C180.616 179.333 180.766 179.296 180.895 179.296C181.099 179.296 181.352 179.344 181.652 179.441C182.104 179.591 182.555 179.742 183.006 179.892C183.468 180.042 183.752 180.198 183.86 180.359C183.978 180.51 184.037 180.666 184.037 180.827C184.037 180.934 184.016 181.058 183.973 181.197C183.575 182.637 182.877 183.738 181.878 184.5C180.879 185.263 179.622 185.645 178.107 185.645ZM175.707 175.88C176.695 175.88 177.484 175.708 178.075 175.364C178.677 175.01 179.112 174.564 179.38 174.027C179.649 173.49 179.783 172.931 179.783 172.351C179.783 171.492 179.606 170.74 179.251 170.095C178.908 169.451 178.548 169.128 178.172 169.128C177.656 169.128 177.216 169.467 176.851 170.144C176.485 170.81 176.201 171.658 175.997 172.689C175.803 173.721 175.707 174.784 175.707 175.88ZM190.756 185.645C189.564 185.645 188.581 185.397 187.808 184.903C187.034 184.398 186.459 183.749 186.083 182.954C185.708 182.159 185.52 181.315 185.52 180.424C185.52 179.403 185.756 178.41 186.229 177.443C186.701 176.476 187.394 175.681 188.307 175.058C189.22 174.435 190.332 174.124 191.643 174.124C192.395 174.124 193.125 174.269 193.834 174.559C193.909 173.022 193.947 172.088 193.947 171.755C193.947 170.992 193.802 170.385 193.512 169.934C193.222 169.483 192.851 169.257 192.4 169.257C192.002 169.257 191.605 169.467 191.208 169.886C190.81 170.294 190.488 170.928 190.241 171.787C190.133 172.195 189.978 172.448 189.773 172.544C189.677 172.587 189.559 172.609 189.419 172.609C189.279 172.609 188.554 172.437 187.244 172.093C186.857 171.986 186.664 171.771 186.664 171.449C186.664 171.298 186.696 171.132 186.76 170.949C187.297 169.359 188.087 168.199 189.129 167.469C190.171 166.738 191.353 166.373 192.674 166.373C194.285 166.373 195.612 166.867 196.654 167.855C197.696 168.833 198.276 170.213 198.394 171.997L198.877 181.133C198.91 181.423 198.985 181.568 199.103 181.568C199.361 181.568 199.581 181.665 199.764 181.858C199.946 182.051 200.038 182.282 200.038 182.551V184.146C200.038 184.415 199.946 184.646 199.764 184.839C199.581 185.032 199.361 185.129 199.103 185.129H193.318C192.491 185.473 191.637 185.645 190.756 185.645ZM191.079 182.051C191.508 182.051 191.954 181.847 192.416 181.439C192.878 181.02 193.265 180.445 193.576 179.715L193.689 177.588C193.173 177.18 192.647 176.976 192.11 176.976C191.562 176.976 191.127 177.137 190.805 177.459C190.482 177.771 190.251 178.168 190.112 178.651C189.972 179.124 189.902 179.602 189.902 180.085C189.902 181.396 190.294 182.051 191.079 182.051Z" fill="black"/>
<path d="M37.4712 230.092H28.1108C27.8911 230.092 27.7065 230.018 27.5571 229.868C27.4077 229.71 27.333 229.521 27.333 229.301V227.983C27.333 227.561 27.5747 226.985 28.0581 226.256C28.5503 225.526 29.1392 224.713 29.8247 223.817C30.5103 222.912 31.187 221.971 31.855 220.996C32.5229 220.02 33.0854 219.044 33.5425 218.069C33.9995 217.093 34.228 216.175 34.228 215.313C34.228 213.802 33.7798 213.046 32.8833 213.046C32.5669 213.046 32.3032 213.129 32.0923 213.296C31.8813 213.455 31.71 213.657 31.5781 213.903C31.4463 214.149 31.3452 214.404 31.2749 214.667C31.187 215.001 31.0596 215.208 30.8926 215.287C30.8135 215.322 30.7168 215.34 30.6025 215.34C30.4883 215.34 29.7632 215.164 28.4272 214.812C28.1108 214.733 27.9526 214.562 27.9526 214.298C27.9526 214.167 27.979 214.026 28.0317 213.876C28.2778 213.156 28.6558 212.567 29.1655 212.11C29.6841 211.644 30.2817 211.301 30.9585 211.082C31.644 210.853 32.3472 210.739 33.0679 210.739C34.1841 210.739 35.0938 210.95 35.7969 211.372C36.5088 211.793 37.0317 212.365 37.3657 213.085C37.6997 213.797 37.8667 214.606 37.8667 215.511C37.8667 218.763 36.1616 222.657 32.7515 227.192C33.3667 227.192 34.2148 227.095 35.2959 226.902C36.333 226.708 37.0801 226.612 37.5371 226.612C37.7393 226.612 37.9062 226.695 38.0381 226.862C38.1699 227.021 38.2358 227.201 38.2358 227.403V229.301C38.2358 229.521 38.1611 229.71 38.0117 229.868C37.8711 230.018 37.6909 230.092 37.4712 230.092ZM45.5264 230.514C43.3818 230.514 41.8042 229.486 40.7935 227.429C40.0376 225.9 39.6597 224.054 39.6597 221.892C39.6597 220.257 39.875 218.636 40.3057 217.027C40.9648 214.54 41.9668 212.738 43.3115 211.622C43.9883 211.068 44.7266 210.792 45.5264 210.792C46.335 210.792 47.0732 211.073 47.7412 211.635C48.418 212.189 49.0112 212.936 49.521 213.876C50.0308 214.808 50.4395 215.858 50.7471 217.027C51.0635 218.196 51.248 219.198 51.3008 220.033C51.3623 220.859 51.3931 221.479 51.3931 221.892C51.3931 224.072 51.0239 225.917 50.2856 227.429C49.2661 229.486 47.6797 230.514 45.5264 230.514ZM45.5264 227.614C46.291 227.614 46.8184 226.656 47.1084 224.74C47.2578 223.764 47.3325 222.723 47.3325 221.615C47.3325 219.559 47.1787 217.691 46.8711 216.012C46.5195 214.105 46.0713 213.151 45.5264 213.151C44.999 213.151 44.5552 214.105 44.1948 216.012C43.8872 217.629 43.7334 219.409 43.7334 221.352C43.7334 222.617 43.8081 223.747 43.9575 224.74C44.2388 226.656 44.7617 227.614 45.5264 227.614ZM60.292 230.092H59.6328C59.4131 230.092 59.2812 230.057 59.2373 229.987C59.2021 229.908 59.1846 229.833 59.1846 229.763C59.1846 229.692 60.9775 223.716 64.5635 211.833C64.625 211.613 64.7129 211.455 64.8271 211.358C64.9502 211.253 65.1216 211.2 65.3413 211.2H66.0005C66.2202 211.2 66.3477 211.24 66.3828 211.319C66.4268 211.389 66.4487 211.459 66.4487 211.53C66.4487 211.609 64.6558 217.59 61.0698 229.473C60.9468 229.886 60.6875 230.092 60.292 230.092ZM73.0933 223.58H68.5449C68.3252 223.58 68.1406 223.5 67.9912 223.342C67.8506 223.184 67.7803 222.995 67.7803 222.775V221.998C67.7803 221.778 67.8506 221.593 67.9912 221.444C68.1406 221.286 68.3252 221.207 68.5449 221.207H73.0933C73.313 221.207 73.4932 221.286 73.6338 221.444C73.7832 221.593 73.8579 221.778 73.8579 221.998V222.775C73.8579 222.995 73.7832 223.184 73.6338 223.342C73.4932 223.5 73.313 223.58 73.0933 223.58ZM88.3994 232.109H87.9512C87.7402 232.109 87.5557 232.035 87.3975 231.885C87.2393 231.745 87.1602 231.564 87.1602 231.345V209.948C87.1602 209.728 87.2129 209.548 87.3184 209.407C87.4238 209.258 87.5864 209.183 87.8062 209.183H88.584C88.9971 209.183 89.2036 209.438 89.2036 209.948V231.345C89.2036 231.564 89.1245 231.745 88.9663 231.885C88.8081 232.035 88.6191 232.109 88.3994 232.109ZM108.953 230.092H103.508C103.288 230.092 103.104 230.018 102.954 229.868C102.813 229.71 102.743 229.521 102.743 229.301V227.983C102.743 227.772 102.813 227.587 102.954 227.429C103.104 227.271 103.288 227.192 103.508 227.192C103.596 227.192 103.648 227.073 103.666 226.836L104.352 215.617C104.229 215.731 104.097 215.85 103.956 215.973C103.815 216.087 103.653 216.144 103.468 216.144C103.451 216.144 103.385 216.14 103.271 216.131C103.156 216.122 103.024 216.039 102.875 215.88L102.348 215.287C102.207 215.129 102.137 214.953 102.137 214.76C102.137 214.742 102.137 214.681 102.137 214.575C102.146 214.47 102.229 214.342 102.387 214.193L105.512 211.398C105.644 211.275 105.793 211.213 105.96 211.213H107.041C107.261 211.213 107.441 211.288 107.582 211.438C107.731 211.587 107.814 211.776 107.832 212.004L108.781 226.836C108.799 227.073 108.856 227.192 108.953 227.192C109.172 227.192 109.353 227.271 109.493 227.429C109.643 227.587 109.717 227.772 109.717 227.983V229.301C109.717 229.521 109.643 229.71 109.493 229.868C109.353 230.018 109.172 230.092 108.953 230.092ZM116.283 227.587C116.933 227.587 117.412 227.354 117.72 226.889C118.036 226.414 118.194 225.821 118.194 225.109C118.194 224.599 118.076 224.151 117.838 223.764C117.583 223.342 117.232 222.942 116.784 222.564C116.388 222.248 115.848 221.848 115.162 221.365C114.151 222.666 113.646 223.949 113.646 225.214C113.646 225.917 113.879 226.489 114.345 226.928C114.819 227.368 115.465 227.587 116.283 227.587ZM118.313 218.623C118.893 217.638 119.183 216.654 119.183 215.669C119.183 213.947 118.401 213.085 116.836 213.085C116.467 213.085 116.116 213.16 115.782 213.31C115.457 213.45 115.188 213.666 114.978 213.956C114.775 214.246 114.674 214.597 114.674 215.01C114.674 215.836 115.584 216.83 117.403 217.99C117.711 218.192 118.014 218.403 118.313 218.623ZM116.691 230.541C115.566 230.541 114.564 230.352 113.686 229.974C112.815 229.587 112.13 229.046 111.629 228.352C111.137 227.649 110.891 226.818 110.891 225.86C110.891 224.103 111.818 222.217 113.672 220.205C113.567 220.125 113.466 220.038 113.369 219.941C111.831 218.623 111.062 217.071 111.062 215.287C111.062 214.329 111.312 213.512 111.813 212.835C112.314 212.158 112.969 211.64 113.778 211.279C114.586 210.919 115.452 210.739 116.375 210.739C119.829 210.739 121.556 212.264 121.556 215.313C121.556 216.315 121.284 217.331 120.739 218.359C120.475 218.86 120.159 219.334 119.79 219.783C120.422 220.336 120.976 220.974 121.451 221.694C122.101 222.679 122.426 223.905 122.426 225.373C122.426 226.357 122.207 227.24 121.767 228.022C121.336 228.796 120.699 229.411 119.855 229.868C119.012 230.316 117.957 230.541 116.691 230.541ZM129.743 230.514C127.599 230.514 126.021 229.486 125.01 227.429C124.254 225.9 123.876 224.054 123.876 221.892C123.876 220.257 124.092 218.636 124.522 217.027C125.182 214.54 126.184 212.738 127.528 211.622C128.205 211.068 128.943 210.792 129.743 210.792C130.552 210.792 131.29 211.073 131.958 211.635C132.635 212.189 133.228 212.936 133.738 213.876C134.248 214.808 134.656 215.858 134.964 217.027C135.28 218.196 135.465 219.198 135.518 220.033C135.579 220.859 135.61 221.479 135.61 221.892C135.61 224.072 135.241 225.917 134.502 227.429C133.483 229.486 131.896 230.514 129.743 230.514ZM129.743 227.614C130.508 227.614 131.035 226.656 131.325 224.74C131.475 223.764 131.549 222.723 131.549 221.615C131.549 219.559 131.396 217.691 131.088 216.012C130.736 214.105 130.288 213.151 129.743 213.151C129.216 213.151 128.772 214.105 128.412 216.012C128.104 217.629 127.95 219.409 127.95 221.352C127.95 222.617 128.025 223.747 128.174 224.74C128.456 226.656 128.979 227.614 129.743 227.614ZM148.714 217.871C148.758 218.354 149.022 221.343 149.505 226.836C149.523 227.073 149.576 227.192 149.664 227.192C149.883 227.192 150.063 227.271 150.204 227.429C150.354 227.587 150.428 227.776 150.428 227.996V229.301C150.428 229.521 150.354 229.71 150.204 229.868C150.063 230.026 149.883 230.105 149.664 230.105H144.232C144.012 230.105 143.828 230.026 143.678 229.868C143.529 229.71 143.454 229.521 143.454 229.301V227.996C143.454 227.776 143.529 227.587 143.678 227.429C143.828 227.271 144.012 227.192 144.232 227.192C144.32 227.192 144.373 227.073 144.39 226.836C144.917 221.035 145.181 218.034 145.181 217.832C145.181 217.48 145.067 217.304 144.838 217.304C144.619 217.304 144.438 217.229 144.298 217.08C144.166 216.922 144.1 216.733 144.1 216.513V215.973C144.1 215.753 144.175 215.568 144.324 215.419C144.482 215.261 144.671 215.182 144.891 215.182H148.688C149.338 214.892 149.984 214.747 150.626 214.747C152.059 214.747 153.17 215.19 153.961 216.078C154.225 215.841 154.511 215.63 154.818 215.445C155.592 214.979 156.392 214.747 157.218 214.747C158.94 214.747 160.193 215.388 160.975 216.671C161.766 217.946 162.245 220.068 162.412 223.039L162.636 226.836C162.654 227.073 162.707 227.192 162.794 227.192C163.014 227.192 163.194 227.271 163.335 227.429C163.484 227.587 163.559 227.776 163.559 227.996V229.301C163.559 229.521 163.484 229.71 163.335 229.868C163.194 230.026 163.014 230.105 162.794 230.105H158.207C157.987 230.105 157.802 230.026 157.653 229.868C157.512 229.71 157.442 229.521 157.442 229.301V227.996C157.442 227.776 157.512 227.587 157.653 227.429C157.802 227.271 157.987 227.192 158.207 227.192C158.294 227.192 158.347 227.073 158.365 226.836C158.558 223.883 158.655 222.182 158.655 221.734C158.655 220.503 158.536 219.488 158.299 218.688C157.991 217.616 157.481 217.08 156.77 217.08C156.172 217.08 155.601 217.44 155.056 218.161C155.451 219.4 155.706 221.026 155.82 223.039L156.044 226.836C156.062 227.073 156.119 227.192 156.216 227.192C156.436 227.192 156.616 227.271 156.756 227.429C156.906 227.587 156.98 227.776 156.98 227.996V229.301C156.98 229.521 156.906 229.71 156.756 229.868C156.616 230.026 156.436 230.105 156.216 230.105H151.615C151.395 230.105 151.21 230.026 151.061 229.868C150.92 229.71 150.85 229.521 150.85 229.301V227.996C150.85 227.776 150.92 227.587 151.061 227.429C151.21 227.271 151.395 227.192 151.615 227.192C151.711 227.192 151.769 227.073 151.786 226.836C151.971 223.848 152.063 222.138 152.063 221.708C152.063 220.486 151.949 219.479 151.72 218.688C151.404 217.616 150.894 217.08 150.191 217.08C149.681 217.08 149.189 217.344 148.714 217.871ZM170.995 230.105H165.55C165.33 230.105 165.146 230.026 164.996 229.868C164.855 229.71 164.785 229.521 164.785 229.301V227.996C164.785 227.776 164.855 227.587 164.996 227.429C165.146 227.271 165.33 227.192 165.55 227.192C165.646 227.192 165.704 227.073 165.721 226.836C166.24 218.363 166.499 214.03 166.499 213.837C166.499 213.503 166.389 213.336 166.169 213.336C165.95 213.336 165.77 213.261 165.629 213.112C165.488 212.954 165.418 212.765 165.418 212.545V212.004C165.418 211.785 165.497 211.6 165.655 211.451C165.813 211.292 166.002 211.213 166.222 211.213H169.096C169.307 211.213 169.487 211.292 169.637 211.451C169.786 211.6 169.87 211.785 169.887 212.004L170.836 226.836C170.854 227.073 170.907 227.192 170.995 227.192C171.214 227.192 171.395 227.271 171.535 227.429C171.685 227.587 171.759 227.776 171.759 227.996V229.301C171.759 229.521 171.685 229.71 171.535 229.868C171.395 230.026 171.214 230.105 170.995 230.105ZM186.301 232.109H185.853C185.642 232.109 185.457 232.035 185.299 231.885C185.141 231.745 185.062 231.564 185.062 231.345V209.948C185.062 209.728 185.114 209.548 185.22 209.407C185.325 209.258 185.488 209.183 185.708 209.183H186.485C186.898 209.183 187.105 209.438 187.105 209.948V231.345C187.105 231.564 187.026 231.745 186.868 231.885C186.709 232.035 186.521 232.109 186.301 232.109ZM206.854 230.092H201.409C201.189 230.092 201.005 230.018 200.855 229.868C200.715 229.71 200.645 229.521 200.645 229.301V227.983C200.645 227.772 200.715 227.587 200.855 227.429C201.005 227.271 201.189 227.192 201.409 227.192C201.497 227.192 201.55 227.073 201.567 226.836L202.253 215.617C202.13 215.731 201.998 215.85 201.857 215.973C201.717 216.087 201.554 216.144 201.37 216.144C201.352 216.144 201.286 216.14 201.172 216.131C201.058 216.122 200.926 216.039 200.776 215.88L200.249 215.287C200.108 215.129 200.038 214.953 200.038 214.76C200.038 214.742 200.038 214.681 200.038 214.575C200.047 214.47 200.13 214.342 200.289 214.193L203.413 211.398C203.545 211.275 203.694 211.213 203.861 211.213H204.942C205.162 211.213 205.342 211.288 205.483 211.438C205.632 211.587 205.716 211.776 205.733 212.004L206.683 226.836C206.7 227.073 206.757 227.192 206.854 227.192C207.074 227.192 207.254 227.271 207.395 227.429C207.544 227.587 207.619 227.772 207.619 227.983V229.301C207.619 229.521 207.544 229.71 207.395 229.868C207.254 230.018 207.074 230.092 206.854 230.092ZM220.829 230.541C218.948 230.541 217.502 229.789 216.491 228.286C215.595 226.977 215.146 225.342 215.146 223.382C215.146 221.729 215.388 220.253 215.872 218.952C216.364 217.651 217.062 216.627 217.968 215.88C218.882 215.133 219.967 214.76 221.224 214.76C222.296 214.76 223.21 215.05 223.966 215.63C224.731 216.21 225.289 216.948 225.641 217.845C225.702 217.994 225.733 218.135 225.733 218.267C225.733 218.513 225.57 218.68 225.245 218.768C223.883 219.128 223.153 219.308 223.057 219.308C222.951 219.308 222.859 219.291 222.78 219.255C222.613 219.176 222.485 218.97 222.397 218.636C222.266 218.1 222.116 217.695 221.949 217.423C221.782 217.15 221.541 217.014 221.224 217.014C220.793 217.014 220.416 217.322 220.09 217.937C219.765 218.552 219.515 219.312 219.339 220.218C219.163 221.123 219.075 222.046 219.075 222.986C219.075 223.865 219.146 224.643 219.286 225.32C219.603 226.84 220.209 227.601 221.105 227.601C221.87 227.601 222.38 227.082 222.635 226.045C222.723 225.711 222.833 225.513 222.964 225.452C223.105 225.39 223.228 225.359 223.333 225.359C223.5 225.359 223.703 225.399 223.94 225.478C224.309 225.601 224.683 225.724 225.061 225.847C225.438 225.961 225.671 226.084 225.759 226.216C225.847 226.348 225.891 226.48 225.891 226.612C225.891 226.7 225.874 226.801 225.838 226.915C225.17 229.332 223.5 230.541 220.829 230.541ZM231.389 230.554C230.334 230.554 229.473 230.29 228.805 229.763C228.146 229.227 227.658 228.523 227.341 227.653C227.034 226.783 226.88 225.847 226.88 224.845C226.88 223.852 226.977 222.736 227.17 221.497C227.372 220.257 227.618 219.11 227.908 218.056C227.943 217.941 227.961 217.84 227.961 217.752C227.961 217.656 227.943 217.572 227.908 217.502C227.838 217.37 227.737 217.304 227.605 217.304C227.376 217.304 227.192 217.229 227.051 217.08C226.919 216.922 226.854 216.733 226.854 216.513V215.973C226.854 215.753 226.928 215.568 227.078 215.419C227.236 215.261 227.425 215.182 227.645 215.182H231.586C231.806 215.182 231.995 215.261 232.153 215.419C232.312 215.568 232.391 215.753 232.391 215.973V216.513C232.391 216.733 232.32 216.922 232.18 217.08C232.039 217.229 231.854 217.304 231.626 217.304C231.521 217.304 231.455 217.344 231.428 217.423C231.384 217.546 231.283 218.144 231.125 219.216C230.976 220.279 230.901 221.8 230.901 223.777C230.901 224.683 230.962 225.403 231.085 225.939C231.208 226.476 231.362 226.862 231.547 227.1C231.74 227.337 231.938 227.456 232.14 227.456C232.483 227.456 232.76 227.284 232.971 226.941C233.182 226.599 233.313 226.172 233.366 225.663C233.946 220.547 234.236 217.928 234.236 217.805C234.236 217.471 234.122 217.304 233.894 217.304C233.674 217.304 233.494 217.229 233.353 217.08C233.221 216.922 233.155 216.733 233.155 216.513V215.973C233.155 215.753 233.23 215.568 233.379 215.419C233.538 215.261 233.727 215.182 233.946 215.182H237.756C237.976 215.182 238.161 215.261 238.31 215.419C238.468 215.568 238.547 215.753 238.547 215.973V216.513C238.547 216.733 238.477 216.922 238.336 217.08C238.205 217.229 238.024 217.304 237.796 217.304C237.576 217.304 237.466 217.471 237.466 217.805C237.466 217.972 237.73 220.982 238.257 226.836C238.275 227.073 238.328 227.192 238.416 227.192C238.635 227.192 238.815 227.271 238.956 227.429C239.105 227.587 239.18 227.776 239.18 227.996V229.301C239.18 229.521 239.105 229.71 238.956 229.868C238.815 230.026 238.635 230.105 238.416 230.105H233.458C232.729 230.404 232.039 230.554 231.389 230.554ZM245.363 230.119L245.469 231.912C245.486 232.158 245.543 232.281 245.64 232.281C245.86 232.281 246.04 232.355 246.181 232.505C246.33 232.663 246.405 232.852 246.405 233.072V234.39C246.405 234.601 246.33 234.786 246.181 234.944C246.04 235.102 245.86 235.181 245.64 235.181H240.617C240.397 235.181 240.213 235.102 240.063 234.944C239.923 234.786 239.853 234.601 239.853 234.39V233.072C239.853 232.852 239.923 232.663 240.063 232.505C240.213 232.355 240.397 232.281 240.617 232.281C240.731 232.281 240.793 232.158 240.802 231.912C241.312 222.789 241.566 218.082 241.566 217.792C241.566 217.467 241.457 217.304 241.237 217.304C241.017 217.304 240.837 217.229 240.696 217.08C240.556 216.922 240.485 216.733 240.485 216.513V215.973C240.485 215.753 240.564 215.568 240.723 215.419C240.881 215.261 241.07 215.182 241.29 215.182H243.742C243.961 215.182 244.146 215.256 244.295 215.406C244.357 215.476 244.41 215.551 244.454 215.63L244.744 215.445C245.491 214.979 246.291 214.747 247.143 214.747C247.952 214.747 248.672 215.006 249.305 215.524C249.938 216.034 250.474 216.72 250.914 217.581C251.362 218.442 251.7 219.418 251.929 220.508C252.166 221.589 252.285 222.701 252.285 223.843C252.285 225.733 251.894 227.293 251.111 228.523C250.25 229.877 249.028 230.554 247.446 230.554C246.849 230.554 246.207 230.426 245.521 230.171L245.363 230.119ZM244.691 218.609L245.1 225.663C245.302 226.172 245.574 226.599 245.917 226.941C246.26 227.284 246.603 227.456 246.945 227.456C247.675 227.456 248.136 226.757 248.33 225.359C248.417 224.656 248.461 223.848 248.461 222.934C248.461 222.072 248.4 221.198 248.277 220.31C248.163 219.422 247.969 218.662 247.697 218.029C247.433 217.396 247.104 217.08 246.708 217.08C245.996 217.08 245.324 217.59 244.691 218.609Z" fill="black"/>
<path d="M113.807 18.5909C120.411 14.6892 128.39 12.9981 136.232 12.7163C140.895 14.7597 146.093 14.6363 151.013 13.4033C158.934 13.9934 166.775 16.3802 173.368 20.3524C178.329 23.4439 181.764 28.103 183.388 33.2642C155.795 33.6517 128.182 33.1409 100.6 33.5637C103.253 27.5658 107.619 22.0787 113.807 18.5909Z" fill="white"/>
<path d="M73.9668 51.7249C79.729 41.3496 92.7283 35.2812 105.47 35.0963C130.865 35.0522 156.27 35.1315 181.665 35.0346C184.536 35.0258 187.565 34.9642 190.13 36.3381C202.238 41.3496 209.238 52.6584 212.148 63.8175C210.97 64.4429 209.822 65.0947 208.663 65.7376C208.02 64.0818 207.723 61.9944 205.842 61.0696C203.624 59.9334 201.109 59.361 198.634 58.903C187.853 57.0182 176.813 57.8196 165.903 57.2119C140.716 56.0669 115.262 52.4382 90.1542 56.3576C84.3228 57.3793 78.3825 58.4009 72.9372 60.594C72.7788 60.8846 72.4421 61.4571 72.2738 61.739C72.7293 68.2565 74.0361 75.1264 79.1844 80.1203C78.6993 81.8289 78.3231 83.564 77.6102 85.2198C75.1846 84.1717 74.3331 81.7144 73.1946 79.7239C68.6898 70.89 69.3829 60.4179 73.9668 51.7249Z" fill="white"/>
<path d="M38.1671 72.8011C39.5829 71.894 41.7412 73.9109 40.8204 75.1615C39.4146 75.9542 37.286 74.043 38.1671 72.8011Z" fill="#1C180D"/>
<path d="M26.356 74.915C28.4351 73.9814 28.6826 77.6718 26.9203 78.0153C25.2966 77.8832 25.3164 75.6549 26.356 74.915Z" fill="#1C180D"/>
<path d="M34.1963 75.4785C36.3744 75.6899 37.2951 77.3281 37.9981 78.9487C36.2259 78.2705 34.9091 77.0639 34.1963 75.4785Z" fill="#1C180D"/>
<path d="M30.2264 79.3628C31.8006 78.7374 33.5134 80.8953 32.7609 82.1371C31.2858 82.7449 29.4047 80.543 30.2264 79.3628Z" fill="#1C180D"/>
<path d="M38.543 80.1379C39.1469 80.1467 40.3548 80.182 40.9587 80.1996C40.7013 80.9923 40.4241 81.7937 40.1271 82.5864C38.2856 82.8859 38.84 81.098 38.543 80.1379Z" fill="#1C180D"/>
<path d="M53.3835 104.729C55.1161 105.046 54.8587 107.926 53.235 108.278C51.6806 107.785 52.0073 105.257 53.3835 104.729Z" fill="#1C180D"/>
<path d="M228.287 39.4383C234.227 34.7703 242.355 32.8679 250.157 33.1673C253.216 34.0305 255.622 36.0738 258.275 37.5975C257.671 37.9674 256.464 38.7161 255.86 39.086C251.672 38.6016 247.088 39.2005 244.078 42.0717C238.207 47.3826 234.425 54.1468 230.237 60.5146C226.287 66.4773 223.683 73.1094 219.198 78.799C216.812 81.9345 213.139 83.9338 209.525 85.7658C211.763 82.2604 214.07 78.6317 214.594 74.5538C215.782 66.5478 213.04 58.5506 209.248 51.3724C216.099 48.0696 222.386 43.9477 228.287 39.4383Z" fill="#FFFFFE"/>
<path d="M18.8607 67.1027C20.2269 66.8826 22.207 66.8297 23.108 67.9571C22.8703 69.93 18.5933 68.6176 18.8607 67.1027Z" fill="#FDEEE0"/>
<path d="M36.1472 67.7544C37.4045 68.4854 38.6718 69.1988 39.9688 69.8858C38.4837 69.7097 36.9986 69.5776 35.5234 69.4631C35.7214 68.8906 35.9294 68.3181 36.1472 67.7544Z" fill="#FDEEE0"/>
<path d="M65.8086 88.7602C67.561 86.3294 69.9173 84.0746 73.1449 83.2908C71.1252 85.5103 68.254 86.9459 65.8086 88.7602Z" fill="#FDEEE0"/>
<path d="M86.8975 89.3679C88.6796 90.645 90.3923 92.0014 92.0259 93.437C91.2933 93.9126 89.8379 94.8726 89.1053 95.3482C88.3132 93.3665 87.6004 91.3672 86.8975 89.3679Z" fill="#E9E2DB"/>
<path d="M27.4936 60.8403C29.6024 62.7868 30.1568 65.4995 30.8696 68.0185C32.8003 65.8518 34.2754 63.4033 35.9882 61.1134C35.9288 64.7509 34.0477 68.0097 32.1666 71.1451C28.1965 68.9432 27.0778 64.7773 27.4936 60.8403Z" fill="#A7C097"/>
<path d="M134.251 5.93448C136.776 -0.354084 146.766 -1.78969 152.161 2.32342C154.538 5.06255 153.647 8.92905 152.191 11.8708C162.161 13.0422 172.497 16.1424 179.309 23.0563C182.368 25.9011 184.061 29.6179 185.417 33.3082C195.565 35.1402 203.337 42.3535 208.426 50.0249C212.773 47.7613 217.079 45.3921 221.059 42.6354C224.604 40.2045 227.772 37.3068 231.683 35.3163C236.959 32.6389 243.108 31.5731 249.137 31.5203C251.543 31.3089 253.483 32.7357 255.394 33.8103C257.909 35.3956 260.661 36.9193 262.255 39.359L261.929 40.2133L259.463 41.279C259.582 40.6096 259.81 39.2797 259.929 38.6192C259.513 38.3637 258.691 37.8529 258.275 37.5975C255.622 36.0738 253.216 34.0304 250.157 33.1673C242.355 32.8678 234.227 34.7703 228.287 39.4382C222.386 43.9477 216.099 48.0696 209.248 51.3724C213.04 58.5505 215.782 66.5477 214.594 74.5538C214.069 78.6316 211.763 82.2603 209.525 85.7657C213.139 83.9338 216.812 81.9345 219.198 78.799C223.683 73.1093 226.287 66.4773 230.237 60.5146C234.425 54.1468 238.207 47.3826 244.078 42.0717C247.088 39.2004 251.672 38.6015 255.86 39.0859C256.81 39.1388 258.711 39.2357 259.651 39.2885C259.057 39.7994 258.454 40.3102 257.859 40.821C253.335 40.0107 248.187 40.3806 244.86 43.5425C239.722 48.3074 236.415 54.3229 232.643 59.9333C227.861 67.1907 224.831 75.4257 218.653 81.8992C214.98 85.889 208.763 86.5848 204.713 90.1254C198.189 95.5685 189.972 98.9682 181.744 101.875C181.804 103.927 183.309 107.802 179.814 108.163C167.973 109.079 156.033 108.577 144.152 108.524C131.964 108.11 119.727 108.683 107.589 107.494C106.065 109.467 104.758 112.47 101.58 112.47C97.5106 111.81 94.58 108.894 91.4317 106.745C91.3723 108.154 91.3228 109.564 91.2634 110.982C91.6198 111.387 92.3227 112.206 92.6692 112.611C92.4415 113.28 91.996 114.628 91.7683 115.297C93.8771 115.341 95.9859 115.394 98.1046 115.465C98.362 116.433 98.6195 117.402 98.8868 118.371C100.085 118.767 101.293 119.173 102.5 119.578C102.461 120.133 102.362 121.242 102.322 121.797C105.58 124.598 109.134 127.284 111.223 130.948C105.599 133.018 99.3917 133.194 93.59 131.635C92.4415 132.586 91.4515 134.049 89.6496 133.925C88.1942 133.168 86.917 132.181 85.6201 131.248C84.036 131.124 82.4519 131.089 80.9173 130.816C79.056 129.821 78.2145 127.918 77.0462 126.395C75.076 130.129 72.7098 133.819 69.2149 136.594C68.2941 137.334 67.2249 137.51 66.017 137.149L64.7003 136.779C63.235 137.378 61.7697 137.985 60.2945 138.567C59.0371 136.761 56.7699 137.571 54.8888 137.783C51.0276 138.276 47.1763 139.395 43.2458 138.857C44.2458 132.648 50.1069 128.218 55.7799 125.091C55.4235 124.343 55.0671 123.603 54.7205 122.872C55.1661 122 55.6116 121.137 56.0472 120.274C54.9482 121.33 53.9087 122.431 52.8889 123.55C50.6316 123.18 48.9386 121.806 47.2357 120.573C45.2457 120.494 42.7904 120.916 41.3746 119.358C40.147 117.922 39.3648 116.249 38.5035 114.637C35.7412 118.318 31.5731 120.908 27.0882 122.713C26.6823 122.352 25.8704 121.621 25.4645 121.26C23.9002 121.348 22.3458 121.445 20.7914 121.542L19.8509 120.221C15.6234 119.243 11.1681 119.199 7 117.94C9.24742 112.796 15.554 110.709 20.9498 109.035C20.7617 106.983 22.0389 105.274 24.5437 105.591C24.6625 104.385 24.8309 103.205 25.019 102.016C24.4843 100.897 24.2764 99.7521 25.3457 98.792C26.1971 97.0394 25.5338 95.04 25.5932 93.1993C21.0389 91.3585 15.9699 89.0157 14.5343 84.3741C12.9799 79.3979 13.069 72.3959 19.1281 69.8594C17.7817 68.8113 16.4847 67.6839 15.257 66.5301C18.6727 64.9008 22.4943 65.7551 25.9694 66.6887C25.2863 64.1169 25.1278 61.457 25.6427 58.8588C22.0587 53.6183 18.7915 47.2153 21.227 41.0412C23.7913 34.9728 31.3256 32.0399 38.1767 31.6348C52.8493 30.7717 66.7002 36.4261 79.1451 42.7411C84.5112 38.2316 91.3921 35.422 98.5402 33.9688C101.253 26.914 106.5 20.5902 113.747 16.7501C120.084 13.2271 127.499 11.7034 134.865 11.1397C134.222 9.45748 133.152 7.66955 134.251 5.93448ZM140.281 2.42029C137.786 3.55646 135.162 5.89925 135.707 8.57673C137.835 13.0245 144.597 13.7556 149.073 11.9853C152.765 9.8098 153.231 2.87829 148.013 2.04157C145.479 1.55716 142.647 1.31054 140.281 2.42029ZM113.807 18.5909C107.619 22.0787 103.253 27.5657 100.6 33.5636C128.182 33.1409 155.795 33.6517 183.388 33.2642C181.764 28.103 178.329 23.4438 173.368 20.3524C166.775 16.3802 158.933 13.9934 151.013 13.4033C146.092 14.6363 140.895 14.7596 136.232 12.7163C128.39 12.9981 120.411 14.6892 113.807 18.5909ZM34.7017 33.8014C29.0089 34.7262 22.9002 38.1876 22.3359 43.7451C21.3855 51.2139 26.7516 57.749 32.1572 62.9367C33.7116 61.2985 35.1472 59.5282 37.1471 58.2863C39.0678 60.6731 37.2956 63.8526 37.1372 66.5389C45.4734 70.8898 54.4928 74.0517 62.8984 78.2705C64.6705 79.1689 66.8586 80.4196 66.611 82.5158C66.1754 83.7576 65.5517 84.9378 65.0171 86.1445C67.0566 84.3301 69.2743 82.6655 71.8583 81.4941C70.7495 78.9311 70.0466 76.236 68.8882 73.6994C62.235 68.4237 53.3839 66.0369 46.5328 60.9902C41.7211 57.4408 36.2164 54.1468 33.3255 49.0561C31.6622 46.3874 32.7414 42.0717 36.6026 41.6137C41.7904 40.9972 46.9981 42.1245 52.0078 43.2607C59.0966 45.1279 66.5715 46.951 71.9771 51.7159C73.4028 48.8975 75.4027 46.361 77.6403 44.0182C64.8983 37.1395 49.8891 31.397 34.7017 33.8014ZM73.9672 51.7247C69.3832 60.4177 68.6902 70.8898 73.1949 79.7238C74.3335 81.7143 75.1849 84.1716 77.6105 85.2197C78.3234 83.5639 78.6996 81.8288 79.1847 80.1201C74.0365 75.1263 72.7296 68.2564 72.2742 61.7389C72.4425 61.457 72.7791 60.8845 72.9375 60.5939C78.3828 58.4008 84.3231 57.3791 90.1545 56.3575C115.262 52.4381 140.716 56.0668 165.903 57.2118C176.814 57.8195 187.853 57.018 198.635 58.9028C201.11 59.3608 203.624 59.9333 205.842 61.0695C207.723 61.9943 208.02 64.0817 208.664 65.7375C208.723 73.2415 205.624 80.8071 199.555 86.1092C191.476 93.7365 179.398 96.916 167.874 97.0129C156.003 97.101 144.132 96.8808 132.261 96.8368C124.46 96.7311 116.609 96.9513 108.867 95.9208C109.035 97.4533 109.183 98.9946 109.312 100.536C131.816 100.642 154.33 100.721 176.834 100.545C181.309 100.73 185.388 98.8273 189.358 97.2419C197.872 93.622 206.258 88.5225 210.466 80.7543C213.426 75.5226 213.109 69.4366 212.149 63.8174C209.238 52.6583 202.238 41.3495 190.13 36.338C187.566 34.964 184.536 35.0257 181.665 35.0345C156.27 35.1314 130.865 35.0521 105.471 35.0961C92.7286 35.2811 79.7293 41.3495 73.9672 51.7247ZM34.4542 44.8549C33.7809 46.9246 34.9096 48.9768 36.3947 50.5269C39.147 53.3981 42.4142 55.8554 45.6912 58.2511C52.681 63.4827 61.3044 66.4685 68.6605 71.2422C67.8189 65.2002 68.5912 58.9733 71.096 53.3013C68.3931 51.0994 65.4824 48.968 61.9776 47.8846C54.8987 45.5859 47.612 43.4897 40.048 43.0317C38.0381 42.9525 35.5234 43.0669 34.4542 44.8549ZM91.6594 57.6081C85.7983 58.7267 79.7788 59.6691 74.2741 61.8534C74.2246 62.0824 74.1256 62.5579 74.086 62.7957C78.0759 64.5484 82.4123 65.5613 86.6398 66.7855C100.441 70.5199 115.005 70.5728 129.301 70.5287C148.082 70.5199 166.864 70.6432 185.655 70.5023C190.764 70.2293 196.367 70.1412 200.634 67.2347C203.07 66.8824 204.119 64.2138 205.694 62.7517C203.793 61.8181 201.793 61.0343 199.654 60.6908C188.556 58.4801 177.121 59.3608 165.874 58.7443C141.192 57.5641 116.312 54.411 91.6594 57.6081ZM27.4941 60.8405C27.0783 64.7774 28.197 68.9434 32.1671 71.1453C34.0482 68.0098 35.9293 64.751 35.9887 61.1135C34.2759 63.4035 32.8008 65.852 30.8701 68.0186C30.1573 65.4997 29.6029 62.7869 27.4941 60.8405ZM74.8978 64.8831C74.6008 69.9475 76.571 74.862 80.4718 78.57C83.333 77.0287 86.8774 75.7252 90.204 76.9142C92.897 78.0768 93.9959 80.719 95.2137 82.965C96.2235 82.824 97.2334 82.6831 98.2532 82.5598C99.0551 84.1275 99.7283 85.7481 100.174 87.4303C101.699 85.9595 103.342 84.5855 105.015 83.2468C105.382 84.0306 105.797 84.8145 106.193 85.5984C105.124 87.8971 103.986 90.1783 102.797 92.4418C107.263 94.5997 112.351 94.996 117.341 95.1369C130.054 95.498 142.806 95.6566 155.518 95.3043C160.963 95.7622 166.458 95.5861 171.913 95.3395C182.645 94.723 193.427 90.6187 200.238 83.0354C204.911 77.9182 207.02 71.2421 206.704 64.707C203.288 68.1155 198.684 70.5023 193.556 71.1188C181.457 72.6778 169.21 71.6561 157.042 71.8587C139.796 71.6737 122.529 72.1493 105.282 71.4271C94.9166 70.2205 84.729 68.045 74.8978 64.8831ZM18.8608 67.1026C18.5935 68.6175 22.8705 69.9298 23.1081 67.957C22.2072 66.8296 20.2271 66.8824 18.8608 67.1026ZM36.1471 67.7544C35.9293 68.3181 35.7214 68.8905 35.5234 69.463C36.9986 69.5775 38.4837 69.7096 39.9687 69.8858C38.6718 69.1988 37.4045 68.4854 36.1471 67.7544ZM25.514 70.2645C24.722 71.9115 28.8505 72.8187 29.2564 71.1541C28.7812 69.8946 26.6427 69.4895 25.514 70.2645ZM16.0095 75.5402C15.1976 79.3979 15.0293 83.9514 18.2371 87.034C20.8211 89.2975 24.4942 92.2569 28.2762 90.1783C32.6721 90.9005 36.1966 93.5604 39.0381 96.4933C40.4737 96.5902 42.4637 95.7182 43.5527 96.9425C43.7904 98.0874 43.9389 99.25 43.9983 100.43C45.018 100.967 46.0477 101.505 47.1169 101.98C48.206 99.0298 47.8298 95.8327 48.8198 92.8734C50.5029 89.87 54.0968 88.1085 57.76 87.7298C57.6511 84.4622 60.047 81.9785 62.7598 80.1025C56.1363 76.8173 49.0871 74.2807 42.4835 70.9603C45.4635 74.5538 45.1863 79.2129 44.8398 83.4405C44.523 86.5672 43.8695 90.099 40.9588 92.1952C37.4936 94.08 33.8007 91.5435 30.6821 90.2488C26.4347 88.0028 21.1082 86.0652 19.2469 81.6438C17.8114 77.7949 20.7122 74.1222 24.1675 72.0524C21.0884 70.2469 16.4055 72.2814 16.0095 75.5402ZM34.6423 71.5768C33.6423 72.1141 32.7018 72.7482 31.6919 73.2767C29.3554 73.5938 26.712 72.6161 24.6427 73.9549C21.5142 75.3112 19.6925 78.8518 21.1776 81.7583C23.5339 85.3782 28.1574 86.9107 32.0087 88.954C34.3255 89.9405 36.8303 91.5875 39.5331 90.8653C41.4934 90.011 41.8696 87.8355 42.4142 86.1621C43.1666 82.3836 43.3745 78.4203 42.5033 74.6418C41.9686 71.6121 37.4936 69.8682 34.6423 71.5768ZM81.5014 79.2922C84.8874 83.3084 89.0159 87.2278 94.5206 88.8395C94.2038 85.343 93.2534 81.6879 90.7188 78.9223C88.0358 76.6412 84.3825 78.3058 81.5014 79.2922ZM80.3431 81.6174C80.1649 82.6831 79.9966 83.7488 79.848 84.8321C82.1846 85.8186 84.4221 86.99 86.4715 88.4168C86.6497 88.1173 87.0061 87.5272 87.1843 87.2278C85.0854 85.1933 82.838 83.2644 80.3431 81.6174ZM60.7895 90.3016C59.4431 92.0014 58.1659 93.7453 57.0174 95.5509C60.2846 95.3307 63.1558 93.9303 65.8388 92.3802C66.611 95.7975 68.809 98.6775 72.2148 100.465C75.1453 97.6911 72.096 94.7758 70.2149 92.4242C72.888 92.0719 75.5512 91.6492 78.1749 91.0326C76.0958 89.4649 73.4424 89.9757 71.0069 90.3985C70.8782 89.7467 70.6208 88.4432 70.4921 87.7915C69.1159 89.1038 67.7496 90.4161 66.3834 91.7372C63.3538 89.3328 63.6607 85.4487 62.1954 82.3308C59.552 84.4887 59.8391 87.5184 60.7895 90.3016ZM65.8091 88.7603C68.2545 86.9459 71.1257 85.5103 73.1454 83.2908C69.9178 84.0747 67.5615 86.3294 65.8091 88.7603ZM97.0651 84.7352C96.8869 87.2013 97.0552 89.6851 97.2037 92.16C94.58 91.0326 92.0554 89.7555 89.4318 88.6546C91.699 90.971 94.6691 92.8646 98.0848 93.5075C100.807 91.9662 102.659 89.5001 103.698 86.8138C101.956 88.223 100.362 89.7643 98.7284 91.2704C98.2729 89.095 98.7581 86.5584 97.0651 84.7352ZM74.1058 86.9724C73.0068 88.2406 75.4324 89.7027 76.5017 88.5313C77.5016 87.2894 75.1354 85.7041 74.1058 86.9724ZM77.7293 86.3735C80.2837 89.1919 83.442 91.517 86.6794 93.7101C86.1052 89.6851 82.3034 86.5496 77.7293 86.3735ZM51.6613 91.8958C49.7306 96.7399 48.4238 102.033 48.8792 107.168C52.8097 109.731 57.7105 113.571 62.8786 111.299C67.7001 109.581 72.9276 106.551 73.8186 101.628C70.8881 101.029 67.7298 99.9458 65.1458 101.963C66.8487 99.5407 66.4626 96.9689 64.9181 94.5732C62.6013 95.683 60.5816 97.1979 59.0174 99.0739C58.5619 98.7832 57.661 98.2107 57.2056 97.9201C56.7699 97.3564 55.8987 96.229 55.4532 95.6654C56.5026 93.6749 57.7303 91.7636 58.9877 89.8788C56.2056 89.183 53.8889 90.6539 51.6613 91.8958ZM86.8972 89.368C87.6002 91.3673 88.313 93.3666 89.105 95.3483C89.8377 94.8727 91.2931 93.9127 92.0257 93.4371C90.3921 92.0014 88.6793 90.6451 86.8972 89.368ZM73.7097 93.5075C75.7294 97.2507 76.5908 101.98 74.1454 105.732C72.1752 108.762 68.611 110.462 65.3735 112.241C66.6705 113.377 67.9773 114.522 69.2644 115.685C70.4624 115.755 71.6702 115.835 72.8781 115.923C74.5711 114.196 75.8878 112.268 76.7294 110.101C78.3234 109.661 80.5609 110.198 81.4024 108.56C84.135 104.719 87.0656 100.439 86.6497 95.7094C84.7191 94.1945 82.5311 92.9703 80.5609 91.5082C78.6204 92.935 76.1057 93.1905 73.7097 93.5075ZM30.2365 92.935C33.375 98.2195 37.9293 102.711 41.8202 107.547C43.3943 109.255 44.1765 106.076 44.6814 105.063C45.5328 103.213 43.4636 102.104 42.2855 100.932C42.1469 100.421 41.8597 99.3997 41.7112 98.8889C36.761 98.704 34.8403 93.8334 30.2365 92.935ZM27.8703 93.9479C27.7119 97.7087 27.6822 101.478 27.6426 105.239C30.5039 104.605 33.4542 104.42 36.365 104.966C34.3156 100.853 31.2662 97.2419 27.8703 93.9479ZM95.2533 95.0665C94.9464 96.5725 95.085 98.6511 92.6692 98.4045C93.2138 97.1891 93.7682 95.9825 94.3424 94.7758C91.996 95.4012 89.0456 96.7047 88.9862 99.2236C88.3724 103.09 92.9068 105.081 95.3523 107.538C95.2632 106.692 95.1048 104.993 95.0157 104.147C97.3918 104.896 97.57 106.921 97.0156 108.806C98.768 109.528 100.481 110.656 102.51 110.559C105.926 108.507 106.381 104.438 107.035 101.117C107.124 99.0651 107.916 96.1234 105.5 94.8903C102.263 92.891 98.7581 96.0089 95.2533 95.0665ZM85.5705 105.133C86.7487 105.045 87.9467 104.966 89.1447 104.904C88.511 103.953 87.9071 103.002 87.3031 102.042C86.719 103.072 86.1448 104.094 85.5705 105.133ZM108.639 102.209C108.668 103.513 108.718 104.808 108.777 106.12C117.559 106.807 126.381 106.657 135.192 106.886C150.29 106.877 165.438 107.688 180.507 106.622C180.309 105.116 180.091 103.619 179.833 102.13C156.102 102.236 132.37 102.121 108.639 102.209ZM23.4943 107.441C23.0191 108.401 22.7418 109.467 22.029 110.321C18.5539 111.581 14.7224 112.356 12.0691 114.901C21.3459 114.619 29.8207 110.621 38.9589 109.458C37.3946 107.582 35.0284 106.049 32.3255 105.979C29.5138 107.027 26.603 107.943 23.4943 107.441ZM78.4917 112.259C77.363 113.536 76.1948 114.786 74.977 116.002C75.9968 117.147 77.1353 118.204 78.3531 119.208C80.8183 115.007 85.0854 111.73 86.6497 107.115C83.7687 108.656 81.7589 111.272 78.4917 112.259ZM42.2459 110.321C46.9288 112.32 51.9682 113.509 56.9482 114.786C60.2747 115.562 63.6706 117.138 67.1754 116.116C66.0962 115.183 65.0765 114.179 63.8191 113.457C61.5618 113.245 59.2748 113.518 57.0373 113.139C53.1662 111.986 50.1861 109.211 46.2754 108.146C44.8497 108.736 43.5527 109.546 42.2459 110.321ZM81.1945 117.86C84.0459 117.349 86.8279 116.601 89.5803 115.746C89.5209 113.263 89.3427 110.779 88.9962 108.313C86.2438 111.387 83.4816 114.478 81.1945 117.86ZM11.2869 117.332C15.3263 117.878 19.4351 118.283 23.2864 119.587C24.0487 119.587 25.5635 119.578 26.3258 119.569C26.7812 119.877 27.6921 120.476 28.1475 120.784C32.1473 118.257 36.1769 115.526 38.5629 111.616C29.197 112.206 20.4053 115.57 11.2869 117.332ZM40.1965 111.519C40.2361 114.302 41.0281 118.547 44.9982 118.706C47.7704 118.671 49.8495 120.265 51.7207 121.876C53.1563 120.626 54.5918 118.512 56.9185 119.622C59.4035 120.467 61.8489 119.719 63.9973 118.486C60.0371 116.618 55.5819 115.958 51.3543 114.769C47.602 113.765 43.9488 112.488 40.1965 111.519ZM80.3728 120.925C89.1842 124.184 98.5501 125.998 107.55 128.799C105.124 126.307 102.134 124.237 100.243 121.366C99.6194 120.097 98.0749 119.675 96.8373 119.076C96.6987 118.538 96.4314 117.455 96.3027 116.918C90.7288 116.9 84.8379 117.728 80.3728 120.925ZM58.4431 121.903C55.9977 122.449 58.7599 125.311 56.8293 126.316C53.0374 128.764 48.7802 130.975 46.9783 135.079C56.5026 131.433 64.2745 125.135 73.5117 121.04C74.5414 120.52 75.7988 120.08 75.9671 118.873C73.3731 117.323 69.9673 117.015 66.9873 117.667C64.423 119.551 61.8984 121.542 58.4431 121.903ZM59.9282 130.261C55.9383 132.666 51.5524 134.506 47.6318 137.017C51.7009 136.814 55.6908 136.048 59.7401 135.651C62.4429 137.052 65.621 133.282 67.6506 136.065C72.1356 132.049 75.8383 127.064 76.67 121.348C70.7693 123.823 65.3339 127.038 59.9282 130.261ZM78.2541 121.771C78.3234 122.449 78.4422 123.805 78.5016 124.475C79.4619 126.236 79.9669 129.055 82.6994 129.196C85.3626 129.425 87.8378 130.252 89.808 131.908C90.7585 131.23 91.699 130.525 92.7385 129.953C97.1047 130.455 101.501 131.168 105.926 130.578C102.392 128.059 97.7581 127.584 93.59 126.36C90.1842 125.611 86.9764 124.184 83.5013 123.752C81.7786 123.03 80.0263 122.379 78.2541 121.771Z" fill="#222213"/>
<path d="M140.28 2.42028C142.646 1.31054 145.478 1.55715 148.013 2.04157C153.23 2.87828 152.765 9.8098 149.072 11.9853C144.597 13.7556 137.835 13.0245 135.706 8.57672C135.162 5.89924 137.785 3.55645 140.28 2.42028Z" fill="#FFFFFD"/>
<path d="M77.7295 86.3735C82.3035 86.5497 86.1053 89.6851 86.6796 93.7102C83.4421 91.5171 80.2838 89.1919 77.7295 86.3735Z" fill="#FCFBFA"/>
<path d="M34.7015 33.8016C49.8889 31.3972 64.8981 37.1397 77.64 44.0183C75.4025 46.3611 73.4026 48.8977 71.9769 51.7161C66.5712 46.9512 59.0963 45.1281 52.0076 43.2609C46.9979 42.1247 41.7902 40.9973 36.6023 41.6139C32.7411 42.0719 31.662 46.3875 33.3253 49.0562C36.2162 54.147 41.7209 57.441 46.5326 60.9904C53.3837 66.0371 62.2348 68.4239 68.888 73.6996C70.0463 76.2362 70.7493 78.9313 71.8581 81.4943C69.2741 82.6657 67.0564 84.3303 65.0169 86.1446C65.5515 84.938 66.1752 83.7578 66.6108 82.5159C66.8583 80.4197 64.6703 79.1691 62.8981 78.2707C54.4926 74.0519 45.4732 70.89 37.137 66.5391C37.2954 63.8528 39.0676 60.6733 37.1469 58.2865C35.147 59.5283 33.7114 61.2986 32.157 62.9368C26.7513 57.7492 21.3852 51.2141 22.3357 43.7453C22.9 38.1878 29.0087 34.7264 34.7015 33.8016Z" fill="#FEFEFD"/>
<path d="M85.5703 105.133C86.1445 104.094 86.7188 103.072 87.3029 102.042C87.9068 103.002 88.5108 103.953 89.1444 104.904C87.9465 104.966 86.7485 105.045 85.5703 105.133Z" fill="#FBEAE0"/>
<path d="M91.6595 57.6083C116.312 54.4111 141.192 57.5642 165.874 58.7444C177.121 59.361 188.556 58.4802 199.654 60.6909C201.793 61.0344 203.793 61.8183 205.694 62.7519C204.12 64.2139 203.07 66.8826 200.635 67.2349C193.407 66.037 186.071 66.9794 178.784 66.7857C156.053 66.5919 133.262 67.2349 110.599 65.4293C103.342 64.5222 95.7979 63.3948 89.6299 59.6428C90.3031 58.9558 90.9764 58.2776 91.6595 57.6083Z" fill="#EE605F"/>
<path d="M74.274 61.8534C79.7787 59.6691 85.7983 58.7267 91.6594 57.6082C90.9762 58.2775 90.303 58.9557 89.6297 59.6427C95.7978 63.3947 103.342 64.5221 110.599 65.4292C133.261 67.2348 156.052 66.5918 178.784 66.7856C186.071 66.9793 193.407 66.0369 200.634 67.2348C196.367 70.1412 190.764 70.2293 185.655 70.5023C166.864 70.6433 148.082 70.5199 129.301 70.5288C115.005 70.5728 100.441 70.5199 86.6398 66.7856C82.4123 65.5613 78.0758 64.5485 74.0859 62.7958C74.1255 62.558 74.2245 62.0824 74.274 61.8534Z" fill="#E84D4A"/>
<path d="M74.8974 64.8833C84.7287 68.0452 94.9163 70.2206 105.282 71.4273C103.906 75.2321 102.668 79.5037 105.015 83.2469C103.342 84.5857 101.698 85.9596 100.173 87.4305C99.728 85.7483 99.0547 84.1277 98.2528 82.5599C97.2331 82.6833 96.2232 82.8242 95.2133 82.9651C93.9956 80.7192 92.8966 78.0769 90.2037 76.9143C86.8771 75.7253 83.3327 77.0288 80.4714 78.5701C76.5706 74.8622 74.6004 69.9476 74.8974 64.8833Z" fill="#E84B4B"/>
<path d="M97.0649 84.7354C98.7579 86.5585 98.2728 89.0951 98.7282 91.2705C100.362 89.7644 101.956 88.2231 103.698 86.8139C102.659 89.5002 100.807 91.9663 98.0847 93.5076C94.669 92.8647 91.6989 90.9711 89.4316 88.6547C92.0553 89.7556 94.5799 91.0327 97.2035 92.1601C97.055 89.6852 96.8867 87.2015 97.0649 84.7354Z" fill="#BAD793"/>
<path d="M208.663 65.7377C209.822 65.0947 210.97 64.443 212.148 63.8176C213.109 69.4368 213.426 75.5228 210.465 80.7545C206.258 88.5227 197.872 93.6222 189.357 97.2421C185.387 98.8275 181.308 100.73 176.833 100.545C154.329 100.721 131.816 100.642 109.312 100.536C109.183 98.9948 109.035 97.4535 108.866 95.921C116.608 96.9515 124.46 96.7313 132.261 96.837C144.132 96.881 156.003 97.1012 167.873 97.0131C179.398 96.9162 191.476 93.7367 199.555 86.1094C205.624 80.8073 208.723 73.2417 208.663 65.7377Z" fill="#FCFBF7"/>
<path d="M80.3427 81.6174C82.8376 83.2644 85.085 85.1933 87.1839 87.2278C87.0057 87.5273 86.6493 88.1174 86.4711 88.4168C84.4217 86.99 82.1842 85.8186 79.8477 84.8322C79.9962 83.7488 80.1645 82.6831 80.3427 81.6174Z" fill="#FCFBF7"/>
<path d="M74.1055 86.9724C75.1352 85.7041 77.5014 87.2894 76.5015 88.5313C75.4322 89.7027 73.0066 88.2406 74.1055 86.9724Z" fill="#FCFBF7"/>
<path d="M193.556 71.1189C198.684 70.5024 203.288 68.1155 206.704 64.707C207.021 71.2422 204.912 77.9183 200.239 83.0355C193.427 90.6187 182.645 94.723 171.913 95.3395C166.458 95.5862 160.963 95.7623 155.518 95.3043C148.103 94.0008 140.548 93.49 133.093 92.389C123.886 91.2088 113.609 91.4202 106.194 85.5984C105.798 84.8146 105.382 84.0307 105.015 83.2468C102.669 79.5036 103.907 75.232 105.283 71.4272C122.529 72.1494 139.796 71.6738 157.043 71.8587C169.21 71.6561 181.457 72.6778 193.556 71.1189Z" fill="#F2615F"/>
<path d="M25.5138 70.2645C26.6424 69.4894 28.7809 69.8946 29.2562 71.1541C28.8502 72.8187 24.7217 71.9115 25.5138 70.2645Z" fill="#6E6C4E"/>
<path d="M34.6426 71.5769C37.494 69.8682 41.969 71.6121 42.5036 74.6419C43.3748 78.4203 43.1669 82.3837 42.4145 86.1621C41.87 87.8355 41.4937 90.011 39.5334 90.8653C36.8306 91.5875 34.3258 89.9405 32.0091 88.9541C28.1578 86.9107 23.5342 85.3782 21.1779 81.7583C19.6928 78.8519 21.5145 75.3113 24.6431 73.9549C26.7123 72.6162 29.3557 73.5938 31.6922 73.2767C32.7021 72.7483 33.6426 72.1141 34.6426 71.5769ZM38.1672 72.8011C37.286 74.043 39.4146 75.9542 40.8205 75.1615C41.7413 73.9109 39.583 71.8939 38.1672 72.8011ZM26.3558 74.9149C25.3163 75.6547 25.2965 77.883 26.9202 78.0151C28.6825 77.6717 28.4349 73.9813 26.3558 74.9149ZM34.1971 75.4786C34.9099 77.064 36.2267 78.2706 37.9989 78.9488C37.2959 77.3282 36.3752 75.69 34.1971 75.4786ZM30.2269 79.3627C29.4052 80.5429 31.2863 82.7448 32.7615 82.1371C33.5139 80.8952 31.8011 78.7374 30.2269 79.3627ZM22.7719 80.1466C21.7521 81.2827 23.6035 83.5463 25.0589 82.5334C26.0984 81.3708 24.2074 79.1249 22.7719 80.1466ZM38.5434 80.1378C38.8404 81.0978 38.286 82.8857 40.1275 82.5862C40.4245 81.7936 40.7017 80.9921 40.9591 80.1994C40.3552 80.1818 39.1473 80.1466 38.5434 80.1378ZM30.2666 84.1628C28.8013 85.8626 31.118 88.6634 33.3456 87.6682C32.8902 86.1621 31.8209 84.885 30.2666 84.1628ZM37.3355 86.5144C36.4643 87.5537 36.7118 88.1702 38.088 88.3728C38.9493 87.3247 38.6919 86.7082 37.3355 86.5144Z" fill="#E55E59"/>
<path d="M81.501 79.2923C84.382 78.3058 88.0353 76.6412 90.7184 78.9224C93.2529 81.6879 94.2033 85.343 94.5202 88.8396C89.0155 87.2278 84.887 83.3085 81.501 79.2923Z" fill="#DF4D4A"/>
<path d="M22.772 80.1465C24.2075 79.1248 26.0985 81.3707 25.059 82.5333C23.6036 83.5462 21.7522 81.2827 22.772 80.1465Z" fill="#6C1D1D"/>
<path d="M60.7897 90.3016C59.8392 87.5184 59.5521 84.4886 62.1956 82.3308C63.6608 85.4487 63.3539 89.3328 66.3835 91.7372C67.7498 90.4161 69.116 89.1038 70.4922 87.7914C70.6209 88.4432 70.8783 89.7467 71.007 90.3985C73.4426 89.9757 76.0959 89.4649 78.175 91.0326C75.5514 91.6492 72.8881 92.0719 70.215 92.4242C72.0961 94.7758 75.1454 97.6911 72.2149 100.465C68.8091 98.6775 66.6112 95.7975 65.8389 92.3802C63.1559 93.9303 60.2848 95.3307 57.0176 95.5509C58.166 93.7453 59.4432 92.0014 60.7897 90.3016Z" fill="#8DA36E"/>
<path d="M30.2658 84.1628C31.8202 84.8851 32.8895 86.1622 33.3449 87.6682C31.1173 88.6635 28.8006 85.8627 30.2658 84.1628Z" fill="#601B1E"/>
<path d="M37.3354 86.5144C38.6918 86.7082 38.9492 87.3247 38.0879 88.3728C36.7117 88.1702 36.4642 87.5537 37.3354 86.5144Z" fill="#39070C"/>
<path d="M102.798 92.4418C103.986 90.1783 105.124 87.8971 106.194 85.5984C113.609 91.4202 123.886 91.2088 133.093 92.389C140.549 93.4899 148.103 94.0007 155.518 95.3043C142.806 95.6566 130.054 95.498 117.342 95.1369C112.352 94.996 107.263 94.5997 102.798 92.4418Z" fill="#E14B4A"/>
<path d="M51.6611 91.8958C53.8888 90.6539 56.2055 89.183 58.9875 89.8788C57.7302 91.7636 56.5025 93.6749 55.4531 95.6654C55.8986 96.229 56.7698 97.3564 57.2054 97.9201C55.7501 97.0041 54.2452 96.1057 53.1363 94.8463C55.661 95.8944 55.5323 92.1952 53.0175 93.1112C52.671 92.8117 51.9978 92.204 51.6611 91.8958Z" fill="#BB4946"/>
<path d="M73.7093 93.5076C76.1052 93.1906 78.6199 92.9351 80.5604 91.5083C82.5307 92.9703 84.7187 94.1946 86.6493 95.7095C87.0651 100.439 84.1345 104.72 81.402 108.56C80.5605 110.198 78.3229 109.661 76.729 110.101C75.8874 112.268 74.5707 114.196 72.8777 115.923C71.6698 115.835 70.4619 115.755 69.264 115.685C67.9769 114.522 66.67 113.377 65.373 112.241C68.6105 110.462 72.1747 108.762 74.1449 105.732C76.5904 101.98 75.729 97.2508 73.7093 93.5076Z" fill="#D6D1C8"/>
<path d="M48.879 107.168C48.4236 102.033 49.7304 96.7399 51.661 91.8958C51.9976 92.204 52.6709 92.8117 53.0174 93.1112C53.0471 93.5428 53.1065 94.4147 53.1362 94.8463C54.2451 96.1057 55.7499 97.0041 57.2053 97.9201C57.6608 98.2107 58.5617 98.7832 59.0171 99.0739C60.5814 97.1979 62.6011 95.683 64.9178 94.5732C66.4623 96.9689 66.8485 99.5407 65.1456 101.963C67.7296 99.9458 70.8879 101.029 73.8184 101.628C72.9274 106.551 67.6999 109.581 62.8783 111.299C57.7103 113.571 52.8095 109.731 48.879 107.168ZM53.2649 100.272C51.8393 100.36 51.364 102.703 52.9679 102.861C54.3936 102.791 54.8391 100.413 53.2649 100.272ZM58.2944 103.046C56.8984 103.786 57.8984 106.499 59.5122 105.239C60.8883 104.482 59.9082 101.795 58.2944 103.046ZM69.3731 102.791C68.2939 103.108 67.5514 104.948 69.0266 105.239C71.0463 105.609 71.8482 101.91 69.3731 102.791ZM53.3837 104.728C52.0076 105.257 51.6809 107.784 53.2352 108.278C54.8589 107.925 55.1163 105.045 53.3837 104.728ZM63.3734 106.772C62.0665 107.142 60.8091 108.084 60.324 109.238C61.314 111.034 65.2743 107.749 63.3734 106.772Z" fill="#EA5F5B"/>
<path d="M30.2363 92.9351C34.8401 93.8334 36.7608 98.704 41.711 98.8889C41.8595 99.3998 42.1467 100.421 42.2853 100.932C43.4634 102.104 45.5326 103.213 44.6812 105.063C44.1763 106.076 43.3941 109.255 41.82 107.547C37.929 102.711 33.3748 98.2196 30.2363 92.9351Z" fill="#586A3B"/>
<path d="M53.0176 93.1114C55.5323 92.1954 55.661 95.8945 53.1364 94.8464C53.1067 94.4149 53.0473 93.5429 53.0176 93.1114Z" fill="#571318"/>
<path d="M27.8703 93.948C31.2662 97.242 34.3155 100.853 36.3649 104.966C33.4542 104.42 30.5038 104.605 27.6426 105.239C27.6822 101.478 27.7119 97.7088 27.8703 93.948Z" fill="#546C32"/>
<path d="M95.2533 95.0664C98.7581 96.0088 102.263 92.8909 105.5 94.8902C107.916 96.1233 107.124 99.065 107.035 101.117C106.381 104.438 105.926 108.507 102.51 110.559C100.481 110.656 98.768 109.528 97.0156 108.806C97.57 106.921 97.3918 104.896 95.0156 104.147C95.1047 104.992 95.2631 106.692 95.3522 107.538C92.9068 105.081 88.3724 103.09 88.9862 99.2236C89.0456 96.7046 91.996 95.4011 94.3424 94.7758C93.7682 95.9824 93.2137 97.189 92.6692 98.4045C95.0849 98.6511 94.9463 96.5725 95.2533 95.0664ZM104.055 95.6829C103.094 96.5109 104.203 98.7039 105.58 97.9553C106.589 97.1097 105.451 94.855 104.055 95.6829ZM100.095 97.0393C100.431 98.8536 101.174 100.694 103.461 101.073C102.956 99.3116 102.778 97.0217 100.095 97.0393ZM90.5505 99.5054C89.5308 100.421 90.0654 102.377 91.501 102.72C93.4316 102.412 92.4118 98.8272 90.5505 99.5054ZM96.6492 100.457C95.6196 101.293 96.8572 103.478 98.2234 102.632C99.2234 101.778 98.0056 99.6199 96.6492 100.457ZM103.065 102.156C101.669 103.196 103.649 105.239 104.837 103.83C106.233 102.755 104.292 100.712 103.065 102.156ZM100.689 106.684C99.4412 107.555 100.738 110.022 102.263 108.982C103.461 108.102 102.184 105.662 100.689 106.684Z" fill="#E36461"/>
<path d="M104.054 95.6831C105.45 94.8552 106.589 97.1099 105.579 97.9554C104.203 98.704 103.094 96.511 104.054 95.6831Z" fill="#641C17"/>
<path d="M100.095 97.0394C102.778 97.0218 102.956 99.3118 103.461 101.073C101.174 100.695 100.431 98.8538 100.095 97.0394Z" fill="#851F24"/>
<path d="M90.5501 99.5053C92.4114 98.8272 93.4311 102.412 91.5005 102.72C90.0649 102.377 89.5303 100.421 90.5501 99.5053Z" fill="#7C1F20"/>
<path d="M53.2657 100.272C54.8399 100.413 54.3943 102.791 52.9686 102.861C51.3647 102.703 51.84 100.36 53.2657 100.272Z" fill="#481818"/>
<path d="M96.6485 100.457C98.0049 99.6199 99.2227 101.778 98.2227 102.632C96.8564 103.478 95.6189 101.293 96.6485 100.457Z" fill="#541416"/>
<path d="M103.064 102.157C104.292 100.712 106.233 102.756 104.837 103.83C103.649 105.239 101.668 103.196 103.064 102.157Z" fill="#802325"/>
<path d="M108.639 102.209C132.37 102.121 156.102 102.236 179.833 102.13C180.091 103.619 180.309 105.116 180.507 106.622C165.438 107.688 150.29 106.877 135.192 106.886C126.38 106.657 117.559 106.807 108.777 106.12C108.718 104.808 108.668 103.513 108.639 102.209Z" fill="#FDFDFA"/>
<path d="M58.2942 103.046C59.908 101.795 60.8881 104.482 59.512 105.239C57.8982 106.499 56.8982 103.786 58.2942 103.046Z" fill="#4A1F1B"/>
<path d="M69.3728 102.791C71.848 101.91 71.046 105.609 69.0263 105.239C67.5511 104.949 68.2937 103.108 69.3728 102.791Z" fill="#581E21"/>
<path d="M23.4936 107.441C26.6023 107.943 29.5131 107.027 32.3248 105.979C35.0277 106.049 37.3939 107.582 38.9582 109.458C29.82 110.621 21.3452 114.619 12.0684 114.901C14.7217 112.356 18.5532 111.581 22.0283 110.321C22.7411 109.467 23.0183 108.401 23.4936 107.441Z" fill="#9CB174"/>
<path d="M63.3736 106.772C65.2745 107.749 61.3143 111.035 60.3242 109.238C60.8093 108.084 62.0667 107.142 63.3736 106.772Z" fill="#44181B"/>
<path d="M100.689 106.684C102.184 105.662 103.461 108.102 102.263 108.982C100.738 110.022 99.4413 107.556 100.689 106.684Z" fill="#75161C"/>
<path d="M78.4912 112.259C81.7584 111.272 83.7682 108.657 86.6493 107.115C85.085 111.73 80.8179 115.007 78.3526 119.208C77.1349 118.204 75.9963 117.147 74.9766 116.002C76.1943 114.787 77.3626 113.536 78.4912 112.259Z" fill="#596437"/>
<path d="M42.2461 110.321C43.553 109.546 44.8499 108.736 46.2756 108.146C50.1863 109.211 53.1664 111.986 57.0375 113.14C59.275 113.518 61.562 113.245 63.8193 113.457C65.0767 114.179 66.0965 115.183 67.1756 116.117C63.6708 117.138 60.275 115.562 56.9484 114.787C51.9684 113.51 46.929 112.321 42.2461 110.321Z" fill="#576539"/>
<path d="M81.1943 117.86C83.4814 114.478 86.2436 111.387 88.996 108.313C89.3425 110.779 89.5207 113.263 89.5801 115.747C86.8277 116.601 84.0457 117.349 81.1943 117.86Z" fill="#5E6C3C"/>
<path d="M11.2871 117.332C20.4055 115.571 29.1972 112.206 38.5631 111.616C36.177 115.526 32.1475 118.257 28.1477 120.785C27.6923 120.476 26.7814 119.877 26.326 119.569C25.5637 119.578 24.0489 119.587 23.2866 119.587C19.4353 118.283 15.3265 117.878 11.2871 117.332Z" fill="#92AE72"/>
<path d="M40.1963 111.519C43.9486 112.488 47.6019 113.765 51.3542 114.769C55.5817 115.958 60.0369 116.619 63.9972 118.486C61.8487 119.719 59.4033 120.467 56.9183 119.622C54.5917 118.512 53.1561 120.626 51.7205 121.877C49.8493 120.265 47.7702 118.671 44.998 118.706C41.0279 118.547 40.2359 114.302 40.1963 111.519Z" fill="#8C9F6D"/>
<path d="M80.373 120.925C84.8382 117.728 90.729 116.9 96.303 116.918C96.4317 117.455 96.699 118.539 96.8376 119.076C98.0752 119.675 99.6197 120.098 100.243 121.366C102.134 124.237 105.124 126.307 107.55 128.799C98.5504 125.999 89.1845 124.184 80.373 120.925Z" fill="#8FA36F"/>
<path d="M58.4433 121.903C61.8986 121.542 64.4232 119.551 66.9875 117.667C69.9675 117.015 73.3733 117.323 75.9673 118.873C75.7989 120.08 74.5416 120.52 73.5119 121.04C64.2747 125.135 56.5028 131.433 46.9785 135.079C48.7804 130.975 53.0376 128.764 56.8295 126.316C58.7601 125.311 55.9979 122.449 58.4433 121.903Z" fill="#8DA06C"/>
<path d="M59.9283 130.261C65.334 127.038 70.7694 123.823 76.6701 121.348C75.8384 127.064 72.1356 132.049 67.6507 136.066C65.6211 133.282 62.443 137.052 59.7402 135.652C55.6908 136.048 51.701 136.814 47.6318 137.017C51.5524 134.507 55.9384 132.666 59.9283 130.261Z" fill="#89A36D"/>
<path d="M78.2539 121.771C80.0261 122.378 81.7785 123.03 83.5012 123.752C81.828 123.973 80.1746 124.254 78.5014 124.475C78.442 123.805 78.3232 122.449 78.2539 121.771Z" fill="#6E8150"/>
<path d="M83.5017 123.752C86.9768 124.184 90.1846 125.611 93.5903 126.359C97.7585 127.584 102.392 128.059 105.926 130.578C101.501 131.168 97.105 130.455 92.7389 129.953C91.6994 130.525 90.7588 131.23 89.8084 131.908C87.8382 130.252 85.363 129.424 82.6998 129.195C79.9672 129.055 79.4623 126.236 78.502 124.475C80.1751 124.254 81.8285 123.973 83.5017 123.752Z" fill="#536F33"/>
</svg>
