<svg width="280" height="273" viewBox="0 0 280 273" fill="none" xmlns="http://www.w3.org/2000/svg">
<path d="M88.1167 209.661C86.2368 209.661 84.6846 209.145 83.46 208.114C82.2354 207.083 81.3867 205.675 80.9141 203.892C80.8711 203.752 80.8496 203.624 80.8496 203.505C80.8496 203.355 80.9033 203.205 81.0107 203.054C81.1182 202.893 81.4028 202.737 81.8647 202.587C82.3267 202.437 82.7832 202.286 83.2344 202.136C83.5352 202.039 83.7876 201.991 83.9917 201.991C84.1206 201.991 84.2656 202.028 84.4268 202.104C84.5879 202.179 84.7222 202.426 84.8296 202.845C85.0767 203.779 85.4526 204.553 85.9575 205.165C86.4731 205.767 87.0264 206.067 87.6172 206.067C88.4121 206.067 88.9976 205.777 89.3735 205.197C89.7603 204.606 89.9536 203.86 89.9536 202.958C89.9536 202.055 89.5938 201.244 88.874 200.524C88.1865 199.858 87.3647 199.192 86.4087 198.526C84.8188 197.431 83.6533 196.448 82.9121 195.578C81.7949 194.267 81.2363 192.747 81.2363 191.018C81.2363 189.857 81.5425 188.864 82.1548 188.037C82.7671 187.209 83.5674 186.576 84.5557 186.135C85.5439 185.695 86.6021 185.475 87.73 185.475C89.5884 185.475 91.0547 185.931 92.1289 186.844C93.2139 187.757 94.0518 189.127 94.6426 190.953C94.6963 191.136 94.7231 191.302 94.7231 191.453C94.7231 191.517 94.707 191.619 94.6748 191.759C94.6533 191.888 94.4761 191.995 94.1431 192.081C92.5103 192.521 91.6294 192.742 91.5005 192.742C91.3608 192.742 91.2104 192.709 91.0493 192.645C90.8989 192.57 90.77 192.328 90.6626 191.92C90.3618 190.76 89.9912 189.868 89.5508 189.245C89.1104 188.611 88.5518 188.294 87.875 188.294C87.1875 188.294 86.645 188.525 86.2476 188.987C85.8501 189.438 85.6514 190.002 85.6514 190.679C85.6514 191.13 85.8018 191.555 86.1025 191.952C86.4033 192.35 86.8008 192.742 87.2949 193.128C87.7998 193.515 88.3584 193.913 88.9707 194.321C89.916 194.944 90.8613 195.653 91.8066 196.448C92.752 197.243 93.5415 198.199 94.1753 199.316C94.8091 200.433 95.126 201.776 95.126 203.344C95.126 204.558 94.8574 205.638 94.3203 206.583C93.7939 207.528 93.0151 208.28 91.9839 208.839C90.9526 209.387 89.6636 209.661 88.1167 209.661ZM104.214 209.645C101.711 209.645 99.8418 208.839 98.6064 207.228C97.5215 205.82 96.979 203.967 96.979 201.668C96.979 200.122 97.1455 198.666 97.4785 197.302C97.8223 195.938 98.3057 194.74 98.9287 193.708C99.5625 192.667 100.325 191.85 101.217 191.259C102.108 190.658 103.107 190.357 104.214 190.357C105.32 190.357 106.319 190.658 107.211 191.259C108.103 191.85 108.86 192.667 109.483 193.708C110.117 194.74 110.6 195.938 110.933 197.302C111.277 198.666 111.449 200.122 111.449 201.668C111.449 203.967 110.906 205.82 109.821 207.228C108.586 208.839 106.717 209.645 104.214 209.645ZM104.214 205.681C105.75 205.681 106.518 203.983 106.518 200.589C106.518 199.472 106.448 198.403 106.309 197.382C106.147 196.168 105.89 195.169 105.535 194.385C105.181 193.59 104.74 193.193 104.214 193.193C103.688 193.193 103.247 193.59 102.893 194.385C102.538 195.169 102.286 196.12 102.135 197.237C101.985 198.354 101.91 199.472 101.91 200.589C101.91 203.983 102.678 205.681 104.214 205.681ZM118.812 194.176C118.866 194.767 119.188 198.419 119.779 205.133C119.801 205.423 119.865 205.568 119.973 205.568C120.241 205.568 120.461 205.665 120.633 205.858C120.816 206.051 120.907 206.282 120.907 206.551V208.146C120.907 208.415 120.816 208.646 120.633 208.839C120.461 209.032 120.241 209.129 119.973 209.129H113.334C113.065 209.129 112.84 209.032 112.657 208.839C112.475 208.646 112.383 208.415 112.383 208.146V206.551C112.383 206.282 112.475 206.051 112.657 205.858C112.84 205.665 113.065 205.568 113.334 205.568C113.441 205.568 113.506 205.423 113.527 205.133C114.172 198.043 114.494 194.375 114.494 194.127C114.494 193.698 114.354 193.483 114.075 193.483C113.807 193.483 113.586 193.392 113.415 193.209C113.253 193.016 113.173 192.785 113.173 192.516V191.855C113.173 191.587 113.264 191.361 113.447 191.179C113.64 190.985 113.871 190.889 114.14 190.889H118.78C119.575 190.534 120.365 190.357 121.149 190.357C122.9 190.357 124.259 190.899 125.226 191.984C125.548 191.694 125.897 191.437 126.273 191.211C127.218 190.642 128.196 190.357 129.206 190.357C131.311 190.357 132.842 191.141 133.798 192.709C134.765 194.267 135.35 196.861 135.554 200.492L135.828 205.133C135.85 205.423 135.914 205.568 136.021 205.568C136.29 205.568 136.51 205.665 136.682 205.858C136.865 206.051 136.956 206.282 136.956 206.551V208.146C136.956 208.415 136.865 208.646 136.682 208.839C136.51 209.032 136.29 209.129 136.021 209.129H130.414C130.146 209.129 129.92 209.032 129.737 208.839C129.565 208.646 129.479 208.415 129.479 208.146V206.551C129.479 206.282 129.565 206.051 129.737 205.858C129.92 205.665 130.146 205.568 130.414 205.568C130.521 205.568 130.586 205.423 130.607 205.133C130.844 201.523 130.962 199.445 130.962 198.897C130.962 197.393 130.817 196.152 130.527 195.175C130.151 193.864 129.528 193.209 128.658 193.209C127.927 193.209 127.229 193.649 126.563 194.53C127.046 196.045 127.358 198.032 127.498 200.492L127.771 205.133C127.793 205.423 127.863 205.568 127.981 205.568C128.25 205.568 128.47 205.665 128.642 205.858C128.824 206.051 128.916 206.282 128.916 206.551V208.146C128.916 208.415 128.824 208.646 128.642 208.839C128.47 209.032 128.25 209.129 127.981 209.129H122.357C122.089 209.129 121.863 209.032 121.681 208.839C121.509 208.646 121.423 208.415 121.423 208.146V206.551C121.423 206.282 121.509 206.051 121.681 205.858C121.863 205.665 122.089 205.568 122.357 205.568C122.476 205.568 122.545 205.423 122.567 205.133C122.792 201.48 122.905 199.391 122.905 198.865C122.905 197.372 122.766 196.142 122.486 195.175C122.1 193.864 121.477 193.209 120.617 193.209C119.994 193.209 119.393 193.531 118.812 194.176ZM145.399 209.645C142.982 209.645 141.146 208.764 139.889 207.002C138.761 205.412 138.197 203.382 138.197 200.911C138.197 198.773 138.481 196.915 139.051 195.336C139.62 193.757 140.447 192.538 141.532 191.678C142.617 190.808 143.928 190.373 145.464 190.373C146.57 190.373 147.537 190.685 148.364 191.308C149.202 191.92 149.852 192.715 150.314 193.692C150.787 194.67 151.023 195.69 151.023 196.754C151.023 198.086 150.744 199.262 150.185 200.283C149.626 201.292 148.772 202.082 147.623 202.651C146.484 203.221 145.04 203.505 143.289 203.505C143.557 205.192 144.288 206.035 145.48 206.035C145.985 206.035 146.388 205.847 146.688 205.471C147 205.095 147.22 204.649 147.349 204.134C147.446 203.726 147.575 203.484 147.736 203.409C147.908 203.333 148.058 203.296 148.187 203.296C148.391 203.296 148.644 203.344 148.944 203.441C149.396 203.591 149.847 203.742 150.298 203.892C150.76 204.042 151.044 204.198 151.152 204.359C151.27 204.51 151.329 204.666 151.329 204.827C151.329 204.934 151.308 205.058 151.265 205.197C150.867 206.637 150.169 207.738 149.17 208.5C148.171 209.263 146.914 209.645 145.399 209.645ZM142.999 199.88C143.987 199.88 144.776 199.708 145.367 199.364C145.969 199.01 146.404 198.564 146.672 198.027C146.941 197.49 147.075 196.931 147.075 196.351C147.075 195.492 146.898 194.74 146.543 194.095C146.2 193.451 145.84 193.128 145.464 193.128C144.948 193.128 144.508 193.467 144.143 194.144C143.777 194.81 143.493 195.658 143.289 196.689C143.095 197.721 142.999 198.784 142.999 199.88ZM170.762 209.129H164.107C163.849 209.129 163.629 209.032 163.446 208.839C163.264 208.646 163.172 208.415 163.172 208.146V206.551C163.172 206.282 163.264 206.051 163.446 205.858C163.629 205.665 163.849 205.568 164.107 205.568C164.225 205.568 164.295 205.423 164.316 205.133C164.939 194.659 165.251 189.315 165.251 189.1C165.251 188.96 165.176 188.891 165.025 188.891C164.778 188.891 164.214 189.084 163.333 189.471C162.227 189.954 161.47 190.196 161.062 190.196C160.804 190.196 160.61 190.11 160.481 189.938C160.363 189.766 160.304 189.573 160.304 189.358V187.005C160.304 186.737 160.39 186.511 160.562 186.329C160.745 186.135 160.97 186.039 161.239 186.039H173.63C173.898 186.039 174.124 186.135 174.307 186.329C174.489 186.511 174.581 186.737 174.581 187.005V189.358C174.581 189.573 174.516 189.766 174.387 189.938C174.269 190.11 174.076 190.196 173.807 190.196C173.41 190.196 172.668 189.949 171.583 189.455C170.767 189.089 170.198 188.907 169.875 188.907C169.704 188.907 169.618 188.998 169.618 189.181C169.618 189.342 169.935 194.659 170.568 205.133C170.59 205.423 170.654 205.568 170.762 205.568C171.03 205.568 171.25 205.665 171.422 205.858C171.605 206.051 171.696 206.282 171.696 206.551V208.146C171.696 208.415 171.605 208.646 171.422 208.839C171.25 209.032 171.03 209.129 170.762 209.129ZM180.107 209.645C177.69 209.645 175.854 208.764 174.597 207.002C173.469 205.412 172.905 203.382 172.905 200.911C172.905 198.773 173.189 196.915 173.759 195.336C174.328 193.757 175.155 192.538 176.24 191.678C177.325 190.808 178.636 190.373 180.172 190.373C181.278 190.373 182.245 190.685 183.072 191.308C183.91 191.92 184.56 192.715 185.022 193.692C185.495 194.67 185.731 195.69 185.731 196.754C185.731 198.086 185.452 199.262 184.893 200.283C184.334 201.292 183.48 202.082 182.331 202.651C181.192 203.221 179.748 203.505 177.997 203.505C178.265 205.192 178.996 206.035 180.188 206.035C180.693 206.035 181.096 205.847 181.396 205.471C181.708 205.095 181.928 204.649 182.057 204.134C182.154 203.726 182.283 203.484 182.444 203.409C182.616 203.333 182.766 203.296 182.895 203.296C183.099 203.296 183.352 203.344 183.652 203.441C184.104 203.591 184.555 203.742 185.006 203.892C185.468 204.042 185.752 204.198 185.86 204.359C185.978 204.51 186.037 204.666 186.037 204.827C186.037 204.934 186.016 205.058 185.973 205.197C185.575 206.637 184.877 207.738 183.878 208.5C182.879 209.263 181.622 209.645 180.107 209.645ZM177.707 199.88C178.695 199.88 179.484 199.708 180.075 199.364C180.677 199.01 181.112 198.564 181.38 198.027C181.649 197.49 181.783 196.931 181.783 196.351C181.783 195.492 181.606 194.74 181.251 194.095C180.908 193.451 180.548 193.128 180.172 193.128C179.656 193.128 179.216 193.467 178.851 194.144C178.485 194.81 178.201 195.658 177.997 196.689C177.803 197.721 177.707 198.784 177.707 199.88ZM192.756 209.645C191.564 209.645 190.581 209.397 189.808 208.903C189.034 208.398 188.459 207.749 188.083 206.954C187.708 206.159 187.52 205.315 187.52 204.424C187.52 203.403 187.756 202.41 188.229 201.443C188.701 200.476 189.394 199.681 190.307 199.058C191.22 198.435 192.332 198.124 193.643 198.124C194.395 198.124 195.125 198.269 195.834 198.559C195.909 197.022 195.947 196.088 195.947 195.755C195.947 194.992 195.802 194.385 195.512 193.934C195.222 193.483 194.851 193.257 194.4 193.257C194.002 193.257 193.605 193.467 193.208 193.886C192.81 194.294 192.488 194.928 192.241 195.787C192.133 196.195 191.978 196.448 191.773 196.544C191.677 196.587 191.559 196.609 191.419 196.609C191.279 196.609 190.554 196.437 189.244 196.093C188.857 195.986 188.664 195.771 188.664 195.449C188.664 195.298 188.696 195.132 188.76 194.949C189.297 193.359 190.087 192.199 191.129 191.469C192.171 190.738 193.353 190.373 194.674 190.373C196.285 190.373 197.612 190.867 198.654 191.855C199.696 192.833 200.276 194.213 200.394 195.997L200.877 205.133C200.91 205.423 200.985 205.568 201.103 205.568C201.361 205.568 201.581 205.665 201.764 205.858C201.946 206.051 202.038 206.282 202.038 206.551V208.146C202.038 208.415 201.946 208.646 201.764 208.839C201.581 209.032 201.361 209.129 201.103 209.129H195.318C194.491 209.473 193.637 209.645 192.756 209.645ZM193.079 206.051C193.508 206.051 193.954 205.847 194.416 205.439C194.878 205.02 195.265 204.445 195.576 203.715L195.689 201.588C195.173 201.18 194.647 200.976 194.11 200.976C193.562 200.976 193.127 201.137 192.805 201.459C192.482 201.771 192.251 202.168 192.112 202.651C191.972 203.124 191.902 203.602 191.902 204.085C191.902 205.396 192.294 206.051 193.079 206.051Z" fill="black"/>
<path d="M37.4712 246.092H28.1108C27.8911 246.092 27.7065 246.018 27.5571 245.868C27.4077 245.71 27.333 245.521 27.333 245.301V243.983C27.333 243.561 27.5747 242.985 28.0581 242.256C28.5503 241.526 29.1392 240.713 29.8247 239.817C30.5103 238.912 31.187 237.971 31.855 236.996C32.5229 236.02 33.0854 235.044 33.5425 234.069C33.9995 233.093 34.228 232.175 34.228 231.313C34.228 229.802 33.7798 229.046 32.8833 229.046C32.5669 229.046 32.3032 229.129 32.0923 229.296C31.8813 229.455 31.71 229.657 31.5781 229.903C31.4463 230.149 31.3452 230.404 31.2749 230.667C31.187 231.001 31.0596 231.208 30.8926 231.287C30.8135 231.322 30.7168 231.34 30.6025 231.34C30.4883 231.34 29.7632 231.164 28.4272 230.812C28.1108 230.733 27.9526 230.562 27.9526 230.298C27.9526 230.167 27.979 230.026 28.0317 229.876C28.2778 229.156 28.6558 228.567 29.1655 228.11C29.6841 227.644 30.2817 227.301 30.9585 227.082C31.644 226.853 32.3472 226.739 33.0679 226.739C34.1841 226.739 35.0938 226.95 35.7969 227.372C36.5088 227.793 37.0317 228.365 37.3657 229.085C37.6997 229.797 37.8667 230.606 37.8667 231.511C37.8667 234.763 36.1616 238.657 32.7515 243.192C33.3667 243.192 34.2148 243.095 35.2959 242.902C36.333 242.708 37.0801 242.612 37.5371 242.612C37.7393 242.612 37.9062 242.695 38.0381 242.862C38.1699 243.021 38.2358 243.201 38.2358 243.403V245.301C38.2358 245.521 38.1611 245.71 38.0117 245.868C37.8711 246.018 37.6909 246.092 37.4712 246.092ZM45.5264 246.514C43.3818 246.514 41.8042 245.486 40.7935 243.429C40.0376 241.9 39.6597 240.054 39.6597 237.892C39.6597 236.257 39.875 234.636 40.3057 233.027C40.9648 230.54 41.9668 228.738 43.3115 227.622C43.9883 227.068 44.7266 226.792 45.5264 226.792C46.335 226.792 47.0732 227.073 47.7412 227.635C48.418 228.189 49.0112 228.936 49.521 229.876C50.0308 230.808 50.4395 231.858 50.7471 233.027C51.0635 234.196 51.248 235.198 51.3008 236.033C51.3623 236.859 51.3931 237.479 51.3931 237.892C51.3931 240.072 51.0239 241.917 50.2856 243.429C49.2661 245.486 47.6797 246.514 45.5264 246.514ZM45.5264 243.614C46.291 243.614 46.8184 242.656 47.1084 240.74C47.2578 239.764 47.3325 238.723 47.3325 237.615C47.3325 235.559 47.1787 233.691 46.8711 232.012C46.5195 230.105 46.0713 229.151 45.5264 229.151C44.999 229.151 44.5552 230.105 44.1948 232.012C43.8872 233.629 43.7334 235.409 43.7334 237.352C43.7334 238.617 43.8081 239.747 43.9575 240.74C44.2388 242.656 44.7617 243.614 45.5264 243.614ZM60.292 246.092H59.6328C59.4131 246.092 59.2812 246.057 59.2373 245.987C59.2021 245.908 59.1846 245.833 59.1846 245.763C59.1846 245.692 60.9775 239.716 64.5635 227.833C64.625 227.613 64.7129 227.455 64.8271 227.358C64.9502 227.253 65.1216 227.2 65.3413 227.2H66.0005C66.2202 227.2 66.3477 227.24 66.3828 227.319C66.4268 227.389 66.4487 227.459 66.4487 227.53C66.4487 227.609 64.6558 233.59 61.0698 245.473C60.9468 245.886 60.6875 246.092 60.292 246.092ZM73.0933 239.58H68.5449C68.3252 239.58 68.1406 239.5 67.9912 239.342C67.8506 239.184 67.7803 238.995 67.7803 238.775V237.998C67.7803 237.778 67.8506 237.593 67.9912 237.444C68.1406 237.286 68.3252 237.207 68.5449 237.207H73.0933C73.313 237.207 73.4932 237.286 73.6338 237.444C73.7832 237.593 73.8579 237.778 73.8579 237.998V238.775C73.8579 238.995 73.7832 239.184 73.6338 239.342C73.4932 239.5 73.313 239.58 73.0933 239.58ZM88.3994 248.109H87.9512C87.7402 248.109 87.5557 248.035 87.3975 247.885C87.2393 247.745 87.1602 247.564 87.1602 247.345V225.948C87.1602 225.728 87.2129 225.548 87.3184 225.407C87.4238 225.258 87.5864 225.183 87.8062 225.183H88.584C88.9971 225.183 89.2036 225.438 89.2036 225.948V247.345C89.2036 247.564 89.1245 247.745 88.9663 247.885C88.8081 248.035 88.6191 248.109 88.3994 248.109ZM108.953 246.092H103.508C103.288 246.092 103.104 246.018 102.954 245.868C102.813 245.71 102.743 245.521 102.743 245.301V243.983C102.743 243.772 102.813 243.587 102.954 243.429C103.104 243.271 103.288 243.192 103.508 243.192C103.596 243.192 103.648 243.073 103.666 242.836L104.352 231.617C104.229 231.731 104.097 231.85 103.956 231.973C103.815 232.087 103.653 232.144 103.468 232.144C103.451 232.144 103.385 232.14 103.271 232.131C103.156 232.122 103.024 232.039 102.875 231.88L102.348 231.287C102.207 231.129 102.137 230.953 102.137 230.76C102.137 230.742 102.137 230.681 102.137 230.575C102.146 230.47 102.229 230.342 102.387 230.193L105.512 227.398C105.644 227.275 105.793 227.213 105.96 227.213H107.041C107.261 227.213 107.441 227.288 107.582 227.438C107.731 227.587 107.814 227.776 107.832 228.004L108.781 242.836C108.799 243.073 108.856 243.192 108.953 243.192C109.172 243.192 109.353 243.271 109.493 243.429C109.643 243.587 109.717 243.772 109.717 243.983V245.301C109.717 245.521 109.643 245.71 109.493 245.868C109.353 246.018 109.172 246.092 108.953 246.092ZM116.283 243.587C116.933 243.587 117.412 243.354 117.72 242.889C118.036 242.414 118.194 241.821 118.194 241.109C118.194 240.599 118.076 240.151 117.838 239.764C117.583 239.342 117.232 238.942 116.784 238.564C116.388 238.248 115.848 237.848 115.162 237.365C114.151 238.666 113.646 239.949 113.646 241.214C113.646 241.917 113.879 242.489 114.345 242.928C114.819 243.368 115.465 243.587 116.283 243.587ZM118.313 234.623C118.893 233.638 119.183 232.654 119.183 231.669C119.183 229.947 118.401 229.085 116.836 229.085C116.467 229.085 116.116 229.16 115.782 229.31C115.457 229.45 115.188 229.666 114.978 229.956C114.775 230.246 114.674 230.597 114.674 231.01C114.674 231.836 115.584 232.83 117.403 233.99C117.711 234.192 118.014 234.403 118.313 234.623ZM116.691 246.541C115.566 246.541 114.564 246.352 113.686 245.974C112.815 245.587 112.13 245.046 111.629 244.352C111.137 243.649 110.891 242.818 110.891 241.86C110.891 240.103 111.818 238.217 113.672 236.205C113.567 236.125 113.466 236.038 113.369 235.941C111.831 234.623 111.062 233.071 111.062 231.287C111.062 230.329 111.312 229.512 111.813 228.835C112.314 228.158 112.969 227.64 113.778 227.279C114.586 226.919 115.452 226.739 116.375 226.739C119.829 226.739 121.556 228.264 121.556 231.313C121.556 232.315 121.284 233.331 120.739 234.359C120.475 234.86 120.159 235.334 119.79 235.783C120.422 236.336 120.976 236.974 121.451 237.694C122.101 238.679 122.426 239.905 122.426 241.373C122.426 242.357 122.207 243.24 121.767 244.022C121.336 244.796 120.699 245.411 119.855 245.868C119.012 246.316 117.957 246.541 116.691 246.541ZM129.743 246.514C127.599 246.514 126.021 245.486 125.01 243.429C124.254 241.9 123.876 240.054 123.876 237.892C123.876 236.257 124.092 234.636 124.522 233.027C125.182 230.54 126.184 228.738 127.528 227.622C128.205 227.068 128.943 226.792 129.743 226.792C130.552 226.792 131.29 227.073 131.958 227.635C132.635 228.189 133.228 228.936 133.738 229.876C134.248 230.808 134.656 231.858 134.964 233.027C135.28 234.196 135.465 235.198 135.518 236.033C135.579 236.859 135.61 237.479 135.61 237.892C135.61 240.072 135.241 241.917 134.502 243.429C133.483 245.486 131.896 246.514 129.743 246.514ZM129.743 243.614C130.508 243.614 131.035 242.656 131.325 240.74C131.475 239.764 131.549 238.723 131.549 237.615C131.549 235.559 131.396 233.691 131.088 232.012C130.736 230.105 130.288 229.151 129.743 229.151C129.216 229.151 128.772 230.105 128.412 232.012C128.104 233.629 127.95 235.409 127.95 237.352C127.95 238.617 128.025 239.747 128.174 240.74C128.456 242.656 128.979 243.614 129.743 243.614ZM148.714 233.871C148.758 234.354 149.022 237.343 149.505 242.836C149.523 243.073 149.576 243.192 149.664 243.192C149.883 243.192 150.063 243.271 150.204 243.429C150.354 243.587 150.428 243.776 150.428 243.996V245.301C150.428 245.521 150.354 245.71 150.204 245.868C150.063 246.026 149.883 246.105 149.664 246.105H144.232C144.012 246.105 143.828 246.026 143.678 245.868C143.529 245.71 143.454 245.521 143.454 245.301V243.996C143.454 243.776 143.529 243.587 143.678 243.429C143.828 243.271 144.012 243.192 144.232 243.192C144.32 243.192 144.373 243.073 144.39 242.836C144.917 237.035 145.181 234.034 145.181 233.832C145.181 233.48 145.067 233.304 144.838 233.304C144.619 233.304 144.438 233.229 144.298 233.08C144.166 232.922 144.1 232.733 144.1 232.513V231.973C144.1 231.753 144.175 231.568 144.324 231.419C144.482 231.261 144.671 231.182 144.891 231.182H148.688C149.338 230.892 149.984 230.747 150.626 230.747C152.059 230.747 153.17 231.19 153.961 232.078C154.225 231.841 154.511 231.63 154.818 231.445C155.592 230.979 156.392 230.747 157.218 230.747C158.94 230.747 160.193 231.388 160.975 232.671C161.766 233.946 162.245 236.068 162.412 239.039L162.636 242.836C162.654 243.073 162.707 243.192 162.794 243.192C163.014 243.192 163.194 243.271 163.335 243.429C163.484 243.587 163.559 243.776 163.559 243.996V245.301C163.559 245.521 163.484 245.71 163.335 245.868C163.194 246.026 163.014 246.105 162.794 246.105H158.207C157.987 246.105 157.802 246.026 157.653 245.868C157.512 245.71 157.442 245.521 157.442 245.301V243.996C157.442 243.776 157.512 243.587 157.653 243.429C157.802 243.271 157.987 243.192 158.207 243.192C158.294 243.192 158.347 243.073 158.365 242.836C158.558 239.883 158.655 238.182 158.655 237.734C158.655 236.503 158.536 235.488 158.299 234.688C157.991 233.616 157.481 233.08 156.77 233.08C156.172 233.08 155.601 233.44 155.056 234.161C155.451 235.4 155.706 237.026 155.82 239.039L156.044 242.836C156.062 243.073 156.119 243.192 156.216 243.192C156.436 243.192 156.616 243.271 156.756 243.429C156.906 243.587 156.98 243.776 156.98 243.996V245.301C156.98 245.521 156.906 245.71 156.756 245.868C156.616 246.026 156.436 246.105 156.216 246.105H151.615C151.395 246.105 151.21 246.026 151.061 245.868C150.92 245.71 150.85 245.521 150.85 245.301V243.996C150.85 243.776 150.92 243.587 151.061 243.429C151.21 243.271 151.395 243.192 151.615 243.192C151.711 243.192 151.769 243.073 151.786 242.836C151.971 239.848 152.063 238.138 152.063 237.708C152.063 236.486 151.949 235.479 151.72 234.688C151.404 233.616 150.894 233.08 150.191 233.08C149.681 233.08 149.189 233.344 148.714 233.871ZM170.995 246.105H165.55C165.33 246.105 165.146 246.026 164.996 245.868C164.855 245.71 164.785 245.521 164.785 245.301V243.996C164.785 243.776 164.855 243.587 164.996 243.429C165.146 243.271 165.33 243.192 165.55 243.192C165.646 243.192 165.704 243.073 165.721 242.836C166.24 234.363 166.499 230.03 166.499 229.837C166.499 229.503 166.389 229.336 166.169 229.336C165.95 229.336 165.77 229.261 165.629 229.112C165.488 228.954 165.418 228.765 165.418 228.545V228.004C165.418 227.785 165.497 227.6 165.655 227.451C165.813 227.292 166.002 227.213 166.222 227.213H169.096C169.307 227.213 169.487 227.292 169.637 227.451C169.786 227.6 169.87 227.785 169.887 228.004L170.836 242.836C170.854 243.073 170.907 243.192 170.995 243.192C171.214 243.192 171.395 243.271 171.535 243.429C171.685 243.587 171.759 243.776 171.759 243.996V245.301C171.759 245.521 171.685 245.71 171.535 245.868C171.395 246.026 171.214 246.105 170.995 246.105ZM186.301 248.109H185.853C185.642 248.109 185.457 248.035 185.299 247.885C185.141 247.745 185.062 247.564 185.062 247.345V225.948C185.062 225.728 185.114 225.548 185.22 225.407C185.325 225.258 185.488 225.183 185.708 225.183H186.485C186.898 225.183 187.105 225.438 187.105 225.948V247.345C187.105 247.564 187.026 247.745 186.868 247.885C186.709 248.035 186.521 248.109 186.301 248.109ZM206.854 246.092H201.409C201.189 246.092 201.005 246.018 200.855 245.868C200.715 245.71 200.645 245.521 200.645 245.301V243.983C200.645 243.772 200.715 243.587 200.855 243.429C201.005 243.271 201.189 243.192 201.409 243.192C201.497 243.192 201.55 243.073 201.567 242.836L202.253 231.617C202.13 231.731 201.998 231.85 201.857 231.973C201.717 232.087 201.554 232.144 201.37 232.144C201.352 232.144 201.286 232.14 201.172 232.131C201.058 232.122 200.926 232.039 200.776 231.88L200.249 231.287C200.108 231.129 200.038 230.953 200.038 230.76C200.038 230.742 200.038 230.681 200.038 230.575C200.047 230.47 200.13 230.342 200.289 230.193L203.413 227.398C203.545 227.275 203.694 227.213 203.861 227.213H204.942C205.162 227.213 205.342 227.288 205.483 227.438C205.632 227.587 205.716 227.776 205.733 228.004L206.683 242.836C206.7 243.073 206.757 243.192 206.854 243.192C207.074 243.192 207.254 243.271 207.395 243.429C207.544 243.587 207.619 243.772 207.619 243.983V245.301C207.619 245.521 207.544 245.71 207.395 245.868C207.254 246.018 207.074 246.092 206.854 246.092ZM220.829 246.541C218.948 246.541 217.502 245.789 216.491 244.286C215.595 242.977 215.146 241.342 215.146 239.382C215.146 237.729 215.388 236.253 215.872 234.952C216.364 233.651 217.062 232.627 217.968 231.88C218.882 231.133 219.967 230.76 221.224 230.76C222.296 230.76 223.21 231.05 223.966 231.63C224.731 232.21 225.289 232.948 225.641 233.845C225.702 233.994 225.733 234.135 225.733 234.267C225.733 234.513 225.57 234.68 225.245 234.768C223.883 235.128 223.153 235.308 223.057 235.308C222.951 235.308 222.859 235.291 222.78 235.255C222.613 235.176 222.485 234.97 222.397 234.636C222.266 234.1 222.116 233.695 221.949 233.423C221.782 233.15 221.541 233.014 221.224 233.014C220.793 233.014 220.416 233.322 220.09 233.937C219.765 234.552 219.515 235.312 219.339 236.218C219.163 237.123 219.075 238.046 219.075 238.986C219.075 239.865 219.146 240.643 219.286 241.32C219.603 242.84 220.209 243.601 221.105 243.601C221.87 243.601 222.38 243.082 222.635 242.045C222.723 241.711 222.833 241.513 222.964 241.452C223.105 241.39 223.228 241.359 223.333 241.359C223.5 241.359 223.703 241.399 223.94 241.478C224.309 241.601 224.683 241.724 225.061 241.847C225.438 241.961 225.671 242.084 225.759 242.216C225.847 242.348 225.891 242.48 225.891 242.612C225.891 242.7 225.874 242.801 225.838 242.915C225.17 245.332 223.5 246.541 220.829 246.541ZM231.389 246.554C230.334 246.554 229.473 246.29 228.805 245.763C228.146 245.227 227.658 244.523 227.341 243.653C227.034 242.783 226.88 241.847 226.88 240.845C226.88 239.852 226.977 238.736 227.17 237.497C227.372 236.257 227.618 235.11 227.908 234.056C227.943 233.941 227.961 233.84 227.961 233.752C227.961 233.656 227.943 233.572 227.908 233.502C227.838 233.37 227.737 233.304 227.605 233.304C227.376 233.304 227.192 233.229 227.051 233.08C226.919 232.922 226.854 232.733 226.854 232.513V231.973C226.854 231.753 226.928 231.568 227.078 231.419C227.236 231.261 227.425 231.182 227.645 231.182H231.586C231.806 231.182 231.995 231.261 232.153 231.419C232.312 231.568 232.391 231.753 232.391 231.973V232.513C232.391 232.733 232.32 232.922 232.18 233.08C232.039 233.229 231.854 233.304 231.626 233.304C231.521 233.304 231.455 233.344 231.428 233.423C231.384 233.546 231.283 234.144 231.125 235.216C230.976 236.279 230.901 237.8 230.901 239.777C230.901 240.683 230.962 241.403 231.085 241.939C231.208 242.476 231.362 242.862 231.547 243.1C231.74 243.337 231.938 243.456 232.14 243.456C232.483 243.456 232.76 243.284 232.971 242.941C233.182 242.599 233.313 242.172 233.366 241.663C233.946 236.547 234.236 233.928 234.236 233.805C234.236 233.471 234.122 233.304 233.894 233.304C233.674 233.304 233.494 233.229 233.353 233.08C233.221 232.922 233.155 232.733 233.155 232.513V231.973C233.155 231.753 233.23 231.568 233.379 231.419C233.538 231.261 233.727 231.182 233.946 231.182H237.756C237.976 231.182 238.161 231.261 238.31 231.419C238.468 231.568 238.547 231.753 238.547 231.973V232.513C238.547 232.733 238.477 232.922 238.336 233.08C238.205 233.229 238.024 233.304 237.796 233.304C237.576 233.304 237.466 233.471 237.466 233.805C237.466 233.972 237.73 236.982 238.257 242.836C238.275 243.073 238.328 243.192 238.416 243.192C238.635 243.192 238.815 243.271 238.956 243.429C239.105 243.587 239.18 243.776 239.18 243.996V245.301C239.18 245.521 239.105 245.71 238.956 245.868C238.815 246.026 238.635 246.105 238.416 246.105H233.458C232.729 246.404 232.039 246.554 231.389 246.554ZM245.363 246.119L245.469 247.912C245.486 248.158 245.543 248.281 245.64 248.281C245.86 248.281 246.04 248.355 246.181 248.505C246.33 248.663 246.405 248.852 246.405 249.072V250.39C246.405 250.601 246.33 250.786 246.181 250.944C246.04 251.102 245.86 251.181 245.64 251.181H240.617C240.397 251.181 240.213 251.102 240.063 250.944C239.923 250.786 239.853 250.601 239.853 250.39V249.072C239.853 248.852 239.923 248.663 240.063 248.505C240.213 248.355 240.397 248.281 240.617 248.281C240.731 248.281 240.793 248.158 240.802 247.912C241.312 238.789 241.566 234.082 241.566 233.792C241.566 233.467 241.457 233.304 241.237 233.304C241.017 233.304 240.837 233.229 240.696 233.08C240.556 232.922 240.485 232.733 240.485 232.513V231.973C240.485 231.753 240.564 231.568 240.723 231.419C240.881 231.261 241.07 231.182 241.29 231.182H243.742C243.961 231.182 244.146 231.256 244.295 231.406C244.357 231.476 244.41 231.551 244.454 231.63L244.744 231.445C245.491 230.979 246.291 230.747 247.143 230.747C247.952 230.747 248.672 231.006 249.305 231.524C249.938 232.034 250.474 232.72 250.914 233.581C251.362 234.442 251.7 235.418 251.929 236.508C252.166 237.589 252.285 238.701 252.285 239.843C252.285 241.733 251.894 243.293 251.111 244.523C250.25 245.877 249.028 246.554 247.446 246.554C246.849 246.554 246.207 246.426 245.521 246.171L245.363 246.119ZM244.691 234.609L245.1 241.663C245.302 242.172 245.574 242.599 245.917 242.941C246.26 243.284 246.603 243.456 246.945 243.456C247.675 243.456 248.136 242.757 248.33 241.359C248.417 240.656 248.461 239.848 248.461 238.934C248.461 238.072 248.4 237.198 248.277 236.31C248.163 235.422 247.969 234.662 247.697 234.029C247.433 233.396 247.104 233.08 246.708 233.08C245.996 233.08 245.324 233.59 244.691 234.609Z" fill="black"/>
<path d="M178.387 36.9217C186.436 36.489 194.59 36.1073 202.362 34.0796C207.159 42.7332 210.268 52.0486 212.643 61.4319C212.004 62.1445 211.374 62.8572 210.736 63.5783C208.771 63.5953 206.797 63.6207 204.832 63.5953C195.124 62.3566 185.291 62.7638 175.516 62.6366C160.257 62.4669 144.979 62.6705 129.73 62.2378C121.28 62.1275 112.344 61.9663 104.638 65.5126C101.787 66.904 98.821 69.4237 99.3646 72.5882C99.6698 80.8516 101.463 88.9792 102.369 97.1832C103.589 106.872 107.004 116.739 114.509 124.077C112.916 124.926 111.286 125.732 109.655 126.529C100.385 114.737 98.8115 99.9659 97.0948 86.0692C94.7297 68.0748 101.587 49.9615 112.726 35.0892C122.587 37.4986 132.906 37.5495 143.053 37.6513C154.831 37.7022 166.618 37.4138 178.387 36.9217Z" fill="white"/>
<path d="M63.5349 39.9588C64.9559 38.822 67.0063 39.5856 68.5227 40.154C77.3061 44.3281 84.163 51.0983 89.4369 58.5133C91.1058 60.8379 94.129 61.839 96.8661 62.8486C92.8034 78.0942 96.0936 93.8235 98.9832 108.993C92.0404 108.492 86.7761 103.597 82.9423 98.829C77.554 91.9146 74.3306 83.5494 74.4164 75.0994C74.3401 69.1097 73.1194 62.8061 68.8946 57.9618C65.9477 54.6191 62.0758 51.6073 57.3646 50.5723C54.3128 49.7069 51.5471 51.8024 48.5049 51.5819C51.4899 49.5966 54.8659 48.061 57.5267 45.7025C59.7011 43.9378 61.351 41.715 63.5349 39.9588Z" fill="white"/>
<path d="M150.635 6.37938C152.142 4.01235 153.658 1.36536 156.49 0.0673159C159.447 -0.501109 161.039 2.65492 160.982 4.84378C163.052 3.76632 166.514 3.8257 167.105 6.37088C167.935 10.528 164.988 14.1931 162.136 17.1879C175.039 18.2739 189.144 18.8338 199.768 26.3082C202.076 28.0559 206.015 30.372 204.079 33.4856C206.13 37.8718 208.352 42.1986 209.973 46.746C215.113 42.8094 220.997 39.7468 227.053 37.0913C236.495 33.0105 248.473 33.5874 257.104 39.0171C264.151 43.3694 268.338 51.3952 266.612 58.9884C265.21 64.7065 261.453 69.6696 257.79 74.4207C248.902 85.6534 234.454 92.4406 226.576 104.386C224.383 107.389 223.582 111.046 221.14 113.913C219.433 115.89 216.563 116.425 214.016 117.069C211.585 123.924 207.732 130.695 201.294 135.251C197.279 138.008 192.463 139.662 187.657 141.003C187.542 142.666 188.258 144.727 186.674 146.017C184.996 146.594 183.155 146.543 181.391 146.661C171.559 146.916 161.717 146.797 151.884 146.526C144.655 154.314 133.802 158.471 123.035 160.898C118.171 161.992 112.192 161.907 108.644 158.293C105.745 155.892 105.43 152.227 104.648 148.995C102.216 152.821 101.53 157.199 100.433 161.424C99.2123 160.982 97.5433 161.016 96.8281 159.871C96.3131 157.3 97.7341 154.891 98.9643 152.677C97.1809 152.617 95.2259 153.058 93.6047 152.185C90.2 150.683 88.8458 147.298 86.7095 144.719C85.0883 142.335 82.6755 140.511 80.0528 139.051C79.5378 141.783 79.3567 144.659 77.9833 147.204C75.9139 151.166 72.1945 154.17 69.5719 157.826C71.5555 158.174 72.7858 159.353 73.3675 161.025C75.6373 161.627 79.7763 161.11 79.328 164.249C78.3839 164.63 77.4207 164.97 76.4384 165.284C75.9234 164.478 75.3798 163.697 74.7981 162.942C73.0814 162.034 71.0978 162.891 69.3716 163.358C71.155 164.495 73.9779 165.25 74.1591 167.566C74.264 169.56 71.6509 170.086 70.0678 170.798C70.9261 172.156 72.1945 173.547 71.5269 175.218C70.6114 175.371 69.6863 175.448 68.7517 175.524C68.5419 173.988 69.5242 171.978 67.8839 170.866C67.0256 170.196 66.0623 169.661 65.1087 169.118C65.8716 171.74 67.8266 174.65 66.2531 177.322C65.08 177.984 63.4492 178.408 62.4288 177.297C60.2258 175.431 60.922 172.402 60.4642 169.975C58.0323 171.613 57.8702 174.243 59.377 176.491C57.956 176.78 56.5255 177.034 55.095 177.255C55.486 175.694 56.0296 174.175 56.6018 172.665C55.2285 173.064 53.8552 173.488 52.4438 173.768C50.2884 172.834 49.8784 169.958 51.3852 168.397C52.4342 167.388 53.7503 166.658 54.9901 165.861C52.5296 165.479 50.05 164.86 48.2571 163.231C48.5337 162.569 49.0773 161.245 49.3443 160.584C50.298 160.185 51.2612 159.812 52.1958 159.387C52.3961 159.107 52.7966 158.548 52.9969 158.268C54.4846 159.506 56.2013 160.49 58.0228 161.305C58.0514 159.489 58.6618 157.58 57.9846 155.824C56.1917 153.364 52.8634 152.397 50.031 151.192C50.0119 151.031 49.9737 150.7 49.9451 150.539C50.1835 150.335 50.6508 149.945 50.8893 149.75C55.5623 148.978 61.2176 147.527 62.5432 142.861C58.0133 142.419 54.9043 145.525 52.3293 148.333C52.0528 147.815 51.4901 146.772 51.2135 146.254C49.2394 147.103 47.3797 148.18 45.9206 149.673C44.8143 150.361 43.689 151.031 42.5732 151.709C39.3593 152.168 36.8988 154.144 34.6481 156.079C34.2952 156.113 33.6086 156.189 33.2557 156.223C33.9519 154.823 34.8579 153.516 35.8497 152.278C33.8374 151.777 31.663 151.523 29.8797 150.496C28.5064 148.961 30.5568 147.671 32.1971 147.654C32.9505 151.642 38.4914 150.886 41.5432 149.546C36.2312 147.73 30.6808 144.863 28.2584 140.12C25.2352 140.171 22.2121 140.12 19.1889 140.265C18.5213 139.467 17.8251 138.695 17.2339 137.881C18.2257 136.778 19.5322 135.87 21.163 135.743C22.5554 136.158 22.4982 137.711 23.1562 138.67C25.3878 138.636 27.6099 138.508 29.8224 138.288C30.2707 138.61 31.1576 139.238 31.5963 139.552C30.223 140.086 30.0036 140.858 30.9478 141.868C33.1699 142.326 34.9723 141.02 36.2503 139.569C36.6889 139.942 37.1372 140.307 37.5949 140.68C38.644 141.3 39.7217 141.893 40.8184 142.47C40.723 141.206 40.6181 139.942 40.4941 138.687C41.0473 138.661 42.1726 138.61 42.7257 138.585C42.5541 141.384 42.4587 144.49 44.347 146.899C46.1113 147.501 48.2285 146.551 49.411 145.372C49.6972 143.59 49.4778 141.792 49.3729 140.019C49.5636 139.56 49.9356 138.661 50.1263 138.211C50.5936 139.408 51.1086 140.604 51.6522 141.792C52.0814 140.01 51.9383 138.211 50.832 136.642C50.9942 136.294 51.328 135.607 51.4901 135.259C55.4479 137.923 53.7026 142.326 52.3102 145.754C55.0187 143.692 58.0514 140.409 62.0378 141.418C64.3839 142.097 63.7449 144.625 63.7735 146.288C68.7613 143.972 72.9098 140.57 77.3635 137.567C72.9479 132.909 67.4452 128.039 60.2163 127.581C57.2217 127.148 54.3034 127.954 51.5187 128.803C51.204 128.285 50.5936 127.259 50.2885 126.741C52.5105 125.273 54.9329 123.848 56.3539 121.676C57.3362 120.175 56.2776 118.537 55.3716 117.256C49.2394 117.918 47.2843 123.551 45.0813 127.81C44.4901 128.531 43.8606 129.252 43.2407 129.974C42.535 129.371 41.8198 128.777 41.114 128.183C40.6563 128.404 39.7312 128.845 39.2734 129.066C34.8483 127.301 29.4314 125.961 25.1494 128.803C29.3456 130.584 34.0949 129.991 38.5868 129.965L37.6236 131.289C33.8756 131.976 30.0418 131.619 26.2461 131.747C29.2121 132.773 32.4451 132.926 35.5731 132.485C35.1726 132.705 34.381 133.13 33.99 133.35C32.1399 133.749 30.2611 134.029 28.3729 134.19C26.6753 133.8 25.3688 132.638 24.5772 131.289C23.1371 128.854 20.4954 127.293 18.7025 125.112C19.1889 123.738 21.0295 122.559 22.4886 123.712C22.8033 125.273 22.9845 126.877 23.6903 128.37C25.5404 126.733 27.8197 125.545 30.49 125.536C28.163 123.687 26.2175 121.498 24.911 118.97C26.4559 117.477 28.3061 117.358 29.7366 119.012C29.3647 119.869 29.0118 120.735 28.6494 121.6C31.3388 123.78 34.3334 126.113 38.1958 126.105C35.9355 122.856 32.7312 119.81 32.2257 115.882C31.7489 113.379 35.5064 110.707 37.881 112.624C41.7625 115.322 42.4683 119.996 42.8879 124.069C44.2421 122.245 46.798 120.768 46.5786 118.334C47.0078 116.255 44.9764 114.898 43.9369 113.294C44.5759 111.521 46.9887 110.494 48.8389 111.58C49.8784 112.844 48.6195 114.159 48.0759 115.322C48.1903 116.493 48.2857 117.68 48.3429 118.868C50.7462 117.477 53.7694 114.278 56.7353 116.348C58.328 117.952 59.3198 120.497 58.0705 122.508C57.0214 123.831 55.61 124.875 54.3034 125.995C64.0024 124.586 73.0051 129.668 78.6032 136.345C79.3376 135.2 80.0528 134.046 80.749 132.892C78.0978 132.264 75.2177 131.569 73.6823 129.354C73.6727 126.079 77.8212 128.319 79.9002 128.548C80.7204 129.125 81.5406 129.711 82.3894 130.287C83.858 126.724 83.4384 122.974 82.6087 119.352C82.685 118.639 82.8471 117.214 82.9234 116.51C85.6414 120.955 85.6891 126.275 83.982 131.026C87.1196 132.375 89.8757 134.283 92.3458 136.464C92.5365 133.223 93.0801 130.016 93.8907 126.86C93.2899 125.358 91.764 123.729 92.8417 122.126C93.5284 121.057 94.5393 120.192 95.4643 119.318C94.6728 122.007 94.7491 124.807 96.0175 127.394C92.3363 135.013 95.4166 143.794 100.347 150.386C101.701 149.003 103.046 147.62 104.419 146.263C102.607 143.421 100.586 140.349 101.196 136.939C101.473 132.867 104.829 129.889 107.662 126.996C104.314 121.753 101.091 116.374 99.6796 110.427C94.1006 110.63 89.4943 107.584 85.6128 104.394C84.4493 105.404 83.2572 106.388 82.0746 107.398C82.1128 106.889 82.1986 105.871 82.2368 105.37C82.6278 104.988 83.4098 104.233 83.8008 103.86C83.6101 103.156 83.219 101.756 83.0283 101.06C81.7027 101.96 80.3866 102.867 79.0801 103.792C78.4697 105.116 77.8308 106.431 77.1823 107.746C76.7722 106.872 76.3716 105.998 75.9806 105.124C76.5242 103.902 77.106 102.681 77.4874 101.417C77.1155 100.127 75.7517 99.4483 74.7408 98.6169C74.7694 99.9913 74.8457 101.374 74.9411 102.757L74.0542 104.903C73.2817 102.587 72.6523 99.881 69.9534 98.7356C70.2013 100.975 71.155 103.071 72.328 105.048L70.249 104.411C69.61 103.741 68.9806 103.062 68.2844 102.443C67.5024 102.825 66.7585 103.241 66.0242 103.699C67.8266 104.861 69.7531 105.854 71.7177 106.795C72.4425 107.661 73.1577 108.518 73.8634 109.408C70.8593 107.949 67.3403 107.143 64.1931 108.747C63.9452 108.501 63.4492 108.009 63.2108 107.754C64.2503 107.118 65.2994 106.49 66.3675 105.888C65.6427 105.09 64.9179 104.301 64.2027 103.504C56.001 103.283 49.1917 98.5914 41.1999 97.5988C35.4968 96.8437 29.5649 96.7674 23.9954 98.2266C19.5513 99.2532 15.069 100.95 10.3864 100.348C6.36189 99.8725 2.60438 96.7419 3.03354 92.9411C3.58668 87.3163 9.01312 83.1422 14.7352 81.4708C21.8687 79.4092 29.6508 78.6966 37.0704 79.7655C30.6331 75.9308 24.9205 71.1204 20.1617 65.6907C15.0308 60.2779 18.3783 51.251 25.1208 48.2561C30.1944 46.6272 34.505 50.4789 37.1372 53.864C44.738 63.7733 57.7653 69.0079 65.3089 78.9596C67.2831 81.369 68.3226 84.2196 69.8294 86.8411C71.4316 88.1053 73.5773 88.6567 75.4084 89.6069C74.1019 86.0012 72.8144 82.3447 72.6809 78.5269C72.3948 72.6645 72.5855 66.4203 69.1427 61.1772C66.4438 57.1558 62.4383 53.4483 57.2599 52.1164C54.58 51.3613 52.1767 53.2362 49.535 53.3126C48.2666 52.7017 47.2081 51.8024 46.1113 51.005C50.4601 48.3325 55.3716 46.22 58.7094 42.4447C60.8552 40.4255 62.8675 36.8113 66.6822 38.0075C74.1209 40.1879 80.0433 45.2528 85.0501 50.4535C89.0365 54.2204 91.0774 60.0234 97.3717 61.3554C100.137 52.4642 104.343 43.9378 109.865 36.1241C111.41 34.5546 110.113 32.6202 109.722 30.9234C110.685 31.5003 111.629 32.1197 112.554 32.7645L113.069 33.2056C121.691 36.1496 131.113 35.7678 140.182 36.1241C156.08 36.0902 172.016 35.9968 187.867 34.7243C193.15 34.2322 198.614 33.9437 203.497 31.8821C199.482 26.7663 192.873 23.8648 186.436 21.8541C178.244 19.8858 169.737 19.2495 161.306 18.6217C159.723 19.9452 158.531 21.9559 156.328 22.4989C153.906 22.1086 152.666 19.8688 151.045 18.4351C139.811 18.5878 128.338 20.2252 118.4 25.1289C116.216 26.2488 113.975 27.4535 112.44 29.286C112.211 29.829 111.753 30.9319 111.524 31.4749C110.962 30.9913 110.409 30.5162 109.846 30.0411C111.4 27.8607 113.403 25.9009 115.949 24.6199C126.192 19.3344 138.084 17.0946 149.853 16.9165C148.088 13.8453 145.142 10.8674 145.37 7.24473C146.191 5.32736 148.918 5.93821 150.635 6.37938ZM151.779 8.78881C150.301 8.15252 148.823 7.48229 147.249 7.06657C147.202 7.50774 147.106 8.38159 147.058 8.82276C149.204 13.3023 152.103 17.8497 156.366 20.9718C157.797 19.8943 158.96 18.5793 160.2 17.3407C159.428 16.8655 158.655 16.3904 157.883 15.9153C159.218 13.4635 159.466 9.54389 163.09 8.92456C162.193 10.8589 161.078 12.7169 159.962 14.5579C160.296 15.2027 160.648 15.839 161.001 16.4753C162.832 13.2514 167.229 9.5354 164.74 5.73459C162.356 5.32736 161.116 7.85558 159.142 8.62762C159.208 6.06546 159.723 3.25728 157.549 1.20416C154.64 3.0367 152.418 5.61582 151.779 8.78881ZM178.387 36.9216C166.618 37.4137 154.831 37.7021 143.053 37.6512C132.906 37.5494 122.587 37.4985 112.726 35.0891C101.587 49.9614 94.73 68.0747 97.0951 86.0691C98.8117 99.9658 100.385 114.736 109.655 126.529C111.286 125.732 112.917 124.926 114.509 124.077C107.004 116.739 103.59 106.872 102.369 97.1831C101.463 88.9791 99.6701 80.8515 99.3649 72.5881C98.8213 69.4236 101.787 66.9039 104.639 65.5125C112.344 61.9662 121.28 62.1274 129.73 62.2377C144.979 62.6704 160.257 62.4668 175.516 62.6364C185.292 62.7637 195.124 62.3565 204.832 63.5951C206.597 64.4859 209 64.8592 210.078 66.5051C213.683 79.8164 214.76 94.0271 210.631 107.372C208.762 113.964 205.958 120.531 201.027 125.816C197.823 129.049 192.969 131.781 187.943 130.593C178.301 128.591 168.755 125.867 158.77 125.579C159.628 131.306 158.207 137.066 155.46 142.258C168.612 141.936 182.259 141.91 194.58 137.287C203.869 133.554 209.658 125.24 212.147 116.73C217.602 98.7187 216.715 79.5874 212.643 61.4317C210.268 52.0485 207.159 42.7331 202.362 34.0795C194.59 36.1071 186.436 36.4889 178.387 36.9216ZM227.931 38.4572C221.789 41.1211 215.771 44.1584 210.659 48.2392C211.232 50.4196 211.918 52.566 212.615 54.7209C218.527 49.6475 226.662 46.992 234.692 46.0164C240.662 45.3037 248.292 47.2296 249.875 53.092C251.153 59.5992 247.844 66.1743 243.895 71.5276C237.343 78.9596 228.026 83.9905 221.055 91.0916C218.146 94.1713 217.412 98.3114 216.963 102.189C216.515 106.6 215.533 110.953 214.674 115.322C220.645 115.042 221.922 109.332 223.992 105.429C231.707 92.1776 247.395 84.8898 256.932 72.8935C260.251 68.6516 263.474 64.1551 264.857 59.0817C266.66 51.6582 262.406 43.7172 255.282 39.7213C247.233 35.1569 236.485 34.7836 227.931 38.4572ZM63.5351 39.9588C61.3512 41.715 59.7013 43.9378 57.5269 45.7025C54.8661 48.061 51.4901 49.5966 48.5051 51.5819C51.5473 51.8024 54.313 49.7069 57.3648 50.5723C62.0759 51.6073 65.9479 54.6191 68.8948 57.9618C73.1196 62.8061 74.3403 69.1097 74.4166 75.0994C74.3307 83.5494 77.5542 91.9146 82.9425 98.829C86.7763 103.597 92.0406 108.492 98.9834 108.993C96.0938 93.8235 92.8036 78.0942 96.8662 62.8485C94.1292 61.839 91.106 60.8379 89.437 58.5133C84.1632 51.0983 77.3062 44.3281 68.5228 40.154C67.0065 39.5856 64.9561 38.822 63.5351 39.9588ZM213.253 56.3329C216.267 68.3886 217.955 80.7327 217.631 93.0938C224.707 82.438 239.518 77.6446 245.402 66.1912C247.386 61.7117 249.932 56.4516 247.386 51.76C244.715 47.5774 238.574 47.1702 233.767 47.7217C226.252 48.8161 218.68 51.4037 213.253 56.3329ZM20.1807 54.9839H19.9614C19.5894 57.843 18.6262 61.033 20.505 63.6545C25.9219 70.1278 32.8742 75.4896 40.4465 79.8928C42.6781 81.1399 45.1099 82.2429 47.7421 82.5822C50.1835 82.3956 52.3102 81.1484 54.4274 80.1812C50.8225 77.144 46.4928 80.4103 42.3824 80.2406C44.0132 78.4845 46.6263 78.1706 48.9151 77.5088C47.971 76.7877 47.0269 76.0665 46.0732 75.3624C43.3647 75.5745 39.9982 77.4494 37.6712 75.4812C39.5786 75.1333 41.5146 74.9127 43.4124 74.4885C44.0991 73.3602 42.3729 72.7239 41.5432 72.2148C37.5282 72.3421 33.4941 72.5627 29.4982 72.0282L29.4219 70.8234C32.7598 71.0101 36.1167 71.1119 39.4642 70.9592C38.1672 69.6781 36.8225 68.4395 35.4396 67.2432C31.5963 67.2093 26.9805 67.2347 24.5772 64.0702C27.5145 64.7999 30.4519 65.5973 33.5227 65.7925C31.3865 63.3915 29.2025 61.0245 27.4001 58.4199C28.0867 58.4114 29.4791 58.3945 30.1658 58.386C30.2135 58.6744 30.2897 59.2514 30.3374 59.5398C30.9573 60.2016 31.5868 60.8718 32.2257 61.542C32.2734 59.0477 31.8252 56.6044 30.7189 54.3137C34.896 55.5014 33.7802 60.4476 33.8279 63.4763C39.3783 68.9909 45.8157 74.0389 53.159 77.5512C57.5078 80.8854 62.6195 83.3118 67.4452 86.0437C66.3389 83.8718 65.1563 81.7338 63.8498 79.6637L63.6304 79.6298C56.4301 70.2805 44.347 65.1138 36.832 56.0105C34.4192 53.3211 32.0541 49.5542 27.6671 49.4948C24.0813 49.6475 21.7829 52.4472 20.1807 54.9839ZM100.471 71.9348C106.661 74.5224 113.317 76.3295 120.127 76.9489C136.616 79.2989 153.286 76.2617 169.823 77.916C181.515 78.985 194.199 79.2226 204.699 73.8353C206.702 72.5457 210.125 71.0186 208.943 68.3377C208.762 66.4627 206.406 65.8519 204.747 65.3513C199.864 64.2993 194.809 64.3417 189.822 64.2399C165.875 64.1127 141.928 63.6206 117.981 63.9769C111.62 64.8762 102.846 65.5464 100.471 71.9348ZM199.997 77.3476C190.337 80.5121 179.827 80.1897 169.747 79.3159C159.857 78.3911 149.91 79.0698 139.992 79.231C126.898 79.511 113.374 78.756 101.291 73.8522C101.949 82.8367 103.418 91.7619 104.667 100.695C106.651 109.027 109.55 117.943 117.065 123.712C126.831 121.006 136.959 123.415 146.83 124.171C150.425 124.518 153.744 123.068 156.776 121.515C157.101 122.1 157.749 123.263 158.073 123.848C164.883 124.68 171.768 125.324 178.396 127.055C183.441 127.946 188.505 130.27 193.722 128.955C201.208 125.664 204.899 118.52 207.407 111.835C212.405 99.1004 212.567 85.1953 209.734 72.0451C206.969 74.4122 203.64 76.2447 199.997 77.3476ZM17.415 82.2938C11.8074 83.507 6.27605 86.926 4.7597 92.1012C3.87278 94.8585 5.90412 97.6836 8.90821 98.4981C13.3905 99.6349 17.9777 98.2012 22.2502 96.9964C23.4995 93.4247 27.8579 91.7873 29.6508 88.4361C28.0677 88.5379 26.4941 88.6567 24.9205 88.784C21.802 91.5667 18.9982 95.2572 14.3061 95.9444C16.5091 93.4841 19.7039 91.9485 21.9546 89.5221C17.024 89.7342 12.9995 92.7375 8.14527 93.1193C10.4627 90.9983 13.6957 90.0905 16.6235 88.8603C14.2965 88.4277 11.0921 89.293 9.69977 87.0787C14.1916 86.4254 18.5213 88.7585 22.9464 87.6217C33.5037 85.7552 44.7571 86.926 54.4656 91.0916C60.5596 93.6368 66.8348 96.3941 73.7585 96.2244C69.3811 93.2889 64.3076 91.3801 59.4247 89.2251C53.6645 86.8751 47.9805 84.3469 41.9914 82.4719C34.0854 80.0455 25.445 80.6564 17.415 82.2938ZM55.095 81.6744C53.5214 82.2938 51.3184 82.5483 50.5173 84.0754C53.3593 85.9249 56.7925 84.805 59.1195 82.8707C57.813 82.5398 56.5732 80.9618 55.095 81.6744ZM60.4261 83.8972C59.2149 84.6777 57.9942 85.4668 56.783 86.2642C60.0351 87.8338 63.7163 88.5804 67.4166 88.1986C65.2517 86.5612 62.858 85.1953 60.4261 83.8972ZM22.7366 96.8692C27.9342 95.7493 33.3034 95.1978 38.644 95.7408C38.787 95.2827 39.0636 94.3749 39.2067 93.9168C40.9424 92.5763 43.7462 91.6855 44.1467 89.4542C42.5827 88.9367 40.9233 88.7585 39.2925 88.5549C37.2707 91.1171 34.9246 93.6877 31.4342 94.6888C33.2462 92.4575 35.5255 90.5656 37.347 88.3428C35.4778 88.3852 33.5132 87.9865 31.6917 88.521C29.1644 91.6685 26.351 94.6549 22.7366 96.8692ZM65.5855 90.2178C70.5828 92.237 74.9506 95.1978 79.6618 97.6412C78.546 95.5372 77.6496 93.2889 76.076 91.4225C74.1591 90.4299 72.0705 89.7681 70.0678 88.9282C68.58 89.3609 67.0828 89.7766 65.5855 90.2178ZM38.9682 95.7408C42.8593 96.1056 46.5595 97.3273 50.4124 97.8363C50.7748 97.5394 51.5092 96.9371 51.8716 96.6401C53.7598 95.8257 55.6004 94.9433 57.4124 94.0016C55.8579 93.3059 54.3034 92.6272 52.7394 91.9824C50.6699 93.8065 48.3143 95.4269 45.5486 96.3177C46.7312 94.2392 48.9533 92.9157 50.832 91.3886C49.4206 90.8795 47.9996 90.362 46.5882 89.853C44.5282 92.2624 41.7816 94.0779 38.9682 95.7408ZM51.6903 98.2351C52.7871 99.7367 55.486 99.8386 57.1073 100.882C57.6509 100.475 58.1945 100.068 58.7285 99.6604L56.8879 99.0665C59.4533 98.3878 62.1904 97.9636 64.3171 96.428C62.6577 95.8596 61.0364 95.13 59.2626 94.8755C56.7544 96.0123 54.2844 97.2255 51.6903 98.2351ZM58.6904 100.152C58.8811 100.56 59.2531 101.374 59.4342 101.781C62.3048 101.68 65.1659 101.442 68.0078 101.086C68.3893 99.9573 68.7708 98.8375 69.1618 97.7261C68.0937 97.4715 67.0256 97.217 65.9574 96.971C64.0501 98.829 61.437 99.7622 58.6904 100.152ZM78.5556 99.3126C78.9084 100.085 79.0038 101.001 79.7191 101.612C80.2913 100.84 80.8253 100.051 81.3403 99.2532C80.6441 99.2701 79.2517 99.2956 78.5556 99.3126ZM46.8266 112.471C45.5296 113.074 45.4819 113.642 46.7026 114.185C47.9901 113.583 48.0378 113.006 46.8266 112.471ZM35.7067 113.566C33.2557 114.058 33.6467 116.713 34.6671 118.206C36.4601 121.099 38.3007 124.094 41.1331 126.3C41.1999 122.363 40.4274 118.291 38.1195 114.898C37.5282 114.295 36.7462 113.252 35.7067 113.566ZM116.636 125.256C114.614 131.221 113.012 137.406 114.099 143.667C117.246 142.844 120.737 142.632 123.588 141.113C126.44 135.751 127.165 129.702 126.793 123.831C123.359 123.992 119.917 124.298 116.636 125.256ZM128.214 123.729C129.406 129.541 127.937 135.361 125.782 140.833C129.091 140.12 132.667 139.73 135.576 138.042C138.714 134.224 138.208 129.1 137.779 124.637C134.603 124.255 131.409 123.958 128.214 123.729ZM139.343 125.036C140.03 129.227 139.715 133.486 138.256 137.524C140.507 136.583 142.71 135.548 144.855 134.428C143.978 131.492 143.387 128.455 143.816 125.418C142.319 125.299 140.831 125.163 139.343 125.036ZM145.323 125.749C145.237 128.404 145.561 131.068 146.41 133.63C149.996 131.153 152.857 127.997 155.174 124.544C151.903 125.044 148.623 125.46 145.323 125.749ZM147.898 134.402C150.969 134.419 154.039 134.122 156.948 133.206C157.167 130.44 157.234 127.657 156.986 124.9C154.087 128.175 151.712 131.857 147.898 134.402ZM105.945 131.059C102.321 134.784 101.835 141.071 105.812 144.736C107.576 146.636 110.342 144.693 112.459 144.371C111.944 138.127 112.344 131.832 114.538 125.85C111.334 127.064 108.091 128.531 105.945 131.059ZM83.1142 132.375C82.0842 134.071 81.0351 135.768 80.0338 137.49C83.6101 139.119 86.8907 141.401 88.8553 144.574C91.0297 147.671 93.4425 152.21 98.4494 151.302C96.1701 147.434 94.2436 143.429 92.8322 139.246C89.9711 136.591 86.9193 133.936 83.1142 132.375ZM146.019 135.827C143.339 136.6 140.888 137.881 138.399 139.026C142.843 142.241 148.851 141.087 154.097 140.824C155.108 138.848 155.909 136.786 156.462 134.674C153.086 135.726 149.538 135.7 146.019 135.827ZM20.1617 137.092C18.9028 137.711 18.9123 138.279 20.1617 138.797C21.411 138.169 21.411 137.601 20.1617 137.092ZM64.0978 147.408C60.7122 148.29 57.546 149.69 54.3511 151.005C55.9819 151.989 57.5078 153.143 59.2817 153.915C61.1509 153.805 63.0296 153.644 64.8988 153.822C65.2326 154.882 65.5569 155.951 65.8907 157.02C72.8525 153.355 77.9738 146.466 78.1932 139.17C73.4724 141.877 69.6291 145.923 64.0978 147.408ZM125.648 142.606C129.454 146.178 134.146 149.181 139.667 150.191C141.556 150.411 143.826 151.429 145.542 150.242C148.632 147.977 150.835 144.956 153.42 142.267C147.573 142.912 141.279 143.124 136.301 139.815C132.734 140.68 129.186 141.639 125.648 142.606ZM33.2843 143.709C36.1358 145.872 39.5881 147.247 43.1835 148.095C41.6958 145.737 39.7884 143.429 36.956 142.258C35.5636 142.267 34.4955 143.234 33.2843 143.709ZM154.163 143.624C154.02 144.006 153.734 144.778 153.591 145.16C164.33 145.202 175.135 145.728 185.845 144.837C185.864 144.014 185.892 142.369 185.911 141.546C175.411 143.013 164.806 144.031 154.163 143.624ZM114.376 145.109C117.084 150.836 121.986 157.114 129.673 157.309C134.231 156.52 138.428 154.475 142.166 152.057C134.985 151.15 128.433 147.875 123.703 143.022C120.584 143.684 117.475 144.396 114.376 145.109ZM107.309 147.646C106.107 151.667 107.891 156.46 112.011 158.658C116.035 161.025 121.109 159.769 125.4 158.7C123.388 157.36 121.118 156.333 119.287 154.798C116.493 152.1 114.538 148.816 112.726 145.55C110.885 146.178 108.959 146.661 107.309 147.646ZM98.3349 160.312C99.775 157.877 100.233 155.137 100.929 152.49C99.8989 155.052 97.9344 157.462 98.3349 160.312ZM60.7694 155.434C59.1672 157.971 60.3498 160.948 61.1604 163.536C63.1536 161.016 64.3076 158.013 63.6972 154.916C62.7149 155.044 61.7326 155.213 60.7694 155.434ZM65.2136 158.488C63.9642 159.167 65.0038 161.373 66.3675 160.304C67.7122 159.616 66.6059 157.351 65.2136 158.488ZM66.7776 161.432C68.3321 161.245 69.8771 161.025 71.422 160.762C70.9547 160.456 70.0201 159.846 69.5528 159.54C68.6087 160.151 67.6931 160.787 66.7776 161.432ZM49.5541 161.907C51.9192 164.554 55.9152 164.037 59.2817 163.952C56.4778 162.119 53.035 160.787 49.5541 161.907ZM63.6114 165.547C65.8334 167.498 70.0869 170.527 72.6427 167.524C70.7544 164.715 66.6345 165.691 63.6114 165.547ZM53.1209 169C51.8525 169.95 52.6536 171.324 52.8729 172.521C56.3157 171.392 58.6045 168.855 60.2735 166.073C57.8321 166.913 55.2094 167.54 53.1209 169ZM62.4956 168.872C62.3048 171.223 62.4193 173.606 62.877 175.94C63.4206 176.152 64.4983 176.576 65.0419 176.788C65.6999 173.903 64.422 171.146 62.4956 168.872Z" fill="#1C180D"/>
<path d="M155.613 5.02197C158.407 6.49818 156.69 9.95117 156.252 12.2249C153.896 10.6723 155.966 7.25325 155.613 5.02197Z" fill="#1C180D"/>
<path d="M150.177 9.79004C152.99 10.9014 154.382 14.0235 154.182 16.6451C152.122 14.7447 150.968 12.2843 150.177 9.79004Z" fill="#1C180D"/>
<path d="M55.2762 128.141C57.6699 128.15 60.2639 127.853 62.4955 128.82C65.0418 129.906 65.6617 134.012 62.6481 134.954C59.4437 135.777 54.971 136.93 52.377 134.453C55.896 133.817 60.1876 135.005 63.1249 132.714C63.001 128.888 57.3266 129.668 54.4178 129.991C54.6276 129.524 55.0568 128.599 55.2762 128.141Z" fill="#1C180D"/>
<path d="M227.93 38.4572C236.485 34.7836 247.233 35.1569 255.282 39.7213C262.406 43.7172 266.659 51.6582 264.857 59.0817C263.474 64.1551 260.251 68.6516 256.932 72.8935C247.395 84.8898 231.707 92.1775 223.992 105.429C221.922 109.332 220.644 115.042 214.674 115.322C215.532 110.953 216.515 106.6 216.963 102.189C217.411 98.3114 218.146 94.1713 221.054 91.0916C228.026 83.9905 237.343 78.9596 243.895 71.5276C247.843 66.1743 251.152 59.5992 249.875 53.092C248.291 47.2296 240.662 45.3037 234.692 46.0164C226.662 46.992 218.527 49.6475 212.614 54.7209C211.918 52.566 211.231 50.4195 210.659 48.2392C215.771 44.1584 221.789 41.1211 227.93 38.4572Z" fill="#FFFFFE"/>
<path d="M69.9531 98.7356C72.652 99.8809 73.2815 102.587 74.054 104.903C73.9967 105.065 73.8823 105.387 73.8155 105.557C73.3196 105.379 72.8237 105.217 72.3278 105.048C71.1548 103.071 70.2011 100.975 69.9531 98.7356Z" fill="#FDEEE0"/>
<path d="M74.7412 98.6169C75.7521 99.4484 77.1159 100.127 77.4878 101.417C77.1063 102.681 76.5246 103.902 75.981 105.124C75.6281 104.335 75.2753 103.546 74.9415 102.757C74.8461 101.374 74.7698 99.9913 74.7412 98.6169Z" fill="#FDEEE0"/>
<path d="M78.5557 99.3126C79.2519 99.2956 80.6442 99.2701 81.3404 99.2532C80.8254 100.051 80.2914 100.84 79.7192 101.612C79.0039 101.001 78.9085 100.085 78.5557 99.3126Z" fill="#FDEEE0"/>
<path d="M66.0244 103.699C66.7587 103.241 67.5026 102.825 68.2846 102.443C68.9808 103.063 69.6102 103.741 70.2492 104.412C70.6212 105.005 71.3555 106.202 71.7179 106.796C69.7533 105.854 67.8269 104.861 66.0244 103.699Z" fill="#FDEEE0"/>
<path d="M78.9463 110.851C81.7596 109.553 85.0022 109.298 88.1016 109.756C87.8823 110.138 87.4245 110.91 87.1956 111.292C84.449 111.776 81.6357 111.402 78.9463 110.851Z" fill="#FDEEE0"/>
<path d="M70.8783 114.448C72.7666 115.475 68.3797 118.223 67.8838 116.085C68.2176 114.957 69.7149 114.524 70.8783 114.448Z" fill="#FDEEE0"/>
<path d="M37.5947 140.68C38.4912 139.942 39.3686 139.162 40.4939 138.687C40.6179 139.942 40.7228 141.206 40.8182 142.47C39.7214 141.893 38.6438 141.3 37.5947 140.68Z" fill="#FDEEE0"/>
<path d="M49.4687 155.841C50.3747 157.029 51.2807 158.208 52.1962 159.387C51.2616 159.812 50.2984 160.185 49.3447 160.584C49.5069 159.006 49.4878 157.419 49.4687 155.841Z" fill="#FDEEE0"/>
<path d="M66.7773 161.432C67.6929 160.787 68.6084 160.151 69.5526 159.54C70.0199 159.845 70.9545 160.456 71.4218 160.762C69.8768 161.025 68.3318 161.245 66.7773 161.432Z" fill="#FDEEE0"/>
<path d="M117.98 63.9771C141.927 63.6207 165.874 64.1128 189.821 64.2401C194.809 64.3419 199.864 64.2995 204.746 65.3515C206.406 65.852 208.761 66.4629 208.943 68.3378C210.125 71.0187 206.701 72.5459 204.699 73.8354C194.199 79.2227 181.515 78.9852 169.823 77.9162C153.286 76.2618 136.615 79.2991 120.126 76.949C121.643 76.8727 123.159 76.7624 124.675 76.669C122.434 74.862 119.783 73.1991 118.658 70.6115C117.914 68.4651 118.085 66.1829 117.98 63.9771Z" fill="#F1DC8D"/>
<path d="M44.9101 163.57C44.7766 161.152 46.3883 159.175 47.7235 157.216C47.8665 159.65 47.1703 162.043 44.9101 163.57Z" fill="#F1DC8D"/>
<path d="M98.3353 160.312C97.9348 157.462 99.8993 155.052 100.929 152.49C100.233 155.137 99.7754 157.877 98.3353 160.312Z" fill="#D7D1CA"/>
<path d="M151.779 8.789C152.418 5.616 154.64 3.03688 157.549 1.20435C159.723 3.25746 159.209 6.06565 159.142 8.6278C161.116 7.85576 162.356 5.32754 164.74 5.73477C167.229 9.53558 162.832 13.2516 161.001 16.4755C160.649 15.8392 160.296 15.2029 159.962 14.5581C161.078 12.7171 162.194 10.8591 163.09 8.92475C159.466 9.54407 159.218 13.4636 157.883 15.9155C158.655 16.3906 159.428 16.8657 160.2 17.3408C158.961 18.5795 157.797 19.8945 156.367 20.972C152.104 17.8499 149.204 13.3025 147.059 8.82294C147.106 8.38178 147.202 7.50792 147.249 7.06676C148.823 7.48247 150.301 8.1527 151.779 8.789ZM155.613 5.02212C155.966 7.2534 153.897 10.6725 156.252 12.225C156.691 9.95132 158.407 6.49833 155.613 5.02212ZM150.177 9.7901C150.969 12.2844 152.123 14.7447 154.183 16.6451C154.383 14.0236 152.99 10.9015 150.177 9.7901Z" fill="#FBF9F6"/>
<path d="M118.4 25.1289C128.338 20.2252 139.811 18.5878 151.045 18.4351C152.666 19.8688 153.906 22.1086 156.328 22.4989C158.531 21.9559 159.723 19.9452 161.307 18.6217C169.737 19.2495 178.244 19.8858 186.436 21.8541C192.873 23.8648 199.482 26.7663 203.497 31.8821C198.615 33.9437 193.15 34.2322 187.867 34.7243C172.016 35.9968 156.08 36.0902 140.183 36.1241C131.113 35.7678 121.691 36.1495 113.069 33.2056L112.554 32.7645C112.02 31.6191 111.982 30.4653 112.44 29.286C113.975 27.4535 116.217 26.2488 118.4 25.1289Z" fill="#FEFEFE"/>
<path d="M20.1807 54.984C21.7828 52.4473 24.0812 49.6476 27.6671 49.4949C32.054 49.5543 34.4191 53.3211 36.8319 56.0105C44.3469 65.1138 56.4301 70.2805 63.6304 79.6299C60.0732 79.2396 56.6018 78.4251 53.159 77.5513C45.8156 74.0389 39.3783 68.991 33.8278 63.4764C33.7802 60.4476 34.896 55.5015 30.7188 54.3137C31.8251 56.6044 32.2733 59.0478 32.2257 61.5421C31.5867 60.8718 30.9573 60.2016 30.3374 59.5399C30.2897 59.2514 30.2134 58.6745 30.1657 58.386C29.975 57.1643 29.6412 55.5015 27.9818 55.2809C25.4068 54.8737 22.7842 55.0349 20.1807 54.984Z" fill="#BEBD76"/>
<path d="M19.9611 54.9839H20.1804C22.784 55.0348 25.4066 54.8736 27.9815 55.2808C29.6409 55.5014 29.9747 57.1642 30.1655 58.3859C29.4788 58.3944 28.0864 58.4114 27.3998 58.4199C29.2022 61.0244 31.3862 63.3915 33.5224 65.7924C30.4516 65.5973 27.5142 64.7998 24.5769 64.0702C26.9802 67.2347 31.596 67.2092 35.4393 67.2432C36.8221 68.4394 38.1668 69.6781 39.4638 70.9592C36.1164 71.1119 32.7595 71.0101 29.4216 70.8234L29.4979 72.0281C33.4938 72.5626 37.5279 72.342 41.5429 72.2148C42.3726 72.7238 44.0987 73.3601 43.4121 74.4885C41.5143 74.9127 39.5783 75.1333 37.6709 75.4811C39.9979 77.4494 43.3644 75.5744 46.0729 75.3623C47.0265 76.0665 47.9707 76.7876 48.9148 77.5088C46.626 78.1705 44.0129 78.4844 42.3821 80.2406C46.4925 80.4103 50.8222 77.1439 54.4271 80.1812C52.3099 81.1484 50.1832 82.3955 47.7418 82.5822C45.1096 82.2428 42.6777 81.1399 40.4461 79.8928C32.8739 75.4896 25.9216 70.1277 20.5047 63.6545C18.6259 61.0329 19.5891 57.843 19.9611 54.9839Z" fill="#948E41"/>
<path d="M210.735 63.5781C211.374 62.8569 212.004 62.1443 212.643 61.4316C216.715 79.5873 217.602 98.7186 212.147 116.73C209.658 125.239 203.869 133.554 194.58 137.287C182.258 141.91 168.611 141.936 155.46 142.258C158.207 137.066 159.628 131.305 158.769 125.579C168.754 125.867 178.301 128.591 187.942 130.593C192.968 131.781 197.822 129.049 201.027 125.816C205.957 120.531 208.761 113.964 210.63 107.372C214.76 94.027 213.682 79.8163 210.077 66.505C209 64.8591 206.596 64.4859 204.832 63.595C206.797 63.6205 208.771 63.595 210.735 63.5781Z" fill="#FDFDFC"/>
<path d="M100.472 71.935C102.846 65.5466 111.62 64.8763 117.981 63.9771C118.086 66.1829 117.915 68.465 118.658 70.6115C119.784 73.1991 122.435 74.8619 124.676 76.669C123.16 76.7624 121.643 76.8726 120.127 76.949C113.318 76.3297 106.661 74.5226 100.472 71.935Z" fill="#E2C25C"/>
<path d="M199.998 77.3476C203.641 76.2447 206.969 74.4122 209.735 72.0452C212.567 85.1953 212.405 99.1005 207.408 111.835C204.9 118.52 201.209 125.664 193.723 128.956C192.559 128.837 191.415 128.709 190.27 128.574C190.165 126.334 190.776 123.611 188.563 121.99C184.853 119.004 179.551 117.137 174.544 118.274C167.725 119.453 160.363 120.667 153.678 118.308C147.374 116.145 142.138 110.987 141.556 104.853C140.898 96.3262 142.872 87.5708 139.992 79.2311C149.91 79.0699 159.857 78.3912 169.747 79.3159C179.827 80.1898 190.337 80.5121 199.998 77.3476Z" fill="#F3DE8E"/>
<path d="M34.6484 156.079C36.8991 154.144 39.3596 152.168 42.5735 151.71L44.0803 151.421C41.4196 153.593 38.4727 155.969 34.6484 156.079Z" fill="#F3DE8E"/>
<path d="M62.4955 168.873C64.4219 171.146 65.6999 173.904 65.0418 176.788C64.4982 176.576 63.4206 176.152 62.877 175.94C62.4192 173.607 62.3048 171.223 62.4955 168.873Z" fill="#F3DE8E"/>
<path d="M101.291 73.8523C113.374 78.756 126.897 79.5111 139.991 79.2311C142.872 87.5708 140.897 96.3263 141.555 104.853C142.137 110.987 147.373 116.145 153.677 118.308C160.362 120.667 167.724 119.454 174.543 118.274C179.55 117.137 184.853 119.004 188.562 121.99C190.775 123.611 190.165 126.334 190.269 128.574C191.414 128.71 192.558 128.837 193.722 128.956C188.505 130.271 183.441 127.946 178.396 127.055C171.768 125.324 164.882 124.68 158.073 123.848C157.749 123.263 157.1 122.101 156.776 121.515C153.743 123.068 150.425 124.518 146.829 124.171C136.959 123.416 126.831 121.006 117.065 123.712C109.55 117.943 106.651 109.027 104.667 100.696C103.418 91.7619 101.949 82.8368 101.291 73.8523Z" fill="#E4C459"/>
<path d="M53.1592 77.5513C56.602 78.4251 60.0734 79.2396 63.6306 79.6298L63.8499 79.6638C65.1565 81.7338 66.3391 83.8718 67.4453 86.0437C62.6197 83.3119 57.508 80.8855 53.1592 77.5513Z" fill="#908E46"/>
<path d="M17.4157 82.2939C25.4457 80.6565 34.0861 80.0456 41.9921 82.472C47.9812 84.347 53.6651 86.8752 59.4254 89.2252C64.3082 91.3802 69.3818 93.2891 73.7592 96.2245C66.8355 96.3942 60.5602 93.6369 54.4662 91.0917C44.7577 86.9261 33.5043 85.7553 22.9471 87.6218C18.522 88.7586 14.1923 86.4255 9.70042 87.0788C11.0928 89.2931 14.2972 88.4278 16.6242 88.8604C13.6963 90.0906 10.4634 90.9984 8.14592 93.1194C13.0002 92.7376 17.0247 89.7343 21.9552 89.5222C19.7045 91.9486 16.5097 93.4842 14.3067 95.9445C18.9988 95.2573 21.8026 91.5668 24.9212 88.7841C26.4947 88.6568 28.0683 88.538 29.6514 88.4362C27.8585 91.7874 23.5002 93.4248 22.2509 96.9965C17.9784 98.2013 13.3912 99.635 8.90887 98.4982C5.90477 97.6837 3.87343 94.8586 4.76035 92.1013C6.27671 86.9261 11.8081 83.5071 17.4157 82.2939Z" fill="#BFB976"/>
<path d="M50.127 138.211C50.3463 137.677 50.5847 137.151 50.8327 136.642C51.939 138.211 52.082 140.01 51.6528 141.792C51.1093 140.604 50.5943 139.408 50.127 138.211Z" fill="#BFB976"/>
<path d="M55.0953 81.6745C56.5735 80.9619 57.8132 82.5399 59.1198 82.8708C56.7928 84.8051 53.3595 85.925 50.5176 84.0755C51.3187 82.5483 53.5217 82.2938 55.0953 81.6745Z" fill="#8D8540"/>
<path d="M60.4263 83.8972C62.8581 85.1953 65.2519 86.5612 67.4167 88.1986C63.7165 88.5804 60.0353 87.8338 56.7832 86.2642C57.9944 85.4668 59.2151 84.6777 60.4263 83.8972Z" fill="#958D44"/>
<path d="M22.7363 96.8692C26.3508 94.6549 29.1641 91.6686 31.6914 88.521C33.5129 87.9865 35.4775 88.3853 37.3467 88.3428C35.5252 90.5656 33.2459 92.4576 31.4339 94.6888C34.9244 93.6877 37.2704 91.1171 39.2922 88.5549C40.923 88.7586 42.5824 88.9367 44.1465 89.4543C43.7459 91.6855 40.9421 92.5763 39.2064 93.9168C39.0633 94.3749 38.7868 95.2827 38.6437 95.7408C33.3031 95.1979 27.9339 95.7493 22.7363 96.8692Z" fill="#BCB474"/>
<path d="M65.5859 90.2178C67.0832 89.7766 68.5805 89.3609 70.0682 88.9282C72.071 89.7681 74.1595 90.4299 76.0764 91.4225C77.65 93.289 78.5465 95.5372 79.6623 97.6413C74.9511 95.1979 70.5832 92.237 65.5859 90.2178Z" fill="#F6F3EE"/>
<path d="M38.9688 95.7409C41.7821 94.078 44.5287 92.2625 46.5887 89.853C48.0001 90.3621 49.4211 90.8796 50.8325 91.3886C48.9538 92.9157 46.7317 94.2392 45.5492 96.3178C48.3148 95.427 50.6704 93.8065 52.7399 91.9825C54.3039 92.6273 55.8584 93.306 57.4129 94.0017C55.601 94.9434 53.7603 95.8257 51.8721 96.6402C51.5097 96.9371 50.7753 97.5395 50.4129 97.8364C46.5601 97.3274 42.8598 96.1057 38.9688 95.7409Z" fill="#BBB774"/>
<path d="M51.6904 98.2351C54.2844 97.2255 56.7545 96.0123 59.2627 94.8755C61.0365 95.13 62.6578 95.8596 64.3172 96.4281C62.1905 97.9637 59.4534 98.3878 56.888 99.0666L58.7286 99.6604C58.1945 100.068 57.6509 100.475 57.1073 100.882C55.4861 99.8386 52.7872 99.7368 51.6904 98.2351Z" fill="#C4BE74"/>
<path d="M58.6904 100.152C61.437 99.7622 64.0501 98.8289 65.9575 96.9709C67.0256 97.217 68.0937 97.4715 69.1618 97.726C68.7708 98.8374 68.3894 99.9573 68.0079 101.086C65.1659 101.442 62.3049 101.68 59.4343 101.781C59.2531 101.374 58.8812 100.56 58.6904 100.152Z" fill="#BEB66F"/>
<path d="M79.0795 103.792C80.386 102.867 81.7021 101.96 83.0277 101.06C83.2184 101.756 83.6095 103.156 83.8002 103.86C83.4092 104.233 82.6272 104.988 82.2362 105.37C80.7007 106.422 79.1176 107.415 77.4773 108.34L77.1816 107.746C77.8301 106.431 78.4691 105.116 79.0795 103.792Z" fill="#F3EBAA"/>
<path d="M74.9414 102.757C75.2752 103.546 75.6281 104.335 75.9809 105.124C76.372 105.998 76.7725 106.872 77.1826 107.746L77.4782 108.34C79.1186 107.415 80.7017 106.422 82.2371 105.37C82.199 105.871 82.1131 106.889 82.075 107.398L82.0464 107.618C84.4306 108.009 87.7112 107.237 89.2562 109.417C89.7712 110.444 89.9142 111.776 88.6458 112.429C86.4619 113.888 83.4769 113.116 80.9496 113.184C81.6172 114.287 82.2943 115.381 82.9237 116.51C82.8474 117.214 82.6853 118.639 82.609 119.352C82.2753 118.715 81.9415 118.079 81.6172 117.451C81.0545 119.632 79.1281 121.939 76.3338 121.43C73.4632 120.463 73.8161 117.171 73.4442 114.999C72.0899 116.23 71.0027 118.181 68.8093 118.249C67.064 118.8 66.2916 116.874 65.3093 116.034C62.7057 116.153 59.673 116.569 58.2139 114.134C59.2915 113.574 60.3883 113.04 61.485 112.522C62.2002 113.235 62.9441 113.913 63.7261 114.575C65.5381 114.804 66.9877 113.871 68.3515 112.972C66.7302 112.344 64.9564 111.945 63.5545 110.953C62.9441 109.884 63.1444 108.628 62.9537 107.491L63.2111 107.754C63.4496 108.009 63.9455 108.501 64.1934 108.747C66.2439 111.996 70.8311 110.494 73.8638 109.408C73.158 108.518 72.4428 107.661 71.718 106.795C71.3556 106.202 70.6213 105.005 70.2493 104.411L72.3284 105.048C72.8243 105.217 73.3202 105.379 73.8161 105.557C73.8829 105.387 73.9973 105.065 74.0545 104.904L74.9414 102.757ZM78.9469 110.851C81.6363 111.402 84.4496 111.776 87.1962 111.292C87.4251 110.91 87.8829 110.138 88.1022 109.756C85.0028 109.298 81.7603 109.553 78.9469 110.851ZM76.3624 111.19C75.857 113.532 75.1703 115.95 75.733 118.351C76.248 120.735 78.4033 120.09 79.2616 118.325C79.4523 115.738 78.1649 113.175 76.3624 111.19ZM70.8788 114.448C69.7153 114.524 68.218 114.957 67.8842 116.085C68.3801 118.223 72.767 115.475 70.8788 114.448Z" fill="#282315"/>
<path d="M82.0746 107.398C83.2571 106.388 84.4492 105.404 85.6127 104.395C89.4942 107.584 94.1005 110.63 99.6795 110.427C101.091 116.374 104.314 121.753 107.662 126.996C104.829 129.889 101.472 132.867 101.196 136.939C100.586 140.35 102.607 143.421 104.419 146.263C103.046 147.62 101.701 149.003 100.347 150.386C95.4166 143.794 92.3362 135.013 96.0174 127.395C98.1822 124.943 99.9179 122.194 100.996 119.224C99.279 118.139 97.2667 118.834 95.4642 119.318C94.5392 120.192 93.5283 121.057 92.8416 122.126C91.764 123.729 93.2898 125.358 93.8907 126.86C93.08 130.016 92.5364 133.223 92.3457 136.464C89.8757 134.284 87.1195 132.375 83.9819 131.026C85.689 126.275 85.6413 120.955 82.9233 116.51C82.2939 115.381 81.6168 114.287 80.9492 113.184C83.4765 113.116 86.4615 113.888 88.6454 112.429C89.9138 111.776 89.7708 110.444 89.2558 109.417C87.7108 107.237 84.4301 108.009 82.0459 107.618L82.0746 107.398Z" fill="#F7EFE6"/>
<path d="M64.1934 108.747C67.3405 107.143 70.8596 107.949 73.8637 109.409C70.831 110.494 66.2438 111.996 64.1934 108.747Z" fill="#F4E3AC"/>
<path d="M76.3617 111.19C78.1641 113.175 79.4516 115.738 79.2608 118.325C78.4025 120.09 76.2472 120.735 75.7322 118.351C75.1696 115.95 75.8562 113.532 76.3617 111.19Z" fill="#FCEEBA"/>
<path d="M46.8266 112.471C48.0377 113.006 47.9901 113.583 46.7026 114.185C45.4819 113.642 45.5296 113.074 46.8266 112.471Z" fill="#767463"/>
<path d="M35.7071 113.566C36.7467 113.252 37.5287 114.295 38.12 114.898C40.4279 118.291 41.2004 122.364 41.1336 126.3C38.3012 124.094 36.4606 121.099 34.6676 118.206C33.6472 116.713 33.2562 114.058 35.7071 113.566Z" fill="#FBE891"/>
<path d="M45.0812 127.81C47.2842 123.551 49.2392 117.918 55.3714 117.256C56.2774 118.537 57.336 120.175 56.3537 121.676C54.9327 123.848 52.5104 125.273 50.2883 126.741C48.4 127.844 46.4068 128.82 44.3945 129.736C44.5662 129.252 44.9095 128.294 45.0812 127.81Z" fill="#FAE697"/>
<path d="M95.4643 119.318C97.2667 118.834 99.279 118.139 100.996 119.225C99.918 122.194 98.1823 124.943 96.0174 127.395C94.749 124.807 94.6727 122.007 95.4643 119.318Z" fill="#2B2B18"/>
<path d="M116.636 125.256C119.917 124.298 123.36 123.992 126.793 123.831C127.165 129.702 126.44 135.751 123.588 141.113C120.737 142.631 117.246 142.844 114.099 143.667C113.012 137.405 114.614 131.221 116.636 125.256Z" fill="#B7C753"/>
<path d="M128.214 123.729C131.409 123.959 134.604 124.256 137.78 124.637C138.209 129.1 138.714 134.224 135.577 138.042C132.668 139.73 129.092 140.12 125.782 140.833C127.938 135.361 129.406 129.541 128.214 123.729Z" fill="#B4C34F"/>
<path d="M139.343 125.036C140.831 125.163 142.319 125.299 143.816 125.418C143.387 128.455 143.978 131.492 144.855 134.428C142.71 135.548 140.507 136.583 138.256 137.524C139.715 133.486 140.03 129.227 139.343 125.036Z" fill="#B4C05A"/>
<path d="M145.323 125.749C148.623 125.46 151.903 125.044 155.174 124.544C152.857 127.997 149.996 131.153 146.41 133.63C145.561 131.068 145.237 128.404 145.323 125.749Z" fill="#B5BE55"/>
<path d="M147.897 134.402C151.712 131.857 154.087 128.175 156.986 124.9C157.234 127.658 157.167 130.44 156.948 133.206C154.039 134.122 150.968 134.419 147.897 134.402Z" fill="#898F31"/>
<path d="M44.3949 129.736C46.4072 128.82 48.4004 127.844 50.2886 126.741C50.5938 127.259 51.2042 128.285 51.5189 128.803L50.6892 129.04C52.2151 128.718 53.7314 128.396 55.2764 128.141C55.057 128.599 54.6279 129.524 54.4181 129.991C51.7859 130.466 49.1919 131.11 46.617 131.781C48.5339 132.646 50.7464 133.147 52.3772 134.453C51.1374 134.589 49.8976 134.725 48.6578 134.86C49.2873 134.894 50.5557 134.971 51.1946 135.005L51.4903 135.259C51.3282 135.607 50.9944 136.294 50.8322 136.642C50.5843 137.151 50.3459 137.677 50.1265 138.212C49.9358 138.661 49.5638 139.56 49.3731 140.019C48.1238 137.278 46.5311 134.665 44.7382 132.188C43.9371 134.283 43.2409 136.413 42.7259 138.585C42.1728 138.61 41.0475 138.661 40.4943 138.687C39.369 139.162 38.4916 139.942 37.5951 140.68C37.1374 140.307 36.6891 139.942 36.2504 139.569C36.9276 138.704 37.5761 137.83 38.2341 136.956C36.0216 137.821 33.809 138.678 31.5965 139.552C31.1578 139.238 30.2709 138.61 29.8226 138.288L29.527 138.076C31.0434 136.786 32.5979 135.522 34.181 134.309C32.245 134.326 30.309 134.292 28.373 134.19C30.2613 134.029 32.1401 133.749 33.9902 133.35C34.3812 133.13 35.1728 132.705 35.5733 132.485C36.26 132.095 36.9371 131.687 37.6238 131.289L38.587 129.965C38.7586 129.736 39.102 129.295 39.2736 129.066C39.7314 128.845 40.6565 128.404 41.1142 128.183C41.8199 128.777 42.5352 129.371 43.2409 129.974C43.8608 129.252 44.4903 128.531 45.0815 127.81C44.9099 128.294 44.5666 129.252 44.3949 129.736Z" fill="#342C23"/>
<path d="M51.5183 128.803C54.303 127.954 57.2213 127.148 60.2158 127.581C67.4447 128.039 72.9475 132.909 77.363 137.567C72.9093 140.57 68.7608 143.972 63.7731 146.288C63.7445 144.625 64.3834 142.097 62.0374 141.418C58.051 140.409 55.0183 143.692 52.3098 145.754C53.7022 142.326 55.4474 137.923 51.4897 135.259L51.194 135.005C50.5551 134.971 49.2867 134.894 48.6572 134.86C49.897 134.725 51.1368 134.589 52.3766 134.453C54.9706 136.93 59.4434 135.777 62.6477 134.954C65.6614 134.012 65.0415 129.906 62.4951 128.82C60.2635 127.853 57.6695 128.15 55.2758 128.141C53.7308 128.396 52.2145 128.718 50.6886 129.04L51.5183 128.803Z" fill="#F8F1E9"/>
<path d="M105.945 131.059C108.091 128.531 111.334 127.064 114.538 125.85C112.344 131.832 111.944 138.127 112.459 144.371C110.342 144.693 107.576 146.636 105.812 144.736C101.835 141.071 102.321 134.784 105.945 131.059Z" fill="#BFCD57"/>
<path d="M25.1494 128.803C29.4314 125.961 34.8484 127.301 39.2734 129.066C39.1018 129.295 38.7585 129.736 38.5868 129.965C34.0949 129.991 29.3456 130.584 25.1494 128.803Z" fill="#FBED97"/>
<path d="M46.6172 131.781C49.1921 131.11 51.7861 130.466 54.4183 129.99C57.327 129.668 63.0014 128.888 63.1254 132.714C60.1881 135.004 55.8965 133.817 52.3774 134.453C50.7466 133.146 48.5341 132.646 46.6172 131.781Z" fill="#F4E883"/>
<path d="M26.2461 131.747C30.0417 131.619 33.8755 131.976 37.6235 131.289C36.9369 131.687 36.2597 132.095 35.5731 132.485C32.445 132.926 29.212 132.773 26.2461 131.747Z" fill="#DDD38C"/>
<path d="M42.7255 138.585C43.2405 136.413 43.9367 134.283 44.7378 132.188C46.5307 134.665 48.1234 137.278 49.3727 140.018C49.4776 141.792 49.6969 143.59 49.4108 145.372C48.2283 146.551 46.1111 147.501 44.3468 146.899C42.4585 144.489 42.5539 141.384 42.7255 138.585Z" fill="#FDE692"/>
<path d="M83.1146 132.375C86.9198 133.936 89.9716 136.591 92.8326 139.246C94.244 143.429 96.1705 147.434 98.4498 151.302C93.443 152.21 91.0301 147.671 88.8557 144.574C86.8911 141.401 83.6105 139.119 80.0342 137.49C81.0355 135.768 82.0846 134.071 83.1146 132.375Z" fill="#F8F4EE"/>
<path d="M146.019 135.827C149.538 135.7 153.086 135.726 156.462 134.674C155.909 136.786 155.108 138.848 154.097 140.824C148.852 141.087 142.844 142.241 138.399 139.026C140.889 137.881 143.339 136.599 146.019 135.827Z" fill="#959836"/>
<path d="M20.1613 137.092C21.4106 137.601 21.4106 138.169 20.1613 138.797C18.912 138.279 18.9024 137.711 20.1613 137.092Z" fill="#6B5F40"/>
<path d="M31.5968 139.552C33.8093 138.678 36.0219 137.821 38.2344 136.956C37.5764 137.83 36.9279 138.704 36.2508 139.569C34.9728 141.02 33.1704 142.326 30.9483 141.868C30.0042 140.858 30.2235 140.086 31.5968 139.552Z" fill="#FCEB9B"/>
<path d="M64.0982 147.408C69.6295 145.923 73.4729 141.877 78.1936 139.17C77.9742 146.466 72.853 153.355 65.8911 157.02C65.5573 155.951 65.2331 154.882 64.8993 153.822C63.0301 153.644 61.1513 153.805 59.2821 153.915C57.5082 153.143 55.9824 151.989 54.3516 151.005C57.5464 149.69 60.7126 148.29 64.0982 147.408Z" fill="#FAF3EB"/>
<path d="M125.648 142.606C129.187 141.639 132.734 140.68 136.301 139.815C141.279 143.124 147.574 142.912 153.42 142.267C150.835 144.956 148.632 147.976 145.542 150.242C143.826 151.429 141.556 150.411 139.668 150.191C134.146 149.181 129.454 146.178 125.648 142.606Z" fill="#999F31"/>
<path d="M33.2842 143.709C34.4954 143.234 35.5635 142.267 36.9559 142.258C39.7883 143.429 41.6957 145.737 43.1834 148.095C39.588 147.247 36.1357 145.872 33.2842 143.709Z" fill="#E7CD67"/>
<path d="M154.163 143.624C164.806 144.031 175.411 143.013 185.911 141.546C185.892 142.369 185.863 144.014 185.844 144.837C175.134 145.728 164.329 145.202 153.591 145.16C153.734 144.778 154.02 144.006 154.163 143.624Z" fill="#FBFBF8"/>
<path d="M52.3287 148.333C54.9037 145.525 58.0127 142.42 62.5427 142.861C61.217 147.527 55.5617 148.978 50.8887 149.75C51.2511 149.393 51.9663 148.689 52.3287 148.333Z" fill="#EECD4A"/>
<path d="M114.376 145.109C117.475 144.396 120.584 143.684 123.703 143.022C128.433 147.875 134.985 151.15 142.166 152.057C138.428 154.475 134.232 156.52 129.673 157.309C121.986 157.114 117.084 150.836 114.376 145.109Z" fill="#99A330"/>
<path d="M45.9212 149.673C47.3803 148.18 49.24 147.103 51.2141 146.254C51.4907 146.772 52.0534 147.815 52.3299 148.333C51.9675 148.689 51.2523 149.393 50.8899 149.75C50.6514 149.945 50.1841 150.335 49.9457 150.539C49.9743 150.7 50.0125 151.031 50.0316 151.192C50.6705 153.652 51.8245 155.968 52.9975 158.267C52.7972 158.547 52.3967 159.107 52.1964 159.387C51.2809 158.208 50.3749 157.029 49.4689 155.841C49.488 157.419 49.507 159.006 49.3449 160.584C49.0779 161.245 48.5343 162.569 48.2577 163.231C46.7795 164.927 44.3285 164.673 42.6501 163.366C39.7032 164.783 36.9089 168.278 33.3517 166.047C34.1051 164.724 34.992 163.477 36.0792 162.365C36.6037 162.823 37.6432 163.748 38.1678 164.215C41.1242 162.789 43.1269 160.371 43.2699 157.317C41.2958 158.615 39.0356 159.515 36.5274 159.404C33.9906 157.648 30.6432 157.801 27.8203 156.698C28.116 156.104 28.6977 154.916 28.9933 154.322C31.0724 153.44 31.4538 156.308 33.2563 156.223C33.6092 156.189 34.2958 156.113 34.6487 156.079C38.4729 155.968 41.4198 153.593 44.0806 151.421L42.5738 151.709C43.6896 151.031 44.8149 150.36 45.9212 149.673ZM40.2468 155.646C38.7972 155.875 39.0928 158.064 40.6664 157.3C42.1065 157.054 41.8204 154.882 40.2468 155.646ZM44.9103 163.57C47.1705 162.043 47.8667 159.65 47.7236 157.215C46.3885 159.175 44.7768 161.152 44.9103 163.57Z" fill="#2E2A17"/>
<path d="M107.309 147.646C108.959 146.661 110.885 146.178 112.726 145.55C114.538 148.816 116.493 152.1 119.287 154.798C121.118 156.333 123.388 157.36 125.4 158.7C121.108 159.769 116.035 161.025 112.01 158.658C107.89 156.46 106.107 151.667 107.309 147.646Z" fill="#929B30"/>
<path d="M50.0312 151.192C52.8637 152.397 56.192 153.364 57.9849 155.824C58.6621 157.58 58.0517 159.489 58.0231 161.305C56.2016 160.49 54.4849 159.506 52.9972 158.268C51.8242 155.968 50.6702 153.652 50.0312 151.192Z" fill="#EACD4D"/>
<path d="M60.7696 155.434C61.7328 155.213 62.7151 155.044 63.6974 154.917C64.3077 158.013 63.1538 161.016 61.1606 163.536C60.3499 160.949 59.1674 157.971 60.7696 155.434Z" fill="#FBEEB4"/>
<path d="M40.2463 155.646C41.8199 154.882 42.106 157.054 40.6659 157.3C39.0923 158.064 38.7967 155.875 40.2463 155.646Z" fill="#695936"/>
<path d="M65.214 158.488C66.6064 157.351 67.7127 159.617 66.368 160.304C65.0042 161.373 63.9647 159.167 65.214 158.488Z" fill="#AA9C7E"/>
<path d="M49.5537 161.907C53.0346 160.787 56.4774 162.119 59.2813 163.952C55.9148 164.037 51.9188 164.554 49.5537 161.907Z" fill="#FBE78E"/>
<path d="M63.6113 165.547C66.6345 165.691 70.7544 164.715 72.6427 167.524C70.0868 170.527 65.8334 167.498 63.6113 165.547Z" fill="#FDFBCC"/>
<path d="M53.1203 169C55.2089 167.54 57.8315 166.913 60.2729 166.073C58.604 168.855 56.3152 171.392 52.8724 172.521C52.653 171.324 51.8519 169.95 53.1203 169Z" fill="#ECE6A3"/>
</svg>
