<svg width="281" height="240" viewBox="0 0 281 240" fill="none" xmlns="http://www.w3.org/2000/svg">
<path d="M87.1167 168.661C85.2368 168.661 83.6846 168.145 82.46 167.114C81.2354 166.083 80.3867 164.675 79.9141 162.892C79.8711 162.752 79.8496 162.624 79.8496 162.505C79.8496 162.355 79.9033 162.205 80.0107 162.054C80.1182 161.893 80.4028 161.737 80.8647 161.587C81.3267 161.437 81.7832 161.286 82.2344 161.136C82.5352 161.039 82.7876 160.991 82.9917 160.991C83.1206 160.991 83.2656 161.028 83.4268 161.104C83.5879 161.179 83.7222 161.426 83.8296 161.845C84.0767 162.779 84.4526 163.553 84.9575 164.165C85.4731 164.767 86.0264 165.067 86.6172 165.067C87.4121 165.067 87.9976 164.777 88.3735 164.197C88.7603 163.606 88.9536 162.86 88.9536 161.958C88.9536 161.055 88.5938 160.244 87.874 159.524C87.1865 158.858 86.3647 158.192 85.4087 157.526C83.8188 156.431 82.6533 155.448 81.9121 154.578C80.7949 153.267 80.2363 151.747 80.2363 150.018C80.2363 148.857 80.5425 147.864 81.1548 147.037C81.7671 146.209 82.5674 145.576 83.5557 145.135C84.5439 144.695 85.6021 144.475 86.73 144.475C88.5884 144.475 90.0547 144.931 91.1289 145.844C92.2139 146.757 93.0518 148.127 93.6426 149.953C93.6963 150.136 93.7231 150.302 93.7231 150.453C93.7231 150.517 93.707 150.619 93.6748 150.759C93.6533 150.888 93.4761 150.995 93.1431 151.081C91.5103 151.521 90.6294 151.742 90.5005 151.742C90.3608 151.742 90.2104 151.709 90.0493 151.645C89.8989 151.57 89.77 151.328 89.6626 150.92C89.3618 149.76 88.9912 148.868 88.5508 148.245C88.1104 147.611 87.5518 147.294 86.875 147.294C86.1875 147.294 85.645 147.525 85.2476 147.987C84.8501 148.438 84.6514 149.002 84.6514 149.679C84.6514 150.13 84.8018 150.555 85.1025 150.952C85.4033 151.35 85.8008 151.742 86.2949 152.128C86.7998 152.515 87.3584 152.913 87.9707 153.321C88.916 153.944 89.8613 154.653 90.8066 155.448C91.752 156.243 92.5415 157.199 93.1753 158.316C93.8091 159.433 94.126 160.776 94.126 162.344C94.126 163.558 93.8574 164.638 93.3203 165.583C92.7939 166.528 92.0151 167.28 90.9839 167.839C89.9526 168.387 88.6636 168.661 87.1167 168.661ZM103.214 168.645C100.711 168.645 98.8418 167.839 97.6064 166.228C96.5215 164.82 95.979 162.967 95.979 160.668C95.979 159.122 96.1455 157.666 96.4785 156.302C96.8223 154.938 97.3057 153.74 97.9287 152.708C98.5625 151.667 99.3252 150.85 100.217 150.259C101.108 149.658 102.107 149.357 103.214 149.357C104.32 149.357 105.319 149.658 106.211 150.259C107.103 150.85 107.86 151.667 108.483 152.708C109.117 153.74 109.6 154.938 109.933 156.302C110.277 157.666 110.449 159.122 110.449 160.668C110.449 162.967 109.906 164.82 108.821 166.228C107.586 167.839 105.717 168.645 103.214 168.645ZM103.214 164.681C104.75 164.681 105.518 162.983 105.518 159.589C105.518 158.472 105.448 157.403 105.309 156.382C105.147 155.168 104.89 154.169 104.535 153.385C104.181 152.59 103.74 152.193 103.214 152.193C102.688 152.193 102.247 152.59 101.893 153.385C101.538 154.169 101.286 155.12 101.135 156.237C100.985 157.354 100.91 158.472 100.91 159.589C100.91 162.983 101.678 164.681 103.214 164.681ZM117.812 153.176C117.866 153.767 118.188 157.419 118.779 164.133C118.801 164.423 118.865 164.568 118.973 164.568C119.241 164.568 119.461 164.665 119.633 164.858C119.816 165.051 119.907 165.282 119.907 165.551V167.146C119.907 167.415 119.816 167.646 119.633 167.839C119.461 168.032 119.241 168.129 118.973 168.129H112.334C112.065 168.129 111.84 168.032 111.657 167.839C111.475 167.646 111.383 167.415 111.383 167.146V165.551C111.383 165.282 111.475 165.051 111.657 164.858C111.84 164.665 112.065 164.568 112.334 164.568C112.441 164.568 112.506 164.423 112.527 164.133C113.172 157.043 113.494 153.375 113.494 153.127C113.494 152.698 113.354 152.483 113.075 152.483C112.807 152.483 112.586 152.392 112.415 152.209C112.253 152.016 112.173 151.785 112.173 151.516V150.855C112.173 150.587 112.264 150.361 112.447 150.179C112.64 149.985 112.871 149.889 113.14 149.889H117.78C118.575 149.534 119.365 149.357 120.149 149.357C121.9 149.357 123.259 149.899 124.226 150.984C124.548 150.694 124.897 150.437 125.273 150.211C126.218 149.642 127.196 149.357 128.206 149.357C130.311 149.357 131.842 150.141 132.798 151.709C133.765 153.267 134.35 155.861 134.554 159.492L134.828 164.133C134.85 164.423 134.914 164.568 135.021 164.568C135.29 164.568 135.51 164.665 135.682 164.858C135.865 165.051 135.956 165.282 135.956 165.551V167.146C135.956 167.415 135.865 167.646 135.682 167.839C135.51 168.032 135.29 168.129 135.021 168.129H129.414C129.146 168.129 128.92 168.032 128.737 167.839C128.565 167.646 128.479 167.415 128.479 167.146V165.551C128.479 165.282 128.565 165.051 128.737 164.858C128.92 164.665 129.146 164.568 129.414 164.568C129.521 164.568 129.586 164.423 129.607 164.133C129.844 160.523 129.962 158.445 129.962 157.897C129.962 156.393 129.817 155.152 129.527 154.175C129.151 152.864 128.528 152.209 127.658 152.209C126.927 152.209 126.229 152.649 125.563 153.53C126.046 155.045 126.358 157.032 126.498 159.492L126.771 164.133C126.793 164.423 126.863 164.568 126.981 164.568C127.25 164.568 127.47 164.665 127.642 164.858C127.824 165.051 127.916 165.282 127.916 165.551V167.146C127.916 167.415 127.824 167.646 127.642 167.839C127.47 168.032 127.25 168.129 126.981 168.129H121.357C121.089 168.129 120.863 168.032 120.681 167.839C120.509 167.646 120.423 167.415 120.423 167.146V165.551C120.423 165.282 120.509 165.051 120.681 164.858C120.863 164.665 121.089 164.568 121.357 164.568C121.476 164.568 121.545 164.423 121.567 164.133C121.792 160.48 121.905 158.391 121.905 157.865C121.905 156.372 121.766 155.142 121.486 154.175C121.1 152.864 120.477 152.209 119.617 152.209C118.994 152.209 118.393 152.531 117.812 153.176ZM144.399 168.645C141.982 168.645 140.146 167.764 138.889 166.002C137.761 164.412 137.197 162.382 137.197 159.911C137.197 157.773 137.481 155.915 138.051 154.336C138.62 152.757 139.447 151.538 140.532 150.678C141.617 149.808 142.928 149.373 144.464 149.373C145.57 149.373 146.537 149.685 147.364 150.308C148.202 150.92 148.852 151.715 149.314 152.692C149.787 153.67 150.023 154.69 150.023 155.754C150.023 157.086 149.744 158.262 149.185 159.283C148.626 160.292 147.772 161.082 146.623 161.651C145.484 162.221 144.04 162.505 142.289 162.505C142.557 164.192 143.288 165.035 144.48 165.035C144.985 165.035 145.388 164.847 145.688 164.471C146 164.095 146.22 163.649 146.349 163.134C146.446 162.726 146.575 162.484 146.736 162.409C146.908 162.333 147.058 162.296 147.187 162.296C147.391 162.296 147.644 162.344 147.944 162.441C148.396 162.591 148.847 162.742 149.298 162.892C149.76 163.042 150.044 163.198 150.152 163.359C150.27 163.51 150.329 163.666 150.329 163.827C150.329 163.934 150.308 164.058 150.265 164.197C149.867 165.637 149.169 166.738 148.17 167.5C147.171 168.263 145.914 168.645 144.399 168.645ZM141.999 158.88C142.987 158.88 143.776 158.708 144.367 158.364C144.969 158.01 145.404 157.564 145.672 157.027C145.941 156.49 146.075 155.931 146.075 155.351C146.075 154.492 145.898 153.74 145.543 153.095C145.2 152.451 144.84 152.128 144.464 152.128C143.948 152.128 143.508 152.467 143.143 153.144C142.777 153.81 142.493 154.658 142.289 155.689C142.095 156.721 141.999 157.784 141.999 158.88ZM169.762 168.129H163.107C162.849 168.129 162.629 168.032 162.446 167.839C162.264 167.646 162.172 167.415 162.172 167.146V165.551C162.172 165.282 162.264 165.051 162.446 164.858C162.629 164.665 162.849 164.568 163.107 164.568C163.225 164.568 163.295 164.423 163.316 164.133C163.939 153.659 164.251 148.315 164.251 148.1C164.251 147.96 164.176 147.891 164.025 147.891C163.778 147.891 163.214 148.084 162.333 148.471C161.227 148.954 160.47 149.196 160.062 149.196C159.804 149.196 159.61 149.11 159.481 148.938C159.363 148.766 159.304 148.573 159.304 148.358V146.005C159.304 145.737 159.39 145.511 159.562 145.329C159.745 145.135 159.97 145.039 160.239 145.039H172.63C172.898 145.039 173.124 145.135 173.307 145.329C173.489 145.511 173.581 145.737 173.581 146.005V148.358C173.581 148.573 173.516 148.766 173.387 148.938C173.269 149.11 173.076 149.196 172.807 149.196C172.41 149.196 171.668 148.949 170.583 148.455C169.767 148.089 169.198 147.907 168.875 147.907C168.704 147.907 168.618 147.998 168.618 148.181C168.618 148.342 168.935 153.659 169.568 164.133C169.59 164.423 169.654 164.568 169.762 164.568C170.03 164.568 170.25 164.665 170.422 164.858C170.605 165.051 170.696 165.282 170.696 165.551V167.146C170.696 167.415 170.605 167.646 170.422 167.839C170.25 168.032 170.03 168.129 169.762 168.129ZM179.107 168.645C176.69 168.645 174.854 167.764 173.597 166.002C172.469 164.412 171.905 162.382 171.905 159.911C171.905 157.773 172.189 155.915 172.759 154.336C173.328 152.757 174.155 151.538 175.24 150.678C176.325 149.808 177.636 149.373 179.172 149.373C180.278 149.373 181.245 149.685 182.072 150.308C182.91 150.92 183.56 151.715 184.022 152.692C184.495 153.67 184.731 154.69 184.731 155.754C184.731 157.086 184.452 158.262 183.893 159.283C183.334 160.292 182.48 161.082 181.331 161.651C180.192 162.221 178.748 162.505 176.997 162.505C177.265 164.192 177.996 165.035 179.188 165.035C179.693 165.035 180.096 164.847 180.396 164.471C180.708 164.095 180.928 163.649 181.057 163.134C181.154 162.726 181.283 162.484 181.444 162.409C181.616 162.333 181.766 162.296 181.895 162.296C182.099 162.296 182.352 162.344 182.652 162.441C183.104 162.591 183.555 162.742 184.006 162.892C184.468 163.042 184.752 163.198 184.86 163.359C184.978 163.51 185.037 163.666 185.037 163.827C185.037 163.934 185.016 164.058 184.973 164.197C184.575 165.637 183.877 166.738 182.878 167.5C181.879 168.263 180.622 168.645 179.107 168.645ZM176.707 158.88C177.695 158.88 178.484 158.708 179.075 158.364C179.677 158.01 180.112 157.564 180.38 157.027C180.649 156.49 180.783 155.931 180.783 155.351C180.783 154.492 180.606 153.74 180.251 153.095C179.908 152.451 179.548 152.128 179.172 152.128C178.656 152.128 178.216 152.467 177.851 153.144C177.485 153.81 177.201 154.658 176.997 155.689C176.803 156.721 176.707 157.784 176.707 158.88ZM191.756 168.645C190.564 168.645 189.581 168.397 188.808 167.903C188.034 167.398 187.459 166.749 187.083 165.954C186.708 165.159 186.52 164.315 186.52 163.424C186.52 162.403 186.756 161.41 187.229 160.443C187.701 159.476 188.394 158.681 189.307 158.058C190.22 157.435 191.332 157.124 192.643 157.124C193.395 157.124 194.125 157.269 194.834 157.559C194.909 156.022 194.947 155.088 194.947 154.755C194.947 153.992 194.802 153.385 194.512 152.934C194.222 152.483 193.851 152.257 193.4 152.257C193.002 152.257 192.605 152.467 192.208 152.886C191.81 153.294 191.488 153.928 191.241 154.787C191.133 155.195 190.978 155.448 190.773 155.544C190.677 155.587 190.559 155.609 190.419 155.609C190.279 155.609 189.554 155.437 188.244 155.093C187.857 154.986 187.664 154.771 187.664 154.449C187.664 154.298 187.696 154.132 187.76 153.949C188.297 152.359 189.087 151.199 190.129 150.469C191.171 149.738 192.353 149.373 193.674 149.373C195.285 149.373 196.612 149.867 197.654 150.855C198.696 151.833 199.276 153.213 199.394 154.997L199.877 164.133C199.91 164.423 199.985 164.568 200.103 164.568C200.361 164.568 200.581 164.665 200.764 164.858C200.946 165.051 201.038 165.282 201.038 165.551V167.146C201.038 167.415 200.946 167.646 200.764 167.839C200.581 168.032 200.361 168.129 200.103 168.129H194.318C193.491 168.473 192.637 168.645 191.756 168.645ZM192.079 165.051C192.508 165.051 192.954 164.847 193.416 164.439C193.878 164.02 194.265 163.445 194.576 162.715L194.689 160.588C194.173 160.18 193.647 159.976 193.11 159.976C192.562 159.976 192.127 160.137 191.805 160.459C191.482 160.771 191.251 161.168 191.112 161.651C190.972 162.124 190.902 162.602 190.902 163.085C190.902 164.396 191.294 165.051 192.079 165.051Z" fill="black"/>
<path d="M38.4712 213.092H29.1108C28.8911 213.092 28.7065 213.018 28.5571 212.868C28.4077 212.71 28.333 212.521 28.333 212.301V210.983C28.333 210.561 28.5747 209.985 29.0581 209.256C29.5503 208.526 30.1392 207.713 30.8247 206.817C31.5103 205.912 32.187 204.971 32.855 203.996C33.5229 203.02 34.0854 202.044 34.5425 201.069C34.9995 200.093 35.228 199.175 35.228 198.313C35.228 196.802 34.7798 196.046 33.8833 196.046C33.5669 196.046 33.3032 196.129 33.0923 196.296C32.8813 196.455 32.71 196.657 32.5781 196.903C32.4463 197.149 32.3452 197.404 32.2749 197.667C32.187 198.001 32.0596 198.208 31.8926 198.287C31.8135 198.322 31.7168 198.34 31.6025 198.34C31.4883 198.34 30.7632 198.164 29.4272 197.812C29.1108 197.733 28.9526 197.562 28.9526 197.298C28.9526 197.167 28.979 197.026 29.0317 196.876C29.2778 196.156 29.6558 195.567 30.1655 195.11C30.6841 194.644 31.2817 194.301 31.9585 194.082C32.644 193.853 33.3472 193.739 34.0679 193.739C35.1841 193.739 36.0938 193.95 36.7969 194.372C37.5088 194.793 38.0317 195.365 38.3657 196.085C38.6997 196.797 38.8667 197.606 38.8667 198.511C38.8667 201.763 37.1616 205.657 33.7515 210.192C34.3667 210.192 35.2148 210.095 36.2959 209.902C37.333 209.708 38.0801 209.612 38.5371 209.612C38.7393 209.612 38.9062 209.695 39.0381 209.862C39.1699 210.021 39.2358 210.201 39.2358 210.403V212.301C39.2358 212.521 39.1611 212.71 39.0117 212.868C38.8711 213.018 38.6909 213.092 38.4712 213.092ZM46.5264 213.514C44.3818 213.514 42.8042 212.486 41.7935 210.429C41.0376 208.9 40.6597 207.054 40.6597 204.892C40.6597 203.257 40.875 201.636 41.3057 200.027C41.9648 197.54 42.9668 195.738 44.3115 194.622C44.9883 194.068 45.7266 193.792 46.5264 193.792C47.335 193.792 48.0732 194.073 48.7412 194.635C49.418 195.189 50.0112 195.936 50.521 196.876C51.0308 197.808 51.4395 198.858 51.7471 200.027C52.0635 201.196 52.248 202.198 52.3008 203.033C52.3623 203.859 52.3931 204.479 52.3931 204.892C52.3931 207.072 52.0239 208.917 51.2856 210.429C50.2661 212.486 48.6797 213.514 46.5264 213.514ZM46.5264 210.614C47.291 210.614 47.8184 209.656 48.1084 207.74C48.2578 206.764 48.3325 205.723 48.3325 204.615C48.3325 202.559 48.1787 200.691 47.8711 199.012C47.5195 197.105 47.0713 196.151 46.5264 196.151C45.999 196.151 45.5552 197.105 45.1948 199.012C44.8872 200.629 44.7334 202.409 44.7334 204.352C44.7334 205.617 44.8081 206.747 44.9575 207.74C45.2388 209.656 45.7617 210.614 46.5264 210.614ZM61.292 213.092H60.6328C60.4131 213.092 60.2812 213.057 60.2373 212.987C60.2021 212.908 60.1846 212.833 60.1846 212.763C60.1846 212.692 61.9775 206.716 65.5635 194.833C65.625 194.613 65.7129 194.455 65.8271 194.358C65.9502 194.253 66.1216 194.2 66.3413 194.2H67.0005C67.2202 194.2 67.3477 194.24 67.3828 194.319C67.4268 194.389 67.4487 194.459 67.4487 194.53C67.4487 194.609 65.6558 200.59 62.0698 212.473C61.9468 212.886 61.6875 213.092 61.292 213.092ZM74.0933 206.58H69.5449C69.3252 206.58 69.1406 206.5 68.9912 206.342C68.8506 206.184 68.7803 205.995 68.7803 205.775V204.998C68.7803 204.778 68.8506 204.593 68.9912 204.444C69.1406 204.286 69.3252 204.207 69.5449 204.207H74.0933C74.313 204.207 74.4932 204.286 74.6338 204.444C74.7832 204.593 74.8579 204.778 74.8579 204.998V205.775C74.8579 205.995 74.7832 206.184 74.6338 206.342C74.4932 206.5 74.313 206.58 74.0933 206.58ZM89.3994 215.109H88.9512C88.7402 215.109 88.5557 215.035 88.3975 214.885C88.2393 214.745 88.1602 214.564 88.1602 214.345V192.948C88.1602 192.728 88.2129 192.548 88.3184 192.407C88.4238 192.258 88.5864 192.183 88.8062 192.183H89.584C89.9971 192.183 90.2036 192.438 90.2036 192.948V214.345C90.2036 214.564 90.1245 214.745 89.9663 214.885C89.8081 215.035 89.6191 215.109 89.3994 215.109ZM109.953 213.092H104.508C104.288 213.092 104.104 213.018 103.954 212.868C103.813 212.71 103.743 212.521 103.743 212.301V210.983C103.743 210.772 103.813 210.587 103.954 210.429C104.104 210.271 104.288 210.192 104.508 210.192C104.596 210.192 104.648 210.073 104.666 209.836L105.352 198.617C105.229 198.731 105.097 198.85 104.956 198.973C104.815 199.087 104.653 199.144 104.468 199.144C104.451 199.144 104.385 199.14 104.271 199.131C104.156 199.122 104.024 199.039 103.875 198.88L103.348 198.287C103.207 198.129 103.137 197.953 103.137 197.76C103.137 197.742 103.137 197.681 103.137 197.575C103.146 197.47 103.229 197.342 103.387 197.193L106.512 194.398C106.644 194.275 106.793 194.213 106.96 194.213H108.041C108.261 194.213 108.441 194.288 108.582 194.438C108.731 194.587 108.814 194.776 108.832 195.004L109.781 209.836C109.799 210.073 109.856 210.192 109.953 210.192C110.172 210.192 110.353 210.271 110.493 210.429C110.643 210.587 110.717 210.772 110.717 210.983V212.301C110.717 212.521 110.643 212.71 110.493 212.868C110.353 213.018 110.172 213.092 109.953 213.092ZM117.283 210.587C117.933 210.587 118.412 210.354 118.72 209.889C119.036 209.414 119.194 208.821 119.194 208.109C119.194 207.599 119.076 207.151 118.838 206.764C118.583 206.342 118.232 205.942 117.784 205.564C117.388 205.248 116.848 204.848 116.162 204.365C115.151 205.666 114.646 206.949 114.646 208.214C114.646 208.917 114.879 209.489 115.345 209.928C115.819 210.368 116.465 210.587 117.283 210.587ZM119.313 201.623C119.893 200.638 120.183 199.654 120.183 198.669C120.183 196.947 119.401 196.085 117.836 196.085C117.467 196.085 117.116 196.16 116.782 196.31C116.457 196.45 116.188 196.666 115.978 196.956C115.775 197.246 115.674 197.597 115.674 198.01C115.674 198.836 116.584 199.83 118.403 200.99C118.711 201.192 119.014 201.403 119.313 201.623ZM117.691 213.541C116.566 213.541 115.564 213.352 114.686 212.974C113.815 212.587 113.13 212.046 112.629 211.352C112.137 210.649 111.891 209.818 111.891 208.86C111.891 207.103 112.818 205.217 114.672 203.205C114.567 203.125 114.466 203.038 114.369 202.941C112.831 201.623 112.062 200.071 112.062 198.287C112.062 197.329 112.312 196.512 112.813 195.835C113.314 195.158 113.969 194.64 114.778 194.279C115.586 193.919 116.452 193.739 117.375 193.739C120.829 193.739 122.556 195.264 122.556 198.313C122.556 199.315 122.284 200.331 121.739 201.359C121.475 201.86 121.159 202.334 120.79 202.783C121.422 203.336 121.976 203.974 122.451 204.694C123.101 205.679 123.426 206.905 123.426 208.373C123.426 209.357 123.207 210.24 122.767 211.022C122.336 211.796 121.699 212.411 120.855 212.868C120.012 213.316 118.957 213.541 117.691 213.541ZM130.743 213.514C128.599 213.514 127.021 212.486 126.01 210.429C125.254 208.9 124.876 207.054 124.876 204.892C124.876 203.257 125.092 201.636 125.522 200.027C126.182 197.54 127.184 195.738 128.528 194.622C129.205 194.068 129.943 193.792 130.743 193.792C131.552 193.792 132.29 194.073 132.958 194.635C133.635 195.189 134.228 195.936 134.738 196.876C135.248 197.808 135.656 198.858 135.964 200.027C136.28 201.196 136.465 202.198 136.518 203.033C136.579 203.859 136.61 204.479 136.61 204.892C136.61 207.072 136.241 208.917 135.502 210.429C134.483 212.486 132.896 213.514 130.743 213.514ZM130.743 210.614C131.508 210.614 132.035 209.656 132.325 207.74C132.475 206.764 132.549 205.723 132.549 204.615C132.549 202.559 132.396 200.691 132.088 199.012C131.736 197.105 131.288 196.151 130.743 196.151C130.216 196.151 129.772 197.105 129.412 199.012C129.104 200.629 128.95 202.409 128.95 204.352C128.95 205.617 129.025 206.747 129.174 207.74C129.456 209.656 129.979 210.614 130.743 210.614ZM149.714 200.871C149.758 201.354 150.022 204.343 150.505 209.836C150.523 210.073 150.576 210.192 150.664 210.192C150.883 210.192 151.063 210.271 151.204 210.429C151.354 210.587 151.428 210.776 151.428 210.996V212.301C151.428 212.521 151.354 212.71 151.204 212.868C151.063 213.026 150.883 213.105 150.664 213.105H145.232C145.012 213.105 144.828 213.026 144.678 212.868C144.529 212.71 144.454 212.521 144.454 212.301V210.996C144.454 210.776 144.529 210.587 144.678 210.429C144.828 210.271 145.012 210.192 145.232 210.192C145.32 210.192 145.373 210.073 145.39 209.836C145.917 204.035 146.181 201.034 146.181 200.832C146.181 200.48 146.067 200.304 145.838 200.304C145.619 200.304 145.438 200.229 145.298 200.08C145.166 199.922 145.1 199.733 145.1 199.513V198.973C145.1 198.753 145.175 198.568 145.324 198.419C145.482 198.261 145.671 198.182 145.891 198.182H149.688C150.338 197.892 150.984 197.747 151.626 197.747C153.059 197.747 154.17 198.19 154.961 199.078C155.225 198.841 155.511 198.63 155.818 198.445C156.592 197.979 157.392 197.747 158.218 197.747C159.94 197.747 161.193 198.388 161.975 199.671C162.766 200.946 163.245 203.068 163.412 206.039L163.636 209.836C163.654 210.073 163.707 210.192 163.794 210.192C164.014 210.192 164.194 210.271 164.335 210.429C164.484 210.587 164.559 210.776 164.559 210.996V212.301C164.559 212.521 164.484 212.71 164.335 212.868C164.194 213.026 164.014 213.105 163.794 213.105H159.207C158.987 213.105 158.802 213.026 158.653 212.868C158.512 212.71 158.442 212.521 158.442 212.301V210.996C158.442 210.776 158.512 210.587 158.653 210.429C158.802 210.271 158.987 210.192 159.207 210.192C159.294 210.192 159.347 210.073 159.365 209.836C159.558 206.883 159.655 205.182 159.655 204.734C159.655 203.503 159.536 202.488 159.299 201.688C158.991 200.616 158.481 200.08 157.77 200.08C157.172 200.08 156.601 200.44 156.056 201.161C156.451 202.4 156.706 204.026 156.82 206.039L157.044 209.836C157.062 210.073 157.119 210.192 157.216 210.192C157.436 210.192 157.616 210.271 157.756 210.429C157.906 210.587 157.98 210.776 157.98 210.996V212.301C157.98 212.521 157.906 212.71 157.756 212.868C157.616 213.026 157.436 213.105 157.216 213.105H152.615C152.395 213.105 152.21 213.026 152.061 212.868C151.92 212.71 151.85 212.521 151.85 212.301V210.996C151.85 210.776 151.92 210.587 152.061 210.429C152.21 210.271 152.395 210.192 152.615 210.192C152.711 210.192 152.769 210.073 152.786 209.836C152.971 206.848 153.063 205.138 153.063 204.708C153.063 203.486 152.949 202.479 152.72 201.688C152.404 200.616 151.894 200.08 151.191 200.08C150.681 200.08 150.189 200.344 149.714 200.871ZM171.995 213.105H166.55C166.33 213.105 166.146 213.026 165.996 212.868C165.855 212.71 165.785 212.521 165.785 212.301V210.996C165.785 210.776 165.855 210.587 165.996 210.429C166.146 210.271 166.33 210.192 166.55 210.192C166.646 210.192 166.704 210.073 166.721 209.836C167.24 201.363 167.499 197.03 167.499 196.837C167.499 196.503 167.389 196.336 167.169 196.336C166.95 196.336 166.77 196.261 166.629 196.112C166.488 195.954 166.418 195.765 166.418 195.545V195.004C166.418 194.785 166.497 194.6 166.655 194.451C166.813 194.292 167.002 194.213 167.222 194.213H170.096C170.307 194.213 170.487 194.292 170.637 194.451C170.786 194.6 170.87 194.785 170.887 195.004L171.836 209.836C171.854 210.073 171.907 210.192 171.995 210.192C172.214 210.192 172.395 210.271 172.535 210.429C172.685 210.587 172.759 210.776 172.759 210.996V212.301C172.759 212.521 172.685 212.71 172.535 212.868C172.395 213.026 172.214 213.105 171.995 213.105ZM187.301 215.109H186.853C186.642 215.109 186.457 215.035 186.299 214.885C186.141 214.745 186.062 214.564 186.062 214.345V192.948C186.062 192.728 186.114 192.548 186.22 192.407C186.325 192.258 186.488 192.183 186.708 192.183H187.485C187.898 192.183 188.105 192.438 188.105 192.948V214.345C188.105 214.564 188.026 214.745 187.868 214.885C187.709 215.035 187.521 215.109 187.301 215.109ZM207.854 213.092H202.409C202.189 213.092 202.005 213.018 201.855 212.868C201.715 212.71 201.645 212.521 201.645 212.301V210.983C201.645 210.772 201.715 210.587 201.855 210.429C202.005 210.271 202.189 210.192 202.409 210.192C202.497 210.192 202.55 210.073 202.567 209.836L203.253 198.617C203.13 198.731 202.998 198.85 202.857 198.973C202.717 199.087 202.554 199.144 202.37 199.144C202.352 199.144 202.286 199.14 202.172 199.131C202.058 199.122 201.926 199.039 201.776 198.88L201.249 198.287C201.108 198.129 201.038 197.953 201.038 197.76C201.038 197.742 201.038 197.681 201.038 197.575C201.047 197.47 201.13 197.342 201.289 197.193L204.413 194.398C204.545 194.275 204.694 194.213 204.861 194.213H205.942C206.162 194.213 206.342 194.288 206.483 194.438C206.632 194.587 206.716 194.776 206.733 195.004L207.683 209.836C207.7 210.073 207.757 210.192 207.854 210.192C208.074 210.192 208.254 210.271 208.395 210.429C208.544 210.587 208.619 210.772 208.619 210.983V212.301C208.619 212.521 208.544 212.71 208.395 212.868C208.254 213.018 208.074 213.092 207.854 213.092ZM221.829 213.541C219.948 213.541 218.502 212.789 217.491 211.286C216.595 209.977 216.146 208.342 216.146 206.382C216.146 204.729 216.388 203.253 216.872 201.952C217.364 200.651 218.062 199.627 218.968 198.88C219.882 198.133 220.967 197.76 222.224 197.76C223.296 197.76 224.21 198.05 224.966 198.63C225.731 199.21 226.289 199.948 226.641 200.845C226.702 200.994 226.733 201.135 226.733 201.267C226.733 201.513 226.57 201.68 226.245 201.768C224.883 202.128 224.153 202.308 224.057 202.308C223.951 202.308 223.859 202.291 223.78 202.255C223.613 202.176 223.485 201.97 223.397 201.636C223.266 201.1 223.116 200.695 222.949 200.423C222.782 200.15 222.541 200.014 222.224 200.014C221.793 200.014 221.416 200.322 221.09 200.937C220.765 201.552 220.515 202.312 220.339 203.218C220.163 204.123 220.075 205.046 220.075 205.986C220.075 206.865 220.146 207.643 220.286 208.32C220.603 209.84 221.209 210.601 222.105 210.601C222.87 210.601 223.38 210.082 223.635 209.045C223.723 208.711 223.833 208.513 223.964 208.452C224.105 208.39 224.228 208.359 224.333 208.359C224.5 208.359 224.703 208.399 224.94 208.478C225.309 208.601 225.683 208.724 226.061 208.847C226.438 208.961 226.671 209.084 226.759 209.216C226.847 209.348 226.891 209.48 226.891 209.612C226.891 209.7 226.874 209.801 226.838 209.915C226.17 212.332 224.5 213.541 221.829 213.541ZM232.389 213.554C231.334 213.554 230.473 213.29 229.805 212.763C229.146 212.227 228.658 211.523 228.341 210.653C228.034 209.783 227.88 208.847 227.88 207.845C227.88 206.852 227.977 205.736 228.17 204.497C228.372 203.257 228.618 202.11 228.908 201.056C228.943 200.941 228.961 200.84 228.961 200.752C228.961 200.656 228.943 200.572 228.908 200.502C228.838 200.37 228.737 200.304 228.605 200.304C228.376 200.304 228.192 200.229 228.051 200.08C227.919 199.922 227.854 199.733 227.854 199.513V198.973C227.854 198.753 227.928 198.568 228.078 198.419C228.236 198.261 228.425 198.182 228.645 198.182H232.586C232.806 198.182 232.995 198.261 233.153 198.419C233.312 198.568 233.391 198.753 233.391 198.973V199.513C233.391 199.733 233.32 199.922 233.18 200.08C233.039 200.229 232.854 200.304 232.626 200.304C232.521 200.304 232.455 200.344 232.428 200.423C232.384 200.546 232.283 201.144 232.125 202.216C231.976 203.279 231.901 204.8 231.901 206.777C231.901 207.683 231.962 208.403 232.085 208.939C232.208 209.476 232.362 209.862 232.547 210.1C232.74 210.337 232.938 210.456 233.14 210.456C233.483 210.456 233.76 210.284 233.971 209.941C234.182 209.599 234.313 209.172 234.366 208.663C234.946 203.547 235.236 200.928 235.236 200.805C235.236 200.471 235.122 200.304 234.894 200.304C234.674 200.304 234.494 200.229 234.353 200.08C234.221 199.922 234.155 199.733 234.155 199.513V198.973C234.155 198.753 234.23 198.568 234.379 198.419C234.538 198.261 234.727 198.182 234.946 198.182H238.756C238.976 198.182 239.161 198.261 239.31 198.419C239.468 198.568 239.547 198.753 239.547 198.973V199.513C239.547 199.733 239.477 199.922 239.336 200.08C239.205 200.229 239.024 200.304 238.796 200.304C238.576 200.304 238.466 200.471 238.466 200.805C238.466 200.972 238.73 203.982 239.257 209.836C239.275 210.073 239.328 210.192 239.416 210.192C239.635 210.192 239.815 210.271 239.956 210.429C240.105 210.587 240.18 210.776 240.18 210.996V212.301C240.18 212.521 240.105 212.71 239.956 212.868C239.815 213.026 239.635 213.105 239.416 213.105H234.458C233.729 213.404 233.039 213.554 232.389 213.554ZM246.363 213.119L246.469 214.912C246.486 215.158 246.543 215.281 246.64 215.281C246.86 215.281 247.04 215.355 247.181 215.505C247.33 215.663 247.405 215.852 247.405 216.072V217.39C247.405 217.601 247.33 217.786 247.181 217.944C247.04 218.102 246.86 218.181 246.64 218.181H241.617C241.397 218.181 241.213 218.102 241.063 217.944C240.923 217.786 240.853 217.601 240.853 217.39V216.072C240.853 215.852 240.923 215.663 241.063 215.505C241.213 215.355 241.397 215.281 241.617 215.281C241.731 215.281 241.793 215.158 241.802 214.912C242.312 205.789 242.566 201.082 242.566 200.792C242.566 200.467 242.457 200.304 242.237 200.304C242.017 200.304 241.837 200.229 241.696 200.08C241.556 199.922 241.485 199.733 241.485 199.513V198.973C241.485 198.753 241.564 198.568 241.723 198.419C241.881 198.261 242.07 198.182 242.29 198.182H244.742C244.961 198.182 245.146 198.256 245.295 198.406C245.357 198.476 245.41 198.551 245.454 198.63L245.744 198.445C246.491 197.979 247.291 197.747 248.143 197.747C248.952 197.747 249.672 198.006 250.305 198.524C250.938 199.034 251.474 199.72 251.914 200.581C252.362 201.442 252.7 202.418 252.929 203.508C253.166 204.589 253.285 205.701 253.285 206.843C253.285 208.733 252.894 210.293 252.111 211.523C251.25 212.877 250.028 213.554 248.446 213.554C247.849 213.554 247.207 213.426 246.521 213.171L246.363 213.119ZM245.691 201.609L246.1 208.663C246.302 209.172 246.574 209.599 246.917 209.941C247.26 210.284 247.603 210.456 247.945 210.456C248.675 210.456 249.136 209.757 249.33 208.359C249.417 207.656 249.461 206.848 249.461 205.934C249.461 205.072 249.4 204.198 249.277 203.31C249.163 202.422 248.969 201.662 248.697 201.029C248.433 200.396 248.104 200.08 247.708 200.08C246.996 200.08 246.324 200.59 245.691 201.609Z" fill="black"/>
<path d="M79.5405 34.8998C80.2548 32.7893 81.9385 31.0759 83.265 29.249C82.64 33.7084 82.2701 38.1904 81.8619 42.6838C80.7267 40.1875 79.2089 37.6572 79.5405 34.8998Z" fill="#8AA56D"/>
<path d="M33.5458 78.6196C35.2933 77.0083 37.653 79.8337 36.0968 81.2407C34.2218 83.0903 31.6581 80.0833 33.5458 78.6196Z" fill="#D7D1CA"/>
<path d="M200.472 86.8804C202.538 88.503 204.617 90.1369 206.722 91.7709C205.918 97.0472 205.791 102.755 202.602 107.43C198.763 111.56 192.283 111.912 186.849 113.126C158.036 115.384 129.171 112.366 100.523 109.824C91.6964 109.404 88.7882 100.758 86.6836 94.5168C88.9668 94.7551 91.2754 95.0388 93.5841 95.2884C95.3826 99.1691 97.9591 103.765 103.265 104.218C117.232 105.739 131.339 106.147 145.293 107.793C149.362 108.315 153.508 108.53 157.628 108.303C169.286 109.563 181.671 108.451 192.398 104.026C199.541 100.86 199.643 92.9737 200.472 86.8804Z" fill="#D7D1CA"/>
<path d="M58.4565 73.0371C59.056 72.2882 59.681 71.5393 60.306 70.8018C62.0918 73.6158 63.9412 76.4185 65.3188 79.4368C63.6606 78.461 62.079 77.4511 60.4846 76.4412C59.8086 75.2952 59.1326 74.1605 58.4565 73.0371Z" fill="#E9E2DB"/>
<path d="M161.582 36.2617C172.372 34.605 182.64 29.7372 193.801 30.4975C199.745 30.8719 200.14 37.4985 200.127 41.538C197.436 45.8839 192.627 48.9929 187.627 51.024C181.122 51.2056 174.579 51.4439 168.074 50.99C160.306 50.5021 152.959 47.6427 145.127 47.5746C135.599 47.1321 125.485 47.9377 116.569 44.3748C110.906 42.0827 109.031 36.3752 108.967 31.2691C109.694 31.2123 111.161 31.0875 111.888 31.0194C127.628 36.3638 144.834 39.1778 161.582 36.2617Z" fill="#A7C097"/>
<path d="M110.918 2.9697C127.461 1.57402 144.132 1.88037 160.701 2.81082C174.872 3.77531 189.132 4.78516 203.01 7.67863C201.62 10.5494 199.477 13.2046 195.982 14.1805C180.204 20.1263 162.678 20.7844 145.778 20.1149C129.145 18.6852 112.015 17.9703 96.39 12.2401C93.8518 11.4799 92.2447 9.52819 90.6758 7.75807C96.8748 4.6944 103.954 3.66186 110.918 2.9697Z" fill="#F9EDE2"/>
<path d="M209.631 29.9753C211.2 30.2136 212.756 30.5541 214.299 30.9966C216.059 32.6646 216.213 35.2857 218.049 36.8743C224.172 40.0968 231.761 38.8827 238.164 41.4471C247.437 44.7831 253.47 53.2479 253.955 62.0191C254.695 71.2442 254.019 82.2053 245.307 88.5255C238.866 93.6884 229.707 92.9508 221.735 93.9948L221.621 93.9608C217.883 92.7693 214.057 91.8616 210.179 91.2035C210.077 89.3879 210.001 87.5724 209.963 85.7682C209.95 85.1441 209.937 83.8847 209.937 83.2606C217.424 82.6138 225.906 84.747 232.501 80.5827C239.299 76.1687 243.687 67.1479 238.955 60.249C234.924 54.2805 228.266 49.1744 220.383 47.9943C215.613 47.0071 213.674 51.6253 210.715 53.9401C210.256 45.9518 209.95 37.9636 209.631 29.9753Z" fill="#FBEFE3"/>
<path d="M203.24 26.0949C204.121 25.9814 205.868 25.7658 206.735 25.6523C208.61 47.6427 208.674 69.7806 206.723 91.771C204.618 90.137 202.539 88.5031 200.473 86.8805C202.794 69.7579 204.299 52.3517 202.118 35.1724C202.501 32.1428 202.947 29.1245 203.24 26.0949Z" fill="#FDF5EB"/>
<path d="M44.5664 95.6061C44.6812 93.6998 42.3088 90.5794 45.4338 89.8872C47.4491 91.4417 48.5588 93.6317 49.7577 95.7196C48.023 95.6628 46.2884 95.6288 44.5664 95.6061Z" fill="#D9D3CD"/>
<path d="M107.781 1.17675C136.314 -1.30823 165.166 0.393808 193.496 3.93405C197.513 4.77373 202.411 4.53546 205.447 7.36085C208.623 13.8286 208.189 21.1133 209.325 28.0009C211.314 28.3413 213.432 28.5115 215.294 29.3285C218.483 30.7015 217.73 35.4105 221.467 36.1367C227.794 38.043 234.924 37.3281 240.868 40.3464C249.49 44.3405 255.345 52.3174 256.149 60.9411C256.952 68.8839 256.812 77.5189 252.016 84.554C248.623 89.4786 243.049 93.3593 236.569 94.3692C233.049 94.8911 229.478 95.1521 225.932 95.5152C221.48 95.9464 217.973 98.5562 213.967 100.065C211.876 99.7817 209.975 98.9193 208.049 98.2498C207.246 102.369 206.608 107.044 202.947 110.051C197.871 113.591 191.212 114.385 185.013 115.077C185.473 114.589 186.391 113.614 186.85 113.126C192.284 111.912 198.763 111.56 202.603 107.43C205.791 102.755 205.919 97.0471 206.723 91.7708C208.674 69.7804 208.61 47.6425 206.735 25.6521C206.212 20.4893 205.332 15.3718 204.72 10.2316C202.501 12.9889 199.529 15.2356 195.906 16.3703C175.817 23.7345 153.521 22.6452 132.335 21.102C136.837 21.0339 141.302 20.4892 145.779 20.1148C162.679 20.7843 180.205 20.1262 195.983 14.1804C199.478 13.2045 201.62 10.5493 203.011 7.67853C189.133 4.78506 174.873 3.77521 160.702 2.81072C144.133 1.88027 127.462 1.57392 110.919 2.96959C109.86 2.35686 108.814 1.7668 107.781 1.17675ZM209.631 29.9753C209.95 37.9635 210.256 45.9518 210.715 53.94C213.674 51.6252 215.613 47.0071 220.383 47.9942C228.266 49.1743 234.924 54.2804 238.955 60.2489C243.687 67.1479 239.299 76.1687 232.501 80.5826C225.906 84.7469 217.424 82.6138 209.937 83.2606C209.937 83.8846 209.95 85.1441 209.962 85.7682C209.197 89.1723 209.057 92.6558 208.98 96.1279C210.575 96.8201 212.003 98.1363 213.904 98.1704C216.633 97.0016 219.057 95.3791 221.621 93.9607L221.735 93.9947C229.707 92.9508 238.865 93.6883 245.307 88.5255C254.019 82.2052 254.694 71.2441 253.955 62.019C253.47 53.2479 247.437 44.783 238.164 41.447C231.761 38.8826 224.172 40.0968 218.049 36.8743C216.212 35.2857 216.059 32.6645 214.299 30.9965C212.756 30.554 211.2 30.2136 209.631 29.9753ZM213.368 54.7116C212.679 54.9159 211.314 55.3357 210.626 55.54C210.485 64.0729 210.575 72.6171 209.924 81.1387C217.309 80.56 225.957 82.8974 232.182 78.2225C237.169 74.4099 240.702 67.545 237.258 61.985C233.802 56.2889 227.807 51.126 220.422 50.0934C216.837 49.2197 215.307 52.7826 213.368 54.7116Z" fill="#1A0E0B"/>
<path d="M88.6097 7.27006C93.4949 2.69724 101.186 2.27741 107.781 1.17676C108.814 1.7668 109.86 2.35686 110.918 2.96959C103.954 3.66176 96.875 4.6943 90.676 7.75797C92.2449 9.52809 93.852 11.4798 96.3903 12.24C112.015 17.9702 129.145 18.6851 145.778 20.1148C141.301 20.4893 136.837 21.0339 132.334 21.102C123.724 20.3985 115.166 19.2524 106.684 17.7546C106.99 21.5218 107.857 25.255 110.038 28.5569C117.538 30.4632 124.86 32.9936 132.551 34.2758C144.4 36.2047 156.76 35.7509 168.316 32.6986C177.321 30.4632 186.645 27.2407 196.135 28.9428C199.668 29.3286 200.944 32.6532 202.117 35.1722C204.298 52.3515 202.793 69.7577 200.472 86.8802C199.643 92.9735 199.541 100.86 192.398 104.025C181.671 108.451 169.286 109.563 157.628 108.303L157.985 107.94C162.015 105.83 166.888 107.032 171.314 106.499C178.482 105.762 186.046 105.058 192.296 101.609C195.727 99.759 196.913 96.128 197.538 92.8374C199.745 77.0651 200.676 61.1567 200.791 45.271C194.247 51.4664 185.383 55.6534 175.804 56.3456C163.737 57.8661 152.117 53.1231 140.089 53.8833C136.199 54.0195 132.309 54.2464 128.431 54.3371C114.681 54.3939 101.62 48.0964 92.5637 39.1436C92.1811 47.5517 92.9081 55.9371 93.6352 64.3111C94.4515 73.2185 93.1377 82.2279 94.8469 91.0785C95.676 94.5961 96.9643 98.386 100.191 100.78C103.265 102.63 107.168 102.494 110.701 102.902C125.638 103.844 140.523 105.296 155.459 106.227C155.344 106.488 155.115 106.998 155 107.259C151.862 108.178 148.52 107.827 145.293 107.793C131.339 106.147 117.232 105.739 103.265 104.218C97.9592 103.764 95.3826 99.1689 93.5842 95.2883C91.2755 95.0386 88.9668 94.755 86.6837 94.5167C88.7883 100.758 91.6964 109.404 100.523 109.824C129.171 112.365 158.036 115.384 186.849 113.126C186.39 113.614 185.472 114.589 185.013 115.077C158.954 117.438 132.755 114.453 106.798 112.411C101.9 111.889 96.2882 112.138 92.3214 109.097C87.6403 105.035 85.9694 99.1803 83.9923 93.8359C74.4515 94.4259 65.7143 98.5789 56.0714 98.6584C55.9184 101.121 55.676 103.56 55.3699 106.034C58.7882 106.465 63.4566 105.875 65.6122 108.882C67.0281 111.253 64.7577 112.978 62.8571 114.328C63.1505 115.304 63.7372 117.256 64.0179 118.232C62.6403 117.29 61.301 116.382 59.9617 115.44C59.9234 116.042 59.8724 117.233 59.8469 117.835C59.0433 117.585 57.4362 117.086 56.6326 116.836C56.6709 117.857 56.7602 119.9 56.8112 120.921C55.6505 120.183 54.5025 119.401 53.3928 118.652C50.6632 117.971 47.8571 117.846 45.2296 118.958C44.6046 120.047 43.9923 121.171 43.3546 122.271C42.449 120.297 40.3571 119.446 38.3928 118.55C37.1556 119.957 35.7781 121.284 33.7245 121.715C34.1199 120.773 34.8979 118.901 35.2933 117.971C33.9158 118.402 31.1735 119.264 29.8087 119.696C29.7704 118.754 29.6939 116.87 29.6683 115.928C28.7245 115.066 27.8316 114.17 27.0025 113.251C27.7933 110.561 30.2678 108.519 32.8954 107.169C35.6632 105.693 39.0561 106.363 42.0025 105.455C44.6684 102.97 47.3724 100.519 50.2423 98.2158C48.3291 98.0229 46.4158 97.8527 44.5153 97.6938C40.4337 99.4526 35.8801 99.8838 31.4031 99.7363C30.0127 98.8285 27.8061 97.7392 28.0995 95.9691C29.273 93.9947 32.4745 92.9508 32.0918 90.3637C31.7091 87.8673 30.8801 85.4619 30.1148 83.0563C27.1811 83.5102 23.5331 85.8703 20.9439 83.6463C20.9311 81.8081 21.1862 79.9926 21.3903 78.1884C19.5025 77.9161 17.5255 77.9615 15.7525 77.3374C15.1913 75.9985 14.7832 74.6369 14.5408 73.2525C14.8342 69.5875 6.96428 70.7335 9.0051 66.7281C10.051 64.5494 7.44895 63.3807 6.10967 61.985C6.73467 57.5484 2.01531 54.462 0 50.7856C7.93367 48.8453 16.2628 47.3248 24.5153 48.1531C27.1301 44.1023 32.2066 48.6183 35.8418 49.1517C37.4617 47.4383 39.3877 45.9291 40.7015 44.0001C40.3316 39.4159 39.5281 34.7637 40.6888 30.2136C41.8877 23.6324 47.5383 18.2312 47.1173 11.3436C54.5536 12.1039 60.3826 16.983 63.9286 22.5657C70.3316 21.8168 71.8495 29.3172 73.5076 33.4815C74.5153 33.5042 76.5051 33.5609 77.5 33.5836C79.375 30.4405 81.7092 27.5584 83.801 24.5401C85.4081 18.7986 85.4592 12.5804 88.6097 7.27006ZM89.2984 10.4359C88.227 15.4512 86.977 20.4439 86.4541 25.5387C87.0281 25.0848 88.1887 24.177 88.7755 23.7118L89.0944 26.1627C86.5051 28.2733 88.75 31.4845 90.2423 33.5383C91.824 30.5086 94.6046 27.3882 93.1505 23.8706C93.3291 23.7685 93.699 23.5756 93.8903 23.4735C94.7194 24.1203 95.5612 24.7784 96.4158 25.4365C97.2066 23.7799 98.0229 22.1346 98.8393 20.5006C98.2398 20.1602 97.0663 19.4907 96.4796 19.1616C98.3291 18.2539 100.166 17.3348 101.99 16.393C97.4617 14.9633 92.6148 13.7379 89.2984 10.4359ZM51.3903 14.691C51.9898 17.3235 52.6658 19.9786 53.4311 22.5998C54.9745 21.2835 56.5179 19.9673 58.074 18.6624C56.2628 16.8242 53.9923 15.4626 51.3903 14.691ZM46.6454 24.7444C48.3163 28.5456 50.153 32.2788 51.7985 36.1027C53.4821 29.8165 51.9515 23.2579 49.477 17.3008C48.1122 19.5361 45.2168 21.9984 46.6454 24.7444ZM98.5969 24.438C100.702 24.2905 102.819 24.1543 104.936 24.0295C104.694 22.3275 104.464 20.6481 104.235 18.9688C102.321 20.7729 100.446 22.5884 98.5969 24.438ZM57.5 21.4651C53.1377 24.7444 54.6939 30.259 54.8724 34.6729C59.0944 31.7227 65.8546 30.849 67.7296 25.8791C66.0969 25.7089 64.4643 25.5613 62.8571 25.4138C61.301 23.7912 60.3316 18.3333 57.5 21.4651ZM42.4107 33.6403C46.2117 37.1579 48.699 41.5379 51.6454 45.6114C51.7347 43.3534 52.2449 40.9592 51.0459 38.8713C48.903 34.4801 47.3597 29.8732 44.8342 25.6408C43.699 28.2165 42.9974 30.9171 42.4107 33.6403ZM97.7933 27.4563C100.906 27.774 104.043 27.9556 107.194 28.0917C106.773 27.4223 105.944 26.0946 105.523 25.4252C102.844 25.7656 100.153 26.2195 97.7933 27.4563ZM57.8316 35.5693C54.3877 37.9862 54.0561 42.1846 53.8138 45.7816C59.2092 42.8654 65.4209 41.5265 71.0332 39.0982C72.551 35.8757 70.2806 32.3695 69.5918 29.1583C65.6505 31.2689 61.4796 33.0617 57.8316 35.5693ZM79.5408 34.8999C79.2092 37.6572 80.727 40.1876 81.8622 42.6839C82.2704 38.1905 82.6403 33.7084 83.2653 29.2491C81.9388 31.0759 80.2551 32.7894 79.5408 34.8999ZM95.2806 29.2264C94.5918 31.6774 92.7551 34.3552 94.5025 36.7835C98.3418 43.603 106.633 47.0411 114.056 50.048C126.786 55.0974 140.842 50.082 154.018 52.7826C165.051 54.8137 177.334 56.0165 187.628 51.0239C192.628 48.9928 197.436 45.8837 200.128 41.5378C200.14 37.4983 199.745 30.8717 193.801 30.4973C182.64 29.737 172.372 34.6048 161.582 36.2615C144.834 39.1776 127.628 36.3636 111.888 31.0192C106.48 29.6462 100.867 29.3059 95.2806 29.2264ZM85.4209 30.9058C84.8342 34.7864 84.6046 38.7011 84.426 42.6158C85.8929 40.3805 87.6531 38.2359 88.5204 35.7509C88.4821 33.8106 86.4541 32.4716 85.4209 30.9058ZM73.9031 38.1224C71.9643 43.2172 77.653 47.2794 78.0995 52.2947C79.0816 49.9913 81.4413 47.7446 80.4974 45.1348C79.4515 41.9236 77.8188 38.9053 76.5816 35.7736C75.5102 36.3636 74.0306 36.7948 73.9031 38.1224ZM42.8826 37.7593C42.2321 43.8866 44.7066 50.4565 51.3393 53.2024C50.5995 47.4269 47.2576 42.003 42.8826 37.7593ZM85.2296 44.9986C86.8877 44.6242 88.5459 44.2497 90.2168 43.8753C90.2423 41.8215 90.2551 39.7677 90.2296 37.7253C88.4184 40.0627 86.7729 42.5023 85.2296 44.9986ZM54.6811 48.4141C52.1811 51.3302 55.0383 54.5074 56.7092 57.0604C59.7449 54.4279 63.1887 52.1813 66.977 50.4792C66.7602 49.0382 66.5433 47.6084 66.3393 46.2014C67.602 46.3943 68.8648 46.5986 70.1403 46.8028C69.6428 45.4752 69.2219 44.1476 68.5714 42.8995C63.4056 43.0129 58.2398 45.1348 54.6811 48.4141ZM73.5969 46.2355C72.0536 47.3929 70.4592 48.4935 68.8648 49.5941C70.1148 53.5656 71.6454 57.5824 74.8087 60.7142C75.7653 55.869 75.2933 50.8991 73.5969 46.2355ZM84.2092 48.4594C83.9286 49.8778 83.7372 51.3189 83.5969 52.7713C85.7653 52.6465 87.9464 52.533 90.1275 52.4422C90.1275 50.1842 90.1275 47.9375 90.1148 45.7021C88.1505 46.5872 85.6888 46.9389 84.2092 48.4594ZM26.7347 48.4254C27.1046 51.2281 27.3214 54.1329 28.5841 56.7654C31.7474 58.8192 35.7143 59.4546 39.3495 60.612C38.6224 57.503 38.176 54.0648 35.6633 51.6479C32.9082 50.1274 29.7576 49.3559 26.7347 48.4254ZM10.1785 50.8991C11.2755 51.6026 12.3852 52.3174 13.4949 53.0436C10.2934 52.7827 7.09182 52.5103 3.89029 52.3288C4.85968 54.1443 5.68877 56.2321 7.69132 57.4122C11.8367 56.5498 14.4643 53.3727 15.0382 49.7416C13.4183 50.1047 11.7984 50.4906 10.1785 50.8991ZM16.8622 51.909C19.2474 54.462 23.2525 55.0066 26.5561 56.2661C25.4209 54.0875 25.523 50.5473 22.2449 50.0594C20.1913 49.7757 16.0204 48.6751 16.8622 51.909ZM37.9847 49.3672C39.3878 53.3727 40.2423 57.6391 42.6658 61.2928C44.4515 62.802 47.0153 63.1878 49.1837 64.1183C46.875 60.5667 45.8673 56.5839 44.7704 52.6578C42.7933 51.1487 40.3061 50.3317 37.9847 49.3672ZM80.4592 52.1132C78.9158 52.1472 77.8571 54.9159 79.9234 54.9386C81.4796 54.8932 82.5255 52.1132 80.4592 52.1132ZM58.0612 59.6476C58.2908 61.7241 58.8648 63.7665 59.3878 65.8203C63.176 64.5381 67.1811 63.4488 70.3444 61.1227C71.4158 58.3086 68.5459 55.608 67.7806 52.9642C63.6862 53.8606 59.6684 56.0392 58.0612 59.6476ZM83.2525 55.1995C83.2525 58.354 83.2653 61.5198 83.3291 64.6856C85.6888 65.0487 88.0484 65.4345 90.4209 65.8203C90.9183 61.8943 90.778 57.9568 90.2551 54.0535C87.9081 54.4052 85.574 54.791 83.2525 55.1995ZM15.6122 55.6874C13.2908 56.4704 11.2628 57.764 9.17092 58.9214C9.13266 59.6135 9.05609 61.0205 9.01783 61.724C10.1275 62.8133 11.2627 63.914 12.3852 65.026C15.4719 61.6446 19.7066 59.4433 24.1837 57.832C21.5051 56.7087 18.7245 54.8591 15.6122 55.6874ZM47.4362 56.7314C49.9362 61.2021 52.9974 65.5025 57.3469 68.7364C57.028 64.6061 55.6888 60.646 54.0306 56.8221C51.824 56.7994 49.6301 56.7541 47.4362 56.7314ZM77.0918 60.9298C76.3393 63.1878 79.375 63.5396 80.9566 64.3906C81.1607 61.5879 81.2883 58.7965 81.301 56.0165C79.5663 57.3895 76.977 58.5129 77.0918 60.9298ZM12.8826 68.1123C17.028 69.6328 15.4974 74.3418 18.6607 76.441C21.9898 76.0666 22.602 72.4242 24.3622 70.3704C26.8112 65.8656 32.4235 64.1523 37.2959 62.4843C34.2347 61.1908 31.1862 59.6362 27.7423 59.3525C21.4796 59.9766 15.9311 63.1991 12.8826 68.1123ZM60.9694 67.7947C64.2729 72.8441 67.2449 78.1658 71.7602 82.489C71.1862 83.0904 70.625 83.6917 70.0765 84.3158C68.6735 82.6932 67.1301 81.2521 65.3189 80.0266C64.3112 84.259 70.5484 86.9824 74.0306 84.3272C74.6556 84.7583 75.8928 85.6207 76.5178 86.0519C72.9847 78.5061 73.0102 70.3364 73.8775 62.3368C69.6046 64.2204 65.4719 66.3536 60.9694 67.7947ZM26.352 70.9718C23.3546 74.3418 23.5459 78.7785 23.125 82.8294C30.0893 81.3997 33.954 75.8169 38.4694 71.4483C41.5178 68.362 45.9821 66.9096 50.3444 65.9224C42.2066 62.6545 31.7347 64.4019 26.352 70.9718ZM76.1735 64.9919C74.949 72.4809 76.1607 80.2309 79.8086 87.0958C80.1785 88.5823 81.6836 89.0929 83.1632 89.4787C81.9005 81.7287 81.0204 73.9106 81.0204 66.0699C79.4005 65.7068 77.7806 65.3437 76.1735 64.9919ZM83.2143 66.9323C83.6607 72.9348 84.1454 78.9373 84.6939 84.9399C85.1403 86.8802 85.6122 88.8432 86.0587 90.8062C88.1888 91.3395 90.3316 91.8615 92.4872 92.4175C91.0076 84.3272 91.9515 76.112 91.3903 67.9875C90.9566 67.8627 90.102 67.6245 89.6684 67.4996C87.5 67.3635 85.3444 67.1819 83.2143 66.9323ZM35.6122 77.2126C36.8367 77.7913 38.0867 78.336 39.375 78.8579C41.8622 78.3246 40.8163 75.7602 41.2755 74.1603C43.1122 75.4425 44.8979 76.7814 46.6581 78.1771C47.6403 78.1884 49.6173 78.2112 50.6122 78.2225C52.6148 75.9304 54.8087 73.7745 57.0153 71.6526C55.2168 70.1775 53.6607 67.6699 50.8036 68.4415C44.2092 68.5209 39.5025 73.0369 35.6122 77.2126ZM58.4566 73.0369C59.1326 74.1603 59.8087 75.295 60.4847 76.441C62.0791 77.4509 63.6607 78.4608 65.3189 79.4366C63.9413 76.4184 62.0918 73.6156 60.3061 70.8016C59.6811 71.5391 59.0561 72.288 58.4566 73.0369ZM33.5459 78.6196C31.6581 80.0834 34.2219 83.0903 36.0969 81.2408C37.653 79.8337 35.2934 77.0084 33.5459 78.6196ZM54.4005 77.5303C53.2525 79.5274 51.8877 81.4224 50.7143 83.4081C54.4005 84.9059 58.6097 84.4746 62.551 84.554C62.5765 84.0888 62.6148 83.1697 62.6403 82.7159C61.5433 82.6591 59.3622 82.5457 58.2653 82.489C58.8393 81.6947 60 80.1174 60.5867 79.3345C58.9923 79.7884 57.3979 80.2309 55.8291 80.7188C55.3444 79.6408 54.8597 78.5856 54.4005 77.5303ZM41.199 84.2023C39.4643 83.147 37.6403 82.0578 35.4719 82.7499C34.6939 85.0987 37.7934 86.3469 38.9286 88.1284C37.602 88.2418 34.9362 88.4574 33.6097 88.5709C37.2449 90.863 41.5051 88.8319 45.2933 87.9695C46.6964 85.5185 48.5204 83.1357 49.0051 80.3897C47.653 80.5599 46.8877 81.377 46.7219 82.8407C44.4132 82.1939 44.9617 79.3232 43.7882 77.9388C42.4872 79.8678 41.875 82.0464 41.199 84.2023ZM47.3597 88.5596C48.8648 90.3978 50.3826 92.2587 52.0536 94.0174C52.1939 90.8403 54.6683 86.6532 50.3571 84.9058C49.3367 86.1086 48.329 87.3114 47.3597 88.5596ZM55.3316 86.6306C54.8724 89.9439 54.4387 93.2686 53.9413 96.5932C63.801 96.8996 72.7806 92.7692 82.4872 92.0771C79.5408 90.636 76.6581 89.1042 73.801 87.5383C71.0587 87.7652 68.4439 87.1185 65.8673 86.3923C62.3597 86.4263 58.8393 86.8235 55.3316 86.6306ZM44.5663 95.606C46.2883 95.6287 48.0229 95.6627 49.7576 95.7195C48.5586 93.6316 47.449 91.4417 45.4337 89.8871C42.3087 90.5793 44.6811 93.6997 44.5663 95.606ZM34.0561 91.5438C34.4005 93.087 34.7577 94.6301 35.1148 96.196C33.5332 95.9123 31.9515 95.6514 30.3699 95.4131C31.6837 99.4639 37.9592 97.1151 41.301 96.6839C42.0153 94.9252 41.5051 92.9962 41.6071 91.192C40.0638 91.9636 38.6224 92.9054 36.9898 93.5409C35.9821 92.8828 35.0127 92.2246 34.0561 91.5438ZM44.6301 106.476C44.1199 108.757 46.3138 110.743 47.1939 112.819C49.0051 108.167 55.2423 104.979 53.4694 99.4753C50.2168 101.438 46.7857 103.458 44.6301 106.476ZM29.1836 113.228C30.3188 113.148 32.5765 112.978 33.7117 112.899C33.5459 113.897 33.2398 115.894 33.074 116.893C34.8214 115.872 36.4541 114.703 38.227 113.738C39.2092 115.145 40.0893 116.643 41.0331 118.096C41.5051 117.063 42.449 114.998 42.9209 113.965C43.8138 115.202 44.7194 116.462 45.6378 117.721C44.5918 114.192 44.2985 108.53 39.324 107.827C35.2168 107.985 31.3265 110.107 29.1836 113.228ZM51.403 110.187C48.8393 111.843 49.1581 115.838 52.1173 117.052C53.3673 115.792 54.2602 114.317 55.1403 112.853C56.1352 113.693 57.1173 114.544 58.125 115.395C58.2015 114.476 58.3546 112.626 58.4438 111.696C59.9234 110.323 62.3597 111.253 64.2347 110.947C61.1352 107.282 55.3316 108.281 51.403 110.187Z" fill="#252316"/>
<path d="M195.906 16.3704C199.528 15.2357 202.5 12.989 204.719 10.2317C205.332 15.3719 206.212 20.4894 206.735 25.6522C205.867 25.7657 204.12 25.9813 203.24 26.0948C202.946 29.1244 202.5 32.1427 202.117 35.1723C200.944 32.6533 199.668 29.3286 196.135 28.9429C186.645 27.2408 177.321 30.4633 168.316 32.6987C156.76 35.751 144.4 36.2048 132.551 34.2759C124.86 32.9937 117.538 30.4633 110.038 28.557C107.857 25.2551 106.99 21.5219 106.684 17.7547C115.166 19.2525 123.724 20.3986 132.334 21.1021C153.52 22.6453 175.816 23.7346 195.906 16.3704Z" fill="#FAECE2"/>
<path d="M89.2985 10.436C92.6148 13.738 97.4617 14.9635 101.99 16.3932C100.166 17.335 98.3291 18.254 96.4796 19.1618C93.7755 20.478 91.0714 21.8623 88.7755 23.7119C88.1888 24.1771 87.0281 25.0849 86.4541 25.5388C86.9771 20.444 88.227 15.4514 89.2985 10.436Z" fill="#FDF2EB"/>
<path d="M51.3901 14.6909C53.9922 15.4625 56.2626 16.8241 58.0738 18.6623C56.5177 19.9672 54.9743 21.2835 53.431 22.5997C52.6657 19.9786 51.9896 17.3234 51.3901 14.6909Z" fill="#546736"/>
<path d="M46.6454 24.7444C45.2169 21.9984 48.1123 19.5361 49.4771 17.3008C51.9516 23.2579 53.4822 29.8165 51.7985 36.1027C50.1531 32.2788 48.3164 28.5456 46.6454 24.7444Z" fill="#5F7043"/>
<path d="M88.7754 23.7118C91.0713 21.8622 93.7754 20.4779 96.4795 19.1616C97.0662 19.4907 98.2397 20.1602 98.8392 20.5006C98.0229 22.1346 97.2065 23.7799 96.4157 25.4365C95.5611 24.7784 94.7193 24.1203 93.8902 23.4735C93.6989 23.5756 93.329 23.7685 93.1504 23.8706C91.7729 24.6082 90.4208 25.3684 89.0943 26.1627L88.7754 23.7118Z" fill="#3C3C28"/>
<path d="M98.5977 24.438C100.447 22.5884 102.322 20.7729 104.235 18.9688C104.465 20.6481 104.695 22.3275 104.937 24.0295C102.82 24.1543 100.702 24.2905 98.5977 24.438Z" fill="#AFAA8F"/>
<path d="M57.5001 21.465C60.3317 18.3333 61.3011 23.7911 62.8572 25.4137C64.4644 25.5612 66.097 25.7088 67.7296 25.879C65.8546 30.849 59.0944 31.7227 54.8725 34.6729C54.6939 30.2589 53.1378 24.7443 57.5001 21.465Z" fill="#667D49"/>
<path d="M89.095 26.1627C90.4215 25.3684 91.7736 24.6082 93.1511 23.8706C94.6052 27.3882 91.8246 30.5086 90.243 33.5382C88.7506 31.4844 86.5057 28.2732 89.095 26.1627Z" fill="#8A966C"/>
<path d="M42.4106 33.6404C42.9974 30.9172 43.6989 28.2166 44.8341 25.6409C47.3596 29.8733 48.903 34.4802 51.0458 38.8714C52.2448 40.9593 51.7346 43.3535 51.6453 45.6115C48.6989 41.538 46.2117 37.158 42.4106 33.6404Z" fill="#637545"/>
<path d="M97.793 27.4564C100.153 26.2196 102.844 25.7657 105.523 25.4253C105.943 26.0948 106.773 27.4224 107.193 28.0919C104.043 27.9557 100.905 27.7742 97.793 27.4564Z" fill="#51573B"/>
<path d="M57.8318 35.5694C61.4798 33.0618 65.6507 31.269 69.592 29.1584C70.2808 32.3696 72.5512 35.8758 71.0334 39.0983C65.4211 41.5266 59.2094 42.8655 53.814 45.7817C54.0563 42.1847 54.3879 37.9863 57.8318 35.5694Z" fill="#68804E"/>
<path d="M95.2805 29.2266C100.867 29.306 106.48 29.6463 111.888 31.0193C111.161 31.0874 109.694 31.2123 108.967 31.269C109.031 36.3751 110.906 42.0826 116.569 44.3747C125.485 47.9376 135.599 47.132 145.127 47.5745C152.959 47.6426 160.306 50.5021 168.074 50.99C174.579 51.4439 181.122 51.2055 187.627 51.024C177.334 56.0166 165.051 54.8139 154.018 52.7827C140.842 50.0822 126.786 55.0976 114.056 50.0482C106.633 47.0412 98.3417 43.6031 94.5025 36.7836C92.755 34.3553 94.5917 31.6775 95.2805 29.2266Z" fill="#7A9864"/>
<path d="M85.4207 30.9058C86.4538 32.4716 88.4819 33.8106 88.5202 35.7509C87.6528 38.2359 85.8926 40.3805 84.4258 42.6158C84.6044 38.7011 84.8339 34.7864 85.4207 30.9058Z" fill="#909972"/>
<path d="M73.903 38.1225C74.0305 36.7949 75.5101 36.3637 76.5815 35.7737C77.8187 38.9054 79.4514 41.9237 80.4973 45.1349C81.4412 47.7447 79.0815 49.9914 78.0994 52.2948C77.6529 47.2795 71.9642 43.2173 73.903 38.1225Z" fill="#8A9C6C"/>
<path d="M42.8826 37.7593C47.2577 42.003 50.5995 47.4269 51.3393 53.2024C44.7066 50.4565 42.2321 43.8866 42.8826 37.7593Z" fill="#687E49"/>
<path d="M85.2295 44.9987C86.7729 42.5024 88.4183 40.0628 90.2295 37.7253C90.255 39.7678 90.2423 41.8216 90.2167 43.8754C88.5458 44.2498 86.8877 44.6242 85.2295 44.9987Z" fill="#7D7F67"/>
<path d="M92.5645 39.1436C101.621 48.0963 114.682 54.3938 128.432 54.3371C121.021 56.9242 118.521 64.6628 117.934 71.0965C117.233 78.8919 118.61 88.5935 127.246 92.667C136.468 96.5364 146.735 97.8639 156.659 99.6681C170.562 101.983 186.315 101.416 197.539 92.8373C196.914 96.1279 195.728 99.7589 192.297 101.608C186.047 105.058 178.483 105.761 171.315 106.499C166.889 107.032 162.016 105.83 157.985 107.94L157.628 108.303C153.508 108.53 149.363 108.314 145.294 107.793C148.521 107.827 151.863 108.178 155.001 107.259C155.116 106.998 155.345 106.488 155.46 106.227C140.524 105.296 125.639 103.844 110.702 102.902C107.169 102.494 103.266 102.63 100.192 100.78C96.9651 98.3859 95.6768 94.596 94.8477 91.0784C93.1385 82.2278 94.4523 73.2184 93.636 64.3111C92.9089 55.937 92.1819 47.5516 92.5645 39.1436Z" fill="#799866"/>
<path d="M54.6814 48.414C58.2401 45.1347 63.4059 43.0129 68.5717 42.8994C69.2222 44.1476 69.6432 45.4752 70.1406 46.8028C68.8651 46.5985 67.6023 46.3942 66.3396 46.2013C66.5437 47.6084 66.7605 49.0381 66.9773 50.4792C63.1891 52.1812 59.7452 54.4279 56.7095 57.0604C55.0386 54.5073 52.1814 51.3302 54.6814 48.414Z" fill="#647F47"/>
<path d="M73.5969 46.2356C75.2933 50.8992 75.7653 55.8692 74.8086 60.7143C71.6454 57.5825 70.1147 53.5657 68.8647 49.5942C70.4591 48.4936 72.0535 47.393 73.5969 46.2356Z" fill="#889F6A"/>
<path d="M84.2099 48.4594C85.6895 46.939 88.1512 46.5872 90.1155 45.7021C90.1283 47.9375 90.1283 50.1842 90.1283 52.4422C87.9471 52.533 85.766 52.6465 83.5977 52.7713C83.738 51.3189 83.9293 49.8778 84.2099 48.4594Z" fill="#889F64"/>
<path d="M175.804 56.3456C185.383 55.6535 194.247 51.4664 200.791 45.271C200.676 61.1567 199.745 77.0652 197.538 92.8374C186.314 101.416 170.561 101.983 156.658 99.6682C146.735 97.8641 136.467 96.5365 127.245 92.6672C118.61 88.5936 117.232 78.892 117.934 71.0966C118.52 64.6629 121.02 56.9243 128.431 54.3372C132.309 54.2464 136.199 54.0195 140.089 53.8834C152.117 53.1231 163.737 57.8661 175.804 56.3456Z" fill="#AAC39B"/>
<path d="M26.7349 48.4255C29.7578 49.356 32.9083 50.1275 35.6634 51.648C38.1762 54.0649 38.6226 57.5031 39.3496 60.6121C35.7144 59.4548 31.7476 58.8193 28.5843 56.7655C27.3216 54.133 27.1048 51.2282 26.7349 48.4255Z" fill="#749159"/>
<path d="M10.1789 50.8991C11.7988 50.4906 13.4187 50.1048 15.0386 49.7417C14.4646 53.3727 11.8371 56.5499 7.69166 57.4122C5.68911 56.2322 4.86001 54.1443 3.89062 52.3288C7.09216 52.5104 10.2937 52.7827 13.4952 53.0437C12.3855 52.3175 11.2758 51.6026 10.1789 50.8991Z" fill="#585B41"/>
<path d="M16.8621 51.9091C16.0203 48.6752 20.1912 49.7759 22.2448 50.0596C25.5229 50.5475 25.4208 54.0877 26.556 56.2663C23.2524 55.0068 19.2474 54.4622 16.8621 51.9091Z" fill="#74835A"/>
<path d="M37.9849 49.3672C40.3063 50.3317 42.7935 51.1486 44.7705 52.6578C45.8675 56.5838 46.8752 60.5666 49.1838 64.1182C47.0155 63.1878 44.4517 62.8019 42.666 61.2928C40.2425 57.639 39.3879 53.3727 37.9849 49.3672Z" fill="#758E5B"/>
<path d="M80.4597 52.1133C82.5261 52.1133 81.4801 54.8933 79.924 54.9387C77.8577 54.916 78.9164 52.1473 80.4597 52.1133Z" fill="#515544"/>
<path d="M58.0615 59.6477C59.6687 56.0394 63.6865 53.8608 67.7809 52.9644C68.5462 55.6082 71.4161 58.3088 70.3447 61.1228C67.1814 63.4489 63.1763 64.5383 59.3881 65.8205C58.8651 63.7667 58.2911 61.7242 58.0615 59.6477Z" fill="#677E4A"/>
<path d="M83.252 55.1995C85.5734 54.791 87.9076 54.4052 90.2545 54.0535C90.7775 57.9568 90.9178 61.8943 90.4203 65.8203C88.0479 65.4345 85.6882 65.0487 83.3285 64.6856C83.2647 61.5198 83.252 58.354 83.252 55.1995Z" fill="#85A168"/>
<path d="M15.6125 55.6876C18.7247 54.8592 21.5053 56.7088 24.1839 57.8321C19.7069 59.4434 15.4722 61.6448 12.3854 65.0261C11.263 63.9141 10.1278 62.8134 9.01807 61.7241C9.05633 61.0206 9.1329 59.6136 9.17116 58.9215C11.263 57.7641 13.291 56.4705 15.6125 55.6876Z" fill="#8B9A75"/>
<path d="M47.4365 56.7314C49.6304 56.7541 51.8243 56.7995 54.0309 56.8222C55.6891 60.6461 57.0283 64.6062 57.3472 68.7365C52.9977 65.5026 49.9365 61.2021 47.4365 56.7314Z" fill="#78915C"/>
<path d="M77.0925 60.9298C76.9777 58.5129 79.567 57.3896 81.3017 56.0166C81.2889 58.7966 81.1614 61.588 80.9573 64.3906C79.3756 63.5396 76.3399 63.1879 77.0925 60.9298Z" fill="#858962"/>
<path d="M12.8828 68.1123C15.9313 63.1991 21.4798 59.9766 27.7425 59.3525C31.1864 59.6362 34.2349 61.1908 37.2961 62.4843C32.4236 64.1523 26.8114 65.8656 24.3624 70.3704C22.6022 72.4242 21.99 76.0666 18.6609 76.441C15.4976 74.3418 17.0282 69.6328 12.8828 68.1123Z" fill="#A2BB8F"/>
<path d="M26.352 70.972C31.7347 64.4021 42.2067 62.6547 50.3444 65.9226C45.9822 66.9098 41.5179 68.3622 38.4694 71.4485C33.9541 75.8171 30.0893 81.3998 23.125 82.8295C23.5459 78.7787 23.3546 74.342 26.352 70.972Z" fill="#A8BE94"/>
<path d="M76.1735 64.9919C77.7806 65.3437 79.4005 65.7068 81.0204 66.0699C81.0204 73.9107 81.9005 81.7287 83.1633 89.4787C81.6837 89.0929 80.1786 88.5823 79.8087 87.0958C76.1607 80.2309 74.949 72.4809 76.1735 64.9919Z" fill="#FAF3E8"/>
<path d="M89.6678 67.4998C90.1015 67.6246 90.9561 67.8628 91.3898 67.9877C91.951 76.1121 91.0071 84.3273 92.4867 92.4177C90.3311 91.8617 88.1883 91.3397 86.0582 90.8063C85.6117 88.8433 85.1398 86.8803 84.6934 84.94C86.6321 85.2464 88.5582 85.5527 90.5097 85.8705C90.9561 79.7318 91.2112 73.5363 89.6678 67.4998Z" fill="#E4D9CB"/>
<path d="M35.6123 77.2127C39.5026 73.037 44.2092 68.5209 50.8036 68.4415C53.6608 67.6699 55.2169 70.1776 57.0154 71.6527C54.8087 73.7745 52.6149 75.9305 50.6123 78.2226C49.6174 78.2112 47.6404 78.1885 46.6582 78.1771C44.898 76.7815 43.1123 75.4426 41.2756 74.1604C40.8164 75.7603 41.8623 78.3247 39.3751 78.858C38.0868 78.336 36.8368 77.7914 35.6123 77.2127Z" fill="#A6BC8F"/>
<path d="M54.4006 77.5303C54.8598 78.5855 55.3445 79.6408 55.8292 80.7188C57.398 80.2308 58.9924 79.7883 60.5868 79.3345C60.0001 80.1174 58.8394 81.6947 58.2654 82.4889C59.3623 82.5457 61.5434 82.6591 62.6404 82.7158C62.6149 83.1697 62.5766 84.0888 62.5511 84.554C58.6098 84.4746 54.4006 84.9058 50.7144 83.408C51.8878 81.4223 53.2526 79.5273 54.4006 77.5303Z" fill="#F9F189"/>
<path d="M41.1992 84.2024C41.8752 82.0465 42.4874 79.8679 43.7884 77.939C44.9619 79.3233 44.4134 82.1941 46.7221 82.8409C46.8879 81.3771 47.6532 80.5601 49.0053 80.3899C48.5206 83.1358 46.6966 85.5187 45.2935 87.9696C41.5053 88.832 37.2451 90.8631 33.6099 88.571C34.9364 88.4576 37.6022 88.242 38.9288 88.1285C37.7936 86.347 34.6941 85.0989 35.4721 82.7501C37.6405 82.0579 39.4645 83.1472 41.1992 84.2024Z" fill="#FCFAF7"/>
<path d="M47.3599 88.5595C48.3293 87.3113 49.3369 86.1085 50.3573 84.9058C54.6685 86.6532 52.1941 90.8402 52.0538 94.0174C50.3829 92.2586 48.865 90.3977 47.3599 88.5595Z" fill="#F2ECDE"/>
<path d="M208.979 96.1281C209.056 92.6559 209.196 89.1724 209.962 85.7683C210 87.5725 210.076 89.388 210.178 91.2035C214.056 91.8617 217.883 92.7694 221.62 93.9608C219.056 95.3792 216.633 97.0018 213.903 98.1705C212.003 98.1365 210.574 96.8202 208.979 96.1281Z" fill="#D9D4CC"/>
<path d="M34.0563 91.5439C35.013 92.2247 35.9824 92.8828 36.99 93.541C38.6227 92.9055 40.064 91.9637 41.6074 91.1921C41.5053 92.9963 42.0155 94.9252 41.3012 96.684C37.9594 97.1152 31.6839 99.464 30.3701 95.4132C31.9517 95.6515 33.5334 95.9124 35.115 96.1961C34.7579 94.6302 34.4007 93.0871 34.0563 91.5439Z" fill="#F5E8A0"/>
<path d="M31.4033 99.7363C35.8804 99.8838 40.4339 99.4526 44.5156 97.6938C46.4161 97.8527 48.3293 98.0229 50.2426 98.2158C47.3727 100.519 44.6686 102.97 42.0028 105.455C40.3702 101.393 35.3829 100.916 31.4033 99.7363Z" fill="#E1D9CF"/>
<path d="M44.6302 106.476C46.7858 103.458 50.2169 101.438 53.4695 99.4753C55.2424 104.979 49.0052 108.167 47.194 112.819C46.3139 110.743 44.12 108.757 44.6302 106.476Z" fill="#EDEAE5"/>
<path d="M29.1836 113.228C31.3265 110.107 35.2168 107.986 39.3239 107.827C44.2984 108.53 44.5918 114.192 45.6377 117.721C44.7193 116.462 43.8137 115.202 42.9209 113.965C42.4489 114.998 41.505 117.063 41.0331 118.096C40.0892 116.643 39.2091 115.145 38.227 113.738C36.454 114.703 34.8214 115.872 33.0739 116.893C33.2397 115.894 33.5459 113.897 33.7117 112.899C32.5765 112.978 30.3188 113.148 29.1836 113.228Z" fill="#FCF9F4"/>
<path d="M51.403 110.187C55.3315 108.281 61.1351 107.282 64.2346 110.947C62.3596 111.253 59.9234 110.323 58.4438 111.696C58.3545 112.627 58.2014 114.476 58.1249 115.395C57.1172 114.544 56.1351 113.693 55.1402 112.853C54.2601 114.317 53.3672 115.792 52.1172 117.052C49.1581 115.838 48.8392 111.844 51.403 110.187Z" fill="#F6EB99"/>
</svg>
