<svg width="332" height="387" viewBox="0 0 332 387" fill="none" xmlns="http://www.w3.org/2000/svg">
<g opacity="0.8">
<path d="M127.875 243.112C124.354 248.674 120.407 254.096 118.295 260.387C119.244 260.617 121.115 261.064 122.056 261.283C126.996 257.189 131.52 252.361 137.649 249.975C150.673 244.563 164.043 239.965 177.571 236.01C198.729 229.839 220.887 227.461 241.65 219.896C260.927 212.521 279.383 201.817 292.996 186.05C301.11 176.524 309.616 166.758 313.637 154.69C318.063 140.986 320.833 126.715 321.72 112.346C322.111 106.683 320.805 101.113 320.456 95.4994C320.876 90.5757 323.215 86.0928 324.936 81.5336C331.242 66.5955 336.201 51.1576 341.474 35.8338C339.763 45.7025 336.559 55.2702 335.501 65.2553C333.284 84.7466 333.884 105.273 342.191 123.39C348.75 138.923 361.464 150.608 373.703 161.715C389.752 175.204 404.574 190.043 419.722 204.487C422.024 206.813 424.723 208.663 427.549 210.313C427.997 210.095 428.894 209.641 429.343 209.404C428.635 195.464 429.802 181.453 432.012 167.676C434.092 150.547 434.226 133.25 434.328 116.016C434.217 97.9573 432.888 79.2838 425.101 62.6825C417.431 46.7592 408.494 31.4748 399.102 16.5209C393.361 6.18739 387.435 -4.21434 383.881 -15.5356C383.129 -17.2545 382.249 -18.8964 381.223 -20.4812C380.541 -18.7762 378.908 -17.1399 379.483 -15.1392C380.763 -7.34166 385.638 -0.85014 388.757 6.24972C392.736 13.9417 395.466 22.2736 400.178 29.5674C399.43 30.1914 398.692 30.8255 397.954 31.4408C394.411 29.1793 390.744 25.7294 386.244 26.2327C390.292 29.3475 394.883 31.6082 399.373 33.9947L398.311 31.4819C399.392 31.8611 400.474 32.2403 401.554 32.6383C402.62 35.397 403.783 38.1051 404.858 40.855C396.068 36.0935 387.803 29.8724 377.993 27.3618C381.307 31.6398 386.802 32.8895 391.255 35.5572C396.43 38.0148 400.838 42.0023 406.416 43.5877C406.927 45.0932 407.408 46.6251 407.908 48.1395C404.077 46.1151 400.281 43.9702 396.3 42.2198C396.487 42.855 396.862 44.1064 397.049 44.7415C402.965 48.7852 411.933 50.8654 412.948 59.27C408.346 57.1786 404.096 54.4386 399.623 52.0908C398.15 51.0259 396.366 50.9997 394.66 51.3845C400.773 56.0733 408.185 58.6895 414.269 63.386C416.894 65.3729 417.187 68.8486 417.928 71.8043C411.73 67.743 405.891 62.7595 398.611 60.7373C405.351 68.6959 419.615 70.9743 421.284 82.8203C417.798 80.4019 414.632 77.5593 411.073 75.2403C409.885 74.1554 408.351 74.3526 406.958 74.7286C411.577 78.5307 416.734 81.7147 420.802 86.1626C422.355 87.3175 421.884 89.4041 422.083 91.0602C416.916 87.5828 412.408 83.079 406.651 80.5662C407.202 81.5735 407.444 82.8356 408.36 83.6106C412.893 87.1146 417.911 90.1009 421.872 94.306C423.139 95.802 422.361 97.964 422.667 99.7212C417.017 95.4958 411.73 90.7545 405.855 86.8173C404.383 85.573 402.451 85.358 400.634 85.0936C407.325 91.566 415.718 96.0382 422.113 102.861C423.999 104.877 423.492 107.708 423.253 110.177C417.323 105.896 411.845 101.039 406.058 96.5787C404.746 95.3538 402.972 95.177 401.283 95.1378C408.143 101.923 416.448 107.042 423.488 113.668C422.476 115.967 422.639 118.348 423.449 120.656C417.361 117.707 412.292 113.093 406.267 110.034C406.602 111.34 406.747 112.954 408.192 113.564C412.578 116.7 417.439 119.185 421.463 122.818C423.407 123.912 423.619 125.966 423.325 127.95C417.907 125.298 413.357 120.263 407.166 119.555C410.667 124.006 416.405 125.611 420.734 129.045C423.313 130.113 423.171 132.995 423.709 135.276C417.318 132.771 412.391 127.108 405.408 126.086C410.233 131.271 417.367 133.35 422.549 138.114C423.857 139.253 422.831 140.871 422.707 142.242C417.55 139.965 413.491 133.855 407.499 134.36C412.161 138.514 417.868 141.232 422.705 145.161C422.842 145.982 423.119 147.605 423.267 148.417C416.688 145.9 411.101 139.61 403.733 139.906C409.946 145.111 419.027 146.415 423.697 153.479C418.828 152.032 415.135 147.485 409.822 147.55C413.717 152.044 421.146 153.188 423.176 159.114C419.693 157.546 416.531 155.233 412.794 154.263C415.543 158.808 422.795 159.912 422.889 165.983C420.161 164.887 417.519 163.485 414.589 163.047C417.382 165.828 421.025 167.841 422.967 171.391C421.172 171.09 419.396 170.79 417.62 170.491C419.093 172.321 420.625 174.117 422.175 175.914C422.134 183.081 423.021 190.212 422.895 197.383C416.497 190.456 410.301 183.335 404.253 176.099C401.111 169.98 407.307 163.178 404.529 156.988C402.623 161.8 402.018 166.957 400.865 171.958C399.589 170.613 397.084 169.729 397.547 167.453C397.802 161.395 399.525 155.428 402.336 150.049C403.348 150.774 405.384 152.214 406.397 152.938C404.94 144.336 398.991 137.494 395.578 129.658C397.456 129.832 399.383 129.999 401.277 130.07C399.168 127.983 396.187 127.467 393.683 126.12C392.506 124.243 391.779 122.11 390.894 120.099C394.301 121.36 397.664 122.873 401.244 123.626C398.26 120.426 394.326 118.225 389.871 118.174C387.046 112.273 383.738 106.55 381.728 100.304C382.06 99.6727 382.733 98.4205 383.066 97.7894C380.539 95.8937 378.314 93.5539 377.845 90.3223C380.084 90.3202 382.321 90.6393 384.577 90.6761C381.078 88.3041 376.53 86.7168 375.319 82.2014C376.079 81.5309 377.588 80.1986 378.338 79.5369C376.278 77.8875 374.421 76.0052 374.14 73.2294C377.73 74.738 381.208 76.6836 385.13 77.2589C382.087 74.1123 377.887 72.679 374.448 70.1123C372.885 68.3617 373.662 65.7557 373.245 63.6515C379.144 65.701 383.915 71.1469 390.337 71.3302C385.281 66.8112 378.88 64.3337 373.343 60.5781C373.11 59.7701 372.645 58.1352 372.422 57.3183C374.5 57.618 376.615 57.9389 378.728 58.1368C375.476 55.7612 370.608 53.3888 372.48 48.5179C373.002 48.0214 374.046 47.0286 374.578 46.5233C372.037 44.7117 370.84 40.7356 374.724 39.6366C374.14 38.8539 372.953 37.2873 372.359 36.5134C371.231 22.6418 374.147 8.75802 373.397 -5.10888C370.795 -2.61676 368.533 0.179961 365.994 2.72325C370.012 3.87134 368.431 8.93044 365.775 10.6163C360.967 14.3972 357.249 19.3325 352.547 23.2334C354.601 16.5129 362.124 13.2697 363.869 6.50154C361.214 8.47085 358.761 10.6889 356.222 12.7882C357.756 8.48186 360.024 4.38186 360.697 -0.195465C361.555 -7.28346 369.365 -11.6517 369.227 -18.9813C354.267 -4.94189 341.085 11.6362 333.802 31.0099C330.258 40.8776 326.556 50.7072 323.902 60.8571C322.872 60.8589 321.843 60.842 320.823 60.8351C321.429 63.0927 322.053 65.3516 322.552 67.6499C321.565 66.8137 319.59 65.1601 318.603 64.324C319.045 67.8467 320.165 71.2323 321.212 74.5944C319.708 72.9702 318.183 71.3637 316.638 69.7748C317.176 73.5681 318.471 77.1912 319.691 80.8097C319.457 80.9274 318.98 81.1527 318.737 81.2603C317.67 79.125 316.585 76.9886 315.411 74.9127C315.129 77.3134 314.909 79.7841 312.909 81.4069C314.3 85.1588 315.768 88.8779 317.13 92.6375C316.464 93.3139 315.143 94.6579 314.477 95.3343C313.519 109.784 312.674 124.402 308.804 138.434C305.699 126.574 302.636 114.641 297.767 103.36C295.817 106.592 298.126 110.014 298.938 113.211C302.83 123.646 306.103 134.487 306.709 145.671C306.094 148.703 304.674 151.486 303.376 154.268C301.373 145.953 300.75 137.006 296.334 129.504C295.54 134.971 298.306 139.999 299.311 145.229C300.097 149.444 300.74 153.678 301.851 157.819C300.353 160.03 298.817 162.239 297.238 164.38C295.835 157.047 296.491 149.105 292.724 142.4C291.583 150.859 295.863 159.174 294.303 167.663C293.126 170.943 290.477 173.423 288.336 176.095C287.305 167.491 288.327 158.373 284.551 150.307C283.321 153.971 284.618 157.717 284.956 161.384C285.5 166.434 285.837 171.49 286.022 176.555C286.603 180.559 282.594 182.888 280.413 185.595C279.817 178.351 280.616 170.994 279.307 163.809C278.837 163.015 277.916 161.427 277.454 160.642C277.029 169.59 278.549 178.527 277.868 187.486C276.869 190.466 273.664 191.872 271.499 193.872C270.611 185.995 273.214 177.74 270.418 170.16C268.013 178.738 270.53 187.898 268.151 196.506C266.827 197.746 265.432 198.906 263.967 199.986C263.88 193.056 265.161 185.985 263.3 179.181C260.351 185.27 262.947 192.403 261.334 198.877C261.578 202.699 257.545 203.751 254.792 205.167C255.338 197.625 256.974 190.028 255.65 182.483C254.746 183.796 253.93 185.228 253.978 186.875C253.555 193.045 253.748 199.349 252.06 205.355C251.526 207.712 249.092 208.561 247.061 209.181C246.636 204.167 248.8 199.163 247.343 194.207C244.59 198.806 245.629 204.416 244.017 209.359C243.159 211.753 240.443 211.98 238.377 212.541C238.859 207.847 240.862 203.145 239.475 198.43C237.013 203.217 237.251 208.786 235.327 213.739C234.349 214.122 232.396 214.85 231.409 215.223C231.658 210.166 233.76 204.932 231.716 199.996C229.934 205.25 229.763 210.86 228.614 216.267C227.056 216.397 225.509 216.518 223.953 216.629C224.817 212.309 226.17 207.897 225.18 203.471C221.586 208.225 224.279 216.252 218.279 219.146C218.343 215.693 218.719 212.25 218.679 208.799C216.429 211.852 215.984 215.659 215.156 219.235C213.586 219.269 212.026 219.295 210.466 219.32C210.72 216.748 210.948 214.164 210.816 211.577C208.073 214.674 209.233 220.604 204.575 221.834C203.907 218.297 205.938 214.815 204.787 211.314C202.073 215.292 203.029 222.238 197.189 223.177C197.346 221.118 197.578 219.064 197.584 216.996C194.812 219.477 194.782 224.359 190.393 224.907C190.357 222.751 190.369 220.589 190.277 218.429C188.61 221.235 187.151 224.176 185.165 226.782C183.681 222.864 187.432 219.215 185.786 215.315C182.808 219.295 183.315 226.015 178.185 227.981C177.587 225.913 177.247 223.795 176.764 221.696C175.438 224.466 174.259 227.321 172.769 230.005C172.296 227.595 172.242 225.135 171.921 222.697C170.581 225.249 169.535 227.933 168.131 230.452C163.964 232.138 159.712 233.668 155.584 235.498C155.66 233.51 155.681 231.518 155.653 229.532C153.839 232.111 152.425 234.942 150.838 237.677C150.838 236.61 150.839 234.475 150.838 233.426L149.556 232.779C148.644 234.687 147.813 236.648 146.763 238.481C144.431 240.593 141.184 241.307 138.349 242.528C140.848 236.997 144.434 232.054 147.042 226.586C148.216 224.591 148.923 222.188 150.783 220.689C154.806 219.948 158.913 220.289 162.968 220.089C162.435 222.124 159.264 224.354 161.223 226.413C167.778 224.149 173.075 219.189 179.803 217.341C183.096 214.08 186.89 211.407 190.82 208.97C191.202 211.034 191.545 213.096 192.022 215.147C193.862 210.945 194.32 205.721 198.94 203.44C199.006 206.316 198.567 209.264 199.469 212.06C202.034 207.591 200.704 200.905 206.138 198.438C206.071 201.183 205.928 203.923 206.087 206.682C209.247 202.807 207.814 197.012 211.841 193.636C212.687 197.94 210.805 202.376 212.347 206.581C214.021 202.453 214.262 197.991 215.097 193.679C215.361 190.814 218.361 189.66 220.183 187.875C220.693 189.843 221.175 191.8 221.714 193.761C222.776 190.974 223.19 187.977 224.5 185.291C229.73 180.356 235.537 175.995 241.4 171.817C241.751 174.21 242.216 176.591 243.114 178.857C244.287 173.678 243.471 167.534 248.385 164.015C249.181 166.247 249.911 168.484 250.823 170.666C251.858 165.734 251.097 160.075 255.376 156.441C256.035 157.228 257.354 158.803 258.022 159.6C258.554 155.307 259.197 150.917 262.131 147.491C263.354 149.542 264.614 151.595 265.866 153.638C265.878 148.594 264.88 143.251 268.037 138.829C268.894 139.619 270.617 141.229 271.483 142.029C271.28 137.869 271.361 133.548 274.517 130.353C275.433 132.621 276.359 134.899 277.382 137.126C277.85 133.707 277.253 130.25 277.617 126.834C279.592 122.282 282.919 118.474 285.214 114.083C286.045 114.541 287.707 115.457 288.538 115.915C287.904 112.154 288.402 107.962 286.392 104.597C284.715 105.881 283.152 107.314 281.591 108.709C279.294 108.887 277.004 109.112 274.751 109.482C276.428 110.314 278.125 111.128 279.844 111.887C278.004 114.276 276.2 116.686 274.308 119.014C272.428 122.042 268.435 121.548 265.46 122.59C266.9 123.134 272.633 124.814 268.591 126.46C265.201 127.496 261.599 127.403 258.226 128.459C260.76 129.193 263.352 129.732 265.929 130.375C261.058 135.918 253.033 131.299 247.443 135.362C251.692 135.844 255.984 135.63 260.241 136.141C258.024 138.365 256.094 140.993 253.384 142.638C249.861 142.938 246.28 142.648 242.803 143.404C245.443 144.4 248.21 145.017 250.954 145.708C250.058 146.748 249.11 147.709 248.099 148.619C242.678 149.508 237.121 148.331 231.698 149.4C235.789 151.818 240.725 150.822 245.239 151.463C243.954 152.97 242.68 154.468 241.406 155.966C237.486 154.89 233.236 154.729 229.636 156.875C232.73 157.399 235.861 157.481 238.994 157.686C236.914 159.984 234.736 162.191 232.478 164.308C229.097 164.607 225.674 164.96 222.417 165.985C224.25 166.591 226.085 167.158 227.932 167.68C225.741 169.329 224.142 172.412 221.095 172.487C217.789 172.791 214.413 172.693 211.229 173.761C213.808 174.526 216.48 174.995 219.134 175.463C212.864 180.107 207.494 186.233 200.039 188.989C199.68 189.751 198.989 191.285 198.63 192.047C191.19 198.507 183.441 204.598 175.877 210.919C174.452 212.407 172.312 212.038 170.464 212.14C165.379 212.04 160.246 212.39 155.178 211.706C153.856 209.281 156.023 206.799 156.427 204.415C159.802 204.513 163.254 205.059 166.573 204.104C163.831 202.931 160.881 202.369 157.958 201.819C158.234 200.277 158.52 198.727 158.823 197.197C163.996 197.094 169.303 198.493 174.356 196.843C170.02 194.57 164.936 195.358 160.239 194.791C160.942 192.445 161.749 190.115 162.628 187.827C167.819 188.066 172.981 189.2 178.192 188.656C173.976 185.673 168.586 186.819 163.948 185.151C164.492 183.088 165.258 181.114 165.968 179.118C173.683 179.618 182.12 182.629 189.43 178.862C182.042 177.806 174.42 178.861 167.161 176.642C167.926 174.829 168.701 173.007 169.504 171.196C175.621 171.719 181.737 173.612 187.9 172.494C182.557 169.563 176.21 170.292 170.449 168.761C171.406 166.138 172.409 163.546 173.485 160.977C181.036 162.138 188.5 164.087 196.165 164.329C198.239 164.543 200.186 163.767 202.058 162.986C193.018 161.166 183.645 161.347 174.753 158.667C175.879 156.98 175.824 152.867 178.774 153.731C185.923 155.122 193.183 155.792 200.444 156.462C202.439 156.728 204.406 156.237 206.328 155.714C198.791 152.977 190.55 153.937 182.791 152.178C181.378 151.664 179.205 151.963 178.543 150.307C179.218 148.733 179.957 147.174 180.76 145.665C190.302 146.865 200.199 149.031 209.726 146.83C200.891 143.992 191.323 146.088 182.425 143.36C183.686 141.464 184.965 139.589 186.264 137.696C197.25 139.061 208.139 142.735 219.309 141.448C216.622 138.645 212.557 139.6 209.117 139.027C202.076 138.162 194.995 137.192 188.158 135.188C188.981 134.105 190.6 131.93 191.415 130.838C200.953 132.094 210.585 134.263 220.243 132.995C218.511 131.678 216.484 131.013 214.328 131.048C207.703 130.796 200.997 130.472 194.568 128.748C193.368 126.18 197.068 123.501 199.567 124.016C206.177 124.674 212.725 125.847 219.325 126.514C224.369 126.97 229.466 128.393 234.52 127.33C230.899 124.959 226.468 125.117 222.344 124.596C214.566 123.742 206.709 123.261 199.115 121.267C201.271 119.276 203.217 115.638 206.695 116.355C217.117 118.29 227.862 121.7 238.503 119.671C236.515 118.669 234.343 118.203 232.133 118.055C223.73 117.38 215.282 116.352 207.225 113.772C209.968 111.742 212.686 107.849 216.596 108.773C225.18 110.641 233.69 113.231 242.507 113.771C241.285 112.628 240.009 111.424 238.266 111.202C231.447 109.662 224.495 108.595 217.842 106.357C220.275 105.064 222.565 102.439 225.6 102.996C234.875 104.68 244.305 107.366 253.805 106.362C251.737 105.288 249.609 104.267 247.256 104.121C240.646 103.482 234.027 102.672 227.62 100.893C230.084 99.7148 232.449 97.8408 235.283 97.687C243.941 98.5105 252.679 102.144 261.404 100.384C254.522 97.1394 246.579 98.3161 239.446 95.9157C242.827 93.9634 246.66 91.7181 250.719 92.8309C256.855 93.497 263.21 96.7273 269.318 94.52C263.762 92.4164 257.74 92.343 252.098 90.5647C256.133 88.5682 260.783 87.9324 265.16 89.084C276.939 91.9725 289.118 93.299 301.23 93.261C301.205 92.9099 301.192 92.2101 301.176 91.869C290.34 89.6061 278.836 90.7967 268.272 87.0488C277.596 85.0798 287.3 85.6379 296.556 83.2491C298.893 82.8753 300.419 80.9773 301.974 79.3739C293.106 78.1312 284.156 79.2544 275.243 78.8873C263.164 78.3795 251.042 80.5423 239.901 85.2885C223.31 90.7905 207.625 99.3342 194.622 111.077C182.013 123.61 170.778 138.043 164.644 154.909C159.323 169.937 153.17 184.686 148.542 199.975C143.644 215.199 136.653 229.745 127.875 243.112ZM153.123 213.911C159.021 214.165 164.937 214.119 170.82 214.76C168.984 216.185 167.183 218.396 164.584 217.97C160.338 217.733 156.092 218.101 151.86 217.96C152.191 216.583 152.652 215.251 153.123 213.911ZM315.025 82.3135C318.497 79.4978 316.003 86.6254 315.025 82.3135V82.3135ZM361.067 129.262C364.921 120.472 369.25 111.655 375.473 104.259C376.209 105.637 376.876 107.058 377.456 108.52C376.334 111.964 373.569 115.259 374.956 119.067C376.365 116.614 377.619 114.085 378.974 111.59C379.695 113.355 381.78 115.213 380.363 117.194C376.089 125.59 372.355 134.255 369.795 143.344C368.679 141.999 367.017 140.941 366.464 139.206C367.162 134.215 369.975 129.865 371.564 125.137C366.824 127.524 366.367 133.334 363.824 137.464C361.87 135.169 359.214 132.463 361.067 129.262ZM355.6 124.378C356.996 116.832 361.183 110.292 364.323 103.412C357.181 107.208 356.686 116.501 352.987 122.949C352.052 120.217 349.111 117.389 350.587 114.326C352.74 108.887 357.357 104.688 358.802 98.9304C354.058 102.441 351.826 108.093 348.339 112.665C347.688 110.678 346.837 108.726 346.693 106.63C347.792 98.8671 355.461 94.3389 357.595 87.0849C352.109 90.9841 348.9 96.9997 345.017 102.312C344.608 99.9343 344.098 97.3614 345.645 95.2664C350.944 86.0371 357.211 77.3406 364.487 69.5855C366.549 74.0783 362.528 77.6628 361.864 81.9478C363.029 80.8491 365.356 78.6705 366.52 77.5717C366.855 79.1796 367.255 80.7821 367.427 82.427C366.575 85.7746 363.4 88.061 362.925 91.5927C364.933 89.8381 366.906 88.0435 368.854 86.2002C369.385 88.132 370.088 90.0368 370.227 92.0481C369.27 94.3689 367.836 96.4522 366.605 98.6236C367.045 98.84 367.916 99.2627 368.356 99.4791C369.432 97.9781 370.497 96.5048 371.61 95.025C372.262 97.739 375.595 100.951 372.885 103.502C366.588 111.621 362.329 120.981 358.048 130.255C357.107 128.382 354.64 126.736 355.6 124.378ZM372.427 143.262C374.32 134.567 378.134 126.416 382.543 118.737C386.94 122.006 383.91 126.956 383.333 131.218C384.383 129.971 386.475 127.484 387.516 126.246C388.503 127.828 389.491 129.411 390.469 131.002C390.003 133.174 389.554 135.366 389.153 137.551C390.124 136.837 392.083 135.41 393.053 134.696C393.784 136.612 395.921 138.55 394.664 140.672C391.616 147.293 391.02 154.577 389.607 161.621C388.061 160.211 386.247 159.002 385.142 157.186C384.768 151.362 389.918 146.035 387.886 140.306C385.463 145.077 384.267 150.311 382.536 155.342C381.173 154.18 379.88 152.956 378.656 151.671C378.059 146.4 381.56 141.763 381.735 136.541C378.092 139.969 377.49 145.07 375.751 149.487C374.13 147.751 371.624 145.98 372.427 143.262ZM397.464 141.669C398.756 143.979 401.576 146.469 400.082 149.37C397.423 154.759 396.261 160.657 395.009 166.492C394.229 165.669 392.678 164.032 391.907 163.219C392.716 155.854 393.473 148.108 397.464 141.669ZM354.272 71.7539C349.071 73.5171 346.989 79.1779 343.181 82.6811C342.245 72.3923 353.541 66.9756 355.863 57.9196C350.912 61.72 347.855 67.2633 343.753 71.844C342.487 61.8463 352.79 56.4527 356.748 48.4245C351.348 50.3265 349 56.1691 344.869 59.7088C345.045 56.1208 345.85 52.4585 348.109 49.5577C352.434 43.6779 357.122 37.7262 363.594 34.0774C363.434 36.1928 363.507 38.3512 362.962 40.4143C361.262 42.8399 358.193 44.4811 357.88 47.6922C359.216 46.8687 361.86 45.2105 363.196 44.3869C363.633 47.8432 362.036 50.8704 360.475 53.7958C361.703 54.5432 363.845 54.7335 363.458 56.6931C362.246 60.0749 358.267 62.0749 357.83 65.9112C359.87 64.3948 361.893 62.8584 363.898 61.302C365.432 66.7066 360.419 70.1347 357.622 73.9371C352.385 79.8924 348.605 86.8925 343.712 93.0959C342.051 84.2827 350.852 78.8804 354.272 71.7539ZM358.972 25.9391C355.611 28.7807 352.728 32.1432 349.332 34.9448C350.046 32.59 350.547 30.014 352.234 28.0977C356.665 22.8007 361.401 17.7494 366.332 12.8993C366.811 17.4917 363.559 20.6991 360.661 23.7017C361.663 23.6887 363.677 23.6537 364.689 23.6319C364.357 26.6812 364.331 30.2787 361.375 32.0875C355.919 36.2625 351.742 41.7454 346.756 46.4126C347.14 37.6798 356.978 33.8347 358.972 25.9391Z" fill="#085435" fill-opacity="0.51"/>
<path d="M148.133 227.58C151.032 228.649 154.083 228.197 156.764 226.72C153.86 225.425 150.84 226.275 148.133 227.58Z" fill="#085435" fill-opacity="0.51"/>
<path d="M169.781 205.362C173.615 206.3 177.985 206.658 181.318 204.107C177.442 203.544 173.354 203.507 169.781 205.362Z" fill="#085435" fill-opacity="0.51"/>
<path d="M178.325 198.017C182.226 198.789 186.263 198.729 190.062 197.492C186.346 195.881 181.908 196.152 178.325 198.017Z" fill="#085435" fill-opacity="0.51"/>
<path d="M185.883 189.835C189.722 190.84 193.829 191.021 197.625 189.68C193.863 188.198 189.568 188.148 185.883 189.835Z" fill="#085435" fill-opacity="0.51"/>
<path d="M191.844 180.893C196.538 181.818 201.651 182.071 206.002 179.707C201.294 179.007 196.212 178.709 191.844 180.893Z" fill="#085435" fill-opacity="0.51"/>
<path d="M190.439 172.974C196.239 173.884 202.403 175.326 208.134 173.398C202.47 171.977 196.034 170.669 190.439 172.974Z" fill="#085435" fill-opacity="0.51"/>
<path d="M221.174 194.54C218.739 196.92 218.231 200.374 220.131 203.232C220.893 200.408 221.377 197.491 221.174 194.54Z" fill="#085435" fill-opacity="0.51"/>
<path d="M227.21 186.367C226.838 190.359 224.884 194.733 227.144 198.483C228.324 194.863 228.646 191.057 228.863 187.273C228.452 187.049 227.621 186.591 227.21 186.367Z" fill="#085435" fill-opacity="0.51"/>
<path d="M208.028 164.956C212.322 166.234 216.85 166.649 221.297 165.925C217.597 163.144 212.183 163.316 208.028 164.956Z" fill="#085435" fill-opacity="0.51"/>
<path d="M235.661 179.763C233.02 183.943 232.622 189.416 233.791 194.146C235.577 189.582 236.01 184.612 235.661 179.763Z" fill="#085435" fill-opacity="0.51"/>
<path d="M241.554 179.186C240.32 183.832 239.116 188.896 240.778 193.6C242.115 188.969 243.189 183.879 241.554 179.186Z" fill="#085435" fill-opacity="0.51"/>
<path d="M212.37 156.073C217.26 157.483 222.842 158.105 227.582 155.878C222.582 154.849 217.314 154.662 212.37 156.073Z" fill="#085435" fill-opacity="0.51"/>
<path d="M107.421 31.8806C112.986 32.3222 118.555 31.0165 124.11 31.9297C139.979 33.6092 154.455 40.6618 169.649 44.9819C181.386 48.3874 192.754 53.3284 204.975 54.8843C219.084 56.7656 233.525 56.0417 247.439 53.0271C258.593 50.3316 269.883 46.8228 279.241 39.9155C285.837 35.3392 291.273 29.368 296.666 23.4698C302.31 16.7276 308.138 9.93074 311.586 1.74796C317.331 -1.31325 324.01 -2.06802 329.699 -5.29332C343.542 -12.7805 357.064 -21.3173 368.203 -32.5533C383.763 -48.3313 395.271 -67.4509 407.587 -85.7361C409.791 -82.6135 412.005 -79.4809 414.497 -76.5765C412.089 -77.1896 409.669 -77.7751 407.207 -78.1271C409.22 -76.49 411.328 -74.9889 413.392 -73.3959C409.947 -72.241 406.315 -72.7699 402.776 -72.6695C404.717 -71.5376 406.67 -70.4334 408.631 -69.3192C405.627 -68.8548 402.578 -68.7426 399.575 -68.2971C401.418 -67.2564 403.301 -66.2509 405.121 -65.1361C402.218 -64.4765 399.221 -64.5879 396.265 -64.451C397.935 -63.3644 399.596 -62.269 401.275 -61.1724C398.326 -60.8462 395.364 -60.9176 392.444 -60.5991C394.341 -59.4984 396.331 -58.5523 398.081 -57.2152C395.154 -56.9443 392.252 -56.7663 389.364 -56.3514C391.385 -55.4318 393.426 -54.5299 395.467 -53.628C392.61 -51.1423 388.723 -51.517 385.248 -50.7797C387.311 -49.9331 389.364 -49.0776 391.435 -48.2022C388.8 -46.09 385.377 -46.9458 382.315 -46.6267C384.073 -44.9773 389.495 -43.6094 385.889 -40.7643C383.532 -40.5335 381.169 -40.6714 378.796 -40.6399C380.4 -39.548 382.036 -38.5202 383.681 -37.4824C381.371 -37.3998 379.079 -37.2972 376.786 -37.034C378.509 -36.1897 380.255 -35.4007 382.02 -34.6293C381.564 -33.6753 381.098 -32.7125 380.66 -31.7574C378.032 -32.1764 375.349 -33.0806 372.719 -32.111C375.28 -30.761 377.895 -29.5305 380.391 -28.0523C377.101 -26.6422 373.914 -28.0973 370.838 -29.2055C371.475 -28.2211 372.769 -26.2511 373.417 -25.2755C371.311 -25.4446 369.226 -25.6314 367.138 -25.62C370.368 -22.4428 375.139 -22.7404 379.119 -21.1318C389.772 -40.4749 404.416 -57.1695 420.219 -72.4505C423.852 -75.2656 426.176 -80.1084 424.948 -84.6626C422.343 -89.3877 416.186 -89.8757 411.839 -87.4262C410.843 -89.1793 409.829 -90.9335 408.814 -92.6877C398.495 -80.2197 389.852 -66.4381 379.317 -54.1347C366.473 -39.047 351.84 -25.4029 335.201 -14.5949C327.473 -9.42805 320.052 -3.42958 311.003 -0.725532C305.066 1.93639 298.642 2.69757 292.239 3.28059C280.327 5.54156 268.529 8.41417 256.712 11.125C237.624 15.47 218.158 17.9965 198.637 19.4333C189.508 20.2525 180.322 20.4635 171.167 20.0436C155.344 19.1416 139.423 20.1039 123.847 22.9676C117.547 24.0105 111.592 26.9547 107.421 31.8806ZM134.049 27.0519C143.75 27.6665 153.513 26.679 163.232 27.6159C170.671 28.4483 178.284 27.544 185.607 29.3328C187.722 28.8885 189.865 28.6159 192.036 28.7985C189.091 31.9306 186.065 35.0103 182.653 37.6125C180.847 38.2461 178.965 37.3824 177.153 37.2033C178.242 35.193 179.396 33.1962 180.403 31.1336C177.512 32.9559 174.7 34.887 171.672 36.4741C171.31 35.6202 170.584 33.9312 170.221 33.0774C168.079 33.6522 165.917 34.6887 163.665 34.1515C153.497 32.3837 143.61 28.6969 133.228 28.3988C133.492 27.9524 133.766 27.4972 134.049 27.0519ZM185.091 38.9643C189.876 34.9551 193.708 28.3361 200.55 27.9883C199.889 29.3545 198.576 32.0782 197.914 33.4445C200.61 32.1862 202.592 29.9388 204.913 28.1565C207.145 27.6628 209.45 27.816 211.716 27.6834C206.192 32.0432 201.529 37.7413 195.418 41.2143C192.324 42.5044 192.458 38.3847 193.626 36.7666C190.952 38.149 188.23 39.9819 185.091 38.9643ZM198.963 42.3706C203.544 37.2435 209.271 33.2555 213.476 27.7838C216.022 26.7996 218.831 27.0409 221.507 26.8489C219.495 29.5856 217.126 32.1206 215.822 35.2983C221.264 32.256 224.41 24.3755 231.556 25.5203C230.006 27.9552 227.543 30.0404 227.397 33.1392C230.969 30.5375 233.342 26.718 236.692 23.9041C238.664 23.3375 240.711 23.0779 242.742 22.7795C237.267 29.8345 231.56 36.809 224.924 42.7903C222.843 44.8048 219.74 43.8272 217.209 43.8205C219.344 41.2425 222.065 38.9656 223.212 35.7121C218.054 38.4509 214.735 45.1681 208.084 43.9598C209.742 41.3048 212.293 39.0362 212.843 35.8115C210.035 37.8279 207.638 40.3518 204.927 42.4781C203.024 43.3041 200.93 42.5027 198.963 42.3706ZM228.147 43.6809C233.842 36.2712 240.569 29.7477 246.273 22.348C247.879 20.0771 250.928 20.2673 253.348 19.6248C252.167 21.9127 250.967 24.1806 249.887 26.5031C254.295 25.4934 254.615 19.7699 258.378 17.8886C260.823 16.5486 263.636 16.2895 266.336 15.8628C264.497 19.1394 262.401 22.3054 261.075 25.8407C265.255 22.7385 267.447 17.8875 270.983 14.1973C273.736 12.9237 276.769 12.4517 279.71 11.7944C278.372 14.7716 275.334 17.4349 276.105 20.9876C278.962 17.7368 280.971 13.8474 283.783 10.5654C290.84 7.98271 298.03 5.53115 305.429 4.14114C297.746 13.4295 289.452 22.812 278.918 28.8902C281.831 22.62 288.271 18.1285 289.528 11.1504C282.772 17.2376 278.932 25.7832 272.722 32.3673C270.244 34.8388 266.676 35.5515 263.451 36.5122C265.71 33.3091 268.962 30.7063 270.027 26.7959C265.756 29.5523 262.704 33.6506 259.095 37.1379C256.27 39.8806 252.153 40.2946 248.463 40.8484C250.757 37.2413 255.593 34.8224 255.819 30.1416C251.725 33.3814 248.457 37.4568 244.63 40.9589C242.289 42.9005 239.098 42.5692 236.279 42.639C238.949 39.0553 243.568 36.6323 244.464 31.965C238.509 35.2115 235.43 43.2283 228.147 43.6809ZM413.071 -85.0634C415.697 -84.0021 420.432 -83.8957 419.102 -79.6805C416.783 -81.1194 414.842 -83.0164 413.071 -85.0634Z" fill="#085435" fill-opacity="0.51"/>
<path d="M249.602 173.112C247.451 178.07 247.375 183.686 248.39 188.907C250.307 183.925 250.778 178.334 249.602 173.112Z" fill="#085435" fill-opacity="0.51"/>
<path d="M215.708 148.289C218.528 150.477 222.043 150.167 225.222 149.175C222.302 147.52 218.898 147.572 215.708 148.289Z" fill="#085435" fill-opacity="0.51"/>
<path d="M256.509 163.266C255.263 167.336 255.08 171.641 255.355 175.862C258.053 172.289 258.508 167.264 256.509 163.266Z" fill="#085435" fill-opacity="0.51"/>
<path d="M226.578 142.128C230.629 144.724 235.828 144.529 240.245 143.066C235.855 141.517 231.135 141.61 226.578 142.128Z" fill="#085435" fill-opacity="0.51"/>
<path d="M227.281 132.971C231.019 134.083 235.235 135.394 238.932 133.377C235.158 132.244 231.082 131.555 227.281 132.971Z" fill="#085435" fill-opacity="0.51"/>
<path d="M264.506 159.533C263.082 164.186 262.772 169.154 263.54 173.954C265.734 169.528 266.198 164.21 264.506 159.533Z" fill="#085435" fill-opacity="0.51"/>
<path d="M241.252 127.382C244.963 129.37 249.349 129.483 253.375 128.544C249.697 126.473 245.266 126.328 241.252 127.382Z" fill="#085435" fill-opacity="0.51"/>
<path d="M270.77 146.661C269.039 150.785 269.479 155.394 270.489 159.641C272.295 155.522 272.265 150.854 270.77 146.661Z" fill="#085435" fill-opacity="0.51"/>
<path d="M247.01 120.486C250.532 122.321 254.593 122.649 258.497 122.298C255.164 119.851 250.902 119.718 247.01 120.486Z" fill="#085435" fill-opacity="0.51"/>
<path d="M276.931 140.867C275.985 145.276 276.383 149.958 278.261 154.081C279.629 149.707 279.146 144.888 276.931 140.867Z" fill="#085435" fill-opacity="0.51"/>
<path d="M250.371 114.461C254.975 115.768 259.868 116.839 264.659 115.9C260.258 113.755 255.093 112.819 250.371 114.461Z" fill="#085435" fill-opacity="0.51"/>
<path d="M282.17 129.273C281.521 133.313 282.26 137.515 284.638 140.894C285.097 136.861 284.45 132.702 282.17 129.273Z" fill="#085435" fill-opacity="0.51"/>
<path d="M260.547 107.916C263.409 109.729 266.807 109.771 270.041 109.264C267.335 106.922 263.795 107.183 260.547 107.916Z" fill="#085435" fill-opacity="0.51"/>
<path d="M287.567 117.697C287.792 122.728 288.932 127.767 291.259 132.258C292.239 127.161 291.043 121.636 287.567 117.697Z" fill="#085435" fill-opacity="0.51"/>
<path d="M269.982 102.95C273.928 104.661 278.541 105.676 282.612 103.719C278.565 102.258 274.167 101.889 269.982 102.95Z" fill="#085435" fill-opacity="0.51"/>
<path d="M293.53 110.389C292.07 114.719 294.877 118.927 296.558 122.726C297.112 118.377 295.35 114.224 293.53 110.389Z" fill="#085435" fill-opacity="0.51"/>
<path d="M275.033 95.7178C278.345 98.2009 282.589 98.0122 286.507 98.2C287.006 97.7776 287.993 96.9418 288.482 96.5283C284.036 95.8637 279.527 95.3085 275.033 95.7178Z" fill="#085435" fill-opacity="0.51"/>
<path d="M303.441 105.519C303.714 111.752 305.428 118.046 308.548 123.455C308.635 117.207 307 110.701 303.441 105.519Z" fill="#085435" fill-opacity="0.51"/>
<path d="M277.257 66.5821C275.811 68.8724 278.928 70.3894 280.455 68.6331C288.397 62.4593 295.522 55.2994 303.113 48.7069C307.599 44.6226 312.721 40.9557 315.788 35.5641C318.809 30.2831 320.413 24.2619 321.016 18.2349C321.416 15.9077 320.38 13.7271 319.177 11.8194C317.385 10.8575 315.972 12.4603 314.614 13.3391C310.017 16.7742 305.679 20.5845 302.029 25.0328C294.354 34.3499 291.31 46.3554 284.816 56.4075C282.643 60.0505 279.602 63.0726 277.257 66.5821ZM316.488 17.6785C314.929 23.1263 313.226 28.6312 310.176 33.457C307.164 38.1246 302.699 41.5491 298.311 44.8178C301.19 34.0962 308.064 24.7574 316.488 17.6785Z" fill="#085435" fill-opacity="0.51"/>
<path d="M306.09 92.5817C306.6 96.9872 307.985 101.277 310.094 105.178C310.927 100.601 309.284 95.8982 306.09 92.5817Z" fill="#085435" fill-opacity="0.51"/>
<path d="M303.218 78.4881C306.335 77.7473 308.463 75.2823 310.236 72.7573C316.676 63.7126 321.162 53.4219 324.818 42.9755C331.934 24.4416 342.388 7.39105 353.725 -8.83919C354.515 -9.99904 354.936 -11.2953 355.017 -12.7356C352.151 -10.7039 349.833 -8.07123 347.751 -5.29158C337.641 8.07735 327.006 21.3758 320.525 36.9832C314.242 50.6381 312.29 66.1785 303.218 78.4881Z" fill="#085435" fill-opacity="0.51"/>
<path d="M320.506 5.95078C324.119 6.47846 326.641 3.45233 329.494 1.78822C341.348 -6.82431 354.816 -13.1446 365.991 -22.6874C360.043 -21.8304 355.408 -17.4908 350.173 -14.8796C339.958 -8.4791 328.008 -3.92506 320.506 5.95078Z" fill="#085435" fill-opacity="0.51"/>
</g>
</svg>
