<svg width="76" height="30" viewBox="0 0 76 30" fill="none" xmlns="http://www.w3.org/2000/svg">
<path d="M26.6328 29.1562H18.5664C18.2409 29.1562 17.9544 29.0391 17.707 28.8047C17.4596 28.5703 17.3359 28.2904 17.3359 27.9648V26.0312C17.3359 25.7057 17.4596 25.4258 17.707 25.1914C17.9544 24.957 18.2409 24.8398 18.5664 24.8398C18.6836 24.8398 18.8008 24.7943 18.918 24.7031C19.0352 24.612 19.0938 24.4818 19.0938 24.3125C19.0938 24.1302 18.7487 19.6901 18.0586 10.9922L16.0273 17.8672C15.8971 18.3229 15.6758 18.6159 15.3633 18.7461C15.0508 18.8633 14.556 18.9219 13.8789 18.9219C13.1888 18.9219 12.6875 18.8633 12.375 18.7461C12.0625 18.6159 11.8411 18.3229 11.7109 17.8672L9.67969 10.9922C8.98958 19.6641 8.64453 24.1042 8.64453 24.3125C8.64453 24.4818 8.70312 24.612 8.82031 24.7031C8.9375 24.7943 9.05469 24.8398 9.17188 24.8398C9.4974 24.8398 9.78385 24.957 10.0312 25.1914C10.2917 25.4258 10.4219 25.7057 10.4219 26.0312V27.9648C10.4219 28.2904 10.2917 28.5703 10.0312 28.8047C9.78385 29.0391 9.4974 29.1562 9.17188 29.1562H1.125C0.799479 29.1562 0.545573 29.0391 0.363281 28.8047C0.18099 28.5703 0.0898438 28.2904 0.0898438 27.9648V26.0312C0.0898438 25.7057 0.18099 25.4258 0.363281 25.1914C0.545573 24.957 0.799479 24.8398 1.125 24.8398C1.45052 24.8398 1.63932 24.6641 1.69141 24.3125C3.64453 11.4479 4.62109 4.97656 4.62109 4.89844C4.62109 4.50781 4.46484 4.3125 4.15234 4.3125C3.83984 4.3125 3.59896 4.20182 3.42969 3.98047C3.26042 3.74609 3.17578 3.46615 3.17578 3.14062V2.33984C3.17578 2.01432 3.26693 1.74089 3.44922 1.51953C3.63151 1.28516 3.87891 1.16797 4.19141 1.16797H6.61328C7.23828 1.16797 7.72656 1.20703 8.07812 1.28516C8.44271 1.35026 8.76172 1.54557 9.03516 1.87109C9.30859 2.19661 9.60807 2.71094 9.93359 3.41406L13.8789 11.9688L17.8242 3.41406C18.1497 2.71094 18.4427 2.19661 18.7031 1.87109C18.9766 1.54557 19.2891 1.35026 19.6406 1.28516C20.0052 1.20703 20.5 1.16797 21.125 1.16797H23.5469C23.8724 1.16797 24.1198 1.28516 24.2891 1.51953C24.4714 1.74089 24.5625 2.01432 24.5625 2.33984V3.14062C24.5625 3.46615 24.4779 3.74609 24.3086 3.98047C24.1393 4.20182 23.8984 4.3125 23.5859 4.3125C23.2734 4.3125 23.1172 4.50781 23.1172 4.89844C23.1172 4.97656 24.1003 11.4414 26.0664 24.293C26.1185 24.6576 26.3073 24.8398 26.6328 24.8398C26.9583 24.8398 27.2122 24.957 27.3945 25.1914C27.5768 25.4258 27.668 25.7057 27.668 26.0312V27.9648C27.668 28.2904 27.5768 28.5703 27.3945 28.8047C27.2122 29.0391 26.9583 29.1562 26.6328 29.1562ZM38.6836 29.1562H30.6172C30.2917 29.1562 30.0182 29.0391 29.7969 28.8047C29.5885 28.5703 29.4844 28.2904 29.4844 27.9648V26.0312C29.4844 25.7057 29.5885 25.4258 29.7969 25.1914C30.0182 24.957 30.2917 24.8398 30.6172 24.8398C30.7604 24.8398 30.8451 24.6641 30.8711 24.3125C31.6393 15.6797 32.0234 11.2135 32.0234 10.9141C32.0234 10.4323 31.8607 10.1914 31.5352 10.1914C31.2096 10.1914 30.9427 10.0807 30.7344 9.85938C30.526 9.625 30.4219 9.34505 30.4219 9.01953V8.21875C30.4219 7.89323 30.5391 7.61979 30.7734 7.39844C31.0078 7.16406 31.2878 7.04688 31.6133 7.04688H37.707C38.0195 7.04688 38.293 7.16406 38.5273 7.39844C38.7617 7.61979 38.8789 7.89323 38.8789 8.21875V9.01953C38.8789 9.34505 38.7747 9.625 38.5664 9.85938C38.3581 10.0807 38.0911 10.1914 37.7656 10.1914C37.4401 10.1914 37.2773 10.4388 37.2773 10.9336C37.2773 11.181 37.668 15.6406 38.4492 24.3125C38.4753 24.6641 38.5534 24.8398 38.6836 24.8398C39.0091 24.8398 39.276 24.957 39.4844 25.1914C39.7057 25.4258 39.8164 25.7057 39.8164 26.0312V27.9648C39.8164 28.2904 39.7057 28.5703 39.4844 28.8047C39.276 29.0391 39.0091 29.1562 38.6836 29.1562ZM34.6016 5.97266C33.8333 5.97266 33.1823 5.70573 32.6484 5.17188C32.1146 4.63802 31.8477 3.98698 31.8477 3.21875C31.8477 2.46354 32.1146 1.81901 32.6484 1.28516C33.1823 0.738281 33.8333 0.464844 34.6016 0.464844C35.3568 0.464844 36.0013 0.738281 36.5352 1.28516C37.082 1.81901 37.3555 2.46354 37.3555 3.21875C37.3555 3.98698 37.082 4.63802 36.5352 5.17188C36.0013 5.70573 35.3568 5.97266 34.6016 5.97266ZM51.0859 29.1562H43.0195C42.694 29.1562 42.4206 29.0391 42.1992 28.8047C41.9909 28.5703 41.8867 28.2904 41.8867 27.9648V26.0312C41.8867 25.7057 41.9909 25.4258 42.1992 25.1914C42.4206 24.957 42.694 24.8398 43.0195 24.8398C43.1628 24.8398 43.2474 24.6641 43.2734 24.3125C44.0417 11.7604 44.4258 5.34115 44.4258 5.05469C44.4258 4.5599 44.263 4.3125 43.9375 4.3125C43.612 4.3125 43.3451 4.20182 43.1367 3.98047C42.9284 3.74609 42.8242 3.46615 42.8242 3.14062V2.33984C42.8242 2.01432 42.9414 1.74089 43.1758 1.51953C43.4102 1.28516 43.6901 1.16797 44.0156 1.16797H48.2734C48.5859 1.16797 48.8529 1.28516 49.0742 1.51953C49.2956 1.74089 49.4193 2.01432 49.4453 2.33984L50.8516 24.3125C50.8776 24.6641 50.9557 24.8398 51.0859 24.8398C51.4115 24.8398 51.6784 24.957 51.8867 25.1914C52.1081 25.4258 52.2188 25.7057 52.2188 26.0312V27.9648C52.2188 28.2904 52.1081 28.5703 51.8867 28.8047C51.6784 29.0391 51.4115 29.1562 51.0859 29.1562ZM74.7578 29.1562H67.1016C66.776 29.1562 66.5026 29.0391 66.2812 28.8047C66.0729 28.5703 65.9688 28.2904 65.9688 27.9648V26.0312C65.9688 25.7057 66.0729 25.4258 66.2812 25.1914C66.5026 24.957 66.776 24.8398 67.1016 24.8398C67.2839 24.8398 67.375 24.6641 67.375 24.3125C67.375 22.9974 66.8932 22.0013 65.9297 21.3242C65.2005 20.8164 64.224 20.4974 63 20.3672L63.2734 24.3125C63.2995 24.6641 63.3776 24.8398 63.5078 24.8398C63.8333 24.8398 64.1003 24.957 64.3086 25.1914C64.5299 25.4258 64.6406 25.7057 64.6406 26.0312V27.9648C64.6406 28.2904 64.5299 28.5703 64.3086 28.8047C64.1003 29.0391 63.8333 29.1562 63.5078 29.1562H55.4414C55.1159 29.1562 54.8424 29.0391 54.6211 28.8047C54.4128 28.5703 54.3086 28.2904 54.3086 27.9648V26.0312C54.3086 25.7057 54.4128 25.4258 54.6211 25.1914C54.8424 24.957 55.1159 24.8398 55.4414 24.8398C55.5846 24.8398 55.6693 24.6641 55.6953 24.3125C56.4635 11.8125 56.8477 5.39323 56.8477 5.05469C56.8477 4.5599 56.6849 4.3125 56.3594 4.3125C56.0339 4.3125 55.7669 4.20182 55.5586 3.98047C55.3503 3.74609 55.2461 3.46615 55.2461 3.14062V2.33984C55.2461 2.01432 55.3633 1.74089 55.5977 1.51953C55.832 1.28516 56.112 1.16797 56.4375 1.16797H62.5312C62.8438 1.16797 63.1172 1.28516 63.3516 1.51953C63.5859 1.74089 63.7031 2.01432 63.7031 2.33984V3.14062C63.7031 3.46615 63.599 3.74609 63.3906 3.98047C63.1823 4.20182 62.9154 4.3125 62.5898 4.3125C62.2643 4.3125 62.1016 4.56641 62.1016 5.07422C62.1016 5.47786 62.2969 8.84375 62.6875 15.1719C63.7422 14.8594 64.5885 14.3451 65.2266 13.6289C65.7734 12.9909 66.0469 12.1576 66.0469 11.1289C66.0469 10.7383 66.0078 10.4909 65.9297 10.3867C65.8646 10.2695 65.7474 10.2109 65.5781 10.2109C65.2396 10.2109 64.9661 10.0938 64.7578 9.85938C64.5625 9.625 64.4648 9.34505 64.4648 9.01953V8.21875C64.4648 7.89323 64.5755 7.61979 64.7969 7.39844C65.0312 7.16406 65.3112 7.04688 65.6367 7.04688H70.8125C71.138 7.04688 71.4115 7.16406 71.6328 7.39844C71.8672 7.61979 71.9844 7.89323 71.9844 8.21875V9.01953C71.9844 9.34505 71.8802 9.625 71.6719 9.85938C71.4766 10.0938 71.1771 10.2109 70.7734 10.2109C70.526 10.2109 70.4023 10.5169 70.4023 11.1289C70.4023 13.3164 69.7643 15.0677 68.4883 16.3828C72.4987 17.8802 74.5234 20.5234 74.5625 24.3125C74.5625 24.6641 74.6276 24.8398 74.7578 24.8398C75.0833 24.8398 75.3503 24.957 75.5586 25.1914C75.7799 25.4258 75.8906 25.7057 75.8906 26.0312V27.9648C75.8906 28.2904 75.7799 28.5703 75.5586 28.8047C75.3503 29.0391 75.0833 29.1562 74.7578 29.1562Z" fill="black"/>
</svg>
