<svg width="195" height="30" viewBox="0 0 195 30" fill="none" xmlns="http://www.w3.org/2000/svg">
<path d="M9.0625 17.2422L9.51172 24.293C9.53776 24.6445 9.6224 24.8203 9.76562 24.8203C10.0781 24.8203 10.3451 24.9375 10.5664 25.1719C10.7878 25.4062 10.8984 25.6862 10.8984 26.0117V27.9648C10.8984 28.2904 10.7878 28.5703 10.5664 28.8047C10.3451 29.0391 10.0781 29.1562 9.76562 29.1562H1.69922C1.3737 29.1562 1.10026 29.0391 0.878906 28.8047C0.670573 28.5703 0.566406 28.2904 0.566406 27.9648V26.0117C0.566406 25.6862 0.670573 25.4062 0.878906 25.1719C1.10026 24.9375 1.3737 24.8203 1.69922 24.8203C1.82943 24.8203 1.90755 24.6445 1.93359 24.293C2.71484 11.7669 3.10547 5.36068 3.10547 5.07422C3.10547 4.56641 2.9362 4.3125 2.59766 4.3125C2.27214 4.3125 2.00521 4.20182 1.79688 3.98047C1.60156 3.74609 1.50391 3.46615 1.50391 3.14062V2.33984C1.50391 2.01432 1.61458 1.74089 1.83594 1.51953C2.07031 1.28516 2.35026 1.16797 2.67578 1.16797H8.33984C10.2409 1.16797 11.862 1.46094 13.2031 2.04688C14.5443 2.63281 15.599 3.40755 16.3672 4.37109C17.1484 5.32161 17.6172 6.20052 17.7734 7.00781C17.9297 7.8151 18.0078 8.45964 18.0078 8.94141C18.0078 10.8685 17.3112 12.5938 15.918 14.1172C15.0456 15.0807 13.8997 15.8555 12.4805 16.4414C11.4779 16.8581 10.3385 17.125 9.0625 17.2422ZM8.33984 4.3125L8.37891 5.09375L8.86719 14.0195C9.36198 13.9023 9.80469 13.7135 10.1953 13.4531C10.9375 12.9844 11.5104 12.3789 11.9141 11.6367C12.3177 10.8815 12.5326 10.2565 12.5586 9.76172C12.5977 9.26693 12.6172 8.94792 12.6172 8.80469C12.6172 8.1276 12.4935 7.48307 12.2461 6.87109C11.9466 6.11589 11.4714 5.50391 10.8203 5.03516C10.1693 4.55339 9.34245 4.3125 8.33984 4.3125ZM26.4453 14.0195C26.9401 13.9023 27.3828 13.7135 27.7734 13.4531C28.5156 12.9844 29.0885 12.3789 29.4922 11.6367C29.8958 10.8815 30.1107 10.2565 30.1367 9.76172C30.1758 9.26693 30.1953 8.94792 30.1953 8.80469C30.1953 8.1276 30.0716 7.48307 29.8242 6.87109C29.5247 6.11589 29.0495 5.50391 28.3984 5.03516C27.7474 4.55339 26.9206 4.3125 25.918 4.3125L26.4453 14.0195ZM37.4023 29.1562H30.4688C30.1432 29.1562 29.8698 29.0391 29.6484 28.8047C29.4401 28.5703 29.3359 28.2904 29.3359 27.9648V26.0312C29.3359 25.7057 29.4401 25.4258 29.6484 25.1914C29.8698 24.957 30.1432 24.8398 30.4688 24.8398C30.638 24.8398 30.7227 24.6641 30.7227 24.3125C30.7227 23.375 30.5273 22.5286 30.1367 21.7734C29.4987 20.5365 28.3789 19.7617 26.7773 19.4492L27.0898 24.293C27.1159 24.6445 27.2005 24.8203 27.3438 24.8203C27.6562 24.8203 27.9232 24.9375 28.1445 25.1719C28.3659 25.4062 28.4766 25.6862 28.4766 26.0117V27.9648C28.4766 28.2904 28.3659 28.5703 28.1445 28.8047C27.9232 29.0391 27.6562 29.1562 27.3438 29.1562H19.2773C18.9518 29.1562 18.6784 29.0391 18.457 28.8047C18.2487 28.5703 18.1445 28.2904 18.1445 27.9648V26.0117C18.1445 25.6862 18.2487 25.4062 18.457 25.1719C18.6784 24.9375 18.9518 24.8203 19.2773 24.8203C19.4076 24.8203 19.4857 24.6445 19.5117 24.293C20.293 11.7669 20.6836 5.36068 20.6836 5.07422C20.6836 4.56641 20.5143 4.3125 20.1758 4.3125C19.8503 4.3125 19.5833 4.20182 19.375 3.98047C19.1797 3.74609 19.082 3.46615 19.082 3.14062V2.33984C19.082 2.01432 19.1927 1.74089 19.4141 1.51953C19.6484 1.28516 19.9284 1.16797 20.2539 1.16797H25.918C27.819 1.16797 29.4401 1.46094 30.7812 2.04688C32.1224 2.63281 33.1771 3.40755 33.9453 4.37109C34.7266 5.32161 35.1953 6.20052 35.3516 7.00781C35.5078 7.8151 35.5859 8.45964 35.5859 8.94141C35.5859 10.8685 34.8893 12.5938 33.4961 14.1172C32.9753 14.6901 32.3568 15.1979 31.6406 15.6406C32.7344 16.1484 33.6719 16.8125 34.4531 17.6328C36.1589 19.4167 37.0703 21.6432 37.1875 24.3125C37.2005 24.6641 37.2721 24.8398 37.4023 24.8398C37.7279 24.8398 37.9948 24.957 38.2031 25.1914C38.4245 25.4258 38.5352 25.7057 38.5352 26.0312V27.9648C38.5352 28.2904 38.4245 28.5703 38.2031 28.8047C37.9948 29.0391 37.7279 29.1562 37.4023 29.1562ZM55.8984 29.1562H41.2695C40.944 29.1562 40.6706 29.0391 40.4492 28.8047C40.2409 28.5703 40.1367 28.2904 40.1367 27.9648V26.0312C40.1367 25.7057 40.2409 25.4258 40.4492 25.1914C40.6706 24.957 40.944 24.8398 41.2695 24.8398C41.3997 24.8398 41.4779 24.6641 41.5039 24.3125C42.2852 11.8906 42.6758 5.47786 42.6758 5.07422C42.6758 4.56641 42.513 4.3125 42.1875 4.3125C41.862 4.3125 41.5951 4.20182 41.3867 3.98047C41.1784 3.74609 41.0742 3.46615 41.0742 3.14062V2.33984C41.0742 2.01432 41.1914 1.74089 41.4258 1.51953C41.6602 1.28516 41.9336 1.16797 42.2461 1.16797H55.1758C55.5013 1.16797 55.7682 1.28516 55.9766 1.51953C56.1979 1.74089 56.3086 2.01432 56.3086 2.33984V5.19141C56.3086 5.45182 56.237 5.6862 56.0938 5.89453C55.9505 6.10286 55.7161 6.20703 55.3906 6.20703C54.974 6.20703 54.1211 5.9987 52.832 5.58203C51.0091 4.98307 49.7201 4.68359 48.9648 4.68359C48.2878 4.68359 47.9492 4.91797 47.9492 5.38672C47.9492 5.71224 48.1055 8.38151 48.418 13.3945H53.0859C53.4115 13.3945 53.6784 13.5117 53.8867 13.7461C54.1081 13.9805 54.2188 14.2539 54.2188 14.5664V15.7383C54.2188 16.0638 54.1081 16.3438 53.8867 16.5781C53.6784 16.7995 53.4115 16.9102 53.0859 16.9102H48.6328L49.082 24.2344C49.0951 24.4557 49.2122 24.5664 49.4336 24.5664C50.306 24.5664 51.1003 24.4622 51.8164 24.2539C52.5456 24.0326 53.2161 23.7982 53.8281 23.5508C54.8438 23.1211 55.6055 22.9062 56.1133 22.9062C56.4388 22.9062 56.6732 23.0104 56.8164 23.2188C56.9596 23.4271 57.0312 23.668 57.0312 23.9414V27.9648C57.0312 28.2904 56.9206 28.5703 56.6992 28.8047C56.4909 29.0391 56.224 29.1562 55.8984 29.1562ZM68.2031 29.1562H60.1367C59.8112 29.1562 59.5378 29.0391 59.3164 28.8047C59.1081 28.5703 59.0039 28.2904 59.0039 27.9648V26.0117C59.0039 25.6862 59.1081 25.4062 59.3164 25.1719C59.5378 24.9375 59.8112 24.8203 60.1367 24.8203C60.2669 24.8203 60.3451 24.6445 60.3711 24.293C61.1523 11.806 61.543 5.39974 61.543 5.07422C61.543 4.56641 61.3737 4.3125 61.0352 4.3125C60.7096 4.3125 60.4427 4.20182 60.2344 3.98047C60.0391 3.74609 59.9414 3.46615 59.9414 3.14062V2.33984C59.9414 2.01432 60.0521 1.74089 60.2734 1.51953C60.5078 1.28516 60.7878 1.16797 61.1133 1.16797H74.043C74.3685 1.16797 74.6354 1.28516 74.8438 1.51953C75.0651 1.74089 75.1758 2.01432 75.1758 2.33984V5.19141C75.1758 5.45182 75.0977 5.6862 74.9414 5.89453C74.7982 6.10286 74.5703 6.20703 74.2578 6.20703C73.8411 6.20703 72.9883 5.9987 71.6992 5.58203C69.8372 4.98307 68.5482 4.68359 67.832 4.68359C67.1549 4.68359 66.8164 4.91797 66.8164 5.38672C66.8164 5.77734 66.9727 8.44661 67.2852 13.3945H71.9531C72.2786 13.3945 72.5456 13.5117 72.7539 13.7461C72.9753 13.9805 73.0859 14.2539 73.0859 14.5664V15.7383C73.0859 16.0638 72.9753 16.3438 72.7539 16.5781C72.5456 16.7995 72.2786 16.9102 71.9531 16.9102H67.5L67.9492 24.293C67.9753 24.6445 68.0599 24.8203 68.2031 24.8203C68.5286 24.8203 68.7956 24.9375 69.0039 25.1719C69.2253 25.4062 69.3359 25.6862 69.3359 26.0117V27.9648C69.3359 28.2904 69.2253 28.5703 69.0039 28.8047C68.7956 29.0391 68.5286 29.1562 68.2031 29.1562ZM91.8359 29.1562H77.207C76.8815 29.1562 76.6081 29.0391 76.3867 28.8047C76.1784 28.5703 76.0742 28.2904 76.0742 27.9648V26.0312C76.0742 25.7057 76.1784 25.4258 76.3867 25.1914C76.6081 24.957 76.8815 24.8398 77.207 24.8398C77.3372 24.8398 77.4154 24.6641 77.4414 24.3125C78.2227 11.8906 78.6133 5.47786 78.6133 5.07422C78.6133 4.56641 78.4505 4.3125 78.125 4.3125C77.7995 4.3125 77.5326 4.20182 77.3242 3.98047C77.1159 3.74609 77.0117 3.46615 77.0117 3.14062V2.33984C77.0117 2.01432 77.1289 1.74089 77.3633 1.51953C77.5977 1.28516 77.8711 1.16797 78.1836 1.16797H91.1133C91.4388 1.16797 91.7057 1.28516 91.9141 1.51953C92.1354 1.74089 92.2461 2.01432 92.2461 2.33984V5.19141C92.2461 5.45182 92.1745 5.6862 92.0312 5.89453C91.888 6.10286 91.6536 6.20703 91.3281 6.20703C90.9115 6.20703 90.0586 5.9987 88.7695 5.58203C86.9466 4.98307 85.6576 4.68359 84.9023 4.68359C84.2253 4.68359 83.8867 4.91797 83.8867 5.38672C83.8867 5.71224 84.043 8.38151 84.3555 13.3945H89.0234C89.349 13.3945 89.6159 13.5117 89.8242 13.7461C90.0456 13.9805 90.1562 14.2539 90.1562 14.5664V15.7383C90.1562 16.0638 90.0456 16.3438 89.8242 16.5781C89.6159 16.7995 89.349 16.9102 89.0234 16.9102H84.5703L85.0195 24.2344C85.0326 24.4557 85.1497 24.5664 85.3711 24.5664C86.2435 24.5664 87.0378 24.4622 87.7539 24.2539C88.4831 24.0326 89.1536 23.7982 89.7656 23.5508C90.7812 23.1211 91.543 22.9062 92.0508 22.9062C92.3763 22.9062 92.6107 23.0104 92.7539 23.2188C92.8971 23.4271 92.9688 23.668 92.9688 23.9414V27.9648C92.9688 28.2904 92.8581 28.5703 92.6367 28.8047C92.4284 29.0391 92.1615 29.1562 91.8359 29.1562ZM103.242 14.0195C103.737 13.9023 104.18 13.7135 104.57 13.4531C105.312 12.9844 105.885 12.3789 106.289 11.6367C106.693 10.8815 106.908 10.2565 106.934 9.76172C106.973 9.26693 106.992 8.94792 106.992 8.80469C106.992 8.1276 106.868 7.48307 106.621 6.87109C106.322 6.11589 105.846 5.50391 105.195 5.03516C104.544 4.55339 103.717 4.3125 102.715 4.3125L103.242 14.0195ZM114.199 29.1562H107.266C106.94 29.1562 106.667 29.0391 106.445 28.8047C106.237 28.5703 106.133 28.2904 106.133 27.9648V26.0312C106.133 25.7057 106.237 25.4258 106.445 25.1914C106.667 24.957 106.94 24.8398 107.266 24.8398C107.435 24.8398 107.52 24.6641 107.52 24.3125C107.52 23.375 107.324 22.5286 106.934 21.7734C106.296 20.5365 105.176 19.7617 103.574 19.4492L103.887 24.293C103.913 24.6445 103.997 24.8203 104.141 24.8203C104.453 24.8203 104.72 24.9375 104.941 25.1719C105.163 25.4062 105.273 25.6862 105.273 26.0117V27.9648C105.273 28.2904 105.163 28.5703 104.941 28.8047C104.72 29.0391 104.453 29.1562 104.141 29.1562H96.0742C95.7487 29.1562 95.4753 29.0391 95.2539 28.8047C95.0456 28.5703 94.9414 28.2904 94.9414 27.9648V26.0117C94.9414 25.6862 95.0456 25.4062 95.2539 25.1719C95.4753 24.9375 95.7487 24.8203 96.0742 24.8203C96.2044 24.8203 96.2826 24.6445 96.3086 24.293C97.0898 11.7669 97.4805 5.36068 97.4805 5.07422C97.4805 4.56641 97.3112 4.3125 96.9727 4.3125C96.6471 4.3125 96.3802 4.20182 96.1719 3.98047C95.9766 3.74609 95.8789 3.46615 95.8789 3.14062V2.33984C95.8789 2.01432 95.9896 1.74089 96.2109 1.51953C96.4453 1.28516 96.7253 1.16797 97.0508 1.16797H102.715C104.616 1.16797 106.237 1.46094 107.578 2.04688C108.919 2.63281 109.974 3.40755 110.742 4.37109C111.523 5.32161 111.992 6.20052 112.148 7.00781C112.305 7.8151 112.383 8.45964 112.383 8.94141C112.383 10.8685 111.686 12.5938 110.293 14.1172C109.772 14.6901 109.154 15.1979 108.438 15.6406C109.531 16.1484 110.469 16.8125 111.25 17.6328C112.956 19.4167 113.867 21.6432 113.984 24.3125C113.997 24.6641 114.069 24.8398 114.199 24.8398C114.525 24.8398 114.792 24.957 115 25.1914C115.221 25.4258 115.332 25.7057 115.332 26.0312V27.9648C115.332 28.2904 115.221 28.5703 115 28.8047C114.792 29.0391 114.525 29.1562 114.199 29.1562ZM132.695 29.1562H118.066C117.741 29.1562 117.467 29.0391 117.246 28.8047C117.038 28.5703 116.934 28.2904 116.934 27.9648V26.0312C116.934 25.7057 117.038 25.4258 117.246 25.1914C117.467 24.957 117.741 24.8398 118.066 24.8398C118.197 24.8398 118.275 24.6641 118.301 24.3125C119.082 11.8906 119.473 5.47786 119.473 5.07422C119.473 4.56641 119.31 4.3125 118.984 4.3125C118.659 4.3125 118.392 4.20182 118.184 3.98047C117.975 3.74609 117.871 3.46615 117.871 3.14062V2.33984C117.871 2.01432 117.988 1.74089 118.223 1.51953C118.457 1.28516 118.73 1.16797 119.043 1.16797H131.973C132.298 1.16797 132.565 1.28516 132.773 1.51953C132.995 1.74089 133.105 2.01432 133.105 2.33984V5.19141C133.105 5.45182 133.034 5.6862 132.891 5.89453C132.747 6.10286 132.513 6.20703 132.188 6.20703C131.771 6.20703 130.918 5.9987 129.629 5.58203C127.806 4.98307 126.517 4.68359 125.762 4.68359C125.085 4.68359 124.746 4.91797 124.746 5.38672C124.746 5.71224 124.902 8.38151 125.215 13.3945H129.883C130.208 13.3945 130.475 13.5117 130.684 13.7461C130.905 13.9805 131.016 14.2539 131.016 14.5664V15.7383C131.016 16.0638 130.905 16.3438 130.684 16.5781C130.475 16.7995 130.208 16.9102 129.883 16.9102H125.43L125.879 24.2344C125.892 24.4557 126.009 24.5664 126.23 24.5664C127.103 24.5664 127.897 24.4622 128.613 24.2539C129.342 24.0326 130.013 23.7982 130.625 23.5508C131.641 23.1211 132.402 22.9062 132.91 22.9062C133.236 22.9062 133.47 23.0104 133.613 23.2188C133.757 23.4271 133.828 23.668 133.828 23.9414V27.9648C133.828 28.2904 133.717 28.5703 133.496 28.8047C133.288 29.0391 133.021 29.1562 132.695 29.1562ZM155.938 29.1562H147.871C147.546 29.1562 147.272 29.0391 147.051 28.8047C146.842 28.5703 146.738 28.2904 146.738 27.9648V26.0312C146.738 25.7057 146.842 25.4258 147.051 25.1914C147.272 24.957 147.546 24.8398 147.871 24.8398C147.923 24.8398 147.969 24.8138 148.008 24.7617L143.789 8.31641L144.766 24.3125C144.792 24.6641 144.87 24.8398 145 24.8398C145.326 24.8398 145.592 24.957 145.801 25.1914C146.022 25.4258 146.133 25.7057 146.133 26.0312V27.9648C146.133 28.2904 146.022 28.5703 145.801 28.8047C145.592 29.0391 145.326 29.1562 145 29.1562H136.934C136.608 29.1562 136.335 29.0391 136.113 28.8047C135.905 28.5703 135.801 28.2904 135.801 27.9648V26.0312C135.801 25.7057 135.905 25.4258 136.113 25.1914C136.335 24.957 136.608 24.8398 136.934 24.8398C137.077 24.8398 137.161 24.6641 137.188 24.3125C137.956 11.7604 138.34 5.34115 138.34 5.05469C138.34 4.5599 138.177 4.3125 137.852 4.3125C137.526 4.3125 137.259 4.20182 137.051 3.98047C136.842 3.74609 136.738 3.46615 136.738 3.14062V2.33984C136.738 2.01432 136.855 1.74089 137.09 1.51953C137.324 1.28516 137.604 1.16797 137.93 1.16797H144.453C145.078 1.16797 145.469 1.46094 145.625 2.04688L148.73 14.1953C149.095 8.27083 149.277 5.23047 149.277 5.07422C149.277 4.56641 149.115 4.3125 148.789 4.3125C148.464 4.3125 148.197 4.20182 147.988 3.98047C147.78 3.74609 147.676 3.46615 147.676 3.14062V2.33984C147.676 2.01432 147.793 1.74089 148.027 1.51953C148.262 1.28516 148.535 1.16797 148.848 1.16797H154.941C155.267 1.16797 155.547 1.28516 155.781 1.51953C156.016 1.74089 156.133 2.01432 156.133 2.33984V3.14062C156.133 3.46615 156.029 3.74609 155.82 3.98047C155.612 4.20182 155.345 4.3125 155.02 4.3125C154.694 4.3125 154.531 4.56641 154.531 5.07422C154.531 5.29557 154.915 11.7083 155.684 24.3125C155.71 24.6641 155.794 24.8398 155.938 24.8398C156.263 24.8398 156.53 24.957 156.738 25.1914C156.96 25.4258 157.07 25.7057 157.07 26.0312V27.9648C157.07 28.2904 156.96 28.5703 156.738 28.8047C156.53 29.0391 156.263 29.1562 155.938 29.1562ZM167.93 29.7812C164.583 29.7812 162.161 28.5052 160.664 25.9531C159.401 23.8047 158.77 20.9076 158.77 17.2617C158.77 15.6992 158.88 14.1237 159.102 12.5352C159.323 10.9336 159.674 9.41667 160.156 7.98438C160.638 6.55208 161.257 5.27604 162.012 4.15625C162.78 3.03646 163.704 2.15104 164.785 1.5C165.879 0.835938 167.135 0.503906 168.555 0.503906C169.753 0.503906 170.82 0.777344 171.758 1.32422C172.695 1.85807 173.516 2.61979 174.219 3.60938C174.935 4.59896 175.56 5.77083 176.094 7.125C176.185 7.33333 176.23 7.52865 176.23 7.71094C176.23 8.10156 175.99 8.36198 175.508 8.49219C173.516 9.02604 172.441 9.29297 172.285 9.29297C172.129 9.29297 171.986 9.26693 171.855 9.21484C171.608 9.09766 171.413 8.79167 171.27 8.29688C170.449 5.34115 169.544 3.86328 168.555 3.86328C167.552 3.86328 166.693 5.38672 165.977 8.43359C165.365 11.0638 165.059 13.8958 165.059 16.9297C165.059 18.4792 165.182 19.9115 165.43 21.2266C165.964 24.0391 166.947 25.4453 168.379 25.4453C169.108 25.4453 169.759 25.0807 170.332 24.3516C170.905 23.6094 171.341 22.6719 171.641 21.5391C171.771 21.0312 171.934 20.7318 172.129 20.6406C172.324 20.5495 172.5 20.5039 172.656 20.5039C172.904 20.5039 173.21 20.5625 173.574 20.6797C174.134 20.862 174.688 21.0443 175.234 21.2266C175.794 21.4089 176.139 21.5977 176.27 21.793C176.4 21.9753 176.465 22.1576 176.465 22.3398C176.465 22.4831 176.445 22.6393 176.406 22.8086C176.029 24.1888 175.462 25.3997 174.707 26.4414C173.952 27.4831 173.008 28.3034 171.875 28.9023C170.742 29.4883 169.427 29.7812 167.93 29.7812ZM193.242 29.1562H178.613C178.288 29.1562 178.014 29.0391 177.793 28.8047C177.585 28.5703 177.48 28.2904 177.48 27.9648V26.0312C177.48 25.7057 177.585 25.4258 177.793 25.1914C178.014 24.957 178.288 24.8398 178.613 24.8398C178.743 24.8398 178.822 24.6641 178.848 24.3125C179.629 11.8906 180.02 5.47786 180.02 5.07422C180.02 4.56641 179.857 4.3125 179.531 4.3125C179.206 4.3125 178.939 4.20182 178.73 3.98047C178.522 3.74609 178.418 3.46615 178.418 3.14062V2.33984C178.418 2.01432 178.535 1.74089 178.77 1.51953C179.004 1.28516 179.277 1.16797 179.59 1.16797H192.52C192.845 1.16797 193.112 1.28516 193.32 1.51953C193.542 1.74089 193.652 2.01432 193.652 2.33984V5.19141C193.652 5.45182 193.581 5.6862 193.438 5.89453C193.294 6.10286 193.06 6.20703 192.734 6.20703C192.318 6.20703 191.465 5.9987 190.176 5.58203C188.353 4.98307 187.064 4.68359 186.309 4.68359C185.632 4.68359 185.293 4.91797 185.293 5.38672C185.293 5.71224 185.449 8.38151 185.762 13.3945H190.43C190.755 13.3945 191.022 13.5117 191.23 13.7461C191.452 13.9805 191.562 14.2539 191.562 14.5664V15.7383C191.562 16.0638 191.452 16.3438 191.23 16.5781C191.022 16.7995 190.755 16.9102 190.43 16.9102H185.977L186.426 24.2344C186.439 24.4557 186.556 24.5664 186.777 24.5664C187.65 24.5664 188.444 24.4622 189.16 24.2539C189.889 24.0326 190.56 23.7982 191.172 23.5508C192.188 23.1211 192.949 22.9062 193.457 22.9062C193.783 22.9062 194.017 23.0104 194.16 23.2188C194.303 23.4271 194.375 23.668 194.375 23.9414V27.9648C194.375 28.2904 194.264 28.5703 194.043 28.8047C193.835 29.0391 193.568 29.1562 193.242 29.1562Z" fill="#689703"/>
</svg>
