<svg width="95" height="38" viewBox="0 0 95 38" fill="none" xmlns="http://www.w3.org/2000/svg">
<path d="M9.28516 29.8008C7.00651 29.8008 5.125 29.1758 3.64062 27.9258C2.15625 26.6758 1.1276 24.9701 0.554688 22.8086C0.502604 22.6393 0.476562 22.4831 0.476562 22.3398C0.476562 22.1576 0.541667 21.9753 0.671875 21.793C0.802083 21.5977 1.14714 21.4089 1.70703 21.2266C2.26693 21.0443 2.82031 20.862 3.36719 20.6797C3.73177 20.5625 4.03776 20.5039 4.28516 20.5039C4.44141 20.5039 4.61719 20.5495 4.8125 20.6406C5.00781 20.7318 5.17057 21.0312 5.30078 21.5391C5.60026 22.6719 6.05599 23.6094 6.66797 24.3516C7.29297 25.0807 7.96354 25.4453 8.67969 25.4453C9.64323 25.4453 10.3529 25.0938 10.8086 24.3906C11.2773 23.6745 11.5117 22.7695 11.5117 21.6758C11.5117 20.582 11.0755 19.599 10.2031 18.7266C9.36979 17.9193 8.3737 17.112 7.21484 16.3047C5.28776 14.9766 3.875 13.7852 2.97656 12.7305C1.6224 11.1419 0.945312 9.29948 0.945312 7.20312C0.945312 5.79688 1.31641 4.59245 2.05859 3.58984C2.80078 2.58724 3.77083 1.81901 4.96875 1.28516C6.16667 0.751302 7.44922 0.484375 8.81641 0.484375C11.069 0.484375 12.8464 1.03776 14.1484 2.14453C15.4635 3.2513 16.4792 4.91146 17.1953 7.125C17.2604 7.34635 17.293 7.54818 17.293 7.73047C17.293 7.80859 17.2734 7.93229 17.2344 8.10156C17.2083 8.25781 16.9935 8.38802 16.5898 8.49219C14.6107 9.02604 13.543 9.29297 13.3867 9.29297C13.2174 9.29297 13.0352 9.25391 12.8398 9.17578C12.6576 9.08464 12.5013 8.79167 12.3711 8.29688C12.0065 6.89062 11.5573 5.8099 11.0234 5.05469C10.4896 4.28646 9.8125 3.90234 8.99219 3.90234C8.15885 3.90234 7.5013 4.18229 7.01953 4.74219C6.53776 5.28906 6.29688 5.97266 6.29688 6.79297C6.29688 7.33984 6.47917 7.85417 6.84375 8.33594C7.20833 8.81771 7.6901 9.29297 8.28906 9.76172C8.90104 10.2305 9.57812 10.7122 10.3203 11.207C11.4661 11.9622 12.612 12.8216 13.7578 13.7852C14.9036 14.7487 15.8607 15.9076 16.6289 17.2617C17.3971 18.6159 17.7812 20.2435 17.7812 22.1445C17.7812 23.6159 17.4557 24.9245 16.8047 26.0703C16.1667 27.2161 15.2227 28.1276 13.9727 28.8047C12.7227 29.4688 11.1602 29.8008 9.28516 29.8008ZM26.668 29.8203C25.1055 29.8203 23.8294 29.4297 22.8398 28.6484C21.8633 27.8542 21.1406 26.8125 20.6719 25.5234C20.2161 24.2344 19.9883 22.8477 19.9883 21.3633C19.9883 19.8919 20.1315 18.2383 20.418 16.4023C20.7174 14.5664 21.082 12.8672 21.5117 11.3047C21.5638 11.1354 21.5898 10.9857 21.5898 10.8555C21.5898 10.7122 21.5638 10.5885 21.5117 10.4844C21.4076 10.2891 21.2578 10.1914 21.0625 10.1914C20.724 10.1914 20.4505 10.0807 20.2422 9.85938C20.0469 9.625 19.9492 9.34505 19.9492 9.01953V8.21875C19.9492 7.89323 20.0599 7.61979 20.2812 7.39844C20.5156 7.16406 20.7956 7.04688 21.1211 7.04688H26.9609C27.2865 7.04688 27.5664 7.16406 27.8008 7.39844C28.0352 7.61979 28.1523 7.89323 28.1523 8.21875V9.01953C28.1523 9.34505 28.0482 9.625 27.8398 9.85938C27.6315 10.0807 27.3581 10.1914 27.0195 10.1914C26.8633 10.1914 26.7656 10.25 26.7266 10.3672C26.6615 10.5495 26.5117 11.4349 26.2773 13.0234C26.056 14.599 25.9453 16.8516 25.9453 19.7812C25.9453 21.1224 26.0365 22.1901 26.2188 22.9844C26.401 23.7786 26.6289 24.3516 26.9023 24.7031C27.1888 25.0547 27.4818 25.2305 27.7812 25.2305C28.2891 25.2305 28.6992 24.9766 29.0117 24.4688C29.3242 23.9609 29.5195 23.3294 29.5977 22.5742C30.457 14.9961 30.8867 11.1159 30.8867 10.9336C30.8867 10.4388 30.7174 10.1914 30.3789 10.1914C30.0534 10.1914 29.7865 10.0807 29.5781 9.85938C29.3828 9.625 29.2852 9.34505 29.2852 9.01953V8.21875C29.2852 7.89323 29.3958 7.61979 29.6172 7.39844C29.8516 7.16406 30.1315 7.04688 30.457 7.04688H36.1016C36.4271 7.04688 36.7005 7.16406 36.9219 7.39844C37.1562 7.61979 37.2734 7.89323 37.2734 8.21875V9.01953C37.2734 9.34505 37.1693 9.625 36.9609 9.85938C36.7656 10.0807 36.4987 10.1914 36.1602 10.1914C35.8346 10.1914 35.6719 10.4388 35.6719 10.9336C35.6719 11.181 36.0625 15.6406 36.8438 24.3125C36.8698 24.6641 36.9479 24.8398 37.0781 24.8398C37.4036 24.8398 37.6706 24.957 37.8789 25.1914C38.1003 25.4258 38.2109 25.7057 38.2109 26.0312V27.9648C38.2109 28.2904 38.1003 28.5703 37.8789 28.8047C37.6706 29.0391 37.4036 29.1562 37.0781 29.1562H29.7344C28.6536 29.599 27.6315 29.8203 26.668 29.8203ZM50.125 7.06641C50.1771 7.05339 50.2357 7.04688 50.3008 7.04688H56.3945C56.707 7.04688 56.9805 7.16406 57.2148 7.39844C57.4492 7.61979 57.5664 7.89323 57.5664 8.21875V9.01953C57.5664 9.34505 57.4622 9.625 57.2539 9.85938C57.0456 10.0938 56.7721 10.2109 56.4336 10.2109C56.0951 10.2109 55.9258 10.4258 55.9258 10.8555C55.9258 10.9987 55.9453 11.1549 55.9844 11.3242C56.9349 16.1159 57.4102 20.263 57.4102 23.7656C57.4102 26.2786 57.1237 28.5638 56.5508 30.6211C55.9779 32.6784 54.9753 34.306 53.543 35.5039C52.1107 36.7018 50.2357 37.3008 47.918 37.3008C46.7591 37.3008 45.6589 37.125 44.6172 36.7734C43.5755 36.4349 42.6706 35.901 41.9023 35.1719C41.1471 34.4427 40.6068 33.4987 40.2812 32.3398C40.2292 32.1445 40.2031 31.9948 40.2031 31.8906C40.2031 31.6953 40.2682 31.5 40.3984 31.3047C40.5417 31.1224 40.8867 30.9401 41.4336 30.7578C41.9935 30.5755 42.5469 30.3997 43.0938 30.2305C43.5104 30.1003 43.8229 30.0352 44.0312 30.0352C44.474 30.0352 44.806 30.3737 45.0273 31.0508C45.444 32.3138 46.1471 32.9453 47.1367 32.9453C48.4518 32.9453 49.4154 31.6888 50.0273 29.1758C49.9622 29.2018 49.8971 29.2214 49.832 29.2344C48.7253 29.625 47.7227 29.8203 46.8242 29.8203C44.4935 29.8203 42.6901 28.8177 41.4141 26.8125C40.2552 24.9896 39.6758 22.6784 39.6758 19.8789C39.6758 18.1862 39.8451 16.5391 40.1836 14.9375C40.5352 13.3229 41.0365 11.8776 41.6875 10.6016C42.3385 9.32552 43.1328 8.3099 44.0703 7.55469C45.0208 6.78646 46.0885 6.40234 47.2734 6.40234C48.25 6.40234 49.2005 6.6237 50.125 7.06641ZM50.8281 22.5156C50.8802 21.4479 50.9062 20.3477 50.9062 19.2148C50.9062 15.6992 50.8281 13.2122 50.6719 11.7539C49.8125 10.4909 48.901 9.85938 47.9375 9.85938C47.3385 9.85938 46.8372 10.3281 46.4336 11.2656C46.043 12.2031 45.7565 13.3294 45.5742 14.6445C45.4049 15.9596 45.3203 17.2617 45.3203 18.5508C45.3203 21.3372 45.724 23.3164 46.5312 24.4883C46.8568 24.9701 47.2995 25.2109 47.8594 25.2109C48.4323 25.2109 48.9857 24.9635 49.5195 24.4688C50.0664 23.9609 50.5026 23.3099 50.8281 22.5156ZM65.9258 29.7812C64.4805 29.7812 63.2891 29.4818 62.3516 28.8828C61.4141 28.2708 60.7174 27.4831 60.2617 26.5195C59.806 25.556 59.5781 24.5339 59.5781 23.4531C59.5781 22.2161 59.8646 21.0117 60.4375 19.8398C61.0104 18.668 61.8503 17.7044 62.957 16.9492C64.0638 16.194 65.4115 15.8164 67 15.8164C67.9115 15.8164 68.7969 15.9922 69.6562 16.3438C69.7474 14.4818 69.793 13.349 69.793 12.9453C69.793 12.0208 69.6172 11.2852 69.2656 10.7383C68.9141 10.1914 68.4648 9.91797 67.918 9.91797C67.4362 9.91797 66.9544 10.1719 66.4727 10.6797C65.9909 11.1745 65.6003 11.9427 65.3008 12.9844C65.1706 13.4792 64.9818 13.7852 64.7344 13.9023C64.6172 13.9544 64.474 13.9805 64.3047 13.9805C64.1354 13.9805 63.2565 13.7721 61.668 13.3555C61.1992 13.2253 60.9648 12.9648 60.9648 12.5742C60.9648 12.3919 61.0039 12.1901 61.082 11.9688C61.7331 10.0417 62.6901 8.63542 63.9531 7.75C65.2161 6.86458 66.6484 6.42188 68.25 6.42188C70.2031 6.42188 71.8112 7.02083 73.0742 8.21875C74.3372 9.40365 75.0404 11.0768 75.1836 13.2383L75.7695 24.3125C75.8086 24.6641 75.8997 24.8398 76.043 24.8398C76.3555 24.8398 76.6224 24.957 76.8438 25.1914C77.0651 25.4258 77.1758 25.7057 77.1758 26.0312V27.9648C77.1758 28.2904 77.0651 28.5703 76.8438 28.8047C76.6224 29.0391 76.3555 29.1562 76.043 29.1562H69.0312C68.0286 29.5729 66.9935 29.7812 65.9258 29.7812ZM66.3164 25.4258C66.8372 25.4258 67.3776 25.1784 67.9375 24.6836C68.4974 24.1758 68.9661 23.4792 69.3438 22.5938L69.4805 20.0156C68.8555 19.5208 68.2174 19.2734 67.5664 19.2734C66.9023 19.2734 66.375 19.4688 65.9844 19.8594C65.5938 20.237 65.3138 20.7188 65.1445 21.3047C64.9753 21.8776 64.8906 22.457 64.8906 23.043C64.8906 24.6315 65.3659 25.4258 66.3164 25.4258ZM88.2109 29.1562H80.1641C79.8385 29.1562 79.5651 29.0391 79.3438 28.8047C79.1224 28.5703 79.0117 28.2904 79.0117 27.9648V26.0312C79.0117 25.7057 79.1224 25.4258 79.3438 25.1914C79.5651 24.957 79.8385 24.8398 80.1641 24.8398C80.2943 24.8398 80.3724 24.6641 80.3984 24.3125C81.1797 15.888 81.5703 11.4284 81.5703 10.9336C81.5703 10.4388 81.401 10.1914 81.0625 10.1914C80.737 10.1914 80.4701 10.0807 80.2617 9.85938C80.0664 9.625 79.9688 9.34505 79.9688 9.01953V8.21875C79.9688 7.89323 80.0794 7.61979 80.3008 7.39844C80.5352 7.16406 80.8151 7.04688 81.1406 7.04688H85.0664C85.6523 7.04688 86.0495 7.22266 86.2578 7.57422C87.026 6.79297 88.0352 6.40234 89.2852 6.40234C90.2357 6.40234 91.0495 6.61068 91.7266 7.02734C92.4167 7.44401 92.9831 8.00391 93.4258 8.70703C93.8685 9.39714 94.2135 10.1589 94.4609 10.9922C94.526 11.2005 94.5586 11.3958 94.5586 11.5781C94.5586 11.6693 94.5456 11.7995 94.5195 11.9688C94.4935 12.125 94.2786 12.2552 93.875 12.3594C91.8438 12.8932 90.7435 13.1602 90.5742 13.1602C89.9622 13.1602 89.6562 12.8802 89.6562 12.3203V11.5391C89.6562 10.3542 89.2982 9.76172 88.582 9.76172C87.6185 9.76172 87.1367 10.7122 87.1367 12.6133C87.1367 13.0299 87.4167 16.9297 87.9766 24.3125C88.0026 24.6641 88.0807 24.8398 88.2109 24.8398C88.5365 24.8398 88.8099 24.957 89.0312 25.1914C89.2526 25.4258 89.3633 25.7057 89.3633 26.0312V27.9648C89.3633 28.2904 89.2526 28.5703 89.0312 28.8047C88.8099 29.0391 88.5365 29.1562 88.2109 29.1562Z" fill="black"/>
</svg>
