<svg width="468" height="553" viewBox="0 0 468 553" fill="none" xmlns="http://www.w3.org/2000/svg">
<g opacity="0.09">
<path d="M232.354 347.284C234.509 346.49 238.819 344.959 240.918 344.165L240.748 348.759C238.592 349.496 234.225 351.027 232.07 351.764L232.354 347.284Z" fill="white"/>
<path d="M-367.783 20.1638C-273.64 1.73209 -177.284 -1.10356 -81.6661 0.314261C15.143 0.4844 112.519 4.8513 207.4 25.7217C212.448 26.7992 217.325 28.614 222.032 31.0527L227.25 33.7749C157.209 19.9369 86.4879 8.08394 15.0295 6.49598C-41.5133 3.71704 -98.1128 3.37676 -154.656 3.94389C-219.365 6.09898 -284.245 8.99135 -348.104 20.3907C-403.739 30.3722 -461.019 39.8432 -511.267 67.1222C-500.605 91.055 -473.383 96.5562 -450.811 103.589C-419.789 112.379 -388.143 119.015 -356.1 122.928C-360.694 124.856 -365.288 126.557 -369.882 128.089C-404.59 113.684 -444.232 116.803 -477.806 99.3918C-484.668 96.386 -492.438 97.577 -499.527 96.2727C-504.291 90.7715 -508.375 84.7032 -512.742 78.9752C-515.237 127.068 -503.214 174.31 -491.531 220.588C-471.171 299.419 -445.14 380.405 -389.448 442.052C-365.855 471.316 -330.353 487.649 -306.476 516.629C-304.491 517.367 -300.465 518.898 -298.48 519.635C-300.068 526.838 -301.542 533.984 -302.96 541.186C-310.787 539.995 -319.35 538.237 -326.156 543.455C-330.126 552.132 -323.434 560.582 -320.598 568.522C-323.093 567.728 -328.027 566.083 -330.466 565.289C-340.164 547.254 -325.645 534.551 -310.9 526.951C-312.374 509.143 -331.26 501.997 -342.376 490.711C-380.43 462.071 -413.834 426.683 -436.349 384.488C-462.891 334.581 -481.266 280.647 -494.65 225.805C-507.354 179.697 -516.995 132.456 -518.866 84.533C-519.377 75.1187 -518.923 63.7761 -508.318 60.2599C-464.535 38.0851 -415.592 29.1812 -367.783 20.1638Z" fill="#605A4C"/>
<path d="M-16.5044 124.629C6.12409 124.345 28.8095 123.438 51.3812 121.113C30.0572 130.981 5.95395 128.429 -16.5044 124.629Z" fill="#605A4C"/>
<path d="M245.511 337.303C286.344 325.28 323.265 302.084 356.272 275.542C345.326 293.747 325.873 303.388 310.448 317.056C287.592 336.679 260.54 351.141 231.56 359.194L232.07 351.764C234.225 351.027 238.592 349.496 240.747 348.759L240.917 344.165C245.908 344.505 255.89 345.072 260.88 345.413L261.618 336.849C257.591 336.962 249.538 337.189 245.511 337.303Z" fill="#605A4C"/>
<path d="M286.966 375.584C301.654 369.799 314.698 359.421 330.748 357.379C304.774 374.733 275.17 386.019 246.019 396.681C256.681 385.055 273.468 382.9 286.966 375.584Z" fill="#605A4C"/>
<path d="M-348.102 20.3909C-284.243 8.99156 -219.364 6.09919 -154.654 3.94409C-155.108 7.34687 -156.072 14.2091 -156.526 17.6119C-200.649 26.9129 -245.962 20.0506 -290.368 26.6293C-329.16 28.6142 -367.441 35.5332 -405.553 42.7925C-368.973 42.4522 -333.584 31.2798 -297.061 29.6918C-231.841 24.1906 -166.281 24.9279 -100.834 24.3041C-78.2052 39.5599 -53.7617 52.0934 -31.8138 68.4835C-13.0417 82.3782 10.2672 88.333 28.6422 102.965C-18.9401 113.23 -67.543 103.362 -115.579 103.872C-154.654 104.553 -193.73 101.831 -232.748 104.269C-267.003 107.162 -301.371 104.269 -335.512 101.264C-331.712 98.4279 -327.912 95.649 -323.999 92.87C-295.926 95.1386 -268.137 89.9777 -240.121 88.9002C-160.609 87.8793 -81.0406 87.0286 -1.69916 93.3238C-67.4862 81.8677 -134.294 87.0286 -200.648 85.4974C-244.317 83.8527 -287.76 90.4881 -331.259 92.2462C-350.881 105.687 -374.53 97.1235 -395.911 93.7775C-363.868 77.1039 -326.438 81.1305 -291.616 76.1965C-217.776 67.5194 -143.368 74.0981 -69.3013 70.0714C-143.255 67.6895 -217.549 66.5552 -291.276 73.5309C-327.345 77.8411 -366.024 75.289 -398.917 92.9268C-421.602 88.3897 -445.195 86.5749 -466.689 77.4441C-471.056 76.8203 -479.903 75.5159 -484.27 74.8353C-466.349 53.0008 -434.646 54.7022 -409.749 46.0818C-437.312 48.1802 -464.874 55.2693 -489.318 68.3133C-483.987 84.987 -459.316 82.7752 -444.911 88.2196C-446.386 92.0761 -449.335 99.7324 -450.809 103.589C-473.381 96.5564 -500.604 91.0552 -511.266 67.1224C-461.018 39.8434 -403.738 30.3724 -348.102 20.3909ZM-319.576 43.3029C-367.442 51.4129 -415.931 55.6663 -462.946 68.4835L-462.719 73.8145C-395.004 58.3886 -326.324 45.1177 -256.624 43.0761C-205.979 34.0587 -153.69 43.3029 -103.272 34.9661C-175.468 30.4291 -248.004 32.9811 -319.576 43.3029ZM-422.226 76.5934C-399.257 78.0113 -377.479 68.9939 -354.738 67.2925C-323.829 64.8538 -293.317 59.4094 -262.295 57.8781C-203.768 52.9441 -144.956 56.8573 -86.3152 53.3411C-198.607 45.7416 -312.43 50.5055 -422.226 76.5934Z" fill="#FEF7EB"/>
<path d="M-154.657 3.94387C-98.1138 3.37674 -41.5144 3.71702 15.0285 6.49596C86.4869 8.08392 157.208 19.9369 227.249 33.7749C235.189 36.5538 243.242 39.2761 251.295 42.2818C228.723 67.746 191.746 56.2332 163.05 67.349C135.147 77.3305 105.486 83.5122 79.9082 98.768C62.7241 99.6187 45.4835 99.7321 28.6397 102.965C10.2647 88.3328 -13.0442 82.3779 -31.8162 68.4833C-53.7641 52.0932 -78.2076 39.5596 -100.836 24.3038L-92.9529 24.1904C-113.88 19.7668 -135.204 17.1013 -156.528 17.6117C-156.075 14.2089 -155.11 7.34665 -154.657 3.94387ZM-45.3139 16.9311C-50.5882 16.1939 -63.5757 24.3038 -53.3106 27.8768C-41.7411 35.4196 -26.0315 15.4566 -45.3139 16.9311ZM10.0945 56.8004C7.37227 65.9312 10.6616 69.1071 20.0193 66.2715C22.5714 57.1407 19.282 54.0214 10.0945 56.8004Z" fill="#FFFEFC"/>
<path d="M222.034 31.0527C243.755 33.6048 274.947 40.9775 277.102 67.4058C275.288 82.7183 272.735 97.9174 271.318 113.287C288.615 108.579 299.901 92.9833 316.064 85.8375C334.326 76.9335 357.295 70.8086 376.464 80.4498C382.078 80.1662 393.194 79.5991 398.752 79.2588C393.081 82.6616 387.579 86.1211 382.135 89.694C389.508 88.503 397.164 87.1419 404.65 85.6106C436.296 104.099 471.912 134.27 467.205 174.82C472.706 217.128 448.829 255.976 421.721 286.205C419.339 285.694 414.632 284.617 412.306 284.049C347.597 342.804 267.972 382.617 184.944 408.364C169.688 414.659 151.54 420.161 143.543 435.983C165.094 421.975 188.517 409.328 214.888 408.251C186.702 420.104 158.799 433.658 135.036 453.224L132.144 445.058C132.144 448.12 132.03 454.245 131.974 457.308L123.183 454.188C124.034 456.287 125.679 460.484 126.473 462.525C111.444 479.709 90.6868 491.959 79.2875 512.149C73.5028 524.853 91.1972 530.638 98.343 537.727C98.4564 547.368 99.0236 557.009 98.343 566.707C82.0096 588.542 51.4981 590.243 27.4518 598.41C23.8788 595.12 20.4196 591.774 17.0168 588.371C39.7587 587.691 61.5365 580.375 81.8965 570.45L80.8756 567.501C48.6627 579.864 14.2376 585.479 -19.7335 590.413C-106.448 595.12 -196.451 602.606 -279.989 573.796C-284.583 577.256 -285.207 580.545 -281.918 583.834C-250.612 589.732 -218.966 593.362 -187.093 594.61L-182.33 604.478C-221.518 600.281 -261.784 599.374 -299.498 586.84C-311.975 583.21 -322.07 574.874 -330.464 565.289C-328.025 566.083 -323.091 567.728 -320.596 568.522C-312.372 571.925 -304.376 576.121 -295.642 578.39C-295.585 576.745 -295.472 573.342 -295.415 571.641L-298.818 569.316L-301.937 566.253C-203.937 588.995 -101.116 585.989 -2.49252 568.408C-18.202 569.883 -33.855 571.131 -49.5078 571.641L-45.0273 561.546C-7.59668 556.102 32.3857 556.952 66.7538 539.258C15.5987 546.46 -35.9533 552.245 -87.6756 551.111C-159.474 549.807 -231.783 552.586 -302.958 541.186C-301.54 533.984 -300.066 526.838 -298.478 519.635C-256.85 537.443 -211.196 542.037 -166.393 544.986C-93.914 545.156 -21.2644 537.84 49.3432 521.166C58.7009 519.919 62.7273 510.731 68.2284 504.323C80.1382 488.103 95.1106 474.605 109.572 460.71C114.45 455.947 119.27 451.126 123.921 446.022C141.332 422.656 164.47 403.374 176.72 376.378C196.854 334.694 213.187 291.195 228.726 247.64C238.821 212.024 246.194 175.728 254.474 139.658C244.209 142.04 233.944 143.968 223.565 145.046C233.83 141.757 244.436 139.034 255.098 136.596C257.933 119.355 260.599 102.114 262.867 84.7599C214.548 106.651 161.408 115.215 108.835 117.994C107.644 117.824 105.319 117.54 104.128 117.37C161.124 108.069 223.566 107.162 271.942 71.5458C269.787 58.7287 265.079 46.0817 251.298 42.2819C243.245 39.2761 235.192 36.5539 227.252 33.775L222.034 31.0527ZM315.838 92.5296L315.724 95.6489C323.04 98.1442 336.254 92.3595 338.012 85.0435C330.186 82.6616 320.545 86.0643 315.838 92.5296ZM315.724 95.6489C311.641 99.1651 311.641 99.1651 315.724 95.6489V95.6489ZM298.767 102.625C302.056 106.084 302.056 106.084 298.767 102.625V102.625ZM288.105 124.232C278.917 134.894 259.805 136.822 258.217 152.816C265.306 148.619 272.168 144.025 279.201 139.545C280.392 156.105 255.438 159.735 252.205 175.954C272.962 167.504 285.836 147.541 305.175 136.709C324.118 126.217 344.024 112.436 366.766 114.875C390.302 115.612 413.27 128.372 425.464 148.732C438.904 174.537 430.625 206.296 414.972 229.208C399.659 251.893 384.29 276.733 359.166 289.551C360.754 287.339 363.93 282.858 365.575 280.59L375.329 276.677C371.246 273.784 367.049 271.119 362.796 268.68C375.329 255.92 387.693 242.706 396.257 226.826C398.355 227.677 402.552 229.378 404.65 230.229C407.712 225.238 410.775 220.191 413.781 215.143C414.688 213.385 416.56 209.926 417.467 208.167L417.354 205.672C428.242 192.458 427.845 160.755 411.626 151.454C414.007 141.303 398.185 131.094 389.451 136.425L388.714 139.545L382.021 138.864C361.548 139.715 338.976 140.225 323.38 155.481C289.239 185.426 260.712 221.552 238.084 260.911L233.83 263.349C230.314 292.67 208.99 317.51 209.16 347.738C207.516 348.419 204.226 349.723 202.638 350.404L200.54 347.171C193.621 344.732 189.084 356.869 192.714 361.803C195.549 361.69 201.164 361.406 203.943 361.236C211.939 358.854 220.39 358.06 228.67 360.102C212.904 365.546 196.797 370.196 181.938 377.739C181.144 380.461 179.556 385.963 178.762 388.742C221.24 375.301 261.28 355.451 301.262 336.112C332.738 319.779 365.064 303.275 390.812 278.492C412.76 252.404 437.884 226.202 444.689 191.494C452.743 159.054 439.529 117.994 406.635 104.893C367.73 90.6014 318.276 92.8132 288.105 124.232ZM356.16 131.945C358.712 139.545 379.356 139.034 382.021 131.548C374.252 127.578 363.703 127.805 356.16 131.945ZM390.699 242.989C393.875 246.505 393.875 246.505 390.699 242.989V242.989ZM372.323 261.648C373.628 273.898 391.266 259.323 376.69 258.302L372.323 261.648Z" fill="#494D34"/>
<path d="M279.199 139.545C296.44 121.68 320.6 112.776 344.533 107.956C321.11 115.272 302.849 134.214 279.199 139.545Z" fill="#494D34"/>
<path d="M251.295 42.2812C265.076 46.081 269.783 58.728 271.939 71.5452C223.562 107.161 161.121 108.068 104.125 117.369C102.934 117.483 100.495 117.766 99.2474 117.936C88.0182 117.086 76.7322 116.519 65.7866 118.73C62.157 119.298 54.9546 120.488 51.3816 121.112C28.8098 123.438 6.12448 124.345 -16.504 124.629C-31.7598 123.608 -46.7886 127.01 -61.3638 130.924C-132.482 127.464 -203.827 133.873 -274.945 129.392C-281.297 124.288 -285.153 117.539 -281.807 109.259C-267.969 110.847 -254.075 113.683 -240.01 112.549C-194.809 109.032 -149.553 116.802 -104.296 113.059C-75.9958 110.11 -47.4693 111.131 -18.9994 110.677C3.85596 110.507 26.3145 104.836 49.2265 104.155C104.522 103.985 158.399 90.0336 212.56 80.3357C228.042 76.8762 248.062 75.1748 254.698 57.9908C233.147 75.1181 205.187 78.4641 179.156 83.9653C146.149 89.4098 113.369 97.066 79.9081 98.7674C105.486 83.5116 135.147 77.3299 163.05 67.3484C191.746 56.2327 228.723 67.7454 251.295 42.2812Z" fill="#FEF7EC"/>
<path d="M288.104 124.232C318.275 92.8133 367.729 90.6015 406.634 104.893C439.527 117.994 452.741 159.054 444.688 191.494C437.883 226.202 412.759 252.404 390.811 278.492C365.063 303.275 332.737 319.779 301.261 336.112C261.278 355.451 221.239 375.301 178.761 388.742C179.555 385.963 181.143 380.462 181.937 377.739C196.795 370.197 212.902 365.546 228.668 360.102C229.406 359.875 230.823 359.421 231.561 359.194C260.541 351.141 287.593 336.679 310.449 317.057C325.874 303.389 345.327 293.747 356.273 275.543C357.917 273.841 361.15 270.438 362.794 268.68C367.048 271.119 371.245 273.784 375.328 276.677L365.573 280.59C363.929 282.859 360.753 287.339 359.165 289.551C356.896 292.103 356.896 292.103 359.165 289.551C384.289 276.734 399.658 251.893 414.971 229.208C430.623 206.296 438.903 174.537 425.462 148.732C413.269 128.372 390.3 115.612 366.764 114.875C344.023 112.436 324.116 126.217 305.174 136.709C285.835 147.541 272.961 167.504 252.204 175.955C255.437 159.735 280.391 156.105 279.2 139.545C302.849 134.214 321.111 115.272 344.533 107.956C320.6 112.776 296.44 121.68 279.2 139.545C272.167 144.025 265.305 148.619 258.216 152.816C259.804 136.823 278.916 134.894 288.104 124.232Z" fill="#FEF7EC"/>
<path d="M382.018 138.864L388.71 139.545C395.969 144.082 403.342 148.732 411.622 151.454C427.842 160.755 428.239 192.458 417.35 205.672C416.67 206.296 415.309 207.487 414.628 208.111L417.464 208.167C416.556 209.925 414.685 213.385 413.777 215.143C409.524 217.695 400.96 222.799 396.65 225.351C400.96 215.653 405.667 206.069 410.375 196.541C419.052 195.407 420.129 191.834 413.721 185.822C414.571 164.158 398.805 149.469 382.018 138.864Z" fill="#8F9876"/>
<path d="M-269.048 276.733C-269.501 275.259 -270.352 272.309 -270.749 270.835C-229.235 277.981 -187.041 275.315 -145.187 279.058C-123.692 279.852 -102.255 276.166 -80.6473 277.697C-78.0385 279.342 -72.8775 282.631 -70.2687 284.276C-19.9076 284.9 30.6805 283.255 80.5313 275.542L87.5069 277.697C45.7661 286.204 3.28796 290.571 -39.1333 293.123C-47.3 290.174 -55.6369 287.112 -64.3707 287.679C-132.767 290.514 -201.276 285.24 -269.048 276.733Z" fill="#8F9876"/>
<path d="M10.0943 56.8011C19.2818 54.0221 22.5711 57.1413 20.0191 66.2721C10.6614 69.1078 7.37206 65.9318 10.0943 56.8011Z" fill="#E3E2E0"/>
<path d="M179.16 83.9655C205.192 78.4644 233.151 75.1183 254.702 57.991C248.067 75.175 228.047 76.8764 212.564 80.3359C158.404 90.0338 104.526 103.985 49.2311 104.155C26.319 104.836 3.8605 110.507 -18.9948 110.677C-47.4648 111.131 -75.9913 110.11 -104.291 113.059C-149.548 116.802 -194.805 109.033 -240.005 112.549C-245.62 111.812 -251.178 111.074 -256.622 110.224C-248.796 108.125 -240.799 106.027 -232.746 104.269C-193.728 101.83 -154.652 104.552 -115.577 103.872C-67.541 103.361 -18.938 113.229 28.6442 102.964C45.488 99.7318 62.7286 99.6183 79.9127 98.7676C113.373 97.0662 146.153 89.41 179.16 83.9655Z" fill="#41522A"/>
<path d="M123.582 131.321C125.057 130.584 127.949 129.166 129.424 128.429C157.837 131.264 185.513 144.308 214.323 136.652C208.652 138.921 203.094 141.189 197.536 143.401C207.347 146.463 217.215 150.15 226.119 155.594C230.429 155.197 238.993 154.347 243.303 153.893C240.411 155.141 234.683 157.522 231.791 158.77C234.172 163.477 238.879 172.948 241.205 177.712C237.235 177.712 229.238 177.712 225.268 177.769C207.631 181.115 190.73 187.297 173.206 191.097C192.999 181.796 215.344 178.733 234.002 166.88C200.031 147.654 162.601 134.667 123.582 131.321Z" fill="#41522A"/>
<path d="M-280.275 171.701C-181.821 168.695 -83.3106 167.788 15.1432 166.03C-22.0038 174.65 -60.3417 171.701 -98.1125 173.913C-161.801 177.202 -225.603 177.826 -289.292 181.172C-299.387 180.662 -309.482 179.527 -319.407 178.166C-307.327 172.041 -293.546 171.985 -280.275 171.701Z" fill="#41522A"/>
<path d="M-512.741 78.9758C-508.374 84.7038 -504.291 90.7722 -499.527 96.2733C-492.438 97.5777 -484.668 96.3867 -477.806 99.3925C-444.231 116.803 -404.589 113.684 -369.881 128.089C-398.237 129.904 -424.212 141.077 -450.413 150.831C-465.839 150.831 -480.358 143.855 -495.614 141.984C-482.059 146.237 -468.391 149.867 -454.723 154.064C-465.612 162.344 -477.692 163.138 -489.091 155.879C-484.668 160.075 -479.167 162.684 -473.949 165.974C-484.214 170.284 -485.802 179.358 -484.554 189.112C-483.534 207.147 -480.188 224.955 -474.063 241.969C-473.099 245.145 -471.114 251.44 -470.149 254.616C-465.896 269.928 -461.075 285.241 -453.759 299.419L-451.207 304.58C-449.959 307.302 -447.521 312.86 -446.273 315.582L-443.494 321.934C-440.942 328.059 -438.39 334.184 -435.668 340.309L-434.08 343.996C-412.983 391.691 -380.543 434.056 -341.694 468.651C-333.187 476.591 -322.809 481.865 -312.147 486.345C-305.909 489.238 -299.613 492.414 -293.488 495.873C-285.435 500.75 -277.098 505.174 -268.251 508.633C-258.27 513.284 -247.381 516.233 -236.208 515.779C-208.419 528.029 -177.397 524.57 -147.849 524.343C-94.3123 525.988 -40.4917 524.059 12.3648 514.702C38.5095 516.29 55.2399 495.079 74.1253 480.958C70.8927 478.008 67.66 475.116 64.5408 472.224C31.1936 476.818 -2.43723 481.128 -36.1248 478.576C-15.4812 477.611 5.3324 478.008 25.8625 475.059C44.2943 472.621 62.9529 466.723 81.6115 471.543C89.3245 464.567 96.9804 457.592 104.693 450.503C84.2767 455.096 63.4066 457.648 42.5361 456.854C65.1646 452.261 88.587 451.07 110.535 443.3C110.025 449.085 109.684 454.87 109.571 460.711C95.1091 474.606 80.1367 488.103 68.227 504.323C62.7258 510.732 58.6994 519.919 49.3418 521.167C-21.2659 537.841 -93.9155 545.157 -166.395 544.987C-211.198 542.037 -256.852 537.444 -298.479 519.636C-300.464 518.899 -304.491 517.367 -306.476 516.63C-330.352 487.65 -365.854 471.316 -389.447 442.052C-445.139 380.405 -471.17 299.419 -491.53 220.588C-503.213 174.31 -515.236 127.068 -512.741 78.9758ZM-505.198 108.183C-507.07 117.03 -492.324 121 -485.972 117.2C-485.292 109.431 -499.073 104.497 -505.198 108.183ZM-476.558 121.624C-467.994 126.218 -456.822 130.585 -446.954 128.203C-449.109 118.618 -472.305 111.472 -476.558 121.624ZM-498.392 125.991C-496.691 135.349 -472.248 142.097 -468.505 132.116C-477.068 126.955 -488.581 124.006 -498.392 125.991Z" fill="#FEF7EE"/>
<path d="M315.837 92.5296C320.544 86.0643 330.185 82.6616 338.012 85.0435C336.254 92.3595 323.04 98.1442 315.724 95.6488L315.837 92.5296Z" fill="#CFCEBC"/>
<path d="M108.834 117.994C161.407 115.215 214.546 106.651 262.866 84.76C260.597 102.114 257.932 119.355 255.096 136.596C244.434 139.034 233.829 141.757 223.564 145.046C233.942 143.968 244.207 142.04 254.473 139.658C246.192 175.728 238.82 212.024 228.725 247.64C213.185 291.195 196.852 334.694 176.719 376.378C164.469 403.374 141.33 422.656 123.919 446.022C124.033 440.691 124.259 429.972 124.373 424.641C127.889 420.558 130.895 416.077 133.39 411.2C135.091 409.952 138.438 407.514 140.139 406.266C142.01 404.735 145.64 401.729 147.512 400.254C153.24 392.088 159.195 384.091 165.263 376.095L166.397 370.423L167.815 362.994C169.743 360.839 173.656 356.472 175.641 354.26C148.136 362.54 120.516 371.501 91.5926 372.522C89.0972 372.181 84.1633 371.501 81.7246 371.104L94.8253 367.758L94.7685 366.17C98.5683 367.191 106.281 369.176 110.138 370.197L106.962 366.567C134.354 359.931 165.944 358.4 186.417 336.339C165.093 341.67 143.996 348.362 122.161 351.141L114.958 349.496C142.067 342.804 169.686 335.942 194.016 321.65C193.903 320.232 193.676 317.34 193.563 315.922L192.826 307.472C194.357 306.565 197.363 304.636 198.894 303.729L201.446 298.001C202.523 295.449 204.678 290.288 205.756 287.736C206.38 286.205 207.627 283.142 208.251 281.611C211.711 271.856 214.433 261.818 217.723 251.893C218.8 249.738 221.012 245.428 222.089 243.216C222.94 240.154 224.755 233.972 225.662 230.909L226.967 226.032C227.477 222.573 228.555 215.654 229.065 212.194C228.385 207.6 227.647 203.063 226.91 198.526C231.844 192.968 236.891 187.411 241.939 181.853C235.814 182.703 229.802 183.724 223.847 184.858L225.265 177.769C229.235 177.713 237.232 177.713 241.202 177.713C238.876 172.949 234.169 163.478 231.787 158.77C234.68 157.523 240.408 155.141 243.3 153.893C238.99 154.347 230.426 155.198 226.116 155.595C217.212 150.15 207.344 146.464 197.532 143.401C203.09 141.189 208.648 138.921 214.32 136.652C185.509 144.309 157.834 131.265 129.42 128.429C122.388 125.14 115.582 121.453 108.834 117.994ZM237.515 112.946C238.65 131.208 254.87 103.816 237.515 112.946V112.946ZM220.161 118.845C221.352 136.879 237.912 110.167 220.161 118.845V118.845ZM236.154 130.13C239.5 111.982 254.189 137.446 236.154 130.13V130.13ZM219.934 134.1C227.25 138.127 232.695 136.766 236.154 130.13C228.158 126.217 222.77 127.578 219.934 134.1Z" fill="#FEF6EC"/>
<path d="M315.721 95.6492C311.637 99.1654 311.637 99.1654 315.721 95.6492V95.6492Z" fill="#F1EDDC"/>
<path d="M-283.563 189.225C-176.773 178.28 -69.4718 187.24 37.659 184.518C28.1879 186.843 18.4899 188.715 8.84872 189.225C-64.0842 191.551 -137.301 189.906 -210.064 195.067C-227.191 195.123 -244.318 195.01 -261.446 195.18C-266.947 193.649 -278.062 190.7 -283.563 189.225Z" fill="#32431D"/>
<path d="M223.845 184.858C229.8 183.724 235.811 182.703 241.936 181.853C236.889 187.41 231.842 192.968 226.908 198.526C227.645 203.063 228.382 207.6 229.063 212.194C193.901 228.017 156.81 238.736 121.308 253.594C158.228 252.46 193.106 239.643 226.964 226.032L225.66 230.909C178.361 249.284 130.382 265.731 80.5313 275.542C30.6806 283.255 -19.9075 284.9 -70.2687 284.276C-72.8775 282.632 -78.0385 279.342 -80.6473 277.698C-36.8081 279.739 7.03128 274.465 50.4167 268.226C19.735 265.561 -10.947 270.268 -41.6287 270.325C-88.9273 270.778 -136.339 269.077 -183.354 263.746C-213.412 263.689 -243.357 261.818 -273.018 257.508L-273.358 255.523C-235.927 261.024 -197.93 255.863 -160.442 261.364C-131.973 264.37 -103.219 263.916 -74.5789 264.597C-4.59509 258.755 66.4097 256.77 134.635 238.509C146.318 234.652 161.631 234.596 168.436 222.459C78.0927 254.559 -18.5464 254.842 -113.087 257.281C-121.48 256.203 -129.817 255.012 -138.041 253.594L-135.262 247.413C-29.8324 252.857 75.9942 238.849 178.248 213.272C176.093 211.684 171.896 208.451 169.741 206.806C185.564 204.651 200.309 198.186 215.905 195.123C217.89 192.571 221.86 187.41 223.845 184.858ZM166.281 226.032C187.038 222.629 214.431 219.623 225.036 199.093C204.392 205.218 184.43 214.633 166.281 226.032ZM54.3296 263.633C75.3134 266.468 96.6376 263.576 117.224 258.926L121.081 252.517C98.6793 255.523 76.5611 260.116 54.3296 263.633Z" fill="#32431D"/>
<path d="M87.5103 277.698C133.334 271.403 179.839 263.009 222.09 243.217C221.013 245.428 218.801 249.739 217.724 251.894C189.424 260.004 160.5 267.66 134.185 280.987C149.724 280.817 165.207 277.925 180.916 278.605C88.4743 313.257 -11.8509 325.621 -109.964 315.469C-151.308 312.633 -193.673 320.857 -234.109 309.004C-193.162 316.149 -151.478 310.818 -110.135 313.087C-30.5663 311.953 49.5693 304.637 126.756 284.787C59.6642 291.763 -7.59727 305.147 -75.4827 302.198C-135.882 293.408 -197.586 304.977 -257.361 290.175C-234.96 292.046 -212.728 296.47 -190.1 295.676C-139.795 294.031 -89.3776 298.001 -39.1299 293.124C3.29147 290.572 45.7696 286.205 87.5103 277.698Z" fill="#32431D"/>
<path d="M71.5177 314.277C117.682 306.508 164.64 299.589 208.253 281.611C207.629 283.142 206.381 286.205 205.757 287.736C168.383 299.362 131.577 313.37 93.0686 320.856C64.4285 325.847 35.6749 329.817 6.86475 333.22C-28.6376 332.312 -64.1965 332.652 -99.6421 330.668C-42.2485 329.987 14.6913 321.82 71.5177 314.277Z" fill="#32431D"/>
<path d="M125.789 319.268C151.877 315.922 177.795 310.024 201.444 298.001L198.892 303.729C197.361 304.636 194.355 306.564 192.824 307.472C135.941 328.512 76.6189 343.031 16.1629 348.702C7.71264 347.681 -0.68084 346.49 -8.96094 345.186C-6.40885 343.201 -1.19122 339.288 1.36087 337.303C43.2718 334.694 84.8424 328.626 125.789 319.268Z" fill="#32431D"/>
<path d="M145.298 333.503C162.198 330.384 179.156 325.677 193.561 315.922C193.674 317.34 193.901 320.233 194.014 321.65C169.684 335.942 142.065 342.804 114.956 349.496C50.19 363.221 -15.8804 371.501 -82.1779 370.197C-127.265 367.474 -172.465 366.68 -217.552 365.093C-162.824 360.045 -107.586 369.176 -53.0276 359.875C13.7236 357.039 79.681 345.583 145.298 333.503Z" fill="#32431D"/>
<path d="M122.162 351.14C143.997 348.361 165.094 341.669 186.418 336.338C165.945 358.399 134.355 359.931 106.963 366.566C103.56 362.766 100.214 359.023 96.9814 355.28C103.277 354.259 115.867 352.161 122.162 351.14Z" fill="#32431D"/>
<path d="M91.5936 372.521C120.517 371.5 148.137 362.54 175.642 354.26C173.657 356.471 169.744 360.838 167.816 362.993C122.502 379.894 74.5797 387.663 27.111 395.49C-35.5002 400.197 -98.2814 401.104 -161.006 400.991C-182.046 400.991 -203.03 398.496 -223.333 393.051C-150.344 402.409 -75.9365 396.851 -3.28712 386.416C28.4154 382.729 60.5716 380.744 91.5936 372.521Z" fill="#32431D"/>
<path d="M-44.2915 375.867C1.92957 372.011 47.9804 364.979 94.2015 360.158C94.3717 361.632 94.5984 364.695 94.7685 366.17L94.8253 367.757L81.7246 371.104C37.9989 376.208 -5.55656 382.786 -49.6226 383.297C-48.2614 381.425 -45.6526 377.739 -44.2915 375.867Z" fill="#32431D"/>
<path d="M298.764 102.625C302.053 106.084 302.053 106.084 298.764 102.625V102.625Z" fill="#E3E1D3"/>
<path d="M223.394 343.825C230.71 341.613 238.026 339.345 245.512 337.303C249.538 337.189 257.592 336.963 261.618 336.849L260.881 345.413C255.89 345.073 245.909 344.505 240.918 344.165C238.82 344.959 234.509 346.49 232.354 347.284L232.071 351.765L231.56 359.194C230.823 359.421 229.405 359.875 228.668 360.101C220.388 358.06 211.938 358.854 203.941 361.236C203.601 358.513 202.977 353.126 202.637 350.404C204.225 349.723 207.514 348.419 209.159 347.738L213.696 345.866C215.17 347.284 218.119 350.007 219.594 351.368L223.791 348.759L223.394 343.825Z" fill="#DDD5C5"/>
<path d="M99.2498 117.937C100.497 117.766 102.936 117.483 104.127 117.369C105.318 117.54 107.643 117.823 108.834 117.993C115.583 121.453 122.389 125.139 129.421 128.428C127.947 129.166 125.054 130.584 123.58 131.321C162.598 134.667 200.029 147.654 234 166.88C215.341 178.733 192.996 181.795 173.203 191.096C190.728 187.297 207.628 181.115 225.266 177.769L223.848 184.858C221.863 187.41 217.893 192.571 215.908 195.123C200.312 198.185 185.567 204.651 169.744 206.806C171.899 208.45 176.096 211.683 178.251 213.271C75.9974 238.849 -29.8292 252.857 -135.259 247.412C-139.569 242.365 -143.936 237.488 -148.586 232.837C-120.57 234.085 -92.4968 233.574 -64.4239 232.951C-75.1993 233.915 -85.6915 236.694 -95.1625 241.798C-63.9137 241.287 -31.417 241.628 -1.4158 231.703C25.1259 228.981 51.9509 228.413 78.0956 222.345C105.942 215.143 135.262 210.606 160.5 195.974C168.893 191.607 171.275 181.682 175.075 173.742C186.247 175.444 200.199 174.876 207.231 164.555C196.172 160.925 184.432 164.328 175.925 171.644C163.846 167.617 151.652 163.987 139.516 160.585C130.839 181.966 111.783 195.633 89.495 199.887C64.4845 207.883 38.0565 208.904 12.0819 207.94C-5.21555 202.836 -23.3071 201.078 -40.4911 207.43C-56.0872 208.224 -71.6265 208.507 -87.1658 208.45C-90.0015 199.717 -102.308 199.206 -104.634 208.45C-188.796 216.05 -273.979 202.552 -357.744 213.895C-367.101 213.158 -375.268 208.45 -383.491 204.594C-319.973 207.316 -256.511 198.015 -193.049 201.475C-171.045 206.692 -147.962 207.77 -126.241 200.17C-146.941 194.613 -168.719 193.762 -189.192 200.454C-196.225 198.696 -203.144 196.881 -210.063 195.066C-137.3 189.905 -64.0837 191.55 8.84924 189.225C18.4904 188.714 28.1885 186.843 37.6595 184.518C-69.4713 187.24 -176.772 178.279 -283.563 189.225C-284.981 187.183 -287.873 183.156 -289.291 181.172C-225.602 177.825 -161.8 177.202 -98.1114 173.912C-60.3405 171.7 -22.0027 174.65 15.1443 166.029C-83.3094 167.787 -181.82 168.695 -280.274 171.7L-280.841 165.405C-196.962 163.477 -113.197 157.409 -29.3188 156.388C-16.5584 158.6 -1.98315 162.57 8.28192 151.624C-11.0572 144.308 -32.5513 150.206 -51.4935 141.756C0.739197 136.879 53.4823 141.926 105.942 138.523C50.2497 133.93 -6.06631 140.225 -61.3615 130.924C-46.7862 127.011 -31.7574 123.608 -16.5016 124.629C5.9567 128.428 30.0599 130.981 51.384 121.112C54.9569 120.489 62.1593 119.298 65.789 118.731C74.8063 128.825 90.3458 127.634 99.2498 117.937ZM175.359 153.609C177.4 160.415 182.107 161.435 189.48 156.558C187.325 149.696 182.618 148.675 175.359 153.609ZM22.0635 164.952C23.6514 172.154 28.0181 173.288 35.2773 168.354C33.576 161.209 29.1526 160.074 22.0635 164.952Z" fill="#BAD18D"/>
<path d="M166.283 226.032C184.431 214.632 204.394 205.218 225.037 199.093C214.432 219.623 187.04 222.629 166.283 226.032Z" fill="#BAD18D"/>
<path d="M121.31 253.594C156.812 238.736 193.903 228.017 229.065 212.194C228.554 215.653 227.476 222.572 226.966 226.032C193.108 239.643 158.23 252.46 121.31 253.594Z" fill="#BAD18D"/>
<path d="M80.5361 275.542C130.387 265.731 178.366 249.284 225.665 230.909C224.757 233.971 222.942 240.153 222.092 243.216C179.84 263.008 133.336 271.402 87.5117 277.697L80.5361 275.542Z" fill="#BAD18D"/>
<path d="M-273.013 257.508C-243.352 261.818 -213.407 263.689 -183.349 263.746C-136.334 269.077 -88.9224 270.778 -41.6238 270.325C-10.942 270.268 19.7399 265.561 50.4217 268.226C7.03622 274.465 -36.8032 279.739 -80.6423 277.697C-102.25 276.166 -123.688 279.852 -145.182 279.058C-187.036 275.315 -229.23 277.981 -270.744 270.835C-271.311 267.489 -272.446 260.854 -273.013 257.508Z" fill="#BAD18D"/>
<path d="M93.0661 320.856C131.574 313.37 168.381 299.362 205.755 287.736C204.677 290.288 202.522 295.449 201.445 298.001C177.795 310.024 151.878 315.922 125.79 319.268C84.8429 328.626 43.2722 334.694 1.36133 337.303L6.86232 333.22C35.6725 329.817 64.4261 325.847 93.0661 320.856Z" fill="#BAD18D"/>
<path d="M9.81396 444.831C48.5489 441.315 86.1497 431.05 124.374 424.641C124.261 429.972 124.034 440.691 123.92 446.022C119.27 451.126 114.45 455.947 109.572 460.711C109.686 454.869 110.026 449.085 110.536 443.3C112.748 441.145 117.229 436.835 119.497 434.68C83.0873 439.443 46.6774 447.78 9.81396 444.831Z" fill="#BAD18D"/>
<path d="M237.516 112.946C238.65 131.208 254.87 103.816 237.516 112.946V112.946Z" fill="#B1AB9D"/>
<path d="M89.4969 199.887C111.785 195.634 130.841 181.966 139.518 160.585C151.654 163.988 163.848 167.618 175.927 171.644L175.077 173.743C171.277 181.682 168.895 191.607 160.502 195.974C135.264 210.606 105.944 215.143 78.0975 222.346C52.123 212.648 24.8443 219 -1.75412 220.531C-73.8363 219.226 -145.919 217.525 -218.001 218.489C-244.429 217.071 -270.404 225.919 -296.775 222.232C-317.135 219.453 -337.438 216.788 -357.742 213.895C-273.977 202.553 -188.794 216.051 -104.632 208.451C-100.265 208.451 -91.5308 208.451 -87.1639 208.451C-71.6245 208.508 -56.0853 208.224 -40.4892 207.43C-23.0783 209.075 -5.49716 209.132 12.0839 207.941C38.0584 208.905 64.4865 207.884 89.4969 199.887Z" fill="#E5ECD4"/>
<path d="M65.7861 118.732C76.7317 116.52 88.0178 117.087 99.2469 117.938C90.343 127.636 74.8035 128.827 65.7861 118.732Z" fill="#868D6A"/>
<path d="M220.162 118.845C221.353 136.88 237.913 110.168 220.162 118.845V118.845Z" fill="#ABA799"/>
<path d="M-329.672 125.196C-311.467 126.671 -293.206 128.032 -274.944 129.393C-203.826 133.873 -132.481 127.465 -61.3629 130.924C-6.06775 140.225 50.2483 133.93 105.94 138.524C53.4809 141.926 0.737762 136.879 -51.4949 141.756C-55.2947 141.983 -59.0376 142.21 -62.6672 142.437C-87.2239 127.181 -116.828 134.837 -143.937 134.327C-176.774 136.255 -209.951 132.285 -242.447 138.353C-190.555 142.437 -138.266 138.921 -86.3168 143.571C-132.935 150.49 -180.687 141.416 -226.795 150.887C-161.064 155.311 -94.7671 148.732 -29.3203 156.388C-113.199 157.409 -196.964 163.477 -280.842 165.406C-289.066 165.689 -297.232 166.029 -305.342 166.426L-301.939 158.203C-279.197 158.26 -256.399 157.579 -233.714 155.311C-263.658 150.83 -294.056 151.568 -324.114 154.233C-334.72 152.645 -345.212 150.717 -355.76 149.242C-350.996 144.989 -346.119 140.679 -341.185 136.482C-344.361 135.915 -350.599 134.781 -353.775 134.213C-345.779 131.094 -337.895 127.862 -329.672 125.196ZM-330.409 143.628C-315.834 145.726 -300.975 146.747 -286.343 143.911C-301.032 141.87 -315.777 142.04 -330.409 143.628Z" fill="#58673C"/>
<path d="M236.154 130.13C239.5 111.982 254.189 137.446 236.154 130.13V130.13Z" fill="#B4ADA2"/>
<path d="M219.933 134.1C222.769 127.578 228.157 126.217 236.153 130.13C232.694 136.766 227.249 138.127 219.933 134.1Z" fill="#AAA698"/>
<path d="M356.156 131.945C363.699 127.805 374.248 127.578 382.017 131.548C379.352 139.034 358.708 139.545 356.156 131.945Z" fill="#B5B5A1"/>
<path d="M-242.449 138.354C-209.953 132.286 -176.776 136.256 -143.939 134.327C-116.83 134.838 -87.2257 127.182 -62.669 142.437C-59.0393 142.211 -55.2964 141.984 -51.4967 141.757C-32.5545 150.207 -11.0604 144.309 8.2787 151.625C-1.98634 162.57 -16.5616 158.601 -29.322 156.389C-94.7688 148.733 -161.066 155.311 -226.796 150.888C-180.689 141.417 -132.937 150.491 -86.3185 143.572C-138.268 138.921 -190.557 142.437 -242.449 138.354Z" fill="#A2B57B"/>
<path d="M389.447 136.425C398.181 131.094 414.004 141.303 411.622 151.454C403.342 148.732 395.969 144.082 388.71 139.545L389.447 136.425Z" fill="#DFD7C8"/>
<path d="M175.359 153.609C182.618 148.675 187.325 149.696 189.48 156.558C182.108 161.436 177.401 160.415 175.359 153.609Z" fill="#89A164"/>
<path d="M22.0635 164.952C29.1526 160.075 33.576 161.209 35.2774 168.355C28.0181 173.289 23.6514 172.154 22.0635 164.952Z" fill="#93A86B"/>
<path d="M175.923 171.644C184.43 164.328 196.169 160.925 207.228 164.555C200.196 174.877 186.245 175.444 175.072 173.742L175.923 171.644Z" fill="#8DA264"/>
<path d="M413.722 185.823C420.131 191.834 419.053 195.407 410.376 196.542C411.17 193.876 412.872 188.488 413.722 185.823Z" fill="#7A7A6B"/>
<path d="M-40.4922 207.431C-23.3082 201.079 -5.21659 202.837 12.0809 207.941C-5.50016 209.132 -23.0813 209.075 -40.4922 207.431Z" fill="#93A07D"/>
<path d="M414.629 208.111C415.31 207.487 416.671 206.296 417.352 205.673L417.465 208.168L414.629 208.111Z" fill="#EAE9D8"/>
<path d="M-1.75908 220.531C24.8393 219 52.118 212.648 78.0926 222.346C51.9479 228.414 25.1229 228.981 -1.41882 231.703C-36.2973 218.886 -73.6714 226.372 -109.741 226.316C-127.776 226.145 -145.697 227.79 -163.391 231.25C-183.127 230.909 -202.807 230.285 -222.486 230.059C-221.409 227.166 -219.14 221.382 -218.006 218.489C-145.924 217.525 -73.8413 219.226 -1.75908 220.531Z" fill="#C0CBAD"/>
<path d="M-113.084 257.281C-18.5434 254.842 78.0956 254.559 168.439 222.459C161.634 234.596 146.321 234.652 134.638 238.509C66.4126 256.77 -4.59214 258.755 -74.576 264.597C-87.62 263.349 -100.324 260.06 -113.084 257.281Z" fill="#B0C486"/>
<path d="M390.695 242.989C393.871 246.505 393.871 246.505 390.695 242.989V242.989Z" fill="#DFDDCC"/>
<path d="M54.3301 263.633C76.5616 260.116 98.6797 255.523 121.081 252.517L117.225 258.925C96.6381 263.576 75.3139 266.468 54.3301 263.633Z" fill="#9FAC7A"/>
<path d="M134.187 280.988C160.502 267.66 189.426 260.004 217.726 251.894C214.436 261.819 211.714 271.857 208.254 281.611C164.642 299.589 117.684 306.508 71.5195 314.278C14.6931 321.821 -42.2467 329.988 -99.6403 330.668C-140.984 331.973 -182.441 325.337 -223.615 331.065C-171.893 334.751 -120.057 337.757 -68.1079 336.623V344.62C-114.159 348.589 -160.38 344.733 -206.431 347.966C-132.307 349.667 -57.8996 355.792 16.1675 348.703C76.6236 343.032 135.946 328.513 192.829 307.473L193.566 315.923C179.161 325.677 162.204 330.385 145.303 333.504C79.6862 345.584 13.7288 357.04 -53.0224 359.875C-107.58 369.176 -162.818 360.045 -217.546 365.093C-172.46 366.681 -127.259 367.475 -82.1726 370.197C-15.8751 371.502 50.1952 363.221 114.961 349.497L122.164 351.142C115.869 352.162 103.279 354.261 96.9836 355.282C100.216 359.025 103.562 362.768 106.965 366.567L110.141 370.197C106.285 369.176 98.5714 367.191 94.7717 366.17C94.6015 364.696 94.3748 361.633 94.2047 360.159C47.9836 364.98 1.93271 372.012 -44.2884 375.868C-45.6495 377.74 -48.2583 381.426 -49.6194 383.298C-5.55341 382.787 38.002 376.209 81.7278 371.105C84.1664 371.502 89.1004 372.182 91.5957 372.522C60.5737 380.746 28.4176 382.731 -3.28497 386.417C-75.9343 396.852 -150.342 402.41 -223.331 393.052C-203.028 398.497 -182.044 400.992 -161.004 400.992C-98.2792 401.106 -35.498 400.198 27.1131 395.491C74.5819 387.665 122.504 379.895 167.818 362.995L166.4 370.424C84.7335 396.455 -1.8671 404.282 -87.2201 406.55C-109.735 409.613 -132.364 412.392 -155.106 411.257C-171.269 411.938 -189.474 407.798 -203.425 417.949C-166.732 422.713 -129.585 420.502 -92.7215 420.275C-58.9205 414.603 -24.4958 416.305 9.36191 411.144C35.8469 409.953 61.8781 404.282 88.4198 403.715C24.8446 419.594 -41.7932 416.758 -106.219 427.024C-133.725 429.802 -161.344 428.952 -188.907 427.988C-155.332 437.912 -118.412 423.564 -86.4261 438.65L-85.1786 439.274C-130.833 445.285 -176.997 443.3 -222.878 443.017C-225.77 427.477 -228.606 411.938 -231.215 396.399C-243.635 395.151 -255.941 394.073 -268.248 393.109C-257.019 392.485 -245.733 391.805 -234.39 391.181C-239.495 370.424 -242.671 348.589 -253.162 329.704C-256.735 328.286 -263.994 325.507 -267.567 324.089C-264.845 323.636 -259.401 322.672 -256.679 322.218C-258.89 306.622 -263.654 291.536 -269.042 276.734C-201.27 285.241 -132.761 290.515 -64.365 287.68C-55.6312 287.113 -47.2943 290.175 -39.1276 293.124C-89.3754 298.001 -139.793 294.032 -190.098 295.676C-212.726 296.47 -234.957 292.047 -257.359 290.175C-197.584 304.977 -135.88 293.408 -75.4805 302.198C-7.59506 305.147 59.6664 291.763 126.758 284.787C49.5715 304.637 -30.5641 311.953 -110.132 313.087C-151.476 310.819 -193.16 316.15 -234.107 309.004C-193.671 320.857 -151.306 312.633 -109.962 315.469C-11.8486 325.621 88.4765 313.257 180.919 278.606C165.209 277.925 149.727 280.817 134.187 280.988ZM186.477 276.451C192.999 280.25 208.028 275.94 206.61 267.036C199.918 264.087 186.874 268.738 186.477 276.451ZM-216.98 382.22C-161.854 383.071 -106.673 385.68 -51.6046 383.184C-53.0791 381.71 -56.0849 378.761 -57.6161 377.286C-110.643 380.802 -163.896 379.555 -216.98 382.22Z" fill="#B6CD89"/>
<path d="M372.323 261.648L376.69 258.302C391.265 259.323 373.628 273.898 372.323 261.648Z" fill="#D1CFBF"/>
<path d="M186.475 276.45C186.872 268.737 199.916 264.087 206.608 267.036C208.025 275.94 192.997 280.25 186.475 276.45Z" fill="#70844C"/>
<path d="M359.162 289.551C356.894 292.103 356.894 292.103 359.162 289.551V289.551Z" fill="#878475"/>
<path d="M-223.62 331.065C-182.446 325.337 -140.989 331.972 -99.6456 330.668C-64.2 332.653 -28.6411 332.313 6.86121 333.22L1.36021 337.303C-1.19186 339.288 -6.4095 343.201 -8.96159 345.186C-0.681488 346.491 7.71199 347.682 16.1622 348.703C-57.9049 355.792 -132.312 349.667 -206.436 347.965C-160.385 344.733 -114.164 348.589 -68.1132 344.619V336.623C-120.062 337.757 -171.898 334.751 -223.62 331.065Z" fill="#5E7043"/>
<path d="M192.712 361.803C189.082 356.869 193.619 344.733 200.538 347.171L202.637 350.404C202.977 353.126 203.601 358.514 203.941 361.236C201.162 361.406 195.548 361.69 192.712 361.803Z" fill="#F3EFDF"/>
<path d="M213.694 345.867C216.133 345.356 221.01 344.336 223.392 343.825L223.789 348.759L219.592 351.368C218.118 350.007 215.169 347.285 213.694 345.867Z" fill="#838376"/>
<path d="M-87.2238 406.549C-1.87079 404.281 84.7298 396.454 166.397 370.423L165.263 376.094C159.194 384.091 153.239 392.087 147.511 400.254C145.64 401.729 142.01 404.734 140.138 406.266C120.232 408.761 100.666 413.128 81.0435 417.098C65.7877 420.104 50.362 411.994 35.5032 417.722C24.5576 419.82 13.9521 422.939 3.17668 425.435C-21.6069 427.703 -47.4113 420.331 -71.2875 429.745C-82.7435 433.318 -94.7102 427.817 -106.223 427.023C-41.7969 416.758 24.8409 419.593 88.4161 403.714C61.8745 404.281 35.8432 409.952 9.35822 411.143C-24.4995 416.304 -58.9242 414.603 -92.7252 420.274C-129.589 420.501 -166.735 422.712 -203.429 417.949C-189.477 407.797 -171.273 411.937 -155.109 411.256C-132.368 412.391 -109.739 409.612 -87.2238 406.549Z" fill="#B1C58B"/>
<path d="M231.788 396.455C232.639 414.943 249.142 387.664 231.788 396.455V396.455Z" fill="#938F87"/>
<path d="M81.0426 417.098C100.665 413.128 120.231 408.761 140.137 406.266C138.436 407.514 135.09 409.952 133.389 411.2C108.548 420.218 81.9502 424.244 55.692 425.549C45.9374 433.148 33.6874 432.808 22.0045 432.751C6.40843 442.562 -12.5907 440.918 -28.924 433.999C-47.8094 424.755 -67.7721 434.055 -86.4307 438.649C-118.417 423.564 -155.337 437.912 -188.911 427.987C-161.349 428.951 -133.73 429.802 -106.224 427.023C-94.7111 427.817 -82.7445 433.318 -71.2884 429.745C-47.4123 420.331 -21.6078 427.704 3.17575 425.435C13.9512 422.94 24.5566 419.821 35.5022 417.722C50.361 411.994 65.7868 420.104 81.0426 417.098Z" fill="#213016"/>
<path d="M-18.5483 459.35C-0.230005 459.01 18.372 457.989 36.5201 461.562C18.2586 464.568 -0.286539 463.433 -18.7183 463.49L-18.5483 459.35Z" fill="#213016"/>
<path d="M218.571 403.204C221.86 406.436 221.86 406.436 218.571 403.204V403.204Z" fill="#8A887E"/>
<path d="M55.6924 425.548C81.9506 424.244 108.549 420.217 133.389 411.2C130.894 416.077 127.888 420.557 124.372 424.641C86.1472 431.049 48.5464 441.314 9.81146 444.831C46.6749 447.78 83.0848 439.443 119.495 434.679C117.226 436.834 112.746 441.144 110.534 443.299C88.5859 451.069 65.1635 452.26 42.535 456.854C63.4054 457.648 84.2755 455.096 104.692 450.502C96.9792 457.591 89.3233 464.567 81.6103 471.542C62.9518 466.722 44.2931 472.62 25.8613 475.059C5.33124 478.008 -15.4824 477.611 -36.1259 478.575C-2.4384 481.127 31.1924 476.817 64.5396 472.223C67.6589 475.115 70.8915 478.008 74.1241 480.957C31.9864 487.819 -9.98141 495.986 -52.9699 495.362C-17.1272 501.317 18.4884 491.278 54.331 492.696C43.8958 500.126 31.4758 503.131 18.9989 504.266C10.6054 505.173 2.32553 505.797 -5.95456 506.364C-3.5159 507.895 1.41801 510.901 3.85666 512.376C-18.8285 514.758 -41.6272 513.056 -64.2557 511.298C-115.241 509.143 -166.452 509.767 -217.21 503.188C-227.022 502.394 -236.777 501.827 -246.531 501.033C-237.117 499.956 -227.703 499.048 -218.175 498.651C-176.151 503.415 -133.956 501.997 -91.7614 502.791L-89.3227 504.776C-92.5554 500.182 -95.6746 495.532 -98.567 490.938C-106.677 490.598 -114.673 490.201 -122.67 490.201C-95.7313 486.288 -68.4526 486.061 -41.3438 484.246C-99.8149 480.163 -158.342 475.569 -216.927 473.981C-226.852 473.868 -236.72 473.471 -246.531 472.903C-236.777 471.996 -227.079 471.315 -217.154 470.975C-156.358 472.109 -95.2209 472.96 -34.7081 466.381C-95.8447 461.334 -157.378 467.119 -218.515 461.334C-225.604 459.406 -232.58 457.421 -239.555 455.493C-236.209 455.946 -229.631 456.797 -226.342 457.251C-151.537 464.964 -76.7893 450.672 -1.92816 450.332C-49.2268 445.001 -96.6956 450.559 -144.108 451.239C-168.267 451.409 -192.2 447.553 -216.36 446.986C-228.383 446.305 -240.293 445.398 -252.203 444.093C-242.505 443.469 -232.75 443.072 -222.882 443.016C-177.001 443.299 -130.837 445.284 -85.1828 439.273L-86.4303 438.649C-67.7717 434.055 -47.809 424.754 -28.9236 433.998C-12.5903 440.917 6.40881 442.562 22.0049 432.751C33.6878 432.807 45.9378 433.148 55.6924 425.548ZM-18.545 459.349L-18.715 463.489C-0.283264 463.432 18.2618 464.567 36.5234 461.561C18.3752 457.988 -0.22673 459.009 -18.545 459.349Z" fill="#697B4F"/>
<path d="M-52.9702 495.362C-9.98177 495.986 31.986 487.82 74.1238 480.957C55.2384 495.079 38.508 516.289 12.3633 514.701C14.0079 512.093 17.3539 506.875 18.9986 504.266C31.4754 503.132 43.8955 500.126 54.3307 492.697C18.4881 491.279 -17.1276 501.317 -52.9702 495.362Z" fill="#C5DB95"/>
<path d="M-5.95473 506.364C2.32536 505.797 10.6053 505.174 18.9988 504.266C17.3541 506.875 14.0081 512.092 12.3634 514.701C-40.4931 524.059 -94.3137 525.987 -147.851 524.343C-155.904 522.074 -163.844 519.522 -171.727 517.027C-135.941 518.615 -99.1911 520.883 -64.2559 511.299C-41.6274 513.057 -18.8287 514.758 3.85651 512.376C1.41785 510.902 -3.51607 507.896 -5.95473 506.364Z" fill="#34421D"/>
<path d="M-326.155 543.456C-319.35 538.238 -310.786 539.996 -302.96 541.187C-231.785 552.586 -159.476 549.807 -87.6771 551.112C-35.9548 552.246 15.5971 546.461 66.7523 539.259C32.3842 556.953 -7.59824 556.103 -45.0288 561.547L-49.5094 571.642C-33.8566 571.132 -18.2036 569.884 -2.49408 568.409C-101.118 585.99 -203.939 588.996 -301.939 566.254L-298.819 569.317L-295.417 571.642C-295.474 573.343 -295.587 576.746 -295.644 578.391C-304.377 576.122 -312.374 571.925 -320.597 568.523C-323.433 560.583 -330.125 552.133 -326.155 543.456ZM-210.517 561.263L-210.404 564.099C-157.661 574.931 -103.273 573.967 -49.7361 571.869L-46.2767 562.228C-100.948 565.29 -156.073 567.615 -210.517 561.263Z" fill="#FEFDF8"/>
</g>
</svg>
