<svg width="98" height="29" viewBox="0 0 98 29" fill="none" xmlns="http://www.w3.org/2000/svg">
<path d="M24.7227 28.1562H18.5117C17.8997 28.1562 17.4831 27.9479 17.2617 27.5312C17.0534 27.1016 16.8841 26.5026 16.7539 25.7344L15.6602 19.1523L14.625 25.5781C14.4818 26.4896 14.293 27.1471 14.0586 27.5508C13.8372 27.9544 13.388 28.1562 12.7109 28.1562H6.5C5.88802 28.1562 5.45833 27.9479 5.21094 27.5312C4.97656 27.1146 4.82682 26.5156 4.76172 25.7344L2.98438 4.44531C2.94531 4.02865 2.85417 3.73568 2.71094 3.56641C2.58073 3.39714 2.33984 3.3125 1.98828 3.3125C1.63672 3.3125 1.35677 3.20182 1.14844 2.98047C0.953125 2.74609 0.855469 2.46615 0.855469 2.14062V1.33984C0.855469 1.01432 0.966146 0.740885 1.1875 0.519531C1.42188 0.285156 1.70182 0.167969 2.02734 0.167969H7.57422C7.89974 0.167969 8.17318 0.285156 8.39453 0.519531C8.62891 0.740885 8.74609 1.01432 8.74609 1.33984V2.14062C8.74609 2.46615 8.64193 2.74609 8.43359 2.98047C8.23828 3.20182 7.97135 3.3125 7.63281 3.3125C7.39844 3.3125 7.26823 3.37109 7.24219 3.48828C7.22917 3.60547 7.22266 3.69661 7.22266 3.76172C7.22266 3.90495 7.95833 8.97005 9.42969 18.957L11.7148 9.66016C11.9102 8.86589 12.2096 8.21484 12.6133 7.70703C13.0169 7.1862 13.6289 6.92578 14.4492 6.92578L16.0508 6.94531C16.8841 6.95833 17.4701 7.22526 17.8086 7.74609C18.1602 8.26693 18.4466 8.89844 18.668 9.64062L21.4023 18.957L23.3945 4.21094C23.4336 3.9375 23.4531 3.71615 23.4531 3.54688C23.4401 3.39062 23.3424 3.3125 23.1602 3.3125C22.8216 3.3125 22.5482 3.20182 22.3398 2.98047C22.1315 2.74609 22.0273 2.46615 22.0273 2.14062V1.33984C22.0273 1.01432 22.1445 0.740885 22.3789 0.519531C22.6133 0.285156 22.8932 0.167969 23.2188 0.167969H29.1172C29.4427 0.167969 29.7161 0.285156 29.9375 0.519531C30.1719 0.740885 30.2891 1.01432 30.2891 1.33984V2.14062C30.2891 2.46615 30.1914 2.74609 29.9961 2.98047C29.8138 3.20182 29.5339 3.3125 29.1562 3.3125C28.7786 3.3125 28.5573 3.6901 28.4922 4.44531L26.6172 25.5781C26.5391 26.5026 26.3698 27.1667 26.1094 27.5703C25.849 27.9609 25.3867 28.1562 24.7227 28.1562ZM35.9922 28.7812C34.5469 28.7812 33.3555 28.4818 32.418 27.8828C31.4805 27.2708 30.7839 26.4831 30.3281 25.5195C29.8724 24.556 29.6445 23.5339 29.6445 22.4531C29.6445 21.2161 29.931 20.0117 30.5039 18.8398C31.0768 17.668 31.9167 16.7044 33.0234 15.9492C34.1302 15.194 35.4779 14.8164 37.0664 14.8164C37.9779 14.8164 38.8633 14.9922 39.7227 15.3438C39.8138 13.4818 39.8594 12.349 39.8594 11.9453C39.8594 11.0208 39.6836 10.2852 39.332 9.73828C38.9805 9.19141 38.5312 8.91797 37.9844 8.91797C37.5026 8.91797 37.0208 9.17188 36.5391 9.67969C36.0573 10.1745 35.6667 10.9427 35.3672 11.9844C35.237 12.4792 35.0482 12.7852 34.8008 12.9023C34.6836 12.9544 34.5404 12.9805 34.3711 12.9805C34.2018 12.9805 33.3229 12.7721 31.7344 12.3555C31.2656 12.2253 31.0312 11.9648 31.0312 11.5742C31.0312 11.3919 31.0703 11.1901 31.1484 10.9688C31.7995 9.04167 32.7565 7.63542 34.0195 6.75C35.2826 5.86458 36.7148 5.42188 38.3164 5.42188C40.2695 5.42188 41.8776 6.02083 43.1406 7.21875C44.4036 8.40365 45.1068 10.0768 45.25 12.2383L45.8359 23.3125C45.875 23.6641 45.9661 23.8398 46.1094 23.8398C46.4219 23.8398 46.6888 23.957 46.9102 24.1914C47.1315 24.4258 47.2422 24.7057 47.2422 25.0312V26.9648C47.2422 27.2904 47.1315 27.5703 46.9102 27.8047C46.6888 28.0391 46.4219 28.1562 46.1094 28.1562H39.0977C38.0951 28.5729 37.0599 28.7812 35.9922 28.7812ZM36.3828 24.4258C36.9036 24.4258 37.444 24.1784 38.0039 23.6836C38.5638 23.1758 39.0326 22.4792 39.4102 21.5938L39.5469 19.0156C38.9219 18.5208 38.2839 18.2734 37.6328 18.2734C36.9688 18.2734 36.4414 18.4688 36.0508 18.8594C35.6602 19.237 35.3802 19.7188 35.2109 20.3047C35.0417 20.8776 34.957 21.457 34.957 22.043C34.957 23.6315 35.4323 24.4258 36.3828 24.4258ZM56.8906 28.8008C51.7214 28.8008 49.1367 24.9141 49.1367 17.1406C49.1367 16.4115 49.1628 15.6237 49.2148 14.7773H48.6875C48.362 14.7773 48.0885 14.6667 47.8672 14.4453C47.6589 14.2109 47.5547 13.931 47.5547 13.6055V12.4531C47.5547 12.1276 47.6589 11.8477 47.8672 11.6133C48.0885 11.3789 48.362 11.2617 48.6875 11.2617H49.5664C49.8268 9.23047 50.2174 6.95833 50.7383 4.44531C50.7773 4.22396 50.7969 4.03516 50.7969 3.87891C50.7969 3.51432 50.6536 3.33203 50.3672 3.33203C50.0286 3.33203 49.7552 3.21484 49.5469 2.98047C49.3516 2.74609 49.2539 2.46615 49.2539 2.14062V1.33984C49.2539 1.01432 49.3646 0.740885 49.5859 0.519531C49.8203 0.285156 50.1003 0.167969 50.4258 0.167969H56.5195C56.8451 0.167969 57.1185 0.285156 57.3398 0.519531C57.5742 0.740885 57.6914 1.01432 57.6914 1.33984V2.14062C57.6914 2.46615 57.5872 2.74609 57.3789 2.98047C57.1836 3.21484 56.9232 3.33203 56.5977 3.33203C56.2721 3.33203 56.0964 3.48177 56.0703 3.78125C55.862 6.5026 55.7188 8.99609 55.6406 11.2617H56.7539C57.0794 11.2617 57.3464 11.3789 57.5547 11.6133C57.776 11.8477 57.8867 12.1276 57.8867 12.4531V13.6055C57.8867 13.931 57.776 14.2109 57.5547 14.4453C57.3464 14.6667 57.0794 14.7773 56.7539 14.7773H55.582V14.875C55.582 21.2682 56.2852 24.4648 57.6914 24.4648C58.069 24.4648 58.3685 24.3281 58.5898 24.0547C58.8242 23.7812 59.013 23.3646 59.1562 22.8047C59.2734 22.3099 59.4297 22.0169 59.625 21.9258C59.8333 21.8346 60.0156 21.7891 60.1719 21.7891C60.4583 21.7891 61.3177 22.0234 62.75 22.4922C63.2969 22.6745 63.6354 22.8633 63.7656 23.0586C63.9089 23.2409 63.9805 23.4297 63.9805 23.625C63.9805 23.7682 63.9609 23.918 63.9219 24.0742C63.5833 25.2331 63.0885 26.1576 62.4375 26.8477C61.7865 27.5378 60.9857 28.0326 60.0352 28.332C59.0977 28.6445 58.0495 28.8008 56.8906 28.8008ZM73.1602 28.7812C70.2305 28.7812 68.0039 27.7135 66.4805 25.5781C65.1133 23.651 64.4297 21.1901 64.4297 18.1953C64.4297 15.6042 64.7747 13.3516 65.4648 11.4375C66.1549 9.52344 67.1576 8.04557 68.4727 7.00391C69.7878 5.94922 71.3763 5.42188 73.2383 5.42188C74.5794 5.42188 75.7513 5.79948 76.7539 6.55469C77.7695 7.29688 78.5573 8.26042 79.1172 9.44531C79.6901 10.6302 79.9766 11.8672 79.9766 13.1562C79.9766 14.7708 79.638 16.1966 78.9609 17.4336C78.2839 18.6576 77.2487 19.6146 75.8555 20.3047C74.4753 20.9948 72.724 21.3398 70.6016 21.3398C70.9271 23.3841 71.8125 24.4062 73.2578 24.4062C73.8698 24.4062 74.3581 24.1784 74.7227 23.7227C75.1003 23.2669 75.3672 22.7266 75.5234 22.1016C75.6406 21.6068 75.7969 21.3138 75.9922 21.2227C76.2005 21.1315 76.3828 21.0859 76.5391 21.0859C76.7865 21.0859 77.0924 21.1445 77.457 21.2617C78.0039 21.444 78.5508 21.6263 79.0977 21.8086C79.6576 21.9909 80.0026 22.1797 80.1328 22.375C80.276 22.5573 80.3477 22.7461 80.3477 22.9414C80.3477 23.0716 80.3216 23.2214 80.2695 23.3906C79.7878 25.1354 78.9414 26.4701 77.7305 27.3945C76.5195 28.319 74.9961 28.7812 73.1602 28.7812ZM70.25 16.9453C71.4479 16.9453 72.4049 16.737 73.1211 16.3203C73.8503 15.8906 74.3776 15.3503 74.7031 14.6992C75.0286 14.0482 75.1914 13.3711 75.1914 12.668C75.1914 11.6263 74.9766 10.7148 74.5469 9.93359C74.1302 9.15234 73.694 8.76172 73.2383 8.76172C72.6133 8.76172 72.0794 9.17188 71.6367 9.99219C71.194 10.7995 70.849 11.8281 70.6016 13.0781C70.3672 14.3281 70.25 15.6172 70.25 16.9453ZM91.168 28.1562H83.1211C82.7956 28.1562 82.5221 28.0391 82.3008 27.8047C82.0794 27.5703 81.9688 27.2904 81.9688 26.9648V25.0312C81.9688 24.7057 82.0794 24.4258 82.3008 24.1914C82.5221 23.957 82.7956 23.8398 83.1211 23.8398C83.2513 23.8398 83.3294 23.6641 83.3555 23.3125C84.1367 14.888 84.5273 10.4284 84.5273 9.93359C84.5273 9.4388 84.3581 9.19141 84.0195 9.19141C83.694 9.19141 83.4271 9.08073 83.2188 8.85938C83.0234 8.625 82.9258 8.34505 82.9258 8.01953V7.21875C82.9258 6.89323 83.0365 6.61979 83.2578 6.39844C83.4922 6.16406 83.7721 6.04688 84.0977 6.04688H88.0234C88.6094 6.04688 89.0065 6.22266 89.2148 6.57422C89.9831 5.79297 90.9922 5.40234 92.2422 5.40234C93.1927 5.40234 94.0065 5.61068 94.6836 6.02734C95.3737 6.44401 95.9401 7.00391 96.3828 7.70703C96.8255 8.39714 97.1706 9.15885 97.418 9.99219C97.4831 10.2005 97.5156 10.3958 97.5156 10.5781C97.5156 10.6693 97.5026 10.7995 97.4766 10.9688C97.4505 11.125 97.2357 11.2552 96.832 11.3594C94.8008 11.8932 93.7005 12.1602 93.5312 12.1602C92.9193 12.1602 92.6133 11.8802 92.6133 11.3203V10.5391C92.6133 9.35417 92.2552 8.76172 91.5391 8.76172C90.5755 8.76172 90.0938 9.71224 90.0938 11.6133C90.0938 12.0299 90.3737 15.9297 90.9336 23.3125C90.9596 23.6641 91.0378 23.8398 91.168 23.8398C91.4935 23.8398 91.7669 23.957 91.9883 24.1914C92.2096 24.4258 92.3203 24.7057 92.3203 25.0312V26.9648C92.3203 27.2904 92.2096 27.5703 91.9883 27.8047C91.7669 28.0391 91.4935 28.1562 91.168 28.1562Z" fill="black"/>
</svg>
